<?xml version="1.0" encoding="UTF-8"?><svg id="cave_grass" xmlns="http://www.w3.org/2000/svg" viewBox="0 0 2018.06 894"><defs><style>.cls-1{fill:#babc33;stroke-width:0px;}</style></defs><path class="cls-1" d="M1845.93,781.08c-.18-.49-1.27-.28-1.1.21.86,2.53,1.26,5.07,1.31,7.63-1.7-.04-3.41-.08-5.14-.13-.63-3.06-1.52-6.08-2.66-9.08-.14-.38-.95-.22-.84.16.83,2.94,1.42,5.9,1.76,8.88-.65-.02-1.29-.03-1.94-.05-1.02-3.9-2.75-7.71-5.09-11.38-.16-.26-.8-.07-.65.19,1.99,3.64,3.28,7.36,4.01,11.14-1.64-.05-3.3-.09-4.96-.14-1.72-4.2-4.16-8.25-7.31-12.09-.24-.29-.85-.03-.64.26,2.68,3.79,4.65,7.73,5.99,11.77-.93-.03-1.88-.06-2.82-.09-2.44-5.37-5.8-10.54-9.99-15.47-.49-.58-1.77-.06-1.31.52,3.72,4.72,6.57,9.71,8.61,14.86-.99-.03-2-.07-3-.1-2.48-4.77-5.67-9.38-9.34-13.78-.47-.56-1.69-.06-1.26.5,3.21,4.26,5.8,8.67,7.97,13.18-1.72-.06-3.47-.12-5.22-.18-3.86-6.68-8.68-13.1-14.47-19.05-.46-.47-1.53-.06-1.12.45,4.77,6.01,8.94,12.15,12.42,18.49-1.54-.06-3.1-.12-4.66-.18-3.84-8.68-9.86-16.89-17.88-24.17-.4-.36-1.29-.04-.92.37,6.84,7.38,12.03,15.34,15.46,23.67-1.72-.07-3.46-.14-5.21-.21-3.63-8.96-8.84-17.63-15.15-25.83-.38-.49-1.43-.06-1.08.43,5.85,8.12,10.2,16.59,13.42,25.28-.52-.02-1.05-.05-1.58-.07-4.83-10.02-11.7-19.54-20.35-28.41-.32-.33-1.09-.03-.78.31,7.94,8.67,14.06,18.14,18.33,27.97-1.13-.05-2.27-.1-3.42-.15-4.86-8.53-10.9-16.76-17.84-24.56-.59-.66-2.07-.07-1.51.61,6.38,7.65,11.7,15.6,16.12,23.8-1.81-.08-3.64-.17-5.48-.26-5.53-11.3-13.8-21.94-24.14-31.57-.57-.53-1.88-.02-1.31.52,9.92,9.44,17.34,19.9,22.45,30.91-.85-.04-1.71-.08-2.57-.12-6.45-9.91-14.82-19.21-24.66-27.76-.47-.41-1.49.14-1.04.55,9.31,8.34,16.87,17.45,22.79,27.07-1.76-.09-3.53-.18-5.31-.27-6.96-11.51-16.45-22.23-28.05-31.96-.44-.37-1.2.16-.77.53,7.29,6.28,13.59,13.08,18.9,20.23-8.05-8.73-17.91-16.68-29.08-23.53-.58-.36-1.44.22-.86.59,15.11,9.71,26.95,21.24,35.6,33.92-.3-.02-.6-.03-.9-.05-4.57-5.65-10.4-10.82-17.19-15.34-3.67-3.84-7.14-7.77-10.38-11.79-.26-.32-.92-.04-.71.28,6.15,9.59,14.18,18.43,23.63,26.59-1.42-.08-2.83-.15-4.27-.23-4.35-4.6-9.3-8.95-14.8-12.99-.63-.47-1.61.22-1.01.69,4.84,3.81,9.18,7.87,13.04,12.14-1.06-.06-2.11-.12-3.18-.18-3.08-2.39-6.06-4.84-8.92-7.36-4.15-4.43-7.89-9.05-11.23-13.87-.28-.41-1.3-.11-1.07.31,1.29,2.29,2.72,4.54,4.26,6.76-.09.09-.12.2-.01.32.44.52.9,1.03,1.35,1.54,3.04,4.15,6.5,8.16,10.35,11.99-.34-.02-.68-.04-1.01-.06-1.51-1.12-3.01-2.24-4.5-3.36-5.16-5.65-9.83-11.52-13.9-17.56-.35-.53-1.44-.07-1.12.45,2.55,4.1,5.33,8.11,8.34,12.03-4.43-3.41-8.79-6.87-13.04-10.4-.14-.11-.32-.16-.5-.16-4.21-4.98-7.98-10.14-11.32-15.43-.3-.47-1.46-.13-1.21.35,5.94,11.55,14.97,22.85,26.33,32.77-5.14-3.22-10.15-6.54-15.01-9.97-3.93-4.55-7.55-9.23-10.87-14.03-.38-.55-1.76-.15-1.43.41,1.75,3,3.67,5.95,5.73,8.84-1.92-1.44-3.82-2.91-5.69-4.39-.13-.1-.39.04-.27.14,2.48,2.24,5.05,4.44,7.67,6.6,3.2,4.28,6.74,8.44,10.59,12.47-1.19-.08-2.39-.15-3.59-.23-6.51-5.02-12.75-10.21-18.67-15.57-.33-.3-1.07-.03-.76.3,5.01,5.19,10.38,10.21,16.08,15.05-1.61-.11-3.22-.21-4.84-.32-9.83-8.91-18.19-18.45-25.72-28.48-.43-.57-1.87-.16-1.53.44,3.39,5.94,7.58,11.69,12.38,17.21-.97-.97-1.91-1.95-2.81-2.94-.36-.4-1.26-.04-.92.37,3.9,4.66,8.35,9,13.36,13.05-.47-.03-.93-.06-1.39-.09-6.37-4.18-12.5-8.53-18.34-13.07-.6-.47-1.56.21-.99.68,5.09,4.19,10.4,8.24,15.93,12.15-2.29-.16-4.58-.32-6.9-.48-9.44-8.8-17.53-18.29-23.45-28.43-.34-.58-1.72-.33-1.38.26,5.73,9.82,12.7,19.23,21.3,27.92-1.08-.08-2.16-.15-3.25-.23-6.57-5.41-12.56-11.16-17.78-17.22-.21-.24-.75-.03-.55.22,4.74,5.86,9.96,11.47,15.74,16.81-1.51-.11-3.04-.22-4.56-.34-6.44-4.76-12.29-9.9-17.28-15.36-.39-.43-1.36-.04-.98.39,4.48,5.19,9.38,10.1,14.82,14.71-.41-.03-.81-.06-1.21-.09-5.42-4.84-10.46-9.88-15.07-15.12-.5-.57-1.78-.06-1.31.52,4.07,4.95,8.5,9.74,13.28,14.36-1.53-.12-3.07-.23-4.61-.35-4.78-4.62-9.2-9.42-12.98-14.46-.25-.33-.98-.04-.73.29,3.5,4.79,7.23,9.48,11.36,13.99-1.26-.1-2.54-.2-3.8-.3-3.07-5.46-7.38-10.55-12.76-15.15-.54-.46-1.69.16-1.19.63,4.69,4.41,8.33,9.21,10.97,14.29-1.42-.11-2.84-.22-4.27-.34-2.71-5.47-6.85-10.52-12.24-15.09-.54-.46-1.7.16-1.19.63,4.74,4.3,8.28,9.13,10.6,14.23-.07,0-.13-.01-.2-.02-3.14-5.18-7.46-9.94-12.92-14.19-.37-.29-1.11.11-.77.41,4.63,4.14,8.28,8.7,10.91,13.56-.64-.05-1.26-.1-1.9-.15-4.99-7.18-11.57-13.76-19.06-19.88-.41-.34-1.08.14-.69.48,6.78,5.84,12.15,12.34,16.54,19.14-.79-.06-1.59-.13-2.38-.2-3.41-5.95-8.48-11.39-15-16.06-.37-.27-.91.12-.58.4,5.54,4.62,9.78,9.84,12.65,15.42-.31-.03-.62-.05-.93-.08-7.13-11.35-19.26-20.85-34.92-27.45-.24-.1-.44.15-.21.25,14.07,6.53,25.14,16.14,31.74,26.92-1.26-.1-2.52-.21-3.78-.32-4.96-7.19-12.04-13.64-20.82-18.93-.55-.33-1.34.2-.81.55,7.82,5.24,14.04,11.38,18.5,18.12-1.11-.09-2.23-.19-3.34-.29-5.05-8.01-13.39-14.78-23.89-19.92-.68-.33-1.28.42-.64.75,9.31,4.9,16.41,11.51,21.01,18.86-.46-.04-.91-.08-1.37-.12-3.79-4.99-8.53-9.63-14.05-13.89-.55-.42-1.42.19-.9.62,4.84,3.98,8.85,8.37,12.08,13.02-.74-.06-1.5-.13-2.24-.2-6.47-8.65-16.2-16.17-25.86-23.27-.82-.6-2.09.29-1.31.9,8.63,6.82,17.32,13.99,23.34,22.03-1.79-.16-3.57-.31-5.37-.47-8.73-12.55-22.44-23.58-38.53-31.83-.53-.27-1.21.34-.71.63,8.28,4.65,15.45,9.91,21.61,15.66-3.11-2.57-6.43-5.02-9.97-7.33-.67-.44-1.67.25-1.01.69,9.29,6.38,16.89,13.69,22.79,21.65-1.81-.16-3.61-.33-5.44-.49-4.16-6.6-10.13-12.62-17.5-17.8-.96-.67-2.42.34-1.5,1.03,6.52,4.88,11.63,10.43,15.34,16.44-1.87-.17-3.74-.34-5.63-.52-3.26-4.27-5.92-8.74-8.06-13.37-.23-.49-1.28-.29-1.13.21,1.37,4.45,3.47,8.75,6.16,12.87-1.07-.1-2.14-.2-3.21-.3-2.38-3.96-4.24-8.05-5.57-12.25-.14-.44-1.07-.25-.97.18.97,4.05,2.44,8.01,4.37,11.87-.33-.03-.65-.06-.97-.09-1.76-3.97-3.9-7.85-6.32-11.67-.34-.54-1.71-.14-1.38.4,2.18,3.6,3.94,7.29,5.38,11.05-.3-.03-.61-.06-.91-.09-2.79-6.06-7.16-11.76-12.57-16.97-.57-.55-1.88-.04-1.33.53,4.9,5.01,8.36,10.45,10.76,16.13-.64-.06-1.28-.12-1.92-.18-1.65-3.42-3.73-6.74-6.23-9.93-.45-.57-1.65-.07-1.26.5,2.04,2.98,3.69,6.04,4.99,9.19-.52-.05-1.02-.1-1.54-.15-2.66-4.8-6.38-9.29-11.07-13.39-.44-.38-1.38.13-.98.52,4.03,3.91,7.19,8.14,9.43,12.61-2.15-.21-4.32-.42-6.49-.63-3.03-4.31-6.74-8.4-10.93-12.3-.37-.34-1.22-.01-.85.34,3.84,3.67,6.99,7.62,9.59,11.75-1.5-.15-3.02-.3-4.53-.45-4.51-6.83-10.39-13.26-17.2-19.14-.35-.3-1.1.1-.77.41,6.27,5.72,11.27,11.93,15.2,18.46-1.16-.12-2.3-.23-3.46-.34-2.86-5-6.83-9.77-11.1-13.99-.71-.7-2.38-.06-1.69.68,3.63,3.89,6.71,8,9.09,12.33.12.22.22.43.34.65-.89-.09-1.78-.18-2.67-.27-4.86-7.95-11.72-15.4-19.51-21.87-.73-.6-1.92.25-1.24.85,6.32,5.54,11.63,11.59,15.78,18.03.56.88,1.09,1.76,1.6,2.65-.97-.1-1.92-.19-2.89-.29-6.03-8.02-14.02-15.31-23.71-21.53-1.02-.66-2.53.38-1.54,1.05,8.66,5.89,15.85,12.68,21.35,20.08-1.69-.17-3.39-.35-5.09-.53-9.94-11.03-22.67-20.79-37.8-28.69-.6-.31-1.37.38-.8.71,13.51,7.92,25.18,17.2,34.44,27.54-.96-.1-1.93-.2-2.9-.3-6.56-6.91-14.75-13.05-24.36-18.18-1.05-.56-2.56.42-1.5,1.03,8.44,4.82,15.76,10.46,21.75,16.72-.88-.09-1.76-.18-2.64-.28-8.96-8.39-20.01-15.74-32.41-21.85-.4-.2-.78.26-.39.45,11.61,5.83,21.5,13.02,29.64,21.06-1.33-.14-2.66-.28-4-.43-3.72-3.36-7.68-6.59-11.83-9.73-.84-.63-2.19.3-1.37.94,3.5,2.69,6.76,5.51,9.83,8.43-2.92-.31-5.85-.63-8.8-.95-2.21-1.37-4.41-2.74-6.59-4.13-.72-.46-1.8.27-1.09.75,1.52,1.01,3.03,2.03,4.54,3.05-2.98-.33-5.98-.66-8.99-.99-2.78-2.8-5.06-5.82-6.9-9-.27-.46-1.27-.29-1.1.21.99,2.99,2.59,5.79,4.68,8.43-1.41-.16-2.81-.31-4.22-.47-1.14-1.77-2.12-3.59-2.87-5.49-.3-.77-2.01-.44-1.74.33.58,1.65,1.28,3.28,2.09,4.87-1.18-.13-2.36-.26-3.54-.4-2.69-3.91-3.91-8.16-3.55-12.55.02-.24-.57-.3-.63-.06-.88,4.21-.34,8.37,1.55,12.32-.75-.08-1.49-.17-2.24-.25-2.35-5.09-3.86-10.36-4.52-15.72-.08-.63-1.49-.65-1.46,0,.27,5.22,1.35,10.37,3.19,15.4-1.92-.22-3.85-.44-5.78-.66-2.21-8.21-2.1-16.66.51-24.91.15-.48-.9-.68-1.07-.2-2.96,8.15-3.67,16.56-2.08,24.81-.55-.06-1.09-.12-1.64-.19-1.88-5.11-2.74-10.39-2.41-15.66.04-.61-1.33-.6-1.38,0-.38,4.48-.15,8.92.75,13.29-2.26-4.41-3.63-9.01-3.82-13.75-.01-.28-.64-.28-.64,0,.06,5.34,1.06,10.59,3.27,15.63-1.94-.22-3.88-.45-5.83-.68-.91-2.28-1.49-4.64-1.66-7.05-.01-.19-.43-.19-.42,0,.05,2.35.38,4.66,1.01,6.92-1-.12-1.98-.23-2.98-.35-.98-3.72-2.4-7.36-4.24-10.96-.43-.84-2.37-.49-1.97.37,1.57,3.36,2.68,6.78,3.38,10.25-1.39-.16-2.79-.33-4.18-.49-1.48-3.44-3.19-6.83-5.18-10.17-.59-.98-2.93-.59-2.38.45,1.61,3.07,3.01,6.18,4.21,9.32-1.59-.19-3.18-.38-4.78-.57-4.28-8.94-10.27-17.51-17.44-25.47-.42-.47-1.48-.05-1.08.43,6.63,7.81,11.49,16.06,14.93,24.61-1.58-.19-3.16-.38-4.75-.57-3.4-7.56-7.97-14.88-13.5-21.83-.71-.89-2.61-.11-1.97.79,4.73,6.62,8.46,13.49,11.29,20.55-.74-.09-1.48-.18-2.22-.27-5.85-12.66-15.87-24.38-29.21-34.01-.32-.23-.91.06-.59.3,3.77,2.79,7.28,5.73,10.5,8.82,7.85,7.54,13.93,15.91,17.99,24.73-.85-.1-1.71-.21-2.57-.31-4.06-6.44-8.9-12.64-14.27-18.66-.52-.59-1.86-.06-1.35.54,4.76,5.66,8.74,11.6,12.14,17.69-.43-.05-.85-.1-1.28-.16-.06-.09-.12-.19-.18-.28-9.87-14.26-24.39-26.93-42.44-36.75-.12-.06-.26.06-.14.13,5.07,2.88,9.85,5.98,14.36,9.28,7.77,5.69,14.63,11.97,20.42,18.67,2.47,2.86,4.68,5.8,6.7,8.79-3.23-.39-6.5-.8-9.76-1.2-4.53-7.79-10.21-15.25-16.99-22.26-.15-.16-.48.02-.34.17,6.52,6.92,12,14.3,16.34,21.97-.93-.11-1.85-.23-2.78-.34-5.26-7.44-11.85-14.4-19.64-20.79-.33-.27-1.01.1-.71.37,6.82,6.22,12.55,12.94,17.14,20.01-.88-.11-1.76-.22-2.64-.33-9.36-10.74-20.52-20.73-33.22-29.74-.25-.17-.69.05-.45.23,4.55,3.28,8.91,6.68,13.06,10.21,7.12,6.06,13.59,12.47,19.38,19.15-2.25-.28-4.49-.56-6.75-.84-2.76-4.44-6.24-8.65-10.39-12.59-.22-.21-.69.03-.47.24,3.98,3.8,7.3,7.92,9.92,12.23-.16-.02-.33-.04-.5-.06-5.99-8.57-13.91-16.46-23.2-23.65-.48-.37-1.25.17-.79.54,8.45,6.75,15.09,14.44,20.11,22.62-3.07-.39-6.13-.77-9.22-1.17-8-12.8-20.13-24.34-35.37-33.56-.39-.24-.88.2-.5.43,4.64,2.85,8.99,5.92,13.01,9.18,8.83,7.16,16.06,15.19,21.46,23.77-1.95-.25-3.93-.5-5.89-.75-5.19-6.47-11.02-12.69-17.55-18.7-.55-.51-1.8-.03-1.26.5,5.66,5.6,10.74,11.56,15.17,17.72-.7-.09-1.38-.18-2.08-.27-6.45-7.39-14.47-14.17-23.29-20.05-.96-.64-2.37.34-1.46,1,7.57,5.55,14.12,11.74,19.51,18.37-2.07-.27-4.15-.54-6.23-.81-9.34-9.28-20.95-17.39-34.38-24.25-.68-.35-1.55.45-.9.8,11.74,6.34,21.95,14.14,30.21,22.79-4.09-.53-8.21-1.08-12.35-1.62-1.79-3.99-4.14-7.84-7.07-11.53-.6-.75-2.16-.09-1.65.66,2.19,3.21,3.97,6.51,5.37,9.89-4.82-6.86-10.8-13.35-17.81-19.25-.73-.62-2.27.21-1.6.85,6.12,5.85,11.36,12,15.72,18.44-.25-.03-.51-.07-.76-.1-11.68-13.76-28.39-25.43-48.48-33.6-1.08-.44-2.01.68-.98,1.15,18.04,8.14,33.07,19.07,44,31.73-.62-.08-1.24-.16-1.86-.25-5.64-6.42-12.43-12.28-21.58-16.69-.8-.39-1.53.51-.76.89,8.03,4.05,13.91,9.46,18.82,15.32-3.91-.52-7.83-1.05-11.78-1.59-5.46-6.08-11.59-11.87-18.29-17.33-.77-.63-2.01.27-1.29.89,5.85,5.07,11.14,10.41,15.93,15.95-2.11-.29-4.24-.58-6.37-.87-3.87-4.67-8.24-9.14-13.07-13.44-.49-.44-1.59-.01-1.1.44,4.34,3.99,8.16,8.22,11.49,12.64-1.22-.17-2.43-.33-3.65-.5-1.64-3.06-3.64-6.02-5.97-8.88-.46-.57-1.68-.07-1.26.5,1.9,2.61,3.48,5.29,4.76,8.04-1.23-.17-2.46-.34-3.69-.51-6.75-7.67-15.78-14.41-26.32-19.69-1.2-.6-2.29.75-1.15,1.35,9.36,4.94,17.07,10.96,23.05,17.73-.69-.1-1.37-.19-2.05-.28-2.89-2.9-6.31-5.55-10.18-7.9-1.02-.62-2.49.37-1.5,1.03,2.95,1.95,5.56,4.07,7.83,6.34-3.33-.46-6.68-.93-10.03-1.4-2.64-2.96-5.72-5.72-9.25-8.24-.75-.53-1.82.25-1.16.8,2.63,2.22,5.01,4.54,7.12,6.98-2.74-.38-5.5-.78-8.26-1.17-3.83-3.88-6.93-8.08-9.11-12.64-.12-.25-.7-.15-.59.11,1.83,4.25,4.35,8.38,7.55,12.23-.87-.12-1.74-.25-2.61-.37-2.26-2.57-4.31-5.22-6.09-7.96-.3-.46-1.47-.12-1.19.34,1.52,2.49,3.18,4.92,4.99,7.29-1.5-.21-3.02-.43-4.53-.64-5.92-8.14-10.02-16.89-11.88-25.92-.1-.51-1.22-.29-1.13.21,1.73,8.79,5.15,17.29,10.31,25.32-.12-.02-.23-.03-.35-.05-5.89-6.29-10.52-13.13-13.55-20.33-.12-.28-.75-.16-.64.12,2.79,6.98,6.71,13.64,11.81,19.87-1.48-.21-2.96-.42-4.45-.64-6.64-8.85-10.58-18.63-11.19-28.62-.04-.68-1.57-.68-1.54,0,.46,9.76,3.6,19.33,9.39,28.14-1.74-.25-3.49-.51-5.24-.76-4.46-6.56-7.49-13.54-8.71-20.87-.09-.54-1.33-.55-1.25,0,1.02,6.98,3.35,13.9,7.07,20.45-1.34-.19-2.67-.39-4.02-.58-2.93-4.79-4.44-9.93-4.44-15.22,0-.5-1.07-.49-1.11,0-.43,5.07.51,10.07,2.75,14.82-.74-.11-1.48-.22-2.21-.32-1.63-4.13-2.62-8.34-3.07-12.64-.03-.31-.7-.32-.72,0-.2,4.14.33,8.25,1.45,12.29-.96-.14-1.93-.28-2.9-.42-1.38-4.34-2.02-8.73-1.58-13.29.02-.16-.38-.2-.42-.04-.99,4.27-1.17,8.69-.29,12.99-.24-.04-.48-.07-.72-.11-5.08-7.57-9.16-15.47-11.46-23.65-.14-.51-1.25-.29-1.13.21,1.96,7.87,4.81,15.56,9.06,22.92-.93-.14-1.85-.27-2.78-.41-1.66-2.23-3.23-4.48-4.7-6.78-1.56-2.44-3.02-4.91-4.35-7.42-1.34-2.53-3.71-5.61-2.04-8.31.06-.1-.15-.2-.23-.09-1.46,1.89-1.05,3.77-.32,5.78,1,2.76,2.39,5.49,3.8,8.16,1.48,2.79,3.12,5.53,4.91,8.23-1.24-.18-2.49-.37-3.73-.55-3.11-7.05-6.72-13.99-10.83-20.79-.31-.52-1.56-.3-1.25.24,3.76,6.63,7.01,13.37,9.75,20.21-.6-.09-1.2-.18-1.8-.27-5.29-9.2-12.55-17.8-21.47-25.68-.6-.53-1.94.19-1.35.72,8.27,7.45,14.81,15.73,19.54,24.48-.88-.13-1.74-.26-2.62-.39-.91-.14-1.82-.27-2.73-.4-5.25-8.22-12.25-15.89-20.54-22.86-.53-.45-1.43.19-.92.63,7.73,6.66,13.89,14.02,18.62,21.82-1.22-.18-2.43-.36-3.65-.54-3.28-6.68-7.68-13.07-13.14-19.08-.5-.55-1.74-.05-1.26.5,4.99,5.77,8.98,11.87,11.96,18.22-1.52-.22-3.04-.44-4.56-.66-5.06-10.49-12.98-20.33-22.67-29.12-.54-.49-1.76-.01-1.21.49,9.33,8.6,16.09,18.13,20.83,28.2-1.05-.15-2.11-.3-3.16-.45-3.33-8.67-9.29-16.76-17.68-23.81-.6-.5-1.88.18-1.31.69,7.39,6.77,12.73,14.49,15.68,22.65-1.25-.18-2.49-.35-3.74-.52-2.31-6.02-5.99-11.85-10.37-17.16-.55-.67-1.99-.08-1.49.6,3.86,5.23,6.5,10.57,8.46,16.09-1.19-.17-2.38-.33-3.57-.5-1.83-5.84-5.36-11.49-9.87-16.51-.38-.42-1.31-.05-.96.39,4.07,5.05,6.56,10.25,8.01,15.74-.69-.1-1.38-.19-2.07-.28-7.56-13.42-20.09-25.05-36.44-34.42-.54-.31-1.33.22-.79.54,14.96,8.88,26.48,20.64,33.59,33.39-.12-.02-.24-.03-.36-.05-6.87-9.85-16.31-18.91-27.32-26.7-.86-.61-2.18.31-1.35.93,10.2,7.59,18.28,16.07,24.62,25.23-2.02-.27-4.04-.54-6.06-.81-5.14-7.27-11.98-14.07-19.55-20.02-.5-.39-1.3.18-.83.57,5.94,4.86,11.09,10.12,15.32,15.77.82,1.1,1.58,2.21,2.31,3.32-1.5-.2-3.01-.4-4.51-.6-5.75-6.13-12.68-11.73-20.33-16.8-.53-.35-1.32.2-.81.55,6.94,4.78,12.83,10.12,17.89,15.83-1.75-.23-3.5-.46-5.25-.68-3.16-4.31-6.74-8.47-10.78-12.46-.66-.66-2.22-.06-1.58.63,3.41,3.68,6.49,7.5,9.25,11.42-.57-.07-1.13-.15-1.69-.22-5.63-10.02-14.89-19.03-26.79-26.19-.62-.38-1.54.24-.92.63,11.1,6.92,19.4,15.62,24.58,25.16-.41-.05-.82-.1-1.22-.16-2.8-5.14-6.84-9.92-11.92-14.22-.64-.55-2.03.2-1.42.75,4.47,4.03,7.92,8.43,10.44,13.11-.98-.12-1.97-.25-2.95-.37-5.9-11.72-16.47-22.23-30.72-30.08-.9-.5-2.19.35-1.29.89,11.61,6.91,20.67,15.64,26.47,25.31-4.79-6.9-11.28-13.22-19.11-18.74-.56-.4-1.44.21-.88.6,8.59,6.17,15.14,13.41,19.6,21.28-.24-.03-.47-.06-.71-.09-4.68-5.69-10.8-10.73-18.07-14.94-4.73-4.93-10.26-9.52-16.5-13.66-.93-.62-2.34.35-1.43.98,4.25,2.91,8.13,6.06,11.62,9.38-2.78-1.32-5.69-2.52-8.72-3.61-.73-.26-1.37.49-.64.75,4.32,1.59,8.38,3.48,12.14,5.63,4.26,4.45,7.86,9.19,10.72,14.14-1.22-.15-2.44-.29-3.67-.44-2.57-4.51-5.84-8.83-9.53-12.93-.4-.45-1.43-.04-1.03.41,3.49,3.92,6.22,8.01,8.39,12.26-2.13-.25-4.25-.51-6.37-.76-3.71-5.41-8.62-10.35-14.6-14.82-.48-.36-1.22.17-.77.53,5.24,4.18,9.44,8.92,12.6,13.97-2.73-.32-5.46-.64-8.18-.95-3.76-3.8-7.09-7.78-9.93-11.95-.1-.15-.31-.16-.48-.1-2.96-5.22-5.25-10.63-6.84-16.16-.2-.7-1.69-.39-1.53.29,1.87,8.29,5.46,16.33,10.57,23.9-5.38-5.5-9.82-11.41-13.11-17.65-.31-.59-1.68-.34-1.38.26,3.62,7.29,8.5,14.16,14.71,20.5-1.29-.15-2.58-.29-3.86-.44-6.9-6.13-13.06-12.65-18.12-19.57-.41-.57-1.64-.07-1.24.5,4.67,6.55,9.99,12.81,16.1,18.72-1.03-.11-2.07-.23-3.1-.34-8.13-8.32-14.87-17.22-19.98-26.63-.29-.53-1.54-.3-1.25.24,4.8,9.12,10.94,17.86,18.39,26.08-1.3-.14-2.6-.28-3.9-.42-3.33-3.17-6.16-6.55-8.43-10.22-.33-.53-1.65-.14-1.36.39,1.84,3.31,4.12,6.5,6.82,9.51-.9-.1-1.8-.2-2.71-.29-8.37-9.78-14.37-20.62-16.98-31.8-.12-.53-1.3-.3-1.18.22,2.56,10.99,7.37,21.46,14.85,31.23-.11-.01-.22-.02-.34-.04-2.42-2.56-4.51-5.24-6.24-8.09-.15-.25-.77-.15-.61.12,1.59,2.71,3.45,5.33,5.59,7.84-.25-.03-.5-.05-.75-.08-6.29-7.94-11.86-16.14-16.51-24.6-.18-.33-.97-.2-.79.15,2.31,4.58,4.83,9.1,7.56,13.57-2.57-2.87-5.35-5.67-8.32-8.38-.7-.64-2.28-.02-1.58.63,6.11,5.65,11.21,11.76,15.32,18.18-.76-.08-1.51-.16-2.27-.24-.19-.18-.38-.37-.57-.55-3.79-5.27-8.13-10.34-12.97-15.23-.58-.59-1.98-.03-1.4.56,2.85,2.9,5.48,5.9,7.89,8.97-13.49-11.09-30.04-20.3-48.75-27.1-.74-.27-1.38.48-.66.77,20.31,8.09,37.94,19.09,51.72,32.09-.56-.06-1.11-.11-1.67-.17-9.75-8.46-21.35-15.77-34.51-21.91-.95-.45-1.82.6-.9,1.05,11.67,5.69,22.07,12.63,30.9,20.4-2.44-.25-4.89-.5-7.33-.74-7.5-7.42-17.15-13.81-28.11-18.84-.88-.4-1.65.55-.82.96,9.78,4.85,18.04,10.77,24.79,17.47-1.81-.18-3.62-.36-5.43-.54-3.99-3.48-8.39-6.73-13.19-9.72-.53-.33-1.3.19-.79.54,4.05,2.78,7.74,5.75,11.09,8.9-2.88-.28-5.76-.55-8.64-.83-3.58-2.65-6.9-5.47-9.87-8.47-.31-.32-1.07-.02-.76.3,2.63,2.76,5.42,5.42,8.42,7.96-2.95-.28-5.89-.55-8.83-.82-1.33-1.06-2.62-2.14-3.86-3.24-4.24-5.48-7.82-11.67-5.67-17.94.22-.64-1.16-.9-1.43-.27-1.7,3.85-1.24,7.75.3,11.51-3.42-3.76-6.38-7.7-8.8-11.79-.16-.28-.83-.16-.66.13,3.08,5.34,6.82,10.43,11.22,15.21.4.69.83,1.37,1.27,2.05.88,1.33,1.85,2.63,2.86,3.92-2.07-.19-4.14-.37-6.21-.56-.1-.09-.2-.17-.29-.26-4.11-9.72-10.31-18.99-17.88-27.7-.41-.47-1.48-.04-1.08.43,6.24,7.28,10.99,15.04,14.52,23.07-6.11-6.14-11.16-12.78-14.92-19.76-.53-.98-2.81-.56-2.3.43,4.29,8.36,10.16,16.21,17.47,23.38-1.64-.14-3.27-.28-4.91-.43-5.44-5.19-9.98-10.82-13.52-16.78-.28-.48-1.41-.29-1.15.22,2.96,5.75,6.89,11.21,11.67,16.3-1.55-.13-3.1-.27-4.64-.4-7.18-6.42-13.09-13.48-17.33-21.11-.11-.21-.6-.12-.49.09,3.92,7.37,9.11,14.4,15.58,20.83-2.15-.18-4.3-.36-6.45-.54-1.79-2.53-3.57-5.07-5.36-7.6-.38-.53-1.48-.07-1.15.46,1.49,2.33,2.99,4.65,4.48,6.98-1.63-.13-3.25-.26-4.88-.4-5.07-8.82-12.03-17.07-20.68-24.53-.68-.59-2.18.21-1.52.8,7.97,7.19,14.34,15.08,18.99,23.47-.81-.07-1.63-.13-2.44-.2-2.48-4.37-5.46-8.61-8.9-12.71-.49-.58-1.78-.06-1.31.52,3.12,3.86,5.74,7.88,7.9,12-1.71-.14-3.43-.27-5.14-.4-1.18-2.79-2.56-5.55-4.13-8.25-.4-.68-2.02-.4-1.64.31,1.37,2.56,2.53,5.15,3.52,7.77-1.26-.1-2.51-.19-3.77-.29-6.52-6.11-11.5-12.96-14.66-20.3-.2-.46-1.22-.27-1.05.2,2.67,7.1,7.03,13.81,12.83,19.89-.28-.02-.56-.04-.83-.06-6.82-6.31-12.45-13.21-16.74-20.53-.53-.9-2.68-.53-2.17.41,3.76,7.02,8.74,13.66,14.79,19.81-1.35-.1-2.71-.2-4.06-.3-7.11-8.8-12.85-18.12-16.94-27.8-.2-.47-1.26-.27-1.07.2,3.72,9.48,8.76,18.65,15.14,27.39-.66-.05-1.33-.1-1.99-.14-7.27-10.67-16.76-20.72-27.39-29.82-.88-.75-2.78.27-1.94,1.02,10,8.93,18.11,18.45,24.97,28.48-1.14-.08-2.28-.16-3.42-.24-5.32-7.41-11.58-14.5-18.74-21.18-.92-.85-3.02-.04-2.11.84,6.56,6.37,12.32,13.08,17.23,20.08-2.7-.19-5.41-.38-8.11-.56-1.49-2.33-2.98-4.66-4.48-6.99-.15-.24-.75-.06-.61.18,1.37,2.25,2.75,4.5,4.12,6.75-.67-.05-1.34-.09-2-.13-6.04-8.17-13.91-15.63-23.37-22.13-.79-.54-1.98.28-1.22.84,8.62,6.27,15.81,13.36,21.31,21.08-1.67-.11-3.34-.22-5.01-.33-8.74-7.74-15.88-16.25-21.37-25.32-.38-.62-1.86-.37-1.51.29,4.76,8.84,11.26,17.15,19.21,24.8-1.26-.08-2.52-.16-3.78-.24-1.78-1.66-3.51-3.34-5.16-5.06-5.38-5.62-10.24-11.45-14.44-17.52-.43-.62-1.73-.08-1.33.53,4.93,7.41,10.6,14.89,17.33,21.82-1.32-.08-2.63-.16-3.94-.24-3.55-4.97-7.14-9.93-10.74-14.89-.64-.88-2.54-.11-1.92.77,3.25,4.65,6.5,9.3,9.79,13.94-1.08-.07-2.17-.14-3.26-.2-5.33-6.37-11.33-12.45-17.9-18.26-.58-.51-1.88.18-1.31.69,6.09,5.51,11.5,11.33,16.3,17.4-1.03-.06-2.06-.12-3.09-.18-8.02-8.04-18.07-14.99-29.74-20.75-.4-.2-.78.08-.74.35-.62.07-1.18.53-.79,1.03,2.32,2.99,4.73,5.94,7.21,8.86-8.32-5.57-15.62-11.76-20.73-19.01-.52-.74-2.11-.09-1.6.64,6.51,9.51,16.34,17.25,27.42,24.19,1.15,1.27,2.31,2.54,3.49,3.8-.79-.04-1.59-.09-2.38-.13-9.41-5.7-18.06-11.98-25.58-18.9-.48-.44-1.58-.02-1.1.44,6.93,6.57,14.63,12.71,23.17,18.27-3.05-.16-6.1-.33-9.14-.48-9.75-6.68-18.11-14.22-25.08-22.47-.39-.46-1.38-.05-1.03.41,5.88,7.94,13.43,15.3,22.23,21.86-2.26-.11-4.51-.23-6.76-.34-6.36-5.77-12.02-11.88-16.89-18.31-.46-.61-1.75-.07-1.33.53,4.31,6.16,9.33,12.05,15.02,17.63-1.12-.05-2.25-.11-3.37-.16-3.83-3.82-7.3-7.8-10.34-11.94-.47-.64-1.77-.08-1.37.55,2.44,3.88,5.25,7.62,8.41,11.24-2.22-.1-4.44-.2-6.66-.3-4.22-6.77-9.31-13.25-15.26-19.42-.49-.5-1.66-.04-1.19.48,5.39,5.99,9.97,12.29,13.75,18.82-.88-.04-1.76-.08-2.63-.12-4.68-8.03-10.91-15.58-18.58-22.49-.83-.75-2.71-.03-1.88.75,7.11,6.68,12.88,13.92,17.21,21.59-.95-.04-1.89-.08-2.83-.12-8.1-11.21-18.55-21.52-30.85-30.85-.44-.33-1.14.16-.71.49,11.73,9.03,21.33,19.29,28.76,30.24-1.5-.06-2.99-.12-4.48-.19-4.83-7-10.79-13.64-17.69-19.79-1.03-.92-3.34-.03-2.31.93,6.33,5.88,11.69,12.14,16.13,18.71-1.54-.06-3.08-.13-4.61-.19-3.16-3.55-6.78-6.91-10.82-10.03-1.88-3.38-3.37-6.86-4.43-10.41-.23-.76-1.89-.43-1.69.32.69,2.55,1.57,5.06,2.62,7.52-2.11-1.48-4.32-2.9-6.63-4.26-.73-.43-1.8.28-1.07.73,3.22,2,6.23,4.14,9.02,6.39,1.37,2.77,2.95,5.49,4.79,8.12-4.71-4.23-10.22-8.05-16.2-11.37-2.57-3.92-4.76-7.96-6.51-12.08-.22-.52-1.39-.3-1.18.22,1.45,3.55,3.13,7.03,5.05,10.45-.38-.2-.76-.4-1.14-.6-1.02-.51-2.33.66-1.35,1.2,1.49.81,2.93,1.66,4.32,2.52,2.24,3.64,4.77,7.19,7.6,10.63-1.61-.06-3.22-.11-4.82-.17-3.89-4.41-7.46-8.96-10.6-13.66-.35-.52-1.45-.07-1.12.45,1.97,3.11,4.08,6.18,6.32,9.19-6.17-5.89-11.51-12.19-15.69-18.86-.28-.44-1.41-.11-1.14.33,4.88,7.92,10.76,15.44,17.91,22.4-1.74-.06-3.47-.12-5.2-.17-4.42-5.14-7.88-10.66-10.34-16.41-.2-.47-1.23-.28-1.07.2,1.16,3.63,2.76,7.14,4.77,10.53-3.91-3.83-7.32-7.92-10.17-12.35-.52-.81-2.54-.22-2.08.6,3.38,6.06,8.03,11.96,13.8,17.26-1.22-.04-2.44-.08-3.66-.11-5-6.4-11.13-12.36-18.19-17.84-.65-.5-1.71.23-1.07.73,5.39,4.21,10.11,8.78,14.17,13.6-11.88-9.64-25.57-18.2-40.8-25.38-.87-.41-1.64.54-.82.96,15.76,7.96,29.92,17.31,42.04,27.8-1.02-.03-2.04-.06-3.05-.09-9.15-7.92-20.33-14.66-33.04-19.99-.82-.34-1.54.52-.75.88,11.41,5.17,21.46,11.63,29.85,19-2.87-.08-5.74-.15-8.6-.23-4.38-4.34-9.54-8.31-15.44-11.8-.72-.42-1.75.26-1.05.72,5.11,3.33,9.64,7.02,13.52,11.01-3.19-.08-6.36-.15-9.53-.22-3.22-2.86-6.7-5.6-10.43-8.22-.74-.52-1.89.27-1.16.8,3.17,2.31,6.1,4.78,8.82,7.36-1.09-.02-2.17-.04-3.25-.07-6.27-6.53-11.9-13.34-16.75-20.43-.3-.44-1.22-.06-.94.38,4.46,6.88,9.5,13.55,15.12,20-1.01-.02-2.02-.04-3.02-.06-3.92-3.07-7.49-6.34-10.69-9.8-.78-.85-2.72-.08-1.97.79,2.68,3.12,5.65,6.1,8.88,8.94-1.32-.03-2.63-.05-3.95-.07-3.65-3.01-6.92-6.18-10.22-9.47-.34-.34-1.31-.13-1.04.3,1.97,3.21,4.71,6.26,7.83,9.1-1.2-.02-2.39-.04-3.58-.06-3.92-3.12-6.95-6.64-9.28-10.63-.56-.97-2.71-.62-2.33.44,1.32,3.62,3.82,7.07,7.11,10.11-.69-.01-1.38-.02-2.06-.03-4.97-4.77-8.83-10.06-11.34-15.69-.34-.77-2.09-.45-1.76.33,1.69,4.06,3.96,7.93,6.81,11.59-7-7.4-12.9-15.3-17.39-23.54-.29-.53-1.54-.31-1.25.24,2.74,5.24,5.92,10.33,9.53,15.25-2.7-2.75-5.39-5.5-8.05-8.27-.64-.67-2.2-.06-1.58.63,5.87,6.5,11.86,12.95,17.98,19.35-1.7-.02-3.4-.05-5.09-.07-5.49-5.03-11.37-9.85-17.53-14.49-.9-.68-2.32.32-1.46,1,5.43,4.33,10.53,8.83,15.38,13.45-1.35-.02-2.69-.03-4.03-.05-6.82-6.24-15.08-11.68-24.56-16.14-.74-.35-1.39.46-.7.82,8.5,4.32,15.99,9.48,22.23,15.29-2.83-.03-5.65-.05-8.47-.08-5.31-4.88-11.19-9.45-17.51-13.76-.8-.55-2.03.3-1.24.85,5.74,4,10.92,8.33,15.65,12.89-.84,0-1.68-.01-2.51-.02-4.6-4.47-10.16-8.5-16.67-11.6-.69-.33-1.47.4-.88.78,5.18,3.39,9.91,6.91,14.02,10.79-2.26-.01-4.51-.03-6.75-.04-1.77-1.38-3.57-2.73-5.45-4.05-.23-.16-.58.08-.36.24,1.75,1.24,3.44,2.51,5.1,3.8-3.16-.01-6.32-.02-9.47-.03-4.21-2.96-8.64-5.76-13.31-8.4-.62-.35-1.52.23-.9.62,3.97,2.47,7.76,5.07,11.37,7.78-4.37,0-8.73-.01-13.07,0-3.14-2.51-6.15-5.1-9-7.77-.35-.32-1.14-.03-.8.32,2.45,2.55,5.05,5.04,7.76,7.45-1.82,0-3.64,0-5.46.01-2.74-3.33-4.98-6.85-6.68-10.54-.25-.54-1.47-.32-1.25.24,1.41,3.58,3.32,7.02,5.68,10.3-1.28,0-2.56.01-3.84.02-2.52-3.34-4.62-6.82-6.19-10.53-.2-.46-1.2-.27-1.05.2,1.17,3.53,2.82,7.01,4.95,10.34-.36,0-.72,0-1.08,0-4.14-4.73-7.83-9.64-10.95-14.73-.25-.41-1.25-.23-1,.19,2.99,4.98,6.31,9.83,10.02,14.56-2,.01-3.98.02-5.97.04-3.89-5.56-8.55-10.83-13.89-15.83-.46-.43-1.51-.02-1.05.42,5.06,4.82,9.28,10,12.74,15.42-2.62.02-5.23.04-7.83.06-3.37-3.68-7.11-7.21-11.18-10.58-.81-.67-2.17.29-1.39.95,3.59,3.07,6.85,6.29,9.8,9.65-2.82.03-5.63.06-8.44.09-3.31-2.83-6.74-5.58-10.32-8.25-.65-.49-1.68.23-1.05.72,3.16,2.44,6.18,4.97,9.07,7.56-1.6.02-3.18.04-4.77.06-2.29-3.63-4.9-7.16-7.8-10.59-.48-.57-1.73-.06-1.28.51,2.55,3.29,4.8,6.67,6.8,10.11-1.2.02-2.4.03-3.6.05-2.76-2.33-5.52-4.66-8.27-6.99-.49-.42-1.55.15-1.08.57,2.38,2.15,4.75,4.3,7.12,6.46-.59,0-1.18.02-1.77.03-3.66-4.42-7.88-8.61-12.6-12.52-.62-1.19-1.21-2.4-1.74-3.61-.21-.48-1.3-.28-1.1.21.23.56.46,1.12.71,1.68-3.58-2.81-7.42-5.48-11.53-7.98-1.08-.66-2.67.41-1.59,1.09,5.72,3.62,10.91,7.59,15.53,11.83,1.72,3.21,3.73,6.36,6.03,9.4-1.55.03-3.09.05-4.64.08-3.67-3.65-7.08-7.42-10.2-11.32-.41-.51-1.55-.06-1.14.46,2.89,3.72,6,7.36,9.32,10.9-1.52.03-3.04.06-4.55.08-4.42-4.66-7.99-9.69-10.6-15-.25-.51-1.4-.3-1.18.22,2.27,5.23,5.46,10.19,9.5,14.82-.25,0-.49,0-.74.01-8.8-8.3-15.2-17.65-18.72-27.7-.28-.79-2.01-.45-1.76.33,3.11,9.82,8.91,19.16,17.12,27.44-.45,0-.91.02-1.36.03-8.11-7.03-14.32-14.98-18.33-23.56-.26-.57-1.54-.33-1.3.25,3.5,8.42,9.08,16.32,16.51,23.38-.35,0-.69.02-1.04.02-7.31-5.53-13.71-11.61-18.92-18.19-.47-.59-1.75-.07-1.31.52,4.83,6.33,10.55,12.27,17.16,17.73-.7.02-1.4.03-2.09.05-1.55-1.14-3.06-2.3-4.52-3.51-5.43-4.51-10.31-9.29-14.59-14.35-.46-.54-1.64-.06-1.21.49,4.67,5.97,10.2,12.01,16.64,17.46-.69.02-1.38.03-2.07.05-8.31-5.28-16.14-10.9-23.48-16.82-.8-.64-2.06.27-1.33.91,6.41,5.65,13.35,10.98,20.73,16.01-1.55.04-3.09.08-4.64.12-5.4-5.67-11.81-10.86-19.15-15.44-.14-.09-.3-.15-.45-.19-.33-1.23-.61-2.48-.84-3.73-.07-.4-.99-.41-.93,0,.17,1.26.41,2.52.68,3.77-.77.26-1.22.97-.41,1.49.31.2.6.41.91.61,1.25,4.76,3.21,9.42,5.86,13.89-1.6.05-3.19.1-4.78.14-4.65-6.63-8.69-13.45-11.99-20.49-.27-.58-1.58-.33-1.33.25,1.74,4.01,3.68,7.99,5.85,11.91-4.5-6.19-9.88-12.07-16.11-17.56-.59-.52-1.9.18-1.33.7,8.44,7.78,15.21,16.3,20.16,25.34-.53.02-1.06.03-1.6.05-5.53-8.63-12.86-16.66-21.84-23.86-.85-.68-2.24.3-1.43.98,8.34,6.98,15.13,14.72,20.22,22.99-1.71.06-3.42.11-5.12.17-5.3-6.77-11.66-13.19-18.38-19.3-.6-.54-1.95-.02-1.35.54,6.39,6,11.77,12.33,16.74,18.86-2.3.08-4.59.16-6.88.24-5.5-5.77-10.01-11.96-13.32-18.52-.3-.6-1.68-.36-1.41.27,2.82,6.45,6.74,12.62,11.76,18.36-1.27.05-2.55.09-3.82.14-5.47-5.63-9.84-11.68-12.78-18.27-.23-.51-1.37-.3-1.18.22,2.35,6.35,5.99,12.54,10.97,18.17-1.36.05-2.73.1-4.09.16-4.37-4.17-8.29-8.54-11.79-13.1-.52-.68-1.9-.08-1.47.59,2.86,4.4,6.25,8.62,10.09,12.64-.67.03-1.33.05-2,.08-4.39-4.17-9.44-7.95-15.11-11.36-1.13-1.31-2.25-2.63-3.33-3.97-.74-.91-2.75-.1-2.04.82.07.08.14.17.2.25-.56-.29-1.12-.59-1.69-.88-.21-.1-.47.13-.27.24.94.53,1.85,1.08,2.76,1.64,3.69,4.67,7.72,9.19,12.1,13.55-.79.03-1.57.07-2.36.1-8.71-8.35-18.52-16.16-29.14-23.41-1.14-.78-2.87.41-1.76,1.21,9.77,7,18.65,14.49,26.78,22.38-1.68.07-3.36.15-5.04.22-6.62-6.18-13.91-12-21.76-17.47-.66-.46-1.69.25-1.03.71,7.43,5.25,14.18,10.9,20.31,16.88-2.63.12-5.24.24-7.85.36-2.22-2.83-4.42-5.67-6.58-8.52-.38-.51-1.5-.06-1.12.45,2.01,2.71,3.97,5.43,5.92,8.16-1.38.06-2.74.13-4.11.2-5.04-5.13-10.94-9.82-17.57-14.07-.03-.06-.07-.12-.1-.18-.38-.72-2.06-.41-1.69.32,2.57,5.07,5.97,9.89,10.17,14.38-.31.02-.63.03-.94.05-3.2-1.93-6.23-3.99-9.07-6.17-2.5-4.08-4.32-8.34-5.33-12.76-.12-.54-1.32-.31-1.2.23.72,3.39,1.84,6.71,3.32,9.95-1.76-1.49-3.43-3.03-5.02-4.62-.45-.45-1.52-.03-1.08.43,2.3,2.39,4.79,4.68,7.43,6.89,1.17,2.19,2.51,4.33,4.05,6.42-.6.03-1.21.06-1.8.09-6.69-5.88-12.26-12.35-16.27-19.28-.19-.32-.96-.18-.77.14,3.23,5.58,7.12,10.9,11.73,15.91-5-3.71-9.51-7.72-13.51-11.98-.31-.33-1.06-.04-.78.31,4.4,5.5,9.8,10.54,16.01,15.09-1.5.08-3.01.16-4.5.24-7.31-8.4-14.69-16.85-16.47-26.68-.06-.3-.74-.32-.72,0,.72,8.94,6.33,16.83,12.51,24.55-1.79-1.13-3.56-2.28-5.29-3.45-4.73-5.58-9.77-11.03-15.14-16.34-.74-.73-2.49-.06-1.76.71,3.02,3.2,5.94,6.44,8.76,9.72-2.05-1.59-4.05-3.2-5.97-4.87-.58-.5-1.83.17-1.29.68,3.89,3.68,8.08,7.21,12.57,10.55,1.46,1.81,2.88,3.63,4.28,5.46-6.31-6.36-13.63-12.21-21.81-17.53-.38-.25-.96.14-.58.4,7.66,5.26,14.35,11.12,20.07,17.41-1.43.08-2.86.16-4.29.25-10.88-6.57-19.96-14.47-26.88-23.24-.34-.43-1.24-.05-.94.38,6.02,8.69,14.27,16.44,24.26,23.07-1.76.1-3.52.21-5.26.31-4.19-2.56-8.21-5.24-12.01-8.07-4.69-6.6-10.58-12.8-17.31-18.48-.42-.36-1.14.15-.73.5,5.04,4.39,9.32,9.08,12.93,13.99-3.29-2.69-6.41-5.47-9.3-8.37-.6-.6-2.04-.04-1.44.58,4.36,4.56,9.11,8.91,14.27,13.01,1.51,2.43,2.88,4.91,4.09,7.43-.08,0-.15,0-.23.01-4.57-2.39-8.87-4.92-12.85-7.71-.92-1.39-1.88-2.77-2.91-4.12-.56-.74-1.94-.37-2.14.28-2.02-1.65-3.97-3.37-5.8-5.21-.34-.35-1.16-.03-.82.33,2.56,2.74,5.41,5.46,8.53,8.05,1.94,2.96,3.63,5.99,5.03,9.08-1.17.08-2.34.15-3.5.23-4.22-2.98-8.06-6.22-11.42-9.71-.32-.33-1.08-.03-.78.31,3.04,3.39,6.47,6.57,10.26,9.53-1.31.09-2.62.17-3.92.26-6.13-4.31-11.3-9.27-15.32-14.69-.45-.6-1.7-.07-1.31.52,3.46,5.28,8.06,10.1,13.59,14.37-1.26.09-2.52.17-3.78.26-1.2-.93-2.37-1.87-3.52-2.82-6.16-7.18-11.28-14.73-12.94-23.07-.12-.62-1.7-.47-1.59.15.98,5.53,3.35,10.73,6.52,15.72-1.07-1.05-2.13-2.11-3.15-3.19-.18-.19-.61-.01-.44.17,1.62,1.77,3.31,3.52,5.05,5.24,1.37,2,2.86,3.96,4.42,5.9-6.99-6.01-13.05-12.52-18.06-19.42-.36-.5-1.4-.06-1.08.43,5.03,7.6,11.31,14.74,18.7,21.32-.97.07-1.95.14-2.92.2-9.22-7.19-17.32-14.98-24.12-23.38-.49-.61-1.82-.07-1.35.54,6.18,8.04,13.51,15.64,21.92,22.65-9.14-5.3-17.75-11-24.33-17.94-.39-.41-1.34-.04-.96.39,6.24,6.94,14.48,12.74,23.28,18.14-.61.04-1.23.09-1.85.13-8.94-5.21-17.12-10.95-24.25-17.53-.35-.32-1.14-.03-.8.32,6.07,6.31,13.27,12.29,21.47,17.47-.83.06-1.66.12-2.48.18-11.69-7.28-22.92-15.28-28.05-25.69-.27-.55-1.53-.32-1.28.24,4.54,10.25,14.58,18.34,25.49,25.74-.59.04-1.18.09-1.77.13-8.71-6.51-16.62-13.5-23.63-20.95-.43-.46-1.49-.04-1.08.43,6.47,7.3,13.77,14.24,21.83,20.74-1.22.09-2.42.19-3.62.28-4.97-3.96-9.75-8.03-14.29-12.23-3.26-5.19-5.84-10.59-7.7-16.22-.23-.71-1.71-.39-1.56.29.77,3.45,1.88,6.87,3.32,10.23-1.77-1.76-3.5-3.54-5.18-5.34-.38-.41-1.33-.04-.96.39,2.52,2.92,5.14,5.8,7.87,8.62,1.72,3.41,3.78,6.75,6.15,9.98-3.07-3.04-5.95-6.16-8.6-9.37-.46-.56-1.7-.06-1.26.5,3.78,4.81,7.93,9.45,12.43,13.9-1.38.11-2.74.22-4.11.33-6.41-5.85-12.17-12.03-17.14-18.5-.5-.66-1.92-.08-1.44.58,4.63,6.31,9.84,12.38,15.64,18.16-1.88.15-3.74.31-5.6.46-5.57-5.95-11.33-11.81-17.16-17.63-.31-.31-1.04-.02-.73.29,5.51,5.74,10.75,11.59,15.81,17.51-.78.06-1.55.13-2.32.19-4.87-5.2-10.03-10.28-15.36-15.26-.39-.36-1.28-.02-.89.36,4.98,4.91,9.63,9.95,14.09,15.08-2.17.18-4.32.37-6.45.55-5.6-7.23-12.64-13.89-20.95-19.87-.52-.37-1.33.19-.83.57,7.81,5.85,14.3,12.43,19.37,19.52-.68.06-1.35.12-2.03.18-2.78-3.77-6.29-7.28-10.42-10.48-.61-.48-1.61.22-1.01.69,3.82,3.05,6.94,6.4,9.38,9.97-1.88.17-3.75.33-5.61.5-1.94-3.09-4.38-6.03-7.27-8.8-.55-.53-1.83-.03-1.28.51,2.65,2.67,4.8,5.51,6.47,8.47-1.36.12-2.71.24-4.05.37-1.5-1.58-3.15-3.07-4.97-4.49-1.53-3.46-2.46-6.97-2.82-10.61-.02-.2-.46-.2-.45,0,.2,3.26.87,6.46,1.97,9.62-1.22-.89-2.51-1.75-3.86-2.57-.2-.12-.43-.16-.64-.15-2.13-4.24-3.69-8.61-4.59-13.09-.11-.55-1.51-.41-1.41.13,1.48,7.58,4.41,14.95,8.97,21.86-.02,0-.03,0-.05,0-5.22-5.61-9.61-11.58-13.06-17.8-.56-2.15-1.06-4.3-1.53-6.46-.03-.12-.34-.09-.31.03.29,1.55.59,3.11.9,4.67-.66-1.26-1.29-2.53-1.87-3.81-.21-.46-1.25-.26-1.05.2,1.12,2.62,2.38,5.19,3.78,7.73.81,3.6,1.81,7.18,3.2,10.68-4.37-4.96-7.79-10.3-10.15-15.92-.39-.92-2.47-.53-2.1.4,2.99,7.53,7.76,14.62,14.11,21.04-1.47.14-2.94.28-4.39.42-3.84-7.92-9.47-15.43-16.44-22.28-.36-.35-1.2-.02-.85.34,6.76,6.87,11.81,14.3,15.35,22.13-1.48.14-2.96.29-4.42.43-4.5-8.52-11.04-16.45-19.29-23.66-.6-.52-1.66.21-1.07.73,7.93,6.93,13.95,14.82,18,23.16-1.6.16-3.18.31-4.75.47-6.81-10.95-16.21-21.15-27.3-30.32-.65-.53-1.73.23-1.11.76,10.74,9.06,19.18,19.14,25.69,29.83-.93.09-1.83.19-2.75.28-2.53-5.65-6.42-10.97-11.54-15.87-.54-.52-1.8-.02-1.26.5,4.86,4.74,8.38,10.03,10.55,15.59-.53.05-1.06.11-1.59.16-2.48-4.8-6.29-9.22-11.03-13.21-.68-.57-1.85.24-1.18.81,4.47,3.8,7.69,8.08,9.9,12.64-1.08.11-2.16.22-3.23.34-3.11-3.87-6.91-7.44-11.35-10.72-.36-.27-.94.13-.58.4,4.2,3.16,7.66,6.69,10.39,10.48-1.43.15-2.85.3-4.26.45-1.05-.88-2.13-1.74-3.26-2.57-4.36-7.04-10.93-13.44-18.98-18.72-.51-.33-1.26.19-.77.53,6.58,4.51,11.72,9.69,15.51,15.33-3.82-2.37-8-4.48-12.47-6.31-1.87-1.08-3.82-2.1-5.87-3.05-.66-.3-1.25.42-.62.72.86.41,1.69.84,2.51,1.29-.14.18-.12.42.22.55.79.3,1.56.61,2.32.93,5.55,3.42,9.98,7.59,13.23,12.18-3.09.34-6.11.67-9.07,1-2.66-3.2-5.99-6.09-9.9-8.63-.51-.33-1.27.19-.77.53,3.69,2.44,6.71,5.2,9.11,8.28-.2.02-.41.05-.61.07-5.17-3.86-9.82-8.01-13.86-12.48-.35-.39-1.23-.04-.89.36,3.77,4.35,8.01,8.48,12.73,12.35-2.05.23-4.06.46-6.04.69-1.86-1.96-3.87-3.85-6.01-5.66-3.44-4.49-6.17-9.24-8.07-14.15-.11-.27-.71-.16-.61.12,1.38,3.93,3.18,7.75,5.42,11.42-.55-.42-1.08-.84-1.65-1.24-.63-.45-1.59.22-.99.68,1.86,1.45,3.59,2.95,5.24,4.5,1.13,1.59,2.34,3.15,3.64,4.68-1.39.16-2.75.32-4.11.48-2.73-3.5-5.47-6.99-8.13-10.51-.3-.4-1.15-.05-.87.35,2.43,3.45,4.79,6.92,7.16,10.38-1.05.12-2.09.25-3.12.37-5.71-6.68-10.18-13.73-12.83-21.35-.27-.78-1.96-.44-1.74.33,1.94,6.85,5.31,13.57,10.28,19.69-7.92-8.53-13.68-17.91-16.87-27.79-.16-.51-1.25-.29-1.13.21,2.61,10.37,8.06,20.21,16.29,29.1.27.29.66.4,1.04.41-1.45.17-2.87.35-4.27.52-7.1-8.34-13.29-17.07-18.1-26.13-.37-.69-1.98-.39-1.61.3,4.73,9.03,10.27,17.79,16.93,26.17-.62.08-1.23.15-1.84.23-3.82-7.65-9.29-14.82-15.78-21.63-.36-.38-1.25-.03-.89.36,6.23,6.7,10.84,14,14.32,21.56-1.71.21-3.38.42-5.02.63-3-5.45-7.02-10.63-11.88-15.41h0v7.99c.97,2.87,2.14,5.7,3.51,8.49-.47.06-.94.12-1.4.18-.64-1.32-1.34-2.62-2.11-3.9v1.37c.46.87.88,1.75,1.28,2.64-.42.06-.86.11-1.28.17l-.27,182.73h1842.93v-99.47c-.35-2.44-.98-4.86-1.86-7.26ZM1743.8,773.5c3.04,2.42,5.78,4.98,8.23,7.67-2.86-2.5-5.6-5.05-8.23-7.67ZM1718.98,773.12c4.2,3.69,8.53,7.32,12.97,10.88-.24-.01-.49-.03-.73-.04-3.08-2.41-6.03-4.91-8.82-7.52-1.17-1.09-2.31-2.2-3.42-3.32ZM1714.82,777.71c2.64,1.96,5.36,3.87,8.13,5.75-.89-.06-1.79-.11-2.68-.17-1.87-1.83-3.69-3.69-5.45-5.58ZM1032.85,694.7c4.19,3.11,7.84,6.57,10.85,10.28-1.31-.16-2.63-.33-3.94-.49-1.97-3.37-4.28-6.64-6.91-9.79ZM1011.38,701.14c-.19-.02-.38-.04-.57-.06-1.75-2.15-3.37-4.34-4.87-6.57,1.69,2.26,3.5,4.47,5.44,6.63ZM765.22,675.16c-4.08-4.35-8-8.78-11.75-13.27,10.25,5.35,19.04,11.96,26.1,19.34-1.33-.08-2.66-.16-3.99-.23-3.51-1.89-6.99-3.82-10.35-5.84ZM694.68,677.14c-.34-.01-.68-.03-1.02-.04-1.38-1.65-2.66-3.34-3.84-5.07,1.73,1.65,3.35,3.36,4.86,5.11ZM676.11,668.35c3.83,2.64,7.27,5.47,10.39,8.48-1.16-.04-2.31-.08-3.47-.12-2.49-2.71-4.81-5.5-6.92-8.35ZM446.79,669.16c1.65,1.72,3.21,3.47,4.68,5.26-.21,0-.42,0-.63,0-1.44-1.72-2.8-3.48-4.05-5.27ZM387.26,662.93c5.59,3.83,10.56,8.03,14.85,12.55-2.87.08-5.72.16-8.56.24-2.69-4.11-4.8-8.38-6.28-12.78ZM330.52,668.67c3.75,2.77,7.17,5.74,10.23,8.88-.5.02-1,.04-1.49.06-3.07-2.91-5.98-5.89-8.74-8.94ZM291.24,665.94c5.64,4.03,10.6,8.44,14.89,13.16-1.53.07-3.05.15-4.57.23-4.22-4.16-7.68-8.63-10.32-13.39ZM291.28,676.66c1.36,1.02,2.77,2.01,4.21,2.97-.61.03-1.21.06-1.82.09-.84-1.01-1.63-2.03-2.39-3.06ZM276.06,680.47c.09.06.19.11.28.17-.05,0-.09,0-.14,0-.05-.06-.09-.12-.14-.18ZM248.59,678.54c1.6,1.17,3.24,2.31,4.92,3.43-.97.06-1.94.12-2.9.18-.64-1.21-1.3-2.42-2.02-3.61ZM236.91,678c2.23,1.6,4.56,3.13,6.99,4.57-1.48.09-2.96.19-4.43.28-.78-1.63-1.64-3.25-2.57-4.85ZM182.96,686.85c-.55.04-1.08.09-1.63.13-1.79-1.95-3.47-3.94-5.04-5.96,2.16,1.98,4.39,3.92,6.67,5.83ZM122.6,684.99c1.67,1.15,3.19,2.36,4.6,3.64,0,.01.01.03.02.04.05.1.14.17.25.2.86.8,1.67,1.61,2.43,2.46-1.03.09-2.06.19-3.08.28-1.55-2.17-2.96-4.37-4.21-6.63ZM122.16,692.05c-.86.08-1.72.16-2.58.24-.67-.62-1.33-1.26-1.97-1.89-2.04-3.67-3.56-7.46-4.79-11.32,2.67,4.47,5.78,8.81,9.34,12.97ZM64.17,688.95c2.96,1.67,5.71,3.5,8.24,5.47.46.82.88,1.65,1.29,2.49-.45.05-.89.1-1.33.14-2.23-2.93-4.99-5.64-8.2-8.11ZM34.67,700.49c.22.26.45.52.68.78-.49.06-.99.12-1.48.18.54-.16.94-.53.8-.95ZM6.84,693.67c2.67,3.29,4.94,6.73,6.83,10.29-.8.1-1.6.2-2.37.31-1.71-3.49-3.21-7.02-4.45-10.6Z"/></svg>