<?xml version="1.0" encoding="UTF-8"?><svg id="cave_grass" xmlns="http://www.w3.org/2000/svg" viewBox="0 0 2018.06 894"><defs><style>.cls-1{fill:#e5d721;stroke-width:0px;}</style></defs><path class="cls-1" d="M1224.19,636.38c-317.05-27.26-1036.94,23.24-1036.94,23.24,0,0-94.42,6.12-187.55-.66v181.04h1771.96v-189.11c-99.79,2.83-315.95,5.4-547.47-14.5Z"/><path class="cls-1" d="M531.96,627.32c-5.56,3.72-10.91,7.31-14.87,11.43-3.83,3.99-6.51,8.15-8.24,12.41-.59,1.46,4.45,2.09,5.09.62,1.79-4.16,4.26-8.25,7.32-12.26,3.11-4.08,6.49-8.3,11.26-12.06.2-.16-.33-.29-.55-.14Z"/><path class="cls-1" d="M534.61,617c-10.26,5.68-19.55,11.53-27.26,17.97-2.92,2.44-5.63,4.92-8.13,7.45,3.41-5.75,7.87-11.39,13.39-16.78.25-.24-.54-.46-.83-.21-9.63,8.25-16.67,16.85-20.84,25.93.63-7.22,3.61-14.36,9.03-21.2.37-.47-1.25-.64-1.65-.2-7.33,7.9-11.26,16.31-11.39,24.84,0,.5.81.78,1.7.82.41.87,3.77,1.12,4.44.05,8.67-13.68,22.67-27.09,41.87-38.55.14-.09-.19-.2-.34-.11Z"/><path class="cls-1" d="M517.01,632c-6.41,5.74-11.82,11.66-16.05,17.77-.61.88,2.56,1.26,3.12.38,3.85-6.07,8.53-12.04,14.2-17.83.37-.37-.85-.71-1.27-.33Z"/><path class="cls-1" d="M541.53,629.4c-11.47,4.65-20.68,10.22-26.82,16.54-1.07,1.1,2.43,1.76,3.45.64,5.64-6.19,13.97-11.88,24.66-16.61.83-.37-.43-.92-1.29-.57Z"/><path class="cls-1" d="M486.99,630.89c-4.85,6.02-8.27,12.12-9.9,18.47-.21.8,2.76.82,2.89,0,1-6.21,3.53-12.44,7.88-18.36.18-.25-.68-.35-.88-.11Z"/><path class="cls-1" d="M477.46,634.77c-6.3,4.82-10.66,9.81-12.61,15.32-.34.97,2.79,1.17,3.02.18,1.24-5.29,4.58-10.63,10.19-15.35.21-.17-.38-.33-.6-.15Z"/><path class="cls-1" d="M550.5,626.55c-5.39,3.1-10.08,6.37-13.53,9.98-3.36,3.52-6.41,7.48-6.81,11.32-.13,1.26,4.61,1.59,5.1.3,1.42-3.73,2.36-7.34,5.16-10.94,2.82-3.62,6.64-7.13,11.63-10.27.67-.42-.87-.79-1.55-.4Z"/><path class="cls-1" d="M553.64,635.34c-3.52,1.73-6.61,3.58-9.26,5.55,1.41-2.42,3.21-4.79,5.43-7.06.35-.36-.83-.68-1.23-.32-4.61,4.29-8.25,8.65-10.51,13.28-.07.08-.14.16-.2.24-.1.13-.12.25-.09.35-.04.08-.08.15-.11.23-.52,1.17,3.33,1.42,3.68.22.07-.24.16-.48.24-.72,3.04-4.02,7.75-7.71,13.98-10.94,1.13-.58-.75-1.43-1.93-.85Z"/><path class="cls-1" d="M465.32,636.33c-.07-.19-.81-.15-.76.05,1.46,5.92.53,11.84-2.63,17.63-.46.83,2.54,1.18,2.89.35,2.56-5.97,2.69-12.03.5-18.03Z"/><path class="cls-1" d="M439.38,623.55c-.28-.21-.99-.02-.74.19,11.35,9.82,10.3,21.28,9.51,31.97-.07.99,3.43.99,3.51,0,.81-10.96.85-22.45-12.27-32.16Z"/><path class="cls-1" d="M442.22,638.79c-.07-.3-1.15-.31-1.1,0,.98,6.04-.62,12.06-3.85,17.93-.47.85,2.54,1.21,2.97.36,3.01-6.03,3.36-12.17,1.98-18.29Z"/><path class="cls-1" d="M457.95,633.64c-.07-.17-.69-.13-.68.04.36,6.45-1.41,12.7-6.39,18.8-.73.9,2.56,1.3,3.25.39,4.65-6.13,6.33-12.84,3.82-19.24Z"/><path class="cls-1" d="M427.53,624.78c-.33-.42-1.81-.25-1.52.18,6.23,9.57,7.36,19.8,3.1,29.58-.52,1.19,3.68,1.69,4.13.5,3.87-10.2,2.02-20.5-5.71-30.26Z"/><path class="cls-1" d="M437.91,627.56c-.1-.29-1.24-.23-1.18.07,1.72,9.01,3.47,18.22-3.17,26.95-.79,1.04,2.95,1.49,3.72.45,6.6-8.92,3.74-18.39.64-27.47Z"/><path class="cls-1" d="M421.47,628.39c-.37-.52-2.19-.3-1.86.23,5.49,8.84,8.21,17.93,8.34,27.09.01,1.04,3.71,1.04,3.67,0-.35-9.28-3.84-18.46-10.15-27.31Z"/><path class="cls-1" d="M426.79,652.77c-4.47-5.36-4.61-11.93-15.49-15.78-.68-.24-1.65.15-.98.43,9.71,4.1,9.17,10.48,13.48,15.71.68.82,3.69.46,2.99-.36Z"/><path class="cls-1" d="M438.45,657.3c-7.24-11.06-18.72-21.6-34.48-30.8-.58-.34-1.87-.03-1.32.34,13.94,9.29,24.82,19.33,31.71,30.04-6.71-5.5-15.27-10.55-25.03-15.08-.15-.07-.4.04-.25.11,10.37,4.95,18.53,10.57,24.86,16.7.54.52,2.26.14,1.99-.37,1.23.21,2.99-.22,2.51-.94Z"/><path class="cls-1" d="M420.79,651.18c-6.83-4.74-14.5-9.83-27.01-11.84-.76-.12-1.29.42-.56.58,11.55,2.46,18.42,7.28,24.82,11.96,1.06.77,3.85.06,2.75-.71Z"/><path class="cls-1" d="M572.69,623.2c-12.92,7.17-23.07,15.2-29.86,23.86-.64.82,2.33,1.18,2.94.36,6.45-8.55,15.81-16.61,27.97-23.86.45-.27-.58-.62-1.05-.36Z"/><path class="cls-1" d="M571.73,627.73c-8.94,5.36-15.81,11.23-18.77,17.81-.4.89,2.64,1.27,3.1.38,3.22-6.31,8.41-12.53,16.8-17.89.48-.31-.64-.59-1.13-.29Z"/><path class="cls-1" d="M567.09,635.64c-2.8,2.82-4.86,5.72-6.16,8.75-.35.81,2.31.98,2.55.15.86-2.97,2.46-5.87,4.76-8.68.24-.29-.86-.5-1.15-.21Z"/><path class="cls-1" d="M646.95,630.64c-7.78,8.41-13.61,17.29-16.18,26.32-.24.84,2.68,1.06,2.96.22,2.96-8.97,7.51-17.73,14.76-26.23.38-.44-1.12-.75-1.54-.31Z"/><path class="cls-1" d="M634.9,632.32c-4.04,5.66-8.74,11.2-13.15,16.8-.6.77,2.11,1.08,2.74.33,4.65-5.54,8.26-11.27,11.71-16.98.22-.37-1.03-.52-1.29-.16Z"/><path class="cls-1" d="M631.29,629.62c-8.73,7.76-14.19,16.23-17.23,24.77-.37,1.04,3.27,1.47,3.59.44,2.66-8.59,8.2-16.82,15.42-24.87.41-.45-1.3-.77-1.79-.33Z"/><path class="cls-1" d="M624.87,626.6c-2.38,3.45-4.26,6.95-5.72,10.48.06-1.64.12-3.28.17-4.92.02-.52-1.73-.51-1.82,0-.38,2.21-.76,4.43-1.15,6.64-.09.5,1.09.68,1.93.52-.62,1.73-1.15,3.47-1.57,5.21-.23.94,3.2.95,3.37,0,1.09-5.98,3.44-11.88,6.85-17.69.35-.59-1.67-.83-2.07-.25Z"/><path class="cls-1" d="M602.39,623.28c-.28-.35-1.48-.21-1.27.15,5.07,8.8,7.14,17.79,5.01,26.85-.23.99,3.34,1,3.53,0,1.77-9.09-.33-18.38-7.28-27Z"/><path class="cls-1" d="M611.09,628.81c-.06-.14-.54-.08-.49.06,1.84,5.25,1.6,10.58-.31,15.82-.29.81,2.34.97,2.52.15,1.22-5.37.49-10.73-1.72-16.03Z"/><path class="cls-1" d="M600.03,631.88c-.38-.32-1.61-.14-1.23.2,4.23,3.75,6.05,7.98,6.03,12.15,0,.78,2.83.69,2.78-.1-.3-4.37-3.06-8.37-7.57-12.25Z"/><path class="cls-1" d="M648.66,633.22c-4.47,4.32-8.46,8.74-11.59,13.28-.46.67,1.95.96,2.38.29,2.84-4.52,6.16-8.96,10.35-13.28.33-.34-.78-.63-1.13-.29Z"/><path class="cls-1" d="M660.97,629.41c-7.62,6.56-13.94,13.57-18.94,20.96,1.95-7.29,6.57-14.32,13.86-20.31.4-.33-.52-.65-.92-.32-7.7,6.32-13.03,13.43-15.3,21.14-.17.57.8.91,1.49.81-.15.23-.31.47-.46.7-.53.83,1.73,1.2,2.23.37,4.82-8.08,11.22-15.8,19.03-23,.4-.37-.58-.7-.99-.35Z"/><path class="cls-1" d="M676.69,626.37c-18.18,8.06-32.41,17.5-42,28.06-.71.78,2.16,1.12,2.87.35,9.47-10.25,23.08-19.83,40.07-28,.57-.27-.33-.67-.93-.41Z"/><path class="cls-1" d="M673.38,629.95c-7.5,5.43-14.31,11.01-20.42,16.76-.86.81,1.82,1.33,2.59.48,5.33-5.85,11.73-11.51,19.1-16.92.49-.36-.78-.68-1.27-.33Z"/><path class="cls-1" d="M680.24,631.02c-5.74,2.93-10.62,6.11-13.91,9.71-.7.76,2.15,1.11,2.81.34,2.98-3.45,6.79-6.74,12.1-9.61.57-.31-.4-.75-1-.44Z"/><path class="cls-1" d="M684.62,632.16c-3.59,1.73-6.51,3.66-8.59,5.82-.9.94,2.1,1.51,2.94.55,1.77-2.03,4.31-3.88,7.62-5.5,1.2-.58-.76-1.45-1.97-.87Z"/><path class="cls-1" d="M828.57,618.19c-12.76,6.77-23.46,14.26-31.33,22.35-1.04,1.07,2.32,1.7,3.35.62,7.59-7.97,17.35-15.51,29.38-22.35.76-.43-.58-1.05-1.4-.62Z"/><path class="cls-1" d="M707.14,627.94c-.82,3.19-2.86,6.23-6.12,9.1-.63.56,1.32,1.04,1.87.48,3.02-3.06,4.79-6.25,5.24-9.58.04-.28-.92-.27-.99,0Z"/><path class="cls-1" d="M713.03,628.76c-2.26,2.59-4.53,5.18-6.72,7.78-.54.64,1.87.95,2.35.29,1.92-2.63,3.76-5.27,5.61-7.92.25-.35-.95-.48-1.24-.15Z"/><path class="cls-1" d="M834.62,610.26c-18.52,6.98-26.66,17.46-33.3,27.46-.58.88,2.49,1.24,3.1.38,6.9-9.76,13.69-20.19,31.11-27.43.61-.25-.29-.63-.91-.4Z"/><path class="cls-1" d="M815.24,616.62c-8.81,6.63-15.27,13.53-18.85,21.08-.44.92,2.82,1.31,3.2.39,3.02-7.33,8.51-14.66,16.69-21.2.37-.3-.65-.56-1.04-.27Z"/><path class="cls-1" d="M801.77,623.36c-1.61,3.81-4.42,7.46-8.21,10.96-.62.57,1.34,1.06,1.92.49,3.71-3.64,6.02-7.45,7.13-11.4.06-.21-.75-.26-.84-.05Z"/><path class="cls-1" d="M795.73,623.4c-.08-.26-.98-.27-.94,0,.65,3.79-.96,7.49-4.68,10.92-.63.58,1.37,1.08,1.94.5,3.59-3.62,4.83-7.5,3.67-11.42Z"/><path class="cls-1" d="M778.07,610.55c-.35-.31-1.34-.04-1.04.27,8.93,9.1,7.87,19.37,4.63,28.98-.38,1.12,3.17,1.34,3.5.21,2.85-9.93,3.22-20.27-7.09-29.45Z"/><path class="cls-1" d="M779.96,623.65c-.13-.24-.94-.14-.83.1,1.46,3.07,1.42,6.12,0,9.19-.27.57,1.78.8,1.96.24,1.02-3.21.62-6.39-1.13-9.53Z"/><path class="cls-1" d="M775.87,626.58c-.35-.71-2.71-.4-2.45.3.87,2.36.93,4.72.31,7.1-.24.92,3.13.94,3.29,0,.45-2.5.03-4.95-1.15-7.39Z"/><path class="cls-1" d="M831.64,621.34c-9.52,5.27-15.71,11.52-17.86,18.19-.31.97,2.8,1.17,3.02.18,1.51-6.54,7.02-12.73,15.87-18.02.44-.26-.57-.61-1.03-.35Z"/><path class="cls-1" d="M838.51,623.69c-3.14,3.01-5.98,6.07-8.52,9.19-.72.88,2.54,1.29,3.2.39,2.25-3.04,4.79-6.04,7.63-8.98.66-.68-1.58-1.29-2.31-.6Z"/><path class="cls-1" d="M765.27,627.91c-.06-.12-.47-.07-.41.05,1.33,2.77,1.25,5.55.06,8.33-.23.53,1.54.65,1.68.1.72-2.87.16-5.67-1.33-8.48Z"/><path class="cls-1" d="M851.88,617.06c-1.74,7.12-7.41,13.87-15.77,19.99-.73.53,1.2,1.03,1.9.49,8.06-6.31,12.59-13.29,14.25-20.48.02-.11-.35-.1-.37,0Z"/><path class="cls-1" d="M854.55,622.46c-1.37,3.77-4.66,7.33-9.13,10.6-.93.68,1.58,1.32,2.4.62,4.13-3.52,6.4-7.25,7.48-11.17.05-.19-.69-.24-.76-.05Z"/><path class="cls-1" d="M862.46,622.64c-4.07,2.6-7.11,5.4-8.83,8.46-.41.72,2.15,1.03,2.53.31,1.58-2.97,3.93-5.84,7.36-8.5.4-.31-.62-.56-1.06-.27Z"/><path class="cls-1" d="M873.12,620.32c-9.35,5.52-15.87,11.94-18.96,18.69-.2.43,1.34.61,1.5.18,2.53-6.83,8.57-13.18,17.88-18.77.18-.11-.23-.22-.42-.11Z"/><path class="cls-1" d="M878.08,622.29c-6.94,4.04-11.46,8.65-13.57,13.62-.33.79,2.46,1.12,2.74.33,1.74-4.89,5.9-9.51,12.1-13.63.53-.36-.71-.65-1.27-.33Z"/><path class="cls-1" d="M888.14,622.16c-1.44,2.69-3.44,5.25-5.83,7.81-.33.35.98.51,1.29.16,2.23-2.55,3.88-5.21,5.13-7.89.08-.17-.5-.24-.59-.07Z"/><path class="cls-1" d="M898.2,611.63c-.08-.41-1.52-.42-1.47,0,.89,7.72-3.14,15.4-11.14,22.27-.84.72,1.62,1.36,2.47.64,8.36-7.07,11.67-14.97,10.14-22.9Z"/><path class="cls-1" d="M905.16,616.76c-.56,6.35-5.35,12.61-12.55,18.07-.99.75,1.69,1.44,2.64.68,7.26-5.83,10.4-12.14,10.64-18.75,0-.21-.7-.2-.72,0Z"/><path class="cls-1" d="M909.56,622c-3.54,3.63-6.59,7.37-8.77,11.2-.45.8,2.38,1.14,2.79.34,1.97-3.83,4.35-7.58,7.45-11.27.31-.37-1.11-.64-1.47-.27Z"/><path class="cls-1" d="M917.97,622.94c-4.2,2.53-7.56,5.25-10.13,8.17-.55.62,1.8.92,2.3.28,2.22-2.89,5.26-5.59,9.1-8.12.53-.35-.72-.66-1.27-.33Z"/><path class="cls-1" d="M926.66,623.05c-4.4,2.3-7.92,4.82-10.61,7.59-.82.84,1.9,1.36,2.64.49,2.32-2.72,5.48-5.26,9.32-7.62.56-.35-.72-.78-1.35-.46Z"/><path class="cls-1" d="M5.01,641.13c-.43-.23-1.14.1-.74.33,14.33,8.09,15.62,18.91,16.63,28.74.1.93,3.44.93,3.29,0-1.64-10.24-3.82-20.83-19.18-29.06Z"/><path class="cls-1" d="M12.61,650.46c-.29-.35-1.57-.2-1.29.16,4.07,5.21,4.84,10.93,2.92,16.35-.36,1.03,2.95,1.24,3.23.19,1.54-5.75-.4-11.29-4.87-16.7Z"/><path class="cls-1" d="M4.52,648.99c-.3-.17-.88-.03-.67.17,4.49,4.39,7.62,8.61,7.69,13.48.01.87,3.13.86,3.05,0-.43-4.73-3.44-9.84-10.08-13.65Z"/><path class="cls-1" d="M9.47,659.49c-1.4-3.06-4.81-5.65-9.77-7.75v.7c4,2.06,6.55,4.62,7.5,7.32.23.65,2.57.39,2.27-.28Z"/><path class="cls-1" d="M27.13,666.07c-2.9-8.47-3.67-16.94-1.74-25.47.09-.39-1.44-.49-1.58-.09-3.07,8.57-3.21,17.39.22,25.94.36.9,3.4.51,3.1-.38Z"/><path class="cls-1" d="M32.21,649.56c-1.76,5.14-2.42,10.3-1.97,15.49.07.77,2.84.77,2.73,0-.75-5.14-.43-10.28.92-15.39.11-.42-1.54-.52-1.68-.1Z"/><path class="cls-1" d="M40.73,648.69c-2.87,5.56-4.2,11.27-3.9,16.97.03.56,2.05.56,1.98,0-.75-5.67.21-11.28,2.95-16.84.15-.3-.88-.42-1.03-.13Z"/><path class="cls-1" d="M29.2,646.6c-3.97,5.49-5.37,11.22-4.05,16.95.13.57,2.18.56,2.01,0-1.7-5.67-.76-11.36,2.89-16.85.16-.24-.68-.34-.85-.1Z"/><path class="cls-1" d="M41.49,653.53c-2.26,3.89-3.01,7.84-1.82,11.82.17.58,2.05.48,1.81-.11-1.55-3.88-1.36-7.8.86-11.61.14-.24-.71-.35-.85-.1Z"/><path class="cls-1" d="M47.17,657.51c-.66,2.31-.94,4.62-.85,6.94.02.62,2.25.62,2.2,0-.2-2.32-.03-4.63.52-6.94.13-.53-1.73-.52-1.87,0Z"/><path class="cls-1" d="M61.61,650.21c-.1-.24-.91-.14-.83.1,1.75,5.1,1.14,10.26-1.99,15.23-.32.51,1.54.74,1.81.22,2.67-5.13,3.09-10.37,1.01-15.55Z"/><path class="cls-1" d="M55.47,653.53c-.14-.25-.99-.14-.88.11,1.76,4.04,1.65,8.15-.11,12.19-.3.68,2.1.95,2.32.28,1.4-4.23.9-8.42-1.33-12.58Z"/><path class="cls-1" d="M77.52,646.46c-6.38,5.81-10.66,11.88-12.35,18.3-.22.83,2.83.85,3,0,1.2-6.18,4.64-12.34,10.62-17.97.4-.37-.86-.7-1.27-.33Z"/><path class="cls-1" d="M75.93,654.68c-2.77,3.77-5.25,7.57-6.95,11.46-.27.61,1.85.88,2.14.26,1.81-3.88,3.86-7.73,6.64-11.5.38-.51-1.46-.73-1.83-.22Z"/><path class="cls-1" d="M99.97,646.01c-5.25,7.96-14.69,15.3-27.02,21.54-1.25.63.86,1.57,2.1.93,12.54-6.49,21.23-14.09,26.18-22.32.22-.36-1.03-.51-1.27-.15Z"/><path class="cls-1" d="M104.36,649.29c-4.51,5.38-11.17,10.34-19.62,14.7-1.22.63.9,1.55,2.06.91,8.43-4.62,14.8-9.8,19.03-15.43.31-.41-1.14-.58-1.47-.18Z"/><path class="cls-1" d="M89.84,651.38c-3.05,5.3-7.63,10.36-13.58,15.15-.88.71,1.62,1.34,2.45.63,5.75-4.94,10.1-10.15,13.09-15.54.31-.56-1.64-.8-1.96-.24Z"/><path class="cls-1" d="M114.75,643.01c-.05-.45-1.65-.46-1.61,0,1.01,10.07-11.75,19.07-23.98,27.11-1.23.81,1.76,1.58,2.96.76,12.38-8.47,23.86-17.47,22.62-27.87Z"/><path class="cls-1" d="M118.62,648.76c-1.22,7.08-7.45,13.87-17.59,19.38-1.28.7.96,1.69,2.25.99,10.68-5.81,16.64-12.91,17.27-20.38.05-.55-1.84-.54-1.93,0Z"/><path class="cls-1" d="M123.17,642.06c-.13-.33-1.26-.19-1.14.14,3.64,9.21,6.2,20.28-9.5,27.73-1.33.63.78,1.57,2.16.95,17.35-7.83,12.44-19.16,8.47-28.82Z"/><path class="cls-1" d="M135.76,651.64c-.18-.47-2.02-.37-1.92.11.67,3.37-.83,6.75-4.34,9.71,2.09-3.83,2.72-7.81,2.07-11.8-.05-.3-1.11-.3-1.07,0,.71,5.08-1.38,10.1-5.55,14.8,0,0-.01,0-.02.01-.29.15-.41.32-.41.48-1.07,1.16-2.26,2.3-3.57,3.41-.79.67,1.53,1.27,2.31.6,1.21-1.04,2.27-2.11,3.21-3.18.31-.03.61-.1.87-.24,7.26-3.95,10.34-8.88,8.44-13.9Z"/><path class="cls-1" d="M122.29,654.69c-.17-.44-1.72-.32-1.74.1-.16,3.52-1.45,6.77-5.35,9.89-1.03.82,1.91,1.56,2.84.73,3.69-3.3,5.63-7.06,4.24-10.73Z"/><path class="cls-1" d="M152.65,650.23c-2.68,3.4-6.41,6.58-10.92,9.54,5.5-6.35,7.11-13.31,4.5-20.1-.08-.22-.95-.17-.89.05,2.2,8.82-2.38,17.75-12.79,25.3-.14.07-.28.14-.42.21-.2.1-.3.21-.33.32-.9.63-1.84,1.25-2.82,1.86-1.17.72,1.55,1.42,2.7.7,1.72-1.08,3.3-2.19,4.74-3.32,8.07-4.19,13.7-9.16,17.21-14.44.19-.28-.77-.39-.98-.12Z"/><path class="cls-1" d="M160.55,652.82c-4.47,3.74-10.8,7-18.09,9.72-1.33.5.62,1.37,1.93.85,7.33-2.93,12.89-6.39,17.29-10.28.37-.33-.74-.62-1.13-.29Z"/><path class="cls-1" d="M170.63,652.16c-3.13,2.9-6.96,5.61-11.33,8.18,4.17-3.35,6.84-7.06,8.07-10.89.12-.37-1.14-.53-1.29-.16-2.41,6.15-9.27,11.7-18.77,16.29-1.15.55.68,1.37,1.87.83,3.52-1.6,6.53-3.36,9.06-5.24.06.5,1.94.85,2.85.3,4.5-2.76,8.24-5.72,11.37-8.83.54-.54-1.24-1.02-1.83-.47Z"/><path class="cls-1" d="M180.81,649.92c-1.31,4.19-4.28,8.17-8.89,11.88-.62.49,1.14.94,1.71.44,4.41-3.85,7.15-7.97,8.15-12.26.06-.24-.9-.3-.97-.06Z"/><path class="cls-1" d="M206.52,643.66c-16.95,6.64-29.96,15.04-37.2,24.54-.63.83,2.28,1.16,2.94.36,7.52-9.18,19.39-17.61,35.24-24.46.64-.28-.32-.69-.98-.43Z"/><path class="cls-1" d="M201.21,649.17c-7.3,3.94-13.35,8.25-17.78,12.95-.78.83,2.49,1.44,3.3.61,4.4-4.49,9.85-8.73,16.72-12.58,1.23-.69-.94-1.68-2.23-.98Z"/><path class="cls-1" d="M183.16,646.17c-9.4,6.64-17.09,13.8-20.98,21.47-.35.69,2,.98,2.4.29,4.37-7.53,10.36-14.84,19.62-21.49.41-.29-.63-.56-1.04-.27Z"/><path class="cls-1" d="M203.72,654.01c-3.92,2.64-6.87,5.43-8.62,8.5-.37.65,2,.93,2.27.28,1.25-3.02,3.59-5.92,7.25-8.54.35-.25-.54-.48-.9-.23Z"/><path class="cls-1" d="M214.08,652.72c-4.47,1.6-7.47,3.69-8.96,6.14-.49.8,2.44,1.14,2.79.34,1-2.29,3.45-4.37,7.16-6.04.64-.29-.3-.68-.98-.43Z"/><path class="cls-1" d="M223.82,646.94c-.09-.49-1.79-.5-1.74,0,.45,4.54-2.78,8.94-8.86,12.6-1.17.7,1.55,1.42,2.68.69,6.13-3.94,8.76-8.54,7.92-13.29Z"/><path class="cls-1" d="M218.2,652.53c-3.14,2.37-6.28,4.74-9.38,7.12-.79.6,1.39,1.15,2.1.54,2.84-2.45,5.63-4.91,8.44-7.37.38-.34-.72-.63-1.16-.3Z"/><path class="cls-1" d="M229.78,650.49c-1.54,3.29-4.47,6.35-8.67,9.16-.88.59,1.31,1.16,2.15.55,4.1-2.93,6.73-6.14,7.94-9.54.14-.4-1.23-.59-1.42-.17Z"/><path class="cls-1" d="M404.71,647.75c-1.93-2.13-4.83-3.97-8.73-5.49-.37-.15-.9.08-.55.24,3.45,1.56,5.97,3.4,7.47,5.47.37.51,2.25.27,1.81-.22Z"/><path class="cls-1" d="M389.71,641.44c-.22-.21-.89-.03-.69.18,2.93,3.03,3.71,6.22,2.36,9.45-.24.58,1.65.7,1.81.11.92-3.34-.31-6.67-3.48-9.74Z"/><path class="cls-1" d="M384.14,642.26c-2.53,2.62-3.57,5.47-3.81,8.31-.07.85,3,.85,3,0,0-2.74,1.06-5.34,2.4-8.01.2-.4-1.19-.71-1.59-.3Z"/><path class="cls-1" d="M379.11,643.13c-2.59,2.57-4.36,5.24-5.1,8.04-.16.6,1.95.59,2.12,0,.75-2.68,2.18-5.25,4.52-7.75.36-.39-1.15-.67-1.54-.29Z"/><path class="cls-1" d="M235.61,651.4c-3.24,2.96-5.62,6.07-6.74,9.33-.2.58,1.66.7,1.81.11.85-3.22,2.57-6.31,5.48-9.29.16-.16-.37-.31-.55-.14Z"/><path class="cls-1" d="M243.28,653.37c-1.41,1.17-2.43,2.41-3.01,3.71-.3.66,2.04.91,2.25.27.4-1.25,1.19-2.41,2.47-3.54.57-.5-1.11-.94-1.71-.44Z"/><path class="cls-1" d="M267.77,650.75c-.38-.54-2.25-.32-1.94.23.98,1.72,1.1,3.43.32,5.17-.33.74,2.29,1.03,2.53.31.65-1.94.38-3.83-.92-5.71Z"/><path class="cls-1" d="M-.3,654.92v7.97c.7.11,1.56.01,1.73-.39,1.12-2.6.59-5.15-1.73-7.58Z"/><path class="cls-1" d="M269.18,647.17c-6.28,4.07-10.57,8.67-12.66,13.5-.33.77,2.37,1.09,2.66.32,1.81-4.82,5.31-9.38,10.44-13.71.15-.13-.26-.23-.44-.11Z"/><path class="cls-1" d="M260.01,649.72c-4.64,2.63-7.89,5.6-9.51,8.86-.35.7,2.15.99,2.43.29,1.26-3.18,3.97-6.13,8.22-8.77.47-.29-.63-.67-1.14-.39Z"/><path class="cls-1" d="M930.32,625.85c-3.85,1.44-6.97,3.17-9.36,5.13-.75.62,1.46,1.16,2.1.54,2.04-1.96,4.89-3.66,8.49-5.13.83-.34-.39-.86-1.23-.54Z"/><path class="cls-1" d="M1178.77,640.17c-1.72-5.38-5.53-10.5-10.99-15.36-.25-.23-1.01-.03-.76.2,5.21,4.81,8.32,10,9.49,15.3.16.73,2.5.6,2.26-.13Z"/><path class="cls-1" d="M1165.19,627.69c-.63-.34-1.99.12-1.39.47,4.5,2.68,6.83,5.8,7.14,9.12.06.68,2.44.69,2.41,0-.14-3.57-3.08-6.83-8.16-9.6Z"/><path class="cls-1" d="M1163.76,633.25c-1.65-1.68-3.25-3.37-4.86-5.06-.2-.21-1-.12-.8.1,1.57,1.71,3.16,3.42,4.68,5.15.28.31,1.29.13.98-.18Z"/><path class="cls-1" d="M1179.78,634.1c-1.31-3.3-2.57-6.6-3.99-9.89-.16-.37-1.62-.29-1.53.09.84,3.33,1.84,6.64,2.78,9.96.25.88,3.09.72,2.73-.16Z"/><path class="cls-1" d="M1185.26,630.65c-.07-.41-1.52-.41-1.45,0,.23,1.31.46,2.62.69,3.92.07.41,1.52.41,1.45,0-.23-1.31-.46-2.62-.69-3.92Z"/><path class="cls-1" d="M1195.71,636.99c-.55-2.22-.71-4.42-.31-6.64.06-.35-1.17-.35-1.23,0-.39,2.21-.51,4.42-.2,6.64.07.5,1.86.48,1.74,0Z"/><path class="cls-1" d="M1160.68,638.01c-4.56-6.22-10.99-12.08-18.9-17.61-.83-.58-2.92-.04-2.08.54,7.82,5.41,13.74,11.31,17.91,17.45.59.86,3.7.49,3.07-.37Z"/><path class="cls-1" d="M1150.68,633.23c-2.6-3.34-6.82-6.25-12.29-8.82-.5-.23-1.29.12-.8.35,5.22,2.49,8.75,5.49,10.76,8.75.41.66,2.83.36,2.32-.28Z"/><path class="cls-1" d="M1158.58,633.79c-1.61-3.19-3.31-6.37-5.09-9.55-.21-.38-1.42-.21-1.29.16,1.14,3.25,2.36,6.49,3.67,9.72.31.78,3.11.46,2.71-.33Z"/><path class="cls-1" d="M1142.67,632c-1.63-2.85-4.58-5.44-8.7-7.75-.79-.44-2.57.15-1.79.61,3.85,2.24,6.44,4.72,7.8,7.47.38.77,3.13.44,2.69-.33Z"/><path class="cls-1" d="M1112.46,617.52c-.38-.3-1.37-.04-1.04.27,4.31,4.01,7.27,8.27,8.81,12.64-2.62-2.57-6.15-4.88-10.67-6.91-.66-.3-1.62.14-1.02.45,4.62,2.37,8.12,5.07,10.35,8.03.3.4,1.26.47,1.94.34.42,1.64.64,3.29.66,4.95,0,.68,2.41.68,2.41,0,0-6.94-3.88-13.68-11.43-19.77Z"/><path class="cls-1" d="M1124.12,627.07c-.67-.37-1.82.15-1.17.52,3.45,1.95,5.37,4.21,5.73,6.68.09.58,2.19.58,2.06,0-.59-2.67-2.83-5.1-6.62-7.2Z"/><path class="cls-1" d="M1117.21,634.14c-2.96-3.08-6.78-5.98-11.35-8.65-.12-.07-.4,0-.28.07,4.45,2.72,7.94,5.63,10.53,8.79.29.36,1.44.15,1.1-.2Z"/><path class="cls-1" d="M1099.12,629.44c-.4-1.57-1.13-3.12-2.2-4.63-.28-.39-1.65-.23-1.39.17.94,1.46,1.48,2.94,1.64,4.46.06.56,2.09.54,1.95,0Z"/><path class="cls-1" d="M1090.65,625.52c-.03-.39-1.36-.4-1.39,0-.13,1.51-.26,3.02-.39,4.53-.05.61,2.22.62,2.17,0-.13-1.51-.26-3.02-.39-4.53Z"/><path class="cls-1" d="M1105.03,631.69c-.57-1.49-.99-3.01-1.81-4.47-.26-.46-1.92-.37-1.89.11.08,1.51.58,3.02.92,4.53.2.9,3.13.74,2.79-.17Z"/><path class="cls-1" d="M1138.12,636.28c-2.23-3.65-6.08-6.99-11.29-10-.43-.25-1.4,0-.97.25,5.03,2.99,8.47,6.36,10.45,9.97.28.52,2.12.3,1.81-.22Z"/><path class="cls-1" d="M943.39,624.24c-1.3,2.09-2.6,4.19-3.84,6.29-.33.56,1.69.8,1.96.24,1.05-2.13,2.03-4.26,3.01-6.39.15-.32-.93-.46-1.14-.14Z"/><path class="cls-1" d="M949,627.88c-.48.8-.97,1.6-1.45,2.41-.18.29.88.42,1.03.13.43-.81.86-1.62,1.29-2.42.13-.25-.73-.36-.88-.11Z"/><path class="cls-1" d="M1210.54,641.82c-.76-2.83-2.02-5.63-3.94-8.36-1.27-1.81-2.53-4.18-6.81-5.05-.45-.09-.84.19-.39.3,4.31,1.06,5.15,4.11,6.15,6.04,1.21,2.33,1.95,4.69,2.31,7.07.12.76,2.88.74,2.68,0Z"/><path class="cls-1" d="M1214.38,638.67c-1.09-2.95-3.12-5.75-6.07-8.44-.23-.21-1.08-.06-.88.16,2.41,2.7,4.01,5.52,4.74,8.41.18.71,2.47.58,2.21-.13Z"/><path class="cls-1" d="M1219.87,637.76c-2.4-2.98-4.2-6.07-4.74-9.23-.04-.26-.95-.26-.91,0,.49,3.23,1.46,6.37,3.56,9.48.4.59,2.56.32,2.09-.25Z"/><path class="cls-1" d="M1224.63,624.92c-.05-.25-.92-.25-.88,0,.98,6.24,1.73,12.48,2.71,18.71.1.64,2.38.63,2.25,0-1.28-6.24-2.79-12.47-4.08-18.71Z"/><path class="cls-1" d="M1230.49,627.33c-.01-.4-1.4-.4-1.42,0-.15,4.23-.34,8.45-.55,12.68-.03.71,2.55.71,2.52,0-.2-4.23-.4-8.45-.55-12.68Z"/><path class="cls-1" d="M1226.72,643.2c-6.3-8.02-6.88-16.67-1.87-24.86.15-.24-.68-.34-.85-.1-5.87,8.23-5.74,17.05.17,25.28.51.72,3.11.4,2.56-.31Z"/><path class="cls-1" d="M1235.59,631.43c-.39-.57-2.41-.33-2.04.25,1.81,2.83,2.67,5.69,2.49,8.63-.05.74,2.62.74,2.6,0-.08-3.02-1.06-5.98-3.04-8.88Z"/><path class="cls-1" d="M1242.25,633.26c-.34-.41-1.79-.25-1.5.18,1.58,2.34,2.28,4.72,2.12,7.16-.05.73,2.62.73,2.57,0-.18-2.53-1.23-4.97-3.19-7.34Z"/><path class="cls-1" d="M1261.22,648c-5.42-5.85-8.19-11.93-7.26-18.26.06-.44-1.42-.42-1.53,0-1.61,6.35.27,12.89,6.22,18.73.64.63,3.17.17,2.57-.48Z"/><path class="cls-1" d="M1265.52,631.01c.17-1.43.43-2.86.8-4.29.13-.48-1.76-.59-1.92-.11-.31.94-.57,1.88-.79,2.83-2.01-1.59-4.21-3.13-6.61-4.64-.54-.34-1.82-.02-1.27.33,2.86,1.81,5.39,3.71,7.59,5.68-1.39,7.3-.12,14.63,3.89,21.78.56.99,4.1.57,3.49-.42-3.91-6.34-5.7-12.87-5.33-19.41,5.64,5.7,8.64,11.91,8.86,18.13.03.9,3.24.89,3.16,0-.61-7.01-4.74-13.72-11.87-19.86Z"/><path class="cls-1" d="M1258.77,642.49c-4.18-4.24-7.58-8.61-10.09-13.1-.13-.23-.91-.13-.8.1,2.27,4.54,5.24,9.01,9,13.35.53.61,2.48.26,1.88-.35Z"/><path class="cls-1" d="M1277.88,635.78c-.12-.44-1.7-.46-1.61,0,.82,3.83.69,7.65-.37,11.47-.18.65,2.21.67,2.36,0,.82-3.83.69-7.65-.37-11.47Z"/><path class="cls-1" d="M1287.13,632.65c-2.02,4.84-3.01,9.68-1.95,14.6.17.79,3,.8,2.84,0-.96-4.78-1.01-9.65.87-14.39.2-.5-1.54-.72-1.76-.21Z"/><path class="cls-1" d="M1299.37,626c-4.94,7.99-7.27,16.29-6.12,24.57.14.97,3.59.98,3.45,0-1.15-8.19.04-16.37,4.37-24.36.26-.49-1.4-.69-1.7-.21Z"/><path class="cls-1" d="M1287.39,648.89c-4.2-6.52-5.66-13.33-3.79-20.06.07-.24-.87-.29-.95-.06-2.13,6.84-1.57,13.71,2.23,20.42.4.71,2.96.41,2.5-.3Z"/><path class="cls-1" d="M1293.2,645.01c-1.48-3.55-2.04-7.13-1.7-10.74.04-.46-1.55-.45-1.61,0-.49,3.68-.04,7.35,1.32,10.99.21.57,2.23.33,1.99-.24Z"/><path class="cls-1" d="M1305.52,643.72c-2.4-2.5-3.11-5.12-1.94-7.8.32-.73-2.16-1.05-2.56-.31-1.53,2.86-1.15,5.75,1.19,8.51.78.91,4.15.48,3.3-.4Z"/><path class="cls-1" d="M1508.57,655.86c-3.84-6.9-10.42-13.35-19.16-19.31-.43-.29-1.49-.02-1.06.27,8.55,5.91,14.43,12.49,17.8,19.33.34.69,2.81.4,2.43-.29Z"/><path class="cls-1" d="M1488.78,638.95c-.36-.27-1.29-.03-.95.24,9.79,7.74,15.4,16.43,16.57,25.27.11.81,3.02.81,2.86,0-1.75-9.04-8.09-17.68-18.48-25.51Z"/><path class="cls-1" d="M1464.34,623.78c-.54-.36-1.84-.03-1.32.34,15.82,11.22,31.34,23.45,31.63,37.02.02,1.08,3.85,1.08,3.8,0-.68-13.88-17.19-26.1-34.11-37.36Z"/><path class="cls-1" d="M1477.91,638.62c-.45-.41-1.8-.05-1.39.36,5.73,5.67,8.32,11.73,8,17.93-.05.9,3.21.9,3.19,0-.13-6.34-3.58-12.57-9.8-18.29Z"/><path class="cls-1" d="M1488.07,657.79c-1.66-.96-3.21-1.96-4.67-2.99-.77-5.41-2.98-10.74-10.55-15.22-.38-.22-1.23,0-.86.22,6.22,3.75,8.1,8.32,8.64,12.91-3.52-2.87-6.21-5.94-7.9-9.12-.09-.17-.66-.1-.59.07,1.48,4.03,4.33,7.83,8.67,11.36.04.93.04,1.85.03,2.76-8.92-5.95-15.33-12.62-18.39-19.63-.07-.16-.63-.09-.57.07,1.66,4.09,4.22,8.07,7.7,11.88-5.6-3.88-9.91-8.09-12.52-12.56-.12-.21-.83-.12-.72.09,3.03,5.71,8.13,11.09,15.64,15.94.34.22.85.27,1.32.23,2.43,2.2,5.2,4.34,8.31,6.4.88.58,3.05.02,2.13-.55-.11-.07-.21-.13-.32-.2.21-.1.35-.24.34-.42-.03-.63-.07-1.26-.12-1.89.62.43,1.26.86,1.94,1.28,1.06.67,3.58,0,2.47-.64Z"/><path class="cls-1" d="M1468.99,657.05c-5.99-7.58-17.54-14.56-18.33-22.8-.02-.26-.9-.26-.91,0-.21,8.33,10.39,15.49,16.09,23.18.65.88,3.84.49,3.15-.38Z"/><path class="cls-1" d="M1440.81,635.92c-.38-.27-1.35-.02-.97.25,8.22,6.01,12.39,12.85,13.17,19.83.09.82,3.01.82,2.89,0-1.06-7.18-6.56-13.98-15.1-20.08Z"/><path class="cls-1" d="M1450.4,655.24c-2.37-6.23-8.04-12.09-16.48-17.2-.48-.29-1.59-.02-1.11.29,8.03,5.09,13.17,10.92,15.04,17.06.25.82,2.87.67,2.55-.15Z"/><path class="cls-1" d="M1446.45,654.01c-3.54-5.76-10.3-11.02-19.92-15.23-.73-.32-1.79.16-1.12.49,8.73,4.34,14.94,9.46,17.97,15.11.47.88,3.61.5,3.07-.37Z"/><path class="cls-1" d="M1438.56,651.49c-4.29-3.18-8.63-6.33-13.02-9.49-.36-.26-1.25-.03-.92.24,3.94,3.26,7.91,6.52,11.95,9.76.71.57,2.75.05,1.99-.51Z"/><path class="cls-1" d="M1434.56,652.15c-7.15-3.31-12.34-7.43-14.44-11.92-.22-.47-1.82-.27-1.63.2,1.99,4.77,6.48,9.07,13.85,12.7,1.34.66,3.61-.33,2.22-.98Z"/><path class="cls-1" d="M1317.75,647.45c-2.83-1.25-5.24-2.69-6.93-4.3-.57-.54-5.08-6.03-1.68-5.96.46,0,.43-.28,0-.31-3.9-.22-2,3.5-1.59,4.34,1.3,2.65,4.3,5.01,8.57,6.95,1.03.47,2.68-.26,1.63-.72Z"/><path class="cls-1" d="M1422.83,649.98c-3.06-3.18-7.17-6.08-12.25-8.7-.56-.29-1.73.1-1.2.41,4.67,2.66,8.39,5.58,11.08,8.73.65.77,3.11.33,2.37-.44Z"/><path class="cls-1" d="M1421.24,651.07c-4.86-2.47-9.68-4.99-14.91-7.32-.45-.2-1.29.07-.9.31,4.34,2.7,9.19,5.27,13.94,7.84,1.07.58,2.99-.25,1.87-.83Z"/><path class="cls-1" d="M1506.48,643.27c-.08-.24-1.03-.19-.97.06,1.16,5.21,1.8,10.46,1.94,15.7.02.74,2.68.73,2.6,0-.57-5.28-1.76-10.53-3.56-15.75Z"/><path class="cls-1" d="M1517.79,661.63c-2.83-6.53-3.29-13.19-1.08-19.76.08-.24-.74-.34-.83-.1-2.36,6.68-2.48,13.43-.08,20.11.2.57,2.24.34,1.99-.24Z"/><path class="cls-1" d="M1526.09,642.36c-2.12,3.69-3.73,7.36-4.7,11.07.58-5.81,2.19-11.59,5.34-17.25.2-.37-1.08-.53-1.29-.16-4.76,8.32-7.63,16.82-6.94,25.42.04.47,1.1.65,1.87.53.01.42.03.85.06,1.27.06.78,2.84.77,2.73,0-1.02-6.91-.05-14.05,3.82-20.77.15-.26-.76-.37-.9-.11Z"/><path class="cls-1" d="M1535.74,638.96c-4.86,8-7.48,16.29-6.82,24.58.06.7,2.53.71,2.49,0-.41-8.23,1.32-16.39,6.11-24.36.3-.51-1.47-.72-1.78-.22Z"/><path class="cls-1" d="M1556.23,633.24c-10.73,9-16.13,18.92-15.07,29.1.08.78,2.88.78,2.76,0-1.6-9.91,2.76-20.03,13.19-28.87.3-.26-.57-.48-.88-.23Z"/><path class="cls-1" d="M1556.52,639.28c-6.7,7.04-11.43,14.77-10.99,22.46.05.8,2.76.8,2.81,0,.45-7.69,2.67-15.16,9.47-22.3.33-.35-.96-.5-1.29-.16Z"/><path class="cls-1" d="M1540.52,641.2c.05-.18-.63-.22-.71-.04-2.65,5.82-4.27,11.61-4.67,17.56-.06.95,3.41.96,3.37,0-.21-5.83.38-11.73,2.01-17.51Z"/><path class="cls-1" d="M1583.71,629.24c-17.16,8.76-27.17,20.04-28.4,31.59-.13,1.27,4.35,1.27,4.47,0,1.05-11.3,9.84-22.1,25-31.22.46-.27-.57-.62-1.07-.36Z"/><path class="cls-1" d="M1576.45,641c-6.62,6.12-10.48,12.75-11.19,19.53-.11,1.04,3.59,1.04,3.67,0,.47-6.62,3.5-13.08,9.16-19.23.38-.41-1.2-.71-1.64-.3Z"/><path class="cls-1" d="M1572.7,630.83c-12.15,8.64-20.31,18.1-23.36,28.19-.41,1.36,4.49,1.36,4.87,0,2.71-9.7,9.15-19.26,19.73-27.86.44-.36-.76-.67-1.25-.32Z"/><path class="cls-1" d="M1579.47,644.99c-3.84,3.79-6.88,7.71-8.94,11.76-.38.75,2.31,1.05,2.58.31,1.5-4.08,3.96-8.03,7.51-11.86.27-.29-.86-.5-1.15-.21Z"/><path class="cls-1" d="M1586.95,646.01c-4.38,2.88-7.27,6.07-8.65,9.48-.41,1.01,3.14,1.41,3.46.42,1.07-3.32,3.69-6.41,7.78-9.24,1.04-.72-1.52-1.37-2.59-.67Z"/><path class="cls-1" d="M1600.72,648.44c-1.98,2.05-3.96,4.1-5.87,6.16-.82.89,2.49,1.29,3.28.4,1.79-2.02,3.51-4.04,5.24-6.07.57-.67-2-1.16-2.64-.49Z"/><path class="cls-1" d="M1494.12,630.24c-.07-.07-.33-.02-.27.05,8.28,9.23,13.76,19.62,8.55,29.47-.62,1.17,3.46,1.66,4.08.5,5.52-10.45-2.8-20.57-12.36-30.01Z"/><path class="cls-1" d="M1507.52,635.67c-.14-.2-.86-.12-.72.09,3.93,6.02,4.1,12.69,1.53,18.83-.39.93,2.91,1.3,3.2.39,2.12-6.64.43-12.92-4.01-19.3Z"/><path class="cls-1" d="M1482.83,657.85c-11.87-6.81-19.39-15.53-18.92-24.18.02-.29-.98-.29-1.02,0-1.23,9.08,3.55,17.83,15.75,25.26,1.83,1.11,6.07,0,4.18-1.08Z"/><path class="cls-1" d="M1602.02,643.36c-7.69,4.15-13.41,8.88-16.85,14.03-.41.61,1.78.88,2.17.26,3.16-5.03,8.43-9.71,15.7-13.84.56-.32-.43-.77-1.02-.45Z"/><path class="cls-1" d="M1614.7,643.58c-2.04,4.89-6.76,9.56-13.09,13.66-.8.52,1.14,1.02,1.92.49,6.32-4.32,10.15-8.98,12.25-14.02.13-.31-.95-.45-1.08-.13Z"/><path class="cls-1" d="M1621.17,647.68c-2.2,2.18-4.41,4.35-6.57,6.54-.72.72,1.63,1.17,2.28.42,1.93-2.23,3.82-4.46,5.72-6.7.3-.36-1.06-.62-1.42-.26Z"/><path class="cls-1" d="M1628.65,645.04c-1.98,4.39-3.77,8.79-5.43,13.2-.31.82,2.56,1.16,2.84.34,1.55-4.47,2.97-8.96,4.2-13.45.11-.4-1.43-.49-1.6-.1Z"/><path class="cls-1" d="M1642.37,653.89c-.45-1.61-.53-3.21-.24-4.83.11-.63-2.03-.6-2.2,0-.45,1.61-.53,3.21-.24,4.83.14.76,2.89.74,2.68,0Z"/><path class="cls-1" d="M1543.85,633.62c-.18-.11-.59,0-.42.11,11.23,7.32,7.52,16.7,4.28,24.83-.28.7,2.17.99,2.43.29,3.15-8.56,5.64-17.71-6.29-25.23Z"/><path class="cls-1" d="M1535.6,633.46c-.42-.37-1.66-.04-1.25.32,10.53,9.46,12.94,20.51,7.13,30.71-.55.96,2.87,1.37,3.36.41,5.42-10.67,2.04-21.71-9.24-31.44Z"/><path class="cls-1" d="M1589.47,637.15c-.26-.59-2.27-.34-2.04.25,3.21,8.04,3.72,16.23,1.77,24.34-.24.98,3.33.99,3.51,0,1.48-8.23.31-16.48-3.23-24.59Z"/><path class="cls-1" d="M1451.65,657.88c-5.62-5.98-8.67-12.3-8.45-18.78.02-.58-1.98-.57-2.03,0-.58,6.55,1.64,13.09,7.13,19.19.82.91,4.21.5,3.36-.41Z"/><path class="cls-1" d="M1280.05,623.6c-6.32,5.94-9.98,12.25-10.34,18.82-.04.67,2.38.67,2.36,0-.24-6.42,2.48-12.83,8.47-18.69.15-.14-.33-.27-.49-.12Z"/><path class="cls-1" d="M1668.58,646.81c-3.09,2.92-4.91,5.97-5.14,9.2-.04.55,1.93.55,1.93,0-.02-3.11,1.27-6.11,4.19-8.95.3-.29-.66-.54-.97-.25Z"/><path class="cls-1" d="M1673.3,648.99c-.57,1.49-1.19,2.98-1.86,4.47-.3.68,2.02.82,2.13.13.23-1.51.51-3.02.83-4.53.06-.28-1-.34-1.1-.07Z"/><path class="cls-1" d="M1663.8,654.39c-.93-1.75-1.01-3.49-.26-5.26.15-.34-1.01-.49-1.19-.14-.95,1.86-1,3.73-.21,5.61.2.47,1.91.28,1.65-.2Z"/><path class="cls-1" d="M1688.42,638.34c-8.45,5.73-11.74,12.71-10.12,19.47.27,1.11,3.82.92,3.47-.21-2.02-6.57.99-13.11,7.62-19.02.32-.28-.57-.52-.97-.25Z"/><path class="cls-1" d="M1690.53,643.19c-5.32,5.18-7.24,10.79-5.62,16.43.26.89,3.11.74,2.79-.17-1.91-5.41-.5-10.95,3.86-16.07.22-.26-.76-.45-1.03-.19Z"/><path class="cls-1" d="M1693.86,645.9c-3.71,3.68-6.02,7.57-5.98,11.61,0,.73,2.62.73,2.57,0-.28-3.94.84-7.8,4.19-11.47.18-.2-.59-.34-.78-.15Z"/><path class="cls-1" d="M1698.62,648.46c-3.27,1.61-5.09,3.57-5.32,5.73-.08.73,2.61.73,2.57,0-.1-1.92,1.22-3.7,3.94-5.2.66-.37-.45-.89-1.19-.53Z"/><path class="cls-1" d="M1747.19,641.85c-.97-.34-2.36.26-1.38.61,11.66,4.17,13.14,11.02,14.2,17.18.15.85,3.19.84,3,0-1.44-6.42-3.53-13.51-15.82-17.79Z"/><path class="cls-1" d="M1756.03,654.65c-1.23-2.74-3.27-5.35-6.11-7.85-.33-.29-1.49-.08-1.2.22,2.39,2.5,4.02,5.08,4.81,7.77.24.8,2.86.65,2.5-.15Z"/><path class="cls-1" d="M1750.76,653.2c-1.53-2.05-4.11-3.84-7.7-5.3-.48-.2-1.18.11-.72.32,3.26,1.47,5.53,3.21,6.77,5.19.29.47,2,.26,1.65-.2Z"/><path class="cls-1" d="M1771.66,647.27c-4.17-4.98-11.13-9.5-20.36-12.98-1.44-.54-3.54.36-2.1.93,12.95,5.09,20.81,12.19,22.46,19.68v-7.63Z"/><path class="cls-1" d="M1762.49,645.94c-.35-.42-1.88-.25-1.55.19,2.66,3.53,4.1,7.09,4.95,10.78.16.69,2.64.71,2.49,0-.78-3.75-2.95-7.44-5.89-10.97Z"/><path class="cls-1" d="M1738.11,649.07c-.87-.62-3.03-.07-2.22.57,2.14,1.69,3.36,3.52,3.65,5.45.13.88,3.29.87,3.11,0-.45-2.17-1.94-4.17-4.54-6.02Z"/></svg>