<?xml version="1.0" encoding="UTF-8"?><svg id="cave_grass" xmlns="http://www.w3.org/2000/svg" xmlns:xlink="http://www.w3.org/1999/xlink" viewBox="0 0 2018.06 894"><defs><style>.cls-1{fill:url(#linear-gradient);}.cls-1,.cls-2,.cls-3,.cls-4,.cls-5{stroke-width:0px;}.cls-2{fill:url(#linear-gradient-4);}.cls-3{fill:url(#linear-gradient-2);}.cls-4{fill:url(#linear-gradient-3);}.cls-5{fill:#babc33;}</style><linearGradient id="linear-gradient" x1="1419.56" y1="860.04" x2="1419.56" y2="600.73" gradientTransform="translate(2300.79) rotate(-180) scale(1 -1)" gradientUnits="userSpaceOnUse"><stop offset=".44" stop-color="#8c9341"/><stop offset=".57" stop-color="#919845"/><stop offset=".75" stop-color="#a0a951"/><stop offset=".95" stop-color="#b9c566"/><stop offset="1" stop-color="#c0cd6c"/></linearGradient><linearGradient id="linear-gradient-2" x1="1471.48" y1="419.52" x2="1189.51" y2="967.27" gradientUnits="userSpaceOnUse"><stop offset=".24" stop-color="#e3ca34"/><stop offset=".7" stop-color="#91a23e"/></linearGradient><linearGradient id="linear-gradient-3" x1="1462.65" y1="530.31" x2="1462.65" y2="683.13" gradientUnits="userSpaceOnUse"><stop offset=".33" stop-color="#bbbd4d"/><stop offset=".38" stop-color="#b6b84c"/><stop offset=".44" stop-color="#a8a949"/><stop offset=".51" stop-color="#919146"/><stop offset=".54" stop-color="#838344"/></linearGradient><linearGradient id="linear-gradient-4" x1="1876.64" y1="411.31" x2="1876.64" y2="529.93" gradientTransform="translate(2079.98 44.34) rotate(-179.87) scale(1 -1.14) skewX(-.07)" gradientUnits="userSpaceOnUse"><stop offset=".36" stop-color="#ddc946"/><stop offset=".5" stop-color="#c6bd46"/><stop offset=".8" stop-color="#8ea147"/><stop offset=".85" stop-color="#849c48"/></linearGradient></defs><path class="cls-1" d="M-.3,619.68v137.19h1759.92l3.13-147.79c-718.68-21.41-1518.41,4.42-1763.05,10.6Z"/><path class="cls-3" d="M1623.04,611.73l-1.65-62.7-8.04-5.76c-.11.02-.21.03-.32.04-.13.01-.37-.04-.48,0-.34.13-.64.81-.9,1.08-.25.26-.62.58-.99.52-.42-.07-.82-.51-1.12-.8-.32-.31-.72-.85-1.14-.98-.21-.06-.48,0-.69,0-.4.01-.81.02-1.21.02-.44,0-.88,0-1.31-.03-.28-.02-.55-.19-.69.12-.18.4-.16.95-.19,1.38-.02.2.02.69-.13.86-.19.2-.68,0-.91-.03-.56-.1-1.11-.28-1.61-.56-.9-.5-1.6-1.3-2.16-2.21-.61-.99-1.08-2.07-1.62-3.1-.62-1.19-1.34-2.21-2.3-3.1-1.09-1.01-2.6-1.23-3.83-1.95-.83-.49-1.65-1.32-1.91-2.34-.28-1.08-.08-2.23-.42-3.29-.09-.28-.23-.75-.44-.94-.2-.18-.29-.02-.52.1-.32.16-.67.27-1.02.29-1.4.09-2.57-.99-3.58-1.9-.45-.41-.93-.91-1.49-1.13-.63-.26-1,.21-1.23.81-.2.52-.3,1.08-.39,1.64,0,.03-.02.06-.05.06-2.27.38-3.81-1.12-5.01-3.04-.64-1.04-1.28-2.5-2.17-3.54-1.12-.37-2.23-.74-3.35-1.11-.98.32-1.89,1.05-2.63,1.69-.03.03-.08.01-.1-.03-1.06-2.11-3.27-3.6-5.24-4.52-1.32-.62-4.24-1.8-5.27-.02-.69,1.2-.04,2.94.41,4.09.02.05-.02.1-.06.1-1.81-.21-3.44.45-4.76,1.78-.58.59-1.08,1.26-1.54,1.96-.28.42-.45.65-.32,1.18.13.52.27,1.04.42,1.56.78,2.63,2,5.26,1.93,8.09-.04,1.92-.67,3.74-1.46,5.43-.02.04-.08.07-.11.02-.51-.84-1.12-1.85-2.03-2.21-.85-.34-1.82.03-2.64.31-.03.01-.07,0-.08-.04-.54-1.96-2.02-3.48-3.43-4.74-1.46-1.3-3.05-2.4-4.64-3.51-.51-.36-1-.66-1.31-1.24-.09-.17-.17-.35-.23-.54-.7-.29-1.4-.59-2.1-.88-.09.08-.17.17-.25.26-.31.94-.62,1.87-.92,2.81.04,2.02.8,4.03,1.42,5.9.02.05-.01.1-.06.1-1.05-.2-2.34-.34-3.35.09l-.56,1.7c-.29-.11-.57-.16-.86-.17-.16.44-.22.9-.28,1.37-.06.42-.52.56-.82.84-.82.78-1.35,1.82-2.04,2.71-.17.22-.37.44-.58.64.04.1.08.2.13.29-.05-.09-.1-.18-.15-.27-.36.32-.77.58-1.23.63-.48.05-1-.16-1.4-.43-.82-.56-1.33-1.48-1.97-2.25-1.01.15-1.97.63-2.66,1.47-.26-.08-.52-.16-.78-.25-.02.01-.05.01-.07,0-.02-.01-.04-.03-.05-.04-1.26-.4-2.52-.8-3.78-1.2-.42.28-.69.8-.91,1.3-.31.71-.57,1.46-.99,2.11-.54.83-1.22,1.55-1.84,2.31-.96,1.17-2.08,2.59-2.18,4.23,0,.07-.08.08-.11.04-.99-1.11-2.45-1.49-3.36-2.7-.18-.23-.1-.29-.24-.11-.05.06-.09.21-.12.27-.09.19-.18.38-.28.57-.2.38-.43.76-.69,1.1-.61.77-1.42,1.28-2.37,1.03-1.04-.27-1.91-1.15-2.67-1.91-.94-.93-1.84-1.94-2.9-2.71-1.19-.87-2.53-1.24-3.84-.44-.04.02-.08-.01-.09-.05-.12-.6-.26-1.2-.41-1.8-3.87-.57-7.89.03-11.41,1.88-1.02-1.66-2.05-3.32-3.07-4.99-1.17,1.36-3.61.86-4.24-.87-3,2.01-5.99,4.02-8.99,6.03-1.23-1.74-2.45-3.49-3.68-5.23-.43.28-.89.48-1.36.63-.13-.25-.32-.43-.66-.45-.39-.02-.83.32-1.13.6-.03.03-.08.07-.13.13-.77-.01-1.55-.17-2.28-.45-.08-.08-.16-.15-.24-.23-.59-.65-.92-1.47-1.09-2.41-.32.4-.65.8-1.02,1.14-.49-.49-.92-1.07-1.23-1.72-.57.21-1.13.42-1.7.63-.05-.06-.1-.09-.2-.09-.42,0-.87.2-1.3.25-1.49.16-3.67.08-4.64-1.64-.55-.98-.42-2.2-.1-3.27-1.22.4-2.32.13-3.22-1.04-.52-.67-.95-1.45-1.4-2.19-5.21-1.78-10.06-4.48-14.2-7.95-.71-.59-1.48-1.24-2.3-1.7-.26.11-.51.23-.75.38-.64.39-.97.9-1.07,1.77-.07.63-.16,1.21-.46,1.74-.66,1.19-1.56,1.71-2.68,1.81-.41.04-.97,0-1.28.4-.51.65-.17,2.04-.02,2.78.01.06-.02.11-.06.13-1.3.42-2.67,1.27-4.03,1.22-1.3-.04-1.53-1.51-1.46-2.87-1.42.54-2.94.55-4.33,1.23-.87.42-1.4,1.71-1.46,2.84-.05,1,.29,1.92.37,2.91.07.86-.18,1.6-.48,2.36-.33.83-.74,1.62-1.28,2.25-1.22,1.4-3.06,1.62-4.46.53-.67-.52-1.17-1.32-1.29-2.31-.14-1.24.27-2.45.76-3.5-.77-.11-1.44-.79-2.22-.83-.05,0-.08-.05-.08-.11,0-1.03-.15-2.04-.25-3.06-.02-.21-.04-.43-.06-.64,0-.08.01-.4-.02-.44-.04-.05-.38-.05-.45-.06-.17-.02-.34-.02-.51-.02-.67.02-1.35.24-1.87.79-.63.65-.91,1.62-1.03,2.6-.01.08-.07.12-.13.08-1.53-1.04-3.19-.67-4.85-.66-.48.21-.97.41-1.45.62-1.45-.28-2.91-.56-4.36-.84-.61,2.76-3.2,5.03-6.18,5.43-1.4-1.1-2.92-2.25-4.74-2.38-1.82-.14-3.85,1.3-3.47,2.97-2-2.44-7.11-.77-7.03,2.3-3.12-.97-6.25-1.93-9.37-2.9-1.14,1.57-1.22,3.76-.19,5.41-3.77.56-7.53,1.13-11.3,1.69l-.1,4.28c-3.69,5.33-12.27,4.24-18.68,2.13-6.41-2.1-14.31-4.36-19.33-.09-.69-3.28-4.17-5.85-7.74-5.72-2.56-2.15-5.13-4.29-7.69-6.44-1.97-1.65-4.2-3.4-6.84-3.38-2.64.02-5.15,2.99-3.56,4.96l-7.41-2.89c-.04.22-.06.45-.08.67-.02.22.03.55-.05.74-.06.14-.32.3-.42.41-.1.1-.19.21-.28.33-.26.32-.49.66-.68,1.04-.31.6-.54,1.26-.67,1.95-.29,1.54-.09,3.16.39,4.61.03.08-.01.15-.08.15-2.08.01-4.92.76-4.63,4.1,0,.04,0,.1-.04.12-1.14.61-2.4,1.34-3.66,1.28-1.21-.06-1.88-1.14-2.16-2.52-1.21.29-2.22-.09-3.16-.76-2.34-.33-4.56-1.48-6.06-3.21-3.39,1.96-6.23,4.75-8.15,8.02-4.74-2.58-11.58-.71-14.08,3.84-.91,1.65-1.47,3.72-3.27,4.5-1.72.74-3.73-.1-5.63-.09-3.37.01-5.98,2.63-9,4.03-3.02,1.4-8.03.36-7.76-2.79-4.87-.7-9.88,3.28-9.93,7.9-1.77,1.68-4.36-1.05-6.76-1.78-3.73-1.13-6.61,2.83-9.02,5.75-1.43-1.87-3.86-2.92-5.96-3.47-1.42-.37-4.49-.99-5.18.94-.46,1.3.5,2.9,1.15,3.94.03.04,0,.1-.05.11-1.82.12-3.3,1.07-4.36,2.63-.46.68-.84,1.44-1.16,2.21-.19.46-.33.72-.1,1.22.22.49.46.97.7,1.45,1.24,2.45,2.93,4.81,3.38,7.6.31,1.89.02,3.8-.44,5.61-.01.05-.07.08-.1.04-.66-.73-1.43-1.61-2.4-1.8-.9-.18-1.79.36-2.54.79-.03.02-.07.02-.09-.02-.89-1.82-2.62-3.05-4.24-4.03-1.67-1.01-3.44-1.8-5.2-2.6-.57-.26-1.1-.46-1.52-.98-.12-.15-.23-.32-.33-.48-.74-.16-1.48-.32-2.23-.48-.07.1-.14.2-.2.3-.13.98-.26,1.95-.39,2.93.41,1.98,1.52,3.82,2.47,5.54.02.04,0,.11-.05.11-1.07,0-2.36.09-3.28.7-.08.59-.16,1.18-.24,1.78-.3-.06-.59-.06-.88-.01-.08.46-.05.92-.03,1.4.02.43-.41.65-.65.98-.67.92-.99,2.03-1.51,3.04-.13.25-.28.5-.45.74.06.09.11.18.18.26-.06-.08-.13-.16-.2-.24-.29.38-.66.71-1.09.84-.47.14-1.01.03-1.46-.17-.91-.4-1.58-1.21-2.35-1.86-.97.33-1.82.98-2.35,1.93-.27-.03-.54-.07-.81-.1-.02.02-.05.02-.07.01-.02,0-.04-.02-.06-.03-1.31-.16-2.62-.33-3.94-.49-.37.35-.53.91-.66,1.44-.17.71-.28,1.44-.54,2.11h500.28Z"/><path class="cls-4" d="M1304.67,611.39h315.95v-59.36c-2.86-1.37-5.56-2.99-8.01-4.88-.73-.56-1.51-1.16-2.35-1.6-.26.1-.52.22-.77.36-.65.37-.99.84-1.09,1.67-.07.59-.17,1.14-.47,1.63-.68,1.12-1.6,1.61-2.74,1.71-.42.04-.99,0-1.31.38-.52.61-.17,1.92-.02,2.62.01.05-.02.11-.07.12-1.33.39-2.73,1.19-4.12,1.15-1.33-.04-1.57-1.42-1.5-2.7-1.45.51-3.01.52-4.43,1.16-.89.4-1.43,1.61-1.49,2.68-.05.94.29,1.81.38,2.73.08.81-.18,1.51-.49,2.22-.33.78-.75,1.53-1.31,2.12-1.24,1.32-3.13,1.52-4.56.49-.68-.49-1.2-1.24-1.32-2.18-.15-1.17.27-2.31.78-3.3-.79-.11-1.47-.74-2.27-.78-.05,0-.08-.05-.08-.1,0-.97-.15-1.92-.26-2.88-.02-.2-.04-.4-.06-.61,0-.07.01-.37-.02-.42-.04-.05-.39-.05-.46-.05-.17-.02-.35-.02-.52-.02-.68.02-1.38.23-1.92.74-.64.61-.93,1.52-1.06,2.45-.01.08-.07.12-.13.08-1.57-.98-3.26-.63-4.96-.63-.49.19-.99.39-1.48.58-1.49-.26-2.98-.53-4.46-.79-.63,2.6-3.27,4.74-6.32,5.11-1.43-1.03-2.99-2.11-4.85-2.24-1.86-.13-3.94,1.23-3.55,2.8-2.04-2.3-7.27-.73-7.19,2.17-3.19-.91-6.39-1.82-9.58-2.73-1.17,1.48-1.25,3.54-.2,5.09l-11.56,1.6-.1,4.02c-3.78,5.01-12.55,3.99-19.11,2.01-6.56-1.98-14.63-4.1-19.77-.08-.71-3.09-4.26-5.51-7.91-5.38-2.62-2.02-5.24-4.04-7.86-6.06-2.01-1.55-4.3-3.2-6.99-3.18-2.7.01-5.27,2.81-3.64,4.67l-7.58-2.72c-.04.21-.06.42-.08.63-.02.21.03.52-.05.7-.06.13-.32.28-.43.39-.1.1-.2.2-.29.31-.26.3-.5.63-.7.98-.32.56-.55,1.18-.69,1.84-.3,1.45-.09,2.97.4,4.34.03.07-.01.14-.08.15-2.12.01-5.03.71-4.73,3.86,0,.04,0,.09-.04.11-1.16.57-2.45,1.27-3.75,1.2-1.24-.06-1.92-1.07-2.21-2.37-1.23.27-2.27-.09-3.23-.72-2.4-.31-4.66-1.4-6.19-3.02-3.47,1.84-6.37,4.47-8.34,7.55-4.84-2.42-11.84-.67-14.4,3.61-.93,1.55-1.5,3.51-3.34,4.24-1.76.7-3.81-.09-5.75-.09-2.37,0-4.36,1.17-6.38,2.33-.43-.31-.88-.61-1.35-.85-.26.1-.52.22-.77.36-.65.37-.99.84-1.09,1.67-.02.16-.04.31-.07.46-3.11,1.05-7.75.03-7.48-2.79-4.98-.66-10.1,3.09-10.16,7.43-1.81,1.59-4.46-.99-6.92-1.68-3.69-1.03-6.57,2.44-9,5.16-.27.01-.53.02-.8.02-.49.19-.99.39-1.48.58-1.49-.26-2.98-.53-4.46-.79-.63,2.6-3.27,4.74-6.32,5.11-1.43-1.03-2.99-2.11-4.85-2.24-1.86-.13-3.94,1.23-3.55,2.8-2.04-2.3-7.27-.73-7.19,2.17-3.19-.91-6.39-1.82-9.58-2.73-1.17,1.48-1.25,3.54-.2,5.09l-11.56,1.6-.08,2.96Z"/><path class="cls-2" d="M354.39,618.07H50.99v-70.16l.82.32c-2.12-2.6,1.22-6.53,4.73-6.55,3.51-.02,6.47,2.29,9.09,4.46,3.4,2.83,6.81,5.67,10.21,8.5,4.74-.18,9.36,3.21,10.28,7.55,6.67-5.64,17.16-2.66,25.68.12,8.52,2.78,19.91,4.22,24.82-2.81l.14-5.65c5-.75,10.01-1.49,15.01-2.24-1.37-2.17-1.26-5.07.25-7.14,4.15,1.28,8.3,2.56,12.45,3.83-.1-4.06,6.69-6.27,9.34-3.04-.51-2.2,2.2-4.1,4.61-3.93,2.41.18,4.44,1.7,6.3,3.14,3.96-.53,7.4-3.53,8.21-7.18,1.93.37,3.87.74,5.8,1.11.64-.27,1.28-.54,1.92-.81,2.2,0,4.41-.49,6.44.88.08.05.16,0,.17-.11.16-1.3.54-2.58,1.37-3.43.7-.72,1.6-1.01,2.49-1.04.23,0,.45,0,.68.02.09,0,.55,0,.6.08.05.06.02.48.03.58.02.28.05.57.08.85.14,1.34.32,2.69.34,4.04,0,.08.04.14.11.15,1.04.06,1.92.95,2.95,1.1-.66,1.38-1.21,2.99-1.01,4.63.15,1.31.82,2.37,1.71,3.06,1.86,1.44,4.31,1.15,5.93-.69.72-.83,1.27-1.88,1.7-2.97.4-1,.73-1.98.64-3.12-.11-1.3-.56-2.51-.49-3.84.08-1.5.78-3.2,1.94-3.76,1.85-.89,3.88-.91,5.76-1.62-.09,1.8.22,3.74,1.95,3.79,1.81.06,3.63-1.06,5.35-1.61.06-.02.1-.09.09-.17-.19-.98-.65-2.81.03-3.68.42-.53,1.16-.48,1.71-.53,1.48-.14,2.68-.82,3.56-2.39.39-.7.52-1.47.61-2.29.13-1.16.57-1.82,1.42-2.34.32-.19.65-.36.99-.5,1.09.61,2.11,1.46,3.05,2.24,5.49,4.57,11.94,8.14,18.86,10.49.6.98,1.17,1.99,1.86,2.89,1.2,1.55,2.66,1.91,4.28,1.38-.42,1.4-.6,3.02.14,4.31,1.29,2.26,4.18,2.37,6.16,2.16.56-.06,1.16-.32,1.72-.32.25,0,.27.16.45.4.13.18.28.34.44.48.28.26.59.45.91.61.35.17.71.29,1.06.44.29.13.41.29.69.11.74-.47,1.37-1.24,1.96-1.98.21,1.25.66,2.33,1.44,3.18.79.86,1.74,1.46,2.59,2.24.11.1.22-.09.14-.21-.22-.35.6-1.12.78-1.3.4-.37.98-.83,1.5-.79,1.24.08,1.02,1.75,1.62,2.6.25.35.71.38,1.05.51.46.18.92.37,1.37.57.6.28,1.24.57,1.75,1.07.89.85,1.01,2.33,1.23,3.61.2,1.19.42,2.36.7,3.53.21.9.4,1.69.14,2.6-.13.46-.25.85-.12,1.33.28,1.02,1.14,1.86,1.78,2.56.04.04.08.09.12.13.1.1.24-.11.14-.21-.03-.04-.07-.07-.1-.11-.29-.37.4-.37.65-.38.67-.03,1.34.05,2,.16.7.11,1.41.25,2.09.47.21.07.41.16.61.25.12.05.16.07.13.09-.04.02-.09.03-.13.05-.14.05-.09.32.05.27,1.73-.56,3.06-2.18,4.75-2.85,2.56-1.02,2.64,4.14,2.72,6.06,0,.09.06.16.14.14,1.04-.2,2.19-.03,2.89,1.06.69,1.07.71,2.54.55,3.83,0,.04.02.1.05.12.5.31,1.02.57,1.53.85.27.15.57.3.82.51.27.24.25.33.18.7-.14.84-.21,1.7-.15,2.56.11,1.44.63,2.73,1.5,3.68,1.68,1.84,4.1,2.39,6.23,2.79,1.16.22,2.32.37,3.49.57.5.08,1.01.18,1.51.3.39.1.89.19,1.23.48.56.48.67,1.58.78,2.35.1.7.15,1.53.46,2.14.32.63,1.02.59,1.55.56.93-.04,1.85-.32,2.78-.32.7,0,1.35.35,2.02.61l3.8,4.27c2.94,3.31,6.02,7.9,3.57,11.53-.85,1.26-2.32,2.26-2.49,3.74-.23,1.91,1.76,3.3,3.58,4.26Z"/><path class="cls-5" d="M2.97,792.68c-1.07.85-2.18,1.69-3.27,2.53v1.35c1.35-1.16,2.7-2.33,4-3.52.34-.31-.38-.63-.73-.35Z"/><path class="cls-5" d="M19.05,780.25c-5.94,6.93-12.32,13.55-19.35,19.83v4.72c4.09-3.11,7.87-6.42,11.27-9.97.37-.38-.5-.8-.89-.43-.97.93-1.97,1.85-3,2.75,5.14-5.19,9.7-10.66,13.47-16.37.38-.58-1.03-1.08-1.5-.54Z"/><path class="cls-5" d="M1423.46,798.3s-.09-.01-.14-.02c.09-.05.19-.1.29-.15-.05.06-.1.11-.15.17Z"/></svg>