<?xml version="1.0" encoding="UTF-8"?><svg id="cave_grass" xmlns="http://www.w3.org/2000/svg" xmlns:xlink="http://www.w3.org/1999/xlink" viewBox="0 0 2018.06 894"><defs><style>.cls-1{fill:url(#linear-gradient);}.cls-1,.cls-2,.cls-3,.cls-4,.cls-5,.cls-6,.cls-7,.cls-8,.cls-9,.cls-10,.cls-11,.cls-12,.cls-13,.cls-14,.cls-15,.cls-16,.cls-17{stroke-width:0px;}.cls-2{fill:#614925;}.cls-3{fill:#7a6936;}.cls-4{fill:#788b35;}.cls-5{fill:#4e3c13;}.cls-6{fill:#64772b;}.cls-7{fill:#5a4321;}.cls-8{fill:#422a0d;}.cls-9{fill:#d5b15a;}.cls-10{fill:#b0bc39;}.cls-11{fill:#b3a22d;}.cls-12{fill:#866439;}.cls-13{fill:#b9a454;}.cls-14{fill:#8f8632;}.cls-15{fill:#9fa433;}.cls-16{fill:#7d9037;}.cls-17{fill:#69732c;}</style><linearGradient id="linear-gradient" x1="1608.84" y1="493.83" x2="1856.33" y2="679.82" gradientUnits="userSpaceOnUse"><stop offset=".09" stop-color="#c88a49"/><stop offset=".22" stop-color="#ab783a"/><stop offset=".42" stop-color="#815f25"/><stop offset=".53" stop-color="#72561e"/><stop offset=".75" stop-color="#624116"/></linearGradient></defs><path class="cls-17" d="M1379.9,728.87s24.21,23.38,57.7,31.23c0,0,3.33-5.91,6.04-10.77l-2.3,12.19s38.58,18.39,48.77,10.73c10.37-7.79,4.37-20.78,4.37-20.78,0,0-3.29-16.37-45.82-28.64-58.82-16.97-93.51-15.82-68.76,6.04Z"/><path class="cls-14" d="M1379.09,722.2s86.72,23.05,132.63,52.59l2.13-3.22s-68.08-44.61-134.76-49.37Z"/><path class="cls-16" d="M1358.14,621.27s-.07,32.28,38.4,64.11c0,0,13.39-4.82,23.99-8.68l-19.78,13.5s49.4,70.4,83.78,67.51c34.37-2.89,32.4-33.76,32.4-33.76,0,0,6.8-27.97-59.62-72.33-62.71-41.88-101.24-54.01-99.16-30.36Z"/><path class="cls-15" d="M1364.96,616.21s99.11,72.44,174.27,178.04l9.25-4.81s-99.75-135.51-183.52-173.23Z"/><path class="cls-6" d="M1513.55,627.48c-13.61-18.34-26.2-33.77-37.31-45.88l-9.73,9.57,5.45-14.14c-27.58-28.92-44.93-35.45-44.17-12.49,0,0-1.2,39.28,29.31,82.7,0,0,11.5-1.51,20.78-2.76l-17.78,8.5s29.62,70.79,54.8,76.06c25.45,5.33,31.04-18.8,31.04-18.8,0,0,12.55-22.2-32.41-82.77Z"/><path class="cls-16" d="M1436.25,560.11s91.34,138.87,106.26,209.76l5.06-2.89s-28.53-104.15-111.32-206.86Z"/><path class="cls-4" d="M1544.86,580.98s15.4,29.93,13.24,64.25c0,0-6.62,1.48-12.06,2.67l12.34,1.32s6.48,42.25-3.8,49.79c-10.46,7.68-21.16-1.81-21.16-1.81,0,0-14.72-7.88-14.19-52.14.73-61.22,11.84-94.09,25.63-64.08Z"/><path class="cls-15" d="M1538.71,578.28s-2.96,89.69,12.06,142.17l-3.7,1.11s-23.06-78.06-8.37-143.28Z"/><path class="cls-10" d="M1486.14,661.06s12.71,9.4,21.09,27.77c0,0-4.26.91-7.58,1.61l9.2,1.07s30.51,43.78,22.42,50.44c-7.97,6.56-24.53-10.78-24.53-10.78,0,0-14.39-11.87-22.86-42.54-6.7-24.29-5.83-34.11,2.26-27.56Z"/><path class="cls-11" d="M1483.38,660.89s14.96,42.97,61.74,118.92l-5.24-1.11s-53.86-90.9-56.49-117.8Z"/><polygon class="cls-1" points="1892.73 339.59 1830.94 339.59 1780 351.67 1750.32 366.6 1711.98 384.85 1703.92 414.85 1659.48 426.45 1631.87 495.99 1607.73 525.76 1607.73 547.82 1550.08 687.65 1516 791.65 1892.73 791.65 1892.73 339.59"/><polygon class="cls-13" points="1659.48 426.45 1703.92 414.85 1726.49 421.71 1767.54 414.85 1823.7 481.97 1765.87 429.85 1741.25 437.32 1724.15 458.11 1704.9 429.85 1659.48 426.45"/><polygon class="cls-9" points="1607.73 525.76 1631.87 495.99 1650.76 448.41 1642.39 498.86 1659.48 523.05 1693.51 527.35 1722.86 573.97 1687.65 538.02 1672.91 532.62 1655.87 543.09 1639.52 519.6 1618.92 539.76 1607.18 588.56 1607.73 525.76"/><polygon class="cls-3" points="1703.92 414.85 1711.98 384.85 1726.49 414.85 1767.54 414.85 1726.49 421.71 1703.92 414.85"/><polygon class="cls-12" points="1607.73 547.82 1550.08 687.65 1516 791.65 1580.66 800.37 1563.4 742.86 1542.33 752.34 1561.68 693.42 1599.08 673.85 1570.01 674.09 1607.73 547.82"/><polygon class="cls-2" points="1830.94 339.59 1892.73 339.59 1897.63 409.67 1867.45 355.4 1846.02 349.85 1830.94 339.59"/><polygon class="cls-7" points="1803.89 448.92 1833.98 485.14 1878.36 472.1 1886.1 450.23 1844.99 472.1 1833.98 458.11 1823.7 462 1803.89 448.92"/><polygon class="cls-5" points="1596.57 796.73 1600.93 721.18 1625.05 682.37 1642.79 674.09 1681.17 580.74 1695.81 571.18 1716.11 589.07 1723.98 660.92 1716.11 682.37 1718.3 729.04 1726.63 807.22 1596.57 796.73"/><polygon class="cls-8" points="1596.57 796.73 1600.93 721.18 1625.05 682.37 1642.79 674.09 1681.17 580.74 1695.81 571.18 1716.11 589.07 1722.01 642.92 1700.01 623.54 1661.6 665.45 1634.7 734.15 1640.96 800.37 1596.57 796.73"/></svg>