<?xml version="1.0" encoding="UTF-8"?><svg id="cave_grass" xmlns="http://www.w3.org/2000/svg" viewBox="0 0 2018.06 894"><defs><style>.cls-1{fill:#94a33d;stroke-width:0px;}</style></defs><path class="cls-1" d="M1680.63,837.96c-1.62-.31-3.27-.63-4.96-.96,3.96-7.32,9.04-14.31,15.69-20.59.38-.36-.48-.77-.87-.41-6.92,6.37-12.84,13.17-17.15,20.56-.61-.12-1.21-.23-1.82-.35,7.19-7.94,13.28-16.31,18.59-25.02.41-.67-1.18-1.07-1.59-.41-5.39,8.73-12.14,17.04-19.76,24.9-1.39-.26-2.8-.53-4.23-.8.39.02.78-.07,1.07-.34,8.79-8.34,14.87-17.8,18.15-27.98.16-.49-.91-.78-1.11-.29-3.82,9.65-10.18,18.64-18.64,26.64,5.35-5.78,9.15-12.27,11.53-18.98.27-.76-1.39-1.2-1.71-.44-3.14,7.43-8.06,14.17-14.19,20.47-1.02-.19-2.05-.38-3.08-.57,2.59-3.31,5.17-6.62,7.82-9.9.3-.38-.52-.78-.85-.4-2.89,3.34-5.85,6.65-8.8,9.96-1.34-.25-2.69-.49-4.07-.74,1.4-1.44,2.71-2.92,3.94-4.43,1.75-1.44,3.58-2.83,5.52-4.15.62-.42-.29-1.16-.95-.74-.59.37-1.15.76-1.72,1.14,2.47-3.52,4.51-7.21,6.15-11.05.11-.27-.48-.42-.61-.16-2.21,4.78-5.25,9.34-8.97,13.6-2.26,1.67-4.39,3.42-6.37,5.26-1.96-.36-3.96-.72-5.99-1.08,4.96-3.56,9.45-7.4,13.5-11.5.37-.37-.49-.78-.87-.41-4.32,4.2-9.23,8.04-14.64,11.56-.2-.04-.4-.07-.6-.11,2.6-2.91,5.79-5.48,9.63-7.67.53-.3-.2-.87-.73-.58-4.07,2.28-7.58,4.95-10.44,7.97-2.93-.52-5.93-1.05-8.99-1.59,3.54-4.37,8.24-8.24,13.99-11.3.78-.27,1.57-.53,2.38-.77.35-.11.39-.34.26-.54.84-.39,1.7-.77,2.58-1.12.66-.26.11-1.02-.57-.76-2.11.81-4.13,1.7-6.06,2.66-4.58,1.54-8.89,3.36-12.86,5.48,4.15-5.38,9.61-10.22,16.47-14.29.52-.31-.21-.87-.73-.58-8.38,4.75-15.35,10.71-20.16,17.45-1.18.75-2.32,1.54-3.42,2.35-1.39-.24-2.8-.48-4.22-.72,2.97-3.61,6.65-6.9,11.05-9.78.37-.24-.18-.68-.55-.44-4.64,2.98-8.67,6.3-12.02,9.96-1.06-.18-2.13-.36-3.2-.54,2.5-4.41,6-8.47,10.7-11.97.7-.52-.41-1.41-1.13-.88-4.99,3.67-9.08,7.84-11.87,12.47-.53-.09-1.05-.18-1.58-.27,2.52-5.41,6.38-10.46,11.54-14.88.58-.49-.65-1.07-1.22-.59-5.43,4.56-9.66,9.61-12.55,15.09-.91-.15-1.81-.3-2.73-.46,7.18-10.25,16.26-19.76,27.57-28.1.66-.49-.38-1.32-1.06-.83-11.67,8.43-21.7,17.99-29.21,28.48-1.56-.26-3.12-.52-4.71-.78,4.59-8.06,11.1-15.54,19.47-21.94.63-.48-.39-1.28-1.02-.8-8.7,6.66-15.74,14.15-20.79,22.36-1.45-.24-2.92-.48-4.39-.72,4.05-7.58,9.57-14.67,16.76-21.08.38-.34-.44-.72-.82-.39-7.41,6.38-13.51,13.51-17.86,21.16-1.44-.23-2.9-.47-4.36-.7,6.76-5.99,11.97-12.75,15.45-20.08.43-.9-1.62-1.43-2.07-.53-2.73,5.45-6.48,10.56-11.16,15.22,1.62-3.4,2.84-6.91,3.89-10.45,1.56-2.44,2.99-4.93,4.28-7.47.23-.45-.8-.71-1.03-.27-.66,1.24-1.37,2.46-2.11,3.68.41-1.54.8-3.08,1.2-4.6.03-.12-.28-.17-.31-.05-.62,2.12-1.25,4.24-1.95,6.34-3.85,5.98-8.62,11.65-14.19,16.91-.02,0-.03,0-.05,0,5-6.61,8.39-13.77,10.37-21.24.14-.53-1.25-.76-1.4-.22-1.19,4.41-3.03,8.67-5.43,12.76-.21-.03-.44,0-.65.11-1.4.73-2.74,1.5-4.02,2.31,1.31-3.08,2.18-6.23,2.59-9.47.03-.2-.42-.22-.45-.03-.59,3.6-1.75,7.05-3.5,10.4-1.9,1.29-3.66,2.68-5.25,4.15-1.33-.21-2.67-.42-4.02-.63,1.86-2.85,4.18-5.54,7.01-8.03.58-.51-.66-1.08-1.25-.6-3.07,2.57-5.69,5.35-7.82,8.31-1.84-.29-3.69-.57-5.56-.86,2.67-3.41,6-6.54,10.01-9.34.62-.44-.32-1.19-.97-.76-4.33,2.93-8.06,6.2-11.08,9.78-.67-.1-1.34-.21-2.01-.31,5.53-6.74,12.43-12.89,20.6-18.22.53-.34-.24-.96-.79-.62-8.68,5.43-16.13,11.62-22.19,18.47-2.12-.32-4.25-.64-6.4-.97,4.78-4.83,9.75-9.56,15.04-14.13.41-.35-.46-.75-.87-.42-5.65,4.63-11.12,9.35-16.32,14.23-.77-.11-1.53-.23-2.3-.34,5.44-5.58,11.04-11.08,16.91-16.45.32-.29-.39-.63-.71-.34-6.2,5.43-12.33,10.91-18.27,16.48-1.84-.27-3.69-.55-5.56-.82,6.16-5.4,11.75-11.11,16.78-17.11.52-.62-.86-1.29-1.4-.67-5.38,6.14-11.52,11.93-18.3,17.35-1.36-.2-2.71-.4-4.08-.6,4.78-4.15,9.21-8.51,13.3-13.07.48-.54-.72-1.12-1.22-.59-2.86,3.03-5.94,5.96-9.19,8.79,2.58-3.07,4.85-6.26,6.79-9.56,2.9-2.64,5.71-5.34,8.41-8.1.39-.4-.53-.83-.93-.45-1.79,1.69-3.64,3.35-5.51,5,1.65-3.26,2.99-6.61,3.98-10,.2-.68-1.26-1.09-1.54-.4-2.22,5.49-5.14,10.72-8.73,15.68-4.8,3.89-9.83,7.65-15.05,11.27-1.2-.17-2.39-.34-3.6-.51,8.47-5.95,16.2-12.41,23.13-19.27.45-.44-.58-.93-1.05-.5-7.47,6.98-15.83,13.45-24.94,19.37-.59-.08-1.17-.17-1.76-.25,11.37-6.67,21.91-14.1,27.1-24.03.29-.55-.95-.86-1.26-.32-5.79,10.06-17.51,17.31-29.65,23.82-.82-.11-1.64-.23-2.46-.34,8.52-4.64,16.09-10.14,22.56-16.04.36-.33-.41-.67-.78-.37-7.54,6.11-16.07,11.3-25.33,15.92-.61-.08-1.22-.17-1.83-.25,9.13-4.82,17.73-10.07,24.41-16.59.4-.4-.52-.83-.93-.45-7.01,6.49-15.97,11.62-25.44,16.32,8.84-6.45,16.65-13.57,23.34-21.18.51-.58-.78-1.2-1.31-.63-7.34,7.94-15.93,15.2-25.59,21.77-.96-.13-1.93-.26-2.9-.39,7.8-6.08,14.53-12.8,20.04-20.06.36-.47-.65-.97-1.05-.5-5.45,6.57-11.92,12.67-19.28,18.21,1.69-1.84,3.3-3.7,4.8-5.6,1.85-1.6,3.65-3.24,5.38-4.9.18-.18-.24-.38-.42-.2-1.09,1.01-2.21,2-3.35,2.98,3.48-4.78,6.18-9.81,7.52-15.27.15-.61-1.41-.86-1.58-.25-2.2,8.21-7.8,15.42-14.41,22.18-1.21.88-2.44,1.74-3.69,2.59-1.25-.17-2.5-.33-3.75-.5,5.79-3.9,10.7-8.42,14.5-13.46.43-.57-.78-1.18-1.27-.61-4.37,5.15-9.84,9.76-16.24,13.66-1.29-.17-2.6-.34-3.9-.51,3.97-2.71,7.6-5.66,10.85-8.84.33-.32-.42-.67-.76-.36-3.58,3.27-7.62,6.26-12.02,8.95-1.15-.15-2.32-.3-3.48-.45,1.61-3,3.48-5.91,5.61-8.74,3.28-2.39,6.3-4.91,9.03-7.48.36-.34-.44-.71-.8-.38-1.94,1.72-4,3.31-6.12,4.83-.16-.66-1.51-1.12-2.12-.42-1.11,1.29-2.17,2.6-3.17,3.93-4.15,2.52-8.61,4.77-13.32,6.86-.08,0-.15-.02-.23-.03,1.38-2.43,2.9-4.82,4.57-7.15,5.41-3.76,10.44-7.78,15.08-12.06.63-.58-.76-1.23-1.4-.67-3.07,2.71-6.37,5.28-9.83,7.75,3.92-4.66,8.49-9.06,13.81-13.12.43-.33-.25-.88-.7-.55-7.09,5.23-13.37,11.04-18.48,17.32-3.98,2.57-8.16,4.99-12.51,7.27-1.74-.22-3.48-.43-5.23-.65,10.4-5.96,19.13-13.17,25.71-21.44.32-.41-.55-.84-.91-.44-7.47,8.3-17.05,15.59-28.33,21.44-1.42-.17-2.84-.35-4.26-.52,6.12-5.9,13.17-11.32,21.16-16.07.39-.23-.16-.66-.55-.44-8.51,4.78-16.19,10.14-22.9,16.08,1.52-1.73,3.05-3.46,4.63-5.17,4.7-3.05,9.11-6.3,13.23-9.72.57-.48-.63-1.23-1.24-.77-2.03,1.54-4.13,3.03-6.28,4.48,3.03-3.09,6.15-6.14,9.38-9.13.77-.71-.93-1.5-1.71-.82-5.7,4.96-11.09,10.07-16.17,15.32-1.8,1.06-3.64,2.09-5.5,3.1,6.67-7.3,12.77-14.81,14.08-23.69.05-.32-.64-.35-.71-.05-2.41,9.7-10.32,17.65-18.16,25.56-1.49-.18-2.98-.36-4.48-.53,6.5-4.13,12.21-8.82,16.96-14.02.3-.33-.42-.67-.76-.36-4.27,4-9.03,7.71-14.26,11.08,4.92-4.7,9.15-9.76,12.73-15.11.21-.31-.55-.5-.76-.19-4.46,6.66-10.43,12.76-17.49,18.19-.6-.07-1.2-.14-1.79-.21,1.67-1.98,3.15-4.03,4.46-6.14,2.78-2.03,5.41-4.16,7.86-6.39.47-.43-.57-.92-1.05-.5-1.69,1.49-3.46,2.92-5.31,4.29,1.69-3.13,3.02-6.37,3.96-9.71.15-.53-1.03-.84-1.18-.3-1.29,4.35-3.39,8.48-6.15,12.39-2.98,1.99-6.14,3.84-9.45,5.57-.31-.04-.62-.07-.93-.11,4.49-4.2,8.19-8.79,11.09-13.69.42-.71-1.24-1.12-1.66-.43-.03.06-.07.11-.11.17-6.9,3.8-13.09,8.11-18.45,12.9-1.36-.15-2.72-.31-4.09-.46,2.12-2.6,4.26-5.19,6.44-7.76.41-.48-.67-1.01-1.09-.52-2.33,2.71-4.72,5.4-7.11,8.08-2.59-.29-5.19-.58-7.81-.87,6.51-5.56,13.61-10.77,21.37-15.52.68-.42-.3-1.19-.98-.77-8.19,4.95-15.84,10.29-22.85,16.03-1.67-.18-3.33-.37-5.01-.55,8.63-7.34,17.97-14.24,28.18-20.59,1.16-.72-.49-2.02-1.68-1.32-11.07,6.54-21.36,13.7-30.6,21.47-.78-.08-1.56-.17-2.35-.25,4.65-4.07,8.97-8.32,12.95-12.74.94-.5,1.89-.99,2.86-1.46.2-.1-.04-.35-.26-.26-.59.25-1.16.51-1.74.77.07-.08.15-.16.22-.24.77-.87-1.19-1.81-1.98-.95-1.16,1.26-2.36,2.51-3.58,3.74-5.88,3.03-11.17,6.48-15.81,10.35-.66-.07-1.33-.14-1.99-.21,4.09-3.77,7.74-7.76,10.88-11.96.48-.64-.86-1.32-1.42-.68-3.79,4.32-7.98,8.43-12.62,12.31-1.35-.14-2.71-.28-4.07-.42,5.33-5.29,9.37-11.23,12.12-17.42.23-.51-.9-.8-1.16-.3-3.36,6.39-8.12,12.14-13.94,17.41-1.26-.13-2.53-.26-3.8-.39,5.38-5.4,9.7-11.3,12.93-17.56.31-.6-1.04-.94-1.39-.36-3.72,6.33-8.62,12.21-14.49,17.62-2.28-.23-4.56-.46-6.85-.69,5.38-6.19,11.16-12.16,17.93-17.73.63-.52-.68-1.13-1.31-.63-7.11,5.65-13.87,11.65-19.6,18.06-1.7-.17-3.4-.33-5.1-.5,5.62-7.92,12.89-15.2,21.67-21.62.85-.62-.47-1.69-1.36-1.07-9.42,6.61-17.27,14.14-23.34,22.4-.53-.05-1.06-.1-1.59-.15,5.52-8.7,12.84-16.76,21.76-23.97.6-.49-.66-1.27-1.28-.79-6.57,5.08-12.32,10.6-17.21,16.48,2.41-3.77,4.61-7.61,6.61-11.5.29-.57-1-.9-1.31-.34-3.75,6.81-8.22,13.35-13.29,19.67-1.58-.15-3.17-.3-4.76-.45,2.94-4.29,5.19-8.8,6.75-13.48.32-.18.63-.37.95-.55.84-.47.44-1.2-.31-1.51.35-1.23.66-2.47.92-3.72.08-.41-.83-.45-.93-.06-.31,1.23-.67,2.46-1.08,3.67-.16.03-.31.08-.46.16-7.63,4.09-14.36,8.86-20.11,14.17-1.54-.14-3.07-.28-4.62-.42,7.7-4.54,14.96-9.41,21.73-14.63.77-.59-.43-1.59-1.27-1-7.71,5.43-15.89,10.54-24.52,15.26-.69-.06-1.37-.12-2.06-.18,6.78-5.02,12.69-10.69,17.74-16.35.46-.52-.69-1.07-1.18-.56-4.6,4.77-9.78,9.22-15.5,13.37-1.53,1.11-3.12,2.18-4.74,3.21-.69-.06-1.39-.12-2.08-.18,6.95-5.02,13.05-10.57,18.28-16.58.49-.56-.77-1.16-1.27-.61-5.62,6.23-12.4,11.88-20.06,16.92-.35-.03-.69-.06-1.03-.09,7.87-6.56,13.96-14.08,17.99-22.26.28-.56-.99-.88-1.29-.33-4.55,8.3-11.27,15.83-19.82,22.32-.45-.04-.9-.08-1.35-.11,8.73-7.73,15.12-16.67,18.86-26.27.3-.77-1.41-1.22-1.74-.45-4.17,9.8-11.16,18.72-20.48,26.43-.24-.02-.49-.04-.73-.06,4.33-4.36,7.84-9.11,10.44-14.17.26-.5-.88-.79-1.16-.3-2.95,5.13-6.84,9.92-11.55,14.28-1.51-.13-3.02-.25-4.54-.38,3.54-3.32,6.88-6.74,10.01-10.27.43-.49-.67-1.02-1.11-.53-3.36,3.69-7.01,7.23-10.91,10.63-1.54-.13-3.08-.26-4.62-.38,2.49-2.88,4.7-5.89,6.62-8.98,4.89-3.94,10.32-7.56,16.26-10.8,1.11-.61-.4-1.78-1.52-1.19-4.26,2.22-8.27,4.64-12.03,7.21.28-.54.55-1.09.82-1.63.23-.47-.84-.74-1.08-.28-.62,1.18-1.28,2.35-1.98,3.49-4.97,3.6-9.45,7.51-13.39,11.68-.59-.05-1.18-.1-1.77-.14,2.51-1.99,5.01-3.99,7.53-5.98.5-.39-.53-1.03-1.04-.64-2.89,2.15-5.8,4.3-8.7,6.44-1.19-.09-2.39-.19-3.59-.28,2.22-3.31,4.69-6.53,7.44-9.65.48-.55-.73-1.13-1.25-.6-3.11,3.24-5.94,6.59-8.47,10.06-1.58-.12-3.17-.25-4.76-.37,3.05-2.4,6.22-4.72,9.54-6.95.66-.45-.32-1.23-1-.79-3.75,2.43-7.35,4.96-10.84,7.56-2.8-.21-5.6-.43-8.41-.64,3.17-3.16,6.63-6.17,10.41-8.99.82-.61-.47-1.66-1.32-1.04-4.28,3.09-8.24,6.37-11.85,9.83-2.6-.19-5.2-.38-7.81-.57,3.8-5.19,8.35-10.08,13.71-14.56.49-.41-.54-.89-1.02-.49-5.66,4.64-10.65,9.6-14.89,14.89-1.98-.14-3.97-.28-5.96-.42,4-4.47,7.63-9.1,10.94-13.87.28-.41-.7-.65-.98-.25-3.44,4.88-7.45,9.54-11.88,13.99-.36-.02-.72-.05-1.07-.07,2.34-3.19,4.21-6.55,5.61-10,.18-.46-.81-.71-1.03-.27-1.81,3.59-4.13,6.94-6.86,10.1-1.28-.09-2.55-.18-3.83-.27,2.57-3.12,4.7-6.43,6.34-9.91.25-.54-.95-.85-1.24-.32-1.94,3.57-4.41,6.93-7.35,10.08-1.81-.12-3.62-.25-5.44-.37,2.86-2.24,5.61-4.54,8.23-6.93.36-.32-.41-.67-.78-.37-3.02,2.48-6.19,4.87-9.48,7.17-4.33-.29-8.68-.57-13.04-.84,3.78-2.47,7.73-4.82,11.85-7.03.64-.34-.22-.98-.86-.67-4.83,2.33-9.44,4.84-13.83,7.52-3.14-.2-6.29-.39-9.45-.58,1.74-1.18,3.5-2.34,5.33-3.46.24-.14-.1-.41-.34-.27-1.96,1.19-3.85,2.43-5.7,3.69-2.24-.14-4.49-.27-6.74-.4,4.35-3.6,9.3-6.81,14.69-9.85.61-.34-.12-1.12-.83-.84-6.7,2.66-12.51,6.33-17.39,10.49-.84-.05-1.67-.1-2.51-.15,5.02-4.24,10.47-8.22,16.45-11.84.82-.5-.35-1.42-1.18-.93-6.59,3.89-12.76,8.07-18.37,12.59-2.81-.16-5.63-.32-8.45-.47,6.61-5.39,14.41-10.06,23.18-13.81.72-.31.12-1.16-.64-.86-9.75,3.83-18.35,8.73-25.56,14.51-1.34-.07-2.68-.14-4.03-.22,5.14-4.3,10.51-8.45,16.22-12.42.9-.63-.45-1.72-1.39-1.1-6.44,4.23-12.62,8.67-18.43,13.33-1.69-.09-3.39-.17-5.08-.26,6.52-5.98,12.91-12.03,19.2-18.14.67-.65-.85-1.36-1.54-.73-2.83,2.59-5.69,5.16-8.57,7.73,3.93-4.68,7.43-9.55,10.5-14.6.32-.52-.91-.83-1.24-.32-5.02,7.93-11.41,15.43-18.88,22.36,3.09-3.47,5.6-7.18,7.55-11.13.37-.76-1.35-1.19-1.74-.45-2.88,5.45-7.07,10.48-12.34,14.92-.68-.03-1.37-.07-2.06-.1,3.48-2.82,6.19-6.1,7.75-9.63.45-1.03-1.67-1.52-2.29-.59-2.58,3.83-5.83,7.14-9.95,10-1.19-.06-2.38-.12-3.58-.17,3.29-2.64,6.22-5.5,8.4-8.57.29-.41-.66-.69-1.02-.37-3.51,3.06-6.98,6.02-10.82,8.78-1.32-.06-2.63-.12-3.95-.18,3.41-2.62,6.57-5.4,9.44-8.34.8-.82-1.08-1.71-1.91-.92-3.42,3.25-7.2,6.27-11.31,9.09-1-.05-2.01-.09-3.02-.13,6.04-6.06,11.49-12.4,16.39-18.97.31-.41-.59-.85-.91-.44-5.3,6.76-11.36,13.19-18.04,19.3-1.08-.05-2.16-.1-3.25-.14,2.88-2.4,5.97-4.67,9.27-6.77.76-.48-.33-1.34-1.11-.87-3.89,2.38-7.54,4.88-10.94,7.53-3.17-.13-6.34-.27-9.53-.4,4.13-3.73,8.89-7.12,14.2-10.11.73-.41-.26-1.16-1-.79-6.11,3.11-11.52,6.73-16.17,10.78-2.86-.11-5.72-.23-8.59-.33,8.84-6.81,19.3-12.61,31.02-17.02.81-.31.15-1.22-.69-.93-13.03,4.49-24.63,10.5-34.27,17.8-1.02-.04-2.03-.08-3.05-.11,12.78-9.68,27.51-18.09,43.75-25.01.85-.36.14-1.36-.75-1.01-15.67,6.18-29.88,13.83-42.37,22.68,4.37-4.55,9.37-8.8,15.02-12.65.67-.46-.34-1.26-1.02-.8-7.4,5.01-13.91,10.57-19.31,16.63-1.22-.04-2.44-.08-3.66-.13,6.1-4.91,11.13-10.49,14.89-16.32.51-.79-1.47-1.51-2.04-.74-3.12,4.24-6.8,8.09-10.95,11.66,2.22-3.25,4.05-6.66,5.44-10.2.18-.47-.83-.73-1.06-.27-2.83,5.57-6.64,10.86-11.38,15.7-1.73-.06-3.47-.11-5.2-.17,7.59-6.48,13.95-13.6,19.33-21.19.3-.42-.81-.83-1.12-.4-4.6,6.38-10.34,12.32-16.88,17.8,2.43-2.87,4.73-5.79,6.9-8.76.36-.49-.71-1.02-1.09-.52-3.44,4.49-7.29,8.79-11.46,12.94-1.6-.05-3.22-.1-4.82-.14,3.05-3.25,5.81-6.63,8.28-10.12,1.45-.77,2.93-1.52,4.48-2.23,1.01-.47-.22-1.73-1.27-1.28-.4.17-.79.35-1.18.52,2.14-3.28,4.04-6.65,5.72-10.1.24-.5-.91-.8-1.16-.3-2.01,4-4.47,7.89-7.28,11.63-6.18,2.92-11.93,6.38-16.9,10.29,2-2.51,3.76-5.11,5.31-7.79,2.94-2.06,6.08-4,9.42-5.79.75-.4-.26-1.18-1.02-.8-2.39,1.2-4.69,2.48-6.89,3.82,1.21-2.39,2.25-4.83,3.1-7.33.25-.74-1.39-1.17-1.66-.43-1.29,3.47-3,6.85-5.09,10.1-4.23,2.85-8.06,5.97-11.45,9.31-1.53-.04-3.08-.08-4.61-.11,4.86-6.27,10.61-12.16,17.31-17.62,1.09-.89-1.16-1.92-2.25-1.07-7.28,5.69-13.66,11.92-18.93,18.6-1.49-.04-2.99-.07-4.48-.11,8.13-10.45,18.37-20.06,30.67-28.31.45-.3-.22-.84-.68-.53-12.88,8.52-23.98,18.13-32.79,28.79-.94-.02-1.89-.04-2.84-.06,4.82-7.38,11.05-14.23,18.58-20.43.88-.73-.95-1.57-1.82-.87-8.11,6.39-14.81,13.52-20,21.23-.88-.02-1.76-.04-2.64-.05,4.2-6.27,9.18-12.26,14.94-17.88.5-.49-.64-1.02-1.16-.55-6.34,5.77-11.84,11.91-16.49,18.38-2.22-.04-4.44-.09-6.66-.13,3.39-3.4,6.43-6.95,9.12-10.67.43-.6-.83-1.25-1.34-.64-3.3,3.94-7.02,7.69-11.09,11.25-1.12-.02-2.25-.04-3.37-.06,6.04-5.2,11.43-10.75,16.13-16.61.46-.58-.79-1.19-1.29-.62-5.28,6.11-11.33,11.83-18.04,17.18-2.25-.04-4.51-.07-6.77-.1,9.21-5.98,17.22-12.83,23.6-20.37.38-.44-.59-.91-1-.48-7.49,7.78-16.32,14.76-26.48,20.8-3.04-.04-6.1-.08-9.15-.11,8.88-5,16.97-10.62,24.31-16.73.51-.43-.56-.92-1.07-.51-7.95,6.42-16.99,12.12-26.75,17.2-.8,0-1.59-.02-2.39-.02,1.26-1.18,2.51-2.37,3.73-3.57,11.51-6.21,21.83-13.3,28.94-22.36.55-.7-.99-1.45-1.56-.74-5.57,6.9-13.26,12.61-21.92,17.62,2.67-2.76,5.27-5.54,7.78-8.38.42-.47-.11-.97-.72-1.08.06-.27-.3-.57-.71-.4-12.01,4.99-22.5,11.27-31.02,18.78-1.03,0-2.06-.01-3.1-.02,5.19-5.74,10.96-11.19,17.4-16.3.6-.48-.65-1.25-1.26-.78-6.93,5.37-13.32,11.05-19.05,17.06-1.09,0-2.18,0-3.26-.01,3.58-4.42,7.13-8.85,10.68-13.28.67-.84-1.17-1.73-1.87-.89-3.91,4.71-7.82,9.43-11.68,14.16-1.32,0-2.63-.01-3.95-.01,7.16-6.47,13.31-13.58,18.71-20.65.44-.58-.83-1.2-1.29-.62-4.59,5.79-9.82,11.29-15.55,16.54-1.76,1.61-3.6,3.18-5.48,4.72-1.26,0-2.53,0-3.79,0,8.43-7.12,15.45-14.99,20.78-23.5.4-.63-1.07-.98-1.49-.38-6.07,8.69-13.74,16.72-22.97,23.88-1.67,0-3.35,0-5.02,0,5.99-7.34,13.62-13.96,22.63-19.65.79-.5-.34-1.4-1.16-.91-9.86,5.88-18.2,12.81-24.76,20.57-.67,0-1.34,0-2.01,0,1.52-2.16,3.04-4.31,4.55-6.47.16-.23-.43-.44-.59-.21-1.64,2.23-3.28,4.46-4.92,6.69-2.7,0-5.41.02-8.13.03,5.35-6.67,11.53-13,18.49-18.92.97-.82-1.08-1.77-2.05-.98-7.59,6.2-14.29,12.87-20.08,19.92-1.14,0-2.28.01-3.43.02,7.49-9.57,16.2-18.54,26.76-26.8.89-.7-.94-1.84-1.87-1.15-11.2,8.39-21.32,17.8-29.27,27.98-.67,0-1.33,0-2,.01,6.93-8.31,12.55-17.13,16.88-26.35.22-.46-.83-.73-1.06-.27-4.71,9.39-11.04,18.32-18.71,26.64-1.36.01-2.71.02-4.07.04,6.44-5.75,11.83-12.05,16.04-18.81.57-.91-1.55-1.42-2.14-.55-4.76,7.02-10.83,13.54-18.04,19.4-.28,0-.56,0-.84,0,6.19-5.68,10.97-12.1,14.1-19.01.2-.45-.81-.71-1.03-.27-3.62,7.11-9.04,13.63-15.94,19.31-1.26.01-2.52.03-3.78.05,1.17-2.55,2.49-5.06,4.02-7.52.43-.68-1.17-1.07-1.61-.41-1.74,2.6-3.29,5.26-4.65,7.96-1.72.02-3.43.04-5.15.07,2.42-3.98,5.3-7.82,8.66-11.47.51-.55-.75-1.15-1.27-.61-3.7,3.86-6.95,7.9-9.71,12.1-.81.01-1.63.03-2.44.04,5.18-8.07,12.06-15.53,20.48-22.18.7-.55-.74-1.44-1.47-.9-9.12,6.88-16.6,14.66-22.23,23.13-1.63.03-3.26.05-4.89.08,1.64-2.22,3.28-4.45,4.93-6.67.37-.5-.7-1.04-1.11-.53-1.95,2.41-3.89,4.82-5.84,7.24-2.15.04-4.31.08-6.47.12,6.87-6,12.51-12.68,16.9-19.78.13-.2-.35-.32-.48-.12-4.73,7.34-11.09,14-18.66,19.94-1.55.03-3.11.06-4.66.09,5.1-4.77,9.37-9.96,12.7-15.51.29-.49-.82-.75-1.13-.29-3.91,5.72-8.81,11.04-14.58,15.87-1.64.04-3.28.07-4.92.11,7.76-6.68,14.13-14.14,18.95-22.2.58-.96-1.68-1.52-2.27-.58-4.2,6.73-9.67,13.02-16.17,18.75,4.04-7.79,9.28-15.22,15.98-22.08.44-.45-.61-.94-1.05-.5-8.12,8.21-14.91,17.05-19.64,26.48-.1.08-.21.16-.31.24-2.08.05-4.15.1-6.23.15,1.09-1.22,2.14-2.45,3.1-3.72.49-.64.96-1.3,1.4-1.96,4.7-4.49,8.77-9.32,12.19-14.45.18-.27-.47-.43-.66-.17-2.68,3.93-5.9,7.67-9.55,11.2,1.78-3.65,2.49-7.52,1.05-11.47-.24-.64-1.62-.47-1.45.18,1.75,6.4-2.24,12.33-6.82,17.53-1.31,1.02-2.68,2.01-4.07,2.99-2.95.08-5.9.16-8.86.24,3.16-2.35,6.12-4.82,8.92-7.4.33-.3-.4-.65-.73-.35-3.16,2.81-6.65,5.4-10.4,7.81-2.89.08-5.78.17-8.67.26,3.55-2.92,7.42-5.65,11.64-8.16.53-.32-.2-.88-.75-.59-4.98,2.67-9.58,5.63-13.79,8.84-1.81.06-3.63.12-5.45.18,7.17-6.25,15.8-11.62,25.87-15.83.85-.36.15-1.35-.75-1.01-11.26,4.3-21.31,10.05-29.27,16.97-2.45.08-4.91.17-7.36.26,9.31-7.18,20.14-13.43,32.15-18.35.95-.39.15-1.49-.83-1.11-13.53,5.28-25.58,11.82-35.86,19.62-.56.02-1.12.04-1.68.06,14.6-12.08,32.9-21.91,53.7-28.66.74-.24.15-1.03-.6-.81-19.12,5.57-36.23,13.69-50.41,23.88,2.6-2.91,5.42-5.73,8.45-8.44.62-.55-.74-1.2-1.36-.65-5.15,4.56-9.8,9.34-13.93,14.35-.2.17-.4.34-.61.51-.76.03-1.52.06-2.28.09,4.51-6.14,10-11.91,16.46-17.15.74-.6-.8-1.32-1.54-.73-3.14,2.51-6.09,5.12-8.85,7.82,3.01-4.28,5.82-8.63,8.42-13.05.2-.33-.58-.52-.78-.2-5.19,8.15-11.28,15.96-18.07,23.48-.25.01-.5.02-.75.03,2.3-2.37,4.32-4.86,6.08-7.46.17-.25-.43-.4-.6-.16-1.91,2.73-4.17,5.27-6.75,7.67-.11,0-.23,0-.34.01,8.1-9.26,13.58-19.39,16.84-30.2.16-.52-1-.82-1.16-.3-3.33,11-10.02,21.42-19.01,30.64-.91.04-1.81.08-2.72.12,2.89-2.83,5.37-5.86,7.43-9.05.33-.51-.97-.99-1.33-.48-2.49,3.51-5.54,6.7-9.07,9.65-1.31.06-2.61.11-3.92.17,7.97-7.71,14.66-16.04,20.05-24.83.32-.52-.91-.83-1.24-.32-5.71,9.05-13.02,17.5-21.67,25.27-1.04.05-2.08.09-3.12.14,6.49-5.5,12.2-11.4,17.28-17.63.44-.54-.75-1.11-1.2-.57-5.5,6.58-12.07,12.69-19.35,18.36-1.29.06-2.59.12-3.88.18,6.61-5.93,11.92-12.46,16.01-19.5.34-.58-1.01-.92-1.36-.35-3.68,6.01-8.5,11.62-14.22,16.76,5.59-7.23,9.69-15.01,12.1-23.17.2-.67-1.27-1.07-1.51-.39-1.95,5.42-4.58,10.67-7.87,15.69-.16-.07-.37-.08-.48.07-3.1,3.98-6.69,7.74-10.68,11.28-2.74.14-5.48.28-8.23.42,3.49-4.83,7.98-9.29,13.48-13.12.47-.33-.23-.9-.73-.58-6.26,4.07-11.48,8.69-15.53,13.84-2.14.11-4.27.22-6.41.34,2.44-4.09,5.43-8,9.17-11.69.43-.42-.57-.9-1-.48-3.95,3.85-7.49,7.95-10.35,12.28-1.23.07-2.46.13-3.69.2,3.18-4.76,7.08-9.25,11.62-13.42,3.89-1.89,8.06-3.52,12.48-4.83.74-.22.15-1.01-.59-.79-3.1.89-6.08,1.91-8.94,3.04,3.7-3.09,7.77-5.97,12.21-8.61.96-.57-.39-1.62-1.36-1.07-6.5,3.73-12.32,7.95-17.35,12.56-7.53,3.72-13.97,8.35-19,13.73-.24.01-.48.03-.71.04,4.96-7.57,11.96-14.37,20.94-19.97.58-.36-.26-1.02-.84-.66-8.17,5-15.06,10.89-20.28,17.46,6.41-9.28,16.02-17.4,28.06-23.54.93-.48-.3-1.41-1.23-.97-14.73,6.91-25.96,16.72-32.61,28.03-.99.06-1.98.12-2.97.18,2.81-4.5,6.54-8.67,11.26-12.4.65-.51-.69-1.34-1.36-.84-5.35,3.96-9.69,8.47-12.82,13.42-.41.03-.82.05-1.23.08,5.79-9.19,14.63-17.33,26.16-23.51.65-.35-.23-1.02-.88-.69-12.33,6.37-22.16,14.76-28.43,24.39-.57.04-1.14.07-1.71.11,3-3.74,6.33-7.34,9.97-10.8.68-.65-.83-1.35-1.54-.73-4.29,3.72-8.13,7.63-11.56,11.73-1.76.11-3.52.23-5.28.34,5.41-5.37,11.64-10.31,18.87-14.63.54-.32-.22-.92-.77-.6-7.96,4.57-15.24,9.71-21.38,15.45-1.51.1-3.02.21-4.54.31.8-1.07,1.63-2.12,2.52-3.16,4.59-5.36,10.06-10.28,16.31-14.74.5-.36-.27-.98-.79-.62-7.94,5.45-15.2,11.78-20.81,18.71-2.03.14-4.07.27-6.1.42,6.92-8.72,15.54-16.66,26.21-23.57.87-.56-.39-1.56-1.29-1.01-11.49,7.06-21.5,15.49-28.99,24.87-.12,0-.24.02-.36.03,7.92-12.26,20.18-23.25,35.68-31.14.57-.29-.19-.87-.75-.59-16.93,8.29-30.18,19.08-38.6,31.99-.7.05-1.39.1-2.09.15,1.81-5.38,4.63-10.41,9.02-15.19.37-.41-.53-.84-.93-.45-4.83,4.72-8.72,10.13-10.92,15.84-1.2.09-2.4.18-3.59.27,2.31-5.38,5.29-10.54,9.49-15.51.54-.64-.85-1.32-1.45-.69-4.72,5.02-8.77,10.6-11.46,16.45-1.25.09-2.51.18-3.76.28,3.48-7.94,9.3-15.3,17.12-21.58.6-.48-.63-1.24-1.26-.78-8.83,6.49-15.31,14.18-19.19,22.61-1.06.08-2.12.16-3.19.25,5.37-9.74,12.74-18.81,22.61-26.79.57-.46-.61-1.02-1.18-.56-10.24,8.15-18.78,17.45-24.51,27.59-1.53.12-3.06.24-4.59.36,3.39-6.14,7.76-11.97,13.11-17.4.52-.52-.69-1.1-1.22-.59-5.83,5.64-10.64,11.73-14.35,18.19-1.22.1-2.45.2-3.67.3,5.23-7.48,11.84-14.41,19.99-20.56.54-.41-.32-1.1-.88-.69-8.73,6.42-16.21,13.62-21.98,21.48-.92.08-1.83.15-2.75.22-.88.07-1.76.14-2.64.22,5.29-8.42,12.35-16.26,21.09-23.16.62-.49-.67-1.29-1.3-.8-9.42,7.28-17.22,15.39-23.1,24.23-.6.05-1.21.1-1.81.15,3.18-6.65,6.85-13.17,11.04-19.54.34-.52-.89-.82-1.24-.32-4.54,6.52-8.59,13.22-12.16,20.05-1.25.1-2.51.21-3.76.31,1.96-2.58,3.78-5.2,5.43-7.89,1.59-2.58,3.14-5.2,4.33-7.9.86-1.96,1.39-3.8.05-5.79-.08-.11-.29-.03-.23.08,1.49,2.8-1.07,5.72-2.57,8.16-1.49,2.41-3.1,4.79-4.82,7.12-1.61,2.19-3.33,4.34-5.13,6.46-.94.08-1.86.15-2.8.23,4.72-7.07,8.06-14.56,10.52-22.28.16-.49-.93-.78-1.11-.29-2.82,8.01-7.41,15.63-12.97,22.85-.24.02-.48.04-.72.06,1.15-4.24,1.26-8.65.55-12.98-.03-.16-.42-.15-.42.01.15,4.57-.78,8.91-2.44,13.16-.97.08-1.95.16-2.92.23,1.38-3.97,2.17-8.03,2.24-12.17,0-.32-.66-.36-.71-.05-.73,4.26-1.99,8.4-3.88,12.41-.74.06-1.49.12-2.23.18,2.54-4.59,3.81-9.52,3.71-14.61,0-.49-1.08-.57-1.11-.07-.34,5.28-2.18,10.31-5.41,14.9-1.35.11-2.7.21-4.05.32,4.13-6.29,6.91-13.05,8.38-19.95.12-.54-1.12-.61-1.24-.08-1.69,7.23-5.17,14-10.05,20.26-1.76.14-3.53.28-5.28.42,6.35-8.41,10.11-17.76,11.2-27.47.08-.68-1.45-.77-1.53-.1-1.25,9.93-5.82,19.43-13.02,27.83-1.5.12-2.99.23-4.48.35,5.5-5.89,9.84-12.28,13.07-19.06.13-.27-.49-.43-.63-.16-3.49,6.99-8.55,13.51-14.84,19.41-.12,0-.23.02-.35.03,5.67-7.68,9.63-15.93,11.93-24.6.13-.49-.97-.79-1.11-.29-2.44,8.88-7.1,17.35-13.54,25.09-1.52.12-3.04.23-4.56.35,1.96-2.25,3.77-4.57,5.45-6.95.31-.44-.84-.86-1.16-.42-1.95,2.62-4.17,5.13-6.59,7.55-.88.07-1.75.13-2.63.2,3.45-3.63,6.23-7.59,8.33-11.71.13-.25-.44-.39-.58-.15-2.47,4.41-5.84,8.4-9.91,12.02-2.77.21-5.56.42-8.32.63,2.26-2.3,4.79-4.46,7.56-6.51.69-.51-.33-1.35-1.11-.87-3.69,2.28-6.94,4.84-9.77,7.62-3.38.25-6.75.5-10.1.75,2.41-2.11,5.16-4.06,8.23-5.82,1.03-.59-.38-1.67-1.43-1.12-4.02,2.09-7.6,4.52-10.67,7.22-.69.05-1.38.1-2.07.15,6.4-6.36,14.49-11.88,24.15-16.2,1.17-.52.17-1.94-1.06-1.42-10.86,4.58-20.31,10.73-27.54,17.94-1.24.09-2.48.18-3.72.27,1.46-2.66,3.2-5.23,5.27-7.71.45-.54-.73-1.12-1.22-.59-2.51,2.7-4.7,5.53-6.54,8.48-1.23.09-2.45.17-3.68.26,3.61-4.19,7.7-8.17,12.29-11.87.52-.42-.55-.91-1.07-.51-5.1,3.98-9.75,8.16-13.91,12.57-2.14.15-4.28.3-6.41.45,5.14-5.22,10.76-10.2,16.93-14.88.75-.57-.43-1.54-1.23-.97-7.05,5.02-13.54,10.4-19.38,16.11-3.97.28-7.92.55-11.85.82,5.29-5.53,11.5-10.55,19.78-14.07.79-.34.12-1.28-.7-.94-9.42,3.8-16.58,9.21-22.62,15.25-.63.04-1.25.08-1.87.13,11.72-11.92,27.43-21.85,45.96-28.8,1.06-.4.21-1.58-.9-1.21-20.57,6.85-38.01,17.41-50.56,30.38-.26.02-.51.03-.77.05,4.77-6.15,10.4-11.95,16.89-17.39.71-.59-.77-1.52-1.55-.95-7.37,5.43-13.76,11.52-19.02,18.05,1.62-3.28,3.61-6.46,6-9.52.56-.72-.96-1.48-1.6-.77-3.16,3.49-5.75,7.18-7.8,11.05-4.16.28-8.31.55-12.43.82,8.8-8.09,19.49-15.21,31.62-20.78.68-.31-.15-1.16-.85-.86-13.85,5.97-25.96,13.31-35.88,21.96-2.1.14-4.19.27-6.27.4,5.81-6.27,12.75-12.02,20.66-17.07.95-.61-.4-1.67-1.39-1.1-9.18,5.3-17.62,11.55-24.54,18.5-.7.04-1.39.09-2.09.13,4.82-5.87,10.27-11.48,16.29-16.7.58-.5-.64-1.05-1.22-.59-6.91,5.57-13.14,11.4-18.73,17.52-1.98.12-3.96.25-5.93.37,5.94-8.21,13.68-15.76,22.96-22.33,4.23-2.99,8.77-5.77,13.58-8.31.4-.21-.07-.67-.47-.46-15.81,8.22-28.66,18.94-37.48,31.19-3.11.19-6.19.38-9.28.56,5.53-7.83,12.66-15.08,21.53-21.27.49-.34-.25-.93-.75-.59-9.73,6.57-18.16,13.93-24.69,22.09-.17,0-.33.02-.5.03,2.9-4.14,6.47-8.03,10.69-11.56.23-.19-.22-.46-.45-.27-4.4,3.66-8.15,7.64-11.19,11.89-2.28.14-4.53.27-6.79.4,6.21-6.3,13.09-12.27,20.58-17.85,4.36-3.25,8.93-6.36,13.69-9.34.26-.16-.17-.41-.43-.26-13.25,8.16-25.04,17.41-35.08,27.52-.88.05-1.78.11-2.66.16,5.04-6.76,11.19-13.1,18.4-18.86.32-.26-.34-.67-.68-.42-8.19,5.86-15.22,12.39-20.95,19.47-.94.05-1.86.11-2.8.16,4.83-7.38,10.78-14.39,17.74-20.87.15-.14-.16-.34-.32-.19-7.22,6.56-13.37,13.63-18.4,21.12-3.28.19-6.56.38-9.81.56,2.21-2.86,4.61-5.64,7.26-8.34,6.21-6.32,13.46-12.14,21.59-17.31,4.71-2.99,9.69-5.78,14.93-8.33.12-.06-.01-.19-.14-.13-18.64,8.62-33.96,20.33-44.73,33.91-.07.09-.13.18-.2.26-.43.02-.86.05-1.29.07,3.79-5.86,8.14-11.53,13.27-16.87.54-.57-.75-1.18-1.31-.63-5.74,5.66-10.97,11.53-15.45,17.69-.86.05-1.73.1-2.59.14,4.63-8.53,11.24-16.49,19.56-23.51,3.41-2.88,7.11-5.59,11.05-8.12.34-.22-.23-.55-.57-.34-13.94,8.75-24.7,19.79-31.36,32.05-.74.04-1.49.08-2.24.12,3.29-6.86,7.45-13.47,12.6-19.77.7-.85-1.15-1.76-1.91-.91-5.97,6.58-11.01,13.58-14.89,20.91-1.6.09-3.18.17-4.77.26,3.99-8.31,9.38-16.23,16.5-23.59.44-.45-.6-.94-1.05-.5-7.67,7.48-14.2,15.64-19.05,24.28-1.61.09-3.2.17-4.8.25,1.4-3.06,3-6.08,4.81-9.03.61-1-1.7-1.55-2.34-.6-2.19,3.2-4.13,6.47-5.82,9.81-1.4.07-2.81.15-4.21.22.92-3.42,2.25-6.76,4.04-10.01.46-.84-1.46-1.31-1.94-.5-2.07,3.46-3.72,7.01-4.94,10.66-1,.05-1.99.1-2.99.15.77-2.22,1.25-4.5,1.45-6.84.02-.19-.4-.21-.42-.03-.32,2.4-1.06,4.7-2.11,6.92-1.96.1-3.92.2-5.87.3,2.54-4.89,3.88-10.06,4.28-15.39.02-.28-.61-.32-.64-.04-.49,4.71-2.16,9.22-4.7,13.47,1.18-4.3,1.69-8.71,1.61-13.21-.01-.61-1.37-.7-1.38-.09-.01,5.28-1.22,10.49-3.42,15.47-.55.03-1.1.05-1.65.08,2.13-8.13,1.96-16.56-.46-24.89-.14-.49-1.2-.35-1.08.13,2.06,8.4,1.63,16.83-1.11,24.89-1.94.09-3.88.19-5.81.28,2.16-4.9,3.58-9.97,4.18-15.16.08-.65-1.34-.72-1.46-.09-1.01,5.31-2.86,10.46-5.53,15.39-.76.04-1.5.07-2.25.11,2.15-3.82,2.96-7.93,2.35-12.19-.04-.25-.63-.23-.63.02.07,4.41-1.42,8.57-4.36,12.3-1.19.06-2.38.11-3.56.17.91-1.54,1.72-3.12,2.4-4.73.32-.75-1.36-1.19-1.71-.44-.87,1.84-1.96,3.6-3.22,5.29-1.42.07-2.83.13-4.24.19,2.25-2.49,4.03-5.19,5.21-8.11.2-.49-.79-.72-1.08-.28-2.04,3.06-4.52,5.92-7.47,8.54-3.03.14-6.04.27-9.04.4,1.57-.92,3.14-1.84,4.73-2.75.74-.43-.28-1.23-1.04-.81-2.27,1.24-4.55,2.47-6.84,3.7-2.96.13-5.91.25-8.84.38,3.25-2.71,6.69-5.31,10.36-7.77.87-.58-.42-1.6-1.31-1.02-4.35,2.86-8.51,5.83-12.44,8.94-1.34.06-2.68.11-4.02.17,8.65-7.49,18.98-14.02,30.95-19.09.41-.17.06-.65-.36-.48-12.77,5.29-24.28,11.91-33.76,19.7-.89.04-1.77.07-2.65.11,6.38-5.85,14.06-11.01,22.79-15.27,1.1-.54-.34-1.62-1.43-1.12-9.92,4.49-18.49,10.09-25.49,16.56-.97.04-1.94.08-2.91.12,9.91-9.72,22.16-18.23,36.15-25.25.58-.29-.13-1.04-.76-.76-15.62,6.9-28.95,15.81-39.58,26.17-1.71.07-3.41.13-5.12.19,5.97-7.03,13.59-13.33,22.61-18.65,1.04-.61-.41-1.74-1.47-1.15-10.07,5.59-18.52,12.34-25.06,19.95-.97.04-1.93.07-2.9.1.57-.85,1.15-1.7,1.77-2.54,4.56-6.15,10.25-11.85,16.92-16.97.72-.55-.42-1.48-1.18-.93-8.2,5.94-15.52,12.94-20.89,20.55-.89.03-1.79.07-2.68.1.13-.21.25-.42.38-.63,2.65-4.16,6-8.06,9.87-11.71.73-.69-.89-1.44-1.65-.79-4.53,3.94-8.8,8.44-11.98,13.24-1.17.04-2.32.08-3.48.12,4.35-6.26,9.74-12.13,16.37-17.43.35-.28-.38-.73-.74-.46-7.18,5.43-13.47,11.46-18.41,17.98-1.51.05-3.04.1-4.55.15,2.86-3.95,6.26-7.68,10.33-11.1.39-.33-.43-.71-.82-.39-4.44,3.62-8.4,7.46-11.71,11.56-2.18.07-4.35.14-6.51.21,2.53-4.31,5.95-8.33,10.23-11.97.43-.36-.48-.93-.94-.58-4.95,3.78-8.95,8.02-11.92,12.64-.52.02-1.03.03-1.55.05,1.5-3.05,3.35-6,5.57-8.85.43-.55-.74-1.13-1.22-.59-2.71,3.02-4.99,6.2-6.87,9.51-.65.02-1.29.04-1.93.06,2.77-5.52,6.57-10.72,11.79-15.4.59-.53-.69-1.12-1.29-.62-5.73,4.85-10.46,10.25-13.64,16.11-.3,0-.61.02-.91.03,1.68-3.66,3.68-7.23,6.09-10.68.36-.51-.98-1-1.35-.49-2.67,3.65-5.05,7.39-7.07,11.23-.33,0-.65.02-.98.03,2.17-3.72,3.9-7.58,5.13-11.56.13-.42-.79-.68-.96-.25-1.6,4.11-3.73,8.07-6.36,11.87-1.07.03-2.15.06-3.22.09,2.95-3.94,5.33-8.09,6.99-12.44.19-.49-.85-.76-1.11-.29-2.43,4.48-5.38,8.77-8.91,12.82-1.9.05-3.77.1-5.65.15,4.09-5.75,9.55-10.96,16.37-15.4.96-.63-.43-1.73-1.43-1.12-7.69,4.69-14.05,10.31-18.62,16.63-1.83.05-3.64.09-5.46.14,6.4-7.57,14.46-14.37,24.14-20.13.68-.4-.27-1.15-.97-.76-3.68,2.08-7.15,4.3-10.42,6.66,6.52-5.33,14.02-10.12,22.58-14.22.52-.25-.12-.91-.66-.67-16.59,7.19-30.98,17.3-40.51,29.26-1.81.04-3.6.08-5.39.12,6.53-7.64,15.67-14.23,24.72-20.47.81-.56-.39-1.53-1.25-.98-10.09,6.46-20.3,13.33-27.31,21.54-.75.02-1.51.03-2.25.05,3.52-4.43,7.81-8.55,12.9-12.21.54-.39-.28-1.06-.86-.67-5.78,3.89-10.81,8.21-14.92,12.95-.46,0-.92.02-1.37.03,5.07-7.04,12.58-13.18,22.19-17.46.65-.29.11-1.08-.59-.79-10.81,4.44-19.57,10.66-25.13,18.33-1.12.02-2.24.05-3.35.07,4.89-6.43,11.5-12.16,19.64-16.88.55-.32-.2-.9-.77-.6-9.1,4.72-16.59,10.69-22.01,17.54-1.27.02-2.53.05-3.79.07,7.29-10.33,18.95-19.2,33.42-24.8.23-.09.04-.35-.2-.26-16.06,5.58-28.78,14.27-36.63,25.13-.31,0-.62.01-.93.02,3.23-5.38,7.8-10.31,13.63-14.56.35-.25-.17-.68-.55-.44-6.81,4.24-12.23,9.34-16.01,15.05-.8.01-1.6.03-2.39.04,4.82-6.5,10.61-12.64,17.75-18.03.41-.31-.23-.83-.66-.52-7.87,5.63-14.87,11.77-20.31,18.6-.64.01-1.27.02-1.9.03,2.93-4.68,6.87-8.99,11.76-12.82.36-.28-.36-.72-.74-.46-5.72,3.89-10.35,8.36-13.81,13.32h-.2c2.65-4.94,6.5-9.53,11.51-13.51.54-.43-.58-1.12-1.14-.7-5.68,4.21-10.13,8.98-13.19,14.26-1.43.02-2.86.04-4.28.06,2.96-4.9,6.91-9.45,11.87-13.55.53-.44-.58-1.13-1.14-.7-5.67,4.24-10.3,9.05-13.72,14.29-1.27.02-2.55.03-3.81.05,4.42-4.23,8.44-8.67,12.24-13.22.26-.32-.44-.66-.71-.34-4.1,4.79-8.81,9.28-13.89,13.59-1.55.02-3.09.03-4.63.05,5.07-4.3,9.81-8.79,14.19-13.47.51-.55-.73-1.14-1.27-.61-4.94,4.93-10.3,9.63-16.02,14.11-.41,0-.81,0-1.22.01,5.73-4.25,10.94-8.82,15.75-13.71.4-.41-.54-.86-.96-.46-5.33,5.12-11.5,9.87-18.24,14.2-1.53.01-3.06.03-4.57.04,6.11-4.96,11.69-10.22,16.8-15.75.21-.23-.31-.48-.53-.26-5.6,5.71-11.95,11.05-18.86,16.03-1.09,0-2.17.01-3.26.02,9.15-8.12,16.72-17.05,23.07-26.48.38-.56-.99-.91-1.36-.35-6.56,9.74-15.26,18.68-25.25,26.85-2.33.01-4.62.02-6.92.03,5.77-3.54,11.34-7.24,16.68-11.09.6-.43-.31-1.17-.95-.74-5.65,3.83-11.55,7.48-17.64,10.97v85.9h1689.4l3.29-51.74c-.41-.08-.84-.17-1.26-.25.45-.86.93-1.71,1.45-2.55l.09-1.37c-.85,1.23-1.64,2.48-2.36,3.75-.46-.09-.92-.18-1.39-.27,1.55-2.7,2.9-5.45,4.06-8.25l.29-4.5.23-3.47h0c-5.16,4.45-9.51,9.36-12.86,14.6ZM656,772.76c3.24-3.5,7.11-6.71,11.49-9.55-2.82,2.97-5.34,6.09-7.53,9.32-1.32.07-2.64.15-3.96.23ZM689.08,771c-.19,0-.38.02-.57.03,2.07-2.03,4.02-4.12,5.85-6.27-1.64,2.13-3.4,4.21-5.28,6.24ZM921.12,766.21c7.52-6.91,16.72-12.93,27.3-17.6-4.03,4.24-8.23,8.4-12.59,12.48-3.49,1.79-7.08,3.5-10.71,5.15-1.33-.01-2.67-.02-4-.03ZM1007.11,767.66c-.34,0-.68-.02-1.02-.03,1.62-1.65,3.35-3.24,5.18-4.78-1.29,1.64-2.68,3.25-4.16,4.81ZM1017.74,767.96c-1.16-.03-2.31-.07-3.47-.1,3.3-2.79,6.92-5.4,10.92-7.79-2.29,2.72-4.78,5.35-7.45,7.89ZM1248.96,780.71c1.58-1.69,3.25-3.34,5.01-4.95-1.37,1.71-2.83,3.38-4.38,5-.21-.02-.42-.03-.63-.05ZM1298.16,784.97c4.58-4.23,9.8-8.1,15.63-11.56-1.77,4.3-4.15,8.42-7.1,12.35-2.83-.27-5.67-.53-8.53-.79ZM1359.24,791.02c3.26-2.93,6.87-5.68,10.79-8.2-2.95,2.86-6.05,5.65-9.3,8.36-.49-.05-.99-.1-1.49-.16ZM1393.69,794.8c4.59-4.43,9.82-8.52,15.71-12.17-2.94,4.58-6.69,8.81-11.16,12.69-1.51-.17-3.02-.35-4.55-.52ZM1404.28,796.02c1.5-.87,2.97-1.76,4.39-2.69-.82.98-1.67,1.95-2.58,2.9-.6-.07-1.2-.14-1.81-.21ZM1448.91,801.45c-.96-.12-1.92-.24-2.88-.36,1.74-1.01,3.46-2.04,5.13-3.11-.79,1.14-1.53,2.3-2.25,3.47ZM1455.57,802.3c2.52-1.27,4.95-2.65,7.28-4.1-1.03,1.53-1.99,3.09-2.87,4.67-1.46-.19-2.93-.38-4.4-.57ZM1517.72,810.77c-.54-.08-1.07-.16-1.62-.23,2.4-1.76,4.75-3.55,7.03-5.39-1.7,1.92-3.5,3.79-5.42,5.62ZM1568.77,818.45c.81-.79,1.68-1.56,2.58-2.29.11-.03.21-.09.26-.19,0-.01.01-.03.02-.04,1.48-1.18,3.09-2.3,4.82-3.34-1.39,2.17-2.94,4.28-4.63,6.34-1.02-.16-2.03-.32-3.06-.48ZM1579,820.08c-.85-.14-1.7-.27-2.56-.41,3.82-3.93,7.21-8.05,10.16-12.34-1.47,3.77-3.24,7.46-5.51,10.99-.68.6-1.38,1.18-2.09,1.76ZM1625.8,827.9c-.44-.08-.88-.15-1.32-.23.46-.81.94-1.61,1.45-2.4,2.65-1.8,5.52-3.45,8.58-4.93-3.36,2.25-6.29,4.78-8.71,7.56ZM1662.46,834.5c.24-.24.49-.48.73-.73-.17.41.21.81.73,1-.48-.09-.98-.18-1.46-.27ZM1686.27,839.06c-.77-.15-1.56-.31-2.35-.46,2.11-3.43,4.6-6.71,7.48-9.83-1.47,3.48-3.2,6.91-5.13,10.29Z"/></svg>