<?xml version="1.0" encoding="UTF-8"?><svg id="wall" xmlns="http://www.w3.org/2000/svg" viewBox="0 0 2018.06 894"><defs><style>.cls-1{fill:#916029;}.cls-2{fill:#6f4b20;}.cls-3{fill:#472300;}.cls-4{fill:#533408;}</style></defs><path class="cls-2" d="m2016.7,624.21l-274.58-21.13,49.36,39.5,13.7,30.42-3.92,35.71-40.13,11.2-28.39,9.43,6.85,21.16s-50.99,81.23-5.89,75.05c66.8-9.15,272.4-4.89,272.4-4.89,0,0,4.07.1,10.59.1v-196.55Z"/><path class="cls-4" d="m1835.23,790.69c16.89,1.1,33.81,1.71,50.7,2.8,15.91,1.03,31.43,3.57,46.86,7.85,5.63,1.56,10.89,3.83,15.91,6.98,6.68,4.18,13.48,7.96,20.55,11.33,3.57,1.7,7.17,3.33,10.77,4.97-34.63,3.95-217.11,14.36-256.76-11.5-8.57-5.59,7.3-34.32,17.17-48.32,5.24.41,89.55,25.54,94.79,25.89Z"/><path class="cls-4" d="m2016.7,624.21l-274.58-21.13,49.36,39.5,13.7,30.42-1.01,9.18c8.71-8.13,17.57-16.42,29.16-18.47,8.66-1.53,19.12-.1,26.85,4.47,7.25,4.28,10.88,12.96,18.28,17.03,4.84,2.66,10.16,3.19,15.42,4.28,3.62.75,6.86,2.01,9.83,3.93,3.35-11.85,6.3-28,18.61-30.21,8.72-1.56,18.09,3.82,24.38,9.82,5.12,4.88,8.14,11.25,15.1,13.37,5.82,1.78,12.21,1.83,18.22,2.07,6.8.27,13.61,0,20.4.29,5.57.24,11.05,1.34,16.28,3.24v-67.8Z"/><polygon class="cls-3" points="2016.7 682.2 2007.76 676.14 2016.7 669.43 2016.7 624.11 1742.12 603.08 1793.12 642.58 1806.83 673 1802.91 708.72 1817.59 673 1806.83 648.15 1817.59 648.15 1824.44 659.44 1833.98 642.58 1882.87 648.15 1897.72 673 1897.72 708.72 1886.1 745.26 1910.54 708.72 1918.82 674.17 1944.92 659.44 1977.02 668.81 1993.82 696.62 1964.75 754.68 2013.77 708.72 2016.7 709.47 2016.7 682.2"/><path class="cls-2" d="m2016.7,191.98l-185.35,16.81,15.68,23.62,3.8,13.96,20.35,21.64-5.22,12.57,12.4,19.55c9.14,23.04,0,114.03,0,114.03l-24.15,36.07,10.44,34.91h-9.79l-4.03,11.07-16.85,6.8v31l-22.19,38.4,11.09,10.7,193.81,8.4V191.98Z"/><path class="cls-4" d="m2016.7,191.55l-56.19,5.1c7.42,1.85,14.78,4,22.09,6.24,4.82,1.48,9.63,3.03,14.45,4.52,4.29,1.32,9.24.77,13.32,2.59,2.63,1.17,4.68,3.07,6.32,5.35v-23.79Z"/><path class="cls-4" d="m1968.45,588.99l48.25,2.09v-78.99c-13.59,10.37-31.31,12.07-46.52,19.16,4.17,6.61,8.44,13.56,10.31,21.23,1.87,7.66-.93,15.56-4.1,22.34-2.29,4.89-4.98,9.61-7.95,14.17Z"/><path class="cls-4" d="m2016.7,389.02c-.46-.03-.72-.04-.72-.04l.72-.7v-127.56c-4.8,2.54-10.47,2.63-15.79,3.68,2.63,6.41,6.81,12.21,10.05,18.19.64,1.17.63,3.14-.21,4.22-5.43,7.01-11.68,13.24-17.55,19.82-5.51,6.18-12.3,13.24-14.85,21.57-2.89,9.43.89,19.96,1.03,29.55.14,10.06-3.58,18.18-8.09,26.66-1.81,3.4-4.11,7.14-4.85,11.05-.14.72.27,3.2.27,4.36.24.03.47.05.62.07,7.68,1.08,12.03,9.84,16.09,16.07,8.49,13.02,21.16,32.08,12.48,48.14-.96,1.78-2.22,3.35-3.54,4.84-.32.36-.99,1.11-1.11,1.21-.11.09-.2.27-.25.38.11,1.15,1.18,3.06,1.81,4.22,1.38,2.54,3.04,4.71,5.05,6.7,5.7,5.6,12.84,9.29,18.83,14.48v-106.89Z"/><path class="cls-3" d="m2016.7,183.96c-77.26,5.91-185.35,24.84-185.35,24.84l15.68,23.62,3.8,13.96,20.35,21.64-5.22,12.57,18.27-12.57-4.57-16.06,19.58-1.4,9.14,10.11-18.92,8.04,24.8,2.79,50.25,14.66,3.26,13.26,5.22-16.06-28.06-11.87-8.48-19.55-16.31-11.92,16.97-9.73,26.76-16.06,36.54,4.95,15.59,8.1v27.44l-22.12,5.92,22.12,10.84.72,2.02v-89.58Z"/><polygon class="cls-3" points="2016.7 298.01 1996.47 335.75 2016.7 310.24 2016.7 298.01"/><path class="cls-1" d="m1776.78,0c8.55,20.66,55.05,52.53,54.52,65.46-.98,24.08,37.19,127.94,37.19,127.94l148.21-15.49V0h-239.92Z"/><path class="cls-1" d="m2016.7,151.64c-51.02,3.41-151.15,30.71-151.15,30.71,0,0-52.88,22.01-27.21,33.31,24.89,10.95-5.87,27.93,46.99,23.74,52.86-4.19,29.86-32.5,86.93-35.03,14.17-.63,29.59-1.87,44.45-3.54v-49.18Z"/><path class="cls-2" d="m2016.7,153.17c-38.3,2.61-100.72,16.15-135.86,24.33-8.53,5.2-17.89,9.24-25.21,16.11-3.12,2.93-6,6.76-4.26,11.1,2.18,5.47,8.55,8.9,13.42,11.63,1.59.89,3.2,1.74,4.91,2.36,1.37.5,1.23.77,2.13.2,3.37-2.13,5.91-6.58,7.5-10.11,1.23-2.72,4.94-4.09,7.17-1.48,2.28,2.68,4.36,6.85,7.22,8.96.1.07.21.13.29.18.23-.05.68-.16.89-.25,2.21-1,4.17-2.5,6.07-3.98,8.12-6.31,15.22-13.98,25.23-17.37,22.48-7.62,46.58-10.76,70.17-12.59,6.76-.53,13.55-.8,20.34-1.04v-28.05Z"/><polygon class="cls-3" points="2016.7 392.89 2015.98 389.4 2016.7 388.03 2016.7 364.37 2004.31 380.84 2010.83 401.78 2004.31 407.65 2015.98 421.71 2016.7 423.24 2016.7 392.89"/><polygon class="cls-3" points="2016.7 507.31 1980.16 513.07 1944.92 476.76 1914.9 489.46 1870.53 471.18 1854.21 450.23 1864.65 485.14 1930.56 503.02 1987.34 529.82 2016.7 518.25 2016.7 507.31"/><polygon class="cls-3" points="1854.87 485.14 1850.84 496.22 1860.74 503.02 1865.31 517.26 1914.9 539.76 1869.22 512.45 1854.87 485.14"/><polygon class="cls-3" points="1833.98 503.02 1833.98 534.01 1850.84 534.01 1866.61 543.09 1854.21 525.63 1842.47 523.05 1833.98 503.02"/><polygon class="cls-3" points="1811.8 572.41 1822.89 583.11 1960.4 589.07 1900.55 572.41 1850.84 575.2 1811.8 572.41"/><polygon class="cls-3" points="1990.6 539.76 2015.98 560.52 2015.98 578.15 2015.98 591.48 1971.04 589.53 2004.31 574.5 1993.51 564.12 1999.74 554.26 1990.6 539.76"/><path class="cls-3" d="m1878.36,414.16s6.3-79.56,2.5-103.42l-2.5-10.6,7.74,9.08,28.8-2.79-21.53,12.57-4.57,27.23,1.96,31.91-7.89,16.4,24.2,24.83,22.19,26.03-37.85-31.23h-13.05Z"/><polygon class="cls-3" points="1988.64 349.85 1973.63 372.76 1944.92 393.09 1929.26 437.32 1964.75 419.36 2004.31 407.65 1987.34 401.78 1978.2 391.32 1988.64 349.85"/><polygon class="cls-4" points="2016.7 154.11 2016.7 116.52 2004.31 116.52 1944.92 148.64 1924.04 147.94 1944.92 155.62 1960.51 152.46 2004.31 138.16 2015.98 146.54 2004.95 152.73 2016.7 154.11"/><path class="cls-4" d="m2016.7,49.56V0h-82.23l6.54,9.71,18.19-6.98,24.22,9.77-9.14,23.74-41.11-3.33-9.14,25.67,8.48,47.64v-44.15l12.4-15.36,37.85,16.76,16.31,18.42-22.07,21.38,27.29-11.42,12.39,1.06v-15.42c-4.95-4.2-7.96-8.78-6.62-13.38,0,0,2.57-5.84,6.62-14.54Z"/><polygon class="cls-4" points="1865.55 182.35 1855.08 137.01 1866.61 159.68 1890.1 159.68 1932.93 166.13 1889.45 177.26 1860.57 189.56 1865.55 182.35"/><path class="cls-3" d="m2004.28,0l-15.64,40.09h-23.89l28.12,11.5,16.57,20.34s5.19-35.55-.48-71.93h-4.68Z"/><polygon class="cls-3" points="2004.03 0 1973.91 0 1989.95 3.42 2004.03 0"/><polygon class="cls-2" points="2004.31 116.52 1944.92 139.56 1914.9 137.01 1898.59 147.24 1869.87 133.49 1855.08 106.21 1860.22 55.78 1929.26 30.65 1919.47 48.8 1903.81 48.8 1889.45 64.86 1869.87 63.46 1886.1 113.73 1919.47 113.03 1944.92 130.49 2004.31 116.52"/><path class="cls-2" d="m1865.51,0c-2.32,11.44-3.61,24.69-2.16,35.54,0,0,8.3,9.77,22.75-16.06,0,0,3.57-9.29,5.1-19.48h-25.69Z"/><path class="cls-1" d="m1941.66,285.47c3.26,0,18.85,4.89,18.85,4.89l4.24,18.15v51.45l-23.09,23.18-17.62,44.17,8.9-49.19,19.34-21.73,6.93-40.2-17.54-5.59-37.85,7.68,41.11-18.15-30.02-22.34,26.76,7.68Z"/><path class="cls-1" d="m2007.57,503.02c2.72-1.49-24.8-1.12-24.8-1.12l-33.35-44.68-20.16-2.46-22.14,10.14-46.91-14.66,12.27,16.76,34.64,15.36,29.97-13.96,43.07,38.4s21.53-.55,27.41-3.77Z"/><path class="cls-1" d="m1918.82,421.71c-.66-1.5-20.24-48.95-20.24-48.95l-6.71,18.56,26.94,30.39Z"/><path class="cls-1" d="m1948.47,572.41c-3.13-3.83-48.29-11.89-48.29-11.89l-26.76-31.4-14.79-12.57h-8.7l-3.92-9.77v12.57l11.75,6.28,20.88,30.72-32.63,16.06,51.54-6.79s60.05,17.96,50.91,6.79Z"/><path class="cls-1" d="m1924.04,298.04c-3.92,0-37.94,6.98-37.94,6.98l-3.23-6.98h41.17Z"/><polygon class="cls-1" points="1932.93 548.67 1888.15 516.56 1914.9 529.88 1932.93 548.67"/><path class="cls-4" d="m2016.7,582.64l-175.7-1.9-23.55,2.03-62.21,9.37s-39.87,6.61,14.95,20.97l26.91,20.59h92.76l124.2,14.44s.95-.03,2.63-.09v-65.42Z"/><path class="cls-1" d="m2016.7,597.69l-.72-.08-42.59-16.87-43.69,2.37-117.9,8.37c-99.72,7.08,8.73,28.61,8.73,28.61,0,0,32.3-5.73,112.4,9.88,40.24,7.84,64.04,8.36,83.77,6.65v-38.94Z"/><path class="cls-2" d="m2016.7,597.68l-.72-.08-37.44-14.83c1.35,1.54,2.61,3.13,3.77,4.77,6.06,8.58,9.42,21.1-.26,28.45-4.8,3.65-10.73,4.25-16.46,4.18-6.1-.08-12.09-.41-18.2-.08-5.19.28-10.67.61-15.45,3.01-2.68,1.35-4.96,3.23-7.07,5.34,2.63.49,5.31.99,8.06,1.53,40.24,7.84,64.04,8.36,83.77,6.65v-38.94Z"/><path class="cls-3" d="m2016.7,815.36l-49.92-9.37-14.51-18.85,47.38-7.33-6.14-36.65-.64,28.75-28.12,4.76v-14.66c-2.29,3.14-30.76,27.23-30.76,27.23,0,0-41.23-9.42-42.1-6.28-.88,3.14-63.53,7.84-63.53,7.84l57.74,4.73,38.43,4.19,46.51,25.84,45.66-3.37v-6.81Z"/><path class="cls-1" d="m1982.01,704.54c.02-.12-27.46,54.33-27.46,54.33,0,0-21.41,20.94-24.86,19.9-3.45-1.05-37.81-10.98-37.81-10.98l-31.67,4.12-56.33-56.86,17.62-35.77,2.94,25.25,30.64,38.63,7.66-14.12,29.15-20.33-13.52,23.54-18.14,23.47,27.93,2.09,40.43,9.97s14.07-26.72,9.78-29.86-23.46-22.87-23.46-22.87l9.14-35.77.49,25.25,27.74,27.72,29.74-27.72Z"/><path class="cls-1" d="m1796.06,720.31l-63.31,9.02,10.54,21.77s84.78-5.47,52.76-30.79Z"/><path class="cls-1" d="m2016.7,770.78v-20.99c-11.5-5.66-23.19-11.86-23.19-11.86l10.8,17.8v16.18l12.39-1.13Z"/><path class="cls-4" d="m2016.7,153.45c-8.94-.58-19.75-.4-30.63,1.92-26.28,5.61-96.62,21.89-96.62,21.89,0,0-23.94,6.86-33.83,16.34,0,0-5.98,10.35,32.52-4.05,38.5-14.39,48.94-14.37,48.94-14.37,0,0-17.62,10.62-22.19,18.22-4.57,7.6,31.86-12.52,31.86-12.52,0,0,40.73-2.39,69.94-7.37v-20.05Z"/><path class="cls-2" d="m1955.36,581.72l-82.66-.63s-84.91,2.37-100.99,17.42c0,0,198.08-10.87,183.65-16.78Z"/><path class="cls-4" d="m1841.24,54.4l-29.45-14.55,39.04-19.23,7.48-20.61h-310.76l9.54,15.99v21.36l29.72,21.38,36.45-14.11,49.99,27.32,77.77-13.2,33.18,28.52,35.09,5.79s33.26,54.64,34.47,58.25l-14.81-51.61,2.28-45.28Z"/><polygon class="cls-2" points="1825.29 0 1766.8 0 1803.67 32 1767.06 44.61 1811.8 58.73 1800.8 44.61 1826.79 14.71 1825.29 0"/><path class="cls-2" d="m1685.21,39.54l-29.58-39.54h-24.66l54.24,49.14,83.51-18.84c-1.66-1.87-83.51,9.24-83.51,9.24Z"/><polygon class="cls-3" points="1851.66 147.24 1819.3 93.04 1784.21 87.24 1751.02 58.73 1757.66 39.91 1793.65 30.65 1762.08 44.61 1765.4 58.47 1826.79 75.53 1851.66 147.24"/><path class="cls-3" d="m1862.74,49.14c-1.66-.18-18.8,9.59-18.8,9.59l-32.14-18.89,34.35,9.3h16.59Z"/><polygon class="cls-3" points="1673.26 71.93 1623.27 44.61 1586.82 58.73 1570.73 37.35 1582.89 9.12 1584.55 37.35 1630.63 27.23 1652.03 40.52 1666.41 39.84 1683.55 53.19 1727.28 44.61 1681.89 62.85 1673.26 71.93"/><path class="cls-3" d="m1710,0h-37.52l20.47,13.73,9.98,14.1s68-5.43,70.22-5.14l-60.28-8.96-2.87-13.73Z"/><polygon class="cls-3" points="1547.64 0 1557.1 15.99 1576.26 1.32 1577 0 1547.64 0"/><polygon class="cls-2" points="1580.7 0 1557.1 15.99 1557.1 37.35 1584.55 4.89 1590.64 13.73 1586.82 27.83 1599.48 13.73 1592.55 0 1580.7 0"/></svg>