<?xml version="1.0" encoding="UTF-8"?><svg id="wall" xmlns="http://www.w3.org/2000/svg" viewBox="0 0 2018.06 894"><defs><style>.cls-1{fill:#916029;}.cls-2{fill:#6f4b20;}.cls-3{fill:#472300;}.cls-4{fill:#533408;}</style></defs><polygon class="cls-4" points="160.64 550.54 160.64 524.32 129.52 478.05 135.63 445.65 133.6 401.33 152.43 323.46 178.94 304.72 180.03 270.62 166.22 247.49 180.03 218.19 191.8 212.22 212.96 202.77 -.3 175.68 -.3 652.93 189.67 634.19 205.99 592.25 202.04 562.36 160.64 550.54"/><path class="cls-2" d="m186.6,207.55l26.36-5.82-121.43-15.42c-6.61,8.97-12.09,20.41-17.2,30.82-7.1,14.46-13.62,29.55-20.7,44.04,11.74,8.23,24.25,14.06,36.77,18.83,1.72.65,2.55,2.98,2.33,5.51-.59,6.76-2.6,12.9-4.02,19.31-1.38,6.23-2.22,12.68,1.04,17.9,1.08,1.73,1.47,4.68.23,6.53-4.92,7.32-10.64,13.08-16.11,19.33,4.92,4.09,9.92,8.54,13.67,14.7,8.87,14.56,7.19,35.63,11.59,53.07,1.57,6.22,3.52,7.96,7.52,9.05,5.88,1.59,11.5,2.89,17.13,6.14,2.04,1.18,1.87,5.06.87,7.21-6.5,14.03-16.71,23.55-26.52,31.54-7.95,6.48-16.21,12-24.32,17.98,1.97.37,3.96.54,5.87.71,5.51.48,11.03.6,16.53,1.32,9.73,1.26,20.52,4.75,24.98,19.46.41,1.36.09,3.54-.63,4.56-13.71,19.44-23.68,43.95-34.09,67.46,18.14-2.07,35.77-11.66,54.09-10.41,1.68.12,3.09,1.7,3.21,4.38.74,16.47,8.9,31.61,15.51,43.86,2.9,5.37,5.95,10.54,9.03,15.66l21.34-2.1,16.31-41.94-3.95-29.89-41.4-11.82v-26.22l-31.12-46.26,6.12-32.4-2.04-44.33,18.84-77.87,26.5-18.74,1.09-34.09-13.8-23.13,13.8-29.3,6.58-9.6Z"/><path class="cls-3" d="m-.3,173.2v37.59l9.02,2.09,11.24,20.82s-3.06-28.56,0-25.27c3.06,3.29,22.94,0,22.94,0l11.47,44.93-20.72,27.36,2.36,69.8,4.31-57.83,21.69-25.45,14.2-16.19,26.33-1.16-18.37-13.88,7.42-12.72,26.25,1.16v19.66l19.88,8.1-26.29,41.64,40.92-25.45,21.12,5.78v18.51l-27.34,27.76-29.06-1.16-19,31.23-17.88,9.91,17.88,71.05,1.56-47.67,25.86-37.91,6.12,21.98,1.69,36.52,20.69-80.93,26.5-18.74,1.09-34.09-13.8-23.13,13.8-29.3,17.63-3.86,13.75-12.6L-.3,173.2Z"/><polygon class="cls-1" points="-.3 0 -.3 164.51 202.04 176.55 159.36 141.67 159.36 97.22 176.98 43.96 233.28 22.53 307.71 19.76 333.49 0 -.3 0"/><polygon class="cls-2" points="159.36 58.97 73.44 43.96 136.47 0 -.3 0 -.3 163.68 113.56 165.22 64.65 126 108.4 107.01 45.93 85.25 109.88 78.48 159.36 58.97"/><path class="cls-2" d="m311.05,786.72l-48-8.6-3.61-38.91-20.83-24.75-25.65-6.36-10.92-41.53L-.3,653.67v176.94c28.65-6.37,122.68-3.4,122.68-3.4,0,0,149.76-1.87,196.58-2.23,7.91-.06-7.91-38.25-7.91-38.25Z"/><path class="cls-4" d="m259.44,739.21l-20.83-24.75-25.65-6.36-10.92-41.53L-.3,653.67v59.36c1.44.33,2.89.59,4.34.66,4.49.22,8.98-.04,13.47.46,9.07,1.01,16.85,5.72,25.17,10.95,8.9,5.6,17.67,11.66,26.51,17.47,2.62-6.93,4.54-14.64,8.16-20.49,2.72-4.39,6.22-7.31,10.06-8.68,6.99-2.49,14.3-3.3,21.45-3.96,8.71-.81,13.89,12.22,22.61,12.97,6.35.55,15.16-10.67,22.64-5.06,13.59,10.19-1.59,33.12-3.14,46.47,11.21,4.69,29.22,3.87,40.49-1.4,9.4-4.4,19.85-14.09,29.72-7.17,8.36,5.87,24.7-1.93,24.7-1.93l17.16,24.78-3.61-38.91Z"/><polygon class="cls-4" points="151.56 0 130.54 16.54 165.2 8.74 186.28 0 151.56 0"/><polygon class="cls-3" points="101.56 0 80.58 8.74 47.34 0 7.16 0 7.16 1.55 12.26 32.27 26.54 8.74 79.56 16.54 110.24 0 101.56 0"/><polygon class="cls-3" points="19.4 107.79 -.3 62.04 -.3 98.4 1.05 111.8 15.32 119.55 82.61 111.8 19.4 107.79"/><path class="cls-4" d="m117.04,107.33l-28.35,32.94-43.85-5.93-39.76-6.94-5.38-3.94v39.71l19.84-3.21,81.78-5.58,11.33-30.4,39.53-21.55c.31,0-35.14,4.91-35.14,4.91Z"/><polygon class="cls-4" points="184.22 0 182.7 .45 140.82 14.59 156.66 0 128.51 0 71.75 42.57 144.61 20.68 188.01 0 184.22 0"/><path class="cls-1" d="m202.04,176.55c-28.76-2.24-83.88-16.13-83.88-16.13H-.3v34.99c15.13,5.01,40.47,10.79,73.74,8.94,56.08-3.12,139.52-1.58,139.52-1.58,0,0,17.84-23.98-10.92-26.22Z"/><path class="cls-4" d="m183.56,183.44l-17.9-12.42-55.78-17.12-106.05,7.22-4.13,1.24v21.3c26.38,5.39,58.44,5.59,58.44,5.59,18.35-4.27,51.73-5.8,51.73-5.8,80.28,13.06,73.68,0,73.68,0Z"/><path class="cls-2" d="m150.79,166.45l-40.92-12.56L-.3,160.15v11.63c20.16,4.16,59.23,4.77,59.23,4.77,0,0,27.53-14.56,65-4.98,37.47,9.58,26.87-5.11,26.87-5.11Z"/><path class="cls-4" d="m13.82,422.23c-1.49-2.26-9.03-6.2-14.12-8.69v22.27l7.46-4.33,12.65,52.19s-3.71-57.97-6-61.44Z"/><polygon class="cls-1" points="135.63 445.65 129.52 478.05 160.64 524.32 160.64 550.54 136.16 559.69 107.49 556.88 86.48 581.77 109.87 541.36 139.71 540.2 139.71 515.9 120.22 483.53 96.51 490.47 120.22 470.8 135.63 445.65"/><polygon class="cls-4" points="202.04 562.36 205.99 592.25 202.04 626.48 205.99 653.2 78.63 645.14 120.22 607.03 145.86 618.8 186.8 614.12 191.71 586.14 202.04 562.36"/><polygon class="cls-3" points="33.64 532.1 -.3 518.3 -.3 545.81 19.17 547.14 58.93 571.43 33.64 532.1"/><polygon class="cls-4" points="-.3 513.58 -.3 524.32 13.82 524.32 -.3 513.58"/><polygon class="cls-3" points="70.06 556.88 53.64 524.32 29.11 515.9 7.16 431.48 -.3 429.08 -.3 499.29 46.7 533.73 70.06 577.21 90.04 549.45 70.06 556.88"/><path class="cls-3" d="m71.15,323.3l-8.57,41.99L-.3,357.34v6.14c4.66,3.55,9.76,7.27,11.98,8.4,4.59,2.31,22.94,35.39,22.94,35.39l42.13-22.67-5.6-61.3Z"/><polygon class="cls-3" points="19.17 280.72 7.16 333.17 -.3 331.67 -.3 342.56 23.76 344.73 24.52 288.06 45.93 251.05 19.17 280.72"/><polygon class="cls-2" points="49.75 496.02 82.61 460.39 117.04 445.65 49.75 496.02"/><polygon class="cls-3" points="-.3 277.68 -.3 287.16 13.56 282.6 41 242.95 -.3 277.68"/><polygon class="cls-3" points="212.96 708.09 223.77 679.37 -.3 650.42 -.3 692.99 7.16 690.77 58.93 721.79 49.75 694.29 78.63 686.92 120.22 696.47 145.34 686.92 188.16 696.47 202.04 734.72 238.61 714.46 212.96 708.09"/><path class="cls-1" d="m218.43,662.07c-23.51-39.99-87.92-33.46-87.92-33.46L-.3,635.03v34.61c4.22-.1,8.08-.44,11.44-1.05,41.7-7.64,151.01,12.27,180.57,16.9,29.57,4.63,39.61-1.47,26.72-23.41Z"/><path class="cls-2" d="m141.59,629.9c-12.87-3.76-88.68-11.43-141.89-14.07v31.28c17.17-.21,27.56-3.26,27.56-3.26l89.85,7.53s49.92,10.35,54.35,3.85c4.43-6.49-11.05-19.83-29.87-25.34Z"/><polygon class="cls-3" points="49.44 734.72 84.24 780.81 125.46 764.34 180.03 773.84 208.96 753.33 178.94 764.34 109.87 753.33 90.04 771.52 49.44 734.72"/><polygon class="cls-1" points="74.66 739.21 96.51 753.33 109.87 746.27 150.79 753.33 109.87 727.09 96.51 739.21 74.66 739.21"/><path class="cls-1" d="m170.37,796.36l92.64-18.44,48.04,8.8s-52.68-.76-140.68,9.64Z"/><path class="cls-1" d="m45.93,734.72l36.68,55.51-25.5,32.12s22.88-32.16-11.18-87.63Z"/><polygon class="cls-4" points="26.54 8.74 12.26 32.27 7.36 0 -.3 0 -.3 62.04 19.4 107.79 7.16 53.37 16.85 53.37 26.54 8.74"/><polygon class="cls-4" points="110.24 0 79.56 16.54 36.77 10.24 71.75 34.68 111.17 0 110.24 0"/><polygon class="cls-4" points="202.04 176.55 159.36 141.67 159.36 97.22 176.98 43.96 159.36 66.68 133.3 76.1 152.18 94.72 152.18 110.25 117.04 143.77 133.3 153.5 202.04 176.55"/><polygon class="cls-2" points="332.42 0 304.91 12.9 233.15 7.62 138.76 40.82 177.76 32.27 176.98 43.96 233.28 22.53 307.71 19.76 333.49 0 332.42 0"/><polygon class="cls-3" points="230.07 0 224.6 0 204.81 5.24 218.43 7.62 223.53 16.54 176.98 43.96 233.28 22.53 307.71 19.76 236.97 15.48 230.07 0"/><polygon class="cls-3" points="159.36 97.22 159.36 141.67 202.04 176.55 148.64 143.54 159.36 97.22"/></svg>