<svg xmlns="http://www.w3.org/2000/svg" viewBox="0 0 105.51 90.66"><defs><style>.cls-1{fill:#1c1b3e;}</style></defs><title>logo</title><g id="Layer_2" data-name="Layer 2"><g id="MID"><path class="cls-1" d="M56.63,9.19V30.53a1.54,1.54,0,0,1-1.54,1.54H50.42a1.54,1.54,0,0,1-1.54-1.54V9.19a1.54,1.54,0,0,1,1.54-1.54h4.67a1.54,1.54,0,0,1,1.54,1.54"/><path class="cls-1" d="M17.78,32.57l4.43,3.86a2,2,0,0,1,0,3l-4.45,3.84a2.58,2.58,0,0,1-2.35.49l-14-4a2,2,0,0,1,0-3.78l14-3.91a2.58,2.58,0,0,1,2.35.49"/><path class="cls-1" d="M24.25,58.87l5.87-.4a2,2,0,0,1,2.09,2.09l-.43,5.87a2.59,2.59,0,0,1-1.32,2L17.78,75.52a2,2,0,0,1-2.67-2.68l7.13-12.66a2.61,2.61,0,0,1,2-1.31"/><path class="cls-1" d="M47.42,72.89l3.86-4.44a2,2,0,0,1,3,0l3.85,4.45a2.61,2.61,0,0,1,.48,2.35l-4,14a2,2,0,0,1-3.77,0l-3.92-14a2.57,2.57,0,0,1,.49-2.34"/><path class="cls-1" d="M73.72,66.41l-.4-5.86a2,2,0,0,1,2.09-2.09l5.87.42a2.59,2.59,0,0,1,2,1.32l7.08,12.68a2,2,0,0,1-2.67,2.67L75,68.42a2.6,2.6,0,0,1-1.31-2"/><path class="cls-1" d="M87.74,43.24,83.3,39.38a2,2,0,0,1,0-3l4.45-3.84a2.59,2.59,0,0,1,2.35-.49l14,4a2,2,0,0,1,0,3.78l-14,3.91a2.58,2.58,0,0,1-2.35-.49"/><path class="cls-1" d="M81.26,16.94l-5.86.41a2,2,0,0,1-2.09-2.1l.42-5.87a2.54,2.54,0,0,1,1.33-2L87.73.29A2,2,0,0,1,90.4,3L83.27,15.63a2.55,2.55,0,0,1-2,1.31"/><path class="cls-1" d="M31.79,9.4l.41,5.86a2,2,0,0,1-2.1,2.1l-5.87-.43a2.55,2.55,0,0,1-2-1.32L15.14,2.93A2,2,0,0,1,17.82.26L30.48,7.39a2.55,2.55,0,0,1,1.31,2"/><path class="cls-1" d="M61.6,22.46h0a3.7,3.7,0,0,0,1.34,2.85,16.33,16.33,0,0,1,5,18.59,15.31,15.31,0,0,1-9,9.07A16.24,16.24,0,0,1,42.6,25.28a3.62,3.62,0,0,0,1.31-2.82,3.7,3.7,0,0,0-6-2.9,23.57,23.57,0,0,0-8.68,20.51c1,10.78,10.92,20.58,21.71,21.39A23.61,23.61,0,0,0,67.68,19.62a3.71,3.71,0,0,0-6.08,2.84"/></g></g></svg>