<?xml version="1.0" encoding="UTF-8"?><svg id="Layer_1" xmlns="http://www.w3.org/2000/svg" xmlns:xlink="http://www.w3.org/1999/xlink" viewBox="0 0 496 496"><defs><style>.cls-1{fill:url(#radial-gradient);stroke-width:0px;}</style><radialGradient id="radial-gradient" cx="248" cy="248" fx="248" fy="248" r="248" gradientUnits="userSpaceOnUse"><stop offset="0" stop-color="#fde047"/><stop offset=".17" stop-color="#f9c73c"/><stop offset=".74" stop-color="#ee7719"/><stop offset="1" stop-color="#ea580c"/></radialGradient></defs><path class="cls-1" d="M248,0c49.05,0,97,14.54,137.78,41.8,40.78,27.25,72.57,65.98,91.34,111.3,18.77,45.32,23.68,95.18,14.11,143.29-9.57,48.11-33.19,92.3-67.87,126.98-34.68,34.68-78.87,58.3-126.98,67.87-48.11,9.57-97.97,4.66-143.29-14.11-45.32-18.77-84.05-50.56-111.3-91.34C14.54,345,0,297.05,0,248,0,182.23,26.13,119.15,72.64,72.64,119.15,26.13,182.23,0,248,0ZM372.76,397.37s77.45-59.06,70.23-160.13c-8.97-125.46-112.88-184.41-194.45-184.41-65.51,0-106.64,31.22-108.67,32.85h-.16l-3.02,2.3s43.88-.24,47.82,0c3.94.24,42.03-.62,66.5,25.38,42.22,44.85,28.59,82.54,25.25,99.06-4.02,19.6-24.58,35.77-24.58,35.77,5.27,3.32,9.72,7.79,13.01,13.08,3.3,5.29,5.35,11.25,6.02,17.44v31.19h47.09v-93.04c-2.54.18-5.06-.5-7.16-1.93-2.1-1.43-3.66-3.52-4.43-5.94,0,0-7.87-25.97-10.92-38.79-3.05-12.82,7.82-13.55,7.82-13.55h33.63v-33.06c.21-4.26,2.14-7.74,8.59-7.66,2.23-.05,4.39.76,6.04,2.25,1.65,1.49,2.67,3.56,2.85,5.78v32.13h31.86c1.54-.04,3.07.24,4.49.84s2.7,1.49,3.75,2.61c1.05,1.13,1.85,2.46,2.35,3.92.49,1.46.67,3.01.52,4.54l-13.63,39.97c-.9,2.21-2.36,4.15-4.24,5.62-1.88,1.47-4.11,2.43-6.47,2.78l-.08,180.99ZM317.96,430.3v-62.43h-47.55v74.19s36.73-4.95,47.55-11.75ZM218.09,188.86c3.08-29.91-27.74-44.76-45.33-45.22s-87.9,0-87.9,0c0,0-1.53-.21-2.17.78,0,0-55.23,80.83-15.64,177.75,3.59,8.81,43,102.41,146.74,118.1v-130.39s0-27.07-27.55-26.61h-34.81v52.77s.46,7.36-5.97,7.36h-44.12c-.73.08-1.46.01-2.16-.2-.7-.21-1.35-.57-1.9-1.04-.56-.47-1.01-1.06-1.33-1.71-.32-.66-.51-1.37-.54-2.1v-159.84s.94-5.51,5.81-5.51h45.52c1.18.15,2.29.68,3.13,1.53s1.38,1.95,1.53,3.13v50.87s28.41.48,36.2,0c8.51-.56,27.47-10.12,30.49-39.65Z"/></svg>