<?xml version="1.0" encoding="utf-8"?>
<!-- Generator: Adobe Illustrator 28.1.0, SVG Export Plug-In . SVG Version: 6.00 Build 0)  -->
<svg version="1.1" id="Layer_1" xmlns="http://www.w3.org/2000/svg"
	xmlns:xlink="http://www.w3.org/1999/xlink" x="0px" y="0px"
	viewBox="0 0 1920 1080" style="enable-background:new 0 0 1920 1080;" xml:space="preserve">
<style type="text/css">
	.st0{display:none;fill:#FBFCF0;}
	.st1{fill:#55331B;}
	.st2{fill:#52311A;}
	.st3{fill:#F9DAB6;}
	.st4{fill:#E2AD83;}
	.st5{fill:#F2C8A0;}
	.st6{fill:#FBFCF0;}
	.st7{display:none;fill:none;stroke:#000000;stroke-miterlimit:10;}
</style>
<path class="st0" d="M732.8,455c-5.4,2-10.6-1.6-11.7-8.3c-1.3-7.5-1.8-15.1-5-22.2c-12-26.3-36.7-47.9-68.8-47.6
	c-17.2,0.1-32.8,4.3-46.5,14.5c-4.6,3.5-8.5,8-12.6,12.1c-6.8,6.7-8.6,6.5-13.6-2c4.7-8.3,11.5-15,19.2-20.2
	c11.3-7.6,23.5-13.4,37.2-15.6c26.3-4.3,49.6,2.2,70.3,18.9c11.8,9.6,20.1,21.5,26.3,35.3c3.7,8.3,3.7,16.9,5.1,25.5
	C733.2,448.6,732.3,451.8,732.8,455z"/>
<path class="st0" d="M1349.7,597.9c-7.6,6.4-7.7,6.4-14.6-1.3c-7.7-8.7-16.8-15.5-27.9-19.5c-5.2-1.8-10.7-2-16.2-2.2
	c-6.2-0.2-10.3-3.5-7.1-8.8c24.5-3.4,44.7,4.5,60.5,23.5C1346.6,592.1,1348.2,594.9,1349.7,597.9z"/>
<g>
	<path class="st1" d="M749.1,389c0.2,0.2,0.2,0.4,0.1,0.6c-0.2,3.1,0.9,7.2-4.7,6.3c-4.5-0.7-6,1.3-5.5,5.6c0.2,1.8,0.1,3.6,0,5.5
		c-0.1,2.4,1,3.9,3.2,4.5c5.9,1.6,7,7.5,9.6,11.7c2.2,3.7,3.3,5.1,6.7,2c0.9-0.8,2-1.5,3.1-0.5c0.9,0.8,1.5,1.9,1,3.1
		c-0.6,1.5-1.5,3-2,4.5c-0.7,2.1-1.6,4.5,2,4.7c2.2,0.2,4.4,1.2,4.8,2.9c0.5,2.5-2.5,2.5-4.1,3.5c-2.1,1.2-3.4,3.7-1.3,4.6
		c6.3,2.7,5,7.9,5,12.6c0,3.1,0.3,5.6,3.9,6.6c1,0.2,2,0.8,1.5,2.1c-0.3,1-1.4,0.8-2.2,0.8c-4.6-0.3-9.2,0.4-13.9-0.5
		c-2.7-0.5-6.2-2.4-8.3,1.5c-8.3-2.3-14.4-6.7-15.2-16c-0.5-3.2,0.4-6.4-0.1-9.6c-1.4-8.5-1.4-17.2-5.1-25.5
		c-6.2-13.8-14.4-25.8-26.3-35.3c-20.7-16.7-44-23.2-70.3-18.9c-13.7,2.2-25.9,8-37.2,15.6c-7.7,5.2-14.5,11.8-19.2,20.2
		c-1,0.9-2.1,1.6-2.9,2.7c-9.4,13.8-15,29-16.1,45.8c-0.1,0.7-0.1,1.4-0.2,2.1c0,1.6,0,3.3,0,4.9c-0.7,8.8,1.4,17.1,3.7,25.5
		c8.7,31.4,36.2,50.6,67.9,47.4c1.2,0.1,2.3,0.2,3.5,0.2c11.6,0.3,18.9,6.6,20.8,18.1c-0.8,9.7-6.1,15.5-15.3,17.9
		c-19.7-2.5-37.5,1.8-53.1,14.4c-5.7,4.6-10.9,9.6-13.9,16.5c-9.7,15-13.7,31.4-12.5,49.2c0.2,2.6,0.5,5.2,0.7,7.8
		c-0.1,0.8-0.3,1.6,0.5,2.2c0.6,4.8,2.1,9.4,3.8,13.9c13.8,35.4,48.2,58.7,86.2,57.5c31.2-1,55.9-14.3,72.6-41.3
		c10.8-17.3,12.5-36.5,11.6-56.3c0.7-2.6,1.4-5.1,2.1-7.7c3.9-6.1,9.2-10.4,16.5-10.4c21.5-0.2,42.9,0,64.4,0
		c-4.5,3.2-9.4,4.2-14.9,3.7c-4.8-0.4-9.5-2.5-14.6-1.1c0.3,2.1,3.5,2.9,2.1,4.8c-2.6,3.7-1.5,7.7-1.6,11.6
		c-0.1,5.9,1.1,7.1,6.9,7.1c5,0,8,1.9,8.1,7.2c-6.7,0.5-13.3,0.5-20,0c-0.3-0.7-0.6-0.8-1,0c-0.7,0.1-1.3,0.3-2,0.3
		c-12.4,0.4-12.3,0.4-13.1,12.5c-0.7,10.6-3.8,20.6-7.9,30.3c-7.4,17.2-18.3,32-32.6,44.2c-23.7,20.3-51.2,29.7-82.3,28.8
		c-56.7-1.6-107.1-43.8-117.6-99.5c-8.1-43.3,5-80.2,37.7-109.9c0.8-0.8,1.7-1.5,2.8-2.5c-9.8-8.3-18.3-17.6-25.1-28.4
		c-22-35.6-23.7-72.9-9.2-111.4c10-26.6,28.4-46.5,52.5-61c16.1-9.7,33.6-15,52.7-16.8c25.6-2.4,48.8,3.7,70.5,16.1
		c14.2,8,27,17.9,35.8,32.1c-1.8,0.9-0.6,2.2-0.5,3.4C742.3,390.9,742.3,390.9,749.1,389z"/>
	<path class="st1" d="M1191.9,360.8c17.7-15.6,38.2-25.2,61.5-28.7c69.2-10.3,131.2,40.7,141.1,105.6c6.5,42.3-6.4,78.6-37.2,108.4
		c-3,2.9-2.9,4.2,0.1,7c27,26,40.3,57.6,37.5,95.2c-2.5,33.5-17.4,61.3-42.9,82.9c-27.2,23-59.2,34.2-94.5,29.4
		c-49.5-6.7-83-34.9-100.4-81.8c-3.1-8.5-4.9-17.2-5.1-26.3c-0.1-4.9-2.1-6.9-7.1-7c-8.3-0.1-16.7-0.2-25-0.2
		c-0.6-5.6,3.3-6.7,7.4-7c3.2-0.3,3.9-1.3,3.1-4.3c-1.1-3.7-1.4-7.8,2-10.5c3.8-3.1,4.6-7,4.5-11.4c1,0,2,0,3,0
		c-0.5,5.3,2.5,6.2,7,6.2c4.5,0,7.5-1,7-6.2c4.7,0.1,9.6-1.6,14.2,1.1c-0.9,0.2-2.2,0.3-1.6,1.8c0.6,1.2,1.8,1.5,3,1.1
		c1.9-0.5,0.8-1.7,0.4-2.7c4.7,0,7.8,3.1,11,5.9c0.5,0.7,1,1.4,1.5,2.1c0.5,0.7,0.9,1.4,1.4,2.1l-0.1-0.1c0.2,1.1,0.1,2.3,1.1,3.1
		l-0.1-0.1c0.1,0.6,0.2,1.3,0.2,1.9c0.1,1,0.2,2.1,0.3,3.1c0,3.5-0.1,7-0.1,10.5c0.2,32.3,14.4,57.2,41.8,73.7
		c39.2,23.7,90.6,12.4,117.8-25.1c8.9-12.3,15.2-25.7,16-41.2c0.7-4.4,0.8-8.8,0.3-13.2c-0.1-1.6-0.2-3.2-0.3-4.8
		c0.7-1.7-0.9-3.1-0.9-4.7c-0.1-10.7-5.1-19.6-10.3-28.4c-1.4-3-3.1-5.7-5.2-8.3c-15.9-19-36-26.8-60.5-23.5
		c-10.7-1.3-15.9-6.5-18-18.1c1.5-9.4,7-15.1,16.1-17.6c1.3-0.2,2.6-0.4,3.9-0.6c1,0,2.1,0,3.1,0c17.3,2.9,33.1-0.2,46.6-12.2
		c5.7-5.1,10.1-11.1,14.2-17.5c12.9-19.9,14.9-41.5,10.1-64.1c-2.8-13.6-8.9-25.5-17.8-36.1c-22-27-50.1-39.4-84.9-34.2
		c-17.6,2.7-33.2,10.6-46.7,22.3c-4.9-1-7.8,2.1-10.2,5.6c-2.2,3.3-4.4,5.2-8.6,2.9c-3.8-2.1-7.8-1-11.3,1c-2,1.2-2.8,1.1-4.4-0.7
		c-5-6-3.9-13.2,3-16.9c1.4-0.8,2.8-1.6,2.8-3.2c-0.1-4.4,3-6.8,5.6-9.6C1189.1,365.2,1191.9,364,1191.9,360.8z"/>
	<path class="st2" d="M1191.9,360.8c0,3.2-2.8,4.4-4.5,6.3c-2.6,2.8-5.6,5.2-5.6,9.6c0,1.6-1.4,2.5-2.8,3.2c-6.9,3.7-8,10.9-3,16.9
		c1.5,1.8,2.4,1.9,4.4,0.7c3.5-2.1,7.4-3.1,11.3-1c4.1,2.3,6.3,0.4,8.6-2.9c2.4-3.5,5.3-6.6,10.2-5.6c-6.8,7.2-13,15-17.4,24
		c-1.9,1.1-3.9,2.4-4,4.7c-0.1,3-1.7,5.3-2.9,7.9c-0.9,1.8-1.5,4.7-4.2,1.3c-0.9-1.1-1.7-0.2-2.1,0.9c-0.5,1.7-1.8,2.2-3.4,2.2
		c-2.4,0-3.1,1.7-3.4,3.6c-0.8,5.8-2.4,11.7,0.1,17.5c0.8,2,0.8,4.1,3.4,5.6c4.1,2.4,3.6,4.8-0.3,7.9c-2,1.5-3.7,3.4-5.3,5.2
		c-1.2,1.3-0.6,2.1,1,2.3c-0.1,0.2-0.1,0.4,0,0.6c-2.2,0.1-4.3,0.4-6.5,0.4c-136.6,0-273.2,0-409.8,0c-2.5,0-5-0.2-7.5-0.4
		c0-0.2,0-0.4-0.1-0.6c2.1-3.9,5.7-2,8.3-1.5c4.7,0.9,9.3,0.3,13.9,0.5c0.8,0,1.8,0.2,2.2-0.8c0.4-1.3-0.6-1.8-1.5-2.1
		c-3.5-0.9-3.9-3.5-3.9-6.6c0-4.8,1.3-10-5-12.6c-2.1-0.9-0.8-3.3,1.3-4.6c1.6-0.9,4.6-1,4.1-3.5c-0.4-1.7-2.6-2.7-4.8-2.9
		c-3.5-0.3-2.7-2.7-2-4.7c0.5-1.5,1.4-3,2-4.5c0.5-1.2-0.2-2.3-1-3.1c-1.1-1-2.2-0.3-3.1,0.5c-3.4,3.1-4.5,1.7-6.7-2
		c-2.6-4.1-3.7-10.1-9.6-11.7c-2.1-0.6-3.3-2.1-3.2-4.5c0.1-1.8,0.2-3.7,0-5.5c-0.6-4.3,0.9-6.3,5.5-5.6c5.6,0.9,4.5-3.2,4.7-6.3
		c6.6,8,9.3,18,13,27.4c1.6,4,2.6,8.1,3.1,12.4c0.7,7,1.7,7.8,8.8,7.8c57.7,0,115.3,0,172.9,0c65.5,0,130.9,0.1,196.4,0.1
		c7.5,0,7.6-0.1,8.9-7.5C1157.2,402.1,1170.6,379.2,1191.9,360.8z"/>
	<path class="st2" d="M1137,611.8c0,4.4-0.7,8.3-4.5,11.4c-3.3,2.7-3,6.8-2,10.5c0.9,3.1,0.1,4.1-3.1,4.3c-4.1,0.3-8,1.4-7.4,7
		c-27.9,0.4-55.7,0.5-83.6,0c-50.9,0-101.9,0-152.8,0c-13.8,0.1-27.5,0.3-41.3,0.3c-13.8,0-27.5-0.2-41.3-0.3
		c-0.1-5.3-3.1-7.2-8.1-7.2c-5.8,0-7-1.2-6.9-7.1c0.1-3.9-1-7.9,1.6-11.6c1.4-2-1.8-2.8-2.1-4.8c5.1-1.4,9.8,0.7,14.6,1.1
		c5.4,0.5,10.4-0.5,14.9-3.7c2.7,0,5.3,0,8,0c2.6,3,8.3,3.1,11,0.1c20,0,40,0.1,60,0.1c0.2,2.1,1.9,2.8,3.5,2.8
		c5.2,0.2,10.5,0.1,15.8,0.1c1.8,0,2.6-1.2,2.8-2.9c4,0,8,0,12,0c0.9,3.3,3.6,3,6.1,2.9c10.6-0.4,21.2,0.3,31.8-0.7
		c10.8-1,21.8-0.2,32.8,0.7c10.4,0.8,20.9-0.8,31.3,1c1.9,0.3,4.1,0.2,5.9-0.4c8.8-3,16.9-1.2,24.7,3.2c2,1.1,4.1,2,6,0.4
		c2.8-2.3,5.9-3.3,9.5-3.4c2,0,3.2-1.6,2.9-3.9c10.3-0.2,20.6-0.8,31-0.1c0,1.9,1.3,2.7,2.8,2.9c3.7,0.4,7.3,0.2,10.2,3.6
		c1.2,1.4,3.1,0,4.1-1.5c1-1.5,1.9-3.1,2-5C1131.7,611.8,1134.3,611.8,1137,611.8z"/>
	<path class="st1" d="M883.6,645.1c50.9,0,101.9,0,152.8,0c-1,0.1-2,0.3-3,0.3c-48.8,0-97.6,0-146.4,0
		C885.9,645.3,884.7,645.2,883.6,645.1z"/>
	<path class="st2" d="M749.1,389c-6.8,1.8-6.7,1.8-7.2-5.8c-0.1-1.2-1.3-2.5,0.5-3.4C744.7,382.9,747.9,385.2,749.1,389z"/>
	<path class="st2" d="M780.1,645.1c0.3-0.8,0.7-0.7,1,0C780.7,645.1,780.4,645.1,780.1,645.1z"/>
	<path class="st3" d="M748,471c0.1,0.2,0.2,0.4,0.1,0.6c-0.5,1-1.4,1.4-2.5,1.4c-8.4-0.5-17,1.5-25.2-1.6c-2.2-0.8-4.4-0.4-5.8,1.7
		c-1.5,2.4,0.5,3.7,1.8,5c1.1,1,2.3,1.9,3.6,2.6c6.7,3.6,14,5.3,21.5,5.3c65,0.1,129.9,0.1,194.9,0.1c80.5,0,160.9,0,241.3-0.1
		c8,0,15.4-2.3,22.3-6.2c2-1.1,4-3,3-5.6c-0.9-2.4-3.4-2.6-5.6-2c-7.4,1.8-14.9,0.6-22.4,0.9c-1.3,0-2.7,0.1-3.5-1.4
		c-0.1-0.2-0.1-0.4,0-0.6c3.3-0.4,5.3-2.3,7.7-4.6c4.6-4.4,5.2-9.6,5.4-15.3c1.9,1.1-0.3,5.3,3.6,4.9c3.6-0.4,6.2-2.2,7.4-5.8
		c0.4-1.3,0.9-2.6,0.9-3.9c0.5-11.9,4.4-22.6,10.7-32.6c4.8-7.6,9.4-15.6,16.6-21c14.7-11.1,31.3-16.7,50-15.9
		c22.6,1,40.9,10.1,55.7,26.9c2.2,2.6,4.5,5.3,8.3,4c3.5-1.2,4.2-4.4,3.9-7.8c8.9,10.6,15,22.5,17.8,36.1c-1.6-0.1-3.1-1.3-4.7,0.9
		c-1.2,1.8-3.5,2.8-5.3,4.2c-2.8,1.9-3.7,5-5.3,7.6c-3.4,5.7-7.8,10-14.9,10.3c-3.3,0.2-4.3,1.9-4.9,5c-3.2,16.6-17.2,30-33.8,33.1
		c-7.8,1.5-15.6,0.5-23.4,0.8c-13.9,0.5-25.3,10.6-29.4,23.1c-1,2.9-0.9,6.1,3.4,6.7c2,0.3,3.2,1.6,4.5,2.9c4,4.2,8.5,8,11.9,12.7
		c1.9,2.6,4.3,4.7,7.9,4.6c2.1,11.6,7.3,16.8,18,18.1c-3.2,5.2,0.9,8.6,7.1,8.8c5.5,0.1,10.9,0.3,16.2,2.2
		c11.1,3.9,20.1,10.7,27.9,19.5c6.9,7.8,6.9,7.7,14.6,1.3c5.3,8.8,10.2,17.7,10.3,28.4c0,1.6,1.6,3,0.9,4.7c-3.7-0.1-7-2.6-10.9-2
		c-0.7-1-1.3-2.3-2.5-0.7c-0.7,0.9-0.9,2.1-1.2,3.2c-3,9.9-8.3,17.4-19.6,18.5c-2.2,0.2-2.2,1.9-2.8,3.5
		c-2.7,7.5-6.5,14.3-12.6,19.5c-20,17-49.4,18-70.5,1.8c-19.1-14.6-28.3-39.9-16.8-63.6c1.2-2.4,1.4-4.8,0.8-7.3
		c-2.3-9.4-7.8-16.4-16.2-21.1c-8.6-4.8-18-6.7-27.8-6.7c-47.8,0-95.7-0.2-143.5,0c-102.6,0.4-205.2-1.1-307.9,0.8
		c-11.9,0.2-22.3,3.8-30.3,12.7c-4.7,5.2-9,12-5.9,18.9c3.9,8.9,5.4,17.8,4.8,27.2c-1,15-7.8,27.3-18.8,37.2
		c-11.5,10.4-25.3,13.8-40.6,13.2c-17.5-0.7-40-12.3-45.3-33c-0.5-2.1-1.3-2.9-3.5-3.2c-9.8-1.2-14.8-7.9-17.9-16.5
		c-0.5-1.4-0.2-4-2.3-3.8c-1.9,0.2-3.4,2.2-3.5,4.4c-0.2,3-0.1,6-0.1,9c-3.5-0.1-6,2.9-9.4,3.2c-1.2-17.8,2.8-34.2,12.5-49.2
		c1.4,1.2,2.3,2.8,3,4.5c1.3,3.4,3.5,3.1,5.8,1.1c1.1-1,2.1-2.1,3-3.3c11.4-15.8,26.8-23.9,46.3-24.3c6.7-0.1,8.8-2.3,8.8-8.9
		c9.2-2.5,14.5-8.3,15.3-17.9c4.9-2,8.4-5.8,11.6-9.9c3.8-4.8,8.2-8.7,14.3-10.2c2.6-0.7,3-2.1,2.5-4.4
		c-2.8-14.2-16.3-25.4-30.9-25.7c-6.3-0.1-12.5,0-18.9-0.7c-18.5-2.1-30.3-12.4-37-29c-2.1-5.1-2.7-10.5-10-9.9
		c-0.7,0-1.5-0.7-2.2-1.2c-4.3-2.5-7.6-5.9-9.5-10.6c-0.5-1.3-1.2-2.5-2.8-2.5c-1.6,0-2.3,1.3-2.7,2.5c-0.4,1.1-0.5,2.2-0.8,3.3
		c-3.1-0.9-6.2,0.1-9.4,0c1.1-16.8,6.7-32,16.1-45.8c0.7-1,1.9-1.8,2.9-2.7c4.9,8.4,6.8,8.7,13.6,2c4.1-4.1,8-8.6,12.6-12.1
		c13.7-10.2,29.3-14.3,46.5-14.5c32.1-0.3,56.9,21.3,68.8,47.6c3.2,7.1,3.7,14.7,5,22.2c1.2,6.7,6.3,10.3,11.7,8.3
		C733.7,464.3,739.7,468.7,748,471z"/>
	<path class="st4" d="M566,642.9c0-3,0-6,0.1-9c0.1-2.2,1.6-4.1,3.5-4.4c2.1-0.3,1.8,2.4,2.3,3.8c3.1,8.6,8.1,15.2,17.9,16.5
		c2.2,0.3,3,1.1,3.5,3.2c5.3,20.7,27.8,32.3,45.3,33c15.3,0.6,29.1-2.8,40.6-13.2c11-9.9,17.8-22.2,18.8-37.2
		c0.6-9.4-0.9-18.3-4.8-27.2c-3-6.9,1.2-13.7,5.9-18.9c8-8.9,18.4-12.5,30.3-12.7c102.6-2,205.2-0.4,307.9-0.8
		c47.8-0.2,95.7,0,143.5,0c9.8,0,19.1,1.9,27.8,6.7c8.4,4.7,13.9,11.7,16.2,21.1c0.6,2.5,0.3,4.9-0.8,7.3
		c-11.5,23.7-2.3,49,16.8,63.6c21.2,16.2,50.6,15.3,70.5-1.8c6.1-5.2,9.9-12,12.6-19.5c0.6-1.6,0.6-3.3,2.8-3.5
		c11.3-1.1,16.6-8.6,19.6-18.5c0.3-1.1,0.6-2.3,1.2-3.2c1.2-1.7,1.9-0.3,2.5,0.7c0.4,3.1,2,5.9,2,9.2c0.1,17.4-4.4,33.2-15.5,47
		c-17.2,21.5-38.9,33.1-66.8,32.9c-20.1-0.2-37.2-7.6-51.5-21.4c-15.7-15.2-24.5-33.5-23.4-56c0.4-8-1.8-9.8-9.5-9.6
		c-0.1-1-0.2-2.1-0.3-3.1c1.1-0.8,0.9-1.4-0.2-1.9l0.1,0.1c-0.1-1.1,0.3-2.4-1.1-3.1l0.1,0.1c0-1-0.3-1.8-1.4-2.1
		c-0.5-0.7-1-1.4-1.5-2.1c4.2-2.4,4.7-4.7,1.5-7.9c-5.9-6.1-13.5-8-21.7-8c-134.8,0-269.6-0.1-404.3,0c-6.6,0-13.4,0.7-18.9,5
		c-3.1,2.4-7.2,4.6-4.2,9.9c0.7,1.2,0.5,2.9,0.7,4.4c-0.7,2.6-1.4,5.1-2.1,7.7c-7.9,2.7-9.4,4.2-8.9,12.1
		c1.2,17.5-5.1,32.9-15.3,46.1c-11.5,14.9-27,24.9-46.1,28.4c-23.7,4.3-45.9,0.5-64.8-14.6C578.3,687,567.4,667.3,566,642.9z"/>
	<path class="st4" d="M565,450c0.3-1.1,0.4-2.3,0.8-3.3c0.5-1.3,1.1-2.5,2.7-2.5c1.6,0,2.3,1.2,2.8,2.5c1.9,4.7,5.2,8,9.5,10.6
		c0.7,0.4,1.5,1.2,2.2,1.2c7.3-0.5,7.9,4.8,10,9.9c6.7,16.6,18.6,26.9,37,29c6.3,0.7,12.6,0.6,18.9,0.7
		c14.6,0.2,28.1,11.4,30.9,25.7c0.5,2.3,0.1,3.8-2.5,4.4c-6.1,1.5-10.5,5.3-14.3,10.2c-3.2,4.1-6.6,7.9-11.6,9.9
		c-1.9-11.5-9.2-17.8-20.8-18.1c-1.2,0-2.3-0.1-3.5-0.2c0.5-2,3.2-3.4,1.6-5.8c-1.4-2-3.7-0.8-5.6-1c-3.6-0.3-7.3,0.3-10.9-0.5
		c-17.9-4.2-29.7-16.1-38.5-31.4C566.4,478.4,564,464.5,565,450z"/>
	<path class="st5" d="M734.1,622.3c-0.2-1.5,0-3.2-0.7-4.4c-3-5.3,1.1-7.5,4.2-9.9c5.5-4.3,12.3-5,18.9-5
		c134.8-0.1,269.6-0.1,404.3,0c8.2,0,15.7,2,21.7,8c3.2,3.2,2.7,5.5-1.5,7.9c-3.2-2.8-6.3-5.8-11-5.9c-0.6-0.1-1.2-0.1-1.8-0.2
		c-4.5-2.7-9.4-1-14.2-1.1c-4.7,0-9.3,0-14,0c-1,0-2,0-3,0c-2.7,0-5.3,0-8,0c-6.4-0.6-12.7-0.6-19.1,0c-10.3-0.8-20.7-0.1-31,0.1
		c-1.3-0.1-2.6-0.2-4-0.2c-29.1,0.1-58.2,0.1-87.2,0.2c-19.9,0-39.9,0.1-59.8,0.2c-4,0-8,0-12,0c-7.3,0-14.7,0-22,0
		c-20,0-40-0.1-60-0.1c-3.7,0-7.3,0-11-0.1c-2.7,0-5.3,0-8,0c-21.5,0-42.9-0.2-64.4,0C743.3,611.9,738,616.2,734.1,622.3z"/>
	<path class="st5" d="M566,642.9c1.4,24.3,12.3,44.1,31,59c18.9,15.1,41.2,18.9,64.8,14.6c19-3.5,34.5-13.5,46.1-28.4
		c10.2-13.2,16.5-28.6,15.3-46.1c-0.5-7.9,1-9.4,8.9-12.1c0.9,19.7-0.9,38.9-11.6,56.3c-16.7,27-41.4,40.3-72.6,41.3
		c-38,1.2-72.4-22.1-86.2-57.5c-1.8-4.5-3.3-9.1-3.8-13.9c1.7-1.2,1.3-1.8-0.5-2.2c-0.2-2.6-0.5-5.2-0.7-7.8
		C559.9,645.8,562.4,642.9,566,642.9z"/>
	<path class="st5" d="M565,450c-1,14.6,1.4,28.5,8.7,41.2c8.8,15.3,20.5,27.2,38.5,31.4c3.6,0.8,7.3,0.2,10.9,0.5
		c1.9,0.2,4.2-1,5.6,1c1.6,2.3-1.2,3.8-1.6,5.8c-31.7,3.2-59.2-16-67.9-47.4c-2.3-8.3-4.5-16.7-3.7-25.5c2.5-1.6,2.5-3.3,0-4.9
		c0.1-0.7,0.1-1.4,0.2-2.1C558.7,450.1,561.9,449.1,565,450z"/>
	<path class="st6" d="M636,566c-0.1,6.7-2.2,8.8-8.8,8.9c-19.5,0.3-34.9,8.5-46.3,24.3c-0.9,1.2-1.9,2.3-3,3.3
		c-2.3,2-4.5,2.2-5.8-1.1c-0.7-1.7-1.7-3.2-3-4.5c3-6.9,8.2-11.9,13.9-16.5C598.5,567.8,616.4,563.6,636,566z"/>
	<path class="st3" d="M555.4,452c2.5,1.7,2.5,3.3,0,4.9C555.4,455.3,555.4,453.7,555.4,452z"/>
	<path class="st3" d="M557.2,654c1.8,0.3,2.2,1,0.5,2.2C556.9,655.6,557.1,654.8,557.2,654z"/>
	<path class="st4" d="M1265.9,548c-3.6,0.1-6-2.1-7.9-4.6c-3.4-4.8-7.9-8.5-11.9-12.7c-1.3-1.3-2.6-2.6-4.5-2.9
		c-4.3-0.6-4.3-3.8-3.4-6.7c4.1-12.5,15.5-22.6,29.4-23.1c7.8-0.3,15.6,0.7,23.4-0.8c16.6-3.1,30.7-16.5,33.8-33.1
		c0.6-3.1,1.6-4.9,4.9-5c7-0.3,11.5-4.6,14.9-10.3c1.6-2.7,2.6-5.8,5.3-7.6c2.5,3.8,2.8,8.2,2.9,12.4c0.8,22.4-6.9,41.5-23.6,56.6
		c-2.3,2-4.3,4.3-7,6.1c-8.8,5.7-18.9,6.8-28.9,7.6c-4.9,0.4-5.6,2-4.4,6c-1,0-2.1,0-3.1,0c-1.5-1.2-2.8-1.4-3.9,0.6
		C1272.9,532.9,1267.4,538.6,1265.9,548z"/>
	<path class="st5" d="M1185.4,631c7.7-0.2,9.9,1.7,9.5,9.6c-1.2,22.5,7.7,40.8,23.4,56c14.3,13.8,31.4,21.2,51.5,21.4
		c27.9,0.2,49.6-11.4,66.8-32.9c11.1-13.8,15.6-29.6,15.5-47c0-3.3-1.6-6.1-2-9.2c3.9-0.6,7.1,2,10.9,2c0.1,1.6,0.2,3.2,0.3,4.8
		c-2.2,4.3-1.7,8.7-0.3,13.1c-0.8,15.5-7.1,28.9-16,41.2c-27.2,37.5-78.6,48.8-117.8,25.1c-27.3-16.5-41.5-41.4-41.8-73.7
		C1185.3,638,1185.4,634.5,1185.4,631z"/>
	<path class="st6" d="M1342.1,399.9c0.3,3.4-0.4,6.6-3.9,7.8c-3.8,1.3-6.1-1.4-8.3-4c-14.8-16.8-33.1-25.9-55.7-26.9
		c-18.8-0.8-35.4,4.7-50,15.9c-7.1,5.4-11.8,13.4-16.6,21c-6.3,10-10.2,20.7-10.7,32.6c-0.1,1.3-0.5,2.6-0.9,3.9
		c-1.2,3.5-3.8,5.3-7.4,5.8c-3.9,0.5-1.7-3.8-3.6-4.9c0-1.7-0.1-3.3-0.1-5c0.1-12,4.2-23.1,8.3-34.1c4.4-9,10.5-16.7,17.4-24
		c13.5-11.8,29.1-19.7,46.7-22.3C1292,360.5,1320.1,372.8,1342.1,399.9z"/>
	<path class="st5" d="M1289,529.8c-1.2-4-0.5-5.6,4.4-6c10-0.9,20-1.9,28.9-7.6c2.7-1.7,4.7-4,7-6.1c16.8-15.1,24.4-34.2,23.6-56.6
		c-0.2-4.2-0.5-8.6-2.9-12.4c1.8-1.4,4.1-2.4,5.3-4.2c1.5-2.2,3-1,4.7-0.9c4.8,22.7,2.8,44.2-10.1,64.1c-4.1,6.4-8.6,12.4-14.2,17.5
		C1322.1,529.6,1306.3,532.7,1289,529.8z"/>
	<path class="st2" d="M1140,611.8c4.7,0,9.3,0,14,0c0.5,5.3-2.5,6.2-7,6.2C1142.5,618.1,1139.5,617.1,1140,611.8z"/>
	<path class="st2" d="M1168.1,612.9c0.6,0.1,1.2,0.1,1.8,0.2c0.3,1,1.5,2.2-0.4,2.7c-1.2,0.3-2.4,0.1-3-1.1
		C1165.9,613.2,1167.2,613.2,1168.1,612.9z"/>
	<path class="st3" d="M1360.9,649c-1.3-4.4-1.9-8.8,0.3-13.1C1361.7,640.2,1361.6,644.6,1360.9,649z"/>
	<path class="st5" d="M1282,530.4c1-2,2.4-1.7,3.9-0.6C1284.6,530,1283.3,530.2,1282,530.4z"/>
	<path class="st5" d="M1183.8,623c1.4,0.7,1,2,1.1,3.1C1184,625.3,1184,624.1,1183.8,623z"/>
	<path class="st5" d="M1182.5,621c1.1,0.2,1.4,1.1,1.4,2.1C1183.4,622.4,1183,621.7,1182.5,621z"/>
	<path class="st5" d="M1184.8,626c1.1,0.5,1.3,1.1,0.2,1.9C1185,627.3,1184.9,626.7,1184.8,626z"/>
	<path class="st6" d="M1171.9,471.6c0.7,1.5,2.2,1.4,3.5,1.4c7.5-0.3,15,0.9,22.4-0.9c2.2-0.5,4.7-0.4,5.6,2c1,2.6-1,4.5-3,5.6
		c-6.9,3.9-14.3,6.2-22.3,6.2c-80.4,0-160.9,0.1-241.3,0.1c-65,0-129.9,0-194.9-0.1c-7.5,0-14.8-1.7-21.5-5.3
		c-1.3-0.7-2.6-1.5-3.6-2.6c-1.4-1.3-3.4-2.6-1.8-5c1.4-2.1,3.6-2.5,5.8-1.7c8.3,3.1,16.8,1.1,25.2,1.6c1,0.1,2-0.3,2.5-1.4
		c2.5,0.1,5,0.4,7.5,0.4c136.6,0,273.2,0,409.8,0C1167.5,472,1169.7,471.7,1171.9,471.6z"/>
	<path class="st1" d="M1193.1,412c-4,11.1-8.2,22.1-8.3,34.1c0,1.6,0.1,3.3,0.1,5c-0.2,5.6-0.8,10.9-5.4,15.3
		c-2.4,2.3-4.4,4.2-7.7,4.6c-1.6-0.2-2.2-1-1-2.3c1.7-1.8,3.4-3.7,5.3-5.2c3.9-3,4.4-5.5,0.3-7.9c-2.6-1.5-2.5-3.6-3.4-5.6
		c-2.5-5.8-0.9-11.7-0.1-17.5c0.3-1.9,1-3.6,3.4-3.6c1.6,0,2.9-0.5,3.4-2.2c0.3-1.1,1.2-2,2.1-0.9c2.7,3.3,3.3,0.5,4.2-1.3
		c1.2-2.5,2.8-4.8,2.9-7.9C1189.2,414.4,1191.2,413.1,1193.1,412z"/>
	<path class="st1" d="M928,612c19.9-0.1,39.9-0.1,59.8-0.2c29.1-0.1,58.1-0.2,87.2-0.2c1.3,0,2.6,0.1,4,0.2c0.3,2.2-0.9,3.8-2.9,3.9
		c-3.7,0.1-6.7,1.1-9.5,3.4c-1.9,1.6-4.1,0.7-6-0.4c-7.8-4.5-15.9-6.3-24.7-3.2c-1.8,0.6-4,0.8-5.9,0.4c-10.4-1.8-20.9-0.2-31.3-1
		c-10.9-0.8-21.9-1.7-32.8-0.7c-10.6,1-21.2,0.4-31.8,0.7C931.6,615,928.9,615.3,928,612z"/>
	<path class="st1" d="M1109.9,611.8c6.4-0.6,12.7-0.6,19.1,0c-0.1,1.9-1.1,3.5-2,5c-0.9,1.5-2.9,2.9-4.1,1.5
		c-2.8-3.4-6.5-3.2-10.2-3.6C1111.3,614.5,1109.9,613.7,1109.9,611.8z"/>
	<path class="st1" d="M894,612c7.3,0,14.7,0,22,0c-0.2,1.7-1,2.9-2.8,2.9c-5.2,0.1-10.5,0.1-15.8-0.1
		C895.9,614.8,894.2,614.1,894,612z"/>
	<path class="st1" d="M823,611.8c3.7,0,7.3,0,11,0.1C831.3,614.9,825.6,614.9,823,611.8z"/>
</g>
<path class="st7" d="M1575.8,1270.5"/>
</svg>