<?xml version="1.0" encoding="UTF-8" standalone="no"?>
<!-- Created with Inkscape (http://www.inkscape.org/) -->

<svg
   version="1.1"
   id="svg1"
   width="324.83585"
   height="115.3772"
   viewBox="0 0 324.83585 115.3772"
   xmlns="http://www.w3.org/2000/svg"
   xmlns:svg="http://www.w3.org/2000/svg">
  <defs
     id="defs1">
    <clipPath
       clipPathUnits="userSpaceOnUse"
       id="clipPath5">
      <path
         d="M 0,841.89 H 595.28 V 0 H 0 Z"
         transform="translate(-286.33351,-400.05271)"
         id="path5" />
    </clipPath>
    <clipPath
       clipPathUnits="userSpaceOnUse"
       id="clipPath7">
      <path
         d="M 0,841.89 H 595.28 V 0 H 0 Z"
         transform="translate(-392.94631,-405.52541)"
         id="path7" />
    </clipPath>
    <clipPath
       clipPathUnits="userSpaceOnUse"
       id="clipPath9">
      <path
         d="M 0,841.89 H 595.28 V 0 H 0 Z"
         transform="translate(-324.60741,-428.91601)"
         id="path9" />
    </clipPath>
    <clipPath
       clipPathUnits="userSpaceOnUse"
       id="clipPath11">
      <path
         d="M 0,841.89 H 595.28 V 0 H 0 Z"
         transform="translate(-329.53611,-437.67381)"
         id="path11" />
    </clipPath>
    <clipPath
       clipPathUnits="userSpaceOnUse"
       id="clipPath13">
      <path
         d="M 0,841.89 H 595.28 V 0 H 0 Z"
         transform="translate(-348.11431,-428.67681)"
         id="path13" />
    </clipPath>
    <clipPath
       clipPathUnits="userSpaceOnUse"
       id="clipPath15">
      <path
         d="M 0,841.89 H 595.28 V 0 H 0 Z"
         transform="translate(-356.57911,-437.57231)"
         id="path15" />
    </clipPath>
    <clipPath
       clipPathUnits="userSpaceOnUse"
       id="clipPath17">
      <path
         d="M 0,841.89 H 595.28 V 0 H 0 Z"
         transform="translate(-367.15821,-437.67381)"
         id="path17" />
    </clipPath>
    <clipPath
       clipPathUnits="userSpaceOnUse"
       id="clipPath19">
      <path
         d="M 0,841.89 H 595.28 V 0 H 0 Z"
         transform="translate(-382.50391,-428.91601)"
         id="path19" />
    </clipPath>
    <clipPath
       clipPathUnits="userSpaceOnUse"
       id="clipPath21">
      <path
         d="M 0,841.89 H 595.28 V 0 H 0 Z"
         transform="translate(-387.59861,-429.98341)"
         id="path21" />
    </clipPath>
    <clipPath
       clipPathUnits="userSpaceOnUse"
       id="clipPath23">
      <path
         d="M 0,841.89 H 595.28 V 0 H 0 Z"
         transform="translate(-402.34571,-428.67681)"
         id="path23" />
    </clipPath>
    <clipPath
       clipPathUnits="userSpaceOnUse"
       id="clipPath25">
      <path
         d="M 0,841.89 H 595.28 V 0 H 0 Z"
         transform="translate(-415.28811,-428.67681)"
         id="path25" />
    </clipPath>
    <clipPath
       clipPathUnits="userSpaceOnUse"
       id="clipPath27">
      <path
         d="M 0,841.89 H 595.28 V 0 H 0 Z"
         transform="translate(-322.30271,-410.87701)"
         id="path27" />
    </clipPath>
    <clipPath
       clipPathUnits="userSpaceOnUse"
       id="clipPath29">
      <path
         d="M 0,841.89 H 595.28 V 0 H 0 Z"
         transform="translate(-326.38571,-411.98241)"
         id="path29" />
    </clipPath>
    <clipPath
       clipPathUnits="userSpaceOnUse"
       id="clipPath31">
      <path
         d="M 0,841.89 H 595.28 V 0 H 0 Z"
         transform="translate(-332.81541,-410.73631)"
         id="path31" />
    </clipPath>
    <clipPath
       clipPathUnits="userSpaceOnUse"
       id="clipPath33">
      <path
         d="M 0,841.89 H 595.28 V 0 H 0 Z"
         transform="translate(-346.47071,-419.73441)"
         id="path33" />
    </clipPath>
    <clipPath
       clipPathUnits="userSpaceOnUse"
       id="clipPath35">
      <path
         d="M 0,841.89 H 595.28 V 0 H 0 Z"
         transform="translate(-363.55081,-411.11911)"
         id="path35" />
    </clipPath>
    <clipPath
       clipPathUnits="userSpaceOnUse"
       id="clipPath37">
      <path
         d="M 0,841.89 H 595.28 V 0 H 0 Z"
         transform="translate(-367.49801,-411.98241)"
         id="path37" />
    </clipPath>
    <clipPath
       clipPathUnits="userSpaceOnUse"
       id="clipPath39">
      <path
         d="M 0,841.89 H 595.28 V 0 H 0 Z"
         transform="translate(-387.23541,-410.73631)"
         id="path39" />
    </clipPath>
    <clipPath
       clipPathUnits="userSpaceOnUse"
       id="clipPath41">
      <path
         d="M 0,841.89 H 595.28 V 0 H 0 Z"
         transform="translate(-395.69731,-419.63281)"
         id="path41" />
    </clipPath>
    <clipPath
       clipPathUnits="userSpaceOnUse"
       id="clipPath43">
      <path
         d="M 0,841.89 H 595.28 V 0 H 0 Z"
         transform="translate(-408.80371,-410.73631)"
         id="path43" />
    </clipPath>
    <clipPath
       clipPathUnits="userSpaceOnUse"
       id="clipPath45">
      <path
         d="M 0,841.89 H 595.28 V 0 H 0 Z"
         transform="translate(-417.17681,-413.47271)"
         id="path45" />
    </clipPath>
    <clipPath
       clipPathUnits="userSpaceOnUse"
       id="clipPath47">
      <path
         d="M 0,841.89 H 595.28 V 0 H 0 Z"
         transform="translate(-300.32421,-450.12891)"
         id="path47" />
    </clipPath>
    <clipPath
       clipPathUnits="userSpaceOnUse"
       id="clipPath49">
      <path
         d="M 0,841.89 H 595.28 V 0 H 0 Z"
         transform="translate(-303.88181,-421.81841)"
         id="path49" />
    </clipPath>
    <clipPath
       clipPathUnits="userSpaceOnUse"
       id="clipPath51">
      <path
         d="M 0,841.89 H 595.28 V 0 H 0 Z"
         transform="translate(-316.66701,-426.07231)"
         id="path51" />
    </clipPath>
    <clipPath
       clipPathUnits="userSpaceOnUse"
       id="clipPath53">
      <path
         d="M 0,841.89 H 595.28 V 0 H 0 Z"
         transform="translate(-252.6133,-403.42381)"
         id="path53" />
    </clipPath>
    <clipPath
       clipPathUnits="userSpaceOnUse"
       id="clipPath55">
      <path
         d="M 0,841.89 H 595.28 V 0 H 0 Z"
         transform="translate(-255.6499,-406.90231)"
         id="path55" />
    </clipPath>
    <clipPath
       clipPathUnits="userSpaceOnUse"
       id="clipPath57">
      <path
         d="M 0,841.89 H 595.28 V 0 H 0 Z"
         transform="translate(-247.36231,-428.90041)"
         id="path57" />
    </clipPath>
    <clipPath
       clipPathUnits="userSpaceOnUse"
       id="clipPath59">
      <path
         d="M 0,841.89 H 595.28 V 0 H 0 Z"
         transform="translate(-201.1528,-411.06641)"
         id="path59" />
    </clipPath>
    <clipPath
       clipPathUnits="userSpaceOnUse"
       id="clipPath61">
      <path
         d="M 0,841.89 H 595.28 V 0 H 0 Z"
         transform="translate(-272.3926,-428.76171)"
         id="path61" />
    </clipPath>
    <clipPath
       clipPathUnits="userSpaceOnUse"
       id="clipPath63">
      <path
         d="M 0,841.89 H 595.28 V 0 H 0 Z"
         transform="translate(-288.59131,-411.06641)"
         id="path63" />
    </clipPath>
    <clipPath
       clipPathUnits="userSpaceOnUse"
       id="clipPath65">
      <path
         d="M 0,841.89 H 595.28 V 0 H 0 Z"
         transform="translate(-236.55181,-416.50591)"
         id="path65" />
    </clipPath>
    <clipPath
       clipPathUnits="userSpaceOnUse"
       id="clipPath67">
      <path
         d="M 0,841.89 H 595.28 V 0 H 0 Z"
         transform="translate(-186.04491,-416.50591)"
         id="path67" />
    </clipPath>
  </defs>
  <g
     id="g1"
     transform="translate(-233.91853,-502.67347)">
    <g
       id="group-MC0">
      <path
         id="path2"
         d="m 0,0 v -1.375 h 9.438 v 0.75 L 7.299,0 Z"
         style="fill:#231815;fill-opacity:1;fill-rule:nonzero;stroke:none"
         transform="matrix(1.3333333,0,0,-1.3333333,400.25,615.34027)" />
      <path
         id="path3"
         d="M 0,0 V -1.857 H 10.5 V -1.16 L 6.965,0 Z"
         style="fill:#231815;fill-opacity:1;fill-rule:nonzero;stroke:none"
         transform="matrix(1.3333333,0,0,-1.3333333,486.91667,615.57467)" />
      <path
         id="path4"
         d="M 0,0 V -1.248 C -3.138,-0.369 -5.224,0 -5.224,0 Z m 2.083,0 h 3.416 v -3.012 c -1.197,0.436 -2.345,0.819 -3.416,1.151 z m 5.5,0 h 2.548 V -4.887 C 9.273,-4.502 8.42,-4.139 7.583,-3.805 Z m 4.631,0 h 3.167 v -7.59 c -1.045,0.615 -2.104,1.19 -3.167,1.717 z m 5.25,0 h 0.953 v -9.545 c -0.315,0.223 -0.632,0.44 -0.953,0.652 z m 4.619,0 h 1.214 v -7.494 l -1.214,1.176 z m 3.297,0 h 2.25 v -9.525 c -0.401,-0.344 -0.79,-0.69 -1.168,-1.036 l -1.082,1.049 z m 4.333,0 h 2.501 v -6.072 c -0.872,-0.576 -1.706,-1.17 -2.501,-1.778 z m 4.584,0 h 2.501 v -3.451 c -0.863,-0.422 -1.696,-0.867 -2.501,-1.332 z m 4.584,0 h 2.212 V -1.666 C 40.336,-1.928 39.6,-2.211 38.881,-2.512 Z m 4.295,0 h 4.612 C 46.181,-0.244 44.649,-0.592 43.176,-1.008 Z M 61.274,0 V -0.574 C 60.381,-0.354 59.491,-0.152 58.611,0 Z m 2.083,0 h 2.451 v -1.949 c -0.815,0.291 -1.633,0.56 -2.451,0.806 z m 4.534,0 h 2.451 v -3.785 c -0.807,0.367 -1.625,0.717 -2.451,1.049 z m 4.534,0 h 2.084 v -5.861 c -0.681,0.371 -1.376,0.732 -2.084,1.086 z m 4.167,0 h 2.917 v -8.9 c -0.923,0.627 -1.895,1.246 -2.917,1.853 z m 5,0 h 1.75 v -9.455 l -1.241,-1.326 c -0.17,0.131 -0.335,0.261 -0.509,0.392 z M 85.5,-16.211 h 1.333 v -1.416 H 85.5 Z m 1.246,4.334 H 87.5 l -0.956,-2.666 H 85.5 Z M 86.833,0 h 1.01 v -4.887 h -1.01 z m 3.093,0 h 2.334 v -8.994 c -0.396,-0.309 -0.774,-0.621 -1.14,-0.938 l -1.194,3.077 z m 4.417,0 h 2.045 v -6.246 c -0.724,-0.416 -1.4,-0.836 -2.045,-1.262 z m 4.128,0 h 2.363 v -3.996 c -0.826,-0.373 -1.621,-0.748 -2.363,-1.125 z m 4.446,0 h 2.364 v -2.16 c -0.823,-0.313 -1.611,-0.623 -2.364,-0.936 z m 4.447,0 h 4.117 c -1.466,-0.469 -2.82,-0.932 -4.117,-1.393 z M -16.208,-2.168 c 0,0 14.349,4.981 32.525,-14 h -4.463 v -2.687 h 11.438 c 0,0 11.562,16.875 28.5,16.875 16.019,0 25.381,-10.172 28.994,-14.5 h -3.557 v -2.375 h 6.875 3.485 c 0,0 13.22,20.179 35.747,16.679 l 3.581,3.375 H -16.822 Z"
         style="fill:#231815;fill-opacity:1;fill-rule:nonzero;stroke:none"
         transform="matrix(1.3333333,0,0,-1.3333333,381.778,589.1164)"
         clip-path="url(#clipPath5)" />
      <path
         id="path6"
         d="m 0,0 h -2.034 c -0.587,0 -1.063,0.477 -1.063,1.064 v 0.545 h -121.138 l 0.8,-1.836 v -2.539 h 2.701 v 1.063 h 2.423 v -1.063 h 2.701 v 1.063 h 2.423 v -1.063 h 2.701 v 1.063 h 2.423 v -1.063 h 2.701 v 1.063 h 2.424 v -1.063 h 2.7 v 1.063 h 2.05 v -1.063 h 5.034 v 1.063 h 2.719 v -1.063 h 2.702 v 1.063 h 2.273 v -1.063 h 2.699 v 1.063 h 2.273 v -1.063 h 2.701 v 1.063 h 2.273 v -1.063 h 2.7 v 1.063 h 2.273 v -1.063 h 2.701 v 1.063 h 2.273 v -1.063 h 2.701 v 1.063 h 2.272 v -1.063 h 2.699 v 1.063 h 2.274 v -1.063 h 2.701 v 1.063 h 2.274 v -1.063 h 2.699 v 1.063 h 2.273 v -1.063 h 2.701 v 1.063 h 2.272 V -2.766 H -38 v 1.063 h 2.273 v -1.063 h 2.7 v 1.063 h 2.089 v -1.063 h 5.034 v 1.063 h 2.582 v -1.063 h 2.699 v 1.063 h 2.272 v -1.063 h 2.702 v 1.063 h 2.273 v -1.063 h 2.699 v 1.063 h 2.274 v -1.063 h 2.701 v 1.063 h 2.272 v -1.063 h 2.701 v 1.063 h 2.273 v -1.063 h 2.699 v 1.063 h 2.274 v -1.063 h 2.701 v 1.063 h 2.273 v -1.063 h 2.699 v 1.063 h 2.274 v -1.063 h 2.701 v 1.063 h 3.154 l 2.477,3.312 H 1.063 V 1.064 C 1.063,0.477 0.587,0 0,0"
         style="fill:#231815;fill-opacity:1;fill-rule:nonzero;stroke:none"
         transform="matrix(1.3333333,0,0,-1.3333333,523.9284,581.81947)"
         clip-path="url(#clipPath7)" />
      <path
         id="path8"
         d="m 0,0 c -0.672,-0.254 -1.431,-0.381 -2.279,-0.381 -1.947,0 -2.917,0.952 -2.917,2.858 v 5.918 h -1.891 v 1.289 l 1.951,0.241 0.309,2.897 h 1.664 V 9.963 h 3.08 V 8.395 h -3.08 V 2.577 c 0,-0.497 0.112,-0.845 0.338,-1.047 0.228,-0.201 0.614,-0.301 1.16,-0.301 0.561,0 1.117,0.068 1.665,0.202 z"
         style="fill:#f28b00;fill-opacity:1;fill-rule:nonzero;stroke:none"
         transform="matrix(1.3333333,0,0,-1.3333333,432.80987,550.632)"
         clip-path="url(#clipPath9)" />
      <path
         id="path10"
         d="M 0,0 C -0.862,0 -1.532,-0.254 -2.012,-0.756 -2.49,-1.26 -2.765,-2.006 -2.833,-2.999 H 2.279 C 2.293,-2.893 2.105,-1.041 1.717,-0.625 1.327,-0.209 0.754,0 0,0 m -2.833,-4.328 c 0.028,-1.153 0.319,-2.006 0.872,-2.557 0.556,-0.551 1.415,-0.826 2.58,-0.826 1.079,0 2.182,0.21 3.305,0.625 V -8.514 C 2.938,-9.038 1.733,-9.301 0.31,-9.301 c -1.684,0 -2.957,0.457 -3.82,1.369 -0.862,0.914 -1.293,2.261 -1.293,4.046 0,1.704 0.431,3.03 1.293,3.976 0.863,0.947 2.067,1.42 3.614,1.42 1.3,0 2.299,-0.362 2.999,-1.078 0.698,-0.719 1.047,-1.737 1.047,-3.049 0,-0.632 -0.055,-1.203 -0.166,-1.711 z"
         style="fill:#f28b00;fill-opacity:1;fill-rule:nonzero;stroke:none"
         transform="matrix(1.3333333,0,0,-1.3333333,439.38147,538.95493)"
         clip-path="url(#clipPath11)" />
      <path
         id="path12"
         d="m 0,0 v 6.923 c 0,0.671 -0.13,1.168 -0.39,1.49 -0.26,0.32 -0.671,0.483 -1.233,0.483 -0.999,0 -2.005,-0.303 -3.019,-0.906 0.014,-0.094 0.021,-0.195 0.021,-0.303 V 7.366 0 h -2.032 v 6.923 c 0,0.671 -0.131,1.168 -0.392,1.49 -0.261,0.32 -0.671,0.483 -1.231,0.483 -1.041,0 -2.04,-0.295 -2.998,-0.885 V 0 h -2.035 v 10.202 h 1.705 l 0.206,-1.026 c 1.314,0.887 2.595,1.331 3.84,1.331 1.274,0 2.136,-0.477 2.588,-1.431 1.356,0.954 2.713,1.431 4.067,1.431 0.945,0 1.671,-0.264 2.176,-0.787 C 1.781,9.196 2.034,8.453 2.034,7.487 V 0 Z"
         style="fill:#f28b00;fill-opacity:1;fill-rule:nonzero;stroke:none"
         transform="matrix(1.3333333,0,0,-1.3333333,464.1524,550.95093)"
         clip-path="url(#clipPath13)" />
      <path
         id="path14"
         d="m 0,0 c -0.973,0 -1.891,-0.309 -2.753,-0.926 v -5.615 c 0.889,-0.646 1.793,-0.967 2.711,-0.967 1.891,0 2.832,1.248 2.832,3.744 0,1.276 -0.227,2.221 -0.686,2.838 C 1.645,-0.309 0.942,0 0,0 m -4.787,-13.043 v 14.35 h 1.705 l 0.186,-1.045 c 1.041,0.898 2.197,1.349 3.47,1.349 1.327,0 2.373,-0.472 3.143,-1.42 0.765,-0.946 1.15,-2.231 1.15,-3.855 0,-1.65 -0.405,-2.973 -1.214,-3.965 -0.807,-0.993 -1.882,-1.49 -3.221,-1.49 -1.235,0 -2.296,0.395 -3.185,1.189 v -5.113 z"
         style="fill:#f28b00;fill-opacity:1;fill-rule:nonzero;stroke:none"
         transform="matrix(1.3333333,0,0,-1.3333333,475.4388,539.09027)"
         clip-path="url(#clipPath15)" />
      <path
         id="path16"
         d="M 0,0 C -0.862,0 -1.534,-0.254 -2.012,-0.756 -2.494,-1.26 -2.766,-2.006 -2.835,-2.999 H 2.28 c 0.014,0.106 0.02,0.28 0.02,0.523 0,0.818 -0.196,1.435 -0.585,1.851 C 1.324,-0.209 0.753,0 0,0 m -2.835,-4.328 c 0.027,-1.153 0.318,-2.006 0.873,-2.557 0.555,-0.551 1.414,-0.826 2.578,-0.826 1.082,0 2.184,0.21 3.306,0.625 V -8.514 C 2.938,-9.038 1.731,-9.301 0.309,-9.301 c -1.686,0 -2.959,0.457 -3.823,1.369 -0.862,0.914 -1.293,2.261 -1.293,4.046 0,1.704 0.431,3.03 1.293,3.976 0.864,0.947 2.07,1.42 3.617,1.42 1.301,0 2.301,-0.362 2.998,-1.078 0.699,-0.719 1.047,-1.737 1.047,-3.049 0,-0.632 -0.054,-1.203 -0.163,-1.711 z"
         style="fill:#f28b00;fill-opacity:1;fill-rule:nonzero;stroke:none"
         transform="matrix(1.3333333,0,0,-1.3333333,489.54427,538.95493)"
         clip-path="url(#clipPath17)" />
      <path
         id="path18"
         d="m 0,0 c -0.673,-0.254 -1.432,-0.381 -2.28,-0.381 -1.946,0 -2.918,0.952 -2.918,2.858 v 5.918 h -1.89 v 1.289 l 1.953,0.241 0.308,2.897 h 1.663 V 9.963 h 3.08 V 8.395 h -3.08 V 2.577 c 0,-0.497 0.112,-0.845 0.339,-1.047 0.225,-0.201 0.611,-0.301 1.16,-0.301 0.561,0 1.116,0.068 1.665,0.202 z"
         style="fill:#f28b00;fill-opacity:1;fill-rule:nonzero;stroke:none"
         transform="matrix(1.3333333,0,0,-1.3333333,510.0052,550.632)"
         clip-path="url(#clipPath19)" />
      <path
         id="path20"
         d="M 0,0 C 1.93,0 2.896,1.269 2.896,3.805 2.896,6.327 1.93,7.589 0,7.589 -1.932,7.589 -2.897,6.327 -2.897,3.805 -2.897,1.269 -1.932,0 0,0 m 0,-1.61 c -1.562,0 -2.78,0.475 -3.656,1.429 -0.875,0.952 -1.314,2.282 -1.314,3.986 0,1.69 0.439,3.012 1.314,3.965 C -2.78,8.724 -1.562,9.2 0,9.2 1.56,9.2 2.778,8.724 3.655,7.77 4.531,6.817 4.97,5.495 4.97,3.805 4.97,2.101 4.531,0.771 3.655,-0.181 2.778,-1.135 1.56,-1.61 0,-1.61"
         style="fill:#f28b00;fill-opacity:1;fill-rule:nonzero;stroke:none"
         transform="matrix(1.3333333,0,0,-1.3333333,516.79813,549.2088)"
         clip-path="url(#clipPath21)" />
      <path
         id="path22"
         d="M 0,0 -2.218,7.99 -4.415,0 H -6.47 l -3.408,10.202 h 2.137 l 2.34,-8.17 2.217,8.17 h 2.035 l 2.217,-8.27 2.405,8.27 H 5.546 L 2.055,0 Z"
         style="fill:#f28b00;fill-opacity:1;fill-rule:nonzero;stroke:none"
         transform="matrix(1.3333333,0,0,-1.3333333,536.46093,550.95093)"
         clip-path="url(#clipPath23)" />
      <path
         id="path24"
         d="m 0,0 v 6.821 c 0,0.713 -0.146,1.235 -0.441,1.571 -0.294,0.335 -0.757,0.504 -1.387,0.504 -1.082,0 -2.144,-0.343 -3.184,-1.027 V 0 h -2.034 v 10.202 h 1.706 l 0.205,-1.126 c 1.301,0.954 2.671,1.431 4.109,1.431 1,0 1.758,-0.26 2.28,-0.778 0.519,-0.516 0.78,-1.263 0.78,-2.242 V 0 Z"
         style="fill:#f28b00;fill-opacity:1;fill-rule:nonzero;stroke:none"
         transform="matrix(1.3333333,0,0,-1.3333333,553.71747,550.95093)"
         clip-path="url(#clipPath25)" />
      <path
         id="path26"
         d="m 0,0 c -0.45,-0.16 -0.943,-0.242 -1.478,-0.242 -0.726,0 -1.28,0.205 -1.665,0.615 -0.381,0.408 -0.574,0.996 -0.574,1.76 v 12.621 h 2.034 v -12.5 c 0,-0.309 0.065,-0.533 0.196,-0.676 0.129,-0.139 0.344,-0.209 0.647,-0.209 0.272,0 0.553,0.02 0.84,0.059 z"
         style="fill:#f28b00;fill-opacity:1;fill-rule:nonzero;stroke:none"
         transform="matrix(1.3333333,0,0,-1.3333333,429.73693,574.684)"
         clip-path="url(#clipPath27)" />
      <path
         id="path28"
         d="M 0,0 C 0.931,0 1.875,0.344 2.834,1.027 V 3.08 C 2.122,3.256 1.396,3.342 0.657,3.342 c -1.549,0 -2.32,-0.582 -2.32,-1.75 0,-0.51 0.143,-0.903 0.431,-1.178 C -0.945,0.139 -0.535,0 0,0 M 3.08,-1.246 2.916,-0.199 C 2.423,-0.615 1.878,-0.937 1.283,-1.166 0.687,-1.395 0.095,-1.51 -0.493,-1.51 c -0.974,0 -1.75,0.274 -2.332,0.819 -0.582,0.541 -0.872,1.269 -0.872,2.181 0,0.979 0.355,1.762 1.068,2.346 0.712,0.584 1.669,0.875 2.874,0.875 0.795,0 1.657,-0.113 2.589,-0.342 V 5.697 C 2.834,6.422 2.665,6.93 2.331,7.229 1.996,7.521 1.424,7.67 0.616,7.67 c -1.164,0 -2.37,-0.209 -3.615,-0.625 v 1.409 c 0.493,0.257 1.096,0.454 1.808,0.595 0.711,0.14 1.43,0.213 2.156,0.213 1.301,0 2.259,-0.268 2.876,-0.797 C 4.456,7.934 4.765,7.127 4.765,6.039 v -7.285 z"
         style="fill:#f28b00;fill-opacity:1;fill-rule:nonzero;stroke:none"
         transform="matrix(1.3333333,0,0,-1.3333333,435.18093,573.21013)"
         clip-path="url(#clipPath29)" />
      <path
         id="path30"
         d="M 0,0 V 14.895 H 2.034 V 5.756 L 6.45,10.203 H 8.936 L 4.005,5.354 9.264,0 H 6.695 L 2.034,4.83 V 0 Z"
         style="fill:#f28b00;fill-opacity:1;fill-rule:nonzero;stroke:none"
         transform="matrix(1.3333333,0,0,-1.3333333,443.75387,574.8716)"
         clip-path="url(#clipPath31)" />
      <path
         id="path32"
         d="M 0,0 C -0.862,0 -1.533,-0.254 -2.013,-0.756 -2.492,-1.26 -2.767,-2.006 -2.834,-3 H 2.28 c 0.013,0.107 0.02,0.281 0.02,0.523 0,0.819 -0.194,1.436 -0.585,1.852 C 1.326,-0.209 0.754,0 0,0 m -2.834,-4.328 c 0.028,-1.154 0.318,-2.006 0.874,-2.557 0.553,-0.551 1.411,-0.826 2.577,-0.826 1.08,0 2.183,0.209 3.306,0.625 V -8.514 C 2.937,-9.039 1.731,-9.301 0.31,-9.301 c -1.686,0 -2.958,0.457 -3.821,1.369 -0.863,0.914 -1.295,2.26 -1.295,4.045 0,1.705 0.432,3.03 1.295,3.977 0.863,0.946 2.067,1.42 3.615,1.42 1.3,0 2.3,-0.362 2.998,-1.078 0.697,-0.719 1.046,-1.737 1.046,-3.049 0,-0.633 -0.053,-1.203 -0.164,-1.711 z"
         style="fill:#f28b00;fill-opacity:1;fill-rule:nonzero;stroke:none"
         transform="matrix(1.3333333,0,0,-1.3333333,461.96093,562.87413)"
         clip-path="url(#clipPath33)" />
      <path
         id="path34"
         d="m 0,0 c -0.793,-0.402 -1.711,-0.605 -2.75,-0.605 -1.616,0 -2.852,0.453 -3.708,1.359 -0.855,0.906 -1.283,2.217 -1.283,3.933 0,1.706 0.441,3.024 1.324,3.958 0.883,0.932 2.132,1.398 3.748,1.398 0.918,0 1.78,-0.189 2.587,-0.564 V 8.051 c -0.78,0.24 -1.547,0.361 -2.299,0.361 -1.15,0 -1.979,-0.283 -2.485,-0.853 C -5.373,6.986 -5.627,6.078 -5.627,4.828 v -0.26 c 0,-1.222 0.258,-2.117 0.771,-2.687 0.512,-0.57 1.325,-0.856 2.433,-0.856 0.74,0 1.548,0.135 2.423,0.403 z"
         style="fill:#f28b00;fill-opacity:1;fill-rule:nonzero;stroke:none"
         transform="matrix(1.3333333,0,0,-1.3333333,484.7344,574.3612)"
         clip-path="url(#clipPath35)" />
      <path
         id="path36"
         d="M 0,0 C 0.93,0 1.875,0.344 2.834,1.027 V 3.08 C 2.122,3.256 1.396,3.342 0.656,3.342 c -1.547,0 -2.319,-0.582 -2.319,-1.75 0,-0.51 0.142,-0.903 0.431,-1.178 C -0.945,0.139 -0.535,0 0,0 M 3.08,-1.246 2.916,-0.199 C 2.424,-0.615 1.878,-0.937 1.283,-1.166 0.687,-1.395 0.095,-1.51 -0.493,-1.51 c -0.974,0 -1.751,0.274 -2.332,0.819 -0.582,0.541 -0.872,1.269 -0.872,2.181 0,0.979 0.355,1.762 1.067,2.346 0.712,0.584 1.67,0.875 2.875,0.875 0.794,0 1.656,-0.113 2.589,-0.342 V 5.697 C 2.834,6.422 2.666,6.93 2.331,7.229 1.995,7.521 1.423,7.67 0.616,7.67 c -1.165,0 -2.37,-0.209 -3.615,-0.625 v 1.409 c 0.492,0.257 1.095,0.454 1.807,0.595 0.712,0.14 1.43,0.213 2.156,0.213 1.303,0 2.26,-0.268 2.877,-0.797 C 4.456,7.934 4.765,7.127 4.765,6.039 v -7.285 z"
         style="fill:#f28b00;fill-opacity:1;fill-rule:nonzero;stroke:none"
         transform="matrix(1.3333333,0,0,-1.3333333,489.99733,573.21013)"
         clip-path="url(#clipPath37)" />
      <path
         id="path38"
         d="m 0,0 v 6.924 c 0,0.67 -0.131,1.168 -0.392,1.49 -0.258,0.32 -0.67,0.482 -1.231,0.482 -1,0 -2.006,-0.302 -3.019,-0.906 0.013,-0.094 0.021,-0.195 0.021,-0.303 V 7.367 0 h -2.033 v 6.924 c 0,0.67 -0.13,1.168 -0.391,1.49 -0.261,0.32 -0.671,0.482 -1.232,0.482 -1.041,0 -2.041,-0.294 -2.999,-0.884 V 0 h -2.035 v 10.203 h 1.707 l 0.205,-1.027 c 1.315,0.887 2.593,1.332 3.84,1.332 1.275,0 2.137,-0.477 2.587,-1.432 1.356,0.955 2.711,1.432 4.067,1.432 0.947,0 1.672,-0.264 2.178,-0.787 C 1.779,9.197 2.032,8.453 2.032,7.488 V 0 Z"
         style="fill:#f28b00;fill-opacity:1;fill-rule:nonzero;stroke:none"
         transform="matrix(1.3333333,0,0,-1.3333333,516.31387,574.8716)"
         clip-path="url(#clipPath39)" />
      <path
         id="path40"
         d="m 0,0 c -0.972,0 -1.889,-0.309 -2.751,-0.926 v -5.615 c 0.889,-0.646 1.793,-0.967 2.711,-0.967 1.889,0 2.835,1.248 2.835,3.744 0,1.276 -0.231,2.221 -0.689,2.838 C 1.646,-0.309 0.946,0 0,0 m -4.785,-13.043 v 14.35 h 1.705 l 0.185,-1.045 c 1.041,0.898 2.199,1.349 3.47,1.349 1.329,0 2.377,-0.473 3.144,-1.42 0.765,-0.947 1.149,-2.232 1.149,-3.855 0,-1.65 -0.403,-2.973 -1.211,-3.965 -0.808,-0.994 -1.884,-1.49 -3.226,-1.49 -1.232,0 -2.293,0.394 -3.182,1.189 v -5.113 z"
         style="fill:#f28b00;fill-opacity:1;fill-rule:nonzero;stroke:none"
         transform="matrix(1.3333333,0,0,-1.3333333,527.5964,563.0096)"
         clip-path="url(#clipPath41)" />
      <path
         id="path42"
         d="M 0,0 -0.227,1.086 C -1.5,0.16 -2.809,-0.303 -4.151,-0.303 c -0.971,0 -1.718,0.27 -2.239,0.807 -0.519,0.535 -0.779,1.293 -0.779,2.273 v 7.426 h 2.033 V 3.422 c 0,-0.727 0.144,-1.258 0.432,-1.602 0.287,-0.34 0.745,-0.513 1.376,-0.513 0.986,0 1.978,0.324 2.977,0.966 v 7.93 H 1.682 V 0 Z"
         style="fill:#f28b00;fill-opacity:1;fill-rule:nonzero;stroke:none"
         transform="matrix(1.3333333,0,0,-1.3333333,545.0716,574.8716)"
         clip-path="url(#clipPath43)" />
      <path
         id="path44"
         d="m 0,0 c 0,0.322 -0.107,0.584 -0.319,0.787 -0.212,0.199 -0.599,0.402 -1.16,0.602 l -1.745,0.644 c -1.521,0.551 -2.28,1.488 -2.28,2.819 0,0.873 0.344,1.574 1.037,2.112 0.692,0.536 1.599,0.807 2.721,0.807 1.081,0 2.101,-0.216 3.059,-0.646 V 5.717 c -1.067,0.336 -2.053,0.504 -2.957,0.504 -1.314,0 -1.971,-0.436 -1.971,-1.309 0,-0.35 0.11,-0.623 0.329,-0.826 0.22,-0.201 0.65,-0.422 1.294,-0.664 L -0.391,2.818 C 0.418,2.51 1,2.145 1.355,1.723 1.711,1.301 1.889,0.754 1.889,0.08 c 0,-0.951 -0.363,-1.709 -1.088,-2.271 -0.726,-0.565 -1.693,-0.848 -2.897,-0.848 -1.355,0 -2.532,0.256 -3.532,0.766 v 1.408 c 1.287,-0.416 2.48,-0.625 3.574,-0.625 0.669,0 1.181,0.129 1.531,0.385 C -0.176,-0.852 0,-0.482 0,0"
         style="fill:#f28b00;fill-opacity:1;fill-rule:nonzero;stroke:none"
         transform="matrix(1.3333333,0,0,-1.3333333,556.23573,571.22307)"
         clip-path="url(#clipPath45)" />
      <path
         id="path46"
         d="m 0,0 c 6.204,0 11.476,-3.936 13.494,-9.439 l 0.016,0.008 12.833,6.895 -13.76,-4.87 L 24.051,1.922 11.278,-5.455 20.738,5.672 9.566,-3.643 17.426,8.881 7.65,-2.201 13.26,11.589 5.505,-1.091 8.968,13.172 3.229,-0.364 4.051,14.006 0.887,-0.027 -0.866,14.756 -1.536,-0.082 -5.532,13.963 -3.88,-0.529 l -6.403,13.242 4.214,-14.053 -8.547,11.928 6.399,-13.164 -10.274,10.498 8.268,-12.186 -11.81,8.561 10.405,-10.211 -13.155,6.336 11.905,-8.39 -14.03,4.14 13.104,-6.494 -14.604,1.931 14.111,-4.389 -14.569,-0.382 14.479,-2 0.039,-0.002 c -0.013,0.259 -0.039,0.516 -0.039,0.778 C -14.387,-6.44 -7.946,0 0,0"
         style="fill:#231815;fill-opacity:1;fill-rule:nonzero;stroke:none"
         transform="matrix(1.3333333,0,0,-1.3333333,400.43227,522.34813)"
         clip-path="url(#clipPath47)" />
      <path
         id="path48"
         d="m 0,0 4.785,-11.082 h 0.333 l -3.103,11.74 8.02,-12.004 -5.782,13.189 8.782,-9.445 -6.9,10.897 6.65,-5.147 v 1.265 L 7.71,5.035 C 5.784,2.6 3.103,0.791 0,0"
         style="fill:#231815;fill-opacity:1;fill-rule:nonzero;stroke:none"
         transform="matrix(1.3333333,0,0,-1.3333333,405.17573,560.09547)"
         clip-path="url(#clipPath49)" />
      <path
         id="path50"
         d="M 0,0 -3.635,2.953 0,1.602 V 3.688 L -2.729,5.051 C -3.243,3.535 -4.022,2.148 -4.981,0.908 L 0,-1.758 Z"
         style="fill:#231815;fill-opacity:1;fill-rule:nonzero;stroke:none"
         transform="matrix(1.3333333,0,0,-1.3333333,422.22267,554.4236)"
         clip-path="url(#clipPath51)" />
      <path
         id="path52"
         d="m 0,0 c -7.229,-5.371 -17.733,-8.262 -26.736,-8.262 -12.652,0 -24.042,4.715 -32.671,12.6 -0.681,0.619 -0.068,1.445 0.751,0.963 9.309,-5.473 20.802,-8.742 32.704,-8.742 8.015,0 16.813,1.685 24.929,5.162 C 0.171,2.238 1.228,0.896 0,0"
         style="fill:#f28b00;fill-opacity:1;fill-rule:nonzero;stroke:none"
         transform="matrix(1.3333333,0,0,-1.3333333,336.81773,584.6216)"
         clip-path="url(#clipPath53)" />
      <path
         id="path54"
         d="M 0,0 C -0.922,1.203 -6.106,0.549 -8.459,0.273 -9.175,0.17 -9.277,0.826 -8.629,1.271 -4.503,4.199 2.285,3.373 3.068,2.373 3.853,1.375 2.864,-5.475 -1.024,-8.746 -1.604,-9.262 -2.183,-8.986 -1.911,-8.297 -1.059,-6.129 0.92,-1.207 0,0"
         style="fill:#f28b00;fill-opacity:1;fill-rule:nonzero;stroke:none"
         transform="matrix(1.3333333,0,0,-1.3333333,340.86653,579.9836)"
         clip-path="url(#clipPath55)" />
      <path
         id="path56"
         d="M 0,0 V 2.856 C 0,3.305 0.34,3.58 0.716,3.58 h 12.652 c 0.41,0 0.716,-0.31 0.716,-0.724 V 0.412 c 0,-0.412 -0.34,-0.93 -0.955,-1.79 l -6.548,-9.468 c 2.421,0.071 5.014,-0.308 7.23,-1.549 0.512,-0.275 0.648,-0.689 0.682,-1.101 v -3.029 c 0,-0.414 -0.444,-0.895 -0.92,-0.655 -3.888,2.067 -9.072,2.272 -13.369,-0.035 -0.444,-0.24 -0.886,0.24 -0.886,0.654 v 2.893 c 0,0.48 0,1.273 0.477,1.963 L 7.4,-0.689 H 0.783 C 0.307,-0.725 0,-0.448 0,0"
         style="fill:#081f2d;fill-opacity:1;fill-rule:nonzero;stroke:none"
         transform="matrix(1.3333333,0,0,-1.3333333,329.8164,550.6528)"
         clip-path="url(#clipPath57)" />
      <path
         id="path58"
         d="m 0,0 h -3.854 c -0.375,0.035 -0.647,0.311 -0.682,0.654 v 19.967 c 0,0.414 0.341,0.725 0.75,0.725 h 3.581 c 0.375,0 0.683,-0.311 0.683,-0.656 v -2.616 h 0.067 c 0.921,2.513 2.695,3.684 5.081,3.684 2.422,0 3.923,-1.171 5.014,-3.684 0.921,2.513 3.035,3.684 5.32,3.684 1.603,0 3.376,-0.688 4.467,-2.169 1.228,-1.687 0.955,-4.131 0.955,-6.266 V 0.723 C 21.382,0.311 21.042,0 20.631,0 h -3.853 c -0.375,0.035 -0.681,0.346 -0.681,0.723 v 10.57 c 0,0.825 0.067,2.926 -0.102,3.752 -0.274,1.343 -1.16,1.721 -2.252,1.721 -0.921,0 -1.91,-0.62 -2.319,-1.653 -0.409,-0.998 -0.341,-2.684 -0.341,-3.82 V 0.723 C 11.083,0.311 10.743,0 10.333,0 H 6.479 C 6.104,0.035 5.798,0.346 5.798,0.723 v 10.57 c 0,2.236 0.374,5.508 -2.388,5.508 -2.762,0 -2.66,-3.202 -2.66,-5.508 V 0.723 C 0.75,0.346 0.409,0 0,0"
         style="fill:#081f2d;fill-opacity:1;fill-rule:nonzero;stroke:none"
         transform="matrix(1.3333333,0,0,-1.3333333,268.20373,574.43147)"
         clip-path="url(#clipPath59)" />
      <path
         id="path60"
         d="m 0,0 c -2.829,0 -3,-3.891 -3,-6.334 0,-2.445 -0.034,-7.643 3,-7.643 3.002,0 3.138,4.2 3.138,6.748 0,1.686 -0.068,3.684 -0.579,5.301 C 2.081,-0.551 1.229,0 0,0 m -0.033,4.062 c 5.728,0 8.798,-4.957 8.798,-11.257 0,-6.094 -3.411,-10.912 -8.798,-10.912 -5.627,0 -8.662,4.957 -8.662,11.119 0,6.231 3.104,11.05 8.662,11.05"
         style="fill:#081f2d;fill-opacity:1;fill-rule:nonzero;stroke:none"
         transform="matrix(1.3333333,0,0,-1.3333333,363.19013,550.83773)"
         clip-path="url(#clipPath61)" />
      <path
         id="path62"
         d="M 0,0 H -3.82 C -4.195,0.035 -4.501,0.346 -4.501,0.723 V 20.69 c 0.033,0.38 0.34,0.656 0.75,0.656 h 3.581 c 0.34,0 0.613,-0.242 0.682,-0.553 V 17.73 H 0.58 c 1.09,2.719 2.592,4.028 5.251,4.028 1.74,0 3.411,-0.619 4.502,-2.341 1.023,-1.583 1.023,-4.269 1.023,-6.197 V 0.654 C 11.321,0.311 10.981,0.035 10.605,0.035 H 6.684 C 6.342,0.07 6.037,0.311 6.002,0.654 v 10.845 c 0,2.169 0.239,5.37 -2.421,5.37 C 2.66,16.869 1.773,16.25 1.363,15.286 0.819,14.08 0.75,12.842 0.75,11.499 V 0.758 C 0.75,0.346 0.409,0 0,0"
         style="fill:#081f2d;fill-opacity:1;fill-rule:nonzero;stroke:none"
         transform="matrix(1.3333333,0,0,-1.3333333,384.7884,574.43147)"
         clip-path="url(#clipPath63)" />
      <path
         id="path64"
         d="m 0,0 c -0.614,-1.102 -1.603,-1.756 -2.66,-1.756 -1.467,0 -2.354,1.137 -2.354,2.824 0,3.305 2.934,3.924 5.73,3.924 V 4.166 C 0.716,2.582 0.75,1.344 0,0 M 7.57,-1.756 C 6.854,-0.758 6.104,0.035 6.104,1.859 v 6.059 c 0,2.582 0.171,4.924 -1.705,6.68 -1.465,1.445 -3.922,1.927 -5.796,1.927 -3.65,0 -7.777,-1.378 -8.63,-5.956 -0.101,-0.481 0.274,-0.757 0.58,-0.826 L -5.729,9.33 c 0.34,0 0.612,0.344 0.682,0.723 0.306,1.584 1.636,2.342 3.103,2.342 0.784,0 1.705,-0.311 2.148,-0.999 C 0.75,10.604 0.681,9.502 0.681,8.572 V 8.057 C -1.534,7.814 -4.468,7.643 -6.549,6.713 -8.97,5.646 -10.641,3.512 -10.641,0.344 c 0,-4.028 2.524,-6.059 5.763,-6.059 2.73,0 4.23,0.654 6.345,2.824 0.681,-1.033 0.92,-1.515 2.215,-2.582 0.275,-0.138 0.649,-0.138 0.922,0.104 0.785,0.687 2.183,1.926 2.966,2.58 0.307,0.242 0.239,0.689 0,1.033"
         style="fill:#081f2d;fill-opacity:1;fill-rule:nonzero;stroke:none"
         transform="matrix(1.3333333,0,0,-1.3333333,315.4024,567.1788)"
         clip-path="url(#clipPath65)" />
      <path
         id="path66"
         d="m 0,0 c -0.614,-1.102 -1.569,-1.756 -2.66,-1.756 -1.466,0 -2.353,1.137 -2.353,2.824 0,3.305 2.932,3.924 5.729,3.924 V 4.166 C 0.716,2.582 0.75,1.344 0,0 M 7.571,-1.756 C 6.854,-0.758 6.104,0.035 6.104,1.859 v 6.059 c 0,2.582 0.171,4.924 -1.705,6.68 -1.466,1.445 -3.922,1.927 -5.797,1.927 -3.649,0 -7.742,-1.378 -8.629,-5.956 -0.101,-0.481 0.274,-0.757 0.58,-0.826 L -5.695,9.33 c 0.341,0 0.614,0.344 0.682,0.723 0.306,1.584 1.638,2.342 3.103,2.342 0.785,0 1.705,-0.311 2.149,-0.999 C 0.784,10.604 0.716,9.502 0.716,8.572 V 8.057 C -1.5,7.814 -4.434,7.643 -6.514,6.713 -8.935,5.646 -10.606,3.512 -10.606,0.344 c 0,-4.028 2.523,-6.059 5.764,-6.059 2.727,0 4.228,0.654 6.342,2.824 0.717,-1.033 0.921,-1.515 2.217,-2.582 0.273,-0.138 0.648,-0.138 0.921,0.104 0.784,0.687 2.182,1.926 2.967,2.58 0.273,0.242 0.205,0.689 -0.034,1.033"
         style="fill:#081f2d;fill-opacity:1;fill-rule:nonzero;stroke:none"
         transform="matrix(1.3333333,0,0,-1.3333333,248.05987,567.1788)"
         clip-path="url(#clipPath67)" />
    </g>
  </g>
</svg>