<svg clip-rule="evenodd" fill-rule="evenodd" stroke-linejoin="round" stroke-miterlimit="2" viewBox="0 0 560 400" xmlns="http://www.w3.org/2000/svg"><path d="m157.99 82.22v-3.76c4.64-.22 6.86-1.33 6.86-4.87v-24.99c0-4.42-.66-5.53-6.86-5.53v-3.76c5.31-.44 10.39-1.55 13.27-3.32v13.05h.22c1.99-7.52 7.74-13.05 16.81-13.05l-1.33 8.18c-5.31-.22-8.4.66-10.39 2.43-3.1 3.1-4.2 8.4-4.2 20.57 0 9.29.44 11.28 8.18 11.06v3.76h-22.56zm113.23-39.59v-4.2c5.53-.66 9.51-4.2 10.17-13.27h4.42v12.16h7.96c2.65 0 4.42-.44 5.97-.88l-1.77 5.97h-12.37v28.53c0 5.09 3.1 6.19 11.06 6.19 1.55 0 1.11 0 2.65-.22l-.88 5.31c-2.43.66-4.42.88-7.74.88-6.19 0-12.61-3.32-12.61-9.51v-30.96zm-34.06 23.44h4.42v2.43c0 7.96 3.54 9.95 10.84 9.95 5.97 0 8.85-2.65 8.85-6.41 0-12.16-24.33-8.63-24.33-24.11 0-5.97 4.42-11.06 14.82-11.5 4.87-.22 10.84 1.11 14.6.44v12.38l-4.42 1.33c0-8.63-4.2-9.29-8.85-9.29-5.31-.22-9.29.88-9.29 5.09 0 9.73 24.33 7.52 24.33 23.22 0 6.41-3.98 13.27-15.04 13.27-6.63 0-11.94-1.11-15.92-.88v-15.92zm-25.21 11.06c9.29 0 12.16-4.42 12.16-18.58 0-13.05-3.76-16.59-15.26-16.59-8.85 0-13.27 1.55-13.27 18.8-.22 10.84 4.21 16.37 16.37 16.37zm-96.2-57.72h44.89v14.59l-4.42 1.33c-.66-10.17-2.88-11.5-13.93-11.72-6.86-.22-10.39 1.33-10.39 8.4v16.14h8.4c5.75 0 6.63-3.76 6.63-8.4h4.42v21.01h-4.42c0-6.63-1.55-7.74-6.41-7.74h-8.63v11.28c0 11.5 1.77 14.15 9.29 13.93v3.76h-25.43v-3.76c4.64 0 8.18-2.43 8.18-7.96v-37.37c0-6.86-1.33-9.73-8.18-9.73zm95.32 16.58c15.04 0 20.13 9.51 20.13 21.45 0 15.26-7.74 25.88-23.44 25.88-13.49 0-20.13-8.4-20.13-22.12.22-16.58 8.84-25.21 23.44-25.21zm-170.96-35.16c1.55-.66 3.54-.88 5.53-.66.44 0 .88.22 1.33.22 5.09 1.11 8.4 5.97 7.3 11.28l-3.98 20.13zm-19.02 8.4c1.11-1.33 2.65-2.21 4.64-2.88.44-.22.88-.22 1.33-.22 5.09-1.11 10.17 1.99 11.28 7.3l4.42 19.9zm-14.15 15.49c.44-1.55 1.55-3.1 3.1-4.42.44-.44.66-.66 1.11-.88 4.2-3.1 10.17-2.21 13.27 1.99l12.38 16.35zm-6.63 19.68c-.22-1.77.22-3.54 1.11-5.31.22-.44.44-.66.66-1.11 2.65-4.64 8.4-6.19 12.83-3.54l17.91 9.95h-32.51zm1.99 20.79c-.88-1.55-1.33-3.32-1.33-5.31v-1.33c.44-5.31 5.09-9.07 10.39-8.63l20.35 1.99zm10.39 18.35c-1.33-.88-2.43-2.43-3.32-4.42-.22-.44-.22-.88-.44-1.33-1.55-4.87 1.11-10.39 5.97-11.94l19.46-6.63zm16.81 12.39c-1.55-.44-3.32-1.33-4.87-2.65-.22-.22-.66-.66-.88-.88-3.54-3.76-3.32-9.95.66-13.49l15.04-13.93zm20.57 4.42c-1.55.44-3.54.22-5.53-.44-.44-.22-.88-.22-1.11-.44-4.87-1.99-7.08-7.74-4.87-12.38l8.18-18.8zm20.34-4.2c-1.33.88-3.1 1.55-5.31 1.77h-1.33c-5.31 0-9.51-4.2-9.51-9.51l-.22-20.57zm17.03-12.17c-.88 1.55-2.21 2.88-3.98 3.76-.44.22-.66.44-1.11.44-4.87 2.21-10.39 0-12.61-4.64l-8.63-18.58zm10.62-18.13c-.22 1.77-.88 3.54-2.21 5.09-.22.44-.44.66-.88.88-3.54 3.98-9.51 4.2-13.49.88l-15.49-13.48zm2.43-20.79c.44 1.55.66 3.54 0 5.53 0 .44-.22.88-.44 1.11-1.55 5.09-6.86 7.74-11.94 6.19l-19.69-6.19zm-6.41-19.9c1.11 1.33 1.99 2.88 2.43 5.09 0 .44.22.88.22 1.33.66 5.31-3.1 9.95-8.4 10.39l-20.35 2.43zm-13.94-15.48c1.55.66 3.1 1.77 4.2 3.54.22.44.44.66.66 1.11 2.65 4.42 1.11 10.39-3.32 13.05l-17.68 10.38zm-19.02-8.63c1.77 0 3.54.44 5.31 1.55.44.22.66.44 1.11.66 4.2 3.1 5.31 9.07 2.21 13.27l-11.94 16.81z" fill-rule="nonzero" transform="matrix(1.20206 0 0 1.20206 99.6947 139.496)"/></svg>