<?xml version="1.0" encoding="utf-8"?>
<!-- Generator: Adobe Illustrator 25.0.0, SVG Export Plug-In . SVG Version: 6.00 Build 0)  -->
<svg version="1.1" id="Layer_1" xmlns="http://www.w3.org/2000/svg" xmlns:xlink="http://www.w3.org/1999/xlink" x="0px" y="0px"
	 viewBox="0 0 586 87" style="enable-background:new 0 0 586 87;" xml:space="preserve">
<style type="text/css">
	.st0{fill:#2C1115;}
	.st1{fill:#FB5872;}
</style>
<g>
	<path class="st0" d="M38.1,39.8l-1.8-0.6c-2.6-0.9-3.8-1.5-3.8-3.2v-0.2c0-2,1.8-3.1,4.1-3.1h0.2c2.5,0,4.3,0.6,7.2,1.6
		c0.3,0.1,0.7-0.1,0.7-0.4v-5c0-0.5-0.1-0.8-0.6-0.9c-0.9-0.4-4.4-1.3-7.8-1.3h-0.3c-5.5,0-10.7,3.1-10.7,9.4v0.5
		c0,5,3.3,7.7,8.5,9.4l1.6,0.5c2.7,0.9,4.2,1.6,4.2,3.5v0.1c0,2-1.7,3.2-4.5,3.2H35c-2.5,0-4-0.5-8.3-2c-0.4-0.2-0.7,0.1-0.7,0.4v5
		c0,0.6,0.2,0.8,0.6,0.9c1.2,0.6,5.4,1.7,8.9,1.7h0.3c6,0,11.2-3.1,11.2-9.5v-0.4C47,44.1,43.8,41.6,38.1,39.8z"/>
	<path class="st0" d="M77.7,27.2H54.2c-0.4,0-0.6,0.2-0.6,0.6v4.9c0,0.4,0.2,0.6,0.6,0.6h8.2v25c0,0.4,0.2,0.6,0.6,0.6h5.9
		c0.4,0,0.6-0.2,0.6-0.6v-25h8.2c0.4,0,0.6-0.2,0.6-0.6v-4.9C78.3,27.4,78.1,27.2,77.7,27.2z"/>
	<path class="st0" d="M111.7,27.2h-6.1c-0.4,0-0.6,0.2-0.6,0.6v19.6c0,4-1.8,6-5,6h-0.4c-3.2,0-5-2.1-5-6V27.8
		c0-0.4-0.2-0.6-0.6-0.6h-6.1c-0.4,0-0.6,0.2-0.6,0.6v19.3c0,8.7,5.6,12.4,12.1,12.4h0.7c6.5,0,12.1-3.7,12.1-12.4V27.8
		C112.3,27.4,112.1,27.2,111.7,27.2z"/>
	<path class="st0" d="M134.6,27.2h-11c-0.4,0-0.6,0.2-0.6,0.6v30.5c0,0.4,0.2,0.6,0.6,0.6h11c7,0,12.8-4.3,12.8-13.8v-4.2
		C147.4,31.5,141.6,27.2,134.6,27.2z M140.3,45.1c0,5.2-2.1,7.6-6.5,7.6h-3.6V33.3h3.6c4.4,0,6.5,2.4,6.5,7.6V45.1z"/>
	<path class="st0" d="M177,27.2h-19.2c-0.4,0-0.6,0.2-0.6,0.6v30.5c0,0.4,0.2,0.6,0.6,0.6H177c0.4,0,0.6-0.2,0.6-0.6v-4.9
		c0-0.4-0.2-0.6-0.6-0.6h-12.8v-7h11.5c0.4,0,0.6-0.2,0.6-0.6v-4.9c0-0.4-0.2-0.6-0.6-0.6h-11.5v-6.4H177c0.4,0,0.6-0.2,0.6-0.6
		v-4.9C177.6,27.4,177.3,27.2,177,27.2z"/>
	<path class="st0" d="M211.9,27.2H206c-0.4,0-0.6,0.2-0.6,0.6v12.6l0.7,7.7h-0.5l-3.8-7.7l-6.9-12.7c-0.2-0.3-0.4-0.5-0.8-0.5h-6.6
		c-0.4,0-0.6,0.2-0.6,0.6v30.5c0,0.4,0.2,0.6,0.6,0.6h5.9c0.4,0,0.6-0.2,0.6-0.6V45.1l-0.7-7.1h0.5l3.4,7.1l7.2,13.3
		c0.2,0.3,0.4,0.5,0.8,0.5h6.6c0.4,0,0.6-0.2,0.6-0.6V27.8C212.5,27.4,212.2,27.2,211.9,27.2z"/>
	<path class="st0" d="M245.7,27.2h-23.5c-0.4,0-0.6,0.2-0.6,0.6v4.9c0,0.4,0.2,0.6,0.6,0.6h8.2v25c0,0.4,0.2,0.6,0.6,0.6h5.9
		c0.4,0,0.6-0.2,0.6-0.6v-25h8.2c0.4,0,0.6-0.2,0.6-0.6v-4.9C246.3,27.4,246,27.2,245.7,27.2z"/>
	<path class="st0" d="M267.1,39.8l-1.8-0.6c-2.6-0.9-3.8-1.5-3.8-3.2v-0.2c0-2,1.8-3.1,4.1-3.1h0.2c2.5,0,4.3,0.6,7.2,1.6
		c0.3,0.1,0.7-0.1,0.7-0.4v-5c0-0.5-0.1-0.8-0.6-0.9c-0.9-0.4-4.4-1.3-7.8-1.3h-0.3c-5.5,0-10.7,3.1-10.7,9.4v0.5
		c0,5,3.3,7.7,8.5,9.4l1.6,0.5c2.7,0.9,4.2,1.6,4.2,3.5v0.1c0,2-1.7,3.2-4.5,3.2H264c-2.5,0-4-0.5-8.3-2c-0.4-0.2-0.7,0.1-0.7,0.4v5
		c0,0.6,0.2,0.8,0.6,0.9c1.2,0.6,5.4,1.7,8.9,1.7h0.3c6,0,11.2-3.1,11.2-9.5v-0.4C276,44.1,272.7,41.6,267.1,39.8z"/>
	<path class="st0" d="M581.9,6.2H298v0h-6.9v0H5.6v73.8h285.6v0l6.9,0v0h283.8V6.2z M575,73H298l0-12.5l-6.9,0l0,12.5H12.5V13h278.7
		l0,12.6l6.9,0l0-12.6h277V73z"/>
	<path class="st0" d="M321.7,46l1.6,0.5c2.7,0.9,4.2,1.6,4.2,3.5v0.1c0,2-1.7,3.2-4.5,3.2h-0.2c-2.5,0-4-0.5-8.3-2
		c-0.4-0.2-0.7,0.1-0.7,0.4v5c0,0.6,0.2,0.8,0.6,0.9c1.2,0.6,5.4,1.7,8.9,1.7h0.3c6,0,11.2-3.1,11.2-9.5v-0.4c0-5.5-3.2-8-8.9-9.8
		l-1.8-0.6c-2.6-0.9-3.8-1.5-3.8-3.2v-0.2c0-2,1.8-3.1,4.1-3.1h0.2c2.5,0,4.3,0.6,7.2,1.6c0.3,0.1,0.7-0.1,0.7-0.4v-5
		c0-0.5-0.1-0.8-0.6-0.9c-0.9-0.4-4.4-1.3-7.8-1.3H324c-5.5,0-10.7,3.1-10.7,9.4v0.5C313.2,41.5,316.5,44.2,321.7,46z"/>
	<path class="st0" d="M342,33.3h8.2v25c0,0.4,0.2,0.6,0.6,0.6h5.9c0.4,0,0.6-0.2,0.6-0.6v-25h8.2c0.4,0,0.6-0.2,0.6-0.6v-4.9
		c0-0.4-0.2-0.6-0.6-0.6H342c-0.4,0-0.6,0.2-0.6,0.6v4.9C341.4,33.1,341.7,33.3,342,33.3z"/>
	<path class="st0" d="M370.9,58.9h6c0.4,0,0.6-0.2,0.6-0.6l1.9-6.8h9.4l1.9,6.8c0.1,0.4,0.3,0.6,0.6,0.6h6c0.4,0,0.7-0.2,0.6-0.6
		l-8.4-30.5c-0.1-0.4-0.3-0.6-0.6-0.6h-9.4c-0.4,0-0.6,0.2-0.6,0.6l-8.4,30.5C370.2,58.7,370.6,58.9,370.9,58.9z M381.8,42l2.1-9.1
		h0.3l2.1,9.1l0.9,3.4h-6.3L381.8,42z"/>
	<path class="st0" d="M407.7,58.9h5.9c0.4,0,0.6-0.2,0.6-0.6V47.2h3.6l6.5,11.3c0.2,0.3,0.5,0.5,0.8,0.5h6.6c0.4,0,0.6-0.4,0.4-0.7
		l-4.4-7.6l-3.1-4.5c3.6-1.5,5.8-4.7,5.8-9.1v-0.4c0-6.5-4.4-9.4-10.8-9.4h-11.8c-0.4,0-0.6,0.2-0.6,0.6v30.5
		C407.1,58.7,407.3,58.9,407.7,58.9z M414.1,33.3h4.2c3.4,0,4.7,1.5,4.7,3.9v0.2c0,2.4-1.3,4.1-4.7,4.1h-4.2V33.3z"/>
	<path class="st0" d="M438.3,33.3h8.2v25c0,0.4,0.2,0.6,0.6,0.6h5.9c0.4,0,0.6-0.2,0.6-0.6v-25h8.2c0.4,0,0.6-0.2,0.6-0.6v-4.9
		c0-0.4-0.2-0.6-0.6-0.6h-23.5c-0.4,0-0.6,0.2-0.6,0.6v4.9C437.7,33.1,437.9,33.3,438.3,33.3z"/>
	<path class="st0" d="M483.6,59.5h0.7c6.5,0,12.1-3.7,12.1-12.4V27.8c0-0.4-0.2-0.6-0.6-0.6h-6.1c-0.4,0-0.6,0.2-0.6,0.6v19.6
		c0,4-1.8,6-5,6h-0.4c-3.2,0-5-2.1-5-6V27.8c0-0.4-0.2-0.6-0.6-0.6h-6.1c-0.4,0-0.6,0.2-0.6,0.6v19.3
		C471.6,55.8,477.1,59.5,483.6,59.5z"/>
	<path class="st0" d="M507.7,58.9h5.9c0.4,0,0.6-0.2,0.6-0.6v-10h4.4c6.6,0,11.6-3.5,11.6-10.6v-0.5c0-7-4.8-10.1-11.2-10.1h-11.3
		c-0.4,0-0.6,0.2-0.6,0.6v30.5C507.1,58.7,507.3,58.9,507.7,58.9z M514.1,33.3h3.7c3.5,0,5,1.5,5,4.3V38c0,2.9-1.6,4.4-5.1,4.4h-3.6
		V33.3z"/>
	<path class="st0" d="M547.3,46l1.6,0.5c2.7,0.9,4.2,1.6,4.2,3.5v0.1c0,2-1.7,3.2-4.5,3.2h-0.2c-2.5,0-4-0.5-8.3-2
		c-0.4-0.2-0.7,0.1-0.7,0.4v5c0,0.6,0.2,0.8,0.6,0.9c1.2,0.6,5.4,1.7,8.9,1.7h0.3c6,0,11.2-3.1,11.2-9.5v-0.4c0-5.5-3.2-8-8.9-9.8
		l-1.8-0.6c-2.6-0.9-3.8-1.5-3.8-3.2v-0.2c0-2,1.8-3.1,4.1-3.1h0.2c2.5,0,4.3,0.6,7.2,1.6c0.4,0.1,0.7-0.1,0.7-0.4v-5
		c0-0.5-0.1-0.8-0.6-0.9c-0.9-0.4-4.4-1.3-7.8-1.3h-0.3c-5.5,0-10.7,3.1-10.7,9.4v0.5C538.8,41.5,542.1,44.2,547.3,46z"/>
	<polygon class="st1" points="298,32.5 291.1,32.5 291.1,39.6 284.1,39.6 284.1,46.5 291.1,46.5 291.1,53.6 298,53.6 298,46.5 
		305.1,46.5 305.1,39.6 298,39.6 	"/>
</g>
</svg>
