<?xml version="1.0" encoding="UTF-8"?>
<svg id="Layer_1" data-name="Layer 1" xmlns="http://www.w3.org/2000/svg" xmlns:xlink="http://www.w3.org/1999/xlink" viewBox="0 0 302.16 68.4">
  <defs>
    <style>
      .cls-1 {
        clip-path: url(#clippath);
      }

      .cls-2 {
        fill: none;
      }

      .cls-2, .cls-3, .cls-4 {
        stroke-width: 0px;
      }

      .cls-3 {
        fill: #500778;
      }

      .cls-4 {
        fill: #bb16a3;
      }
    </style>
    <clipPath id="clippath">
      <rect class="cls-2" x="0" y="0" width="302.15" height="68.39"/>
    </clipPath>
  </defs>
  <g id="Group_69" data-name="Group 69">
    <g class="cls-1">
      <g id="Group_68" data-name="Group 68">
        <path id="Path_44" data-name="Path 44" class="cls-3" d="M25.41,35.47c1.09.02,2.15-.42,2.91-1.2.8-.77,1.24-1.83,1.23-2.94-.03-2.27-1.87-4.11-4.14-4.14h-11.82c-3.61.05-7.09-1.39-9.6-3.99C1.39,20.69-.06,17.21,0,13.6c-.05-3.61,1.39-7.09,3.99-9.6C6.5,1.4,9.98-.05,13.59,0h20.67c1.27-.01,2.48.5,3.36,1.41.9.87,1.4,2.08,1.38,3.33.02,1.25-.48,2.46-1.38,3.33-.89.9-2.1,1.4-3.36,1.38H13.59c-1.1-.02-2.16.43-2.91,1.23-.8.76-1.25,1.81-1.23,2.92-.01,1.11.43,2.17,1.23,2.94.76.78,1.82,1.22,2.91,1.2h11.82c3.61-.05,7.09,1.39,9.6,3.99,2.6,2.51,4.04,5.99,3.99,9.6.05,3.61-1.39,7.09-3.99,9.6-2.51,2.6-5.99,4.04-9.6,3.99H4.74c-1.26.02-2.48-.48-3.36-1.38-1.84-1.85-1.84-4.84,0-6.69.88-.9,2.1-1.4,3.36-1.38h20.67Z"/>
        <path id="Path_45" data-name="Path 45" class="cls-3" d="M174.95,29.62l13.5-27c1.17-2.33,4.01-3.27,6.34-2.09,1.11.56,1.96,1.54,2.36,2.72.42,1.18.33,2.49-.27,3.6l-17.7,35.45c-1.19,2.34-4.04,3.27-6.38,2.08-.9-.46-1.63-1.19-2.08-2.08l-17.73-35.4c-.58-1.13-.66-2.44-.24-3.63.36-1.2,1.21-2.19,2.34-2.73,1.13-.58,2.44-.66,3.63-.24,1.2.37,2.19,1.23,2.73,2.37l13.5,26.95Z"/>
        <path id="Path_46" data-name="Path 46" class="cls-3" d="M211.04,44.92c-2.6.02-4.72-2.08-4.74-4.68,0-.02,0-.04,0-.06V4.75c-.02-1.25.48-2.46,1.38-3.33.87-.92,2.09-1.44,3.36-1.41h29.52c1.27-.01,2.48.5,3.36,1.41.9.87,1.4,2.08,1.38,3.33.02,1.25-.48,2.46-1.38,3.33-.89.9-2.1,1.4-3.36,1.38h-24.81v8.28h18.9c1.26-.02,2.47.48,3.36,1.38,1.84,1.85,1.84,4.84,0,6.69-.89.9-2.1,1.4-3.36,1.38h-18.9v8.28h24.81c1.26-.02,2.47.48,3.36,1.38,1.84,1.85,1.84,4.84,0,6.69-.89.9-2.1,1.4-3.36,1.38h-29.52Z"/>
        <path id="Path_47" data-name="Path 47" class="cls-3" d="M260.12,44.92c-2.6.02-4.72-2.08-4.74-4.68,0-.02,0-.04,0-.06V4.75c-.02-1.25.48-2.46,1.38-3.33,1.8-1.85,4.76-1.88,6.61-.08.03.03.06.06.08.08.9.87,1.4,2.08,1.38,3.33v30.72h18.9c1.26-.02,2.47.48,3.36,1.38,1.84,1.85,1.84,4.84,0,6.69-.89.9-2.1,1.4-3.36,1.38h-23.61Z"/>
        <path id="Path_48" data-name="Path 48" class="cls-3" d="M139.5,44.92c-2.6.02-4.72-2.08-4.74-4.68,0-.02,0-.04,0-.06v-11.06c.01-2.61,2.13-4.73,4.74-4.74,1.26-.02,2.47.49,3.33,1.41.9.87,1.4,2.08,1.38,3.33v11.06c.01,2.6-2.08,4.73-4.69,4.74,0,0-.02,0-.02,0"/>
        <path id="Path_49" data-name="Path 49" class="cls-4" d="M139.5,20.54c-2.6.02-4.72-2.08-4.74-4.68,0-.02,0-.04,0-.06V4.74c-.02-1.25.48-2.46,1.38-3.33,1.8-1.85,4.76-1.89,6.6-.09.03.03.06.06.09.09.9.87,1.4,2.08,1.38,3.33v11.06c.01,2.6-2.08,4.73-4.69,4.74,0,0-.02,0-.02,0"/>
        <path id="Path_50" data-name="Path 50" class="cls-4" d="M145.62,65.16h-3.22l-.54-1.58h-4.34l-.54,1.58h-3.22l4.14-11h3.57l4.16,11ZM141.08,61.1l-1.4-4.14-1.4,4.14h2.8Z"/>
        <path id="Path_51" data-name="Path 51" class="cls-4" d="M154.66,65.16h-2.54v-4.6c.09-.63-.34-1.22-.98-1.32-.11-.02-.21-.02-.32,0-.61,0-1.19.29-1.55.78v5.15h-2.54v-7.97h2.54v.97c.69-.79,1.71-1.22,2.76-1.17.73-.06,1.44.19,1.98.69.46.5.69,1.16.66,1.84v5.64Z"/>
        <path id="Path_52" data-name="Path 52" class="cls-4" d="M165.55,65.35c-1.8.09-3.55-.54-4.88-1.75l1.5-2.13c.92.95,2.19,1.47,3.51,1.45.4.02.79-.07,1.15-.26.25-.12.41-.37.42-.65,0-.23-.15-.42-.46-.57-.37-.17-.76-.28-1.15-.33-.51-.08-1.01-.2-1.5-.35-.51-.15-1.01-.34-1.5-.56-.48-.23-.88-.58-1.15-1.03-.32-.51-.48-1.1-.46-1.7,0-.96.43-1.87,1.18-2.48.91-.72,2.05-1.09,3.21-1.02,1.63-.06,3.22.49,4.47,1.53l-1.55,2.03c-.9-.75-2.05-1.16-3.22-1.14-.79,0-1.19.26-1.19.79,0,.21.15.39.46.54.37.17.76.28,1.15.34.5.09,1,.21,1.49.35.51.15,1.01.34,1.5.57.47.23.87.58,1.15,1.02.32.49.48,1.07.46,1.65.04,1.03-.4,2.03-1.2,2.68-.98.72-2.17,1.07-3.38,1"/>
        <path id="Path_53" data-name="Path 53" class="cls-4" d="M183.21,65.16h-3l-1.67-6.9-1.67,6.9h-3l-3.16-11h3.18l1.67,7.34,1.88-7.34h2.18l1.88,7.34,1.65-7.34h3.2l-3.14,11Z"/>
        <path id="Path_54" data-name="Path 54" class="cls-4" d="M194,65.16h-6.43v-11h6.23c.87-.06,1.73.25,2.38.83.54.51.85,1.23.84,1.97.02.6-.17,1.19-.54,1.67-.33.44-.81.74-1.35.86.6.09,1.13.41,1.49.9.4.51.61,1.14.6,1.79.02.79-.28,1.56-.84,2.13-.65.6-1.51.91-2.39.86M193.15,58.38c.26,0,.51-.08.7-.26.18-.17.28-.42.27-.67,0-.25-.09-.48-.27-.65-.19-.17-.44-.26-.7-.26h-2.75v1.83h2.75ZM193.25,62.77c.29.02.58-.08.8-.27.39-.4.39-1.03,0-1.43-.22-.2-.51-.3-.8-.28h-2.85v1.98h2.85Z"/>
        <path id="Path_55" data-name="Path 55" class="cls-4" d="M204.48,65.35c-1.57.05-3.1-.52-4.26-1.59-2.26-2.27-2.27-5.94,0-8.21,1.16-1.07,2.69-1.64,4.27-1.58,2.05-.1,3.96,1.08,4.8,2.95l-2.44,1.16c-.2-.46-.52-.86-.93-1.14-.42-.3-.92-.46-1.43-.46-.83-.02-1.63.31-2.2.92-1.16,1.29-1.16,3.25,0,4.54.57.61,1.37.94,2.2.92.51,0,1.01-.16,1.43-.46.41-.28.74-.68.93-1.14l2.44,1.15c-.42.84-1.04,1.56-1.81,2.1-.88.6-1.93.89-3,.85"/>
        <path id="Path_56" data-name="Path 56" class="cls-4" d="M220.78,65.35c-1.57.05-3.1-.52-4.26-1.59-2.26-2.27-2.27-5.94,0-8.21,1.16-1.07,2.69-1.64,4.27-1.58,2.05-.1,3.96,1.08,4.8,2.95l-2.44,1.16c-.2-.46-.52-.86-.93-1.14-.41-.3-.91-.46-1.43-.46-.83-.02-1.63.31-2.2.92-1.16,1.29-1.16,3.25,0,4.54.57.61,1.37.94,2.2.92.51,0,1.01-.16,1.43-.46.41-.28.74-.68.93-1.14l2.44,1.15c-.42.84-1.04,1.56-1.81,2.1-.88.6-1.93.89-2.99.85"/>
        <path id="Path_57" data-name="Path 57" class="cls-4" d="M230.93,65.35c-1.18.05-2.32-.39-3.15-1.22-1.58-1.66-1.58-4.27,0-5.93,1.8-1.62,4.52-1.62,6.32,0,1.58,1.66,1.58,4.27,0,5.93-.84.83-1.99,1.28-3.17,1.22M229.67,62.55c.31.37.78.58,1.26.55.49.02.96-.18,1.28-.55.32-.39.49-.89.47-1.4.02-.5-.15-.99-.47-1.38-.32-.37-.79-.58-1.28-.55-.48-.02-.95.18-1.26.55-.31.39-.47.88-.45,1.38-.02.51.14,1,.45,1.4"/>
        <path id="Path_58" data-name="Path 58" class="cls-4" d="M249.47,65.16h-2.52v-4.85c.08-.51-.28-.99-.79-1.07-.09-.01-.18-.01-.26,0-.58,0-1.12.29-1.44.78v5.15h-2.54v-4.85c.08-.51-.28-.99-.79-1.07-.09-.01-.18-.01-.26,0-.57.02-1.09.31-1.42.78v5.15h-2.54v-7.97h2.54v.97c.29-.34.64-.61,1.04-.79.49-.25,1.03-.38,1.58-.38.99-.12,1.93.47,2.26,1.42.29-.42.68-.76,1.13-1,.5-.28,1.06-.42,1.62-.42.64-.04,1.28.17,1.77.6.45.48.68,1.13.63,1.79v5.78Z"/>
        <path id="Path_59" data-name="Path 59" class="cls-4" d="M256.45,65.35c-.92,0-1.79-.41-2.36-1.14v3.98h-2.54v-11.01h2.54v.92c.57-.72,1.44-1.14,2.36-1.12.96-.03,1.89.37,2.52,1.1,1.3,1.85,1.3,4.31,0,6.15-.63.73-1.56,1.13-2.52,1.1M255.61,63.1c.47.01.93-.18,1.25-.53.66-.82.66-2,0-2.82-.32-.35-.78-.54-1.25-.53-.3,0-.59.07-.85.21-.26.12-.49.29-.67.52v2.42c.18.23.41.4.67.52.26.13.55.2.85.21"/>
        <path id="Path_60" data-name="Path 60" class="cls-4" d="M268.82,65.16h-2.54v-.79c-.29.32-.65.57-1.05.72-.45.18-.94.28-1.43.27-.69,0-1.36-.24-1.89-.68-.58-.47-.89-1.19-.85-1.94-.06-.74.25-1.47.83-1.94.55-.41,1.22-.63,1.91-.62.92-.09,1.84.25,2.48.92v-.96c0-.34-.15-.65-.43-.84-.35-.23-.77-.34-1.19-.31-.83,0-1.64.29-2.26.84l-.91-1.6c1.01-.84,2.3-1.28,3.61-1.24.47,0,.94.05,1.39.16.42.1.81.27,1.17.5.37.24.66.59.84.99.21.48.31,1.01.3,1.53v4.99ZM264.86,63.69c.54.06,1.08-.16,1.42-.58v-.71c-.35-.41-.88-.62-1.42-.56-.32-.01-.64.07-.91.24-.38.26-.48.77-.22,1.15.06.09.13.16.22.22.27.17.59.25.91.24"/>
        <path id="Path_61" data-name="Path 61" class="cls-4" d="M278.83,65.16h-2.54v-4.6c.09-.63-.34-1.22-.98-1.32-.11-.02-.22-.02-.32,0-.61,0-1.19.29-1.55.78v5.15h-2.54v-7.97h2.54v.97c.69-.79,1.71-1.22,2.76-1.17.73-.06,1.44.19,1.98.69.46.5.69,1.16.66,1.84v5.64Z"/>
        <path id="Path_62" data-name="Path 62" class="cls-4" d="M280.59,68.26l.36-2.26c.19.1.41.15.63.15.59,0,.95-.15,1.07-.45l.18-.43-3.17-8.09h2.67l1.8,5.05,1.81-5.05h2.69l-3.6,9.11c-.21.68-.66,1.25-1.27,1.62-.65.32-1.37.49-2.1.48-.37,0-.73-.04-1.09-.13"/>
        <path id="Path_63" data-name="Path 63" class="cls-3" d="M89.85,2.62c-.55-1.13-1.53-1.99-2.73-2.37-.47-.16-.96-.24-1.45-.25h-.09c-.49,0-.98.09-1.45.25-1.2.38-2.18,1.24-2.73,2.37l-13.5,27L54.39,2.68c-.53-1.14-1.53-2-2.73-2.37-1.19-.42-2.5-.34-3.63.24-1.13.54-1.98,1.53-2.34,2.73-.42,1.19-.34,2.5.24,3.63l17.73,35.4c1.18,2.34,4.04,3.27,6.38,2.08.9-.46,1.63-1.19,2.08-2.08l13.49-27.03,13.54,27.03c1.18,2.34,4.04,3.27,6.38,2.08.9-.46,1.63-1.19,2.08-2.08L125.31,6.85c.6-1.11.69-2.42.27-3.6-.81-2.47-3.48-3.82-5.95-3.01-1.2.39-2.18,1.25-2.75,2.38l-13.5,27-13.5-26.94s-.03-.05-.04-.08"/>
        <path id="Path_64" data-name="Path 64" class="cls-3" d="M295.4,39.54v1.05h-1.43v4.33h-1.31v-4.33h-1.43v-1.05h4.16Z"/>
        <path id="Path_65" data-name="Path 65" class="cls-3" d="M302.16,39.54v5.38h-1.31v-3.23l-1.2,3.23h-1.06l-1.21-3.23v3.23h-1.31v-5.38h1.55l1.51,3.72,1.49-3.72h1.54Z"/>
      </g>
    </g>
  </g>
</svg>