<?xml version="1.0" encoding="UTF-8"?><svg id="Group_-_Casual_Rowdy" xmlns="http://www.w3.org/2000/svg" viewBox="0 0 583.24 187.49"><defs><style>.cls-1{fill:#002950;}.cls-2{fill:#f15a22;}</style></defs><path class="cls-2" d="M19.86,26.55L38.98,1.68h19.35l-23.91,28.55,26.15,31.75h-20.31l-20.39-26.15v26.15H4.19V1.68h15.67V26.55Z"/><path class="cls-2" d="M82.64,1.68V48.7h18.79v13.27h-34.46V1.68h15.67Z"/><path class="cls-2" d="M142.68,14.95h-18.63v10.08h17.59v13.27h-17.59v10.4h18.63v13.27h-34.3V1.68h34.3V14.95Z"/><path class="cls-2" d="M186.58,17.11c-1.71-1.38-3.41-2.41-5.12-3.08-1.71-.67-3.36-1-4.96-1-2.03,0-3.68,.48-4.96,1.44-1.28,.96-1.92,2.21-1.92,3.76,0,1.07,.32,1.95,.96,2.64,.64,.69,1.48,1.29,2.52,1.8,1.04,.51,2.21,.95,3.52,1.32,1.31,.37,2.6,.77,3.88,1.2,5.12,1.71,8.86,3.99,11.24,6.84,2.37,2.85,3.56,6.57,3.56,11.15,0,3.09-.52,5.89-1.56,8.4-1.04,2.51-2.56,4.65-4.56,6.44-2,1.79-4.45,3.17-7.36,4.16-2.91,.99-6.2,1.48-9.87,1.48-7.62,0-14.69-2.27-21.19-6.8l6.72-12.63c2.34,2.08,4.66,3.63,6.96,4.64,2.29,1.01,4.56,1.52,6.8,1.52,2.56,0,4.47-.59,5.72-1.76,1.25-1.17,1.88-2.51,1.88-4,0-.91-.16-1.69-.48-2.36-.32-.67-.85-1.28-1.6-1.84-.75-.56-1.72-1.08-2.92-1.56-1.2-.48-2.65-1.01-4.36-1.6-2.03-.64-4.01-1.35-5.96-2.12-1.95-.77-3.68-1.8-5.2-3.08-1.52-1.28-2.75-2.89-3.68-4.84-.93-1.95-1.4-4.41-1.4-7.4s.49-5.69,1.48-8.12c.99-2.42,2.37-4.5,4.16-6.24,1.79-1.73,3.97-3.08,6.56-4.04,2.58-.96,5.48-1.44,8.68-1.44,2.99,0,6.1,.41,9.36,1.24,3.25,.83,6.37,2.04,9.36,3.64l-6.24,12.23Z"/><path class="cls-2" d="M236.56,17.11c-1.71-1.38-3.41-2.41-5.12-3.08-1.71-.67-3.36-1-4.96-1-2.03,0-3.68,.48-4.96,1.44-1.28,.96-1.92,2.21-1.92,3.76,0,1.07,.32,1.95,.96,2.64,.64,.69,1.48,1.29,2.52,1.8,1.04,.51,2.21,.95,3.52,1.32,1.31,.37,2.6,.77,3.88,1.2,5.12,1.71,8.86,3.99,11.23,6.84,2.37,2.85,3.56,6.57,3.56,11.15,0,3.09-.52,5.89-1.56,8.4-1.04,2.51-2.56,4.65-4.56,6.44-2,1.79-4.45,3.17-7.36,4.16-2.9,.99-6.2,1.48-9.87,1.48-7.62,0-14.69-2.27-21.19-6.8l6.72-12.63c2.35,2.08,4.66,3.63,6.96,4.64,2.29,1.01,4.56,1.52,6.8,1.52,2.56,0,4.46-.59,5.72-1.76,1.25-1.17,1.88-2.51,1.88-4,0-.91-.16-1.69-.48-2.36-.32-.67-.85-1.28-1.6-1.84-.75-.56-1.72-1.08-2.92-1.56-1.2-.48-2.65-1.01-4.36-1.6-2.03-.64-4.01-1.35-5.96-2.12-1.95-.77-3.68-1.8-5.2-3.08-1.52-1.28-2.74-2.89-3.68-4.84-.93-1.95-1.4-4.41-1.4-7.4s.49-5.69,1.48-8.12c.99-2.42,2.37-4.5,4.16-6.24,1.79-1.73,3.97-3.08,6.56-4.04,2.58-.96,5.48-1.44,8.68-1.44,2.99,0,6.1,.41,9.36,1.24,3.25,.83,6.37,2.04,9.36,3.64l-6.24,12.23Z"/><path class="cls-2" d="M289.04,14.95h-18.63v10.08h17.59v13.27h-17.59v10.4h18.63v13.27h-34.31V1.68h34.31V14.95Z"/><path class="cls-1" d="M27.96,82.36c-2.15-1.5-4.69-2.24-7.65-2.24-2.52,0-4.68,.47-6.47,1.42-1.79,.95-3.27,2.22-4.43,3.81-1.16,1.59-2.02,3.42-2.57,5.46-.55,2.05-.83,4.17-.83,6.38,0,2.4,.28,4.67,.83,6.82,.55,2.15,1.41,4.02,2.57,5.61,1.16,1.59,2.65,2.86,4.46,3.81,1.81,.95,3.98,1.42,6.5,1.42,1.85,0,3.49-.3,4.93-.92,1.44-.61,2.68-1.46,3.72-2.54,1.04-1.08,1.86-2.37,2.45-3.87,.59-1.5,.94-3.11,1.06-4.84h5.61c-.55,5.31-2.38,9.45-5.49,12.4-3.11,2.95-7.36,4.43-12.76,4.43-3.27,0-6.12-.56-8.56-1.68-2.44-1.12-4.47-2.67-6.08-4.64-1.61-1.97-2.82-4.29-3.63-6.97-.81-2.68-1.21-5.55-1.21-8.62s.43-5.95,1.3-8.65c.87-2.7,2.14-5.05,3.81-7.06,1.67-2.01,3.76-3.59,6.26-4.75,2.5-1.16,5.36-1.74,8.59-1.74,2.2,0,4.29,.29,6.26,.89,1.97,.59,3.72,1.46,5.26,2.6,1.54,1.14,2.81,2.57,3.84,4.28,1.02,1.71,1.69,3.69,2.01,5.94h-5.61c-.63-2.99-2.02-5.24-4.16-6.73Z"/><path class="cls-1" d="M43.22,97.04c.63-1.95,1.57-3.64,2.84-5.08,1.26-1.44,2.81-2.57,4.66-3.4s3.98-1.24,6.38-1.24,4.58,.41,6.41,1.24c1.83,.83,3.38,1.96,4.64,3.4,1.26,1.44,2.2,3.13,2.84,5.08,.63,1.95,.94,4.04,.94,6.29s-.32,4.33-.94,6.26c-.63,1.93-1.57,3.61-2.84,5.05-1.26,1.44-2.8,2.56-4.64,3.37-1.83,.81-3.97,1.21-6.41,1.21s-4.53-.4-6.38-1.21c-1.85-.81-3.41-1.93-4.66-3.37-1.26-1.44-2.2-3.12-2.84-5.05-.63-1.93-.94-4.02-.94-6.26s.31-4.34,.94-6.29Zm5.11,11.22c.49,1.44,1.17,2.64,2.04,3.6,.86,.96,1.88,1.7,3.04,2.21,1.16,.51,2.39,.77,3.69,.77s2.53-.26,3.69-.77c1.16-.51,2.18-1.25,3.04-2.21,.86-.96,1.54-2.16,2.04-3.6,.49-1.44,.74-3.08,.74-4.93s-.25-3.49-.74-4.93c-.49-1.44-1.17-2.65-2.04-3.63-.87-.98-1.88-1.73-3.04-2.24-1.16-.51-2.39-.77-3.69-.77s-2.53,.26-3.69,.77c-1.16,.51-2.18,1.26-3.04,2.24-.87,.98-1.55,2.19-2.04,3.63-.49,1.44-.74,3.08-.74,4.93s.24,3.49,.74,4.93Z"/><path class="cls-1" d="M82.65,76.4v42.16h-5.02v-42.16h5.02Z"/><path class="cls-1" d="M95.09,76.4v42.16h-5.02v-42.16h5.02Z"/><path class="cls-1" d="M124.13,116.61c-2.28,1.73-5.16,2.6-8.62,2.6-2.44,0-4.56-.39-6.35-1.18-1.79-.79-3.3-1.89-4.52-3.31-1.22-1.42-2.14-3.11-2.75-5.08-.61-1.97-.95-4.11-1.03-6.44,0-2.32,.35-4.45,1.06-6.38,.71-1.93,1.7-3.6,2.98-5.02,1.28-1.42,2.79-2.52,4.55-3.31,1.75-.79,3.67-1.18,5.76-1.18,2.72,0,4.97,.56,6.76,1.68,1.79,1.12,3.23,2.55,4.31,4.28,1.08,1.73,1.83,3.62,2.24,5.67,.41,2.05,.58,4,.5,5.85h-22.85c-.04,1.34,.12,2.61,.47,3.81,.36,1.2,.93,2.26,1.71,3.19,.79,.93,1.79,1.66,3.01,2.22,1.22,.55,2.66,.83,4.31,.83,2.13,0,3.87-.49,5.23-1.48,1.36-.98,2.25-2.48,2.69-4.49h4.96c-.67,3.42-2.15,6-4.43,7.74Zm-1.21-19.6c-.45-1.06-1.06-1.98-1.83-2.75-.77-.77-1.67-1.38-2.72-1.83-1.04-.45-2.19-.68-3.46-.68s-2.47,.23-3.51,.68c-1.04,.45-1.94,1.07-2.69,1.86-.75,.79-1.34,1.7-1.77,2.75-.43,1.04-.69,2.16-.77,3.34h17.54c-.08-1.18-.34-2.3-.8-3.37Z"/><path class="cls-1" d="M157.25,127.18c-2.28,2.48-5.87,3.72-10.75,3.72-1.42,0-2.86-.16-4.34-.47-1.48-.32-2.81-.83-4.02-1.54-1.2-.71-2.19-1.63-2.98-2.78-.79-1.14-1.22-2.54-1.3-4.19h5.02c.04,.91,.32,1.67,.86,2.3s1.18,1.14,1.95,1.54c.77,.39,1.6,.68,2.51,.86,.91,.18,1.77,.27,2.6,.27,1.65,0,3.05-.29,4.19-.86,1.14-.57,2.09-1.36,2.84-2.36,.75-1,1.29-2.21,1.62-3.63,.33-1.42,.5-2.97,.5-4.66v-2.01h-.12c-.87,1.89-2.18,3.28-3.93,4.16-1.75,.89-3.61,1.33-5.58,1.33-2.28,0-4.27-.41-5.96-1.24-1.69-.83-3.11-1.94-4.25-3.34-1.14-1.4-2-3.03-2.57-4.9-.57-1.87-.86-3.85-.86-5.94,0-1.81,.24-3.67,.71-5.58,.47-1.91,1.26-3.64,2.36-5.2,1.1-1.56,2.56-2.83,4.37-3.84,1.81-1,4.03-1.51,6.67-1.51,1.93,0,3.7,.42,5.32,1.27,1.61,.85,2.87,2.12,3.78,3.81h.06v-4.37h4.72v27.93c0,5-1.14,8.74-3.42,11.22Zm-6.41-13.73c1.16-.69,2.1-1.59,2.81-2.72,.71-1.12,1.23-2.39,1.56-3.81,.33-1.42,.5-2.83,.5-4.25,0-1.34-.16-2.66-.47-3.96-.32-1.3-.82-2.47-1.5-3.51-.69-1.04-1.58-1.88-2.69-2.51-1.1-.63-2.44-.95-4.02-.95s-2.99,.31-4.13,.92c-1.14,.61-2.08,1.43-2.81,2.45-.73,1.02-1.26,2.21-1.59,3.54-.33,1.34-.5,2.74-.5,4.19,0,1.38,.14,2.76,.41,4.13,.28,1.38,.75,2.63,1.42,3.75,.67,1.12,1.55,2.03,2.66,2.72,1.1,.69,2.48,1.03,4.13,1.03s3.06-.34,4.22-1.03Z"/><path class="cls-1" d="M189.53,116.61c-2.28,1.73-5.16,2.6-8.62,2.6-2.44,0-4.56-.39-6.35-1.18-1.79-.79-3.3-1.89-4.52-3.31-1.22-1.42-2.14-3.11-2.75-5.08-.61-1.97-.95-4.11-1.03-6.44,0-2.32,.35-4.45,1.06-6.38,.71-1.93,1.7-3.6,2.98-5.02,1.28-1.42,2.79-2.52,4.55-3.31,1.75-.79,3.67-1.18,5.76-1.18,2.72,0,4.97,.56,6.76,1.68,1.79,1.12,3.23,2.55,4.31,4.28,1.08,1.73,1.83,3.62,2.24,5.67,.41,2.05,.58,4,.5,5.85h-22.85c-.04,1.34,.12,2.61,.47,3.81,.36,1.2,.93,2.26,1.71,3.19,.79,.93,1.79,1.66,3.01,2.22,1.22,.55,2.66,.83,4.31,.83,2.13,0,3.87-.49,5.23-1.48,1.36-.98,2.25-2.48,2.69-4.49h4.96c-.67,3.42-2.15,6-4.43,7.74Zm-1.21-19.6c-.45-1.06-1.06-1.98-1.83-2.75-.77-.77-1.67-1.38-2.72-1.83-1.04-.45-2.19-.68-3.46-.68s-2.47,.23-3.51,.68c-1.04,.45-1.94,1.07-2.69,1.86-.75,.79-1.34,1.7-1.77,2.75-.43,1.04-.69,2.16-.77,3.34h17.54c-.08-1.18-.34-2.3-.8-3.37Z"/><path class="cls-1" d="M215.33,97.04c.63-1.95,1.57-3.64,2.84-5.08,1.26-1.44,2.81-2.57,4.66-3.4s3.98-1.24,6.38-1.24,4.58,.41,6.41,1.24c1.83,.83,3.38,1.96,4.64,3.4,1.26,1.44,2.2,3.13,2.84,5.08,.63,1.95,.94,4.04,.94,6.29s-.32,4.33-.94,6.26c-.63,1.93-1.57,3.61-2.84,5.05-1.26,1.44-2.8,2.56-4.64,3.37-1.83,.81-3.97,1.21-6.41,1.21s-4.53-.4-6.38-1.21c-1.85-.81-3.41-1.93-4.66-3.37-1.26-1.44-2.2-3.12-2.84-5.05-.63-1.93-.94-4.02-.94-6.26s.31-4.34,.94-6.29Zm5.11,11.22c.49,1.44,1.17,2.64,2.04,3.6,.86,.96,1.88,1.7,3.04,2.21,1.16,.51,2.39,.77,3.69,.77s2.53-.26,3.69-.77c1.16-.51,2.18-1.25,3.04-2.21,.86-.96,1.54-2.16,2.04-3.6,.49-1.44,.74-3.08,.74-4.93s-.25-3.49-.74-4.93c-.49-1.44-1.17-2.65-2.04-3.63-.87-.98-1.88-1.73-3.04-2.24-1.16-.51-2.39-.77-3.69-.77s-2.53,.26-3.69,.77c-1.16,.51-2.18,1.26-3.04,2.24-.87,.98-1.55,2.19-2.04,3.63-.49,1.44-.74,3.08-.74,4.93s.24,3.49,.74,4.93Z"/><path class="cls-1" d="M245.81,92.46v-4.43h5.14v-4.55c0-2.48,.72-4.36,2.16-5.64,1.44-1.28,3.53-1.92,6.29-1.92,.47,0,1.01,.04,1.62,.12,.61,.08,1.15,.2,1.62,.36v4.37c-.43-.16-.91-.27-1.42-.33-.51-.06-.99-.09-1.42-.09-1.22,0-2.17,.24-2.83,.71-.67,.47-1,1.38-1,2.72v4.25h5.9v4.43h-5.9v26.1h-5.02v-26.1h-5.14Z"/><path class="cls-1" d="M312.71,76.4v4.72h-23.5v13.4h21.91v4.72h-21.91v14.59h23.68v4.72h-29.29v-42.16h29.11Z"/><path class="cls-1" d="M322.74,88.03v4.84h.12c2.09-3.7,5.39-5.55,9.92-5.55,2.01,0,3.68,.28,5.02,.83,1.34,.55,2.42,1.32,3.25,2.3,.83,.98,1.41,2.15,1.74,3.51,.33,1.36,.5,2.86,.5,4.52v20.08h-5.02v-20.67c0-1.89-.55-3.39-1.65-4.49-1.1-1.1-2.62-1.65-4.55-1.65-1.54,0-2.86,.24-3.98,.71-1.12,.47-2.06,1.14-2.81,2.01s-1.31,1.88-1.68,3.04c-.38,1.16-.56,2.43-.56,3.81v17.24h-5.02v-30.53h4.72Z"/><path class="cls-1" d="M373.41,127.18c-2.28,2.48-5.87,3.72-10.75,3.72-1.42,0-2.86-.16-4.34-.47-1.48-.32-2.82-.83-4.02-1.54-1.2-.71-2.19-1.63-2.98-2.78-.79-1.14-1.22-2.54-1.3-4.19h5.02c.04,.91,.33,1.67,.86,2.3,.53,.63,1.18,1.14,1.95,1.54,.77,.39,1.6,.68,2.51,.86,.91,.18,1.77,.27,2.6,.27,1.65,0,3.05-.29,4.19-.86,1.14-.57,2.09-1.36,2.83-2.36,.75-1,1.29-2.21,1.62-3.63,.33-1.42,.5-2.97,.5-4.66v-2.01h-.12c-.87,1.89-2.17,3.28-3.93,4.16-1.75,.89-3.61,1.33-5.58,1.33-2.28,0-4.27-.41-5.96-1.24-1.69-.83-3.11-1.94-4.25-3.34-1.14-1.4-2-3.03-2.57-4.9-.57-1.87-.86-3.85-.86-5.94,0-1.81,.24-3.67,.71-5.58,.47-1.91,1.26-3.64,2.36-5.2,1.1-1.56,2.56-2.83,4.37-3.84,1.81-1,4.04-1.51,6.67-1.51,1.93,0,3.7,.42,5.31,1.27s2.87,2.12,3.78,3.81h.06v-4.37h4.72v27.93c0,5-1.14,8.74-3.42,11.22Zm-6.41-13.73c1.16-.69,2.1-1.59,2.8-2.72,.71-1.12,1.23-2.39,1.56-3.81,.33-1.42,.5-2.83,.5-4.25,0-1.34-.16-2.66-.47-3.96-.32-1.3-.82-2.47-1.51-3.51-.69-1.04-1.58-1.88-2.69-2.51-1.1-.63-2.44-.95-4.01-.95s-2.99,.31-4.13,.92c-1.14,.61-2.08,1.43-2.8,2.45-.73,1.02-1.26,2.21-1.6,3.54-.33,1.34-.5,2.74-.5,4.19,0,1.38,.14,2.76,.41,4.13,.28,1.38,.75,2.63,1.42,3.75,.67,1.12,1.55,2.03,2.66,2.72,1.1,.69,2.48,1.03,4.13,1.03s3.06-.34,4.22-1.03Z"/><path class="cls-1" d="M384.14,82.54v-6.14h5.02v6.14h-5.02Zm5.02,5.49v30.53h-5.02v-30.53h5.02Z"/><path class="cls-1" d="M401.16,88.03v4.84h.12c2.09-3.7,5.39-5.55,9.92-5.55,2.01,0,3.68,.28,5.02,.83,1.34,.55,2.42,1.32,3.25,2.3,.83,.98,1.41,2.15,1.74,3.51,.33,1.36,.5,2.86,.5,4.52v20.08h-5.02v-20.67c0-1.89-.55-3.39-1.65-4.49-1.1-1.1-2.62-1.65-4.55-1.65-1.54,0-2.86,.24-3.98,.71-1.12,.47-2.06,1.14-2.81,2.01-.75,.87-1.31,1.88-1.68,3.04-.38,1.16-.56,2.43-.56,3.81v17.24h-5.02v-30.53h4.72Z"/><path class="cls-1" d="M450.44,116.61c-2.28,1.73-5.16,2.6-8.62,2.6-2.44,0-4.56-.39-6.35-1.18-1.79-.79-3.3-1.89-4.52-3.31-1.22-1.42-2.14-3.11-2.74-5.08-.61-1.97-.96-4.11-1.03-6.44,0-2.32,.36-4.45,1.06-6.38,.71-1.93,1.7-3.6,2.98-5.02,1.28-1.42,2.8-2.52,4.55-3.31,1.75-.79,3.67-1.18,5.76-1.18,2.72,0,4.97,.56,6.76,1.68,1.79,1.12,3.23,2.55,4.31,4.28,1.08,1.73,1.83,3.62,2.24,5.67,.41,2.05,.58,4,.5,5.85h-22.85c-.04,1.34,.12,2.61,.47,3.81,.36,1.2,.92,2.26,1.71,3.19,.79,.93,1.79,1.66,3.01,2.22,1.22,.55,2.66,.83,4.31,.83,2.12,0,3.87-.49,5.22-1.48,1.36-.98,2.25-2.48,2.69-4.49h4.96c-.67,3.42-2.15,6-4.43,7.74Zm-1.21-19.6c-.45-1.06-1.06-1.98-1.83-2.75-.77-.77-1.67-1.38-2.72-1.83-1.04-.45-2.19-.68-3.45-.68s-2.47,.23-3.51,.68c-1.04,.45-1.94,1.07-2.69,1.86-.75,.79-1.34,1.7-1.77,2.75-.43,1.04-.69,2.16-.77,3.34h17.54c-.08-1.18-.34-2.3-.8-3.37Z"/><path class="cls-1" d="M482.22,116.61c-2.28,1.73-5.16,2.6-8.62,2.6-2.44,0-4.56-.39-6.35-1.18-1.79-.79-3.3-1.89-4.52-3.31-1.22-1.42-2.14-3.11-2.74-5.08-.61-1.97-.96-4.11-1.03-6.44,0-2.32,.36-4.45,1.06-6.38,.71-1.93,1.7-3.6,2.98-5.02,1.28-1.42,2.8-2.52,4.55-3.31,1.75-.79,3.67-1.18,5.76-1.18,2.72,0,4.97,.56,6.76,1.68,1.79,1.12,3.23,2.55,4.31,4.28,1.08,1.73,1.83,3.62,2.24,5.67,.41,2.05,.58,4,.5,5.85h-22.85c-.04,1.34,.12,2.61,.47,3.81,.36,1.2,.92,2.26,1.71,3.19,.79,.93,1.79,1.66,3.01,2.22,1.22,.55,2.66,.83,4.31,.83,2.12,0,3.87-.49,5.22-1.48,1.36-.98,2.25-2.48,2.69-4.49h4.96c-.67,3.42-2.15,6-4.43,7.74Zm-1.21-19.6c-.45-1.06-1.06-1.98-1.83-2.75-.77-.77-1.67-1.38-2.72-1.83-1.04-.45-2.19-.68-3.45-.68s-2.47,.23-3.51,.68c-1.04,.45-1.94,1.07-2.69,1.86-.75,.79-1.34,1.7-1.77,2.75-.43,1.04-.69,2.16-.77,3.34h17.54c-.08-1.18-.34-2.3-.8-3.37Z"/><path class="cls-1" d="M496.94,88.03v6.44h.12c1.22-2.48,2.72-4.31,4.49-5.49,1.77-1.18,4.02-1.73,6.73-1.65v5.31c-2.01,0-3.72,.28-5.14,.83-1.42,.55-2.56,1.36-3.42,2.42-.87,1.06-1.5,2.35-1.89,3.87-.39,1.52-.59,3.26-.59,5.23v13.58h-5.02v-30.53h4.72Z"/><path class="cls-1" d="M512.12,82.54v-6.14h5.02v6.14h-5.02Zm5.02,5.49v30.53h-5.02v-30.53h5.02Z"/><path class="cls-1" d="M529.14,88.03v4.84h.12c2.09-3.7,5.39-5.55,9.92-5.55,2.01,0,3.68,.28,5.02,.83,1.34,.55,2.42,1.32,3.25,2.3,.83,.98,1.41,2.15,1.74,3.51,.33,1.36,.5,2.86,.5,4.52v20.08h-5.02v-20.67c0-1.89-.55-3.39-1.65-4.49-1.1-1.1-2.62-1.65-4.55-1.65-1.54,0-2.86,.24-3.99,.71-1.12,.47-2.06,1.14-2.8,2.01-.75,.87-1.31,1.88-1.68,3.04-.37,1.16-.56,2.43-.56,3.81v17.24h-5.02v-30.53h4.72Z"/><path class="cls-1" d="M579.82,127.18c-2.28,2.48-5.87,3.72-10.75,3.72-1.42,0-2.86-.16-4.34-.47-1.48-.32-2.82-.83-4.02-1.54-1.2-.71-2.19-1.63-2.98-2.78-.79-1.14-1.22-2.54-1.3-4.19h5.02c.04,.91,.33,1.67,.86,2.3,.53,.63,1.18,1.14,1.95,1.54,.77,.39,1.6,.68,2.51,.86,.91,.18,1.77,.27,2.6,.27,1.65,0,3.05-.29,4.19-.86,1.14-.57,2.09-1.36,2.83-2.36,.75-1,1.29-2.21,1.62-3.63,.33-1.42,.5-2.97,.5-4.66v-2.01h-.12c-.87,1.89-2.17,3.28-3.93,4.16-1.75,.89-3.61,1.33-5.58,1.33-2.28,0-4.27-.41-5.96-1.24-1.69-.83-3.11-1.94-4.25-3.34-1.14-1.4-2-3.03-2.57-4.9-.57-1.87-.86-3.85-.86-5.94,0-1.81,.24-3.67,.71-5.58,.47-1.91,1.26-3.64,2.36-5.2,1.1-1.56,2.56-2.83,4.37-3.84,1.81-1,4.04-1.51,6.67-1.51,1.93,0,3.7,.42,5.31,1.27,1.61,.85,2.87,2.12,3.78,3.81h.06v-4.37h4.72v27.93c0,5-1.14,8.74-3.42,11.22Zm-6.41-13.73c1.16-.69,2.1-1.59,2.8-2.72,.71-1.12,1.23-2.39,1.56-3.81,.33-1.42,.5-2.83,.5-4.25,0-1.34-.16-2.66-.47-3.96-.32-1.3-.82-2.47-1.51-3.51-.69-1.04-1.58-1.88-2.69-2.51-1.1-.63-2.44-.95-4.01-.95s-2.99,.31-4.13,.92c-1.14,.61-2.08,1.43-2.8,2.45-.73,1.02-1.26,2.21-1.6,3.54-.33,1.34-.5,2.74-.5,4.19,0,1.38,.14,2.76,.41,4.13,.28,1.38,.75,2.63,1.42,3.75,.67,1.12,1.55,2.03,2.66,2.72,1.1,.69,2.48,1.03,4.13,1.03s3.06-.34,4.22-1.03Z"/><path class="cls-1" d="M28.7,175.03c-.87,.51-2.07,.77-3.6,.77-1.3,0-2.33-.36-3.1-1.09-.77-.73-1.15-1.92-1.15-3.57-1.38,1.65-2.98,2.84-4.81,3.57-1.83,.73-3.81,1.09-5.93,1.09-1.38,0-2.69-.16-3.93-.47-1.24-.32-2.31-.81-3.22-1.48-.91-.67-1.62-1.54-2.15-2.63-.53-1.08-.8-2.39-.8-3.93,0-1.73,.3-3.15,.89-4.25,.59-1.1,1.37-2,2.33-2.69,.96-.69,2.07-1.21,3.31-1.57,1.24-.35,2.51-.65,3.81-.89,1.38-.27,2.69-.48,3.93-.62,1.24-.14,2.33-.33,3.28-.59,.94-.26,1.69-.63,2.24-1.12,.55-.49,.83-1.21,.83-2.15,0-1.1-.21-1.99-.62-2.66-.41-.67-.94-1.18-1.59-1.54-.65-.35-1.38-.59-2.18-.71-.81-.12-1.61-.18-2.39-.18-2.13,0-3.9,.4-5.32,1.21-1.42,.81-2.18,2.33-2.3,4.58H1.18c.08-1.89,.47-3.48,1.18-4.78,.71-1.3,1.65-2.35,2.83-3.16,1.18-.81,2.53-1.39,4.05-1.74,1.52-.36,3.14-.53,4.87-.53,1.38,0,2.74,.1,4.1,.3,1.36,.2,2.59,.6,3.69,1.21,1.1,.61,1.99,1.46,2.66,2.56,.67,1.1,1,2.53,1,4.3v15.67c0,1.18,.07,2.04,.21,2.59,.14,.55,.6,.82,1.39,.82,.43,0,.94-.08,1.54-.24v3.9Zm-8.15-15.65c-.63,.47-1.46,.81-2.48,1.03-1.02,.22-2.1,.39-3.22,.53-1.12,.14-2.25,.29-3.4,.47-1.14,.18-2.17,.46-3.07,.85-.91,.39-1.64,.95-2.22,1.67-.57,.73-.86,1.71-.86,2.97,0,.82,.17,1.52,.5,2.09,.33,.57,.77,1.03,1.3,1.38,.53,.35,1.15,.61,1.86,.76s1.46,.23,2.24,.23c1.65,0,3.07-.22,4.25-.68,1.18-.45,2.15-1.02,2.89-1.7s1.3-1.43,1.65-2.23c.35-.8,.53-1.56,.53-2.26v-5.11Z"/><path class="cls-1" d="M37.95,144.62v4.84h.12c2.09-3.7,5.39-5.55,9.92-5.55,2.01,0,3.68,.28,5.02,.83,1.34,.55,2.42,1.32,3.25,2.3,.83,.98,1.41,2.15,1.74,3.51,.33,1.36,.5,2.86,.5,4.52v20.08h-5.02v-20.67c0-1.89-.55-3.39-1.65-4.49-1.1-1.1-2.62-1.65-4.55-1.65-1.54,0-2.86,.24-3.99,.71-1.12,.47-2.06,1.14-2.8,2.01-.75,.87-1.31,1.88-1.68,3.04-.37,1.16-.56,2.43-.56,3.81v17.24h-5.02v-30.53h4.72Z"/><path class="cls-1" d="M87.97,175.15v-4.13h-.12c-.83,1.69-2.12,2.91-3.9,3.66s-3.72,1.12-5.85,1.12c-2.36,0-4.42-.43-6.17-1.3-1.75-.87-3.21-2.03-4.37-3.48-1.16-1.46-2.04-3.15-2.63-5.08-.59-1.93-.88-3.98-.88-6.14s.29-4.21,.86-6.14c.57-1.93,1.44-3.61,2.6-5.05,1.16-1.44,2.62-2.58,4.37-3.42,1.75-.85,3.79-1.27,6.11-1.27,.79,0,1.63,.08,2.54,.24,.9,.16,1.81,.42,2.72,.8,.91,.37,1.76,.87,2.57,1.48,.81,.61,1.48,1.37,2.04,2.27h.12v-15.71h5.02v42.16h-5.02Zm-18.04-10.84c.37,1.36,.94,2.57,1.71,3.63,.77,1.06,1.75,1.91,2.95,2.54,1.2,.63,2.61,.95,4.22,.95,1.69,0,3.13-.33,4.31-1,1.18-.67,2.15-1.54,2.89-2.63,.75-1.08,1.29-2.31,1.62-3.69,.33-1.38,.5-2.78,.5-4.19,0-1.5-.18-2.94-.53-4.34-.35-1.4-.92-2.63-1.68-3.69-.77-1.06-1.76-1.92-2.98-2.57-1.22-.65-2.7-.97-4.43-.97s-3.13,.34-4.31,1c-1.18,.67-2.13,1.56-2.84,2.66-.71,1.1-1.22,2.36-1.54,3.78-.31,1.42-.47,2.87-.47,4.37,0,1.42,.19,2.81,.56,4.16Z"/><path class="cls-1" d="M123.81,132.99v42.16h-5.61v-42.16h5.61Z"/><path class="cls-1" d="M136.54,144.62v4.84h.12c2.09-3.7,5.39-5.55,9.92-5.55,2.01,0,3.68,.28,5.02,.83,1.34,.55,2.42,1.32,3.25,2.3,.83,.98,1.41,2.15,1.74,3.51,.33,1.36,.5,2.86,.5,4.52v20.08h-5.02v-20.67c0-1.89-.55-3.39-1.65-4.49-1.1-1.1-2.62-1.65-4.55-1.65-1.54,0-2.86,.24-3.99,.71-1.12,.47-2.06,1.14-2.8,2.01-.75,.87-1.31,1.88-1.68,3.04-.37,1.16-.56,2.43-.56,3.81v17.24h-5.02v-30.53h4.72Z"/><path class="cls-1" d="M176.98,144.62v4.43h-6.08v18.95c0,.59,.05,1.06,.15,1.42s.29,.63,.56,.83c.28,.2,.66,.33,1.15,.38,.49,.06,1.13,.09,1.92,.09h2.3v4.43h-3.84c-1.3,0-2.41-.09-3.34-.27-.93-.18-1.67-.5-2.24-.97s-.99-1.14-1.27-2.01c-.28-.87-.41-2.01-.41-3.42v-19.43h-5.2v-4.43h5.2v-9.15h5.02v9.15h6.08Z"/><path class="cls-1" d="M202.67,173.2c-2.28,1.73-5.16,2.6-8.62,2.6-2.44,0-4.56-.39-6.35-1.18-1.79-.79-3.3-1.89-4.52-3.31-1.22-1.42-2.14-3.11-2.75-5.08-.61-1.97-.95-4.11-1.03-6.44,0-2.32,.35-4.45,1.06-6.38,.71-1.93,1.7-3.6,2.98-5.02,1.28-1.42,2.79-2.52,4.55-3.31,1.75-.79,3.67-1.18,5.76-1.18,2.72,0,4.97,.56,6.76,1.68,1.79,1.12,3.23,2.55,4.31,4.28,1.08,1.73,1.83,3.62,2.24,5.67,.41,2.05,.58,4,.5,5.85h-22.85c-.04,1.34,.12,2.61,.47,3.81,.36,1.2,.93,2.26,1.71,3.19,.79,.93,1.79,1.66,3.01,2.22,1.22,.55,2.66,.83,4.31,.83,2.13,0,3.87-.49,5.23-1.48,1.36-.98,2.25-2.48,2.69-4.49h4.96c-.67,3.42-2.15,6-4.43,7.74Zm-1.21-19.6c-.45-1.06-1.06-1.98-1.83-2.75-.77-.77-1.67-1.38-2.72-1.83-1.04-.45-2.19-.68-3.46-.68s-2.47,.23-3.51,.68c-1.04,.45-1.94,1.07-2.69,1.86-.75,.79-1.34,1.7-1.77,2.75-.43,1.04-.69,2.16-.77,3.34h17.54c-.08-1.18-.34-2.3-.8-3.37Z"/><path class="cls-1" d="M235.79,183.77c-2.28,2.48-5.87,3.72-10.75,3.72-1.42,0-2.86-.16-4.34-.47-1.48-.32-2.81-.83-4.02-1.54-1.2-.71-2.19-1.63-2.98-2.78-.79-1.14-1.22-2.54-1.3-4.19h5.02c.04,.91,.32,1.67,.86,2.3s1.18,1.14,1.95,1.54c.77,.39,1.6,.68,2.51,.86,.91,.18,1.77,.27,2.6,.27,1.65,0,3.05-.29,4.19-.86,1.14-.57,2.09-1.36,2.84-2.36,.75-1,1.29-2.21,1.62-3.63,.33-1.42,.5-2.97,.5-4.66v-2.01h-.12c-.87,1.89-2.18,3.28-3.93,4.16s-3.61,1.33-5.58,1.33c-2.28,0-4.27-.41-5.96-1.24-1.69-.83-3.11-1.94-4.25-3.34-1.14-1.4-2-3.03-2.57-4.9-.57-1.87-.86-3.85-.86-5.94,0-1.81,.24-3.67,.71-5.58,.47-1.91,1.26-3.64,2.36-5.2,1.1-1.56,2.56-2.83,4.37-3.84,1.81-1,4.03-1.51,6.67-1.51,1.93,0,3.7,.42,5.32,1.27,1.61,.85,2.87,2.12,3.78,3.81h.06v-4.37h4.72v27.93c0,5-1.14,8.74-3.42,11.22Zm-6.41-13.73c1.16-.69,2.1-1.59,2.81-2.72,.71-1.12,1.23-2.39,1.56-3.81,.33-1.42,.5-2.83,.5-4.25,0-1.34-.16-2.66-.47-3.96-.32-1.3-.82-2.47-1.5-3.51-.69-1.04-1.58-1.88-2.69-2.51-1.1-.63-2.44-.95-4.02-.95s-2.99,.31-4.13,.92c-1.14,.61-2.08,1.43-2.81,2.45-.73,1.02-1.26,2.21-1.59,3.54-.33,1.34-.5,2.74-.5,4.19,0,1.38,.14,2.76,.41,4.13,.28,1.38,.75,2.63,1.42,3.75,.67,1.12,1.55,2.03,2.66,2.72,1.1,.69,2.48,1.03,4.13,1.03s3.06-.34,4.22-1.03Z"/><path class="cls-1" d="M251.03,144.62v6.44h.12c1.22-2.48,2.72-4.31,4.49-5.49,1.77-1.18,4.02-1.73,6.73-1.65v5.31c-2.01,0-3.72,.28-5.14,.83-1.42,.55-2.56,1.36-3.42,2.42-.87,1.06-1.5,2.35-1.89,3.87-.39,1.52-.59,3.26-.59,5.23v13.58h-5.02v-30.53h4.72Z"/><path class="cls-1" d="M292.99,175.03c-.87,.51-2.07,.77-3.6,.77-1.3,0-2.33-.36-3.1-1.09-.77-.73-1.15-1.92-1.15-3.57-1.38,1.65-2.98,2.84-4.81,3.57-1.83,.73-3.81,1.09-5.94,1.09-1.38,0-2.69-.16-3.93-.47-1.24-.32-2.31-.81-3.22-1.48-.91-.67-1.62-1.54-2.16-2.63-.53-1.08-.8-2.39-.8-3.93,0-1.73,.3-3.15,.88-4.25,.59-1.1,1.37-2,2.33-2.69,.96-.69,2.07-1.21,3.31-1.57,1.24-.35,2.51-.65,3.81-.89,1.38-.27,2.69-.48,3.93-.62,1.24-.14,2.33-.33,3.28-.59,.94-.26,1.69-.63,2.24-1.12,.55-.49,.83-1.21,.83-2.15,0-1.1-.21-1.99-.62-2.66-.41-.67-.94-1.18-1.6-1.54-.65-.35-1.38-.59-2.18-.71-.81-.12-1.6-.18-2.39-.18-2.12,0-3.9,.4-5.31,1.21-1.42,.81-2.19,2.33-2.3,4.58h-5.02c.08-1.89,.47-3.48,1.18-4.78,.71-1.3,1.65-2.35,2.84-3.16s2.53-1.39,4.04-1.74c1.52-.36,3.14-.53,4.87-.53,1.38,0,2.75,.1,4.1,.3,1.36,.2,2.59,.6,3.69,1.21,1.1,.61,1.99,1.46,2.66,2.56,.67,1.1,1,2.53,1,4.3v15.67c0,1.18,.07,2.04,.21,2.59,.14,.55,.6,.82,1.39,.82,.43,0,.94-.08,1.53-.24v3.9Zm-8.15-15.65c-.63,.47-1.46,.81-2.48,1.03-1.02,.22-2.1,.39-3.22,.53-1.12,.14-2.25,.29-3.4,.47-1.14,.18-2.17,.46-3.07,.85s-1.64,.95-2.22,1.67c-.57,.73-.86,1.71-.86,2.97,0,.82,.17,1.52,.5,2.09,.33,.57,.77,1.03,1.3,1.38,.53,.35,1.15,.61,1.86,.76s1.46,.23,2.24,.23c1.65,0,3.07-.22,4.25-.68,1.18-.45,2.14-1.02,2.89-1.7,.75-.69,1.3-1.43,1.65-2.23,.36-.8,.53-1.56,.53-2.26v-5.11Z"/><path class="cls-1" d="M310.11,144.62v4.43h-6.08v18.95c0,.59,.05,1.06,.15,1.42,.1,.35,.29,.63,.56,.83,.28,.2,.66,.33,1.15,.38,.49,.06,1.13,.09,1.92,.09h2.3v4.43h-3.84c-1.3,0-2.41-.09-3.34-.27-.93-.18-1.67-.5-2.24-.97-.57-.47-.99-1.14-1.27-2.01-.28-.87-.41-2.01-.41-3.42v-19.43h-5.2v-4.43h5.2v-9.15h5.02v9.15h6.08Z"/><path class="cls-1" d="M335.8,173.2c-2.28,1.73-5.16,2.6-8.62,2.6-2.44,0-4.56-.39-6.35-1.18-1.79-.79-3.3-1.89-4.52-3.31-1.22-1.42-2.14-3.11-2.74-5.08-.61-1.97-.96-4.11-1.03-6.44,0-2.32,.36-4.45,1.06-6.38,.71-1.93,1.7-3.6,2.98-5.02,1.28-1.42,2.8-2.52,4.55-3.31,1.75-.79,3.67-1.18,5.76-1.18,2.72,0,4.97,.56,6.76,1.68,1.79,1.12,3.23,2.55,4.31,4.28,1.08,1.73,1.83,3.62,2.24,5.67,.41,2.05,.58,4,.5,5.85h-22.85c-.04,1.34,.12,2.61,.47,3.81,.36,1.2,.92,2.26,1.71,3.19,.79,.93,1.79,1.66,3.01,2.22,1.22,.55,2.66,.83,4.31,.83,2.12,0,3.87-.49,5.22-1.48,1.36-.98,2.25-2.48,2.69-4.49h4.96c-.67,3.42-2.15,6-4.43,7.74Zm-1.21-19.6c-.45-1.06-1.06-1.98-1.83-2.75-.77-.77-1.67-1.38-2.72-1.83-1.04-.45-2.19-.68-3.45-.68s-2.47,.23-3.51,.68c-1.04,.45-1.94,1.07-2.69,1.86-.75,.79-1.34,1.7-1.77,2.75s-.69,2.16-.77,3.34h17.54c-.08-1.18-.34-2.3-.8-3.37Z"/><path class="cls-1" d="M368.27,175.15v-4.13h-.12c-.83,1.69-2.12,2.91-3.9,3.66-1.77,.75-3.72,1.12-5.85,1.12-2.36,0-4.42-.43-6.17-1.3-1.75-.87-3.21-2.03-4.37-3.48-1.16-1.46-2.04-3.15-2.63-5.08-.59-1.93-.88-3.98-.88-6.14s.29-4.21,.86-6.14c.57-1.93,1.44-3.61,2.6-5.05,1.16-1.44,2.62-2.58,4.37-3.42,1.75-.85,3.79-1.27,6.11-1.27,.79,0,1.63,.08,2.54,.24,.9,.16,1.81,.42,2.72,.8,.91,.37,1.76,.87,2.57,1.48,.81,.61,1.48,1.37,2.04,2.27h.12v-15.71h5.02v42.16h-5.02Zm-18.04-10.84c.37,1.36,.94,2.57,1.71,3.63,.77,1.06,1.75,1.91,2.95,2.54,1.2,.63,2.61,.95,4.22,.95,1.69,0,3.13-.33,4.31-1,1.18-.67,2.15-1.54,2.89-2.63,.75-1.08,1.29-2.31,1.62-3.69,.33-1.38,.5-2.78,.5-4.19,0-1.5-.18-2.94-.53-4.34-.35-1.4-.92-2.63-1.68-3.69-.77-1.06-1.76-1.92-2.98-2.57-1.22-.65-2.7-.97-4.43-.97s-3.13,.34-4.31,1c-1.18,.67-2.13,1.56-2.84,2.66-.71,1.1-1.22,2.36-1.54,3.78-.31,1.42-.47,2.87-.47,4.37,0,1.42,.19,2.81,.56,4.16Z"/><path class="cls-1" d="M412.73,132.99c6.5,0,11.49,1.65,15,4.96,3.5,3.31,5.26,8.35,5.26,15.12,0,3.54-.39,6.68-1.18,9.42-.79,2.74-2.01,5.04-3.66,6.91-1.65,1.87-3.76,3.3-6.32,4.28-2.56,.98-5.59,1.48-9.09,1.48h-14.47v-42.16h14.47Zm.47,37.44c.63,0,1.42-.05,2.36-.15,.94-.1,1.95-.33,3.01-.71,1.06-.37,2.12-.92,3.16-1.62,1.04-.71,1.98-1.67,2.8-2.89,.83-1.22,1.51-2.75,2.04-4.58,.53-1.83,.8-4.05,.8-6.64s-.25-4.77-.74-6.76c-.49-1.99-1.3-3.68-2.42-5.08-1.12-1.4-2.57-2.46-4.34-3.19-1.77-.73-3.96-1.09-6.56-1.09h-9.45v32.71h9.33Z"/><path class="cls-1" d="M460.6,173.2c-2.28,1.73-5.16,2.6-8.62,2.6-2.44,0-4.56-.39-6.35-1.18-1.79-.79-3.3-1.89-4.52-3.31-1.22-1.42-2.14-3.11-2.74-5.08-.61-1.97-.96-4.11-1.03-6.44,0-2.32,.36-4.45,1.06-6.38,.71-1.93,1.7-3.6,2.98-5.02,1.28-1.42,2.8-2.52,4.55-3.31,1.75-.79,3.67-1.18,5.76-1.18,2.72,0,4.97,.56,6.76,1.68,1.79,1.12,3.23,2.55,4.31,4.28,1.08,1.73,1.83,3.62,2.24,5.67,.41,2.05,.58,4,.5,5.85h-22.85c-.04,1.34,.12,2.61,.47,3.81,.36,1.2,.92,2.26,1.71,3.19,.79,.93,1.79,1.66,3.01,2.22,1.22,.55,2.66,.83,4.31,.83,2.12,0,3.87-.49,5.22-1.48,1.36-.98,2.25-2.48,2.69-4.49h4.96c-.67,3.42-2.15,6-4.43,7.74Zm-1.21-19.6c-.45-1.06-1.06-1.98-1.83-2.75-.77-.77-1.67-1.38-2.72-1.83-1.04-.45-2.19-.68-3.45-.68s-2.47,.23-3.51,.68c-1.04,.45-1.94,1.07-2.69,1.86-.75,.79-1.34,1.7-1.77,2.75-.43,1.04-.69,2.16-.77,3.34h17.54c-.08-1.18-.34-2.3-.8-3.37Z"/><path class="cls-1" d="M474.65,168.33c.47,.77,1.09,1.38,1.86,1.83,.77,.45,1.63,.78,2.6,.97,.96,.2,1.96,.3,2.98,.3,.79,0,1.61-.06,2.48-.18,.87-.12,1.66-.33,2.39-.65,.73-.32,1.33-.78,1.8-1.39,.47-.61,.71-1.39,.71-2.33,0-1.3-.49-2.28-1.48-2.95-.99-.67-2.22-1.21-3.69-1.62-1.48-.41-3.08-.79-4.81-1.12-1.73-.33-3.34-.81-4.81-1.42-1.48-.61-2.71-1.47-3.69-2.57-.99-1.1-1.48-2.64-1.48-4.61,0-1.53,.34-2.85,1.03-3.96,.69-1.1,1.57-2,2.66-2.69,1.08-.69,2.3-1.2,3.66-1.54,1.36-.33,2.71-.5,4.04-.5,1.73,0,3.33,.15,4.78,.44,1.46,.3,2.74,.81,3.87,1.54,1.12,.73,2.02,1.71,2.69,2.95,.67,1.24,1.06,2.79,1.18,4.64h-5.02c-.08-.98-.33-1.8-.77-2.45-.43-.65-.99-1.17-1.65-1.57-.67-.39-1.41-.68-2.22-.86-.81-.18-1.62-.27-2.45-.27-.75,0-1.5,.06-2.27,.18-.77,.12-1.47,.32-2.1,.62-.63,.3-1.14,.69-1.54,1.18-.39,.49-.59,1.13-.59,1.92,0,.87,.31,1.58,.92,2.16,.61,.57,1.39,1.04,2.33,1.42,.95,.37,2.01,.69,3.19,.95,1.18,.26,2.36,.52,3.54,.8,1.26,.28,2.49,.61,3.69,1,1.2,.39,2.26,.92,3.19,1.57,.93,.65,1.67,1.47,2.24,2.45,.57,.98,.86,2.2,.86,3.66,0,1.85-.38,3.39-1.15,4.61-.77,1.22-1.77,2.2-3.01,2.95-1.24,.75-2.64,1.27-4.19,1.56-1.55,.3-3.1,.44-4.64,.44-1.69,0-3.31-.18-4.84-.53-1.54-.35-2.89-.93-4.08-1.74-1.18-.81-2.12-1.87-2.83-3.19s-1.1-2.92-1.18-4.81h5.02c.04,1.1,.3,2.04,.77,2.81Z"/><path class="cls-1" d="M500.31,139.13v-6.14h5.02v6.14h-5.02Zm5.02,5.49v30.53h-5.02v-30.53h5.02Z"/><path class="cls-1" d="M535.68,183.77c-2.28,2.48-5.87,3.72-10.75,3.72-1.42,0-2.86-.16-4.34-.47-1.48-.32-2.82-.83-4.02-1.54-1.2-.71-2.19-1.63-2.98-2.78-.79-1.14-1.22-2.54-1.3-4.19h5.02c.04,.91,.33,1.67,.86,2.3,.53,.63,1.18,1.14,1.95,1.54,.77,.39,1.6,.68,2.51,.86,.91,.18,1.77,.27,2.6,.27,1.65,0,3.05-.29,4.19-.86,1.14-.57,2.09-1.36,2.83-2.36,.75-1,1.29-2.21,1.62-3.63,.33-1.42,.5-2.97,.5-4.66v-2.01h-.12c-.87,1.89-2.17,3.28-3.93,4.16-1.75,.89-3.61,1.33-5.58,1.33-2.28,0-4.27-.41-5.96-1.24-1.69-.83-3.11-1.94-4.25-3.34-1.14-1.4-2-3.03-2.57-4.9-.57-1.87-.86-3.85-.86-5.94,0-1.81,.24-3.67,.71-5.58,.47-1.91,1.26-3.64,2.36-5.2,1.1-1.56,2.56-2.83,4.37-3.84,1.81-1,4.04-1.51,6.67-1.51,1.93,0,3.7,.42,5.31,1.27,1.61,.85,2.87,2.12,3.78,3.81h.06v-4.37h4.72v27.93c0,5-1.14,8.74-3.42,11.22Zm-6.41-13.73c1.16-.69,2.1-1.59,2.8-2.72s1.23-2.39,1.56-3.81c.33-1.42,.5-2.83,.5-4.25,0-1.34-.16-2.66-.47-3.96-.32-1.3-.82-2.47-1.51-3.51-.69-1.04-1.58-1.88-2.69-2.51-1.1-.63-2.44-.95-4.01-.95s-2.99,.31-4.13,.92c-1.14,.61-2.08,1.43-2.8,2.45-.73,1.02-1.26,2.21-1.6,3.54-.33,1.34-.5,2.74-.5,4.19,0,1.38,.14,2.76,.41,4.13,.28,1.38,.75,2.63,1.42,3.75,.67,1.12,1.55,2.03,2.66,2.72,1.1,.69,2.48,1.03,4.13,1.03s3.06-.34,4.22-1.03Z"/><path class="cls-1" d="M551,144.62v4.84h.12c2.09-3.7,5.39-5.55,9.92-5.55,2.01,0,3.68,.28,5.02,.83,1.34,.55,2.42,1.32,3.25,2.3,.83,.98,1.41,2.15,1.74,3.51,.33,1.36,.5,2.86,.5,4.52v20.08h-5.02v-20.67c0-1.89-.55-3.39-1.65-4.49-1.1-1.1-2.62-1.65-4.55-1.65-1.54,0-2.86,.24-3.98,.71-1.12,.47-2.06,1.14-2.81,2.01-.75,.87-1.31,1.88-1.68,3.04-.38,1.16-.56,2.43-.56,3.81v17.24h-5.02v-30.53h4.72Z"/></svg>