<?xml version="1.0" encoding="UTF-8"?><svg id="Layer_2" xmlns="http://www.w3.org/2000/svg" viewBox="0 0 411.98 68.06"><defs><style>.cls-1{fill:#002950;}.cls-2{fill:#f15a22;}</style></defs><g id="Group_-_Formal_Single"><g id="Group_-_Formal_Single_-_Condensed"><path class="cls-2" d="m156.27,1.71l-17.72,46.06c.09-1.06.14-2.13.14-3.19,0-10.46-6.94-15-15.95-17.66l-4.28-1.29c-2.91-.94-7.46-2.4-7.46-6.17s4.12-5.39,7.2-5.39c4.12,0,8.06,1.71,11.15,4.28l6.68-13.03c-5.75-3.26-13.71-5.32-20.23-5.32-8.06,0-14.72,3.33-18.6,9V1.71h-57.61v34.03c0,8.41-.6,17.57-11.4,17.57s-11.4-9.17-11.4-17.57V1.71H0v36.35c0,8.31.34,16.54,6.77,22.8,5.4,5.32,13.89,7.2,21.43,7.2s16.03-1.88,21.43-7.2c6.43-6.26,6.77-14.49,6.77-22.8V15.95h10.12v50.4h16.8V15.95h10.88c-.43,1.8-.68,3.71-.68,5.74,0,12.52,6.94,15.26,17.48,18.26,3.61,1.03,10.21,2.66,10.21,7.38s-4.2,6.51-8.15,6.51c-5.74,0-10.71-3-14.92-6.69l-7.19,13.55c6.6,4.63,14.57,7.37,22.71,7.37,6.51,0,13.29-1.79,18.34-6.08.63-.54,1.21-1.11,1.74-1.71l-2.34,6.08h17.83l4.46-11.23h23.15l4.19,11.23h17.92L174.61,1.71h-18.34Zm2.05,40.54l6.94-20.57h.18l6.85,20.57h-13.97Z"/><path class="cls-2" d="m203.85,57.98h-.03c-2.49,0-4.47,1.93-4.47,4.34s1.98,4.36,4.47,4.36,4.45-1.91,4.45-4.36-1.93-4.34-4.42-4.34Zm0,7.8c-1.96,0-3.39-1.53-3.39-3.46s1.43-3.46,3.33-3.46h.03c1.93,0,3.34,1.56,3.34,3.46s-1.4,3.48-3.31,3.46Z"/><path class="cls-2" d="m204.83,62.46v-.05c.53-.16.9-.53.9-1.03,0-.4-.19-.75-.42-.93-.32-.22-.69-.35-1.51-.35-.71,0-1.26.09-1.66.16v4.3h1v-1.72h.48c.55,0,.82.21.89.69.13.51.22.87.35,1.03h1.08c-.11-.13-.19-.4-.31-1.06-.13-.58-.38-.92-.8-1.05Zm-1.19-.31h-.48v-1.25c.11-.03.29-.05.56-.05.64,0,.92.27.92.66,0,.45-.45.64-1,.64Z"/><path class="cls-1" d="m236.66,5.92c-1.38-.96-3.02-1.44-4.92-1.44-1.62,0-3.01.3-4.16.91-1.15.61-2.1,1.43-2.85,2.45-.75,1.03-1.3,2.2-1.65,3.52-.35,1.32-.53,2.69-.53,4.1,0,1.55.18,3.01.53,4.39.35,1.38.91,2.58,1.65,3.61.75,1.03,1.7,1.84,2.87,2.45,1.17.61,2.56.91,4.18.91,1.19,0,2.25-.2,3.17-.59.92-.39,1.72-.94,2.39-1.63.67-.7,1.2-1.53,1.58-2.49.38-.96.61-2,.68-3.12h3.61c-.35,3.42-1.53,6.08-3.53,7.98-2,1.9-4.74,2.85-8.21,2.85-2.1,0-3.94-.36-5.51-1.08-1.57-.72-2.88-1.72-3.91-2.98-1.04-1.27-1.82-2.76-2.34-4.48-.52-1.72-.78-3.57-.78-5.55s.28-3.83.84-5.57c.56-1.73,1.37-3.25,2.45-4.54,1.08-1.29,2.42-2.31,4.03-3.06,1.61-.75,3.45-1.12,5.53-1.12,1.42,0,2.76.19,4.03.57,1.27.38,2.39.94,3.38,1.67.99.74,1.81,1.65,2.47,2.76.66,1.1,1.09,2.38,1.29,3.82h-3.61c-.41-1.92-1.3-3.37-2.68-4.33Z"/><path class="cls-1" d="m246.37,15.36c.4-1.25,1.01-2.34,1.82-3.27.81-.92,1.81-1.65,3-2.19,1.19-.53,2.56-.8,4.1-.8s2.95.27,4.12.8c1.18.53,2.17,1.26,2.98,2.19.81.93,1.42,2.01,1.82,3.27.4,1.25.61,2.6.61,4.05s-.2,2.79-.61,4.03c-.41,1.24-1.01,2.32-1.82,3.25-.81.92-1.81,1.65-2.98,2.17-1.18.52-2.55.78-4.12.78s-2.91-.26-4.1-.78c-1.19-.52-2.19-1.24-3-2.17-.81-.92-1.42-2.01-1.82-3.25-.41-1.24-.61-2.58-.61-4.03s.2-2.79.61-4.05Zm3.29,7.22c.32.92.75,1.7,1.31,2.32.56.62,1.21,1.1,1.96,1.42.75.33,1.54.49,2.38.49s1.63-.16,2.38-.49c.75-.33,1.4-.8,1.96-1.42.56-.62.99-1.39,1.31-2.32.32-.92.48-1.98.48-3.17s-.16-2.25-.48-3.17c-.32-.92-.75-1.7-1.31-2.34-.56-.63-1.21-1.11-1.96-1.44s-1.54-.49-2.38-.49-1.63.17-2.38.49-1.4.81-1.96,1.44c-.56.63-.99,1.41-1.31,2.34-.32.93-.48,1.98-.48,3.17s.16,2.25.48,3.17Z"/><path class="cls-1" d="m271.62,2.08v27.13h-3.23V2.08h3.23Z"/><path class="cls-1" d="m279.51,2.08v27.13h-3.23V2.08h3.23Z"/><path class="cls-1" d="m298.08,27.96c-1.47,1.11-3.32,1.67-5.55,1.67-1.57,0-2.93-.25-4.08-.76-1.15-.51-2.12-1.22-2.91-2.13-.79-.91-1.37-2-1.77-3.27-.39-1.27-.61-2.65-.67-4.14,0-1.49.23-2.86.68-4.1.46-1.24,1.1-2.32,1.92-3.23.82-.91,1.8-1.62,2.93-2.13,1.13-.51,2.36-.76,3.71-.76,1.75,0,3.2.36,4.35,1.08,1.15.72,2.08,1.64,2.77,2.75.7,1.12,1.18,2.33,1.44,3.65.27,1.32.37,2.57.32,3.76h-14.71c-.03.86.08,1.68.3,2.45.23.77.6,1.46,1.1,2.05.51.6,1.15,1.07,1.94,1.43.79.35,1.71.53,2.77.53,1.37,0,2.49-.32,3.36-.95.87-.63,1.45-1.6,1.73-2.89h3.19c-.43,2.2-1.38,3.86-2.85,4.98Zm-.78-12.62c-.29-.68-.68-1.27-1.18-1.77s-1.08-.89-1.75-1.18c-.67-.29-1.41-.44-2.22-.44s-1.59.15-2.26.44c-.67.29-1.25.69-1.73,1.2-.48.51-.86,1.1-1.14,1.77-.28.67-.44,1.39-.49,2.15h11.29c-.05-.76-.22-1.48-.51-2.17Z"/><path class="cls-1" d="m319.28,34.76c-1.47,1.6-3.77,2.39-6.92,2.39-.91,0-1.84-.1-2.79-.3-.95-.2-1.81-.53-2.58-.99-.77-.46-1.41-1.05-1.92-1.79s-.79-1.63-.84-2.7h3.23c.02.58.21,1.08.55,1.48.34.4.76.73,1.25.99.49.25,1.03.44,1.61.55.58.11,1.14.17,1.67.17,1.06,0,1.96-.18,2.7-.55.73-.37,1.34-.87,1.82-1.52.48-.65.83-1.43,1.04-2.34.21-.91.32-1.91.32-3v-1.29h-.08c-.56,1.22-1.4,2.11-2.53,2.68-1.13.57-2.32.85-3.59.85-1.47,0-2.75-.27-3.84-.8-1.09-.53-2-1.25-2.74-2.15-.73-.9-1.29-1.95-1.65-3.15-.37-1.2-.55-2.48-.55-3.82,0-1.17.15-2.36.46-3.59.3-1.23.81-2.34,1.52-3.34.71-1,1.65-1.82,2.81-2.47,1.17-.65,2.6-.97,4.29-.97,1.24,0,2.38.27,3.42.82,1.04.55,1.85,1.36,2.43,2.45h.04v-2.81h3.04v17.97c0,3.22-.73,5.62-2.2,7.22Zm-4.12-8.83c.75-.44,1.35-1.03,1.8-1.75.46-.72.79-1.54,1.01-2.45.21-.91.32-1.82.32-2.74,0-.86-.1-1.71-.3-2.55s-.53-1.59-.97-2.26c-.44-.67-1.02-1.21-1.73-1.62-.71-.4-1.57-.61-2.58-.61s-1.93.2-2.66.59c-.73.39-1.34.92-1.8,1.58-.47.66-.81,1.42-1.03,2.28-.22.86-.32,1.76-.32,2.7,0,.89.09,1.77.27,2.66.18.89.48,1.69.91,2.41.43.72,1,1.31,1.71,1.75.71.44,1.6.67,2.66.67s1.97-.22,2.72-.67Z"/><path class="cls-1" d="m339.94,27.96c-1.47,1.11-3.32,1.67-5.55,1.67-1.57,0-2.93-.25-4.08-.76-1.15-.51-2.12-1.22-2.91-2.13-.79-.91-1.37-2-1.77-3.27-.39-1.27-.61-2.65-.67-4.14,0-1.49.23-2.86.68-4.1.46-1.24,1.1-2.32,1.92-3.23.82-.91,1.8-1.62,2.93-2.13,1.13-.51,2.36-.76,3.71-.76,1.75,0,3.2.36,4.35,1.08,1.15.72,2.08,1.64,2.77,2.75.7,1.12,1.18,2.33,1.44,3.65.27,1.32.37,2.57.32,3.76h-14.71c-.03.86.08,1.68.3,2.45.23.77.6,1.46,1.1,2.05.51.6,1.15,1.07,1.94,1.43.79.35,1.71.53,2.77.53,1.37,0,2.49-.32,3.36-.95.87-.63,1.45-1.6,1.73-2.89h3.19c-.43,2.2-1.38,3.86-2.85,4.98Zm-.78-12.62c-.29-.68-.68-1.27-1.18-1.77s-1.08-.89-1.75-1.18c-.67-.29-1.41-.44-2.22-.44s-1.59.15-2.26.44c-.67.29-1.25.69-1.73,1.2-.48.51-.86,1.1-1.14,1.77-.28.67-.44,1.39-.49,2.15h11.29c-.05-.76-.22-1.48-.51-2.17Z"/><path class="cls-1" d="m219.27,52.86c.4-1.25,1.01-2.34,1.82-3.27.81-.92,1.81-1.65,3-2.19,1.19-.53,2.56-.8,4.1-.8s2.95.27,4.12.8c1.18.53,2.17,1.26,2.98,2.19.81.93,1.42,2.01,1.82,3.27.4,1.25.61,2.6.61,4.05s-.2,2.79-.61,4.03c-.41,1.24-1.01,2.32-1.82,3.25-.81.92-1.81,1.65-2.98,2.17-1.18.52-2.55.78-4.12.78s-2.91-.26-4.1-.78c-1.19-.52-2.19-1.24-3-2.17-.81-.92-1.42-2.01-1.82-3.25-.41-1.24-.61-2.58-.61-4.03s.2-2.79.61-4.05Zm3.29,7.22c.32.92.75,1.7,1.31,2.32.56.62,1.21,1.1,1.96,1.42.75.33,1.54.49,2.38.49s1.63-.16,2.38-.49c.75-.33,1.4-.8,1.96-1.42.56-.62.99-1.39,1.31-2.32.32-.92.48-1.98.48-3.17s-.16-2.25-.48-3.17c-.32-.92-.75-1.7-1.31-2.34-.56-.63-1.21-1.11-1.96-1.44s-1.54-.49-2.38-.49-1.63.17-2.38.49-1.4.81-1.96,1.44c-.56.63-.99,1.41-1.31,2.34-.32.93-.48,1.98-.48,3.17s.16,2.25.48,3.17Z"/><path class="cls-1" d="m238.79,49.91v-2.85h3.31v-2.93c0-1.6.46-2.81,1.39-3.63.92-.82,2.27-1.23,4.05-1.23.3,0,.65.03,1.05.08.39.05.74.13,1.04.23v2.81c-.28-.1-.58-.17-.91-.21-.33-.04-.63-.06-.91-.06-.79,0-1.39.15-1.82.46-.43.3-.65.89-.65,1.75v2.74h3.8v2.85h-3.8v16.8h-3.23v-16.8h-3.31Z"/><path class="cls-1" d="m276.7,43.28c-1.2-.87-2.74-1.31-4.62-1.31-.76,0-1.51.08-2.24.23-.73.15-1.39.41-1.96.76-.57.35-1.03.83-1.37,1.42-.34.6-.51,1.34-.51,2.22,0,.84.25,1.51.74,2.03.49.52,1.15.94,1.98,1.27.82.33,1.75.6,2.79.82,1.04.22,2.1.45,3.17.7,1.08.25,2.13.55,3.17.89,1.04.34,1.97.8,2.79,1.39.82.58,1.48,1.32,1.98,2.2.49.89.74,2,.74,3.34,0,1.44-.32,2.68-.97,3.71-.65,1.03-1.48,1.86-2.49,2.51s-2.15,1.11-3.4,1.41-2.5.44-3.74.44c-1.52,0-2.96-.19-4.31-.57-1.36-.38-2.55-.96-3.57-1.73-1.03-.77-1.84-1.76-2.43-2.96s-.89-2.63-.89-4.28h3.42c0,1.14.22,2.12.67,2.95.44.82,1.03,1.5,1.75,2.03.72.53,1.56.93,2.53,1.18.96.25,1.95.38,2.96.38.81,0,1.63-.08,2.45-.23.82-.15,1.56-.41,2.22-.78s1.19-.87,1.6-1.5c.4-.63.61-1.44.61-2.43,0-.94-.25-1.7-.74-2.28-.49-.58-1.15-1.06-1.98-1.43-.82-.37-1.75-.67-2.79-.89-1.04-.23-2.1-.46-3.17-.7s-2.13-.52-3.17-.84c-1.04-.32-1.97-.73-2.79-1.25-.82-.52-1.48-1.19-1.98-2.01s-.74-1.86-.74-3.1c0-1.37.28-2.55.84-3.55.56-1,1.3-1.82,2.22-2.47s1.98-1.13,3.15-1.44c1.18-.32,2.39-.47,3.63-.47,1.39,0,2.69.17,3.88.49,1.19.33,2.24.85,3.14,1.56.9.71,1.61,1.6,2.13,2.68.52,1.08.8,2.36.85,3.86h-3.42c-.2-1.95-.91-3.36-2.11-4.24Z"/><path class="cls-1" d="m298.65,50.48c-.81-.68-1.9-1.03-3.27-1.03-1.17,0-2.14.22-2.93.65-.79.43-1.41,1-1.88,1.71-.47.71-.8,1.53-1.01,2.45s-.3,1.88-.3,2.87c0,.91.11,1.8.32,2.66.22.86.55,1.63,1.01,2.3.46.67,1.05,1.21,1.79,1.62.73.41,1.61.61,2.62.61,1.6,0,2.84-.42,3.74-1.25.9-.84,1.45-2.01,1.65-3.53h3.31c-.35,2.43-1.26,4.31-2.72,5.62-1.46,1.32-3.44,1.98-5.95,1.98-1.5,0-2.82-.24-3.97-.72s-2.12-1.16-2.89-2.05c-.77-.89-1.36-1.94-1.75-3.17-.39-1.23-.59-2.58-.59-4.05s.19-2.84.57-4.12c.38-1.28.96-2.39,1.73-3.34.77-.95,1.74-1.7,2.91-2.24,1.16-.54,2.52-.82,4.07-.82,1.11,0,2.16.13,3.13.4.98.27,1.84.68,2.58,1.24.75.56,1.36,1.26,1.84,2.11.48.85.78,1.86.91,3.02h-3.34c-.25-1.24-.79-2.2-1.6-2.89Z"/><path class="cls-1" d="m307.11,43.53v-3.95h3.23v3.95h-3.23Zm3.23,3.53v19.65h-3.23v-19.65h3.23Z"/><path class="cls-1" d="m328.91,65.46c-1.47,1.11-3.32,1.67-5.55,1.67-1.57,0-2.93-.25-4.08-.76-1.15-.51-2.12-1.22-2.91-2.13-.79-.91-1.37-2-1.77-3.27-.39-1.27-.61-2.65-.67-4.14,0-1.49.23-2.86.68-4.1.46-1.24,1.1-2.32,1.92-3.23.82-.91,1.8-1.62,2.93-2.13,1.13-.51,2.36-.76,3.71-.76,1.75,0,3.2.36,4.35,1.08,1.15.72,2.08,1.64,2.77,2.75.7,1.12,1.18,2.33,1.44,3.65.27,1.32.37,2.57.32,3.76h-14.71c-.03.86.08,1.68.3,2.45.23.77.6,1.46,1.1,2.05.51.6,1.15,1.07,1.94,1.43.79.35,1.71.53,2.77.53,1.37,0,2.49-.32,3.36-.95.87-.63,1.45-1.6,1.73-2.89h3.19c-.43,2.2-1.38,3.86-2.85,4.98Zm-.78-12.62c-.29-.68-.68-1.27-1.18-1.77s-1.08-.89-1.75-1.18c-.67-.29-1.41-.44-2.22-.44s-1.59.15-2.26.44c-.67.29-1.25.69-1.73,1.2-.48.51-.86,1.1-1.14,1.77-.28.67-.44,1.39-.49,2.15h11.29c-.05-.76-.22-1.48-.51-2.17Z"/><path class="cls-1" d="m338.33,47.06v3.12h.08c1.34-2.38,3.47-3.57,6.38-3.57,1.29,0,2.37.18,3.23.53.86.35,1.56.85,2.09,1.48.53.63.91,1.39,1.12,2.26.21.87.32,1.84.32,2.91v12.92h-3.23v-13.3c0-1.22-.35-2.18-1.06-2.89-.71-.71-1.69-1.06-2.93-1.06-.99,0-1.84.15-2.56.46-.72.3-1.32.73-1.81,1.29-.48.56-.84,1.21-1.08,1.96-.24.75-.36,1.56-.36,2.45v11.1h-3.23v-19.65h3.04Z"/><path class="cls-1" d="m367.82,50.48c-.81-.68-1.9-1.03-3.27-1.03-1.17,0-2.14.22-2.93.65-.79.43-1.41,1-1.88,1.71-.47.71-.8,1.53-1.01,2.45s-.3,1.88-.3,2.87c0,.91.11,1.8.32,2.66.22.86.55,1.63,1.01,2.3.46.67,1.05,1.21,1.79,1.62.73.41,1.61.61,2.62.61,1.6,0,2.84-.42,3.74-1.25.9-.84,1.45-2.01,1.65-3.53h3.31c-.35,2.43-1.26,4.31-2.72,5.62-1.46,1.32-3.44,1.98-5.95,1.98-1.5,0-2.82-.24-3.97-.72s-2.12-1.16-2.89-2.05c-.77-.89-1.36-1.94-1.75-3.17-.39-1.23-.59-2.58-.59-4.05s.19-2.84.57-4.12c.38-1.28.96-2.39,1.73-3.34.77-.95,1.74-1.7,2.91-2.24,1.16-.54,2.52-.82,4.07-.82,1.11,0,2.16.13,3.13.4.98.27,1.84.68,2.58,1.24.75.56,1.36,1.26,1.84,2.11.48.85.78,1.86.91,3.02h-3.34c-.25-1.24-.79-2.2-1.6-2.89Z"/><path class="cls-1" d="m390.1,65.46c-1.47,1.11-3.32,1.67-5.55,1.67-1.57,0-2.93-.25-4.08-.76-1.15-.51-2.12-1.22-2.91-2.13-.79-.91-1.37-2-1.77-3.27-.39-1.27-.61-2.65-.67-4.14,0-1.49.23-2.86.68-4.1.46-1.24,1.1-2.32,1.92-3.23.82-.91,1.8-1.62,2.93-2.13,1.13-.51,2.36-.76,3.7-.76,1.75,0,3.2.36,4.35,1.08,1.15.72,2.08,1.64,2.77,2.75.7,1.12,1.18,2.33,1.44,3.65.27,1.32.37,2.57.32,3.76h-14.71c-.03.86.08,1.68.3,2.45.23.77.59,1.46,1.1,2.05.51.6,1.15,1.07,1.94,1.43.79.35,1.71.53,2.77.53,1.37,0,2.49-.32,3.36-.95.87-.63,1.45-1.6,1.73-2.89h3.19c-.43,2.2-1.38,3.86-2.85,4.98Zm-.78-12.62c-.29-.68-.68-1.27-1.18-1.77-.49-.49-1.08-.89-1.75-1.18-.67-.29-1.41-.44-2.22-.44s-1.59.15-2.26.44c-.67.29-1.25.69-1.73,1.2-.48.51-.86,1.1-1.14,1.77-.28.67-.44,1.39-.49,2.15h11.29c-.05-.76-.22-1.48-.51-2.17Z"/><path class="cls-1" d="m399.03,62.32c.3.49.7.89,1.2,1.18.49.29,1.05.5,1.67.63.62.13,1.26.19,1.92.19.51,0,1.04-.04,1.6-.11.56-.08,1.07-.22,1.54-.42.47-.2.85-.5,1.16-.89.3-.39.46-.89.46-1.5,0-.84-.32-1.47-.95-1.9-.63-.43-1.42-.78-2.38-1.04-.95-.27-1.98-.51-3.1-.72-1.11-.22-2.15-.52-3.1-.91-.95-.39-1.74-.94-2.38-1.65-.63-.71-.95-1.7-.95-2.96,0-.99.22-1.84.67-2.55.44-.71,1.01-1.29,1.71-1.73.7-.44,1.48-.77,2.36-.99s1.74-.32,2.6-.32c1.12,0,2.14.1,3.08.29s1.77.52,2.49.99c.72.47,1.3,1.1,1.73,1.9.43.8.68,1.79.76,2.98h-3.23c-.05-.63-.22-1.16-.49-1.58s-.63-.75-1.06-1.01c-.43-.25-.91-.44-1.42-.55-.52-.11-1.05-.17-1.58-.17-.48,0-.97.04-1.46.11-.49.08-.94.21-1.35.4-.41.19-.73.44-.99.76-.25.32-.38.73-.38,1.23,0,.56.2,1.02.59,1.39.39.37.89.67,1.5.91.61.24,1.29.44,2.05.61.76.17,1.52.34,2.28.51.81.18,1.6.39,2.38.65.77.25,1.46.59,2.05,1.01.59.42,1.08.94,1.44,1.58.37.63.55,1.42.55,2.36,0,1.19-.25,2.18-.74,2.96-.49.79-1.14,1.42-1.94,1.9-.8.48-1.7.82-2.7,1.01-1,.19-2,.29-2.98.29-1.09,0-2.13-.11-3.12-.34-.99-.23-1.86-.6-2.62-1.12-.76-.52-1.37-1.2-1.82-2.05-.46-.85-.71-1.88-.76-3.1h3.23c.02.71.19,1.31.49,1.8Z"/></g></g></svg>