<?xml version="1.0" encoding="utf-8"?>
<!-- Generator: Adobe Illustrator 28.2.0, SVG Export Plug-In . SVG Version: 6.00 Build 0)  -->
<svg version="1.1" id="Layer_1" xmlns="http://www.w3.org/2000/svg" xmlns:xlink="http://www.w3.org/1999/xlink" x="0px" y="0px"
	 viewBox="0 0 595.3 832.5" style="enable-background:new 0 0 595.3 832.5;" xml:space="preserve">
<style type="text/css">
	.st0{fill:#996828;stroke:#996828;stroke-miterlimit:10;}
	.st1{fill:#824F20;}
	.st2{fill:#603A17;}
	.st3{fill:#996828;}
	.st4{fill:#A57941;}
</style>
<g id="dirt_base">
	<path class="st0" d="M-16.9-7.8c-0.1,0-0.1,0-0.2,0v845.5h2V-7.8H-16.9z"/>
	<rect x="-13" y="-7.8" class="st0" width="0.1" height="845.5"/>
	<path class="st0" d="M598.8,837.7V-7.8h-46.4c-20.6,0.7-41.3,1.1-61.9,1.3C447.3-6.1,404-6.4,360.7-6.6c-42.8-0.2-85.6-0.4-128.4-1
		c-4.9-0.1-9.8-0.2-14.7-0.2H-10.8v845.4h2.2v-1.1c0-1.3,2-1.3,2,0v1.1L598.8,837.7L598.8,837.7z M142.4,521.6c0-1.3,2-1.3,2,0v7.4
		c0,1.3-2,1.3-2,0V521.6z"/>
</g>
<g id="unda">
	<g>
		<path class="st1" d="M-2.8,838.6V541.5h-0.1L-2.8,838.6L-2.8,838.6L-2.8,838.6z"/>
		<g>
			<path class="st1" d="M-0.3,838.6c0-2.7,0-5.3,0-8c0-7.2,0-14.4,0-21.6c0-10.7,0-21.3,0-32c0-13,0-26,0-39c0-14.2,0-28.4,0-42.6
				c0-14.4,0-28.9,0-43.3c0-13.4,0-26.7,0-40.1c0-11.3,0-22.7,0-34c0-8.2,0-16.3,0-24.5c0-3.8,0.1-7.7,0-11.5c0-0.2,0-0.3,0-0.5
				c0-1.5-1.6-2.9-3.2-2.4h-0.1c-1,0.4-1.8,1.3-1.8,2.4c0,2.7,0,5.3,0,8c0,7.2,0,14.4,0,21.6c0,10.7,0,21.3,0,32c0,13,0,26,0,39
				c0,14.2,0,28.4,0,42.6c0,14.4,0,28.9,0,43.3c0,13.4,0,26.7,0,40.1c0,11.3,0,22.7,0,34c0,8.2,0,16.3,0,24.4c0,3.8-0.1,7.7,0,11.5
				c0,0.2,0,0.3,0,0.5c0,1.3,1.2,2.5,2.5,2.5h0.1c3.2,0,3.2-5,0-5h-0.1C-2.1,836.8-1.2,837.7-0.3,838.6c-0.1-2.8-0.1-5.4-0.1-8.1
				c0-7.2,0-14.4,0-21.6c0-10.7,0-21.3,0-32c0-13,0-26,0-39c0-14.2,0-28.4,0-42.6c0-14.4,0-28.9,0-43.3c0-13.4,0-26.7,0-40.1
				c0-11.3,0-22.7,0-34c0-8.2,0-16.3,0-24.4c0-3.8,0.2-7.7,0-11.5c0-0.2,0-0.3,0-0.5c-0.6,0.8-1.2,1.6-1.8,2.4h0.1
				c-1-0.8-2.1-1.6-3.2-2.4c0,2.7,0,5.3,0,8c0,7.2,0,14.4,0,21.6c0,10.7,0,21.3,0,32c0,13,0,26,0,39c0,14.2,0,28.4,0,42.6
				c0,14.4,0,28.9,0,43.3c0,13.4,0,26.7,0,40.1c0,11.3,0,22.7,0,34c0,8.2,0,16.3,0,24.5c0,3.8-0.1,7.7,0,11.5c0,0.2,0,0.3,0,0.5
				C-5.3,841.8-0.3,841.8-0.3,838.6z"/>
		</g>
	</g>
	<g>
		<g>
			<path class="st1" d="M598.8,838.6V453.3c-4.7,0.1-9-2.6-12.9-5.3c-27.2-18.3-55.4-35.1-84.4-50.3c-4.7-2.5-9.5-4.9-14.8-5.2
				c-5.6-0.3-11,2-16,4.5c-57,28.6-92.7,96.3-155.4,107.9c-41.5,7.6-83.9-12.2-125.8-7.7c-35.4,3.8-66.4,24.3-97.8,40.9
				c-6,3.2-12.2,6.3-19,6.7c-9.4,0.7-18.3-3.8-27.4-6.5c-13.1-3.8-27.4-3.6-40.4,0.6c-1.8,0.6-3.7,1.2-5.6,1.9v297.8h2.2v-2
				c0-1.3,2-1.3,2,0v2H598.8L598.8,838.6z"/>
		</g>
		<g>
			<path class="st1" d="M601.3,838.6c0-12.9,0-25.8,0-38.6c0-30.7,0-61.4,0-92.1c0-37.1,0-74.2,0-111.2c0-32,0-64.1,0-96.1
				c0-15.5,0.5-31.1,0-46.6c0-0.2,0-0.4,0-0.6c0-1.4-1.2-2.5-2.5-2.5c-6-0.1-11.2-4.6-16-7.8c-5.2-3.5-10.5-6.9-15.8-10.3
				c-10.6-6.7-21.4-13.2-32.3-19.5c-10.9-6.3-21.8-12.4-33-18.1c-4.7-2.5-9.7-4.8-15.1-5c-5.6-0.3-10.9,1.8-15.9,4.1
				c-33.4,16-58.5,44.9-85.9,69c-13.5,11.9-27.8,23-44.1,30.8c-19.1,9.1-39.6,11.4-60.5,9.5c-23.5-2.1-46.4-8.1-70-9.3
				c-22.9-1.2-44.6,4-65.4,13.2c-10.5,4.6-20.6,10-30.7,15.5s-20,11.7-30.6,16.3c-5.8,2.6-11.8,3.8-18.1,2.6c-5.7-1-11.1-3.2-16.6-5
				c-11.1-3.6-22.7-4.6-34.2-2.8c-5.5,0.8-10.8,2.5-16.1,4.3c-1,0.4-1.8,1.3-1.8,2.4c0,9.9,0,19.8,0,29.6c0,23.7,0,47.4,0,71.2
				c0,28.6,0,57.2,0,85.8c0,24.9,0,49.8,0,74.7c0,8.1,0,16.3,0,24.4c0,3.8-0.2,7.8,0,11.6c0,0.2,0,0.3,0,0.5c0,1.3,1.2,2.5,2.5,2.5
				c0.7,0,1.5,0,2.2,0c1.3,0,2.5-1.2,2.5-2.5c0-1.6,0.5-1.9-1.5-1.9s-1.5,0.2-1.5,1.9c0,1.3,1.2,2.5,2.5,2.5c5.3,0,10.7,0,16,0
				c14.4,0,28.8,0,43.2,0c21.4,0,42.7,0,64.1,0c26.1,0,52.1,0,78.2,0c28.6,0,57.1,0,85.7,0c28.8,0,57.6,0,86.5,0
				c26.8,0,53.6,0,80.4,0c22.8,0,45.6,0,68.4,0c16.3,0,32.5,0,48.8,0c7.7,0,15.5,0.1,23.2,0c0.3,0,0.7,0,1,0c3.2,0,3.2-5,0-5
				c-5.3,0-10.7,0-16,0c-14.4,0-28.8,0-43.2,0c-21.4,0-42.7,0-64.1,0c-26.1,0-52.1,0-78.2,0c-28.5,0-57.1,0-85.7,0
				c-28.8,0-57.6,0-86.5,0c-26.8,0-53.6,0-80.4,0c-22.8,0-45.6,0-68.4,0c-16.3,0-32.5,0-48.8,0c-7.7,0-15.6-0.6-23.2,0
				c-0.3,0-0.7,0-1,0c0.8,0.8,1.7,1.7,2.5,2.5c0-2.4-0.2-5.5-3.5-5.5c-3.2,0-3.5,3-3.5,5.5c0.8-0.8,1.7-1.7,2.5-2.5
				c-0.7,0-1.5,0-2.2,0c0.8,0.8,1.7,1.7,2.5,2.5c0-9.9,0-19.8,0-29.6c0-23.7,0-47.4,0-71.2c0-28.6,0-57.2,0-85.8
				c0-24.9,0-49.8,0-74.7c0-8.1,0-16.3,0-24.4c0-2.5,0-5.1,0-7.7c0-1.2,0.2-2.7,0-4c0-0.2,0-0.3,0-0.5c-0.6,0.8-1.2,1.6-1.8,2.4
				c11.4-3.9,22.7-6.1,34.8-4.5c11.6,1.5,22.1,7.7,33.8,8.6c11.4,0.9,21.7-5.5,31.3-10.7c9.9-5.4,19.8-11,29.9-16.2
				c20.4-10.6,42-19.7,65.2-21.1c23.7-1.4,47.1,4.2,70.4,7.5c21.5,3.1,43.3,4,64.1-2.8c16.7-5.5,31.7-14.9,45.4-25.7
				c28.9-22.7,52.7-51.6,83.8-71.4c3.8-2.4,7.8-4.7,11.8-6.8c5.2-2.7,10.8-5.4,16.8-4.9c6.1,0.5,11.7,4.1,17,6.9
				c5.4,2.9,10.7,5.8,16.1,8.8c22,12.3,43.4,25.5,64.3,39.4c4.4,2.9,8.8,5.5,14.2,5.6c-0.8-0.8-1.7-1.7-2.5-2.5
				c0,12.9,0,25.8,0,38.6c0,30.7,0,61.4,0,92.1c0,37.1,0,74.2,0,111.2c0,32,0,64.1,0,96.1c0,15.5-0.5,31.1,0,46.7c0,0.2,0,0.4,0,0.7
				C596.3,841.8,601.3,841.8,601.3,838.6z"/>
		</g>
	</g>
	<g>
		<path class="st1" d="M-4.9,838.6V542.2c-0.7,0.2-1.3,0.4-2,0.6v295.8H-4.9L-4.9,838.6z"/>
		<g>
			<path class="st1" d="M-2.4,838.6c0-2.7,0-5.3,0-8c0-7.2,0-14.3,0-21.5c0-10.6,0-21.3,0-31.9c0-13,0-26,0-38.9
				c0-14.2,0-28.3,0-42.5c0-14.4,0-28.8,0-43.2c0-13.3,0-26.7,0-40c0-11.3,0-22.6,0-33.9c0-8.1,0-16.3,0-24.4c0-3.8,0.1-7.7,0-11.5
				c0-0.2,0-0.3,0-0.5c0-1.6-1.6-2.9-3.2-2.4c-0.7,0.2-1.3,0.4-2,0.6c-1.1,0.3-1.8,1.3-1.8,2.4c0,2.6,0,5.3,0,7.9
				c0,7.2,0,14.4,0,21.6c0,10.6,0,21.2,0,31.8c0,13,0,26,0,38.9c0,14.2,0,28.3,0,42.5c0,14.3,0,28.6,0,42.9c0,13.3,0,26.7,0,40
				c0,11.3,0,22.5,0,33.8c0,8.1,0,16.2,0,24.3c0,3.8-0.1,7.7,0,11.6c0,0.2,0,0.3,0,0.5c0,1.3,1.1,2.5,2.5,2.5c0.7,0,1.3,0,2,0
				c3.2,0,3.2-5,0-5c-0.7,0-1.3,0-2,0c0.8,0.8,1.7,1.7,2.5,2.5c0-2.6,0-5.3,0-7.9c0-7.2,0-14.4,0-21.6c0-10.6,0-21.2,0-31.8
				c0-13,0-26,0-38.9c0-14.2,0-28.3,0-42.5c0-14.3,0-28.6,0-42.9c0-13.3,0-26.7,0-40c0-11.3,0-22.5,0-33.8c0-8.1,0-16.2,0-24.3
				c0-3.8,0.2-7.7,0-11.6c0-0.2,0-0.3,0-0.5c-0.6,0.8-1.2,1.6-1.8,2.4c0.7-0.2,1.3-0.4,2-0.6c-1.1-0.8-2.1-1.6-3.2-2.4
				c0,2.7,0,5.3,0,8c0,7.2,0,14.3,0,21.5c0,10.6,0,21.3,0,31.9c0,13,0,26,0,38.9c0,14.2,0,28.3,0,42.5c0,14.4,0,28.8,0,43.2
				c0,13.3,0,26.7,0,40c0,11.3,0,22.6,0,33.9c0,8.1,0,16.3,0,24.4c0,3.8-0.1,7.7,0,11.5c0,0.2,0,0.3,0,0.5
				C-7.4,841.8-2.4,841.8-2.4,838.6z"/>
		</g>
	</g>
	<g>
		<path class="st1" d="M-6.8-7.8c-0.1,0-0.1,0-0.2,0v255.5c0.7-0.3,1.3-0.6,2-0.9V-7.8H-6.8z"/>
		<g>
			<path class="st1" d="M-6.1-10.2c-0.1,0-0.1,0-0.2,0c-1.6-0.3-3.2,0.7-3.2,2.4c0,2.3,0,4.6,0,6.9c0,6.2,0,12.4,0,18.6
				c0,9.2,0,18.3,0,27.5c0,11.2,0,22.4,0,33.6c0,12.2,0,24.4,0,36.6c0,12.4,0,24.8,0,37.2c0,11.5,0,23,0,34.5c0,9.8,0,19.5,0,29.2
				c0,7,0,14,0,21c0,3.3-0.1,6.6,0,9.9c0,0.1,0,0.3,0,0.4c0,2.1,2.1,2.9,3.8,2.2c0.7-0.3,1.3-0.6,2-0.9c0.8-0.3,1.2-1.4,1.2-2.2
				c0-2.3,0-4.5,0-6.8c0-6.2,0-12.4,0-18.5c0-9.1,0-18.3,0-27.4c0-11.1,0-22.3,0-33.4c0-12.2,0-24.4,0-36.6c0-12.3,0-24.7,0-37
				c0-11.5,0-23,0-34.5c0-9.7,0-19.3,0-29c0-7,0-14,0-21c0-3.3,0.1-6.6,0-9.9c0-0.1,0-0.3,0-0.4c0-1.3-1.2-2.5-2.5-2.5
				c-0.6,0-1.2,0-1.8,0c-3.2,0-3.2,5,0,5c0.6,0,1.2,0,1.8,0C-5.8-6.1-6.6-7-7.4-7.8c0,2.3,0,4.5,0,6.8c0,6.2,0,12.4,0,18.5
				c0,9.1,0,18.3,0,27.4c0,11.2,0,22.3,0,33.4c0,12.2,0,24.4,0,36.6c0,12.3,0,24.6,0,37c0,11.5,0,23,0,34.5c0,9.7,0,19.4,0,29
				c0,7,0,14,0,20.9c0,3.3-0.1,6.6,0,9.9c0,0.1,0,0.3,0,0.4c0.4-0.7,0.8-1.4,1.2-2.2c-0.7,0.3-1.3,0.6-2,0.9
				c1.2,0.7,2.5,1.4,3.8,2.2c0-2.3,0-4.6,0-6.9c0-6.2,0-12.4,0-18.6c0-9.2,0-18.3,0-27.5c0-11.2,0-22.4,0-33.6c0-12.2,0-24.4,0-36.6
				c0-12.4,0-24.8,0-37.2c0-11.5,0-23,0-34.5c0-9.8,0-19.5,0-29.2c0-7,0-14,0-21c0-3.3,0.1-6.6,0-9.9c0-0.1,0-0.3,0-0.4
				C-5.5-7-6.6-6.2-7.6-5.4c0.1,0,0.1,0,0.2,0C-4.3-4.7-2.9-9.5-6.1-10.2z"/>
		</g>
	</g>
	<g>
		<path class="st1" d="M-2.8-7.8L-2.8-7.8l-0.1,253.7c0,0,0.1,0,0.1-0.1V-7.8z"/>
		<g>
			<path class="st1" d="M-2.8-10.3L-2.8-10.3c-1.4,0-2.6,1.2-2.6,2.5c0,2.3,0,4.6,0,6.8c0,6.1,0,12.3,0,18.4c0,9.1,0,18.3,0,27.4
				c0,11.1,0,22.1,0,33.2c0,12.2,0,24.4,0,36.6s0,24.5,0,36.7c0,11.5,0,23,0,34.4c0,9.6,0,19.3,0,28.9c0,7,0,14,0,20.9
				c0,3.3-0.1,6.6,0,9.9c0,0.1,0,0.3,0,0.4c0,2.1,2.1,2.9,3.8,2.2h0.1c0.8-0.3,1.2-1.4,1.2-2.2c0-2.3,0-4.6,0-6.8
				c0-6.1,0-12.3,0-18.4c0-9.1,0-18.2,0-27.3c0-11.1,0-22.2,0-33.3c0-12.1,0-24.2,0-36.4c0-12.3,0-24.6,0-37c0-11.4,0-22.8,0-34.2
				c0-9.7,0-19.4,0-29c0-7,0-13.9,0-20.9c0-3.3,0.1-6.6,0-9.9c0-0.1,0-0.3,0-0.4c0-3.2-5-3.2-5,0c0,2.3,0,4.6,0,6.8
				c0,6.1,0,12.3,0,18.4c0,9.1,0,18.2,0,27.3c0,11.1,0,22.2,0,33.3c0,12.1,0,24.2,0,36.4c0,12.3,0,24.6,0,37c0,11.4,0,22.8,0,34.2
				c0,9.7,0,19.4,0,29c0,7,0,13.9,0,20.9c0,3.3-0.1,6.6,0,9.9c0,0.1,0,0.3,0,0.4c0.4-0.7,0.8-1.4,1.2-2.2c0,0-0.1,0-0.1,0.1
				c1.2,0.7,2.5,1.4,3.8,2.2c0-2.3,0-4.6,0-6.8c0-6.1,0-12.3,0-18.4c0-9.1,0-18.3,0-27.4c0-11.1,0-22.1,0-33.2c0-12.2,0-24.4,0-36.6
				s0-24.5,0-36.7c0-11.5,0-23,0-34.5c0-9.6,0-19.3,0-28.9c0-7,0-14,0-20.9c0-3.3,0.1-6.6,0-9.9c0-0.1,0-0.3,0-0.4
				C-1.3-7-2.1-6.1-2.9-5.3h0.1C0.4-5.3,0.4-10.3-2.8-10.3z"/>
		</g>
	</g>
	<g>
		<path class="st1" d="M598.8-7.8h-45.6c-20.3,0.7-40.6,1.1-60.9,1.3c-42.6,0.4-85.2,0.1-127.8-0.1c-42.1-0.2-84.2-0.4-126.3-1
			c-4.8-0.1-9.6-0.2-14.4-0.2H-0.8V245c9.7-4.2,19.5-8.5,29.2-12.8c3.8-1.7,7.9-3.4,12.1-2.8c4.2,0.6,7.6,3.4,10.9,6
			c15,12.3,30,24.7,44.9,37c9.3,7.7,19.8,15.8,31.9,15.5c17-0.4,28.7-16.4,39.7-29.4c15.6-18.4,35.3-33.3,57.2-43.4
			c7.8-3.6,16.6-6.7,24.9-4.5c6.9,1.8,13.3,7.1,20.2,5.6c5.3-1.1,8.9-5.9,13.5-8.6c10-5.9,23.2-1.8,33.8-6.4
			c9.2-4,14.7-13.8,23.7-18.2c11.3-5.5,25.2-0.8,34.9,7.2c9.7,8,16.4,18.9,24.6,28.4c11.1,13,25,23.6,40.5,30.9
			c6.6,3.1,13.8,5.7,21,4.7c11.5-1.5,19.9-11.3,30.6-15.8c24.3-10.2,55.3,8.4,77.4-6.1c8-5.3,13-14,17.7-22.4l10.9-19.6L598.8-7.8
			L598.8-7.8z"/>
		<g>
			<path class="st1" d="M598.8-10.3c-13.8,0-27.6,0-41.4,0c-11.3,0-22.7,0.6-34,0.8c-18.7,0.4-37.4,0.6-56.1,0.7
				c-74,0.3-147.9-0.2-221.9-1.1c-23.1-0.3-46.2-0.3-69.3-0.3c-35.6,0-71.2,0-106.8,0c-23,0-46-0.4-69,0c-0.4,0-0.7,0-1.1,0
				c-1.4,0-2.5,1.2-2.5,2.5c0,8.4,0,16.7,0,25.1c0,20.1,0,40.2,0,60.3c0,24.3,0,48.7,0,73c0,21.1,0,42.1,0,63.2c0,7,0,13.9,0,20.9
				c0,3.2-0.2,6.6,0,9.9c0,0.1,0,0.3,0,0.4c0,2.1,2.1,2.9,3.8,2.2c5.6-2.4,11.2-4.9,16.8-7.3c5.5-2.4,11-5.3,16.8-7.1
				c6.1-1.9,10.5,0.4,15.2,4.2c4.7,3.9,9.4,7.8,14.1,11.6c9.5,7.8,19,15.6,28.4,23.4c7.8,6.4,15.7,13.3,25.4,16.7
				c8.6,3,17.8,2.1,25.8-2.3c7.9-4.3,14.1-11.1,19.9-17.9c6.5-7.6,12.8-15.1,20-21.9c7.7-7.2,16.1-13.6,25-19.2
				c8.9-5.6,18.9-11.4,29.2-14c5.5-1.4,10.8-1.2,16.1,0.9c4.7,1.9,9.2,4.6,14.4,4.6c4.5,0.1,8.2-2.1,11.6-4.7c4.2-3.3,7.9-6,13.2-7
				c9.5-1.8,19.4,0,28.2-4.7c8-4.2,13-12.4,21-16.8c8.9-4.9,19.6-2.4,27.9,2.6c9.1,5.4,15.7,14.1,22.1,22.4
				c6.4,8.2,13,16.1,20.8,22.8s16.4,12.5,25.6,17.1c9.3,4.6,19.7,8.4,30,4.9c9-3,15.9-9.8,24.3-13.9c8.3-4.1,17.8-4.2,26.9-3.5
				c17.1,1.4,36.6,6.6,52.2-3.3c12-7.6,18-21.8,24.7-33.9c1.3-2.4,2.6-4.7,3.9-7.1c0.6-1.1,1.4-2.2,1.6-3.5c0.1-0.8,0-1.6,0-2.4
				c0-5.4,0-10.9,0-16.3c0-20.9,0-41.7,0-62.5c0-23.8,0-47.7,0-71.5c0-14.5,0-28.9,0-43.4c0-0.7,0-1.4,0-2.1c0-3.2-5-3.2-5,0
				c0,10.2,0,20.4,0,30.5c0,22.6,0,45.1,0,67.7s0,45.3,0,67.9c0,7.6,0,15.2,0,22.8c0,0.7-0.6,9,0,9.3c-1-0.4,0.9-1.8,0.1-0.8
				c-0.5,0.6-0.8,1.5-1.2,2.2c-1.3,2.4-2.7,4.8-4,7.2c-2.2,4-4.4,8-6.7,11.9c-4.8,8.5-10.2,17.1-19.3,21.5
				c-8.1,3.9-17.5,3.6-26.2,2.9c-17.9-1.6-36.3-5.8-52.8,3.8c-8.1,4.8-15.8,12.2-25.6,12.9c-10.8,0.7-21.7-5.8-30.5-11.3
				c-8.9-5.6-17.1-12.3-24.2-20c-7.2-7.7-13-16.6-20-24.4c-11.9-13.3-32.3-24.9-49.3-13.4c-7.4,5-12.8,13.5-21.5,16.6
				c-9.2,3.3-19.5,0.8-28.7,4.2c-4.5,1.7-7.7,4.8-11.5,7.5c-4.6,3.4-9,3.2-14.1,1.1c-4.6-1.9-8.9-4.1-13.9-4.7
				c-5.4-0.6-10.9,0.6-15.9,2.4c-19.1,6.9-36.9,19.2-51.7,33c-7.3,6.8-13.6,14.4-20,21.9c-5.8,6.8-12.1,13.9-20.3,17.9
				c-9.1,4.4-18.8,2.7-27.3-2.3c-9.7-5.7-18.2-13.7-26.9-20.8c-9.3-7.7-18.7-15.3-28-23c-3.9-3.2-7.7-6.9-12.4-8.8
				c-4.9-2-9.9-0.9-14.7,1.1c-10.7,4.4-21.2,9.2-31.7,13.8c1.2,0.7,2.5,1.4,3.8,2.2c0-8.4,0-16.7,0-25.1c0-20.1,0-40.2,0-60.3
				c0-24.3,0-48.7,0-73c0-21.1,0-42.1,0-63.2c0-7,0-13.9,0-20.9c0-3.1,0.6-6.8,0-9.9c0-0.1,0-0.3,0-0.5C0.8-7,0-6.1-0.8-5.3
				c19.4,0,38.7,0,58.1,0c35.8,0,71.6,0,107.4,0c19.7,0,39.4-0.1,59.1,0C296.2-4.8,368.6-3.9,441-3.8c51,0,102-1.5,153.1-1.5
				c1.6,0,3.2,0,4.7,0C602-5.3,602-10.3,598.8-10.3z"/>
		</g>
	</g>
	<g>
		<g>
			<path class="st1" d="M481-197.8c3.2,0,3.2-5,0-5S477.8-197.8,481-197.8L481-197.8z"/>
		</g>
	</g>
	<g>
		<g>
			<path class="st1" d="M572,536.2c3.2,0,3.2-5,0-5S568.8,536.2,572,536.2L572,536.2z"/>
		</g>
	</g>
</g>
<g id="over">
	<g>
		<path class="st2" d="M-2.8,838.6V588.8h-0.1L-2.8,838.6L-2.8,838.6z"/>
		<g>
			<path class="st2" d="M-0.3,838.6c0-2.2,0-4.5,0-6.7c0-6.1,0-12.1,0-18.2c0-8.9,0-17.9,0-26.8c0-10.9,0-21.9,0-32.8
				c0-12,0-24,0-36c0-12.1,0-24.1,0-36.2c0-11.3,0-22.6,0-33.8c0-9.5,0-19.1,0-28.6c0-6.8,0-13.7,0-20.5c0-3.2,0.1-6.5,0-9.7
				c0-0.1,0-0.3,0-0.4c0-1-0.8-2.2-1.8-2.4h-0.1c-1.6-0.3-3.2,0.7-3.2,2.4c0,2.2,0,4.5,0,6.7c0,6.1,0,12.1,0,18.2
				c0,8.9,0,17.9,0,26.8c0,10.9,0,21.9,0,32.8c0,12,0,24,0,36c0,12.1,0,24.1,0,36.2c0,11.3,0,22.6,0,33.8c0,9.5,0,19.1,0,28.6
				c0,6.8,0,13.7,0,20.5c0,3.2-0.1,6.5,0,9.7c0,0.1,0,0.3,0,0.4c0,1.3,1.2,2.5,2.5,2.5h0.1c3.2,0,3.2-5,0-5h-0.1
				C-2.1,836.9-1.2,837.8-0.3,838.6c-0.1-2.2-0.1-4.5-0.1-6.7c0-6.1,0-12.1,0-18.2c0-8.9,0-17.9,0-26.8c0-10.9,0-21.9,0-32.8
				c0-12,0-24,0-36c0-12.1,0-24.1,0-36.2c0-11.3,0-22.6,0-33.8c0-9.5,0-19.1,0-28.6c0-6.8,0-13.7,0-20.5c0-3.2,0.1-6.5,0-9.7
				c0-0.1,0-0.3,0-0.4c-1,0.8-2.1,1.6-3.2,2.4h0.1c-0.6-0.8-1.2-1.6-1.8-2.4c0,2.2,0,4.5,0,6.7c0,6.1,0,12.1,0,18.2
				c0,8.9,0,17.9,0,26.8c0,10.9,0,21.9,0,32.8c0,12,0,24,0,36c0,12.1,0,24.1,0,36.2c0,11.3,0,22.6,0,33.8c0,9.5,0,19.1,0,28.6
				c0,6.8,0,13.7,0,20.5c0,3.2-0.1,6.5,0,9.7c0,0.1,0,0.3,0,0.4C-5.3,841.8-0.3,841.8-0.3,838.6z"/>
		</g>
	</g>
	<g>
		<path class="st2" d="M-4.9,838.6V588.5c-0.7-0.1-1.3-0.2-2-0.2v250.3H-4.9L-4.9,838.6z"/>
		<g>
			<path class="st2" d="M-2.4,838.6c0-2.2,0-4.5,0-6.7c0-6.1,0-12.2,0-18.2c0-9,0-17.9,0-26.9c0-11,0-21.9,0-32.9c0-12,0-24,0-36
				c0-12.1,0-24.2,0-36.2c0-11.3,0-22.6,0-33.9c0-9.5,0-19.1,0-28.6c0-6.8,0-13.7,0-20.5c0-3.2,0-6.5,0-9.8c0-0.1,0-0.3,0-0.4
				c0-1.5-1.2-2.3-2.5-2.5c-0.7-0.1-1.3-0.2-2-0.2c-1.4-0.1-2.5,1.2-2.5,2.5c0,2.2,0,4.5,0,6.7c0,6.1,0,12.1,0,18.2c0,9,0,18,0,27
				c0,11,0,21.9,0,32.9c0,12,0,23.9,0,35.9c0,12.2,0,24.3,0,36.5c0,11.3,0,22.5,0,33.8c0,9.5,0,19.1,0,28.7c0,6.9,0,13.7,0,20.6
				c0,3.2-0.1,6.5,0,9.7c0,0.1,0,0.3,0,0.4c0,1.3,1.1,2.5,2.5,2.5c0.7,0,1.3,0,2,0c3.2,0,3.2-5,0-5c-0.7,0-1.3,0-2,0
				c0.8,0.8,1.7,1.7,2.5,2.5c0-2.2,0-4.5,0-6.7c0-6.1,0-12.1,0-18.2c0-9,0-18,0-27c0-11,0-21.9,0-32.9c0-12,0-23.9,0-35.9
				c0-12.2,0-24.3,0-36.5c0-11.3,0-22.5,0-33.8c0-9.5,0-19.1,0-28.7c0-6.9,0-13.7,0-20.6c0-3.2,0.1-6.5,0-9.7c0-0.1,0-0.3,0-0.4
				c-0.8,0.8-1.7,1.7-2.5,2.5c0.7,0.1,1.3,0.1,2,0.2c-0.8-0.8-1.7-1.7-2.5-2.5c0,2.2,0,4.5,0,6.7c0,6.1,0,12.2,0,18.2
				c0,9,0,17.9,0,26.9c0,11,0,21.9,0,32.9c0,12,0,24,0,36c0,12.1,0,24.2,0,36.2c0,11.3,0,22.6,0,33.9c0,9.5,0,19.1,0,28.6
				c0,6.8,0,13.7,0,20.5c0,3.2-0.1,6.5,0,9.8c0,0.1,0,0.3,0,0.4C-7.4,841.8-2.4,841.8-2.4,838.6z"/>
		</g>
	</g>
	<g>
		<path class="st2" d="M598.8,875.6V658.8c-3,3.2-6,6.4-9.2,9.3c-12.6,11.9-27.9,21.9-43.3,18.5c-10.5-2.3-19.6-10.5-28.8-17.4
			c-23.6-17.8-49.9-28.4-76-38.9c-17.7-7.1-36.2-14.3-54.6-11.2c-17.6,3-33.3,15.2-49.6,24c-21.4,11.4-44.2,17-66.9,22.7
			c-8.1,1.9-16.3,4-24.5,3.1c-10.4-1-20.1-6.7-29.6-12.2c-13.8-8-27.7-16.2-39.5-28.5c-6.2-6.6-12-14.4-19.6-17.9
			c-6-2.7-12.5-2.3-18.8-2.5c-42.2-1.2-80.7-28.7-120.1-48.2c-6.1-3-12.7-5.8-19.3-7.4v323.4h2.2v-2.6c0-1.7,2-1.7,2,0v2.6h595.6
			V875.6z"/>
		<g>
			<path class="st2" d="M601.3,875.6c0-24.5,0-49.1,0-73.7c0-38.8,0-77.5,0-116.4c0-8.9,0-17.9,0-26.7c0-3-2.7-4-4.3-2.3
				c-15.3,16.5-35.3,34-56,25c-9.7-4.1-18.1-12.3-27-18.7c-9-6.4-18.3-11.7-27.8-16.6c-19.8-10.1-40.5-18.7-61-25.7
				c-10.2-3.5-20.8-6-31.5-5.6c-10.3,0.4-20.2,4-29.7,9.1c-9.6,5.1-18.8,11.3-28.4,16.2c-10,5.2-20.4,9.2-30.8,12.6
				c-10.5,3.4-21.1,6.1-31.7,8.7c-11,2.7-22.2,5.7-33.3,2.6c-10.2-3-19.8-9.1-29.3-14.8c-9.2-5.4-18.4-11.4-26.8-18.9
				c-7.6-6.9-13.9-16.6-22.4-21.8c-9.1-5.6-19.3-3.8-29.1-4.7c-41.6-3.8-78.1-31.8-116.7-49.5c-5.1-2.3-10.3-4.3-15.7-5.6
				c-1.6-0.4-3.2,0.9-3.2,3.1c0,10.8,0,21.5,0,32.3c0,25.7,0,51.3,0,77c0,31.2,0,62.4,0,93.6c0,26.8,0,53.7,0,80.7
				c0,8.9,0,17.8,0,26.7c0,4.1-0.2,8.4,0,12.7c0,0.1,0,0.4,0,0.5c0,1.7,1.1,3.2,2.5,3.2c0.7,0,1.5,0,2.2,0c1.4,0,2.5-1.6,2.5-3.2
				c0-2.1,0.5-2.5-1.5-2.5s-1.5,0.3-1.5,2.5c0,1.7,1.1,3.2,2.5,3.2c5.3,0,10.7,0,16,0c14.4,0,28.8,0,43.2,0c21.4,0,42.7,0,64.1,0
				c26.1,0,52.1,0,78.2,0c28.6,0,57.1,0,85.7,0c28.8,0,57.6,0,86.5,0c26.8,0,53.6,0,80.4,0c22.8,0,45.6,0,68.4,0
				c16.3,0,32.5,0,48.8,0c7.7,0,15.5,0.1,23.2,0c0.3,0,0.7,0,1,0c3.2,0,3.2-6.5,0-6.5c-5.3,0-10.7,0-16,0c-14.4,0-28.8,0-43.2,0
				c-21.4,0-42.7,0-64.1,0c-26.1,0-52.1,0-78.2,0c-28.5,0-57.1,0-85.7,0c-28.8,0-57.6,0-86.5,0c-26.8,0-53.6,0-80.4,0
				c-22.8,0-45.6,0-68.4,0c-16.3,0-32.5,0-48.8,0c-7.7,0-15.6-0.8-23.2,0c-0.3,0-0.7,0-1,0c0.8,1,1.7,2.2,2.5,3.2
				c0-3.1-0.2-7.1-3.5-7.1c-3.2,0-3.5,3.9-3.5,7.1c0.8-1,1.7-2.2,2.5-3.2c-0.7,0-1.5,0-2.2,0c0.8,1,1.7,2.2,2.5,3.2
				c0-10.8,0-21.5,0-32.3c0-25.7,0-51.3,0-77c0-31.2,0-62.4,0-93.6c0-26.8,0-53.7,0-80.7c0-8.9,0-17.8,0-26.7c0-3.9,0.6-8.8,0-12.7
				c0-0.1,0-0.4,0-0.5c-1,1-2.1,2.1-3.2,3.1c10.6,2.7,20.7,7.9,30.7,13.2c9.6,5.1,19.1,10.4,28.7,15.6c19.1,10.2,38.6,19.7,59,24.2
				c10.2,2.2,20.3,2.3,30.6,3c5.2,0.4,10.1,1.9,14.5,5.6c4.1,3.2,7.6,7.5,11.2,11.5c7.8,8.6,16.4,15.3,25.6,21.3
				c9.1,5.8,18.4,11.4,27.8,16.2c10.3,5.2,20.6,7.5,31.6,5.8c10.9-1.7,21.8-4.9,32.6-7.8c10.6-2.9,21.1-6.1,31.4-10.2
				c10.1-4.1,19.9-9.5,29.5-15.3c9.4-5.6,19-11.3,29.1-14.4c11.1-3.4,22.4-2.6,33.5,0.3c10.8,2.7,21.2,7.1,31.7,11.4
				c10.3,4.1,20.5,8.3,30.6,13.1c10,4.8,19.9,10,29.5,16.2c9.3,6.1,17.8,14,27.2,19.6c8.9,5.3,18.2,7.3,27.8,4.8
				c10-2.6,19.2-9.1,27.5-16.5c4.1-3.6,8-7.7,11.8-11.8c-1.4-0.8-2.8-1.6-4.3-2.3c0,24.5,0,49.1,0,73.7c0,38.8,0,77.5,0,116.4
				c0,8.9,0,17.9,0,26.7C596.3,879.8,601.3,879.8,601.3,875.6z"/>
		</g>
	</g>
	<g>
		<path class="st2" d="M-6.8-7.8c-0.1,0-0.1,0-0.2,0v148.7c0,0,0.1,0,0.1-0.1c0.6-0.5,1.3-1,1.9-1.5V-7.8H-6.8z"/>
		<g>
			<path class="st2" d="M-6.1-10.2c-0.1,0-0.1,0-0.2,0c-1.6-0.3-3.2,0.7-3.2,2.4c0,5,0,9.9,0,14.9c0,11.8,0,23.7,0,35.5
				c0,14.3,0,28.6,0,42.9c0,12.4,0,24.7,0,37.1c0,6-0.2,12.1,0,18.1c0,0.1,0,0.2,0,0.2c0,2.2,2.7,3.2,4.3,1.8
				c1.2-1.1,2.7-1.7,2.8-3.4c0-0.2,0-0.4,0-0.6c0-0.9,0-1.7,0-2.6c0-3.4,0-6.9,0-10.3c0-11.6,0-23.3,0-34.9c0-14.3,0-28.6,0-42.9
				c0-12.4,0-24.9,0-37.3c0-6.1,0.2-12.2,0-18.3c0-0.1,0-0.2,0-0.2c0-1.3-1.2-2.5-2.5-2.5c-0.6,0-1.2,0-1.8,0c-3.2,0-3.2,5,0,5
				c0.6,0,1.2,0,1.8,0C-5.8-6.1-6.6-7-7.4-7.8c0,4.9,0,9.8,0,14.7c0,11.7,0,23.4,0,35.1c0,14.1,0,28.3,0,42.4c0,12.3,0,24.5,0,36.8
				c0,4.1,0,8.1,0,12.1c0,1.9-0.1,3.8,0,5.7c0,0.1,0,0.2,0,0.2c0.4-0.7,0.8-1.4,1.2-2.2c-0.8,0.6-1.7,1.3-2.5,2
				c1.4,0.6,2.8,1.2,4.3,1.8c0-5,0-9.9,0-14.9c0-11.8,0-23.7,0-35.5c0-14.3,0-28.6,0-42.9c0-12.4,0-24.7,0-37.1c0-4.1,0-8.2,0-12.3
				c0-1.9,0.1-3.9,0-5.8c0-0.1,0-0.2,0-0.2c-1,0.8-2.1,1.6-3.2,2.4c0.1,0,0.1,0,0.2,0C-4.3-4.7-2.9-9.5-6.1-10.2z"/>
		</g>
	</g>
	<g>
		<path class="st2" d="M598.8-7.8h-45.6c-20.3,0.7-40.6,1.1-60.9,1.3c-42.6,0.4-85.2,0.1-127.8-0.1c-42.1-0.2-84.2-0.4-126.3-1
			c-4.8-0.1-9.6-0.2-14.4-0.2H-0.8v144.3c10.2-6.1,22.5-9,32.4-15.9c7.1-5,13.2-12.2,21.8-13.9c4.9-1,10,0.1,14.9-0.6
			C86.6,104,98.6,80.9,117,82.5c14.9,1.2,22.9,17.6,28.7,31.4s16.1,29.6,31,27.9c8.7-1,15.3-7.9,21.7-13.7
			c21.3-19.2,48.3-30.6,75-41.1c16.1-6.3,32.4-12.5,48.6-18.4c5.9-2.1,12.2-4.3,18.4-3.3c5.4,0.9,10.1,4.1,14.6,7.1
			c13.6,9.3,27.2,18.6,40.8,27.9c7.6,5.2,15.5,10.5,24.6,11.7c17.2,2.3,32.3-10.4,46.9-19.8c36.5-23.5,84.2-28.8,124.9-13.8
			c2.2,0.8,4.3,1.6,6.5,2.5L598.8-7.8L598.8-7.8z"/>
		<g>
			<path class="st2" d="M598.8-10.3c-13.8,0-27.6,0-41.4,0c-11.3,0-22.7,0.6-34,0.8c-18.7,0.4-37.4,0.6-56.1,0.7
				c-74,0.3-147.9-0.2-221.9-1.1c-23.1-0.3-46.2-0.3-69.3-0.3c-35.6,0-71.2,0-106.8,0c-23,0-46-0.4-69,0c-0.4,0-0.7,0-1.1,0
				c-1.4,0-2.5,1.2-2.5,2.5c0,16.2,0,32.4,0,48.6c0,26,0,51.9,0,77.9c0,5.9,0,11.9,0,17.8c0,1.9,2.1,3.1,3.8,2.2
				c10.1-5.9,21.8-8.8,31.5-15.3c4.5-3,8.3-6.8,12.7-9.8c2.2-1.5,4.5-2.9,7.1-3.8c3.3-1.1,6.7-1,10.2-0.9c5.2,0.1,9.9-0.4,14.7-2.4
				c4-1.7,7.6-4.1,11-6.6c6.8-5,13.5-11.6,21.8-14.1c21.2-6.3,29.5,20.5,36.5,34.7c4,8.1,9.6,16.5,17.6,21c9,5,18.8,2.9,26.8-3.1
				c4.3-3.2,8.1-7.1,12.1-10.5c4.7-4,9.6-7.7,14.8-11c10-6.5,20.6-12,31.4-16.9c23.7-10.7,48.4-19.6,72.9-28.5
				c6.2-2.2,13-5,19.7-3.4c6.1,1.5,11.3,5.8,16.4,9.2c11.2,7.6,22.4,15.3,33.5,22.9c9.5,6.5,19.3,13.7,31.2,14.6
				c10.9,0.8,21.1-4.2,30.2-9.8c9.6-6,18.6-12.8,28.8-17.9c10.3-5.1,21.3-8.9,32.5-11.4c22.2-4.8,45.6-4.3,67.5,1.7
				c5.7,1.6,11.2,3.6,16.7,5.8c1.5,0.6,3.2-0.9,3.2-2.4c0-25.9,0-51.7,0-77.6c0-3.7,0-7.4,0-11.1c0-3.2-5-3.2-5,0
				c0,25.9,0,51.7,0,77.6c0,3.7,0,7.4,0,11.1c1-0.8,2.1-1.6,3.2-2.4c-21.6-8.6-44.5-12.4-67.8-10.4c-22.5,2-44.7,9-63.9,21
				c-9.6,6-18.5,13.3-29,17.7c-5.2,2.2-10.7,3.5-16.3,3.1c-6.2-0.4-11.9-3.1-17.1-6.2c-11.2-6.7-21.7-14.6-32.5-21.9
				c-5.8-4-11.6-7.9-17.4-11.9c-4.6-3.1-9.5-6.1-15-6.9c-6.6-0.9-12.9,1.2-19,3.4c-6.3,2.3-12.6,4.6-18.9,6.9
				c-12.5,4.7-25.1,9.5-37.5,14.5c-22.1,8.9-44.1,18.9-62.9,34c-8,6.5-16.2,17.6-27.5,17.8c-10,0.1-17.2-8.8-21.8-16.6
				c-8.6-14.7-13.3-38.6-33-42.5C101,76.6,89.7,95.9,74,102.2c-5.5,2.2-11,1.5-16.7,1.7c-5.6,0.2-10.6,2.2-15.2,5.4
				c-4.4,3.1-8.2,6.9-12.7,9.8c-5.1,3.4-10.8,5.8-16.5,8.2c-5.1,2.1-10.2,4.3-15.1,7.1c1.2,0.7,2.5,1.4,3.8,2.2
				c0-16.2,0-32.4,0-48.6c0-26,0-51.9,0-77.9c0-5.9,0-11.9,0-17.8C0.8-7,0-6.1-0.9-5.3c19.4,0,38.7,0,58.1,0c35.8,0,71.6,0,107.4,0
				c19.7,0,39.4-0.1,59.1,0C296.2-4.8,368.6-3.9,441-3.8c51,0,102-1.5,153.1-1.5c1.6,0,3.2,0,4.7,0C602-5.3,602-10.3,598.8-10.3z"/>
		</g>
	</g>
	<g>
		<path class="st2" d="M-2.8-7.8L-2.8-7.8l-0.1,145.7c0,0,0.1,0,0.1-0.1V-7.8z"/>
		<g>
			<path class="st2" d="M-2.8-10.3L-2.8-10.3c-1.4,0-2.6,1.2-2.6,2.5c0,4.8,0,9.7,0,14.5c0,11.6,0,23.2,0,34.8c0,14,0,28,0,42
				c0,12.1,0,24.2,0,36.3c0,5.9-0.2,11.8,0,17.7c0,0.1,0,0.2,0,0.2c0,1.9,2.1,3.2,3.8,2.2c1.8-1.2,1.3-3.9,1.3-5.8
				c0-3.5,0-6.9,0-10.4c0-11.5,0-23.1,0-34.6c0-14.1,0-28.3,0-42.4c0-12.2,0-24.4,0-36.6c0-6,0.2-12,0-17.9c0-0.1,0-0.2,0-0.2
				c0-3.2-5-3.2-5,0c0,4.8,0,9.7,0,14.5c0,11.5,0,23.1,0,34.7c0,14.1,0,28.1,0,42.2c0,12.1,0,24.2,0,36.3c0,4,0,8,0,12
				c0,1.9-0.1,3.8,0,5.7c0,0.1,0,0.2,0,0.2c0.4-0.7,0.8-1.4,1.2-2.2c0,0-0.1,0-0.1,0.1c1.2,0.7,2.5,1.4,3.8,2.2c0-4.8,0-9.7,0-14.5
				c0-11.6,0-23.2,0-34.8c0-14,0-28,0-42c0-12.1,0-24.2,0-36.3c0-4,0-8,0-12.1c0-1.9,0.1-3.8,0-5.7c0-0.1,0-0.2,0-0.2
				C-1.3-7-2.1-6.1-2.9-5.3h0.1C0.4-5.3,0.4-10.3-2.8-10.3z"/>
		</g>
	</g>
</g>
<g id="rock">
	<g>
		<path class="st1" d="M460.6,750.4c-6.4-1.9-13.9,1.4-16.9,7.4c4.3,1.7,8.6,3.5,13,5.2c1.7,0.7,3.4,1.3,5.2,1
			c3.9-0.8,5.2-5.8,4.8-9.8c-0.3-3.2-1.2-6.4-2.5-9.3"/>
		<g>
			<path class="st1" d="M461.3,748c-7.5-2.1-16.1,1.5-19.7,8.5c-0.8,1.6-0.1,3,1.5,3.7c4.2,1.7,8.4,3.4,12.6,5
				c3.6,1.4,7.6,2.2,10.6-0.8c2.2-2.2,3-5.6,3-8.7c0-4.1-1.3-8.3-3-12c-0.6-1.2-2.3-1.5-3.4-0.9c-1.3,0.7-1.5,2.2-0.9,3.4
				c1.3,2.8,2.2,6.1,2.3,9.2c0,2.1-0.4,4.4-1.8,5.7c-0.4,0.4-1.3,0.7-2.4,0.5c-1.8-0.3-3.6-1.2-5.3-1.9c-3.5-1.4-7-2.8-10.5-4.2
				c0.5,1.2,1,2.5,1.5,3.7c2.6-5.1,8.7-7.8,14-6.2C463.1,753.7,464.4,748.9,461.3,748L461.3,748z"/>
		</g>
	</g>
	<g>
		<path class="st1" d="M316.8,760.3c-5.4,3.1-10.1,7.2-13.9,12.1c-2.3,3-4.3,6.6-3.8,10.4c0.6,4.2,4.7,7.5,8.9,7.2
			c4.3-0.3,7.8-4,9.1-8.1s0.9-8.6,0.1-12.8c-0.5-2.9-2.7-6.6-5.4-5.3"/>
		<g>
			<path class="st1" d="M315.5,758.1c-5.4,3.1-10.2,7.2-14,12c-3.7,4.7-7.1,11.3-3.3,17.1c3.2,4.9,9.6,6.7,14.8,3.8
				c5.5-3.1,7.6-9.5,7.5-15.5c-0.1-3.4-0.4-7.2-1.9-10.3c-1.3-2.7-4.2-5.2-7.4-3.9c-1.2,0.5-2.1,1.7-1.8,3.1
				c0.3,1.2,1.8,2.3,3.1,1.8c0.2-0.1,0.4-0.2,0.6-0.2c-0.1,0-0.2,0-0.3,0c0.2,0.1,0.3,0.1,0.4,0.3c0.5,0.6,0.9,1.2,1.1,1.9
				c0.9,2.2,1,4.8,1.1,7.2c0.1,4.2-0.9,8.9-4.7,11.2c-3,1.9-6.9,0.8-8.6-2.4c-2.1-3.8,1.2-8.4,3.6-11.3c3.5-4.2,7.6-7.7,12.4-10.4
				C320.8,760.8,318.3,756.5,315.5,758.1L315.5,758.1z"/>
		</g>
	</g>
	<g>
		<path class="st1" d="M140.9,772.6c-3,0.8-3.7,5.3-1.7,7.7c1.9,2.5,5.3,3.3,8.4,3.5c2.8,0.2,6-0.2,7.9-2.3c2.4-2.7,1.4-7.3-1.4-9.5
			c-2.9-2.2-6.9-2.3-10.3-1"/>
		<g>
			<path class="st1" d="M140.2,770.2c-3.9,1.2-5.5,5.7-4.2,9.4c1.5,4.4,6.1,6.1,10.4,6.6c4.2,0.5,9.1-0.1,11.6-3.9
				c2.3-3.5,1.3-8.2-1.3-11.2c-3.3-3.8-9.2-4.1-13.7-2.6c-1.3,0.4-2.1,1.7-1.8,3.1c0.3,1.2,1.8,2.2,3.1,1.8c0.7-0.2,1.4-0.4,2.2-0.6
				c0.8-0.2-0.2,0,0.2,0c0.2,0,0.4,0,0.6,0c0.4,0,0.8,0,1.3,0c0.2,0,0.4,0,0.6,0c0.5,0-0.6-0.1,0.2,0c0.3,0.1,0.6,0.1,1,0.2
				c0.2,0.1,0.4,0.1,0.6,0.2c0.4,0.2-0.5-0.3,0.2,0.1c0.4,0.2,0.7,0.4,1.1,0.6c0.4,0.3,0.2,0.1,0.1,0c0.1,0.1,0.3,0.2,0.4,0.3
				c0.1,0.1,0.7,0.8,0.4,0.4c0.2,0.3,0.4,0.5,0.5,0.8c0.1,0.2,0.2,0.3,0.2,0.5c-0.2-0.4,0,0,0.1,0.2c0.1,0.3,0.2,0.6,0.2,0.9
				c0,0.2,0.1,0.6,0,0.1c0,0.1,0,0.3,0,0.4c0,0.1,0,0.3,0,0.4c0,0,0,0.7,0,0.3s-0.1,0.2-0.1,0.3c-0.1,0.2-0.1,0.4-0.2,0.6
				c0,0.1-0.2,0.4,0,0c-0.1,0.1-0.1,0.2-0.2,0.4c0,0-0.4,0.6-0.1,0.3c0.2-0.3-0.2,0.3-0.2,0.2c-0.1,0.1-0.2,0.2-0.4,0.3
				c0.3-0.3,0,0-0.1,0c-0.2,0.1-0.3,0.2-0.5,0.3c-0.1,0-0.7,0.3-0.4,0.2s-0.4,0.1-0.4,0.1c-0.1,0-0.3,0.1-0.5,0.1s-0.4,0.1-0.6,0.1
				c-0.1,0-0.6,0.1-0.2,0c-0.8,0.1-1.6,0.1-2.3,0.1c-0.4,0-0.7,0-1.1-0.1c-0.2,0-0.3,0-0.5,0c-0.8-0.1,0.3,0-0.2,0
				c-0.8-0.1-1.5-0.3-2.3-0.5c-0.2-0.1-0.4-0.1-0.6-0.2c-0.1,0-0.6-0.2-0.2-0.1c-0.3-0.2-0.6-0.3-0.9-0.5c-0.2-0.1-0.3-0.2-0.5-0.3
				c0.1,0.1,0.3,0.3-0.1,0c-0.3-0.3-0.6-0.5-0.8-0.8c0.3,0.4,0,0,0-0.1c-0.1-0.2-0.2-0.3-0.3-0.5c-0.2-0.3,0.1,0.5,0,0
				c-0.1-0.2-0.1-0.4-0.1-0.5s-0.1-0.2-0.1-0.4c0.1,0.6,0,0.1,0-0.1c0-0.1,0-0.2,0-0.4c0-0.3,0.1-0.5,0-0.1c0.1-0.4,0.2-0.7,0.3-1.1
				c0,0.1-0.2,0.5,0,0.1c0.1-0.1,0.2-0.3,0.3-0.5c-0.2,0.4-0.2,0.2-0.1,0.1c0.1-0.1,0.2-0.2,0.4-0.4c-0.6,0.5,0,0.1,0,0
				c0.1,0,0.2-0.1,0.2-0.1c-0.3,0.1-0.4,0.2-0.1,0.1c1.3-0.4,2.1-1.8,1.8-3.1C142.9,770.6,141.5,769.8,140.2,770.2L140.2,770.2z"/>
		</g>
	</g>
	<g>
		<path class="st1" d="M175.7,747.1c2.9-1.8,5.9-3.6,8.8-5.3c1.4-0.9,2.9-1.8,4.6-1.8c2,0,3.8,1.2,5.4,2.5
			c4.5,3.6,8.8,7.5,12.7,11.7c0.9,1,1.9,2.1,2,3.4c0.4,3-3.4,5-6.4,4.8c-3.1-0.2-6-1.6-9.1-1.3c-1.2,0.1-2.3,0.5-3.5,0.2
			c-1.1-0.3-1.9-1.2-2.6-2c-3.4-3.9-6.8-7.8-10.3-11.7"/>
		<g>
			<path class="st1" d="M177,749.3c2.4-1.5,4.9-3,7.3-4.5c1.8-1.1,3.9-2.9,6.1-2c2.1,0.9,4,2.8,5.7,4.2c2,1.7,4,3.5,5.9,5.4
				c0.9,0.8,1.7,1.7,2.6,2.6c0.7,0.8,1.7,1.6,2.1,2.5c0.2,0.4,0.1,0.6,0.1,0.7c0,0.1-0.1,0.2-0.2,0.4c-0.5,0.6-1.1,0.9-1.9,1.1
				c-1.9,0.5-4-0.2-5.9-0.6c-1.3-0.3-2.6-0.5-3.9-0.5c-0.7,0-1.3,0.1-2,0.2c-0.5,0.1-1.3,0.3-1.8,0.2c-0.9-0.2-1.7-1.5-2.2-2.1
				c-1.1-1.2-2.1-2.4-3.2-3.7c-2.1-2.4-4.3-4.9-6.4-7.3c-0.9-1-2.6-0.9-3.5,0c-1,1-0.9,2.5,0,3.5c2.2,2.6,4.5,5.1,6.7,7.7
				c1.1,1.2,2.1,2.4,3.2,3.7c1,1.2,2.1,2.4,3.7,2.9c1.6,0.6,3.1,0.1,4.7,0c1.4-0.1,2.7,0.2,4.1,0.5c2.7,0.6,5.5,1.3,8.3,0.4
				c2.4-0.8,4.7-2.5,5.3-5c0.8-3.3-1.5-5.8-3.6-8s-4.3-4.3-6.5-6.3c-2.3-2.1-4.7-4.3-7.4-6c-3.2-2.1-6.5-2-9.8-0.2
				c-3.4,1.9-6.6,4-9.9,6C171.7,746.7,174.2,751,177,749.3L177,749.3z"/>
		</g>
	</g>
	<g>
		<path class="st1" d="M93.1,790.7c-1.4-1.6-4.5-0.2-4.7,2s1.7,4,3.8,4.6s4.3,0.1,6.4-0.4c0.2-2-0.6-4.1-2.1-5.5"/>
		<g>
			<path class="st1" d="M94.9,788.9c-1.2-1.3-3.3-1.7-5-1.2c-1.8,0.6-3.2,1.9-3.8,3.7c-0.7,2,0.1,4,1.3,5.6c1.1,1.4,2.8,2.4,4.5,2.7
				c2.4,0.5,4.8,0,7.2-0.5c1.1-0.3,1.8-1.3,1.8-2.4c0.2-2.7-0.9-5.4-2.8-7.3c-0.9-0.9-2.6-1-3.5,0s-1,2.5,0,3.5
				c0.2,0.2,0.3,0.3,0.5,0.5s-0.3-0.4-0.1-0.1c0.1,0.1,0.1,0.2,0.2,0.3c0.1,0.2,0.2,0.4,0.4,0.6c0,0.1,0.1,0.2,0.1,0.3
				c-0.1-0.2-0.2-0.5,0-0.1s0.2,0.9,0.3,1.3c0-0.1-0.1-0.5,0-0.2c0,0.1,0,0.2,0,0.3c0,0.3,0,0.5,0,0.8c0.6-0.8,1.2-1.6,1.8-2.4
				c-0.5,0.1-1,0.2-1.5,0.3c-0.2,0-0.4,0.1-0.7,0.1c-0.2,0-0.8,0.2-0.2,0c-0.4,0.1-1.1,0.1-1.5,0.1c-0.2,0-0.4,0-0.6,0
				c-0.3,0-0.2,0,0.1,0c-0.1,0-0.2,0-0.4-0.1c-0.2,0-0.4-0.1-0.7-0.2c-0.3-0.1-0.4-0.3,0.1,0c-0.3-0.2-0.7-0.4-1-0.6
				c-0.4-0.3,0.4,0.3,0.1,0c-0.1-0.1-0.3-0.3-0.4-0.4c-0.1-0.1-0.1-0.1-0.2-0.2c0.2,0.3,0.3,0.4,0.1,0.2c-0.1-0.1-0.2-0.3-0.2-0.4
				c-0.3-0.5,0.1,0.5,0,0c0-0.2-0.1-0.4-0.1-0.5c0.1,0.4,0.1,0.5,0.1,0.2c0-0.1,0-0.1,0-0.2c0-0.6-0.2,0.5,0,0.1
				c0-0.1,0-0.2,0.1-0.2c0.1-0.2,0.1-0.1-0.1,0.3l0.2-0.4c-0.1,0-0.5,0.5-0.1,0.2c0.1-0.1,0.2-0.2,0.3-0.3c-0.5,0.5-0.3,0.2,0,0.1
				c0.1-0.1,0.2-0.1,0.3-0.2c-0.7,0.4-0.3,0.1-0.1,0.1c0.6-0.2-0.5,0-0.1,0c0.1,0,0.2,0,0.3,0c-0.5-0.1-0.6-0.1-0.3,0
				c0.1,0,0.1,0,0.2,0c0.4,0.1-0.6-0.3-0.1,0c0.3,0.2-0.5-0.5-0.1,0c0.9,1,2.6,1,3.5,0C95.8,791.4,95.9,789.9,94.9,788.9L94.9,788.9
				z"/>
		</g>
	</g>
	<g>
		<path class="st1" d="M224.7,816.1c-0.7-1.5,0.3-3.4,1.8-4.3c1.5-0.8,3.2-0.9,4.9-0.9c1,0,2,0.1,2.8,0.7c2.2,1.7-0.3,5.5-3.1,5.8
			s-5.6-1-8.4-0.8"/>
		<g>
			<path class="st1" d="M227.1,815.5c0-0.1-0.1-0.2-0.1-0.3c-0.1-0.2,0.1-0.3,0,0.2c0-0.1,0-0.7,0-0.3c-0.1,0.4,0.1-0.2,0.1-0.3
				c0.1-0.5,0,0.2-0.1,0.2c0,0,0.2-0.3,0.2-0.4l0.1-0.2c0,0.3-0.3,0.3-0.1,0.1c0.1-0.1,0.4-0.3,0.5-0.5c0,0-0.4,0.3-0.2,0.2
				c0.1,0,0.2-0.1,0.3-0.2c0,0,0.2-0.2,0.3-0.1c-0.3,0.1-0.3,0.1-0.2,0.1s0.1,0,0.2-0.1c0.2-0.1,0.5-0.2,0.7-0.2
				c0.1,0,0.2,0,0.3-0.1c0.5-0.1,0,0-0.1,0c0.5-0.1,1.1-0.1,1.6-0.1c0.4,0,0.9,0,1.3,0c0.1,0,0.3,0,0.4,0c-0.3-0.2-0.4-0.1-0.1,0
				c0.1,0,0.2,0.1,0.4,0.1c0.4,0.1-0.1,0-0.1-0.1c0,0,0.3,0.1,0.3,0.2c0,0-0.4-0.4-0.2-0.1c0,0,0.1,0.2,0.2,0.2s-0.4-0.5-0.2-0.3
				c0.3,0.4-0.2-0.4,0-0.1c0,0.1,0,0.2,0.1,0.2c-0.1-0.1-0.1-0.7-0.1-0.3c0,0.5,0.1-0.5,0-0.1c0,0.2-0.1,0.3-0.1,0.5
				c-0.1,0.4,0.3-0.5,0-0.1c-0.1,0.1-0.3,0.4-0.3,0.5c0,0,0.4-0.4,0.2-0.2c-0.1,0.1-0.1,0.1-0.2,0.2c-0.1,0.1-0.2,0.2-0.4,0.3
				c-0.1,0-0.2,0.1-0.2,0.2c0,0,0.5-0.3,0.2-0.1c-0.2,0.1-0.3,0.2-0.5,0.3c-0.1,0-0.2,0.1-0.2,0.1s0.5-0.2,0.3-0.1
				c-0.1,0-0.4,0.1-0.5,0.2c-0.2,0.1,0.3,0,0.3,0c-0.1,0-0.3,0-0.4,0c-0.3,0-0.6,0-0.8,0c-0.3,0-0.6,0-0.9-0.1c-0.4,0,0.4,0.1,0.1,0
				c-0.2,0-0.3-0.1-0.5-0.1c-0.6-0.1-1.1-0.2-1.7-0.3c-1.3-0.2-2.7-0.5-4-0.3c-1.3,0.1-2.6,1.1-2.5,2.5c0.1,1.3,1.1,2.6,2.5,2.5
				c0.6,0,1.2,0,1.8,0c0.7,0-0.5-0.1,0.1,0c0.1,0,0.3,0,0.4,0.1c0.3,0.1,0.7,0.1,1,0.2c1.4,0.3,2.9,0.6,4.3,0.5
				c2.6-0.1,4.9-1.4,6.2-3.6c1.4-2.4,1.1-5.4-1.4-7c-1.3-0.8-2.9-0.9-4.3-0.9c-1.4,0-2.8,0.1-4.1,0.5c-1.6,0.5-3,1.5-4,3
				c-0.9,1.4-1.2,3.3-0.6,4.8c0.5,1.2,1.7,2.2,3.1,1.8C226.6,818.2,227.6,816.8,227.1,815.5L227.1,815.5z"/>
		</g>
	</g>
	<g>
		<path class="st1" d="M371.1,807.4c1.8-2.4,3.7-4.8,5.5-7.3c0.3-0.4,0.6-0.8,1.1-1c1.1-0.5,2.3,0.4,3.2,1.3
			c1.3,1.3,2.8,2.9,2.6,4.8c-0.2,2.1-2.6,3.5-4.7,3.4s-4.1-1.2-5.9-2.4"/>
		<g>
			<path class="st1" d="M373.2,808.7c1.4-1.8,2.8-3.7,4.2-5.5c0.4-0.5,0.7-0.9,1-1.4c0.1-0.1,0.1-0.2,0.2-0.3
				c0.2-0.3-0.1,0.1-0.1,0.1c0-0.2,0.7-0.6,0.2-0.2c-0.1,0-0.5,0.2-0.1,0c-0.2,0-0.3,0-0.5,0c-0.3,0-0.1,0,0,0c-0.1,0-0.5-0.3-0.1,0
				c0.2,0.1,0.3,0.2,0.5,0.3c-0.5-0.3,0.1,0.2,0.3,0.3c0.3,0.3,0.7,0.7,1,1c0.1,0.2,0.3,0.3,0.4,0.5c0.3,0.3,0,0,0,0
				c0.1,0.1,0.1,0.2,0.2,0.3c0.1,0.2,0.2,0.4,0.3,0.6c0.2,0.2,0-0.2-0.1-0.2c0,0.1,0.1,0.3,0.1,0.4c0,0.1,0,0.2,0.1,0.3
				c0.1,0.3-0.1-0.2,0-0.2c0,0,0,0.3,0,0.4c0,0.5,0-0.1,0-0.2l-0.1,0.3c0,0.2,0,0.2,0,0s0.1-0.2,0,0l-0.2,0.3c0,0,0.4-0.4,0.1-0.2
				c-0.1,0-0.1,0.1-0.2,0.2c-0.1,0.1-0.2,0.2-0.2,0.2c-0.3,0.3,0.1-0.1,0.1-0.1s-0.4,0.3-0.5,0.3c-0.5,0.3,0.3-0.1-0.1,0
				c-0.2,0-0.3,0.1-0.5,0.2c-0.1,0-0.2,0-0.3,0.1c-0.4,0.1,0.2,0,0.2,0s-0.6,0-0.7,0s-0.3,0-0.4,0c0.2,0,0.3,0,0,0
				c-0.5-0.1-1.1-0.3-1.6-0.5c0,0,0.4,0.2,0.1,0c-0.2-0.1-0.3-0.2-0.5-0.2c-0.2-0.1-0.5-0.2-0.7-0.3c-0.5-0.3-1.1-0.6-1.6-0.9
				c-1.1-0.7-2.8-0.3-3.4,0.9s-0.3,2.7,0.9,3.4c2.3,1.4,4.9,2.9,7.6,2.7c2.8-0.2,5.3-1.7,6.4-4.3c1.1-2.8-0.5-5.6-2.4-7.6
				c-1-1.1-2.2-2.1-3.6-2.5c-1.7-0.5-3.4,0.1-4.5,1.4c-1.1,1.3-2.1,2.8-3.2,4.1c-1,1.3-2,2.6-3,3.9c-0.8,1-0.2,2.8,0.9,3.4
				C371.1,810.3,372.4,809.8,373.2,808.7L373.2,808.7z"/>
		</g>
	</g>
	<g>
		<path class="st1" d="M392.7,768.9c-3.6-1-8.2-3.7-6.9-7.2c0.7-2,3.2-2.9,5.2-2.5s3.9,1.6,5.6,2.8c1.3,0.9,2.5,1.8,3.8,2.7
			c0.5,0.3,0.9,0.7,1.1,1.2c0.4,1.1-0.7,2.2-1.6,3c-1.4,1-2.9,2.1-4.6,2s-3.3-2.2-2.3-3.6"/>
		<g>
			<path class="st1" d="M393.3,766.5c-0.5-0.2-1.1-0.3-1.6-0.5c0,0-0.4-0.2-0.1,0c0.3,0.1-0.1-0.1-0.2-0.1c-0.3-0.1-0.6-0.3-0.9-0.4
				c-0.5-0.3-0.9-0.5-1.4-0.9c-0.3-0.2,0.2,0.3,0,0c-0.1-0.1-0.2-0.1-0.2-0.2c-0.2-0.2-0.4-0.5-0.6-0.6c-0.2-0.2,0.2,0.3,0,0.1
				c0-0.1-0.1-0.2-0.2-0.3c-0.3-0.5,0,0.3-0.1-0.1c0-0.1-0.1-0.2-0.1-0.3c-0.2-0.5,0,0.2,0,0.2V763c0-0.4-0.1,0.2,0,0
				c0.1-0.1,0.3-0.7,0.1-0.2c0.1-0.1,0.1-0.2,0.2-0.3c-0.2,0.4-0.1,0.1,0,0s0.2-0.2,0.3-0.3c-0.1,0.1-0.4,0.2,0,0
				c0.1,0,0.2-0.1,0.3-0.2c0.2-0.2-0.3,0.1,0.1,0c0.3-0.1,0.5-0.2,0.8-0.2c-0.5,0.1,0.2,0,0.4,0c0.1,0,0.2,0,0.3,0
				c0.4,0-0.4-0.1,0,0s0.8,0.2,1.1,0.3c0,0,0.5,0.2,0.1,0c0.2,0.1,0.3,0.2,0.5,0.2c0.3,0.1,0.5,0.3,0.8,0.4c0.6,0.4,1.2,0.8,1.8,1.2
				c1.3,0.9,2.6,1.9,4,2.8c0.2,0.1,0.3,0.2,0.5,0.3c0.2,0.2,0,0,0,0c0.5,0.4,0.1,0.1,0.1,0c0-0.2-0.1-0.4-0.1-0.6c0-0.1,0-0.2,0-0.2
				s0.3-0.5,0,0c0-0.1,0.3-0.3-0.1,0.1c-0.1,0.1-0.2,0.2-0.3,0.3c-0.1,0.1-0.4,0.4-0.2,0.2c-0.6,0.5-1.3,1-2,1.3
				c-0.1,0.1-0.3,0.2-0.5,0.2c0.3-0.1-0.1,0-0.2,0s-0.6,0.1-0.3,0.1c0.2,0-0.4,0-0.4,0c0.1,0,0.5,0.1,0.1,0c0.2,0,0.3,0.2,0,0
				c-0.4-0.2-0.1,0,0,0c0,0-0.4-0.5-0.2-0.2c0.2,0.3-0.1-0.1-0.1-0.2c0-0.2,0.2,0.4,0,0c0.1,0.4,0,0.3,0,0.1c0,0.2-0.3,0.8,0,0.4
				c0.7-1.1,0.3-2.8-0.9-3.4c-1.2-0.7-2.7-0.3-3.4,0.9c-1.2,1.9-0.6,4.4,1,5.9c1.9,1.7,4.4,1.7,6.6,0.8c0.8-0.4,1.5-0.8,2.2-1.3
				c1-0.7,2.1-1.5,2.7-2.6c0.6-1,0.8-2.3,0.5-3.5c-0.4-1.4-1.5-2.2-2.7-3c-3.3-2.3-6.9-5.7-11.1-5.7c-4.1,0-8,3.4-6.9,7.7
				c0.9,3.9,5.4,6,8.8,7c1.3,0.4,2.8-0.4,3.1-1.8C395.4,768.2,394.7,766.8,393.3,766.5L393.3,766.5z"/>
		</g>
	</g>
	<g>
		<path class="st1" d="M512.7,808.4c-4.6-0.2-9.5-1-12.7-4.2s-3.3-9.7,0.9-11.7c2-0.9,4.3-0.7,6.4-1.4c2.6-1,4.7-3.5,7.4-3.3
			c2.8,0.2,4.3,3.2,5.3,5.8c1,2.8,1.8,5.8,2.5,8.7c0.2,0.9,0.3,1.9,0,2.8c-0.4,0.9-1.3,1.5-2.2,2c-3.2,1.8-6.7,3.1-10.3,4"/>
		<g>
			<path class="st1" d="M512.7,805.9c-3.8-0.2-8.8-0.7-11.2-3.9c-0.9-1.2-1.3-2.6-1.2-4.2c0-0.2,0-0.4,0-0.5c0,0.3,0-0.1,0-0.1
				c0.1-0.3,0.1-0.5,0.2-0.8c0,0,0.2-0.4,0-0.1c0.1-0.2,0.5-0.8,0.5-0.8c0.1-0.2,0.5-0.5,0.6-0.6c1.9-1.2,4.5-0.7,6.5-1.5
				c1-0.4,2-1,3-1.6c0.8-0.5,1.7-1.2,2.6-1.4c1.5-0.4,2.5,1,3.2,2.5c1.1,2.2,1.7,4.6,2.3,6.9c0.2,0.8,0.4,1.5,0.5,2.3
				c0.1,0.5,0.4,1.3,0.3,1.8c-0.2,0.8-1.6,1.2-2.3,1.6c-2.7,1.4-5.6,2.4-8.6,3.1c-3.1,0.8-1.8,5.6,1.3,4.8c3.4-0.8,6.7-2,9.8-3.6
				c1.2-0.6,2.5-1.3,3.5-2.4c1.4-1.7,1.4-3.7,1-5.8c-0.6-3.2-1.5-6.3-2.7-9.3c-1.1-2.8-2.7-5.5-5.6-6.6c-3-1.1-5.7,0.4-8.2,2
				c-1,0.7-2,1.2-3.3,1.4c-1.5,0.3-3.1,0.3-4.5,0.9c-5.4,2-6.4,8.4-4.2,13.2c2.8,6.1,10.4,7.5,16.3,7.7
				C515.9,811.1,515.9,806.1,512.7,805.9L512.7,805.9z"/>
		</g>
	</g>
	<g>
		<path class="st1" d="M201.4,92c-5.3,0-10.6-0.1-15.9-0.1c-4.4,0-8.8-0.1-13-1.1c-5.3-1.3-9.9-4.2-14.5-7c-2.4-1.5-4.8-3-7.2-4.5
			c-1.6-1-3.3-2.1-3.6-3.8c-0.6-2.7,2.3-4.9,4.9-6.2c11.1-5.6,23.1-9.5,35.4-11.5c9.1-1.5,19.7-1.4,25.9,5.1
			c2.1,2.2,3.5,5.3,2.6,8.1c-1,3.1-4.4,5.1-5.7,8.1c-0.7,1.7-0.7,3.7-1.8,5.3c-1.9,2.8-6.9,4.1-6.2,7.4"/>
		<g>
			<path class="st1" d="M201.4,89.5c-6.4,0-12.8,0-19.2-0.2c-2.9-0.1-5.8-0.2-8.6-0.9c-2.7-0.6-5.3-1.7-7.8-3
				c-2.6-1.4-5.1-2.9-7.6-4.5c-2.5-1.5-5.2-2.9-7.5-4.7c-0.5-0.4-1.2-0.9-1.2-1.6s0.8-1.5,1.4-1.9c2-1.6,4.6-2.6,6.8-3.6
				c10.2-4.7,21.4-8.1,32.6-9.4c4.7-0.5,9.6-0.7,14.2,0.7c3.7,1.1,8.6,3.8,9.2,8.2c0.3,2.4-1.8,4.1-3.2,5.7c-0.9,1-1.7,2.1-2.3,3.3
				c-0.6,1.4-0.9,2.8-1.3,4.2c-0.6,2-2.7,3-4.4,4.3c-2,1.6-3.1,3.6-2.7,6.2c0.2,1.3,1.9,2.1,3.1,1.8c1.4-0.4,2-1.7,1.8-3.1
				c0,0.1,0.2-0.1,0,0.1c0.4-0.4,0.1-0.3,0.5-0.7c0.6-0.6,1.4-1.1,2.3-1.8c2.2-1.7,3.8-3.5,4.4-6.2c0.3-1.2,0.5-2.3,1.2-3.3
				s1.6-1.9,2.4-2.8c1.9-2.2,3.4-4.6,3.2-7.6c-0.3-5.8-5.4-10.1-10.5-12.2c-4.9-2-10.4-2.3-15.6-1.9c-12.3,1-24.5,4.7-35.7,9.6
				c-2.7,1.2-5.6,2.4-8.1,4c-2.3,1.6-4.5,3.9-4.3,6.9c0.2,3.2,2.8,5.1,5.3,6.6c2.8,1.7,5.6,3.5,8.4,5.2c3,1.8,6.1,3.6,9.3,4.9
				c3.5,1.4,7.1,2.2,10.9,2.4c3.6,0.3,7.3,0.2,11,0.2c4,0,7.9,0.1,11.9,0.1C204.6,94.5,204.6,89.5,201.4,89.5L201.4,89.5z"/>
		</g>
	</g>
	<g>
		<path class="st1" d="M425.4,79c-16.1,0.4-32-8.3-40-21.7c5.3-4.5,13.4-3.7,20.4-5.2c5.4-1.2,10.2-4,15.3-5.9
			c5.1-1.9,11-3,16.1-0.8c3.5,1.5,6.2,4.5,8.3,7.7c5.9,8.7,8.9,19.3,8.2,29.6c0,0.8-0.1,1.8-0.7,2.4c-1.1,1.3-3.1,0.9-4.8,0.5
			c-7-1.9-14-3.8-21-5.6"/>
		<g>
			<path class="st1" d="M425.4,76.5c-15,0.3-30.1-7.5-37.8-20.5c-0.1,1-0.3,2-0.4,3c2.5-2.1,5.9-2.7,9-3.2c3.5-0.5,7.1-0.7,10.6-1.5
				c7.8-1.9,14.8-7.2,23-7.7c3.7-0.2,7.1,0.8,9.8,3.3c2.7,2.5,4.8,5.7,6.5,9c3.6,6.8,5.4,14.6,5.1,22.3c0,0.6,0,1.1-0.1,1.7
				c0,0.2-0.2,0.9,0,0.6c0.2-0.2-0.1,0-0.3,0c-0.3,0-0.6,0-0.9-0.1c-2.4-0.4-4.7-1.2-7-1.8c-5-1.3-10-2.7-15-4
				c-3.1-0.8-4.4,4-1.3,4.8c4.9,1.3,9.9,2.6,14.8,4c2.3,0.6,4.6,1.3,6.9,1.8c2.1,0.4,4.3,0.5,6.1-0.9c1.9-1.6,2-4.1,2-6.3
				c0-2.1,0-4.3-0.3-6.4c-0.5-4.5-1.5-8.9-3.2-13.1c-3.1-7.7-8.2-16.8-16.8-19.2c-9.3-2.6-17.9,2.8-26.3,5.9
				c-4.3,1.6-8.7,2-13.2,2.6c-4.7,0.6-9.1,1.6-12.9,4.7c-0.8,0.7-0.9,2.1-0.4,3c6.6,11.1,18.2,19.1,30.8,21.8
				c3.7,0.8,7.5,1.2,11.3,1.1C428.6,81.4,428.7,76.4,425.4,76.5L425.4,76.5z"/>
		</g>
	</g>
	<g>
		<path class="st1" d="M314.9,61.1c-3.8-4.3-9.9-6.5-15.8-6.5s-11.7,1.9-16.9,4.6c-1.6-3.3,0.2-7.5,3.2-9.8s6.9-3.2,10.7-4
			c3.7-0.8,7.8-1.6,11.2-0.1c1.8,0.8,3.2,2.1,4.7,3.4c3.3,3.1,6.9,6.6,7,11c0,0.5-0.1,1.1-0.5,1.5s-1.3,0-1.2-0.5"/>
		<g>
			<path class="st1" d="M316.6,59.3c-4.1-4.6-10.2-6.8-16.2-7.2c-6.8-0.4-13.5,1.9-19.6,4.9c1.1,0.3,2.3,0.6,3.4,0.9
				c-1.4-3,1.6-6.2,4-7.5c1.7-1,3.6-1.5,5.5-2c2.1-0.5,4.3-1,6.4-1.3c2-0.3,4.1-0.3,6,0.5c1.8,0.8,3.2,2.3,4.6,3.6s2.8,2.7,3.9,4.3
				c0.5,0.7,0.9,1.5,1.2,2.3c0.2,0.5,0.3,1,0.4,1.5c0,0.2,0,0.3,0,0.5C316.1,60.5,316.3,60.3,316.6,59.3c0.5-0.2,0.9-0.3,1.4-0.4
				c0.2,0,0.3,0.1,0.5,0.2c0.3,0.3,0.6,0.6,0.9,0.9c0-0.1-0.1-0.1-0.1-0.2c0.1,0.4,0.2,0.8,0.3,1.3c0-0.1,0-0.2,0-0.2
				c-0.1-1.3-1.1-2.5-2.5-2.5c-1.3,0-2.6,1.2-2.5,2.5c0.2,3.2,4.3,4.3,6.1,1.5c1.2-1.9,0.5-4.6-0.2-6.5c-1.7-4.2-5.3-7.7-8.7-10.5
				c-2-1.6-4.2-2.8-6.8-3.2c-2.6-0.4-5.1,0-7.7,0.4c-4.5,0.8-9.3,1.8-13,4.5c-4.2,3.1-6.5,8.4-4.3,13.3c0.6,1.3,2.3,1.5,3.4,0.9
				c9.1-4.6,22-7.1,29.7,1.5C315.3,65.3,318.8,61.7,316.6,59.3L316.6,59.3z"/>
		</g>
	</g>
	<g>
		<path class="st1" d="M600.5,30.8V5.7h-6.1c-5.4,4.1-13.5,5-17.2,10.5c-4.1,6.2-0.4,14.4,4.2,20.3c3.9,5,8.4,9.5,13.4,13.4
			l-0.9-2.5C595.3,41.6,597.9,36.2,600.5,30.8z"/>
		<g>
			<path class="st1" d="M603,30.8c0-7.3,0-14.6,0-22c0-1,0-2.1,0-3.2c0-1.3-1.2-2.5-2.5-2.5c-1.1,0-2.3,0-3.4,0
				c-1.4,0-3-0.2-4.2,0.5c-2,1.3-4,2.3-6.2,3.3c-2.1,0.9-4.3,1.8-6.3,3c-4.5,2.7-7.5,7.1-7.4,12.5c0.1,5.5,2.8,10.6,6.1,14.9
				c4,5.3,8.8,10.1,14,14.2c0.9,0.7,2,1,3,0.4c0.9-0.5,1.5-1.8,1.2-2.8c-0.3-0.8-0.6-1.6-0.9-2.5c0,0.4,0,0.9,0,1.3
				c1.3-5.7,3.8-10.8,6.3-16c0.6-1.2,0.3-2.7-0.9-3.4c-1.1-0.6-2.8-0.3-3.4,0.9c-2,4.1-4,8.1-5.4,12.4c-0.3,1-0.7,2-0.9,3.1
				c-0.3,1-0.7,2.1-0.4,3.1c0.2,0.8,0.6,1.6,0.9,2.4c1.4-0.8,2.8-1.6,4.2-2.4c-3.4-2.7-6.6-5.6-9.6-8.8c-2.7-3-5.3-6.2-7.2-9.8
				c-1.5-3.1-2.6-6.9-1.4-10.2c1.1-3,4-4.8,6.7-6.1c3.5-1.7,7.3-3,10.5-5.3c-0.4,0.1-0.8,0.2-1.3,0.3c2,0,4,0,6.1,0
				c-0.8-0.8-1.7-1.7-2.5-2.5c0,7.3,0,14.6,0,22c0,1,0,2.1,0,3.2C598,34.1,603,34.1,603,30.8z"/>
		</g>
	</g>
	<g>
		<path class="st1" d="M526.9,49c-3.7,1.9-7.4,3.8-11.1,5.7c-2.4,1.2-5.2,2.5-7.8,1.8c-3.4-0.9-5-5-4.2-8.3s3.5-5.9,6.2-8
			c6.9-5.4,15.4-8.9,24.2-10.1c0.8-0.1,1.6-0.2,2.2,0.2c0.6,0.4,0.9,1,1.1,1.6c2.8,8-2.2,17.8-10.6,20.5"/>
		<g>
			<path class="st1" d="M525.7,46.9c-3.4,1.7-6.8,3.5-10.2,5.2c-2.1,1-5.4,3.2-7.7,1.6c-1.5-1-2-3.2-1.6-4.8c0.7-2.8,3-4.8,5.1-6.5
				c4.8-3.8,10.5-6.6,16.5-8.3c1.5-0.4,3-0.8,4.6-1.1c0.7-0.1,1.4-0.3,2.1-0.4c0.3,0,0.6-0.1,0.9,0c-0.4,0-0.3-0.5-0.2,0.1
				c0.2,1,0.6,1.9,0.7,2.8c0.1,1.2,0.1,2.4-0.1,3.5c-1,5-4.4,9.5-9.3,11.1c-3,1-1.7,5.9,1.3,4.8c6.1-2.1,10.9-7.2,12.6-13.5
				c0.8-3,0.8-6.3,0-9.3c-0.5-1.9-1.5-3.7-3.4-4.3c-1.9-0.6-4.3,0.1-6.2,0.4c-7.6,1.5-15,4.7-21.2,9.4c-3.1,2.3-6.1,5-7.6,8.7
				c-1.2,3.1-0.9,6.8,1,9.5c2.9,4,7.6,4,11.8,2.3c4.6-2,9-4.5,13.5-6.8C531.1,49.7,528.5,45.4,525.7,46.9L525.7,46.9z"/>
		</g>
	</g>
	<g>
		<path class="st1" d="M480.1,29c-5.5,1.6-12.1-1.1-14.6-6.1c3.8-1.5,7.5-2.9,11.3-4.3c1.5-0.6,3-1.1,4.5-0.8
			c3.4,0.6,4.5,4.8,4.2,8.1c-0.3,2.7-1,5.3-2.2,7.8"/>
		<g>
			<path class="st1" d="M479.4,26.6c-4.4,1.2-9.6-0.8-11.8-5c-0.5,1.2-1,2.5-1.5,3.7c3-1.1,5.9-2.3,8.9-3.4c1.5-0.6,2.9-1.2,4.4-1.6
				c0.5-0.1,0.9-0.2,1.4-0.1c0.1,0,0.7,0.3,0.3,0.1c0.2,0.1,0.4,0.2,0.6,0.4c-0.4-0.3,0.1,0.2,0.2,0.2c0.4,0.4-0.1-0.3,0.2,0.2
				c0.1,0.2,0.2,0.4,0.4,0.6c0.3,0.6-0.1-0.4,0.1,0.3c0.3,1.2,0.4,1.4,0.4,2.6c0,2.6-0.8,5.4-1.9,7.7c-0.6,1.2-0.3,2.7,0.9,3.4
				c1.1,0.6,2.8,0.3,3.4-0.9c1.5-3.2,2.6-6.7,2.6-10.2c0-2.7-0.8-5.7-2.9-7.6c-1.2-1.1-2.6-1.7-4.2-1.8c-1.9-0.2-3.8,0.6-5.6,1.3
				c-3.5,1.4-7,2.7-10.5,4.1c-1.5,0.6-2.3,2.1-1.5,3.7c3.2,6.1,10.9,9.1,17.5,7.3C483.8,30.5,482.5,25.7,479.4,26.6L479.4,26.6z"/>
		</g>
	</g>
	<g>
		<path class="st1" d="M142.4,44.2c-3.1,0.8-6.4,1.3-9.5,0.4c-3.1-0.9-5.7-3.6-5.5-6.7c0.3-4.4,5.5-6.6,10-7.7
			c2.9-0.7,5.9-1.3,8.8-0.8s5.8,2.3,6.6,5.1s-0.8,5.8-3,7.6c-2.3,1.9-5.2,2.8-8,3.8"/>
		<g>
			<path class="st1" d="M141.7,41.8c-3.5,0.9-8.4,1.7-11-1.5c-1.9-2.4-0.2-4.5,2.1-5.7c1.4-0.8,2.9-1.3,4.4-1.7
				c2.1-0.5,4.2-1.1,6.4-1.1c2.6-0.1,7.1,1.1,6.8,4.6c-0.4,4.4-5.9,6-9.4,7.2c-3,1-1.7,5.8,1.3,4.8c5.2-1.7,11-4.1,12.7-9.9
				c1.6-5.6-2.8-10.4-8.1-11.4c-3.1-0.6-6.3-0.1-9.4,0.6c-2.3,0.5-4.6,1.2-6.8,2.3c-4.4,2.3-7.5,7-5,11.9c3.3,6.4,11.2,6.2,17.2,4.8
				C146.2,45.9,144.8,41.1,141.7,41.8L141.7,41.8z"/>
		</g>
	</g>
	<g>
		<path class="st1" d="M232.7,31.7c2.6,1.5,5.1,3,7.6,4.5c1.2,0.7,2.6,1.5,4,1.5c1.8,0,3.3-1,4.6-2.1c3.9-3,7.6-6.3,11-9.8
			c0.8-0.8,1.6-1.7,1.8-2.9c0.3-2.5-2.9-4.2-5.6-4s-5.2,1.4-7.9,1.1c-1-0.1-2-0.4-3-0.2c-0.9,0.2-1.6,1-2.2,1.7
			c-3,3.2-5.9,6.5-8.9,9.8"/>
		<g>
			<path class="st1" d="M231.4,33.9c2.6,1.5,5.1,3,7.6,4.5c2.4,1.4,5.1,2.4,7.9,1.3c2.5-1,4.7-2.9,6.7-4.6c2.1-1.8,4.2-3.6,6.2-5.5
				c1.9-1.8,4.2-3.8,4.4-6.6c0.2-2.3-1.3-4.2-3.2-5.3c-2.2-1.3-4.6-1.3-7.1-0.9c-1.2,0.2-2.5,0.6-3.7,0.8c-1.4,0.2-2.6-0.2-3.9-0.2
				c-3.3-0.1-5.2,2.7-7.2,4.8c-2.3,2.5-4.5,4.9-6.8,7.4c-2.2,2.4,1.4,5.9,3.5,3.5c3.1-3.4,6.1-7.1,9.4-10.3c0.5-0.5,0.8-0.5,1.5-0.5
				c1.3,0.1,2.4,0.3,3.7,0.2c2-0.2,4.1-1.1,6.2-1c0.6,0,1.1,0.1,1.6,0.4c0.2,0.1,0.6,0.3,0.7,0.4s0.3,0.4,0.3,0.3
				c0.1,0.3-0.2,0.6-0.5,1c-0.7,0.8-1.5,1.6-2.3,2.4c-3.1,3-6.4,6.2-10.1,8.5c-0.7,0.4-1.4,0.9-2.3,0.8c-1.1-0.1-2.1-0.9-3-1.4
				c-2.4-1.4-4.8-2.8-7.2-4.2C231.1,27.9,228.6,32.3,231.4,33.9L231.4,33.9z"/>
		</g>
	</g>
	<g>
		<path class="st1" d="M421,13.6c-3.2,0.8-7.1,3.1-6,6c0.6,1.6,2.8,2.4,4.5,2.1s3.4-1.3,4.8-2.4c1.1-0.8,2.2-1.5,3.3-2.3
			c0.4-0.3,0.8-0.6,1-1c0.4-1-0.6-1.9-1.4-2.5c-1.2-0.9-2.5-1.8-4-1.7s-2.9,1.8-2,3"/>
		<g>
			<path class="st1" d="M420.4,11.2c-2.8,0.8-6.1,2.3-7.4,5c-0.8,1.6-0.8,3.6,0.2,5.2c0.9,1.5,2.6,2.5,4.3,2.8c4,0.6,7.1-1.9,10.2-4
				c0.8-0.5,1.6-1,2.3-1.7c1-0.9,1.5-2.3,1.2-3.7c-0.5-1.9-2.3-3.2-3.9-4.2c-1.9-1.1-4.4-1.6-6.4-0.4s-3.1,3.9-1.7,6
				c0.7,1.1,2.2,1.7,3.4,0.9c1.1-0.7,1.7-2.3,0.9-3.4c-0.2-0.4,0,0.1,0,0.2c0,0.1,0,0.6,0,0.2c0,0.1-0.1,0.6,0,0.2
				c0,0-0.2,0.5-0.1,0.2c0.1-0.2,0.3-0.2,0-0.1c-0.3,0.1,0,0.1,0.1-0.1c0.2-0.2-0.2,0.1-0.2,0.1c0-0.2,0.6-0.1,0.2-0.1
				c0,0-0.1,0-0.1,0.1c0.2-0.1,0.2-0.1,0,0c-0.4,0.1,0,0,0.2,0c0.3,0,0,0-0.1,0c0.1,0,0.3,0.1,0.4,0.1s0.3,0.1,0.4,0.1
				c-0.1,0-0.4-0.2,0,0c0.3,0.1,0.5,0.3,0.8,0.5c0.2,0.2,0.5,0.3,0.8,0.5c0.1,0.1,0.4,0.3,0,0c0.1,0.1,0.2,0.2,0.3,0.3
				c0.1,0.1,0.1,0.2,0.2,0.2c0.3,0.2-0.2-0.3,0,0c0.2,0.2-0.1-0.2-0.1-0.3c0-0.4,0.1-0.7,0.3-1c0,0-0.3,0.3-0.1,0.1
				c0.2-0.2-0.1,0.1-0.2,0.1c-0.3,0.2-0.5,0.4-0.8,0.5c-0.6,0.4-1.2,0.9-1.9,1.3c-1,0.7-2.1,1.4-3.2,2c-0.1,0-0.4,0.2,0,0
				c-0.1,0.1-0.2,0.1-0.3,0.1c-0.3,0.1-0.6,0.2-0.9,0.3c-0.1,0-0.2,0.1-0.4,0.1c0.5,0.1,0.3,0,0.1,0c-0.1,0-0.2,0-0.4,0
				c-0.1,0-0.6-0.1-0.2,0s-0.3-0.1-0.4-0.1c0,0-0.3-0.1-0.4-0.1c0.2,0.2,0.3,0.2,0.1,0c-0.1-0.1-0.2-0.1-0.3-0.2
				c-0.3-0.2,0.1,0.1,0.1,0.1l-0.2-0.2c-0.2-0.2,0.2,0.4,0,0l-0.2-0.3c0,0,0,0.1,0.1,0.1c0.1,0.2,0.1,0.2,0,0c0,0,0-0.5,0,0
				c0,0.4,0,0.1,0,0s0-0.5,0,0c0,0.4,0,0.1,0,0c0.2-0.6-0.2,0.3,0.1-0.2c0.1-0.1,0.1-0.2,0.2-0.3c0.1-0.2-0.4,0.4,0,0.1
				c0.2-0.2,0.4-0.4,0.5-0.5c0-0.1,0.1-0.1,0.2-0.2c-0.2,0.2-0.3,0.2-0.1,0.1c0.1,0,0.1-0.1,0.2-0.2c0.2-0.1,0.4-0.3,0.6-0.4
				s0.5-0.3,0.8-0.4c0.1,0,0.2-0.1,0.3-0.1c0.6-0.3-0.5,0.2,0.1,0c0.5-0.2,1-0.4,1.6-0.5c1.3-0.3,2.2-1.8,1.8-3.1
				C423,11.7,421.7,10.8,420.4,11.2L420.4,11.2z"/>
		</g>
	</g>
	<g>
		<path class="st1" d="M-5.2,84.4v23.7c0.7,0.3,1.3,0.7,2,1V83.6C-3.9,83.8-4.6,84.1-5.2,84.4z"/>
		<g>
			<path class="st1" d="M-7.7,84.4c0,6.9,0,13.8,0,20.8c0,1,0,2,0,2.9c0,0.8,0.5,1.8,1.2,2.2c0.7,0.3,1.3,0.7,2,1
				c1.7,0.8,3.8-0.2,3.8-2.2c0-7.4,0-14.8,0-22.2c0-1.1,0-2.1,0-3.2c0-1.5-1.6-3-3.2-2.4c-0.7,0.2-1.3,0.5-2,0.7
				c-1.3,0.4-2.1,1.6-1.7,3c0.3,1.2,1.8,2.2,3.1,1.8c0.7-0.2,1.3-0.5,2-0.7c-1.1-0.8-2.1-1.6-3.2-2.4c0,7.4,0,14.8,0,22.2
				c0,1.1,0,2.1,0,3.2c1.2-0.7,2.5-1.4,3.8-2.2c-0.7-0.3-1.4-0.7-2-1c0.4,0.7,0.8,1.4,1.2,2.2c0-6.9,0-13.8,0-20.8c0-1,0-2,0-2.9
				C-2.7,81.1-7.7,81.1-7.7,84.4z"/>
		</g>
	</g>
	<g>
		<path class="st1" d="M43.7,83.3c-6.2-6.5-16.8-6.6-25.9-5.1c-5.7,0.9-11.3,2.3-16.9,4v28.5c0.6,0.2,1.3,0.4,1.9,0.6
			c4.2,1.1,8.6,1.1,13,1.1c5.3,0,10.6,0.1,15.9,0.1l0.8-0.3c-0.7-3.3,4.4-4.6,6.2-7.4c1-1.6,1-3.5,1.8-5.3c1.3-3,4.7-5,5.7-8.1
			C47.1,88.6,45.7,85.5,43.7,83.3z"/>
		<g>
			<path class="st1" d="M45.4,81.6c-5.2-5.3-12.8-6.8-20-6.6c-8.5,0.2-17.1,2.4-25.2,4.9c-1,0.3-1.8,1.3-1.8,2.4
				c0,8.3,0,16.6,0,24.9c0,1.2,0,2.4,0,3.6c0,1.1,0.8,2.1,1.8,2.4c5.4,1.8,11.2,1.8,16.9,1.8c3,0,6,0,8.9,0.1c2.3,0,5,0.5,7.2-0.4
				c1.4-0.5,2-1.6,1.8-3.1c0,0.2,0,0.2,0-0.1c0,0.2,0,0.3,0,0.1c0-0.2,0-0.2,0,0.1c0.1-0.1,0.2-0.3,0.2-0.4
				c-0.3,0.3,0.3-0.2,0.3-0.3c0.2-0.2,0.4-0.4,0.6-0.6c0.8-0.7,2.1-1.5,3.1-2.3c1.2-1.1,2.1-2.4,2.7-4c0.5-1.5,0.6-3.1,1.5-4.5
				c1.8-2.7,4.6-4.5,5.4-7.8C49.7,88,47.9,84.3,45.4,81.6c-2.2-2.4-5.7,1.2-3.5,3.5c2,2.1,2.9,4.8,1.1,7.3c-1.9,2.6-4.3,4.4-5.2,7.7
				c-0.2,0.8-0.4,1.6-0.6,2.3c-0.2,0.6-0.4,1-0.7,1.3c-0.8,0.9-1.7,1.5-2.7,2.2c-2.4,1.8-4.2,3.8-3.6,7c0.6-1,1.2-2.1,1.8-3.1
				c-0.8,0.3-0.9,0.2-1.9,0.2c-1.4,0-2.8,0-4.2,0c-2.9,0-5.8,0-8.7-0.1c-5.2,0-10.5,0-15.5-1.6c0.6,0.8,1.2,1.6,1.8,2.4
				c0-8.3,0-16.6,0-24.9c0-1.2,0-2.4,0-3.6c-0.6,0.8-1.2,1.6-1.8,2.4c7.3-2.2,15.1-4.3,23-4.6c6.1-0.3,12.8,0.5,17.2,5.1
				C44.1,87.4,47.7,83.9,45.4,81.6z"/>
		</g>
	</g>
	<g>
		<path class="st1" d="M-1.1,82.9h-0.1v27h0.1V82.9z"/>
		<g>
			<path class="st1" d="M-1.8,80.5h-0.1c-1,0.3-1.8,1.3-1.8,2.4c0,7.9,0,15.8,0,23.7c0,1.1,0,2.2,0,3.4c0,1.2,0.8,2,1.8,2.4h0.1
				c1.5,0.6,3.2-0.9,3.2-2.4c0-7.9,0-15.8,0-23.7c0-1.1,0-2.3,0-3.4c0-3.2-5-3.2-5,0c0,7.9,0,15.8,0,23.7c0,1.1,0,2.3,0,3.4
				c1.1-0.8,2.1-1.6,3.2-2.4h-0.1c0.6,0.8,1.2,1.6,1.8,2.4c0-7.9,0-15.8,0-23.7c0-1.1,0-2.2,0-3.4c-0.6,0.8-1.2,1.6-1.8,2.4h0.1
				C2.6,84.3,1.3,79.5-1.8,80.5z"/>
		</g>
	</g>
	<g>
		<path class="st1" d="M32.7,31.1c-2.6-0.7-3.2-4.4-1.5-6.4s4.6-2.7,7.3-2.9c2.5-0.1,5.2,0.1,6.8,1.9c2.1,2.2,1.2,6.1-1.2,7.9
			c-2.5,1.8-6,1.9-9,0.9"/>
		<g>
			<path class="st1" d="M33.4,28.7c0,0-0.1,0-0.2,0c-0.2-0.1-0.2-0.1,0,0C33.3,28.6,33.3,28.7,33.4,28.7c-0.1,0-0.2-0.1-0.3-0.1
				c-0.3-0.2,0.2,0,0.1,0.1L33,28.5c-0.3-0.3,0.1,0.1,0.1,0.1l-0.2-0.3c-0.2-0.4,0.1-0.1,0,0.1c0,0-0.1-0.4-0.1-0.5
				c0,0,0-0.3-0.1-0.3c0.1,0.1,0,0.6,0,0.2c0-0.2,0-0.5,0-0.7c0-0.3-0.2,0.6,0,0.1c0-0.1,0-0.2,0.1-0.3c0-0.1,0.1-0.2,0.1-0.3
				c0.1-0.5-0.2,0.4,0,0c0.1-0.1,0.2-0.2,0.2-0.4c0.1-0.3-0.4,0.5,0,0c0.2-0.2,0.4-0.4,0.6-0.6c0.3-0.3,0.1,0,0,0
				c0.1-0.1,0.3-0.2,0.4-0.3s0.3-0.2,0.5-0.2c0.1-0.1,0.7-0.3,0.2-0.1c0.6-0.2,1.2-0.4,1.8-0.5c0.3-0.1,0.6-0.1,1-0.2
				c-0.5,0.1-0.1,0,0,0c0.2,0,0.4,0,0.7-0.1c0.6,0,1.3-0.1,1.9-0.1c0.3,0,0.6,0,1,0.1c0.4,0-0.6-0.1,0.1,0c0.2,0,0.4,0.1,0.6,0.1
				c0.3,0.1,0.5,0.1,0.8,0.2c0.4,0.1,0.1,0,0,0c0.2,0.1,0.3,0.1,0.5,0.2s0.3,0.2,0.4,0.3c-0.1-0.1-0.4-0.3,0,0
				c0.1,0.1,0.2,0.2,0.3,0.3c0.4,0.3-0.2-0.3,0.1,0.1c0,0.1,0.1,0.2,0.2,0.3c0.3,0.4,0-0.3,0,0c0,0.1,0.3,0.7,0.2,0.8
				c0,0,0-0.5,0-0.1c0,0.1,0,0.3,0,0.5c0,0.1,0,0.4,0,0.5c0.1-0.1,0.1-0.5,0,0c-0.1,0.3-0.1,0.5-0.2,0.8c-0.1,0.4,0,0,0-0.1
				c-0.1,0.1-0.1,0.3-0.2,0.4c-0.1,0.1-0.6,0.8-0.2,0.4c-0.2,0.2-0.4,0.5-0.6,0.7c-0.3,0.3,0,0,0.1,0c-0.2,0.1-0.3,0.2-0.5,0.4
				c-0.7-0.1-0.8,0-1,0c-0.1,0-0.2,0.1-0.3,0.1c0.2-0.1,0.3-0.1,0.1,0c-0.3,0.1-0.7,0.2-1,0.3c-0.2,0-0.3,0.1-0.5,0.1
				c-0.5,0.1,0.4,0-0.2,0c-0.7,0-1.5,0-2.2,0c0.5,0,0.1,0,0,0c-0.2,0-0.4-0.1-0.7-0.1c-0.4-0.1-0.8-0.2-1.3-0.4
				c-1.2-0.4-2.8,0.5-3.1,1.8c-0.3,1.4,0.4,2.6,1.8,3.1c3.6,1.2,7.9,1.1,11-1.2s4.4-6.5,2.8-10c-1.7-3.6-6-4.5-9.6-4.4
				c-3.7,0.2-8.1,1.2-10,4.7c-2,3.5-0.7,8.4,3.4,9.6c1.3,0.4,2.8-0.4,3.1-1.8C35.4,30.4,34.7,29.1,33.4,28.7L33.4,28.7z"/>
		</g>
	</g>
	<g>
		<path class="st1" d="M63,52.3c2.5,1.5,5.1,3,7.6,4.5c1.2,0.7,2.6,1.5,4,1.5c1.8,0,3.3-1,4.7-2.1c3.9-3,7.6-6.3,11-9.8
			c0.8-0.8,1.6-1.7,1.8-2.8c0.3-2.5-2.9-4.2-5.6-4s-5.2,1.4-7.9,1.1c-1-0.1-2-0.4-3-0.2c-0.9,0.2-1.6,1-2.2,1.7
			c-3,3.2-5.9,6.5-8.9,9.8"/>
		<g>
			<path class="st1" d="M61.7,54.4c2.5,1.5,5.1,3,7.6,4.5c2.4,1.4,5.1,2.4,7.8,1.3c2.5-1,4.7-2.9,6.7-4.6c2.1-1.8,4.2-3.6,6.2-5.5
				c1.9-1.8,4.2-3.8,4.4-6.6c0.2-2.3-1.3-4.2-3.2-5.3c-2.2-1.3-4.7-1.3-7.1-0.9c-1.2,0.2-2.5,0.6-3.7,0.8c-1.4,0.2-2.6-0.2-3.9-0.2
				c-3.3-0.1-5.2,2.7-7.2,4.8c-2.3,2.5-4.5,4.9-6.8,7.4c-2.2,2.4,1.4,5.9,3.5,3.5c3.1-3.4,6.1-7.1,9.4-10.3c0.5-0.5,0.8-0.5,1.5-0.5
				c1.3,0.1,2.4,0.3,3.7,0.2c2-0.2,4.1-1.1,6.2-1c0.6,0,1.1,0.1,1.6,0.3c0.2,0.1,0.6,0.3,0.7,0.4c0.1,0.1,0.3,0.4,0.3,0.3
				c0.1,0.3-0.2,0.6-0.5,1c-0.7,0.8-1.5,1.6-2.3,2.4c-3.1,3-6.4,6.2-10.1,8.5c-0.7,0.4-1.4,0.9-2.3,0.8c-1.1-0.1-2.1-0.9-3-1.4
				c-2.4-1.4-4.8-2.8-7.2-4.2C61.4,48.5,58.9,52.8,61.7,54.4L61.7,54.4z"/>
		</g>
	</g>
	<g>
		<path class="st1" d="M-5.2,14.9c0.9-1.1,1.4-2.6,1.3-4c-0.4-0.1-0.9-0.2-1.3-0.3C-5.2,10.6-5.2,14.9-5.2,14.9z"/>
		<g>
			<path class="st1" d="M-3.5,16.7c0.4-0.4,0.7-0.9,1-1.4s0.5-1,0.7-1.6s0.3-1.1,0.3-1.7c0-0.4,0.1-0.8,0-1.1c0-0.2-0.1-0.4-0.1-0.7
				c0-0.3-0.2-0.6-0.4-0.8C-2.3,9-2.8,8.6-3.3,8.5c-0.4-0.1-0.9-0.2-1.3-0.3s-0.9-0.1-1.3,0c-0.3,0.1-0.6,0.2-0.9,0.4
				c-0.6,0.5-1,1.2-1,2c0,1.2,0,2.5,0,3.8c0,0.2,0,0.4,0,0.5c0,0.6,0.3,1.3,0.7,1.8c0.4,0.4,1.2,0.8,1.8,0.7
				C-4.6,17.4-3.9,17.2-3.5,16.7s0.7-1.1,0.7-1.8c0-1.2,0-2.5,0-3.8c0-0.2,0-0.3,0-0.5C-3.9,11.4-4.9,12.2-6,13
				c0.4,0.1,0.9,0.2,1.3,0.3c-0.6-0.8-1.2-1.6-1.8-2.4c0,0.4,0,0.8,0,1.1c0-0.2,0.1-0.4,0.1-0.7c-0.1,0.5-0.2,1-0.4,1.5
				c0.1-0.2,0.2-0.4,0.2-0.6c-0.2,0.5-0.4,0.9-0.8,1.3c0.1-0.2,0.3-0.3,0.4-0.5c0,0.1-0.1,0.1-0.1,0.1c-0.2,0.2-0.4,0.5-0.5,0.8
				c-0.2,0.3-0.2,0.6-0.2,1c0,0.6,0.3,1.4,0.7,1.8c0.5,0.4,1.1,0.8,1.8,0.7C-4.6,17.4-3.9,17.2-3.5,16.7z"/>
		</g>
	</g>
</g>
<g id="rock2">
	<g>
		<path class="st3" d="M110,180.6c-4.7-0.1-9.3,0.4-13.9,1.4c-4.3,0.9-9.3,3.2-9.6,7.6c-0.2,2.1,0.9,4.2,2.1,5.9
			c5.3,7.7,14,12.2,22.3,16.4c0.8,0.4,1.7,0.9,2.7,1.1c1.4,0.3,2.9-0.1,4.3-0.6c8.1-3,13.5-12.2,12-20.8s-9.6-15.4-18.3-15.5
			c-0.5,0-1.1,0.1-1.4,0.5s0.4,1.1,0.7,0.7"/>
		<g>
			<path class="st3" d="M110,178.1c-5.4-0.1-11.3,0.4-16.5,2c-4,1.2-8.4,3.7-9.3,8.2c-1.1,5.3,3,10.1,6.5,13.5s7.6,6.1,11.9,8.5
				c2.1,1.1,4.2,2.2,6.2,3.3c2.6,1.3,4.9,2.3,7.9,1.7c4.4-0.8,8.5-3.9,11.2-7.4c5.5-7.1,6.4-17.1,1.2-24.6
				c-2.8-4.1-6.9-7.2-11.7-8.8c-2.2-0.7-5.5-1.5-7.7-0.6c-1.6,0.7-2.5,2.4-1.8,4.1c0.7,1.6,2.7,2.5,4.3,1.4c2.7-1.7,0.2-6.1-2.5-4.3
				c-0.1,0-0.1,0.1-0.2,0.1c0.6-0.1,1.3-0.2,1.9-0.2c0.1,0,0.1,0.1,0.2,0.1c0.3,0.3,0.6,0.6,0.9,0.9c0,0.1,0,0.1,0.1,0.1
				c0,0.4,0,0.9,0,1.3c0-0.1,0-0.2,0.1-0.2c-0.2,0.4-0.4,0.7-0.6,1.1c-0.2,0.2-1.2,0.1-0.4,0.2c0.2,0,0.4,0,0.5,0
				c0.4,0,0.8,0,1.2,0.1c0.8,0.1,1.5,0.3,2.2,0.5c1.5,0.4,3,1.1,4.3,2c2.7,1.7,4.9,4.2,6.3,7.1c2.8,5.7,1.2,12.8-2.9,17.5
				c-2,2.3-5.2,4.7-8.4,4.8c-1.8,0.1-3.5-1.2-5-2c-1.7-0.9-3.5-1.8-5.2-2.8c-3.3-1.9-6.5-3.9-9.3-6.4c-1.4-1.2-2.7-2.6-3.8-4
				c-1.1-1.4-2.3-3.1-2.6-4.8c-0.4-3.2,3.5-4.9,6.1-5.7c4.8-1.4,9.9-1.7,14.8-1.7C113.2,183.1,113.2,178.1,110,178.1L110,178.1z"/>
		</g>
	</g>
	<g>
		<path class="st3" d="M106,143.8c-3.6-0.4-7.4,0.9-10,3.5c3.7,0.9,7.9-0.3,10.6-3.1"/>
		<g>
			<path class="st3" d="M106,141.3c-4.3-0.4-8.7,1.2-11.8,4.2c-1.3,1.3-0.7,3.7,1.1,4.2c4.6,1.1,9.7-0.3,13-3.8c0.9-0.9,1-2.6,0-3.5
				s-2.6-1-3.5,0c-0.3,0.3-0.7,0.6-1,0.9c-0.2,0.2,0.4-0.3,0.1-0.1c-0.1,0.1-0.2,0.1-0.3,0.2c-0.2,0.1-0.4,0.3-0.6,0.4
				c-0.4,0.2-0.8,0.4-1.2,0.6c-0.3,0.1,0.5-0.2,0.2-0.1c-0.1,0-0.2,0.1-0.3,0.1c-0.2,0.1-0.4,0.2-0.7,0.2c-0.4,0.1-0.8,0.2-1.2,0.3
				c-0.1,0-0.6,0.1-0.1,0c0.4-0.1,0,0-0.1,0c-0.2,0-0.4,0-0.6,0c-0.4,0-0.9,0-1.4,0c-0.1,0-0.2,0-0.3,0c0.2,0,0.5,0.1,0.1,0
				c-0.2,0-0.5-0.1-0.7-0.1c0.4,1.4,0.7,2.8,1.1,4.2c0.3-0.2,0.7-0.8,1-0.9c-0.3,0.2-0.3,0.2-0.1,0.1c0.1-0.1,0.2-0.1,0.3-0.2
				c0.2-0.1,0.4-0.2,0.6-0.4c0.4-0.2,0.8-0.4,1.2-0.6c0.1-0.1,0.2-0.1,0.3-0.1c-0.3,0.1-0.4,0.2-0.1,0.1c0.2-0.1,0.4-0.1,0.6-0.2
				c0.4-0.1,0.8-0.2,1.2-0.4c0.2-0.1,0.4-0.1,0.7-0.1c0.1,0,0.2,0,0.3-0.1c0.3,0,0.2,0-0.2,0c0,0,1.2-0.1,1.3-0.1
				c0.4,0,0.9,0,1.3,0.1c1.3,0.1,2.6-1.2,2.5-2.5C108.4,142.3,107.4,141.4,106,141.3L106,141.3z"/>
		</g>
	</g>
	<g>
		<path class="st3" d="M232,169.7c-2.4,3.3-4.3,6.9-5.6,10.7c-0.4,1.2-0.8,2.6-0.2,3.7c1.3,2.8,5.5,1.3,8-0.5c2.7-2,5.6-4.1,6.9-7.2
			s0.4-7.4-2.7-8.6c-3-1.1-6.4,0.9-9.5,0.3"/>
		<g>
			<path class="st3" d="M229.9,168.4c-1.4,1.9-2.6,3.9-3.7,6.1c-1,2.1-2.2,4.4-2.6,6.8c-0.5,2.5,0.3,5.2,2.7,6.4
				c1.9,0.9,4,0.6,5.9-0.1c1.9-0.7,3.5-1.8,5.1-3.1c1.9-1.4,3.6-2.9,4.9-4.9c2.2-3.2,2.8-7.9,0.4-11.3c-1.5-2.1-3.9-3.3-6.5-3.2
				c-1.3,0-2.5,0.3-3.8,0.5c-0.3,0.1-0.5,0.1-0.8,0.1c-0.2,0-0.4,0.1-0.5,0.1c0.2,0,0.2,0-0.1,0s-0.5,0-0.8,0c-0.1,0-1-0.1-0.6,0
				c-1.3-0.2-2.8,0.3-3.1,1.8c-0.3,1.2,0.4,2.9,1.8,3.1c2.1,0.4,4.1,0,6.3-0.4c0.2,0,0.4-0.1,0.5-0.1c0.8-0.1-0.2,0,0.2,0
				s0.8-0.1,1.1-0.1c0,0,0.8,0.1,0.3,0c0.2,0,0.3,0.1,0.5,0.1c0.1,0,0.8,0.4,0.3,0.1c0.2,0.1,0.3,0.2,0.5,0.3c0.5,0.3-0.1-0.2,0,0
				c0.1,0.1,0.2,0.2,0.3,0.3c0.3,0.3,0,0,0-0.1c0.1,0.2,0.2,0.3,0.3,0.5c0.1,0.1,0.1,0.2,0.2,0.4c0.3,0.5-0.1-0.5,0.1,0.1
				c0.1,0.3,0.2,0.6,0.3,1c0.2,0.6,0-0.5,0,0.1c0,0.1,0,0.3,0,0.4c0,0.4,0,0.7,0,1c0-0.6,0-0.1,0,0.1c0,0.2-0.1,0.3-0.1,0.5
				c0,0.1-0.1,0.3-0.1,0.4c0,0.1-0.1,0.3-0.1,0.4c0.1-0.2,0.1-0.2,0,0.1c-1.5,2.6-3.9,4.8-6.7,6.4c-0.3,0.2-0.6,0.4-0.9,0.5
				c-0.1,0-0.7,0.3-0.2,0.1c-0.1,0.1-0.3,0.1-0.4,0.1c-0.3,0.1-0.7,0.2-1,0.3c-0.1,0-0.3,0.1-0.4,0.1c0.7-0.1-0.1,0-0.3,0
				c-0.1,0-0.2,0-0.4,0c0.6,0.1,0.2,0,0.1,0c-0.3-0.1,0.5,0.3,0.1,0c-0.4-0.2,0.1,0.1,0.1,0.1l-0.1-0.1c-0.2-0.2-0.2-0.2,0.1,0.1
				c-0.1-0.4-0.1-0.1,0,0c0-0.1-0.1-0.2-0.1-0.2c0,0.2,0,0.2,0-0.1c0-0.1,0.1-0.8,0-0.4c0.4-2.1,1.3-3.9,2.3-5.8
				c1-2,2.2-3.9,3.5-5.7c0.8-1.1,0.2-2.8-0.9-3.4C232,166.8,230.7,167.3,229.9,168.4L229.9,168.4z"/>
		</g>
	</g>
	<g>
		<path class="st3" d="M174,216.6c-2.5-0.4-4.9,2.7-3.8,5c3.3-1.1,6.2-3,8.6-5.5c1-1.1,2-2.4,1.7-3.9s-2.4-2.4-3.2-1.2"/>
		<g>
			<path class="st3" d="M174.7,214.2c-1.3-0.2-2.4-0.1-3.6,0.5c-1,0.5-1.8,1.2-2.4,2.1c-0.5,0.7-0.9,1.5-1.1,2.4
				c-0.2,1.3-0.1,2.5,0.5,3.7c0.4,1,1.9,1.5,2.8,1.1c3.2-1.1,6.2-2.8,8.7-5.1c1.4-1.2,2.6-2.7,3.2-4.4c0.6-1.8,0.2-4-1.3-5.3
				c-0.9-0.7-1.9-1.2-3-1.2s-2.3,0.4-3,1.3c-0.4,0.5-0.7,1.1-0.7,1.8c0,0.6,0.3,1.4,0.7,1.8c0.9,0.8,2.7,1.1,3.5,0
				c0.4-0.5-0.4,0.2-0.1,0c-0.1,0.1-0.6,0.3-0.2,0.1c-0.5,0.1-0.6,0.1-0.3,0.1h0.1c-0.5-0.1-0.6-0.1-0.3,0c0.1,0,0.1,0,0.2,0.1
				c-0.2,0-0.6-0.3-0.2,0c0.4,0.2-0.5-0.4-0.1-0.1c0.4,0.4-0.2-0.5-0.1-0.1c0,0.1,0.1,0.1,0.1,0.2c0.1,0.2,0,0.1-0.1-0.3
				c0,0.1,0,0.1,0.1,0.2c0-0.4-0.1-0.4-0.1-0.2c-0.1,0.6,0.1-0.4,0,0.1c0,0.1-0.1,0.4-0.1,0.5c0.1-0.3,0.2-0.4,0.1-0.1
				c0,0.1-0.1,0.1-0.1,0.2c-0.1,0.2-0.2,0.3-0.3,0.5c-0.3,0.5,0.4-0.4,0,0.1c-0.3,0.3-0.5,0.6-0.8,0.9c-0.5,0.5-1.1,1-1.7,1.5
				c-0.1,0.1-0.2,0.1-0.3,0.2c0.3-0.2,0.3-0.2,0.1-0.1c-0.1,0.1-0.3,0.2-0.4,0.3c-0.3,0.2-0.7,0.5-1,0.7c-0.6,0.4-1.3,0.8-2,1.1
				c-0.2,0.1-0.4,0.2-0.6,0.2c-0.2,0.1-0.1,0.1,0.2-0.1c-0.1,0-0.2,0.1-0.3,0.1c-0.4,0.1-0.8,0.3-1.1,0.4c0.9,0.4,1.9,0.8,2.8,1.1
				c0.3,0.7,0.1,0.3,0.1,0.1c-0.1-0.5,0.1,0,0,0.1c0-0.1,0-0.3,0-0.4c0-0.5-0.1,0.6,0,0.1c0-0.1,0.1-0.2,0.1-0.4
				c0.1-0.4,0.2-0.2-0.1,0.1c0.1-0.1,0.3-0.5,0.4-0.7c-0.1,0.1-0.1,0.2-0.2,0.3c0.1-0.1,0.1-0.1,0.2-0.2c0.1-0.1,0.2-0.2,0.3-0.3
				c0.3-0.3-0.5,0.3-0.1,0.1c0.1-0.1,0.2-0.1,0.3-0.2c0.4-0.2-0.6,0.2-0.1,0.1c0.1,0,0.2-0.1,0.3-0.1c0.5-0.1-0.4,0-0.1,0
				c0.2,0,0.8,0.1-0.1-0.1c0.7,0.1,1.3,0.1,1.9-0.2c0.5-0.3,1-0.9,1.1-1.5C176.7,216.1,176.1,214.4,174.7,214.2L174.7,214.2z"/>
		</g>
	</g>
	<g>
		<path class="st3" d="M321,136.6c-10.8,5.4-19.8,14.2-25.5,24.8c-0.6,1.1-1.1,2.5-0.5,3.5c0.4,0.7,1.3,1.1,2.1,1.3
			c7.8,2.1,16.9-2.1,23.8,2.1c1.4,0.8,2.7,2,4.3,1.9c0.9-0.1,1.7-0.5,2.4-1c4.9-2.9,10.3-6.3,11.7-11.9c1.1-4.6-0.8-9.3-2.7-13.7
			c-0.7-1.6-1.5-3.3-2.8-4.5c-3-2.8-8.2-2.3-11.2-5.2"/>
		<g>
			<path class="st3" d="M319.7,134.5c-7.7,3.9-14.7,9.5-20.1,16.3c-1.4,1.7-2.7,3.5-3.9,5.3c-1.2,1.9-2.5,3.8-3.2,5.9
				c-0.9,2.5,0.2,5.1,2.6,6.2c2,0.9,4.5,1.1,6.7,1.2c4.4,0.1,8.7-0.8,13.1-0.4c1.9,0.2,3.7,0.8,5.3,1.8c2.2,1.4,4.4,2.4,7,1.5
				c2-0.8,3.8-2.1,5.5-3.2c1.8-1.2,3.5-2.5,4.9-4c3.2-3.3,4.9-7.6,4.4-12.2c-0.3-2.9-1.2-5.5-2.3-8.2c-1-2.4-2-5.1-3.9-7
				c-1.7-1.7-3.9-2.6-6.1-3.3c-1.8-0.5-3.9-0.9-5.3-2.2c-2.4-2.1-5.9,1.4-3.5,3.5c2.7,2.5,6.1,2.8,9.4,4.1c1.6,0.7,2.5,1.7,3.3,3.2
				c1,1.9,1.8,3.8,2.5,5.8c1.3,3.7,1.8,7.5-0.5,10.9c-1.8,2.7-4.8,4.6-7.5,6.3c-0.8,0.5-1.5,1-2.4,1.4c-0.8,0.3-1.2,0.1-1.9-0.4
				c-1.7-1-3.4-2-5.3-2.6c-3.8-1-7.7-0.6-11.5-0.4c-2,0.1-3.9,0.3-5.9,0.1c-0.8-0.1-1.7-0.1-2.5-0.3c-0.4-0.1-0.8-0.2-1.1-0.3
				c-0.8-0.2,0.1,0.2-0.1,0.2c0,0,0.8-1.8,0.8-1.9c0.5-0.9,1.1-1.8,1.6-2.7c1-1.5,2-3,3-4.4c5.2-6.8,12-12.3,19.6-16.1
				C325.1,137.3,322.6,133,319.7,134.5L319.7,134.5z"/>
		</g>
	</g>
	<g>
		<path class="st3" d="M508.9,168.7c-3.6-3.5-7.6-7.2-12.7-7.4c-4-0.2-7.9,2.1-10.5,5.3s-4.1,6.9-5.4,10.8
			c-1.9,5.5-3.4,11.2-4.6,16.9c4.8,1.8,10-1.1,15.1-1.7c6.5-0.8,13,2.2,19.6,2.3c7.2,0.1,14.3-3.5,18.4-9.4c1.1-1.6,2.1-3.5,1.9-5.4
			c-0.3-5.3-7.8-8.1-7.7-13.3c0-1.2,0.4-2.6-0.4-3.5c-0.7-0.7-1.8-0.7-2.8-0.6c-4.2,0.4-8.5,1.1-12.6,2.1c-0.5,1-0.1,2.4,0.8,2.9"/>
		<g>
			<path class="st3" d="M510.6,167c-2.6-2.6-5.5-5.2-8.9-6.8c-3.7-1.7-7.7-1.8-11.4-0.2c-7.8,3.3-10.9,11.7-13.3,19.1
				c-1.5,4.7-2.8,9.6-3.8,14.4c-0.3,1.4,0.4,2.6,1.8,3.1c4,1.4,8.2,0.2,12.2-0.8c1.9-0.5,3.8-0.9,5.8-0.9s3.9,0.3,5.8,0.7
				c4.1,0.8,8.3,1.9,12.5,1.8c3.7-0.1,7.4-1.1,10.7-2.8c6-3.1,13.8-10.6,10.4-17.9c-1.2-2.6-3.5-4.4-5.3-6.6
				c-0.7-0.8-1.3-1.7-1.5-2.8c-0.1-0.3,0-0.1,0,0c0-0.2,0-0.4,0-0.6c0-0.4,0-0.8,0.1-1.1c0.1-1.1,0-2.2-0.5-3.2
				c-1.2-2.1-3.5-2.4-5.7-2.2c-2.5,0.3-5,0.6-7.5,1.1c-1.2,0.2-2.3,0.4-3.5,0.7c-1.4,0.3-2.8,0.4-3.5,1.8c-1.1,2.2-0.1,4.8,1.9,6.1
				c2.7,1.8,5.2-2.5,2.5-4.3c0.2,0.1,0.3,0,0.1,0.5c-0.5,0.4-1,0.8-1.5,1.1c3.6-0.8,7.2-1.4,10.8-1.9c0.7-0.1,1.5,0,2.2-0.2l0,0
				c0.5,0.2,0.4,0.1-0.2-0.3c0,0-0.2,0.9,0,0.5c-0.4,1.1-0.1,2.9,0.3,3.9c0.8,2.4,2.5,4.3,4.2,6.1c1.4,1.5,3,3,3.2,4.9
				c0-0.4,0,0.3,0,0.3c0,0.4,0,0.6-0.2,1c-0.2,0.8-0.6,1.4-1,2.1c-0.8,1.2-1.8,2.4-2.8,3.4c-2,1.9-4.4,3.4-7,4.3
				c-2.8,1-5.7,1.3-8.7,1.1c-3.4-0.3-6.7-1.3-10-1.8c-4-0.7-7.9-0.7-11.8,0.3c-3.4,0.8-6.9,2.2-10.4,1c0.6,1,1.2,2.1,1.8,3.1
				c1-4.9,2.3-9.8,3.9-14.6c1.3-4.1,2.7-8.5,5.5-11.9c2.3-2.8,5.8-5.1,9.6-4.4c4,0.7,7.2,3.9,10,6.6
				C509.4,172.8,513,169.2,510.6,167L510.6,167z"/>
		</g>
	</g>
	<g>
		<path class="st3" d="M579.9,148.6c0.3-2.5,0.2-5-0.5-7.4c-2.3,1.4-4.6,2.8-6,5.1c-1.4,2.2-1.6,5.5,0.3,7.3c1,0.9,2.3,1.4,3.7,1.6
			c4.1,0.9,8.6,0.7,12.3-1.2s6.6-5.8,6.8-10c0.1-2.2-0.7-4.6-2.6-5.6c-3.8-2.1-7.8,2.2-11.9,3.2"/>
		<g>
			<path class="st3" d="M582.4,148.6c0.3-2.7,0.1-5.4-0.5-8.1c-0.4-1.6-2.3-2.3-3.7-1.5c-4.3,2.6-8.9,6.2-8.3,11.8
				c0.7,6.3,7.8,7.6,13,7.4c5.4-0.2,10.5-2.5,13.6-6.9c2.8-3.9,3.9-10.5-0.1-14.1c-2.2-2-5.2-2.2-8-1.2c-2.5,0.9-4.6,2.5-7.2,3.2
				c-3.1,0.8-1.8,5.6,1.3,4.8c1.9-0.5,3.6-1.4,5.3-2.3c1.3-0.7,2.8-1.6,4.2-1.4c1,0.2,1.7,1.5,1.9,2.7c0.2,1.4-0.2,2.9-0.8,4.1
				c-1.6,3.2-4.7,5.1-8.2,5.8c-1.9,0.4-3.9,0.4-5.8,0.1c-1.4-0.2-3.6-0.5-4.2-2c-0.4-1.1,0-2.8,0.8-3.9c1.3-1.7,3.2-2.7,4.9-3.8
				c-1.2-0.5-2.5-1-3.7-1.5c0.6,2.2,0.7,4.5,0.4,6.8c-0.2,1.3,1.3,2.5,2.5,2.5C581.4,151.1,582.3,150,582.4,148.6L582.4,148.6z"/>
		</g>
	</g>
	<g>
		<path class="st3" d="M516.8,116.9c-2.4-2.2-6.8,0-7.3,3.2s2,6.3,5,7.6c3,1.3,6.4,1.2,9.6,1.1c4.5-0.2,10.4-2,10.2-6.4
			c-0.2-3.8-4.8-5.5-8.6-6.2c-3.9-0.8-7.8-1.5-11.7-2.2"/>
		<g>
			<path class="st3" d="M518.6,115.1c-4.1-3.5-10.8-0.6-11.5,4.7c-0.4,2.9,0.8,5.8,2.9,7.9c2.2,2.2,5.1,3.2,8.1,3.5
				c4.7,0.6,10.8,0.4,15-2.4c2-1.4,3.5-3.4,3.7-5.9c0.2-2.6-1.3-4.9-3.3-6.4c-2.2-1.6-5-2.4-7.6-2.9c-3.8-0.7-7.5-1.4-11.2-2.2
				c-1.3-0.3-2.7,0.4-3.1,1.8c-0.3,1.2,0.4,2.8,1.8,3.1c2.5,0.5,5,1,7.5,1.4c2.1,0.4,4.3,0.7,6.4,1.3c1.4,0.4,2.9,1,3.9,2
				c0.4,0.4,0.6,0.8,0.7,1.4c0-0.3-0.1,0.8,0,0.4c-0.1,0.5-0.1,0.4-0.3,0.8c-0.5,0.8-1.7,1.5-2.9,1.9c-1.6,0.5-3.1,0.8-4.7,0.8
				c-3.7,0.2-8.6,0.4-11-3c-0.5-0.7-0.9-1.5-0.9-2.4c0-0.7,0.2-1.2,0.5-1.5c0.5-0.5,1-0.8,1.6-0.9c0.3-0.1,0.8-0.1,1,0.1
				c1,0.9,2.5,1,3.5,0C519.5,117.7,519.6,116,518.6,115.1L518.6,115.1z"/>
		</g>
	</g>
	<g>
		<path class="st3" d="M419.1,140.2c0.6,0.2,0.6-1,0-1.1s-1.1,0.5-1.4,1c-2,4.1,1.4,8.9,5.5,10.9c3.4,1.7,7.5,2.2,10.9,0.4
			c3.4-1.7,5.4-6,4-9.5c-1.8-4.2-7.4-5.1-12-5.4"/>
		<g>
			<path class="st3" d="M419.1,142.7c3.9,0.3,3.8-6.1-0.1-6.1c-3,0-4.4,3.5-4.4,6.1c0,4.9,4,9.1,8.2,11c4.8,2.1,10.8,2.1,14.8-1.6
				c3.4-3.2,4.6-8.7,1.8-12.6c-3-4.2-8.5-5-13.4-5.3c-1.4-0.1-2.5,1.2-2.5,2.5c0,1.4,1.1,2.4,2.5,2.5c1.5,0.1,2.5,0.2,3.9,0.5
				c0.7,0.1,1.3,0.3,2,0.5c0.3,0.1,0.6,0.2,0.9,0.3s0.1,0,0,0c0.2,0.1,0.4,0.2,0.6,0.3c0.3,0.2,0.6,0.3,0.9,0.5c0.2,0.2,0,0,0,0
				c0.1,0.1,0.3,0.2,0.4,0.3c0.6,0.6,0.6,0.6,1,1.3c0.4,0.8,0.5,1.9,0.2,2.8c-0.3,1.2-0.9,2.1-1.9,3c-0.7,0.7-2.2,1.3-3.4,1.4
				c-2.8,0.4-6.1-0.6-8.1-2.4c-0.6-0.5-1.2-1.2-1.6-1.7c-0.4-0.6-0.8-1.3-1-1.8c-0.1-0.2-0.2-0.8-0.2-0.9c0-0.1,0-0.7,0-1
				c0,0.3,0.1-0.5,0.2-0.7c0.2-0.6,0.1-0.3,0.1-0.2c0-0.1,0.1-0.2,0.1-0.2c-0.3,0.4-0.7,0.6-1.4,0.4c-0.4-0.2-0.7-0.4-1.1-0.6
				c-0.1-1.7-0.2-2.2-0.5-1.5c0.2-0.4,0.4-0.7,0.6-1.1c0.1-0.1,0.2-0.1,0.3-0.2c0.4-0.1,0.8-0.2,1.3-0.3c0,0-0.1,0-0.2,0
				c-1.4-0.1-2.5,1.2-2.5,2.5C416.6,141.6,417.7,142.6,419.1,142.7L419.1,142.7z"/>
		</g>
	</g>
	<g>
		<path class="st3" d="M367.1,115.9c-2.2,0.7-2.4,4.2-0.8,5.9c1.6,1.7,4.2,2,6.6,2c0.9,0,1.8-0.1,2.6-0.5c1.9-1.2,1.5-4.2-0.2-5.6
			s-4-1.7-6.2-1.8"/>
		<g>
			<path class="st3" d="M366.5,113.5c-1.3,0.5-2.5,1.3-3.1,2.7c-0.6,1.4-0.7,2.7-0.5,4.2c0.5,2.9,3,4.8,5.7,5.5
				c1.3,0.4,2.7,0.5,4.1,0.5c1.8,0,3.5-0.3,4.9-1.5c2.1-1.9,2.1-5.5,0.5-7.7c-2.1-3-5.7-3.6-9-3.8c-1.3-0.1-2.6,1.2-2.5,2.5
				c0.1,1.4,1.1,2.4,2.5,2.5c0.5,0,1,0.1,1.5,0.1c0.2,0,0.5,0.1-0.1,0c0.1,0,0.3,0,0.4,0.1c0.3,0.1,0.5,0.1,0.8,0.2s0.5,0.1,0.8,0.2
				c0.1,0,0.2,0.1,0.3,0.1c0.5,0.2-0.5-0.3-0.1,0c0.2,0.1,0.4,0.2,0.6,0.3c0.1,0.1,0.2,0.1,0.2,0.2c0.4,0.2-0.4-0.4,0,0
				c0.1,0.1,0.2,0.3,0.4,0.4c-0.5-0.4-0.3-0.4-0.2-0.2c0.1,0.1,0.1,0.2,0.2,0.3c0,0.1,0.1,0.2,0.1,0.2c0.1,0.2,0.1,0.4-0.1-0.2
				c0.1,0.2,0.1,0.4,0.2,0.6c0.1,0.6,0-0.6,0,0c0,0.2,0,0.4,0,0.6c0,0.4,0.1-0.7,0-0.2c0,0.1,0,0.1,0,0.2c-0.1,0.2-0.2,0.4,0.1-0.2
				c0,0.1-0.1,0.2-0.1,0.3c-0.1,0.2-0.3,0.2,0.1-0.2l-0.1,0.1c-0.2,0.2-0.4,0.1,0.2-0.1c-0.1,0-0.1,0.1-0.2,0.1
				c-0.4,0.3,0.5-0.1,0.1,0c-0.1,0-0.2,0.1-0.4,0.1c-0.3,0.1-0.3-0.1,0.1,0c-0.1,0-0.3,0-0.5,0c-0.5,0-1,0-1.5,0
				c-0.3,0-0.5,0-0.8-0.1c-0.1,0-0.2,0-0.3,0s-0.2,0-0.3,0c0.4,0.1,0.5,0.1,0.2,0c-0.5-0.1-0.9-0.2-1.4-0.3c-0.2-0.1-0.9-0.4-0.2,0
				c-0.2-0.1-0.5-0.2-0.7-0.4c-0.1-0.1-0.1-0.1-0.2-0.1c-0.4-0.3,0.4,0.4,0.1,0.1c-0.2-0.1-0.3-0.3-0.5-0.4c-0.4-0.4,0.3,0.5,0,0
				c-0.1-0.1-0.1-0.2-0.2-0.3c-0.1-0.2-0.1-0.5,0.1,0.2c-0.1-0.2-0.1-0.4-0.2-0.6c0-0.1,0-0.2,0-0.3c0-0.2,0.1,0.8,0,0.2
				c0-0.2,0-0.4,0-0.6c0-0.3,0,0.3,0,0.4c0.1-0.1,0.1-0.3,0.1-0.4s0-0.1,0.1-0.2c0.2-0.6-0.3,0.5-0.1,0.1c0-0.1,0.1-0.1,0.1-0.2
				c0.1-0.2,0.4-0.4-0.1,0.1c0.1-0.1,0.6-0.5,0.2-0.2s-0.1,0.1,0,0c0.5-0.3-0.5,0.2-0.1,0.1c1.2-0.4,2.2-1.7,1.8-3.1
				C369.1,114,367.8,113,366.5,113.5L366.5,113.5z"/>
		</g>
	</g>
</g>
<g id="rock_3">
	<g>
		<g>
			<path class="st4" d="M0,343.7c20.5,8.7,41.3,16.5,62.6,23.3c11,3.5,22.1,6.6,33.4,8.8c10.3,2,21.8,4.4,32.3,3
				c10.1-1.4,19.5-5.9,28.1-11.3c9.5-6,18.6-12.8,27.7-19.6c8.8-6.6,17.5-13.3,26.3-19.9c9.2-7,18.4-14.1,28.3-20.1
				c8.9-5.4,18.2-9.9,28.1-13.1c10-3.2,20.4-5.5,30.9-4.6c10.7,0.9,20.9,4.6,30.7,8.7c9.2,3.9,17.8,9,28.1,7.4
				c2.3-0.4,4.5-1,6.6-1.9c2.3-1,4.3-2.8,6.6-3.6c0.8-0.3,1.7,0,2.5-0.3c1.1-0.4,1.9-1.2,2.8-1.8c2.2-1.6,4.6-2.9,7.1-3.8
				c10.3-3.7,19.5-0.2,28.7,4.5c9.1,4.7,18,9.9,27.9,12.8c9.7,2.9,20,2.5,30,1.3c41.1-4.9,76.8-28.7,113.3-46.4
				c4.8-2.3,9.7-4.3,15-5.4c3.2-0.7,1.8-5.5-1.3-4.8c-10.1,2.1-19.3,7.4-28.4,12c-9.1,4.6-18.2,9.5-27.3,14.1
				c-18.2,9.3-36.8,18.1-56.8,22.9c-10,2.4-20.2,3.6-30.5,3.4c-10.7-0.2-20.3-4.4-29.7-9.2c-8.6-4.4-17.2-10.2-27-11.6
				c-4.5-0.6-9.1-0.3-13.4,0.9c-2.2,0.6-4.3,1.5-6.3,2.6c-2.2,1.1-4.2,3.2-6.5,3.7c-4.3,0.9-7.7,4.2-12.2,5.3
				c-5.1,1.2-10.4,0.6-15.2-1.4c-9.6-4-18.8-8.6-28.8-11.4c-9.9-2.9-20.4-4.1-30.6-2.4c-9.7,1.6-19.2,4.4-28.3,8.3
				c-20.1,8.5-37.3,22.4-54.5,35.5c-8.8,6.7-17.5,13.3-26.4,19.8c-9,6.6-18.1,13.4-28.1,18.5c-4.6,2.3-9.4,4.2-14.4,5.4
				c-5.3,1.2-10.4,1-15.8,0.5c-11.4-1.2-22.7-3.4-33.7-6.3c-10.9-2.9-21.6-6.3-32.2-10s-21.3-7.2-31.7-11.5
				c-5.1-2.1-10.1-4.3-15.2-6.5C-0.4,338.1-3,342.4,0,343.7L0,343.7z"/>
		</g>
	</g>
	<g>
		<g>
			<path class="st4" d="M-0.1,445.1c16.3,8.6,34.4,14.5,53,14.6c9.2,0.1,18.5-1.3,27.3-4.3c9.8-3.4,17.9-8.8,26.4-14.6
				c17.2-11.9,35.2-23.4,55.6-29c10.7-2.9,21.5-4,32.6-3.8c11,0.2,22,1.3,33,2c2.5,0.2,4.7,0.4,7.1,1.1c2.2,0.7,4.2,1.1,6.4,1.1
				c5.1,0,9.8,0.3,14.8,0.9c10.8,1.5,21.8,1.8,32.7,0.8c10.2-1,21.2-2.7,30.7-6.6c9-3.7,16.3-10,24-15.8
				c16.3-12.2,36-20.9,55.5-26.5c20.1-5.7,40.9-7.8,61.8-7.2c11,0.3,22,1.4,32.8,3.7c10.2,2.2,19.7,6,29.4,9.7
				c9.4,3.6,19.2,6.9,29.5,6.9c9.9-0.1,19.4-2.8,28.9-5.2c4.8-1.2,9.6-2.4,14.5-3c3.2-0.4,3.2-5.4,0-5c-9.7,1.3-19,4.2-28.6,6.3
				c-10.3,2.2-20.1,2.4-30.3-0.5c-9.7-2.7-18.8-7-28.3-10.3c-9.9-3.4-20.4-5.3-30.8-6.5c-40.6-4.6-82.4,2.4-118.5,21.8
				c-9.1,4.9-17.4,10.7-25.5,16.9c-3.8,2.9-7.6,5.7-11.8,7.9c-4.8,2.6-10.1,4-15.4,5.3c-10.5,2.5-21.3,3.7-32,3.5
				c-10.6-0.1-20.9-2.3-31.4-2.3c-2.3,0-4.3-0.1-6.5-0.8c-2.3-0.7-4.3-1.1-6.7-1.3c-5.4-0.4-10.7-0.8-16.1-1.2
				c-10.9-0.8-22-1.6-32.9-0.6c-10.4,1-20.6,3.5-30.4,6.9c-9.6,3.3-18.6,8.5-27.3,13.8c-17.4,10.5-32.7,24.7-53.1,29.1
				c-18.4,4-37.5,0.6-54.8-6.3c-4.4-1.8-8.7-3.8-12.9-6C-0.4,439.2-2.9,443.6-0.1,445.1L-0.1,445.1z"/>
		</g>
	</g>
</g>
</svg>
