<?xml version="1.0" encoding="utf-8"?>
<!-- Generator: Adobe Illustrator 28.1.0, SVG Export Plug-In . SVG Version: 6.00 Build 0)  -->
<svg version="1.1" id="Layer_1" xmlns="http://www.w3.org/2000/svg" xmlns:xlink="http://www.w3.org/1999/xlink" x="0px" y="0px"
	 viewBox="0 0 595.3 841.9" style="enable-background:new 0 0 595.3 841.9;" xml:space="preserve">
<style type="text/css">
	.st0{fill:#996828;stroke:#996828;stroke-miterlimit:10;}
	.st1{fill:#824F20;}
	.st2{fill:#603A17;}
	.st3{fill:#996828;}
	.st4{fill:#A57941;}
</style>
<g id="dirt_base">
	<path class="st0" d="M-6.8,1.5c-0.1,0-0.1,0-0.2,0V847h2V1.5H-6.8z"/>
	<rect x="-2.9" y="1.5" class="st0" width="0.1" height="845.5"/>
	<path class="st0" d="M598.8,847V1.5h-45.6c-20.3,0.7-40.6,1.1-60.9,1.3c-42.6,0.4-85.2,0.1-127.8-0.1c-42.1-0.2-84.2-0.4-126.3-1
		c-4.8-0.1-9.6-0.1-14.4-0.2H-0.8V847h2.2v-1.1c0-1.3,2-1.3,2,0v1.1H598.8z M149.9,531c0-1.3,2-1.3,2,0v7.4c0,1.3-2,1.3-2,0V531z"/>
</g>
<g id="unda">
	<g>
		<path class="st1" d="M-2.8,847.9V550.8c0,0-0.1,0-0.1,0v297H-2.8z"/>
		<g>
			<path class="st1" d="M-0.3,847.9c0-2.7,0-5.3,0-8c0-7.2,0-14.4,0-21.6c0-10.7,0-21.3,0-32c0-13,0-26,0-39c0-14.2,0-28.4,0-42.6
				c0-14.4,0-28.9,0-43.3c0-13.4,0-26.7,0-40.1c0-11.3,0-22.7,0-34c0-8.2,0-16.3,0-24.5c0-3.8,0.1-7.7,0-11.5c0-0.2,0-0.3,0-0.5
				c0-1.5-1.6-2.9-3.2-2.4c0,0-0.1,0-0.1,0c-1,0.4-1.8,1.3-1.8,2.4c0,2.7,0,5.3,0,8c0,7.2,0,14.4,0,21.6c0,10.7,0,21.3,0,32
				c0,13,0,26,0,39c0,14.2,0,28.4,0,42.6c0,14.4,0,28.9,0,43.3c0,13.4,0,26.7,0,40.1c0,11.3,0,22.7,0,34c0,8.2,0,16.3,0,24.4
				c0,3.8-0.1,7.7,0,11.5c0,0.2,0,0.3,0,0.5c0,1.3,1.2,2.5,2.5,2.5c0,0,0.1,0,0.1,0c3.2,0,3.2-5,0-5c0,0-0.1,0-0.1,0
				c0.8,0.8,1.7,1.7,2.5,2.5c0-2.7,0-5.3,0-8c0-7.2,0-14.4,0-21.6c0-10.7,0-21.3,0-32c0-13,0-26,0-39c0-14.2,0-28.4,0-42.6
				c0-14.4,0-28.9,0-43.3c0-13.4,0-26.7,0-40.1c0-11.3,0-22.7,0-34c0-8.2,0-16.3,0-24.4c0-3.8,0.2-7.7,0-11.5c0-0.2,0-0.3,0-0.5
				c-0.6,0.8-1.2,1.6-1.8,2.4c0,0,0.1,0,0.1,0c-1-0.8-2.1-1.6-3.2-2.4c0,2.7,0,5.3,0,8c0,7.2,0,14.4,0,21.6c0,10.7,0,21.3,0,32
				c0,13,0,26,0,39c0,14.2,0,28.4,0,42.6c0,14.4,0,28.9,0,43.3c0,13.4,0,26.7,0,40.1c0,11.3,0,22.7,0,34c0,8.2,0,16.3,0,24.5
				c0,3.8-0.1,7.7,0,11.5c0,0.2,0,0.3,0,0.5C-5.3,851.2-0.3,851.2-0.3,847.9z"/>
		</g>
	</g>
	<g>
		<g>
			<path class="st1" d="M598.8,847.9V462.6c-4.7,0.1-9-2.6-12.9-5.3c-27.2-18.3-55.4-35.1-84.4-50.3c-4.7-2.5-9.5-4.9-14.8-5.2
				c-5.6-0.3-11,2-16,4.5c-57,28.6-92.7,96.3-155.4,107.9c-41.5,7.7-83.9-12.2-125.8-7.7c-35.4,3.8-66.4,24.3-97.8,40.9
				c-6,3.2-12.2,6.3-19,6.7c-9.4,0.7-18.3-3.8-27.4-6.5c-13.1-3.8-27.4-3.6-40.4,0.6c-1.8,0.6-3.7,1.2-5.6,1.9v297.8h2.2v-2
				c0-1.3,2-1.3,2,0v2L598.8,847.9L598.8,847.9z M149.9,531c0-1.3,2-1.3,2,0v7.4c0,1.3-2,1.3-2,0V531z"/>
		</g>
		<g>
			<path class="st1" d="M601.3,847.9c0-12.9,0-25.8,0-38.6c0-30.7,0-61.4,0-92.1c0-37.1,0-74.2,0-111.2c0-32,0-64.1,0-96.1
				c0-15.5,0.5-31.1,0-46.6c0-0.2,0-0.4,0-0.6c0-1.4-1.2-2.5-2.5-2.5c-6-0.1-11.2-4.6-16-7.8c-5.2-3.5-10.5-6.9-15.8-10.3
				c-10.6-6.7-21.4-13.2-32.3-19.5c-10.9-6.3-21.8-12.4-33-18.1c-4.7-2.5-9.7-4.8-15.1-5c-5.6-0.3-10.9,1.8-15.9,4.1
				c-33.4,16-58.5,44.9-85.9,69c-13.5,11.9-27.8,23-44.1,30.8c-19.1,9.1-39.6,11.4-60.5,9.5c-23.5-2.1-46.4-8.1-70-9.3
				c-22.9-1.2-44.6,4-65.4,13.2c-10.5,4.6-20.6,10-30.7,15.5c-10.1,5.5-20,11.7-30.6,16.3c-5.8,2.6-11.8,3.8-18.1,2.6
				c-5.7-1-11.1-3.2-16.6-5c-11.1-3.6-22.7-4.6-34.2-2.8c-5.5,0.8-10.8,2.5-16.1,4.3c-1,0.4-1.8,1.3-1.8,2.4c0,9.9,0,19.8,0,29.6
				c0,23.7,0,47.4,0,71.2c0,28.6,0,57.2,0,85.8c0,24.9,0,49.8,0,74.7c0,8.1,0,16.3,0,24.4c0,3.8-0.2,7.8,0,11.6c0,0.2,0,0.3,0,0.5
				c0,1.3,1.2,2.5,2.5,2.5c0.7,0,1.5,0,2.2,0c1.3,0,2.5-1.2,2.5-2.5c0-1.6,0.5-1.9-1.5-1.9c-2,0-1.5,0.2-1.5,1.9
				c0,1.3,1.2,2.5,2.5,2.5c5.3,0,10.7,0,16,0c14.4,0,28.8,0,43.2,0c21.4,0,42.7,0,64.1,0c26.1,0,52.1,0,78.2,0c28.6,0,57.1,0,85.7,0
				c28.8,0,57.6,0,86.5,0c26.8,0,53.6,0,80.4,0c22.8,0,45.6,0,68.4,0c16.3,0,32.5,0,48.8,0c7.7,0,15.5,0.1,23.2,0c0.3,0,0.7,0,1,0
				c3.2,0,3.2-5,0-5c-5.3,0-10.7,0-16,0c-14.4,0-28.8,0-43.2,0c-21.4,0-42.7,0-64.1,0c-26.1,0-52.1,0-78.2,0c-28.5,0-57.1,0-85.7,0
				c-28.8,0-57.6,0-86.5,0c-26.8,0-53.6,0-80.4,0c-22.8,0-45.6,0-68.4,0c-16.3,0-32.5,0-48.8,0c-7.7,0-15.6-0.6-23.2,0
				c-0.3,0-0.7,0-1,0c0.8,0.8,1.7,1.7,2.5,2.5c0-2.4-0.2-5.5-3.5-5.5c-3.2,0-3.5,3-3.5,5.5c0.8-0.8,1.7-1.7,2.5-2.5
				c-0.7,0-1.5,0-2.2,0c0.8,0.8,1.7,1.7,2.5,2.5c0-9.9,0-19.8,0-29.6c0-23.7,0-47.4,0-71.2c0-28.6,0-57.2,0-85.8
				c0-24.9,0-49.8,0-74.7c0-8.1,0-16.3,0-24.4c0-2.5,0-5.1,0-7.7c0-1.2,0.2-2.7,0-4c0-0.2,0-0.3,0-0.5c-0.6,0.8-1.2,1.6-1.8,2.4
				c11.4-3.9,22.7-6.1,34.8-4.5c11.6,1.5,22.1,7.7,33.8,8.6c11.4,0.9,21.7-5.5,31.3-10.7c9.9-5.4,19.8-11,29.9-16.2
				c20.4-10.6,42-19.7,65.2-21.1c23.7-1.4,47.1,4.2,70.4,7.5c21.5,3.1,43.3,4,64.1-2.8c16.7-5.5,31.7-14.9,45.4-25.7
				c28.9-22.7,52.7-51.6,83.8-71.4c3.8-2.4,7.8-4.7,11.8-6.8c5.2-2.7,10.8-5.4,16.8-4.9c6.1,0.5,11.7,4.1,17,6.9
				c5.4,2.9,10.7,5.8,16.1,8.8c22,12.3,43.4,25.5,64.3,39.4c4.4,2.9,8.8,5.5,14.2,5.6c-0.8-0.8-1.7-1.7-2.5-2.5
				c0,12.9,0,25.8,0,38.6c0,30.7,0,61.4,0,92.1c0,37.1,0,74.2,0,111.2c0,32,0,64.1,0,96.1c0,15.5-0.5,31.1,0,46.7c0,0.2,0,0.4,0,0.7
				C596.3,851.2,601.3,851.2,601.3,847.9z"/>
			<path class="st1" d="M152.4,531c0,0,0-0.1,0-0.2c0,0.2-0.1,0.4-0.1,0.7c0-0.1,0-0.2,0.1-0.3c-0.1,0.2-0.2,0.4-0.2,0.6
				c0-0.1,0.1-0.1,0.1-0.2c-0.1,0.2-0.3,0.3-0.4,0.5c0.1-0.1,0.1-0.1,0.2-0.2c-0.2,0.1-0.3,0.3-0.5,0.4c0.1,0,0.1-0.1,0.2-0.1
				c-0.2,0.1-0.4,0.2-0.6,0.2c0.1,0,0.2-0.1,0.3-0.1c-0.2,0-0.4,0.1-0.7,0.1c0.1,0,0.2,0,0.3,0c-0.2,0-0.4-0.1-0.7-0.1
				c0.1,0,0.2,0,0.3,0.1c-0.2-0.1-0.4-0.2-0.6-0.2c0.1,0,0.1,0.1,0.2,0.1c-0.2-0.1-0.3-0.3-0.5-0.4c0.1,0,0.1,0.1,0.2,0.2
				c-0.1-0.2-0.3-0.3-0.4-0.5c0,0,0.1,0.1,0.1,0.2c-0.1-0.2-0.2-0.4-0.2-0.6c0,0.1,0.1,0.2,0.1,0.3c0-0.2-0.1-0.4-0.1-0.7
				c0.1,0.8,0,1.8,0,2.6c0,1.3,0,2.7,0,4.1c0,0.3,0,0.7,0,1c0-0.2,0.1-0.4,0.1-0.7c0,0.1,0,0.2-0.1,0.3c0.1-0.2,0.2-0.4,0.2-0.6
				c0,0.1-0.1,0.1-0.1,0.2c0.1-0.2,0.3-0.3,0.4-0.5c-0.1,0.1-0.1,0.1-0.2,0.2c0.2-0.1,0.3-0.3,0.5-0.4c-0.1,0-0.1,0.1-0.2,0.1
				c0.2-0.1,0.4-0.2,0.6-0.2c-0.1,0-0.2,0.1-0.3,0.1c0.2,0,0.4-0.1,0.7-0.1c-0.1,0-0.2,0-0.3,0c0.2,0,0.4,0.1,0.7,0.1
				c-0.1,0-0.2,0-0.3-0.1c0.2,0.1,0.4,0.2,0.6,0.2c-0.1,0-0.1-0.1-0.2-0.1c0.2,0.1,0.3,0.3,0.5,0.4c-0.1,0-0.1-0.1-0.2-0.2
				c0.1,0.2,0.3,0.3,0.4,0.5c0,0-0.1-0.1-0.1-0.2c0.1,0.2,0.2,0.4,0.2,0.6c0-0.1-0.1-0.2-0.1-0.3c0,0.2,0.1,0.4,0.1,0.7
				c-0.1-0.8,0-1.7,0-2.5c0-1.3,0-2.7,0-4C152.4,531.6,152.4,531.3,152.4,531c0-1.3-1.1-2.6-2.5-2.5s-2.5,1.1-2.5,2.5
				c0,1.4,0,2.8,0,4.2c0,0.8,0,1.7,0,2.5c0,0.2,0,0.4,0,0.5c0,1,0.4,1.8,1,2.5c1.8,1.8,5.1,1,5.8-1.5c0.2-0.7,0.1-1.4,0.1-2
				c0-1.8,0-3.6,0-5.4c0-0.3,0-0.5,0-0.8c0-1-0.3-1.8-1-2.5c-0.9-0.9-2.3-1.2-3.5-0.9c-1.5,0.4-2.4,1.8-2.5,3.3
				c0,1.3,1.2,2.6,2.5,2.5C151.3,533.4,152.4,532.4,152.4,531z"/>
		</g>
	</g>
	<g>
		<path class="st1" d="M-4.9,847.9V551.5c-0.7,0.2-1.3,0.4-2,0.6v295.8L-4.9,847.9L-4.9,847.9z"/>
		<g>
			<path class="st1" d="M-2.4,847.9c0-2.7,0-5.3,0-8c0-7.2,0-14.3,0-21.5c0-10.6,0-21.3,0-31.9c0-13,0-26,0-38.9
				c0-14.2,0-28.3,0-42.5c0-14.4,0-28.8,0-43.2c0-13.3,0-26.7,0-40c0-11.3,0-22.6,0-33.9c0-8.1,0-16.3,0-24.4c0-3.8,0.1-7.7,0-11.5
				c0-0.2,0-0.3,0-0.5c0-1.6-1.6-2.9-3.2-2.4c-0.7,0.2-1.3,0.4-2,0.6c-1.1,0.3-1.8,1.3-1.8,2.4c0,2.6,0,5.3,0,7.9
				c0,7.2,0,14.4,0,21.6c0,10.6,0,21.2,0,31.8c0,13,0,26,0,38.9c0,14.2,0,28.3,0,42.5c0,14.3,0,28.6,0,42.9c0,13.3,0,26.7,0,40
				c0,11.3,0,22.5,0,33.8c0,8.1,0,16.2,0,24.3c0,3.8-0.1,7.7,0,11.6c0,0.2,0,0.3,0,0.5c0,1.3,1.1,2.5,2.5,2.5c0.7,0,1.3,0,2,0
				c3.2,0,3.2-5,0-5c-0.7,0-1.3,0-2,0c0.8,0.8,1.7,1.7,2.5,2.5c0-2.6,0-5.3,0-7.9c0-7.2,0-14.4,0-21.6c0-10.6,0-21.2,0-31.8
				c0-13,0-26,0-38.9c0-14.2,0-28.3,0-42.5c0-14.3,0-28.6,0-42.9c0-13.3,0-26.7,0-40c0-11.3,0-22.5,0-33.8c0-8.1,0-16.2,0-24.3
				c0-3.8,0.2-7.7,0-11.6c0-0.2,0-0.3,0-0.5c-0.6,0.8-1.2,1.6-1.8,2.4c0.7-0.2,1.3-0.4,2-0.6c-1.1-0.8-2.1-1.6-3.2-2.4
				c0,2.7,0,5.3,0,8c0,7.2,0,14.3,0,21.5c0,10.6,0,21.3,0,31.9c0,13,0,26,0,38.9c0,14.2,0,28.3,0,42.5c0,14.4,0,28.8,0,43.2
				c0,13.3,0,26.7,0,40c0,11.3,0,22.6,0,33.9c0,8.1,0,16.3,0,24.4c0,3.8-0.1,7.7,0,11.5c0,0.2,0,0.3,0,0.5
				C-7.4,851.2-2.4,851.2-2.4,847.9z"/>
		</g>
	</g>
	<g>
		<path class="st1" d="M-6.8,1.5c-0.1,0-0.1,0-0.2,0V257c0.7-0.3,1.3-0.6,2-0.9V1.5H-6.8z"/>
		<g>
			<path class="st1" d="M-6.1-0.9c-0.1,0-0.1,0-0.2,0c-1.6-0.3-3.2,0.7-3.2,2.4c0,2.3,0,4.6,0,6.9c0,6.2,0,12.4,0,18.6
				c0,9.2,0,18.3,0,27.5c0,11.2,0,22.4,0,33.6c0,12.2,0,24.4,0,36.6c0,12.4,0,24.8,0,37.2c0,11.5,0,23,0,34.5c0,9.8,0,19.5,0,29.2
				c0,7,0,14,0,21c0,3.3-0.1,6.6,0,9.9c0,0.1,0,0.3,0,0.4c0,2.1,2.1,2.9,3.8,2.2c0.7-0.3,1.3-0.6,2-0.9c0.8-0.3,1.2-1.4,1.2-2.2
				c0-2.3,0-4.5,0-6.8c0-6.2,0-12.4,0-18.5c0-9.1,0-18.3,0-27.4c0-11.1,0-22.3,0-33.4c0-12.2,0-24.4,0-36.6c0-12.3,0-24.7,0-37
				c0-11.5,0-23,0-34.5c0-9.7,0-19.3,0-29c0-7,0-14,0-21c0-3.3,0.1-6.6,0-9.9c0-0.1,0-0.3,0-0.4C-2.4,0.2-3.6-1-4.9-1
				c-0.6,0-1.2,0-1.8,0c-3.2,0-3.2,5,0,5c0.6,0,1.2,0,1.8,0c-0.8-0.8-1.7-1.7-2.5-2.5c0,2.3,0,4.5,0,6.8c0,6.2,0,12.4,0,18.5
				c0,9.1,0,18.3,0,27.4c0,11.2,0,22.3,0,33.4c0,12.2,0,24.4,0,36.6c0,12.3,0,24.6,0,37c0,11.5,0,23,0,34.5c0,9.7,0,19.4,0,29
				c0,7,0,14,0,20.9c0,3.3-0.1,6.6,0,9.9c0,0.1,0,0.3,0,0.4c0.4-0.7,0.8-1.4,1.2-2.2c-0.7,0.3-1.3,0.6-2,0.9
				c1.2,0.7,2.5,1.4,3.8,2.2c0-2.3,0-4.6,0-6.9c0-6.2,0-12.4,0-18.6c0-9.2,0-18.3,0-27.5c0-11.2,0-22.4,0-33.6c0-12.2,0-24.4,0-36.6
				c0-12.4,0-24.8,0-37.2c0-11.5,0-23,0-34.5c0-9.8,0-19.5,0-29.2c0-7,0-14,0-21c0-3.3,0.1-6.6,0-9.9c0-0.1,0-0.3,0-0.4
				c-1.1,0.8-2.1,1.6-3.2,2.4c0.1,0,0.1,0,0.2,0C-4.3,4.6-2.9-0.2-6.1-0.9z"/>
		</g>
	</g>
	<g>
		<path class="st1" d="M-2.8,1.5h-0.1v253.7c0,0,0.1,0,0.1-0.1V1.5z"/>
		<g>
			<path class="st1" d="M-2.8-0.9c0,0-0.1,0-0.1,0c-1.3,0-2.5,1.1-2.5,2.5c0,2.3,0,4.6,0,6.8c0,6.1,0,12.3,0,18.4
				c0,9.1,0,18.3,0,27.4c0,11.1,0,22.1,0,33.2c0,12.2,0,24.4,0,36.6c0,12.2,0,24.5,0,36.7c0,11.5,0,23,0,34.4c0,9.6,0,19.3,0,28.9
				c0,7,0,14,0,20.9c0,3.3-0.1,6.6,0,9.9c0,0.1,0,0.3,0,0.4c0,2.1,2.1,2.9,3.8,2.2c0,0,0.1,0,0.1,0c0.8-0.3,1.2-1.4,1.2-2.2
				c0-2.3,0-4.6,0-6.8c0-6.1,0-12.3,0-18.4c0-9.1,0-18.2,0-27.3c0-11.1,0-22.2,0-33.3c0-12.1,0-24.2,0-36.4c0-12.3,0-24.6,0-37
				c0-11.4,0-22.8,0-34.2c0-9.7,0-19.4,0-29c0-7,0-13.9,0-20.9c0-3.3,0.1-6.6,0-9.9c0-0.1,0-0.3,0-0.4c0-3.2-5-3.2-5,0
				c0,2.3,0,4.6,0,6.8c0,6.1,0,12.3,0,18.4c0,9.1,0,18.2,0,27.3c0,11.1,0,22.2,0,33.3c0,12.1,0,24.2,0,36.4c0,12.3,0,24.6,0,37
				c0,11.4,0,22.8,0,34.2c0,9.7,0,19.4,0,29c0,7,0,13.9,0,20.9c0,3.3-0.1,6.6,0,9.9c0,0.1,0,0.3,0,0.4c0.4-0.7,0.8-1.4,1.2-2.2
				c0,0-0.1,0-0.1,0.1c1.2,0.7,2.5,1.4,3.8,2.2c0-2.3,0-4.6,0-6.8c0-6.1,0-12.3,0-18.4c0-9.1,0-18.3,0-27.4c0-11.1,0-22.1,0-33.2
				c0-12.2,0-24.4,0-36.6c0-12.2,0-24.5,0-36.7c0-11.5,0-23,0-34.5c0-9.6,0-19.3,0-28.9c0-7,0-14,0-20.9c0-3.3,0.1-6.6,0-9.9
				c0-0.1,0-0.3,0-0.4C-1.3,2.4-2.1,3.2-2.9,4c0,0,0.1,0,0.1,0C0.4,4.1,0.4-0.9-2.8-0.9z"/>
		</g>
	</g>
	<g>
		<path class="st1" d="M598.8,1.5h-45.6c-20.3,0.7-40.6,1.1-60.9,1.3c-42.6,0.4-85.2,0.1-127.8-0.1c-42.1-0.2-84.2-0.4-126.3-1
			c-4.8-0.1-9.6-0.1-14.4-0.2H-0.8v252.8c9.7-4.2,19.5-8.5,29.2-12.8c3.8-1.7,7.9-3.4,12.1-2.8c4.2,0.6,7.6,3.4,10.9,6
			c15,12.3,30,24.6,44.9,37c9.3,7.7,19.8,15.8,31.9,15.5c17-0.4,28.7-16.4,39.7-29.4c15.6-18.4,35.3-33.3,57.2-43.4
			c7.8-3.6,16.6-6.7,24.9-4.5c6.9,1.8,13.3,7.1,20.2,5.6c5.3-1.1,8.9-5.9,13.5-8.6c10-5.9,23.2-1.8,33.8-6.4
			c9.2-4,14.7-13.8,23.7-18.2c11.3-5.5,25.2-0.8,34.9,7.2c9.7,8,16.4,18.9,24.6,28.4c11.1,13,25,23.6,40.5,30.9
			c6.6,3.1,13.8,5.7,21,4.7c11.5-1.5,19.9-11.3,30.6-15.8c24.3-10.2,55.3,8.4,77.4-6.1c8-5.3,13-14,17.7-22.4l10.9-19.6L598.8,1.5
			L598.8,1.5z"/>
		<g>
			<path class="st1" d="M598.8-0.9c-13.8,0-27.6,0-41.4,0c-11.3,0-22.7,0.6-34,0.8c-18.7,0.4-37.4,0.6-56.1,0.7
				c-74,0.3-147.9-0.2-221.9-1.2c-23.1-0.3-46.2-0.3-69.3-0.3c-35.6,0-71.2,0-106.8,0c-23,0-46-0.4-69,0c-0.4,0-0.7,0-1.1,0
				c-1.4,0-2.5,1.1-2.5,2.5c0,8.4,0,16.7,0,25.1c0,20.1,0,40.2,0,60.3c0,24.3,0,48.7,0,73c0,21.1,0,42.1,0,63.2c0,7,0,13.9,0,20.9
				c0,3.2-0.2,6.6,0,9.9c0,0.1,0,0.3,0,0.4c0,2.1,2.1,2.9,3.8,2.2c5.6-2.4,11.2-4.9,16.8-7.3c5.5-2.4,11-5.3,16.8-7.1
				c6.1-1.9,10.5,0.4,15.2,4.2c4.7,3.9,9.4,7.8,14.1,11.6c9.5,7.8,19,15.6,28.4,23.4c7.8,6.4,15.7,13.3,25.4,16.7
				c8.6,3,17.8,2.1,25.8-2.3c7.9-4.3,14.1-11.1,19.9-17.9c6.5-7.6,12.8-15.1,20-21.9c7.7-7.2,16.1-13.6,25-19.2
				c8.9-5.6,18.9-11.4,29.2-14c5.5-1.4,10.8-1.2,16.1,0.9c4.7,1.9,9.2,4.6,14.4,4.6c4.5,0.1,8.2-2.1,11.6-4.7c4.2-3.3,7.9-6,13.2-7
				c9.5-1.8,19.4,0,28.2-4.7c8-4.2,13-12.4,21-16.8c8.9-4.9,19.6-2.4,27.9,2.6c9.1,5.4,15.7,14.1,22.1,22.4
				c6.4,8.2,13,16.1,20.8,22.8c7.8,6.7,16.4,12.5,25.6,17.1c9.3,4.6,19.7,8.4,30,4.9c9-3,15.9-9.8,24.3-13.9
				c8.3-4.1,17.8-4.2,26.9-3.5c17.1,1.4,36.6,6.6,52.2-3.3c12-7.6,18-21.8,24.7-33.9c1.3-2.4,2.6-4.7,3.9-7.1
				c0.6-1.1,1.4-2.2,1.6-3.5c0.1-0.8,0-1.6,0-2.4c0-5.4,0-10.9,0-16.3c0-20.9,0-41.7,0-62.6c0-23.8,0-47.7,0-71.5
				c0-14.5,0-28.9,0-43.4c0-0.7,0-1.4,0-2.1c0-3.2-5-3.2-5,0c0,10.2,0,20.4,0,30.5c0,22.6,0,45.1,0,67.7c0,22.6,0,45.3,0,67.9
				c0,7.6,0,15.2,0,22.8c0,0.7-0.6,9,0,9.3c-1-0.4,0.9-1.8,0.1-0.8c-0.5,0.6-0.8,1.5-1.2,2.2c-1.3,2.4-2.7,4.8-4,7.2
				c-2.2,4-4.4,8-6.7,11.9c-4.8,8.5-10.2,17.1-19.3,21.5c-8.1,3.9-17.5,3.6-26.2,2.9c-17.9-1.6-36.3-5.8-52.8,3.8
				c-8.1,4.8-15.8,12.2-25.6,12.9c-10.8,0.7-21.7-5.8-30.5-11.3c-8.9-5.6-17.1-12.3-24.2-20c-7.2-7.7-13-16.6-20-24.4
				c-11.9-13.3-32.3-24.9-49.3-13.4c-7.4,5-12.8,13.5-21.5,16.6c-9.2,3.3-19.5,0.8-28.7,4.2c-4.5,1.7-7.7,4.8-11.5,7.5
				c-4.6,3.4-9,3.2-14.1,1.1c-4.6-1.9-8.9-4.1-13.9-4.7c-5.4-0.6-10.9,0.6-15.9,2.4c-19.1,6.9-36.9,19.2-51.7,33
				c-7.3,6.8-13.6,14.4-20,21.9c-5.8,6.8-12.1,13.9-20.3,17.9c-9.1,4.4-18.8,2.7-27.3-2.3c-9.7-5.7-18.2-13.7-26.9-20.8
				c-9.3-7.7-18.7-15.3-28-23c-3.9-3.2-7.7-6.9-12.4-8.8c-4.9-2-9.9-0.9-14.7,1.1c-10.7,4.4-21.2,9.2-31.7,13.8
				c1.2,0.7,2.5,1.4,3.8,2.2c0-8.4,0-16.7,0-25.1c0-20.1,0-40.2,0-60.3c0-24.3,0-48.7,0-73c0-21.1,0-42.1,0-63.2c0-7,0-13.9,0-20.9
				c0-3.1,0.6-6.8,0-9.9c0-0.1,0-0.3,0-0.5C0.8,2.4,0,3.2-0.8,4c19.4,0,38.7,0,58.1,0c35.8,0,71.6,0,107.4,0c19.7,0,39.4-0.1,59.1,0
				C296.2,4.5,368.6,5.5,441,5.5C492,5.6,543,4,594.1,4c1.6,0,3.2,0,4.7,0C602,4.1,602-0.9,598.8-0.9z"/>
		</g>
	</g>
	<g>
		<g>
			<path class="st1" d="M481-188.5c3.2,0,3.2-5,0-5S477.8-188.5,481-188.5L481-188.5z"/>
		</g>
	</g>
	<g>
		<g>
			<path class="st1" d="M572,545.5c3.2,0,3.2-5,0-5S568.8,545.5,572,545.5L572,545.5z"/>
		</g>
	</g>
</g>
<g id="over">
	<g>
		<path class="st2" d="M-2.8,847.9V598.2c0,0-0.1,0-0.1,0v249.8H-2.8z"/>
		<g>
			<path class="st2" d="M-0.3,847.9c0-2.2,0-4.5,0-6.7c0-6.1,0-12.1,0-18.2c0-8.9,0-17.9,0-26.8c0-10.9,0-21.9,0-32.8
				c0-12,0-24,0-36c0-12.1,0-24.1,0-36.2c0-11.3,0-22.6,0-33.8c0-9.5,0-19.1,0-28.6c0-6.8,0-13.7,0-20.5c0-3.2,0.1-6.5,0-9.7
				c0-0.1,0-0.3,0-0.4c0-1-0.8-2.2-1.8-2.4c0,0-0.1,0-0.1,0c-1.6-0.3-3.2,0.7-3.2,2.4c0,2.2,0,4.5,0,6.7c0,6.1,0,12.1,0,18.2
				c0,8.9,0,17.9,0,26.8c0,10.9,0,21.9,0,32.8c0,12,0,24,0,36c0,12.1,0,24.1,0,36.2c0,11.3,0,22.6,0,33.8c0,9.5,0,19.1,0,28.6
				c0,6.8,0,13.7,0,20.5c0,3.2-0.1,6.5,0,9.7c0,0.1,0,0.3,0,0.4c0,1.3,1.2,2.5,2.5,2.5c0,0,0.1,0,0.1,0c3.2,0,3.2-5,0-5
				c0,0-0.1,0-0.1,0c0.8,0.8,1.7,1.7,2.5,2.5c0-2.2,0-4.5,0-6.7c0-6.1,0-12.1,0-18.2c0-8.9,0-17.9,0-26.8c0-10.9,0-21.9,0-32.8
				c0-12,0-24,0-36c0-12.1,0-24.1,0-36.2c0-11.3,0-22.6,0-33.8c0-9.5,0-19.1,0-28.6c0-6.8,0-13.7,0-20.5c0-3.2,0.1-6.5,0-9.7
				c0-0.1,0-0.3,0-0.4c-1,0.8-2.1,1.6-3.2,2.4c0,0,0.1,0,0.1,0c-0.6-0.8-1.2-1.6-1.8-2.4c0,2.2,0,4.5,0,6.7c0,6.1,0,12.1,0,18.2
				c0,8.9,0,17.9,0,26.8c0,10.9,0,21.9,0,32.8c0,12,0,24,0,36c0,12.1,0,24.1,0,36.2c0,11.3,0,22.6,0,33.8c0,9.5,0,19.1,0,28.6
				c0,6.8,0,13.7,0,20.5c0,3.2-0.1,6.5,0,9.7c0,0.1,0,0.3,0,0.4C-5.3,851.2-0.3,851.2-0.3,847.9z"/>
		</g>
	</g>
	<g>
		<path class="st2" d="M-4.9,847.9V597.8c-0.7-0.1-1.3-0.2-2-0.2v250.3L-4.9,847.9L-4.9,847.9z"/>
		<g>
			<path class="st2" d="M-2.4,847.9c0-2.2,0-4.5,0-6.7c0-6.1,0-12.2,0-18.2c0-9,0-17.9,0-26.9c0-11,0-21.9,0-32.9c0-12,0-24,0-36
				c0-12.1,0-24.2,0-36.2c0-11.3,0-22.6,0-33.9c0-9.5,0-19.1,0-28.6c0-6.8,0-13.7,0-20.5c0-3.2,0-6.5,0-9.8c0-0.1,0-0.3,0-0.4
				c0-1.5-1.2-2.3-2.5-2.5c-0.7-0.1-1.3-0.2-2-0.2c-1.4-0.1-2.5,1.2-2.5,2.5c0,2.2,0,4.5,0,6.7c0,6.1,0,12.1,0,18.2c0,9,0,18,0,27
				c0,11,0,21.9,0,32.9c0,12,0,23.9,0,35.9c0,12.2,0,24.3,0,36.5c0,11.3,0,22.5,0,33.8c0,9.5,0,19.1,0,28.7c0,6.9,0,13.7,0,20.6
				c0,3.2-0.1,6.5,0,9.7c0,0.1,0,0.3,0,0.4c0,1.3,1.1,2.5,2.5,2.5c0.7,0,1.3,0,2,0c3.2,0,3.2-5,0-5c-0.7,0-1.3,0-2,0
				c0.8,0.8,1.7,1.7,2.5,2.5c0-2.2,0-4.5,0-6.7c0-6.1,0-12.1,0-18.2c0-9,0-18,0-27c0-11,0-21.9,0-32.9c0-12,0-23.9,0-35.9
				c0-12.2,0-24.3,0-36.5c0-11.3,0-22.5,0-33.8c0-9.5,0-19.1,0-28.7c0-6.9,0-13.7,0-20.6c0-3.2,0.1-6.5,0-9.7c0-0.1,0-0.3,0-0.4
				c-0.8,0.8-1.7,1.7-2.5,2.5c0.7,0.1,1.3,0.1,2,0.2c-0.8-0.8-1.7-1.7-2.5-2.5c0,2.2,0,4.5,0,6.7c0,6.1,0,12.2,0,18.2
				c0,9,0,17.9,0,26.9c0,11,0,21.9,0,32.9c0,12,0,24,0,36c0,12.1,0,24.2,0,36.2c0,11.3,0,22.6,0,33.9c0,9.5,0,19.1,0,28.6
				c0,6.8,0,13.7,0,20.5c0,3.2-0.1,6.5,0,9.8c0,0.1,0,0.3,0,0.4C-7.4,851.2-2.4,851.2-2.4,847.9z"/>
		</g>
	</g>
	<g>
		<path class="st2" d="M598.8,847.9V680.7c-3,2.5-6,4.9-9.2,7.2c-12.6,9.2-27.9,16.9-43.3,14.3c-10.5-1.8-19.6-8.1-28.8-13.4
			c-23.6-13.7-49.9-21.9-76-30c-17.7-5.5-36.2-11-54.6-8.6c-17.6,2.3-33.3,11.7-49.6,18.5c-21.4,8.8-44.2,13.1-66.9,17.5
			c-8.1,1.5-16.3,3.1-24.5,2.4c-10.4-0.8-20.1-5.2-29.6-9.4c-13.8-6.2-27.7-12.5-39.5-22c-6.2-5.1-12-11.1-19.6-13.8
			c-6-2.1-12.5-1.8-18.8-1.9c-42.2-0.9-80.7-22.1-120.1-37.2c-6.1-2.3-12.7-4.5-19.3-5.7v249.4h2.2v-2c0-1.3,2-1.3,2,0v2H598.8z"/>
		<g>
			<path class="st2" d="M601.3,847.9c0-18.9,0-37.9,0-56.8c0-29.9,0-59.8,0-89.8c0-6.9,0-13.8,0-20.6c0-2.3-2.7-3.1-4.3-1.8
				c-15.3,12.7-35.3,26.2-56,19.3c-9.7-3.2-18.1-9.5-27-14.4c-9-4.9-18.3-9-27.8-12.8c-19.8-7.8-40.5-14.4-61-19.8
				c-10.2-2.7-20.8-4.6-31.5-4.3c-10.3,0.3-20.2,3.1-29.7,7c-9.6,3.9-18.8,8.7-28.4,12.5c-10,4-20.4,7.1-30.8,9.7
				c-10.5,2.6-21.1,4.7-31.7,6.7c-11,2.1-22.2,4.4-33.3,2c-10.2-2.3-19.8-7-29.3-11.4c-9.2-4.2-18.4-8.8-26.8-14.6
				c-7.6-5.3-13.9-12.8-22.4-16.8c-9.1-4.3-19.3-2.9-29.1-3.6c-41.6-2.9-78.1-24.5-116.7-38.2c-5.1-1.8-10.3-3.3-15.7-4.3
				c-1.6-0.3-3.2,0.7-3.2,2.4c0,8.3,0,16.6,0,24.9c0,19.8,0,39.6,0,59.4c0,24.1,0,48.1,0,72.2c0,20.7,0,41.4,0,62.2
				c0,6.9,0,13.7,0,20.6c0,3.2-0.2,6.5,0,9.8c0,0.1,0,0.3,0,0.4c0,1.3,1.1,2.5,2.5,2.5c0.7,0,1.5,0,2.2,0c1.4,0,2.5-1.2,2.5-2.5
				c0-1.6,0.5-1.9-1.5-1.9c-2,0-1.5,0.2-1.5,1.9c0,1.3,1.1,2.5,2.5,2.5c5.3,0,10.7,0,16,0c14.4,0,28.8,0,43.2,0
				c21.4,0,42.7,0,64.1,0c26.1,0,52.1,0,78.2,0c28.6,0,57.1,0,85.7,0c28.8,0,57.6,0,86.5,0c26.8,0,53.6,0,80.4,0
				c22.8,0,45.6,0,68.4,0c16.3,0,32.5,0,48.8,0c7.7,0,15.5,0.1,23.2,0c0.3,0,0.7,0,1,0c3.2,0,3.2-5,0-5c-5.3,0-10.7,0-16,0
				c-14.4,0-28.8,0-43.2,0c-21.4,0-42.7,0-64.1,0c-26.1,0-52.1,0-78.2,0c-28.5,0-57.1,0-85.7,0c-28.8,0-57.6,0-86.5,0
				c-26.8,0-53.6,0-80.4,0c-22.8,0-45.6,0-68.4,0c-16.3,0-32.5,0-48.8,0c-7.7,0-15.6-0.6-23.2,0c-0.3,0-0.7,0-1,0
				c0.8,0.8,1.7,1.7,2.5,2.5c0-2.4-0.2-5.5-3.5-5.5c-3.2,0-3.5,3-3.5,5.5c0.8-0.8,1.7-1.7,2.5-2.5c-0.7,0-1.5,0-2.2,0
				c0.8,0.8,1.7,1.7,2.5,2.5c0-8.3,0-16.6,0-24.9c0-19.8,0-39.6,0-59.4c0-24.1,0-48.1,0-72.2c0-20.7,0-41.4,0-62.2
				c0-6.9,0-13.7,0-20.6c0-3,0.6-6.8,0-9.8c0-0.1,0-0.3,0-0.4c-1,0.8-2.1,1.6-3.2,2.4c10.6,2.1,20.7,6.1,30.7,10.2
				c9.6,3.9,19.1,8,28.7,12c19.1,7.9,38.6,15.2,59,18.7c10.2,1.7,20.3,1.8,30.6,2.3c5.2,0.3,10.1,1.5,14.5,4.3
				c4.1,2.5,7.6,5.8,11.2,8.9c7.8,6.6,16.4,11.8,25.6,16.4c9.1,4.5,18.4,8.8,27.8,12.5c10.3,4,20.6,5.8,31.6,4.5
				c10.9-1.3,21.8-3.8,32.6-6c10.6-2.2,21.1-4.7,31.4-7.9c10.1-3.2,19.9-7.3,29.5-11.8c9.4-4.3,19-8.7,29.1-11.1
				c11.1-2.6,22.4-2,33.5,0.2c10.8,2.1,21.2,5.5,31.7,8.8c10.3,3.2,20.5,6.4,30.6,10.1c10,3.7,19.9,7.7,29.5,12.5
				c9.3,4.7,17.8,10.8,27.2,15.1c8.9,4.1,18.2,5.6,27.8,3.7c10-2,19.2-7,27.5-12.7c4.1-2.8,8-5.9,11.8-9.1c-1.4-0.6-2.8-1.2-4.3-1.8
				c0,18.9,0,37.9,0,56.8c0,29.9,0,59.8,0,89.8c0,6.9,0,13.8,0,20.6C596.3,851.2,601.3,851.2,601.3,847.9z"/>
		</g>
	</g>
	<g>
		<path class="st2" d="M-6.8,1.5c-0.1,0-0.1,0-0.2,0v148.7c0,0,0.1,0,0.1-0.1c0.6-0.5,1.3-1,1.9-1.5V1.5H-6.8z"/>
		<g>
			<path class="st2" d="M-6.1-0.9c-0.1,0-0.1,0-0.2,0c-1.6-0.3-3.2,0.7-3.2,2.4c0,5,0,9.9,0,14.9c0,11.8,0,23.7,0,35.5
				c0,14.3,0,28.6,0,42.9c0,12.4,0,24.7,0,37.1c0,6-0.2,12.1,0,18.1c0,0.1,0,0.2,0,0.2c0,2.2,2.7,3.2,4.3,1.8
				c1.2-1.1,2.7-1.7,2.8-3.4c0-0.2,0-0.4,0-0.6c0-0.9,0-1.7,0-2.6c0-3.4,0-6.9,0-10.3c0-11.6,0-23.3,0-34.9c0-14.3,0-28.6,0-42.9
				c0-12.4,0-24.9,0-37.3c0-6.1,0.2-12.2,0-18.3c0-0.1,0-0.2,0-0.2C-2.4,0.2-3.6-1-4.9-1c-0.6,0-1.2,0-1.8,0c-3.2,0-3.2,5,0,5
				c0.6,0,1.2,0,1.8,0c-0.8-0.8-1.7-1.7-2.5-2.5c0,4.9,0,9.8,0,14.7c0,11.7,0,23.4,0,35.1c0,14.1,0,28.3,0,42.4
				c0,12.3,0,24.5,0,36.8c0,4.1,0,8.1,0,12.1c0,1.9-0.1,3.8,0,5.7c0,0.1,0,0.2,0,0.2c0.4-0.7,0.8-1.4,1.2-2.2
				c-0.8,0.6-1.7,1.3-2.5,2c1.4,0.6,2.8,1.2,4.3,1.8c0-5,0-9.9,0-14.9c0-11.8,0-23.7,0-35.5c0-14.3,0-28.6,0-42.9
				c0-12.4,0-24.7,0-37.1c0-4.1,0-8.2,0-12.3c0-1.9,0.1-3.9,0-5.8c0-0.1,0-0.2,0-0.2c-1,0.8-2.1,1.6-3.2,2.4c0.1,0,0.1,0,0.2,0
				C-4.3,4.6-2.9-0.2-6.1-0.9z"/>
		</g>
	</g>
	<g>
		<path class="st2" d="M598.8,1.5h-45.6c-20.3,0.7-40.6,1.1-60.9,1.3c-42.6,0.4-85.2,0.1-127.8-0.1c-42.1-0.2-84.2-0.4-126.3-1
			c-4.8-0.1-9.6-0.1-14.4-0.2H-0.8v144.3c10.2-6.1,22.5-9,32.4-15.9c7.1-5,13.2-12.2,21.8-13.9c4.9-1,10,0.1,14.9-0.6
			c18.3-2.2,30.3-25.3,48.7-23.7c14.9,1.2,22.9,17.6,28.7,31.4s16.1,29.6,31,27.9c8.7-1,15.3-7.9,21.7-13.7
			c21.3-19.2,48.3-30.7,75-41.2c16.1-6.3,32.4-12.5,48.6-18.4c5.9-2.1,12.2-4.3,18.4-3.3c5.4,0.9,10.1,4.1,14.6,7.1
			c13.6,9.3,27.2,18.6,40.8,27.9c7.6,5.2,15.5,10.5,24.6,11.7c17.2,2.3,32.3-10.4,46.9-19.8c36.5-23.5,84.2-28.8,124.9-13.8
			c2.2,0.8,4.3,1.6,6.5,2.5V1.5z"/>
		<g>
			<path class="st2" d="M598.8-0.9c-13.8,0-27.6,0-41.4,0c-11.3,0-22.7,0.6-34,0.8c-18.7,0.4-37.4,0.6-56.1,0.7
				c-74,0.3-147.9-0.2-221.9-1.2c-23.1-0.3-46.2-0.3-69.3-0.3c-35.6,0-71.2,0-106.8,0c-23,0-46-0.4-69,0c-0.4,0-0.7,0-1.1,0
				c-1.4,0-2.5,1.1-2.5,2.5c0,16.2,0,32.4,0,48.6c0,26,0,51.9,0,77.9c0,5.9,0,11.9,0,17.8c0,1.9,2.1,3.1,3.8,2.2
				c10.1-5.9,21.8-8.8,31.5-15.3c4.5-3,8.3-6.8,12.7-9.8c2.2-1.5,4.5-2.9,7.1-3.8c3.3-1.1,6.7-1,10.2-0.9c5.2,0.1,9.9-0.4,14.7-2.4
				c4-1.7,7.6-4.1,11-6.6c6.8-5,13.5-11.6,21.8-14.1c21.2-6.3,29.5,20.5,36.5,34.7c4,8.1,9.6,16.5,17.6,21c9,5,18.8,2.9,26.8-3.1
				c4.3-3.2,8.1-7.1,12.1-10.5c4.7-4,9.6-7.7,14.8-11c10-6.5,20.6-12,31.4-16.9c23.7-10.7,48.4-19.6,72.9-28.5
				c6.2-2.2,13-5,19.7-3.4c6.1,1.5,11.3,5.8,16.4,9.2c11.2,7.6,22.4,15.3,33.5,22.9c9.5,6.5,19.3,13.7,31.2,14.6
				c10.9,0.8,21.1-4.2,30.2-9.8c9.6-6,18.6-12.8,28.8-17.9c10.3-5.1,21.3-8.9,32.5-11.4c22.2-4.8,45.6-4.3,67.5,1.7
				c5.7,1.6,11.2,3.6,16.7,5.8c1.5,0.6,3.2-0.9,3.2-2.4c0-25.9,0-51.7,0-77.6c0-3.7,0-7.4,0-11.1c0-3.2-5-3.2-5,0
				c0,25.9,0,51.7,0,77.6c0,3.7,0,7.4,0,11.1c1-0.8,2.1-1.6,3.2-2.4c-21.6-8.6-44.5-12.4-67.8-10.4c-22.5,2-44.7,9-63.9,21
				c-9.6,6-18.5,13.3-29,17.7c-5.2,2.2-10.7,3.5-16.3,3.1c-6.2-0.4-11.9-3.1-17.1-6.2c-11.2-6.7-21.7-14.6-32.5-21.9
				c-5.8-4-11.6-7.9-17.4-11.9c-4.6-3.1-9.5-6.1-15-6.9c-6.6-0.9-12.9,1.2-19,3.4c-6.3,2.3-12.6,4.6-18.9,6.9
				C290,87.1,277.4,91.9,265,97c-22.1,8.9-44.1,18.9-62.9,34c-8,6.5-16.2,17.6-27.5,17.8c-10,0.1-17.2-8.8-21.8-16.6
				c-8.6-14.7-13.3-38.6-33-42.5C101,86,89.7,105.3,74,111.5c-5.5,2.2-11,1.5-16.7,1.7c-5.6,0.2-10.6,2.2-15.2,5.4
				c-4.4,3.1-8.2,6.9-12.7,9.8c-5.1,3.4-10.8,5.8-16.5,8.2c-5.1,2.1-10.2,4.3-15.1,7.1c1.2,0.7,2.5,1.4,3.8,2.2
				c0-16.2,0-32.4,0-48.6c0-26,0-51.9,0-77.9c0-5.9,0-11.9,0-17.8C0.8,2.4,0,3.2-0.9,4.1c19.4,0,38.7,0,58.1,0
				c35.8,0,71.6,0,107.4,0c19.7,0,39.4-0.1,59.1,0C296.2,4.5,368.6,5.5,441,5.6c51,0,102-1.5,153.1-1.5c1.6,0,3.2,0,4.7,0
				C602,4.1,602-0.9,598.8-0.9z"/>
		</g>
	</g>
	<g>
		<path class="st2" d="M-2.8,1.5h-0.1v145.7c0,0,0.1,0,0.1-0.1V1.5z"/>
		<g>
			<path class="st2" d="M-2.8-0.9c0,0-0.1,0-0.1,0c-1.3,0-2.5,1.1-2.5,2.5c0,4.8,0,9.7,0,14.5c0,11.6,0,23.2,0,34.8c0,14,0,28,0,42
				c0,12.1,0,24.2,0,36.3c0,5.9-0.2,11.8,0,17.7c0,0.1,0,0.2,0,0.2c0,1.9,2.1,3.2,3.8,2.2c1.8-1.2,1.3-3.9,1.3-5.8
				c0-3.5,0-6.9,0-10.4c0-11.5,0-23.1,0-34.6c0-14.1,0-28.3,0-42.4c0-12.2,0-24.4,0-36.6c0-6,0.2-12,0-17.9c0-0.1,0-0.2,0-0.2
				c0-3.2-5-3.2-5,0c0,4.8,0,9.7,0,14.5c0,11.5,0,23.1,0,34.7c0,14.1,0,28.1,0,42.2c0,12.1,0,24.2,0,36.3c0,4,0,8,0,12
				c0,1.9-0.1,3.8,0,5.7c0,0.1,0,0.2,0,0.2c0.4-0.7,0.8-1.4,1.2-2.2c0,0-0.1,0-0.1,0.1c1.2,0.7,2.5,1.4,3.8,2.2c0-4.8,0-9.7,0-14.5
				c0-11.6,0-23.2,0-34.8c0-14,0-28,0-42c0-12.1,0-24.2,0-36.3c0-4,0-8.1,0-12.1c0-1.9,0.1-3.8,0-5.7c0-0.1,0-0.2,0-0.2
				C-1.3,2.4-2.1,3.2-2.9,4c0,0,0.1,0,0.1,0C0.4,4.1,0.4-0.9-2.8-0.9z"/>
		</g>
	</g>
</g>
<g id="rock">
	<g>
		<path class="st1" d="M138,670.7c-6.1,0-12.2,0.1-18.3,0.1c-5,0-10.1,0.1-15,1.4c-6.1,1.6-11.4,5-16.7,8.4
			c-2.8,1.8-5.6,3.6-8.3,5.4c-1.8,1.2-3.8,2.5-4.2,4.6c-0.7,3.3,2.7,5.9,5.6,7.4c12.7,6.7,26.6,11.4,40.8,13.8
			c10.5,1.8,22.7,1.7,29.9-6.1c2.4-2.6,4-6.3,3-9.8c-1.1-3.8-5.1-6.1-6.6-9.7c-0.8-2.1-0.8-4.5-2-6.3c-2.2-3.3-8-5-7.2-8.9"/>
		<g>
			<path class="st1" d="M138,668.2c-8,0.1-16-0.1-24,0.2c-3.8,0.2-7.6,0.6-11.3,1.7c-3.6,1.1-7.1,2.8-10.3,4.8c-3.2,1.9-6.3,4-9.5,6
				c-2.8,1.8-6.3,3.5-8.4,6.1c-2.1,2.7-2.2,6.1-0.1,8.9c2.1,2.8,5.2,4.3,8.2,5.8c13,6.5,27.3,11.2,41.7,13.1
				c5.9,0.8,12,0.9,17.8-0.7c5.9-1.6,11.7-5.3,14.2-11.1c1.5-3.6,1.4-7.5-0.8-10.8c-1.7-2.6-4.6-4.6-5.4-7.7
				c-0.5-1.8-0.8-3.8-1.7-5.5c-0.7-1.2-1.7-2.2-2.8-3.1c-1.1-0.9-2.3-1.7-3.3-2.6c-0.5-0.5-0.7-0.6-0.9-1.1c-0.3-0.6,0,0.4-0.1-0.3
				c-0.1-0.3-0.1-0.3,0-0.1c0-0.3,0-0.3,0-0.1c0.2-1.3-0.4-2.7-1.8-3.1c-1.2-0.3-2.9,0.4-3.1,1.8c-0.4,2.7,0.6,4.8,2.6,6.6
				c1.6,1.4,3.8,2.6,4.9,4.2c0.7,1.1,0.9,2.4,1.2,3.6c0.4,1.5,0.9,2.9,1.7,4.2c1.5,2.3,3.7,4.1,5,6.5c2.7,4.9-2.8,10-6.7,12
				c-4.6,2.4-10.1,2.8-15.2,2.6c-6.2-0.3-12.3-1.6-18.3-3.1c-6.6-1.7-13.1-3.9-19.4-6.6c-3.1-1.3-6.1-2.8-9.1-4.3
				c-1.7-0.9-5.1-2.4-5.3-4.7c-0.2-2.1,3.7-3.8,5.1-4.8c3-1.9,5.9-3.8,8.9-5.7c3.2-2,6.4-4,9.9-5.3c3.6-1.4,7.4-2.1,11.3-2.3
				c8.3-0.5,16.6-0.2,24.9-0.3C141.2,673.1,141.2,668.1,138,668.2L138,668.2z"/>
		</g>
	</g>
	<g>
		<path class="st1" d="M396,686.2c-18.5-0.5-36.9,9.9-46,26.1c6.1,5.5,15.5,4.4,23.4,6.3c6.2,1.5,11.8,4.8,17.7,7.1
			c5.9,2.3,12.7,3.6,18.5,1c4.1-1.9,7.1-5.5,9.6-9.2c6.8-10.5,10.2-23.1,9.4-35.6c-0.1-1-0.2-2.1-0.8-2.9c-1.2-1.5-3.6-1.1-5.5-0.6
			c-8.1,2.2-16.1,4.5-24.2,6.8"/>
		<g>
			<path class="st1" d="M396,683.7c-15.1-0.3-30.1,6.1-40.5,17.1c-2.9,3.1-5.5,6.5-7.6,10.2c-0.5,0.9-0.5,2.3,0.4,3
				c7.5,6.5,17.6,4.8,26.5,7.4c9.9,3,18.9,10.1,29.8,9c5.2-0.5,9.6-3,13.1-6.8c3.4-3.8,6-8.3,8.1-12.9c2.1-4.7,3.7-9.5,4.5-14.5
				c0.9-5.1,1.5-10.7,0.8-15.8c-0.5-3.1-2.8-5-5.9-5c-2.9,0-5.9,1.2-8.7,2c-6.3,1.8-12.6,3.5-19,5.3c-3.1,0.9-1.8,5.7,1.3,4.8
				c5.1-1.4,10.3-2.9,15.4-4.3c2.6-0.7,5.2-1.5,7.8-2.2c0.8-0.2,3.2-1.2,3.9-0.4c0.5,0.6,0.3,2.3,0.3,3c0,1.2,0,2.3,0,3.4
				c-0.1,2.3-0.3,4.6-0.6,6.8c-0.7,4.6-2,9.1-3.8,13.4c-1.7,4-3.9,8-6.6,11.5c-2.6,3.4-6,6.1-10.4,6.7c-9.4,1.4-18.1-4.9-26.5-8
				c-4.7-1.7-9.5-2.2-14.4-2.8c-4.2-0.5-8.8-1.3-12.1-4.2c0.1,1,0.3,2,0.4,3c6.8-12,18.8-20.6,32.3-23.7c3.8-0.9,7.7-1.2,11.6-1.2
				C399.2,688.8,399.2,683.8,396,683.7L396,683.7z"/>
		</g>
	</g>
	<g>
		<path class="st1" d="M268.7,707.7c-4.4,5.2-11.4,7.8-18.2,7.8S237,713.2,231,710c-1.9,4,0.2,9,3.7,11.8s8,3.8,12.3,4.8
			c4.3,1,8.9,1.9,12.9,0.1c2.1-0.9,3.7-2.5,5.4-4.1c3.8-3.7,7.9-8,8-13.3c0-0.6-0.1-1.4-0.6-1.8s-1.5,0-1.4,0.6"/>
		<g>
			<path class="st1" d="M266.9,706c-3.8,4.5-9.5,6.8-15.3,7c-6.8,0.3-13.4-2-19.4-5.2c-1.1-0.6-2.9-0.4-3.4,0.9
				c-2.1,4.8-0.6,10.1,3,13.8c3.8,3.9,9.4,5.2,14.5,6.4c5.6,1.3,11.7,2.2,16.7-1.2c2.2-1.5,4.1-3.5,6-5.4c1.8-1.8,3.5-3.8,4.8-6.1
				c1.3-2.4,2.5-5.6,1.9-8.3c-0.3-1.7-1.7-3.1-3.5-3.1c-1.9,0-3.3,1.4-3.3,3.3c-0.1,3.2,4.9,3.2,5,0c0-0.1,0-0.2,0-0.2
				c-0.1,0.4-0.2,0.8-0.3,1.3c0,0,0,0.1-0.1,0.1c-0.4,0.2-0.7,0.4-1.1,0.6c-0.7,0.3-1.5-1.8-1.6-0.4c0,0.4,0,0.7-0.1,1
				c-0.1,0.8-0.4,1.5-0.7,2.3c-0.7,1.6-1.8,3-2.9,4.3c-1.3,1.5-2.6,2.8-4,4.1c-1.3,1.3-2.8,2.6-4.5,3.3c-3.6,1.5-7.9,0.3-11.5-0.5
				c-3.7-0.8-7.7-1.7-10.8-4.2c-2.3-1.9-4.5-5.5-3.1-8.6c-1.1,0.3-2.3,0.6-3.4,0.9c6.8,3.6,14.5,6.3,22.3,5.8
				c6.9-0.4,13.9-3.1,18.4-8.5c0.9-1,1-2.5,0-3.5C269.5,705.1,267.8,704.9,266.9,706L266.9,706z"/>
		</g>
	</g>
	<g>
		<path class="st1" d="M598.8,746.5c-3.4-7.3-7-14.6-8.7-22.5l1-2.9c-5.8,4.7-11,10.1-15.5,16c-5.3,7.1-9.6,16.9-4.8,24.3
			c4.5,7,14.5,7.8,20.7,13.4c2.8,2.4,4.7,5.7,7.3,8.3L598.8,746.5L598.8,746.5z"/>
		<g>
			<path class="st1" d="M601,745.3c-3.3-7.1-6.8-14.2-8.5-21.8c0,0.4,0,0.9,0,1.3c0.3-1,0.7-2,1-2.9c0.4-1-0.2-2.3-1.2-2.8
				c-1-0.6-2.2-0.3-3,0.4c-5.1,4.2-9.7,8.8-13.8,13.9c-3.8,4.7-7.2,9.9-8.6,15.8c-1.4,5.7-0.5,11.6,3.6,16c3.4,3.8,8.4,5.5,12.9,7.7
				c2.4,1.1,4.8,2.3,6.7,4.2c2.6,2.4,4.5,5.5,7,8c1.5,1.5,4.3,0.4,4.3-1.8c0-10.7,0-21.4,0-32.1c0-1.5,0-3,0-4.6c0-3.2-5-3.2-5,0
				c0,10.7,0,21.4,0,32.1c0,1.5,0,3,0,4.6c1.4-0.6,2.8-1.2,4.3-1.8c-2.1-2.1-3.8-4.6-5.8-6.8c-1.7-1.9-3.8-3.4-6-4.7
				c-4.1-2.3-8.7-3.7-12.6-6.4c-9.4-6.6-3.3-18.8,2.1-25.8c4.2-5.5,9.2-10.5,14.5-14.8c-1.4-0.8-2.8-1.6-4.2-2.4
				c-0.3,1-0.8,1.9-1,2.9c-0.3,1.3,0.4,3,0.7,4.3c0.4,1.4,0.8,2.8,1.3,4.2c1.9,5.5,4.5,10.7,6.9,15.9c0.6,1.2,2.3,1.5,3.4,0.9
				C601.3,748,601.5,746.5,601,745.3z"/>
		</g>
	</g>
	<g>
		<path class="st1" d="M512.9,722.2c-4.3-2.3-8.5-4.5-12.8-6.8c-2.8-1.5-6-3-9-2.2c-3.9,1.1-5.8,6-4.8,10s4,7.1,7.2,9.6
			c8,6.5,17.7,10.7,27.9,12.1c0.9,0.1,1.8,0.2,2.6-0.3c0.7-0.4,1-1.2,1.3-2c3.2-9.6-2.5-21.3-12.2-24.6"/>
		<g>
			<path class="st1" d="M514.2,720c-4.5-2.4-9-4.9-13.6-7.2c-3.9-2-8.8-3.6-12.7-0.8c-3.2,2.3-4.7,6.4-4.3,10.2
				c0.5,4.4,3.2,8.1,6.4,10.9c6.6,6,14.9,10.3,23.5,12.7c2.2,0.6,4.4,1.1,6.6,1.4c2.5,0.4,4.9,0.5,6.5-1.8c2.1-2.9,2.3-7.6,1.8-11
				c-1.1-8.5-6.6-16-14.7-18.9c-1.3-0.5-2.7,0.5-3.1,1.8c-0.4,1.4,0.5,2.6,1.7,3.1c5.2,1.9,9.1,6.6,10.6,11.9c0.7,2.6,0.9,5.4,0.3,8
				c-0.2,0.7-0.4,1.3-0.6,2c0,0-0.2,0.3-0.2,0.3c0.1-0.1,0.3-0.1,0.1-0.2c-0.3,0-0.6,0-0.9-0.1c-1.8-0.2-3.7-0.6-5.4-1.1
				c-7.2-1.8-14.1-5.1-20-9.6c-4.1-3.1-10.5-9.2-6.5-14.7c2.2-3,6.2-1.2,9,0.3c4.3,2.3,8.7,4.6,13,6.9
				C514.5,725.9,517,721.6,514.2,720L514.2,720z"/>
		</g>
	</g>
	<g>
		<path class="st1" d="M458.9,746.3c-6.4-1.9-13.9,1.4-16.9,7.4c4.3,1.7,8.6,3.5,13,5.2c1.7,0.7,3.4,1.3,5.2,1
			c3.9-0.8,5.2-5.8,4.8-9.8c-0.3-3.2-1.2-6.4-2.5-9.3"/>
		<g>
			<path class="st1" d="M459.6,743.9c-7.5-2.1-16.1,1.5-19.7,8.5c-0.8,1.6-0.1,3,1.5,3.7c4.2,1.7,8.4,3.4,12.6,5
				c3.6,1.4,7.6,2.2,10.6-0.8c2.2-2.2,3-5.6,3-8.7c0-4.1-1.3-8.3-3-12c-0.6-1.2-2.3-1.5-3.4-0.9c-1.3,0.7-1.5,2.2-0.9,3.4
				c1.3,2.8,2.2,6.1,2.3,9.2c0,2.1-0.4,4.4-1.8,5.7c-0.4,0.4-1.3,0.7-2.4,0.5c-1.8-0.3-3.6-1.2-5.3-1.9c-3.5-1.4-7-2.8-10.5-4.2
				c0.5,1.2,1,2.5,1.5,3.7c2.6-5.1,8.7-7.8,14-6.2C461.4,749.6,462.7,744.7,459.6,743.9L459.6,743.9z"/>
		</g>
	</g>
	<g>
		<path class="st1" d="M315.1,756.1c-5.4,3.1-10.1,7.2-13.9,12.1c-2.3,3-4.3,6.6-3.8,10.4c0.6,4.2,4.7,7.5,8.9,7.2
			c4.3-0.3,7.8-4,9.1-8.1s0.9-8.6,0.1-12.8c-0.5-2.9-2.7-6.6-5.4-5.3"/>
		<g>
			<path class="st1" d="M313.8,754c-5.4,3.1-10.2,7.2-14,12c-3.7,4.7-7.1,11.3-3.3,17.1c3.2,4.9,9.6,6.7,14.8,3.8
				c5.5-3.1,7.6-9.5,7.5-15.5c-0.1-3.4-0.4-7.2-1.9-10.3c-1.3-2.7-4.2-5.2-7.4-3.9c-1.2,0.5-2.1,1.7-1.8,3.1
				c0.3,1.2,1.8,2.3,3.1,1.8c0.2-0.1,0.4-0.2,0.6-0.2c-0.1,0-0.2,0-0.3,0c0.2,0.1,0.3,0.1,0.4,0.3c0.5,0.6,0.9,1.2,1.1,1.9
				c0.9,2.2,1,4.8,1.1,7.2c0.1,4.2-0.9,8.9-4.7,11.2c-3,1.9-6.9,0.8-8.6-2.4c-2.1-3.8,1.2-8.4,3.6-11.3c3.5-4.2,7.6-7.7,12.4-10.4
				C319.1,756.7,316.6,752.3,313.8,754L313.8,754z"/>
		</g>
	</g>
	<g>
		<path class="st1" d="M70,728c-3.6-0.9-7.4-1.5-10.9-0.5s-6.6,4.3-6.4,8c0.3,5.3,6.4,7.9,11.5,9.2c3.3,0.8,6.8,1.6,10.1,1
			c3.4-0.6,6.7-2.8,7.6-6.1c0.9-3.3-0.9-6.9-3.5-9.1s-5.9-3.4-9.2-4.5"/>
		<g>
			<path class="st1" d="M70.7,725.5c-6.3-1.6-13.8-2-18.2,3.6c-1.9,2.4-2.7,5.5-1.8,8.5c0.8,2.5,2.5,4.5,4.7,6
				c2.2,1.5,4.8,2.5,7.3,3.2c3.2,0.9,6.6,1.7,9.9,1.5c6-0.3,12.5-4.3,12.1-11c-0.2-3.5-2.1-6.7-4.8-8.9c-2.9-2.4-6.5-3.7-10-4.9
				c-1.3-0.4-2.7,0.5-3.1,1.8c-0.4,1.4,0.5,2.6,1.8,3.1c4,1.4,9.1,3,10.7,7.5c1.4,4-2,7-5.7,7.5c-2.6,0.4-5.2-0.2-7.8-0.8
				c-1.9-0.5-3.9-1-5.7-1.8c-2.9-1.4-6-3.8-4.5-7.3c2.3-5.2,9.3-4.2,13.7-3.1C72.4,731.2,73.8,726.3,70.7,725.5L70.7,725.5z"/>
		</g>
	</g>
	<g>
		<path class="st1" d="M139.2,768.4c-3,0.8-3.7,5.3-1.7,7.7c1.9,2.5,5.3,3.3,8.4,3.5c2.8,0.2,6-0.2,7.9-2.3c2.4-2.7,1.4-7.3-1.4-9.5
			c-2.9-2.2-6.9-2.3-10.3-1"/>
		<g>
			<path class="st1" d="M138.5,766c-3.9,1.2-5.5,5.7-4.2,9.4c1.5,4.4,6.1,6.1,10.4,6.6c4.2,0.5,9.1-0.1,11.6-3.9
				c2.3-3.5,1.3-8.2-1.3-11.2c-3.3-3.8-9.2-4.1-13.7-2.6c-1.3,0.4-2.1,1.7-1.8,3.1c0.3,1.2,1.8,2.2,3.1,1.8c0.7-0.2,1.4-0.4,2.2-0.6
				c0.8-0.2-0.2,0,0.2,0c0.2,0,0.4,0,0.6,0c0.4,0,0.8,0,1.3,0c0.2,0,0.4,0,0.6,0c0.5,0-0.6-0.1,0.2,0c0.3,0.1,0.6,0.1,1,0.2
				c0.2,0.1,0.4,0.1,0.6,0.2c0.4,0.2-0.5-0.3,0.2,0.1c0.4,0.2,0.7,0.4,1.1,0.6c0.4,0.3,0.2,0.1,0.1,0c0.1,0.1,0.3,0.2,0.4,0.3
				c0.1,0.1,0.7,0.8,0.4,0.4c0.2,0.3,0.4,0.5,0.5,0.8c0.1,0.2,0.2,0.3,0.2,0.5c-0.2-0.4,0,0,0.1,0.2c0.1,0.3,0.2,0.6,0.2,0.9
				c0,0.2,0.1,0.6,0,0.1c0,0.1,0,0.3,0,0.4c0,0.1,0,0.3,0,0.4c0,0,0,0.7,0,0.3c0-0.4-0.1,0.2-0.1,0.3c-0.1,0.2-0.1,0.4-0.2,0.6
				c0,0.1-0.2,0.4,0,0c-0.1,0.1-0.1,0.2-0.2,0.4c0,0-0.4,0.6-0.1,0.3c0.2-0.3-0.2,0.3-0.2,0.2c-0.1,0.1-0.2,0.2-0.4,0.3
				c0.3-0.3,0,0-0.1,0c-0.2,0.1-0.3,0.2-0.5,0.3c-0.1,0-0.7,0.3-0.4,0.2c0.3-0.1-0.4,0.1-0.4,0.1c-0.1,0-0.3,0.1-0.5,0.1
				c-0.2,0-0.4,0.1-0.6,0.1c-0.1,0-0.6,0.1-0.2,0c-0.8,0.1-1.6,0.1-2.3,0.1c-0.4,0-0.7,0-1.1-0.1c-0.2,0-0.3,0-0.5,0
				c-0.8-0.1,0.3,0-0.2,0c-0.8-0.1-1.5-0.3-2.3-0.5c-0.2-0.1-0.4-0.1-0.6-0.2c-0.1,0-0.6-0.2-0.2-0.1c-0.3-0.2-0.6-0.3-0.9-0.5
				c-0.2-0.1-0.3-0.2-0.5-0.3c0.1,0.1,0.3,0.3-0.1,0c-0.3-0.3-0.6-0.5-0.8-0.8c0.3,0.4,0,0,0-0.1c-0.1-0.2-0.2-0.3-0.3-0.5
				c-0.2-0.3,0.1,0.5,0,0c-0.1-0.2-0.1-0.4-0.1-0.5c0-0.1-0.1-0.2-0.1-0.4c0.1,0.6,0,0.1,0-0.1c0-0.1,0-0.2,0-0.4
				c0-0.3,0.1-0.5,0-0.1c0.1-0.4,0.2-0.7,0.3-1.1c0,0.1-0.2,0.5,0,0.1c0.1-0.1,0.2-0.3,0.3-0.5c-0.2,0.4-0.2,0.2-0.1,0.1
				c0.1-0.1,0.2-0.2,0.4-0.4c-0.6,0.5,0,0.1,0,0c0.1,0,0.2-0.1,0.2-0.1c-0.3,0.1-0.4,0.2-0.1,0.1c1.3-0.4,2.1-1.8,1.8-3.1
				C141.2,766.5,139.8,765.6,138.5,766L138.5,766z"/>
		</g>
	</g>
	<g>
		<path class="st1" d="M174,743c2.9-1.8,5.9-3.6,8.8-5.3c1.4-0.9,2.9-1.8,4.6-1.8c2,0,3.8,1.2,5.4,2.5c4.5,3.6,8.8,7.5,12.7,11.7
			c0.9,1,1.9,2.1,2,3.4c0.4,3-3.4,5-6.4,4.8c-3.1-0.2-6-1.6-9.1-1.3c-1.2,0.1-2.3,0.5-3.5,0.2c-1.1-0.3-1.9-1.2-2.6-2
			c-3.4-3.9-6.8-7.8-10.3-11.7"/>
		<g>
			<path class="st1" d="M175.3,745.2c2.4-1.5,4.9-3,7.3-4.5c1.8-1.1,3.9-2.9,6.1-2c2.1,0.9,4,2.8,5.7,4.2c2,1.7,4,3.5,5.9,5.4
				c0.9,0.8,1.7,1.7,2.6,2.6c0.7,0.8,1.7,1.6,2.1,2.5c0.2,0.4,0.1,0.6,0.1,0.7c0,0.1-0.1,0.2-0.2,0.4c-0.5,0.6-1.1,0.9-1.9,1.1
				c-1.9,0.5-4-0.2-5.9-0.6c-1.3-0.3-2.6-0.5-3.9-0.5c-0.7,0-1.3,0.1-2,0.2c-0.5,0.1-1.3,0.3-1.8,0.2c-0.9-0.2-1.7-1.5-2.2-2.1
				c-1.1-1.2-2.1-2.4-3.2-3.7c-2.1-2.4-4.3-4.9-6.4-7.3c-0.9-1-2.6-0.9-3.5,0c-1,1-0.9,2.5,0,3.5c2.2,2.6,4.5,5.1,6.7,7.7
				c1.1,1.2,2.1,2.4,3.2,3.7c1,1.2,2.1,2.4,3.7,2.9c1.6,0.6,3.1,0.1,4.7,0c1.4-0.1,2.7,0.2,4.1,0.5c2.7,0.6,5.5,1.3,8.3,0.4
				c2.4-0.8,4.7-2.5,5.3-5c0.8-3.3-1.5-5.8-3.6-8c-2.1-2.2-4.3-4.3-6.5-6.3c-2.3-2.1-4.7-4.3-7.4-6c-3.2-2.1-6.5-2-9.8-0.2
				c-3.4,1.9-6.6,4-9.9,6C170,742.5,172.5,746.8,175.3,745.2L175.3,745.2z"/>
		</g>
	</g>
	<g>
		<path class="st1" d="M91.4,786.5c-1.4-1.6-4.5-0.2-4.7,2c-0.2,2.2,1.7,4,3.8,4.6s4.3,0.1,6.4-0.4c0.2-2-0.6-4.1-2.1-5.5"/>
		<g>
			<path class="st1" d="M93.2,784.8c-1.2-1.3-3.3-1.7-5-1.2c-1.8,0.6-3.2,1.9-3.8,3.7c-0.7,2,0.1,4,1.3,5.6c1.1,1.4,2.8,2.4,4.5,2.7
				c2.4,0.5,4.8,0,7.2-0.5c1.1-0.3,1.8-1.3,1.8-2.4c0.2-2.7-0.9-5.4-2.8-7.3c-0.9-0.9-2.6-1-3.5,0c-0.9,1-1,2.5,0,3.5
				c0.2,0.2,0.3,0.3,0.5,0.5c0.2,0.2-0.3-0.4-0.1-0.1c0.1,0.1,0.1,0.2,0.2,0.3c0.1,0.2,0.2,0.4,0.4,0.6c0,0.1,0.1,0.2,0.1,0.3
				c-0.1-0.2-0.2-0.5,0-0.1c0.2,0.4,0.2,0.9,0.3,1.3c0-0.1-0.1-0.5,0-0.2c0,0.1,0,0.2,0,0.3c0,0.3,0,0.5,0,0.8
				c0.6-0.8,1.2-1.6,1.8-2.4c-0.5,0.1-1,0.2-1.5,0.3c-0.2,0-0.4,0.1-0.7,0.1c-0.2,0-0.8,0.2-0.2,0c-0.4,0.1-1.1,0.1-1.5,0.1
				c-0.2,0-0.4,0-0.6,0c-0.3,0-0.2,0,0.1,0c-0.1,0-0.2,0-0.4-0.1c-0.2,0-0.4-0.1-0.7-0.2c-0.3-0.1-0.4-0.3,0.1,0
				c-0.3-0.2-0.7-0.4-1-0.6c-0.4-0.3,0.4,0.3,0.1,0c-0.1-0.1-0.3-0.3-0.4-0.4c-0.1-0.1-0.1-0.1-0.2-0.2c0.2,0.3,0.3,0.4,0.1,0.2
				c-0.1-0.1-0.2-0.3-0.2-0.4c-0.3-0.5,0.1,0.5,0,0c0-0.2-0.1-0.4-0.1-0.5c0.1,0.4,0.1,0.5,0.1,0.2c0-0.1,0-0.1,0-0.2
				c0-0.6-0.2,0.5,0,0.1c0-0.1,0-0.2,0.1-0.2c0.1-0.2,0.1-0.1-0.1,0.3c0,0,0.2-0.4,0.2-0.4c-0.1,0-0.5,0.5-0.1,0.2
				c0.1-0.1,0.2-0.2,0.3-0.3c-0.5,0.5-0.3,0.2,0,0.1c0.1-0.1,0.2-0.1,0.3-0.2c-0.7,0.4-0.3,0.1-0.1,0.1c0.6-0.2-0.5,0-0.1,0
				c0.1,0,0.2,0,0.3,0c-0.5-0.1-0.6-0.1-0.3,0c0.1,0,0.1,0,0.2,0c0.4,0.1-0.6-0.3-0.1,0c0.3,0.2-0.5-0.5-0.1,0c0.9,1,2.6,1,3.5,0
				C94.1,787.3,94.2,785.8,93.2,784.8L93.2,784.8z"/>
		</g>
	</g>
	<g>
		<path class="st1" d="M223,812c-0.7-1.5,0.3-3.4,1.8-4.3c1.5-0.8,3.2-0.9,4.9-0.9c1,0,2,0.1,2.8,0.7c2.2,1.7-0.3,5.5-3.1,5.8
			s-5.6-1-8.4-0.8"/>
		<g>
			<path class="st1" d="M225.4,811.3c0-0.1-0.1-0.2-0.1-0.3c-0.1-0.2,0.1-0.3,0,0.2c0-0.1,0-0.7,0-0.3c-0.1,0.4,0.1-0.2,0.1-0.3
				c0.1-0.5,0,0.2-0.1,0.2c0,0,0.2-0.3,0.2-0.4c0,0,0.1-0.2,0.1-0.2c0,0.3-0.3,0.3-0.1,0.1c0.1-0.1,0.4-0.3,0.5-0.5
				c0,0-0.4,0.3-0.2,0.2c0.1,0,0.2-0.1,0.3-0.2c0,0,0.2-0.2,0.3-0.1c-0.3,0.1-0.3,0.1-0.2,0.1c0.1,0,0.1,0,0.2-0.1
				c0.2-0.1,0.5-0.2,0.7-0.2c0.1,0,0.2,0,0.3-0.1c0.5-0.1,0,0-0.1,0c0.5-0.1,1.1-0.1,1.6-0.1c0.4,0,0.9,0,1.3,0c0.1,0,0.3,0,0.4,0
				c-0.3-0.2-0.4-0.1-0.1,0c0.1,0,0.2,0.1,0.4,0.1c0.4,0.1-0.1,0-0.1-0.1c0,0,0.3,0.1,0.3,0.2c0,0-0.4-0.4-0.2-0.1
				c0,0,0.1,0.2,0.2,0.2s-0.4-0.5-0.2-0.3c0.3,0.4-0.2-0.4,0-0.1c0,0.1,0,0.2,0.1,0.2c-0.1-0.1-0.1-0.7-0.1-0.3c0,0.5,0.1-0.5,0-0.1
				c0,0.2-0.1,0.3-0.1,0.5c-0.1,0.4,0.3-0.5,0-0.1c-0.1,0.1-0.3,0.4-0.3,0.5c0,0,0.4-0.4,0.2-0.2c-0.1,0.1-0.1,0.1-0.2,0.2
				c-0.1,0.1-0.2,0.2-0.4,0.3c-0.1,0-0.2,0.1-0.2,0.2c0,0,0.5-0.3,0.2-0.1c-0.2,0.1-0.3,0.2-0.5,0.3c-0.1,0-0.2,0.1-0.2,0.1
				c0,0,0.5-0.2,0.3-0.1c-0.1,0-0.4,0.1-0.5,0.2c-0.2,0.1,0.3,0,0.3,0c-0.1,0-0.3,0-0.4,0c-0.3,0-0.6,0-0.8,0c-0.3,0-0.6,0-0.9-0.1
				c-0.4,0,0.4,0.1,0.1,0c-0.2,0-0.3-0.1-0.5-0.1c-0.6-0.1-1.1-0.2-1.7-0.3c-1.3-0.2-2.7-0.5-4-0.3c-1.3,0.1-2.6,1.1-2.5,2.5
				c0.1,1.3,1.1,2.6,2.5,2.5c0.6,0,1.2,0,1.8,0c0.7,0-0.5-0.1,0.1,0c0.1,0,0.3,0,0.4,0.1c0.3,0.1,0.7,0.1,1,0.2
				c1.4,0.3,2.9,0.6,4.3,0.5c2.6-0.1,4.9-1.4,6.2-3.6c1.4-2.4,1.1-5.4-1.4-7c-1.3-0.8-2.9-0.9-4.3-0.9c-1.4,0-2.8,0.1-4.1,0.5
				c-1.6,0.5-3,1.5-4,3c-0.9,1.4-1.2,3.3-0.6,4.8c0.5,1.2,1.7,2.2,3.1,1.8C224.9,814,225.9,812.6,225.4,811.3L225.4,811.3z"/>
		</g>
	</g>
	<g>
		<path class="st1" d="M369.4,803.2c1.8-2.4,3.7-4.8,5.5-7.3c0.3-0.4,0.6-0.8,1.1-1c1.1-0.5,2.3,0.4,3.2,1.3
			c1.3,1.3,2.8,2.9,2.6,4.8c-0.2,2.1-2.6,3.5-4.7,3.4s-4.1-1.2-5.9-2.4"/>
		<g>
			<path class="st1" d="M371.5,804.5c1.4-1.8,2.8-3.7,4.2-5.5c0.4-0.5,0.7-0.9,1-1.4c0.1-0.1,0.1-0.2,0.2-0.3
				c0.2-0.3-0.1,0.1-0.1,0.1c0-0.2,0.7-0.6,0.2-0.2c-0.1,0-0.5,0.2-0.1,0c-0.2,0-0.3,0-0.5,0c-0.3,0-0.1,0,0,0c-0.1,0-0.5-0.3-0.1,0
				c0.2,0.1,0.3,0.2,0.5,0.3c-0.5-0.3,0.1,0.2,0.3,0.3c0.3,0.3,0.7,0.7,1,1c0.1,0.2,0.3,0.3,0.4,0.5c0.3,0.3,0,0,0,0
				c0.1,0.1,0.1,0.2,0.2,0.3c0.1,0.2,0.2,0.4,0.3,0.6c0.2,0.2,0-0.2-0.1-0.2c0,0.1,0.1,0.3,0.1,0.4c0,0.1,0,0.2,0.1,0.3
				c0.1,0.3-0.1-0.2,0-0.2c0,0,0,0.3,0,0.4c0,0.5,0-0.1,0-0.2c0,0-0.1,0.3-0.1,0.3c0,0.2,0,0.2,0,0c0-0.2,0.1-0.2,0,0
				c0,0-0.2,0.3-0.2,0.3c0,0,0.4-0.4,0.1-0.2c-0.1,0-0.1,0.1-0.2,0.2c-0.1,0.1-0.2,0.2-0.2,0.2c-0.3,0.3,0.1-0.1,0.1-0.1
				c0,0-0.4,0.3-0.5,0.3c-0.5,0.3,0.3-0.1-0.1,0c-0.2,0-0.3,0.1-0.5,0.2c-0.1,0-0.2,0-0.3,0.1c-0.4,0.1,0.2,0,0.2,0c0,0-0.6,0-0.7,0
				c-0.1,0-0.3,0-0.4,0c0.2,0,0.3,0,0,0c-0.5-0.1-1.1-0.3-1.6-0.5c0,0,0.4,0.2,0.1,0c-0.2-0.1-0.3-0.2-0.5-0.2
				c-0.2-0.1-0.5-0.2-0.7-0.3c-0.5-0.3-1.1-0.6-1.6-0.9c-1.1-0.7-2.8-0.3-3.4,0.9c-0.6,1.2-0.3,2.7,0.9,3.4c2.3,1.4,4.9,2.9,7.6,2.7
				c2.8-0.2,5.3-1.7,6.4-4.3c1.1-2.8-0.5-5.6-2.4-7.6c-1-1.1-2.2-2.1-3.6-2.5c-1.7-0.5-3.4,0.1-4.5,1.4c-1.1,1.3-2.1,2.8-3.2,4.1
				c-1,1.3-2,2.6-3,3.9c-0.8,1-0.2,2.8,0.9,3.4C369.4,806.1,370.7,805.6,371.5,804.5L371.5,804.5z"/>
		</g>
	</g>
	<g>
		<path class="st1" d="M391,764.7c-3.6-1-8.2-3.7-6.9-7.2c0.7-2,3.2-2.9,5.2-2.5s3.9,1.6,5.6,2.8c1.3,0.9,2.5,1.8,3.8,2.7
			c0.5,0.3,0.9,0.7,1.1,1.2c0.4,1.1-0.7,2.2-1.6,3c-1.4,1-2.9,2.1-4.6,2c-1.7-0.1-3.3-2.2-2.3-3.6"/>
		<g>
			<path class="st1" d="M391.6,762.3c-0.5-0.2-1.1-0.3-1.6-0.5c0,0-0.4-0.2-0.1,0c0.3,0.1-0.1-0.1-0.2-0.1c-0.3-0.1-0.6-0.3-0.9-0.4
				c-0.5-0.3-0.9-0.5-1.4-0.9c-0.3-0.2,0.2,0.3,0,0c-0.1-0.1-0.2-0.1-0.2-0.2c-0.2-0.2-0.4-0.5-0.6-0.6c-0.2-0.2,0.2,0.3,0,0.1
				c0-0.1-0.1-0.2-0.2-0.3c-0.3-0.5,0,0.3-0.1-0.1c0-0.1-0.1-0.2-0.1-0.3c-0.2-0.5,0,0.2,0,0.2c0,0,0-0.4,0-0.4c0-0.4-0.1,0.2,0,0
				c0.1-0.1,0.3-0.7,0.1-0.2c0.1-0.1,0.1-0.2,0.2-0.3c-0.2,0.4-0.1,0.1,0,0c0.1-0.1,0.2-0.2,0.3-0.3c-0.1,0.1-0.4,0.2,0,0
				c0.1,0,0.2-0.1,0.3-0.2c0.2-0.2-0.3,0.1,0.1,0c0.3-0.1,0.5-0.2,0.8-0.2c-0.5,0.1,0.2,0,0.4,0c0.1,0,0.2,0,0.3,0
				c0.4,0-0.4-0.1,0,0c0.4,0.1,0.8,0.2,1.1,0.3c0,0,0.5,0.2,0.1,0c0.2,0.1,0.3,0.2,0.5,0.2c0.3,0.1,0.5,0.3,0.8,0.4
				c0.6,0.4,1.2,0.8,1.8,1.2c1.3,0.9,2.6,1.9,4,2.8c0.2,0.1,0.3,0.2,0.5,0.3c0.2,0.2,0,0,0,0c0.5,0.4,0.1,0.1,0.1,0
				c0-0.2-0.1-0.4-0.1-0.6c0-0.1,0-0.2,0-0.2c0,0,0.3-0.5,0,0c0-0.1,0.3-0.3-0.1,0.1c-0.1,0.1-0.2,0.2-0.3,0.3
				c-0.1,0.1-0.4,0.4-0.2,0.2c-0.6,0.5-1.3,1-2,1.3c-0.1,0.1-0.3,0.2-0.5,0.2c0.3-0.1-0.1,0-0.2,0c-0.1,0-0.6,0.1-0.3,0.1
				c0.2,0-0.4,0-0.4,0c0.1,0,0.5,0.1,0.1,0c0.2,0,0.3,0.2,0,0c-0.4-0.2-0.1,0,0,0c0,0-0.4-0.5-0.2-0.2c0.2,0.3-0.1-0.1-0.1-0.2
				c0-0.2,0.2,0.4,0,0c0.1,0.4,0,0.3,0,0.1c0,0.2-0.3,0.8,0,0.4c0.7-1.1,0.3-2.8-0.9-3.4c-1.2-0.7-2.7-0.3-3.4,0.9
				c-1.2,1.9-0.6,4.4,1,5.9c1.9,1.7,4.4,1.7,6.6,0.8c0.8-0.4,1.5-0.8,2.2-1.3c1-0.7,2.1-1.5,2.7-2.6c0.6-1,0.8-2.3,0.5-3.5
				c-0.4-1.4-1.5-2.2-2.7-3c-3.3-2.3-6.9-5.7-11.1-5.7c-4.1,0-8,3.4-6.9,7.7c0.9,3.9,5.4,6,8.8,7c1.3,0.4,2.8-0.4,3.1-1.8
				C393.7,764,393,762.7,391.6,762.3L391.6,762.3z"/>
		</g>
	</g>
	<g>
		<path class="st1" d="M511,804.3c-4.5-0.2-9.5-1-12.6-4.2s-3.3-9.7,0.9-11.7c2-0.9,4.3-0.7,6.4-1.4c2.6-1,4.7-3.5,7.4-3.3
			c2.8,0.2,4.3,3.2,5.3,5.8c1,2.8,1.8,5.8,2.5,8.7c0.2,0.9,0.3,1.9,0,2.8c-0.4,0.9-1.3,1.5-2.2,2c-3.2,1.8-6.7,3.1-10.3,4"/>
		<g>
			<path class="st1" d="M511,801.8c-3.8-0.2-8.8-0.7-11.2-3.9c-0.9-1.2-1.3-2.6-1.2-4.2c0-0.2,0-0.4,0-0.5c0,0.3,0-0.1,0-0.1
				c0.1-0.3,0.1-0.5,0.2-0.8c0,0,0.2-0.4,0-0.1c0.1-0.2,0.5-0.8,0.5-0.8c0.1-0.2,0.5-0.5,0.6-0.6c1.9-1.2,4.5-0.7,6.5-1.5
				c1-0.4,2-1,3-1.6c0.8-0.5,1.7-1.2,2.6-1.4c1.5-0.4,2.5,1,3.2,2.5c1.1,2.2,1.7,4.6,2.3,6.9c0.2,0.8,0.4,1.5,0.5,2.3
				c0.1,0.5,0.4,1.3,0.3,1.8c-0.2,0.8-1.6,1.2-2.3,1.6c-2.7,1.4-5.6,2.4-8.6,3.1c-3.1,0.8-1.8,5.6,1.3,4.8c3.4-0.8,6.7-2,9.8-3.6
				c1.2-0.6,2.5-1.3,3.5-2.4c1.4-1.7,1.4-3.7,1-5.8c-0.6-3.2-1.5-6.3-2.7-9.3c-1.1-2.8-2.7-5.5-5.6-6.6c-3-1.1-5.7,0.4-8.2,2
				c-1,0.7-2,1.2-3.3,1.4c-1.5,0.3-3.1,0.3-4.5,0.9c-5.4,2-6.4,8.4-4.2,13.2c2.8,6.1,10.4,7.5,16.3,7.7
				C514.2,806.9,514.2,801.9,511,801.8L511,801.8z"/>
		</g>
	</g>
	<g>
		<path class="st1" d="M199.7,87.8c-5.3,0-10.6-0.1-15.9-0.1c-4.4,0-8.8-0.1-13-1.1c-5.3-1.3-9.9-4.2-14.5-7c-2.4-1.5-4.8-3-7.2-4.5
			c-1.6-1-3.3-2.1-3.6-3.8c-0.6-2.7,2.3-4.9,4.9-6.2c11.1-5.6,23.1-9.5,35.4-11.5c9.1-1.5,19.7-1.4,25.9,5.1
			c2.1,2.2,3.5,5.3,2.6,8.1c-1,3.1-4.4,5.1-5.7,8.1c-0.7,1.7-0.7,3.7-1.8,5.3c-1.9,2.8-6.9,4.1-6.2,7.4"/>
		<g>
			<path class="st1" d="M199.7,85.3c-6.4,0-12.8,0-19.2-0.2c-2.9-0.1-5.8-0.2-8.6-0.9c-2.7-0.6-5.3-1.7-7.8-3
				c-2.6-1.4-5.1-2.9-7.6-4.5c-2.5-1.5-5.2-2.9-7.5-4.7c-0.5-0.4-1.2-0.9-1.2-1.6c0-0.7,0.8-1.5,1.4-1.9c2-1.6,4.6-2.6,6.8-3.6
				c10.2-4.7,21.4-8.1,32.6-9.4c4.7-0.5,9.6-0.7,14.2,0.7c3.7,1.1,8.6,3.8,9.2,8.2c0.3,2.4-1.8,4.1-3.2,5.7c-0.9,1-1.7,2.1-2.3,3.3
				c-0.6,1.4-0.9,2.8-1.3,4.2c-0.6,2-2.7,3-4.4,4.3c-2,1.6-3.1,3.6-2.7,6.2c0.2,1.3,1.9,2.1,3.1,1.8c1.4-0.4,2-1.7,1.8-3.1
				c0,0.1,0.2-0.1,0,0.1c0.4-0.4,0.1-0.3,0.5-0.7c0.6-0.6,1.4-1.1,2.3-1.8c2.2-1.7,3.8-3.5,4.4-6.2c0.3-1.2,0.5-2.3,1.2-3.3
				c0.7-1,1.6-1.9,2.4-2.8c1.9-2.2,3.4-4.6,3.2-7.6c-0.3-5.8-5.4-10.1-10.5-12.2c-4.9-2-10.4-2.3-15.6-1.9
				c-12.3,1-24.5,4.7-35.7,9.6c-2.7,1.2-5.6,2.4-8.1,4c-2.3,1.6-4.5,3.9-4.3,6.9c0.2,3.2,2.8,5.1,5.3,6.6c2.8,1.7,5.6,3.5,8.4,5.2
				c3,1.8,6.1,3.6,9.3,4.9c3.5,1.4,7.1,2.2,10.9,2.4c3.6,0.3,7.3,0.2,11,0.2c4,0,7.9,0.1,11.9,0.1C202.9,90.3,202.9,85.3,199.7,85.3
				L199.7,85.3z"/>
		</g>
	</g>
	<g>
		<path class="st1" d="M423.7,74.9c-16.1,0.4-32-8.3-40-21.7c5.3-4.5,13.4-3.7,20.4-5.2c5.4-1.2,10.2-4,15.3-5.9
			c5.1-1.9,11-3,16.1-0.8c3.5,1.5,6.2,4.5,8.3,7.7c5.9,8.7,8.9,19.3,8.2,29.6c0,0.8-0.1,1.8-0.7,2.4c-1.1,1.3-3.1,0.9-4.8,0.5
			c-7-1.9-14-3.8-21-5.6"/>
		<g>
			<path class="st1" d="M423.7,72.4c-15,0.3-30.1-7.5-37.8-20.5c-0.1,1-0.3,2-0.4,3c2.5-2.1,5.9-2.7,9-3.2c3.5-0.5,7.1-0.7,10.6-1.5
				c7.8-1.9,14.8-7.2,23-7.7c3.7-0.2,7.1,0.8,9.8,3.3c2.7,2.5,4.8,5.7,6.5,9c3.6,6.8,5.4,14.6,5.1,22.3c0,0.6,0,1.1-0.1,1.7
				c0,0.2-0.2,0.9,0,0.6c0.2-0.2-0.1,0-0.3,0c-0.3,0-0.6,0-0.9-0.1c-2.4-0.4-4.7-1.2-7-1.8c-5-1.3-10-2.7-15-4
				c-3.1-0.8-4.4,4-1.3,4.8c4.9,1.3,9.9,2.6,14.8,4c2.3,0.6,4.6,1.3,6.9,1.8c2.1,0.4,4.3,0.5,6.1-0.9c1.9-1.6,2-4.1,2-6.3
				c0-2.1,0-4.3-0.3-6.4c-0.5-4.5-1.5-8.9-3.2-13.1c-3.1-7.7-8.2-16.8-16.8-19.2c-9.3-2.6-17.9,2.8-26.3,5.9
				c-4.3,1.6-8.7,2-13.2,2.6c-4.7,0.6-9.1,1.6-12.9,4.7c-0.8,0.7-0.9,2.1-0.4,3c6.6,11.1,18.2,19.1,30.8,21.8
				c3.7,0.8,7.5,1.2,11.3,1.1C426.9,77.3,427,72.3,423.7,72.4L423.7,72.4z"/>
		</g>
	</g>
	<g>
		<path class="st1" d="M313.2,56.9c-3.8-4.3-9.9-6.5-15.8-6.5s-11.7,1.9-16.9,4.6c-1.6-3.3,0.2-7.5,3.2-9.8c3-2.3,6.9-3.2,10.7-4
			c3.7-0.8,7.8-1.6,11.2-0.1c1.8,0.8,3.2,2.1,4.7,3.4c3.3,3.1,6.9,6.6,7,11c0,0.5-0.1,1.1-0.5,1.5s-1.3,0-1.2-0.5"/>
		<g>
			<path class="st1" d="M314.9,55.2c-4.1-4.6-10.2-6.8-16.2-7.2c-6.8-0.4-13.5,1.9-19.6,4.9c1.1,0.3,2.3,0.6,3.4,0.9
				c-1.4-3,1.6-6.2,4-7.5c1.7-1,3.6-1.5,5.5-2c2.1-0.5,4.3-1,6.4-1.3c2-0.3,4.1-0.3,6,0.5c1.8,0.8,3.2,2.3,4.6,3.6
				c1.4,1.3,2.8,2.7,3.9,4.3c0.5,0.7,0.9,1.5,1.2,2.3c0.2,0.5,0.3,1,0.4,1.5c0,0.2,0,0.3,0,0.5c-0.1,0.7,0.1,0.5,0.5-0.6
				c0.4-0.1,0.8-0.2,1.3-0.3c0.2,0,0.3,0.1,0.5,0.2c0.3,0.3,0.6,0.6,0.9,0.9c0-0.1-0.1-0.1-0.1-0.2c0.1,0.4,0.2,0.8,0.3,1.3
				c0-0.1,0-0.2,0-0.2c-0.1-1.3-1.1-2.5-2.5-2.5c-1.3,0-2.6,1.2-2.5,2.5c0.2,3.2,4.3,4.3,6.1,1.5c1.2-1.9,0.5-4.6-0.2-6.5
				c-1.7-4.2-5.3-7.7-8.7-10.5c-2-1.6-4.2-2.8-6.8-3.2c-2.6-0.4-5.1,0-7.7,0.4c-4.5,0.8-9.3,1.8-13,4.5c-4.2,3.1-6.5,8.4-4.3,13.3
				c0.6,1.3,2.3,1.5,3.4,0.9c9.1-4.6,22-7.1,29.7,1.5C313.6,61.1,317.1,57.6,314.9,55.2L314.9,55.2z"/>
		</g>
	</g>
	<g>
		<path class="st1" d="M525.2,44.9c-3.7,1.9-7.4,3.8-11.1,5.7c-2.4,1.2-5.2,2.5-7.8,1.8c-3.4-0.9-5-5-4.2-8.3s3.5-5.9,6.2-8
			c6.9-5.4,15.4-8.9,24.2-10.1c0.8-0.1,1.6-0.2,2.2,0.2c0.6,0.4,0.9,1,1.1,1.6c2.8,8-2.2,17.8-10.6,20.5"/>
		<g>
			<path class="st1" d="M524,42.7c-3.4,1.7-6.8,3.5-10.2,5.2c-2.1,1-5.4,3.2-7.7,1.6c-1.5-1-2-3.2-1.6-4.8c0.7-2.8,3-4.8,5.1-6.5
				c4.8-3.8,10.5-6.6,16.5-8.3c1.5-0.4,3-0.8,4.6-1.1c0.7-0.1,1.4-0.3,2.1-0.4c0.3,0,0.6-0.1,0.9,0c-0.4,0-0.3-0.5-0.2,0.1
				c0.2,1,0.6,1.9,0.7,2.8c0.1,1.2,0.1,2.4-0.1,3.5c-1,5-4.4,9.5-9.3,11.1c-3,1-1.7,5.9,1.3,4.8c6.1-2.1,10.9-7.2,12.6-13.5
				c0.8-3,0.8-6.3,0-9.3c-0.5-1.9-1.5-3.7-3.4-4.3c-1.9-0.6-4.3,0.1-6.2,0.4c-7.6,1.5-15,4.7-21.2,9.3c-3.1,2.3-6.1,5-7.6,8.7
				c-1.2,3.1-0.9,6.8,1,9.5c2.9,4,7.6,4,11.8,2.3c4.6-2,9-4.5,13.5-6.8C529.4,45.6,526.8,41.2,524,42.7L524,42.7z"/>
		</g>
	</g>
	<g>
		<path class="st1" d="M478.4,24.8c-5.5,1.6-12.1-1.1-14.6-6.1c3.8-1.5,7.5-2.9,11.3-4.3c1.5-0.6,3-1.1,4.5-0.8
			c3.4,0.6,4.5,4.8,4.2,8.1c-0.3,2.7-1,5.3-2.2,7.8"/>
		<g>
			<path class="st1" d="M477.7,22.4c-4.4,1.2-9.6-0.8-11.8-5c-0.5,1.2-1,2.5-1.5,3.7c3-1.1,5.9-2.3,8.9-3.4c1.5-0.6,2.9-1.2,4.4-1.6
				c0.5-0.1,0.9-0.2,1.4-0.1c0.1,0,0.7,0.3,0.3,0.1c0.2,0.1,0.4,0.2,0.6,0.4c-0.4-0.3,0.1,0.2,0.2,0.2c0.4,0.4-0.1-0.3,0.2,0.2
				c0.1,0.2,0.2,0.4,0.4,0.6c0.3,0.6-0.1-0.4,0.1,0.3c0.3,1.2,0.4,1.4,0.4,2.6c0,2.6-0.8,5.4-1.9,7.7c-0.6,1.2-0.3,2.7,0.9,3.4
				c1.1,0.6,2.8,0.3,3.4-0.9c1.5-3.2,2.6-6.7,2.6-10.2c0-2.7-0.8-5.7-2.9-7.6c-1.2-1.1-2.6-1.7-4.2-1.8c-1.9-0.2-3.8,0.6-5.6,1.3
				c-3.5,1.4-7,2.7-10.5,4.1c-1.5,0.6-2.3,2.1-1.5,3.7c3.2,6.1,10.9,9.1,17.5,7.3C482.1,26.4,480.8,21.6,477.7,22.4L477.7,22.4z"/>
		</g>
	</g>
	<g>
		<path class="st1" d="M140.7,40.1c-3.1,0.8-6.4,1.3-9.5,0.4c-3.1-0.9-5.7-3.6-5.5-6.7c0.3-4.4,5.5-6.6,10-7.7
			c2.9-0.7,5.9-1.3,8.8-0.8s5.8,2.3,6.6,5.1c0.8,2.8-0.8,5.8-3,7.6c-2.3,1.9-5.2,2.8-8,3.8"/>
		<g>
			<path class="st1" d="M140,37.7c-3.5,0.9-8.4,1.7-11-1.5c-1.9-2.4-0.2-4.5,2.1-5.7c1.4-0.8,2.9-1.3,4.4-1.7c2.1-0.5,4.2-1,6.4-1.1
				c2.6-0.1,7.1,1.1,6.8,4.6c-0.4,4.4-5.9,6-9.4,7.2c-3,1-1.7,5.8,1.3,4.8c5.2-1.7,11-4.1,12.7-9.9c1.6-5.6-2.8-10.4-8.1-11.4
				c-3.1-0.6-6.3-0.1-9.4,0.6c-2.3,0.5-4.6,1.2-6.8,2.3c-4.4,2.3-7.5,7-5,11.9c3.3,6.4,11.2,6.2,17.2,4.8
				C144.4,41.7,143.1,36.9,140,37.7L140,37.7z"/>
		</g>
	</g>
	<g>
		<path class="st1" d="M231,27.6c2.6,1.5,5.1,3,7.6,4.4c1.2,0.7,2.6,1.5,4,1.5c1.8,0,3.3-1,4.6-2.1c3.9-3,7.6-6.3,11-9.8
			c0.8-0.8,1.6-1.7,1.8-2.9c0.3-2.5-2.9-4.2-5.6-4s-5.2,1.4-7.9,1.1c-1-0.1-2-0.4-3-0.2c-0.9,0.2-1.6,1-2.2,1.7
			c-3,3.2-5.9,6.5-8.9,9.8"/>
		<g>
			<path class="st1" d="M229.7,29.7c2.6,1.5,5.1,3,7.6,4.4c2.4,1.4,5.1,2.4,7.9,1.3c2.5-1,4.7-2.9,6.7-4.6c2.1-1.8,4.2-3.6,6.2-5.5
				c1.9-1.8,4.2-3.8,4.4-6.6c0.2-2.3-1.3-4.2-3.2-5.3c-2.2-1.3-4.6-1.3-7.1-0.9c-1.2,0.2-2.5,0.6-3.7,0.8c-1.4,0.2-2.6-0.2-3.9-0.2
				c-3.3-0.1-5.2,2.7-7.2,4.8c-2.3,2.5-4.5,4.9-6.8,7.4c-2.2,2.4,1.4,5.9,3.5,3.5c3.1-3.4,6.1-7.1,9.4-10.3c0.5-0.5,0.8-0.5,1.5-0.5
				c1.3,0.1,2.4,0.3,3.7,0.2c2-0.2,4.1-1.1,6.2-1c0.6,0,1.1,0.1,1.6,0.4c0.2,0.1,0.6,0.3,0.7,0.4c0.1,0.1,0.3,0.4,0.3,0.3
				c0.1,0.3-0.2,0.6-0.5,1c-0.7,0.8-1.5,1.6-2.3,2.4c-3.1,3-6.4,6.2-10.1,8.5c-0.7,0.4-1.4,0.9-2.3,0.8c-1.1-0.1-2.1-0.9-3-1.4
				c-2.4-1.4-4.8-2.8-7.2-4.2C229.4,23.8,226.9,28.1,229.7,29.7L229.7,29.7z"/>
		</g>
	</g>
	<g>
		<path class="st1" d="M419.3,9.5c-3.2,0.8-7.1,3.1-6,6c0.6,1.6,2.8,2.4,4.5,2.1s3.4-1.3,4.8-2.4c1.1-0.8,2.2-1.5,3.3-2.3
			c0.4-0.3,0.8-0.6,1-1c0.4-0.9-0.6-1.9-1.4-2.5c-1.2-0.9-2.5-1.8-4-1.7s-2.9,1.8-2,3"/>
		<g>
			<path class="st1" d="M418.7,7c-2.8,0.8-6.1,2.3-7.4,5c-0.8,1.6-0.8,3.6,0.2,5.2c0.9,1.5,2.6,2.5,4.3,2.8c4,0.6,7.1-1.9,10.2-4
				c0.8-0.5,1.6-1,2.3-1.7c1-0.9,1.5-2.3,1.2-3.7c-0.5-1.9-2.3-3.2-3.9-4.2c-1.9-1.1-4.4-1.6-6.4-0.4c-2,1.2-3.1,3.9-1.7,6
				c0.7,1.1,2.2,1.7,3.4,0.9c1.1-0.7,1.7-2.3,0.9-3.4c-0.2-0.4,0,0.1,0,0.2c0,0.1,0,0.6,0,0.2c0,0.1-0.1,0.6,0,0.2
				c0,0-0.2,0.5-0.1,0.2c0.1-0.2,0.3-0.2,0-0.1c-0.3,0.1,0,0.1,0.1-0.1c0.2-0.2-0.2,0.1-0.2,0.1c0-0.2,0.6-0.1,0.2-0.1
				c0,0-0.1,0-0.1,0.1c0.2-0.1,0.2-0.1,0,0c-0.4,0.1,0,0,0.2,0c0.3,0,0,0-0.1,0c0.1,0,0.3,0.1,0.4,0.1c0.1,0,0.3,0.1,0.4,0.1
				c-0.1,0-0.4-0.2,0,0c0.3,0.1,0.5,0.3,0.8,0.5c0.2,0.2,0.5,0.3,0.8,0.5c0.1,0.1,0.4,0.3,0,0c0.1,0.1,0.2,0.2,0.3,0.3
				c0.1,0.1,0.1,0.2,0.2,0.2c0.3,0.2-0.2-0.3,0,0c0.2,0.2-0.1-0.2-0.1-0.3c0-0.4,0.1-0.7,0.3-1c0,0-0.3,0.3-0.1,0.1
				c0.2-0.2-0.1,0.1-0.2,0.1c-0.3,0.2-0.5,0.4-0.8,0.5c-0.6,0.4-1.2,0.9-1.9,1.3c-1,0.7-2.1,1.4-3.2,2c-0.1,0-0.4,0.2,0,0
				c-0.1,0.1-0.2,0.1-0.3,0.1c-0.3,0.1-0.6,0.2-0.9,0.3c-0.1,0-0.2,0.1-0.4,0.1c0.5,0.1,0.3,0,0.1,0c-0.1,0-0.2,0-0.4,0
				c-0.1,0-0.6-0.1-0.2,0c0.4,0.1-0.3-0.1-0.4-0.1c0,0-0.3-0.1-0.4-0.1c0.2,0.2,0.3,0.2,0.1,0c-0.1-0.1-0.2-0.1-0.3-0.2
				c-0.3-0.2,0.1,0.1,0.1,0.1c0,0-0.2-0.2-0.2-0.2c-0.2-0.2,0.2,0.4,0,0c0,0-0.2-0.3-0.2-0.3c0,0.1,0,0.1,0.1,0.1
				c0.1,0.2,0.1,0.2,0,0c0,0,0-0.5,0,0c0,0.4,0,0.1,0-0.1c0-0.1,0-0.4,0,0c0,0.4,0,0.1,0,0c0.2-0.6-0.2,0.3,0.1-0.2
				c0.1-0.1,0.1-0.2,0.2-0.3c0.1-0.2-0.4,0.4,0,0.1c0.2-0.2,0.4-0.4,0.5-0.5c0-0.1,0.1-0.1,0.2-0.2c-0.2,0.2-0.3,0.2-0.1,0.1
				c0.1-0.1,0.1-0.1,0.2-0.2c0.2-0.1,0.4-0.3,0.6-0.4c0.2-0.1,0.5-0.3,0.8-0.4c0.1,0,0.2-0.1,0.3-0.1c0.6-0.3-0.5,0.2,0.1-0.1
				c0.5-0.2,1-0.4,1.6-0.5c1.3-0.3,2.2-1.8,1.8-3.1C421.3,7.5,420,6.7,418.7,7L418.7,7z"/>
		</g>
	</g>
	<g>
		<path class="st1" d="M-6.9,80.2v23.7c0.7,0.3,1.3,0.7,2,1V79.4C-5.6,79.7-6.3,79.9-6.9,80.2z"/>
		<g>
			<path class="st1" d="M-9.4,80.2c0,6.9,0,13.8,0,20.8c0,1,0,2,0,2.9c0,0.8,0.5,1.8,1.2,2.2c0.7,0.3,1.3,0.7,2,1
				c1.7,0.8,3.8-0.2,3.8-2.2c0-7.4,0-14.8,0-22.2c0-1.1,0-2.1,0-3.2c0-1.5-1.6-3-3.2-2.4c-0.7,0.2-1.3,0.5-2,0.7
				c-1.3,0.5-2.1,1.7-1.8,3.1c0.3,1.2,1.8,2.2,3.1,1.8c0.7-0.2,1.3-0.5,2-0.7c-1.1-0.8-2.1-1.6-3.2-2.4c0,7.4,0,14.8,0,22.2
				c0,1.1,0,2.1,0,3.2c1.2-0.7,2.5-1.4,3.8-2.2c-0.7-0.3-1.4-0.7-2-1c0.4,0.7,0.8,1.4,1.2,2.2c0-6.9,0-13.8,0-20.8c0-1,0-2,0-2.9
				C-4.4,77-9.4,77-9.4,80.2z"/>
		</g>
	</g>
	<g>
		<path class="st1" d="M42,79.2c-6.2-6.5-16.8-6.6-25.9-5.1c-5.7,0.9-11.3,2.3-16.9,4v28.5c0.6,0.2,1.3,0.4,1.9,0.6
			c4.2,1.1,8.6,1.1,13,1.1c5.3,0,10.6,0.1,15.9,0.1l0.9-0.3c-0.7-3.3,4.4-4.6,6.2-7.4c1-1.6,1-3.5,1.8-5.3c1.3-3,4.7-5,5.7-8.1
			C45.4,84.5,44,81.4,42,79.2z"/>
		<g>
			<path class="st1" d="M43.7,77.4c-5.2-5.3-12.8-6.8-20-6.6c-8.5,0.2-17.1,2.4-25.2,4.9c-1,0.3-1.8,1.3-1.8,2.4
				c0,8.3,0,16.6,0,24.9c0,1.2,0,2.4,0,3.6c0,1.1,0.8,2.1,1.8,2.4c5.4,1.8,11.2,1.8,16.9,1.8c3,0,6,0,8.9,0.1c2.3,0,5,0.5,7.2-0.4
				c1.4-0.5,2-1.6,1.8-3.1c0,0.2,0,0.2,0-0.1c0,0.2,0,0.3,0,0.1c0-0.2,0-0.2,0,0.1c0.1-0.1,0.2-0.3,0.2-0.4
				c-0.3,0.3,0.3-0.2,0.3-0.3c0.2-0.2,0.4-0.4,0.6-0.6c0.8-0.7,2.1-1.5,3.1-2.3c1.2-1.1,2.1-2.4,2.7-4c0.5-1.5,0.6-3.1,1.5-4.5
				c1.8-2.7,4.6-4.5,5.4-7.8C48,83.8,46.2,80.2,43.7,77.4C41.5,75,38,78.6,40.2,81c2,2.1,2.9,4.8,1.1,7.3c-1.9,2.6-4.3,4.4-5.2,7.7
				c-0.2,0.8-0.4,1.6-0.6,2.3c-0.2,0.6-0.4,1-0.7,1.3c-0.8,0.9-1.7,1.5-2.7,2.2c-2.4,1.8-4.2,3.8-3.6,7c0.6-1,1.2-2.1,1.8-3.1
				c-0.8,0.3-0.9,0.2-1.9,0.2c-1.4,0-2.8,0-4.2,0c-2.9,0-5.8,0-8.7-0.1c-5.2,0-10.5,0-15.5-1.6c0.6,0.8,1.2,1.6,1.8,2.4
				c0-8.3,0-16.6,0-24.9c0-1.2,0-2.4,0-3.6c-0.6,0.8-1.2,1.6-1.8,2.4c7.4-2.3,15.3-4.3,23.1-4.7c6.1-0.3,12.8,0.5,17.2,5.1
				C42.4,83.3,46,79.7,43.7,77.4z"/>
		</g>
	</g>
	<g>
		<path class="st1" d="M-2.8,78.7c0,0-0.1,0-0.1,0v27c0,0,0.1,0,0.1,0V78.7z"/>
		<g>
			<path class="st1" d="M-3.5,76.3c0,0-0.1,0-0.1,0c-1,0.3-1.8,1.3-1.8,2.4c0,7.9,0,15.8,0,23.7c0,1.1,0,2.2,0,3.4
				c0,1.2,0.8,2,1.8,2.4c0,0,0.1,0,0.1,0c1.5,0.6,3.2-0.9,3.2-2.4c0-7.9,0-15.8,0-23.7c0-1.1,0-2.3,0-3.4c0-3.2-5-3.2-5,0
				c0,7.9,0,15.8,0,23.7c0,1.1,0,2.3,0,3.4c1.1-0.8,2.1-1.6,3.2-2.4c0,0-0.1,0-0.1,0c0.6,0.8,1.2,1.6,1.8,2.4c0-7.9,0-15.8,0-23.7
				c0-1.1,0-2.2,0-3.4c-0.6,0.8-1.2,1.6-1.8,2.4c0,0,0.1,0,0.1,0C0.9,80.2-0.4,75.3-3.5,76.3z"/>
		</g>
	</g>
	<g>
		<path class="st1" d="M31,26.9c-2.6-0.7-3.2-4.4-1.5-6.4s4.6-2.7,7.3-2.9c2.5-0.1,5.2,0.1,6.8,1.9c2.1,2.2,1.2,6.1-1.2,7.9
			c-2.5,1.8-6,1.9-9,0.9"/>
		<g>
			<path class="st1" d="M31.7,24.5c0,0-0.1,0-0.2,0c-0.2-0.1-0.2-0.1,0,0C31.6,24.5,31.6,24.5,31.7,24.5c-0.1,0-0.2-0.1-0.3-0.1
				c-0.3-0.2,0.2,0,0.1,0.1c0,0-0.2-0.2-0.2-0.2c-0.3-0.3,0.1,0.1,0.1,0.1c0,0-0.2-0.3-0.2-0.3c-0.2-0.4,0.1-0.1,0,0.1
				c0,0-0.1-0.4-0.1-0.5c0,0,0-0.3-0.1-0.3c0.1,0.1,0,0.6,0,0.2c0-0.2,0-0.5,0-0.7c0-0.3-0.1,0.6,0,0.1c0-0.1,0-0.2,0.1-0.3
				c0-0.1,0.1-0.2,0.1-0.3c0.1-0.5-0.2,0.4,0,0c0.1-0.1,0.2-0.2,0.2-0.4c0.1-0.3-0.4,0.5,0,0c0.2-0.2,0.4-0.4,0.6-0.6
				c0.3-0.3,0.1,0,0,0c0.1-0.1,0.3-0.2,0.4-0.3s0.3-0.2,0.5-0.2c0.1-0.1,0.7-0.3,0.2-0.1c0.6-0.2,1.2-0.4,1.8-0.5
				c0.3-0.1,0.6-0.1,1-0.2c-0.5,0.1-0.1,0,0,0c0.2,0,0.4,0,0.7-0.1c0.6,0,1.3-0.1,1.9-0.1c0.3,0,0.6,0,1,0.1c0.4,0-0.6-0.1,0.1,0
				c0.2,0,0.4,0.1,0.6,0.1c0.3,0.1,0.5,0.1,0.8,0.2c0.4,0.1,0.1,0,0,0c0.2,0.1,0.3,0.1,0.5,0.2s0.3,0.2,0.4,0.3
				c-0.1-0.1-0.4-0.3,0,0c0.1,0.1,0.2,0.2,0.3,0.3c0.4,0.3-0.2-0.3,0.1,0.1c0,0.1,0.1,0.2,0.2,0.3c0.3,0.4,0-0.3,0,0
				c0,0.1,0.3,0.7,0.2,0.8c0,0,0-0.5,0-0.1c0,0.1,0,0.3,0,0.5c0,0.1,0,0.4,0,0.5c0.1-0.1,0.1-0.5,0,0c-0.1,0.3-0.1,0.5-0.2,0.8
				c-0.1,0.4,0,0,0-0.1c-0.1,0.1-0.1,0.3-0.2,0.4c-0.1,0.1-0.6,0.8-0.2,0.4c-0.2,0.2-0.4,0.5-0.6,0.7c-0.3,0.3,0,0,0.1,0
				c-0.2,0.1-0.3,0.2-0.5,0.4c-0.2,0.1-0.3,0.2-0.5,0.3c-0.1,0-0.2,0.1-0.3,0.1c0.2-0.1,0.3-0.1,0.1,0c-0.3,0.1-0.7,0.2-1,0.3
				c-0.2,0-0.3,0.1-0.5,0.1c-0.5,0.1,0.4,0-0.2,0c-0.7,0-1.5,0-2.2,0c0.5,0,0.1,0,0,0c-0.2,0-0.4-0.1-0.7-0.1
				c-0.4-0.1-0.8-0.2-1.3-0.4c-1.2-0.4-2.8,0.5-3.1,1.8c-0.3,1.4,0.4,2.6,1.8,3.1c3.6,1.2,7.9,1.1,11-1.2c3.1-2.3,4.4-6.5,2.8-10
				c-1.7-3.6-6-4.5-9.6-4.4c-3.7,0.2-8.1,1.2-10,4.7c-2,3.5-0.7,8.4,3.4,9.6c1.3,0.4,2.8-0.4,3.1-1.8C33.7,26.2,33,24.9,31.7,24.5
				L31.7,24.5z"/>
		</g>
	</g>
	<g>
		<path class="st1" d="M61.3,48.1c2.5,1.5,5.1,3,7.6,4.5c1.2,0.7,2.6,1.5,4,1.5c1.8,0,3.3-1,4.7-2.1c3.9-3,7.6-6.3,11-9.8
			c0.8-0.8,1.6-1.7,1.8-2.8c0.3-2.5-2.9-4.2-5.6-4c-2.7,0.2-5.2,1.4-7.9,1.1c-1-0.1-2-0.4-3-0.2c-0.9,0.2-1.6,1-2.2,1.7
			c-3,3.2-5.9,6.5-8.9,9.8"/>
		<g>
			<path class="st1" d="M60,50.3c2.5,1.5,5.1,3,7.6,4.5c2.4,1.4,5.1,2.4,7.8,1.3c2.5-1,4.7-2.9,6.7-4.6c2.1-1.8,4.2-3.6,6.2-5.5
				c1.9-1.8,4.2-3.8,4.4-6.6c0.2-2.3-1.3-4.2-3.2-5.3c-2.2-1.3-4.7-1.3-7.1-0.9c-1.2,0.2-2.5,0.6-3.7,0.8c-1.4,0.2-2.6-0.2-3.9-0.2
				c-3.3-0.1-5.2,2.7-7.2,4.8c-2.3,2.5-4.5,4.9-6.8,7.4c-2.2,2.4,1.4,5.9,3.5,3.5c3.1-3.4,6.1-7.1,9.4-10.3c0.5-0.5,0.8-0.5,1.5-0.5
				c1.3,0.1,2.4,0.3,3.7,0.2c2-0.2,4.1-1.1,6.2-1c0.6,0,1.1,0.1,1.6,0.3c0.2,0.1,0.6,0.3,0.7,0.4c0.1,0.1,0.3,0.4,0.3,0.3
				c0.1,0.3-0.2,0.6-0.5,1c-0.7,0.8-1.5,1.6-2.3,2.4c-3.1,3-6.4,6.2-10.1,8.5c-0.7,0.4-1.4,0.9-2.3,0.8c-1.1-0.1-2.1-0.9-3-1.4
				c-2.4-1.4-4.8-2.8-7.2-4.2C59.7,44.3,57.2,48.7,60,50.3L60,50.3z"/>
		</g>
	</g>
</g>
<g id="rock2">
	<g>
		<path class="st3" d="M462.3,496.3c-0.2-0.5-0.9,0.5-0.4,0.8c0.5,0.2,1.1-0.2,1.5-0.7c6.7-7.9,13.3-15.7,20-23.6
			c0.5-0.6,1.1-1.2,1.8-1.4c0.9-0.2,1.8,0.5,2.5,1.1c9.9,8,20,16.2,26.2,27.3c0.8,1.3,1.5,2.9,1.1,4.4c-0.4,1.6-1.9,2.6-3.2,3.4
			c-8.3,5.2-17.1,9.7-26.1,13.4c-0.5,0.2-1,0.4-1.6,0.5c-1.4,0.1-2.5-1-3.5-2c-4.2-4.1-9-7.4-14.3-9.9c-1.8-0.9-3.7-1.6-5.2-3.1
			c-3.6-3.6-1.6-11,3.3-12.4"/>
		<g>
			<path class="st3" d="M464.1,494.5c-2.4-2.9-6.6,1.6-4.1,4.2c2.8,2.9,5.6-1.1,7.2-3c4-4.7,8-9.4,11.9-14.1c2-2.3,4-4.7,6-7
				c0,0,0.5-0.5,0.5-0.6c0,0,0.1-0.1,0.1-0.1c-0.5,0-0.6,0-0.4,0c0,0,1.2,0.8,1.2,0.9c1.1,0.9,2.2,1.8,3.3,2.7
				c4,3.3,8,6.7,11.7,10.5c3.6,3.6,6.9,7.6,9.5,12c0.5,0.9,1.5,2.1,1.5,3.2c0,0.8-0.7,1.3-1.3,1.7c-2.3,1.6-4.8,3-7.2,4.3
				c-5,2.8-10.2,5.4-15.4,7.7c-1.2,0.5-2.5,1.1-3.7,1.6c-0.3,0.1-0.8,0.4-1.1,0.4c-0.4,0-1.1-0.8-1.4-1c-2-1.8-3.9-3.6-6.1-5.2
				c-2.5-1.8-5.1-3.4-7.8-4.8c-2-1-5.2-2-6.3-3.8c-1.5-2.5-0.2-6.7,2.7-7.6c3.1-0.9,1.8-5.7-1.3-4.8c-4.3,1.3-7,5.5-7,10
				c0,2.2,0.7,4.2,2,5.9c1.7,2.1,4.2,3.1,6.6,4.3c5.2,2.5,9.6,5.8,13.8,9.7c1,0.9,2.1,1.8,3.5,2.2c1.6,0.4,3.1-0.1,4.5-0.7
				c2.9-1.2,5.8-2.5,8.7-3.9c5.5-2.6,10.8-5.5,16-8.7c2.4-1.5,5.1-3.1,5.6-6.1c0.6-3-1.3-5.8-2.8-8.2c-6-9.5-14.6-16.8-23.2-23.8
				c-2.6-2.1-5.8-5-9-2.1c-1.3,1.1-2.3,2.6-3.4,3.9c-1.2,1.5-2.5,2.9-3.7,4.4c-2.4,2.8-4.7,5.6-7.1,8.4c-1.2,1.4-2.4,2.8-3.5,4.2
				c-0.6,0.7-1.2,1.4-1.8,2.1c-0.2,0.2-0.4,0.5-0.6,0.8s-0.4,0.5-0.6,0.8c-0.3,0.3-0.3,0.4,0,0.1c0.4,0,0.9,0,1.3,0
				c-0.1,0-0.2,0-0.3-0.1c0.4,0.2,0.7,0.4,1.1,0.6c0,0-0.1-0.1-0.1-0.1c0.2,0.4,0.4,0.7,0.6,1.1c0,0.1,0,0.2,0.1,0.3
				c-0.1,0.4-0.2,0.8-0.3,1.3c-0.2,0.2-0.4,0.3-0.6,0.5c-0.4,0.1-0.8,0.2-1.3,0.3c0,0,0.1,0,0.1,0c-0.6-0.2-1.2-0.5-1.8-0.7
				c0,0,0.1,0.1,0.1,0.1c0.9,1,2.6,0.9,3.5,0C465.1,497,465,495.5,464.1,494.5L464.1,494.5z"/>
		</g>
	</g>
	<g>
		<path class="st3" d="M286.3,562.6c-11.2-8-27.2-5.3-39,1.7c-1.1,0.6-2.1,1.3-2.9,2.3c-1.5,2.1-1,5,0.1,7.3c2.4,5,7.5,8.3,12.8,9.9
			s11,1.5,16.6,1.2c5.1-0.3,10.7-1,14.3-4.6c2.9-3,3.8-7.7,2.3-11.5s-5.4-6.7-9.5-6.9"/>
		<g>
			<path class="st3" d="M287.5,560.5c-7.5-5.2-17-6.1-25.8-4.4c-4.5,0.9-8.9,2.5-13,4.6c-2,1-4.3,2.2-5.8,3.9
				c-1.7,2-2.1,4.5-1.7,7.1c0.7,4.5,4.1,8.3,7.7,10.9c4,2.9,8.8,4.2,13.7,4.8c5,0.6,10.2,0.4,15.1-0.2c4.5-0.5,9-1.7,12.2-5.1
				c3.5-3.6,4.8-9.3,3-13.9c-1.9-5-6.6-8.3-11.9-8.7c-1.4-0.1-2.5,1.2-2.5,2.5c0,1.4,1.1,2.4,2.5,2.5c3,0.2,5.9,2.3,7.1,5
				c1.2,2.9,0.6,6.6-1.5,8.9c-2.3,2.5-5.8,3.3-9,3.8c-4.2,0.5-8.5,0.6-12.6,0.4c-6.9-0.4-15.7-3.2-18.4-10.3
				c-0.5-1.3-0.9-3.2,0.1-4.4c1.1-1.3,3.1-2.1,4.6-2.9c3.3-1.7,6.8-3,10.5-3.8c8-1.8,16.5-1.2,23.3,3.6c1.1,0.8,2.8,0.2,3.4-0.9
				C289.2,562.7,288.6,561.2,287.5,560.5L287.5,560.5z"/>
		</g>
	</g>
	<g>
		<path class="st3" d="M386,516.2c-5.2,5-10.5,10.1-15.7,15.1c-0.8,0.8-1.6,1.5-2,2.5c-1.1,2.6,0.6,5.7,3.1,7
			c2.5,1.3,5.4,1.3,8.2,1.3c7-0.1,14.3-0.2,20.2-3.8c6.2-3.8,9.8-10.6,13.1-17c1.4-2.8,2.9-5.9,2.2-9c-0.7-3.4-3.9-5.8-7.3-6.3
			c-3.4-0.5-6.9,0.7-9.8,2.6c-4.8,3.1-9.5,8.3-15,6.9"/>
		<g>
			<path class="st3" d="M384.3,514.4c-4,3.8-8,7.7-12,11.5c-1.9,1.8-4,3.5-5.5,5.6c-1.4,1.9-1.7,4.4-0.8,6.6
				c1.9,4.8,6.8,6.4,11.6,6.5c4.8,0.1,9.6,0,14.3-0.8c4.7-0.8,9-2.7,12.6-5.8c3.3-2.8,5.8-6.5,7.9-10.3c1.1-2,2.1-4,3.1-6
				c1.2-2.4,2.2-4.8,2.3-7.5c0.2-4.8-3.2-8.8-7.6-10.3c-5.2-1.8-10.8,0.4-15,3.5c-2,1.4-3.9,3-6,4.3c-1.7,1-3.5,1.8-5.5,1.3
				c-3.1-0.7-4.5,4.1-1.3,4.8c4,0.9,7.6-0.5,10.8-2.8c3.2-2.2,6-5,9.8-6.2c3.1-1,7-0.7,9,2.2c2.3,3.3-0.6,7.6-2.1,10.6
				c-3.3,6.5-7.3,13.4-14.6,16c-3.8,1.4-7.9,1.7-11.9,1.8c-2.1,0.1-4.2,0.1-6.3,0c-1.7-0.1-3.7-0.3-5.1-1.3c-1-0.8-2-2.3-1.4-3.6
				c0.5-0.9,1.4-1.7,2.2-2.3c1-1,2-2,3-2.9c4-3.8,8-7.7,12-11.5C390.1,515.7,386.6,512.2,384.3,514.4L384.3,514.4z"/>
		</g>
	</g>
	<g>
		<path class="st3" d="M143.1,555.5c-6.7-1.5-13.9-0.4-19.8,3c-2.4,1.4-5,3.8-4.3,6.5c0.6,2.2,3,3.3,5.2,4
			c9.4,2.9,19.5,3.7,29.2,2.2c1.3-0.2,2.7-0.5,3.8-1.2c2.7-1.9,2.6-6.3,0.6-8.9s-5.4-3.9-8.6-4.8c-5.4-1.5-11.5-2.3-16.2,0.7
			c-0.1-1-0.1-2-0.2-3"/>
		<g>
			<path class="st3" d="M143.7,553.1c-4.1-0.8-8.2-0.9-12.4-0.2c-3.9,0.7-8.1,2.2-11.2,4.6c-3.1,2.4-5.2,6.5-2.7,10.1
				c2.3,3.3,7,4.2,10.6,5.1c8.6,2,17.7,2.4,26.4,1c4-0.7,6.9-3.1,7.3-7.3c0.4-3.8-1.7-7.2-4.7-9.3c-3.4-2.4-7.9-3.6-11.9-4.2
				c-4.6-0.7-9.2-0.4-13.3,2c1.2,0.7,2.5,1.4,3.8,2.2c-0.1-1-0.1-2-0.2-3c-0.1-1.3-1.1-2.5-2.5-2.5c-1.3,0-2.6,1.2-2.5,2.5
				c0.1,1,0.1,2,0.2,3c0.1,1.8,2.1,3.2,3.8,2.2c5.1-3,12-1.5,17.2,0.5c2.2,0.9,4.5,2.3,5.1,4.7c0.2,0.8,0.2,1.8,0,2.5
				c-0.4,1.2-1.5,1.5-2.7,1.8c-3.4,0.7-6.9,0.8-10.4,0.8c-3.5,0-7.1-0.3-10.5-0.9c-3.1-0.5-6.6-1.2-9.5-2.5
				c-0.7-0.3-1.7-0.8-2.1-1.5c-0.5-1,0.4-2,1.1-2.7c2.4-2.3,6.1-3.5,9.3-4.1c3.5-0.7,7.1-0.7,10.5,0c1.3,0.3,2.7-0.4,3.1-1.8
				C145.8,555,145.1,553.4,143.7,553.1L143.7,553.1z"/>
		</g>
	</g>
	<g>
		<path class="st3" d="M44.2,575.2c-2.5,3.6-4.8,9-1.4,11.8c2.7,2.2,6.6,0.7,9.7-0.9c1.9-1,3.8-2,4.9-3.8s0.9-4.5-0.9-5.5
			c-2.9-1.5-7.6,1.8-9.1-1"/>
		<g>
			<path class="st3" d="M42.1,574c-2,3-3.8,6.7-3.3,10.5c0.3,2.1,1.4,3.9,3.2,5c1.9,1.2,4.2,1.3,6.4,1c1.9-0.3,3.7-1.2,5.5-2.1
				c1.8-0.9,3.6-1.9,4.9-3.4c1.3-1.5,2.1-3.4,1.9-5.5c-0.2-2.3-1.5-4.3-3.7-5.1c-1.8-0.7-3.8-0.3-5.6,0c-0.2,0-0.3,0.1-0.5,0.1
				c-0.1,0-0.2,0-0.3,0c-0.3,0-0.2,0,0.2,0c0,0-1,0-1.1,0c-0.5,0,0.5,0.2,0.1,0c-0.2-0.1-0.8-0.3,0,0c-0.2-0.1-0.5-0.4,0.1,0.1
				c-0.3-0.2,0.3,0.5-0.1-0.1c-0.7-1.1-2.3-1.6-3.4-0.9c-1.1,0.7-1.6,2.2-0.9,3.4c1.8,3.1,5.3,2.5,8.3,1.9c0.6-0.1-0.6,0,0,0
				c0.1,0,0.2,0,0.3,0c0.3,0,0.6,0,1,0c0.5,0,0,0.1-0.1,0c0,0,0.3,0.1,0.4,0.1c0.5,0.1-0.1,0-0.1-0.1c0.1-0.1,0.6,0.5,0.3,0.2
				c-0.3-0.4,0.1,0.2,0.1,0.2c-0.1-0.1-0.1-0.2-0.2-0.2c0.1,0.1,0.1,0.2,0.2,0.3c0.2,0.3,0-0.1,0-0.1c0.1,0,0.1,0.5,0.1,0.5
				c0.1,0.5,0-0.1,0-0.1c0.1,0,0,0.5,0,0.5c0,0.6,0.1-0.3,0,0c-0.1,0.2-0.1,0.4-0.2,0.6c-0.1,0.5,0.2-0.2,0,0
				c-0.1,0.1-0.1,0.3-0.2,0.4c0,0.1-0.5,0.6-0.1,0.2c-0.1,0.1-0.2,0.2-0.3,0.3c-0.2,0.3-0.5,0.5-0.8,0.7c0.4-0.3-0.2,0.1-0.2,0.1
				c-0.2,0.1-0.4,0.2-0.6,0.4c-0.7,0.4-1.4,0.8-2.2,1.2c-0.3,0.2-0.7,0.3-1,0.5c-0.1,0.1-0.3,0.1-0.4,0.2c0.5-0.2-0.4,0.2-0.5,0.2
				c-0.7,0.3-1.4,0.4-2.2,0.6c-0.7,0.2,0.5,0-0.2,0c-0.1,0-0.3,0-0.4,0c-0.2,0-0.4,0-0.6,0c-0.6,0,0.5,0.1-0.2,0
				c-0.2,0-0.4-0.1-0.6-0.2c-0.4-0.1,0,0,0,0c-0.2-0.1-0.4-0.2-0.5-0.3c0.4,0.2,0,0-0.1-0.1c-0.1-0.1-0.2-0.2-0.3-0.3
				c-0.4-0.4,0.1,0.3,0,0c0-0.1-0.2-0.3-0.2-0.4c-0.2-0.4,0.1,0.5,0-0.1c0-0.1-0.1-0.3-0.1-0.4c-0.1-0.5,0,0.5,0-0.1
				c0-0.4,0-0.8,0-1.1c0-0.4-0.1,0.6,0,0c0-0.2,0.1-0.5,0.1-0.7c0.1-0.4,0.2-0.8,0.3-1.2c0.1-0.2,0.1-0.3,0.2-0.5
				c0.2-0.5-0.1,0.3,0.1-0.3c0.2-0.4,0.4-0.8,0.6-1.2c0.4-0.8,0.9-1.5,1.3-2.2c0.7-1.1,0.2-2.8-0.9-3.4
				C44.2,572.4,42.9,572.8,42.1,574L42.1,574z"/>
		</g>
	</g>
	<g>
		<path class="st3" d="M550.3,579.9c-3.4-6-13.2-7-14.8-13.7c-1.3-5.2,3.5-9.8,7.7-13.2c7.4-6.1,14.6-13.3,16.4-22.7
			c0.3-1.8,0.5-3.7,1.2-5.5c2.4-6.1,10.3-7.6,16.9-7.1c2.2,0.2,4.5,0.5,6.4,1.7c3.1,1.8,4.7,5.4,5.8,8.9c2.3,7,3.5,14.4,3.5,21.7
			c0,3-0.2,6.2-1.3,9c-1.7,4.3-5.2,7.5-8.5,10.6c-5.7,5.1-11.5,10.4-18.8,12.9c-7.2,2.5-16.2,1.5-21.1-4.3"/>
		<g>
			<path class="st3" d="M552.4,578.7c-2.7-4.5-7.7-6.2-11.7-9.2c-1.5-1.1-2.9-2.6-3-4.6c-0.2-2.7,1.9-5.1,3.7-6.9
				c2.3-2.3,5-4.3,7.4-6.5c2.4-2.2,4.6-4.5,6.6-7c2.1-2.7,3.9-5.6,5.2-8.9c0.5-1.3,1-2.7,1.3-4.1c0.4-1.8,0.5-3.7,1.1-5.5
				c1.8-4.7,7.8-5.7,12.3-5.7c2.8,0,6.2,0.2,8.5,2.1c2.2,1.9,3.2,4.9,4,7.6c2.2,7.2,3.4,14.9,3.1,22.5c-0.2,3.4-1,6.5-3,9.3
				c-1.9,2.7-4.5,4.9-7,7.1c-5.5,4.9-11.4,10.2-18.8,12c-5.8,1.5-12.6,0.5-16.7-4.3c-0.9-1-2.6-0.9-3.5,0c-1,1-0.9,2.5,0,3.5
				c4.3,5,11.4,6.9,17.9,6.2c7.6-0.9,14-5,19.8-9.7c2.9-2.4,5.6-4.8,8.3-7.4c2.7-2.7,5.2-5.6,6.6-9.2c1.5-3.8,1.5-8.2,1.4-12.2
				c-0.2-4.3-0.7-8.6-1.6-12.8c-1.5-7-3.7-16-11.2-18.7c-3.1-1.1-6.8-1.2-10.1-1c-3.2,0.3-6.4,1-9.1,2.6c-2.8,1.6-4.9,4.2-5.8,7.3
				c-0.5,1.8-0.7,3.8-1.1,5.6c-0.4,1.6-1,3.2-1.7,4.7c-3.1,6.3-8.5,11.2-13.8,15.7c-5.1,4.2-10.9,10.4-7.6,17.5
				c2.3,5,8.2,6.7,12,9.8c1,0.8,1.7,1.6,2.3,2.6C549.8,584,554.1,581.5,552.4,578.7L552.4,578.7z"/>
		</g>
	</g>
	<g>
		<path class="st3" d="M476.6,564.1c-5.6-9.7-18.7-14.3-29.1-10.3c-0.6,0.2-1.2,0.5-1.6,0.9c-0.9,0.9-0.9,2.3-0.9,3.5
			c0.2,5,1.2,10,3.1,14.6c0.4,1.1,1,2.2,2,2.7c0.8,0.4,1.7,0.4,2.5,0.4c5.4,0,10.9,0,16.3,0c2,0,4.1,0,5.8-1.1
			c3.9-2.5,2.7-8.4,1.1-12.7"/>
		<g>
			<path class="st3" d="M478.8,562.8c-3.3-5.6-8.7-9.7-14.9-11.7c-3-1-6.2-1.5-9.4-1.3c-3,0.1-6.9,0.6-9.4,2.3
				c-3.7,2.4-2.6,7.8-2.1,11.5c0.6,3.9,1.5,8.1,3.4,11.6c1,1.9,2.7,3,4.9,3.2c2.1,0.2,4.4,0.1,6.5,0.1c4.2,0,8.5,0.2,12.7,0
				c4.1-0.2,7.9-2.2,8.9-6.4c0.8-3.5-0.1-7.2-1.3-10.5c-0.5-1.3-1.7-2.1-3.1-1.8c-1.2,0.3-2.2,1.8-1.8,3.1c0.8,2.3,1.6,4.7,1.4,7.2
				c0,0.7-0.3,1.6-0.7,2.1c-0.6,0.8-1.7,1.2-2.7,1.3c-1.6,0.2-3.3,0.1-4.9,0.1c-1.9,0-3.8,0-5.7,0c-1.7,0-3.5,0-5.2,0c-1,0-2,0-3,0
				c-0.6,0-1.1,0.1-1.6-0.3c-0.8-0.8-1.1-2.6-1.5-3.6c-0.5-1.6-1-3.2-1.3-4.8c-0.3-1.6-0.5-3.1-0.7-4.7c-0.1-0.9-0.5-2.9,0.2-3.7
				c0.6-0.6,2.2-0.8,3-1c1.2-0.3,2.5-0.5,3.7-0.5c2.4-0.1,4.8,0.2,7.1,0.8c5.3,1.5,10,4.9,12.9,9.7
				C476.1,568.1,480.4,565.6,478.8,562.8L478.8,562.8z"/>
		</g>
	</g>
	<g>
		<path class="st3" d="M375,594c-2.9-1-5.4-3.3-6.6-6.1c-0.3-0.7-0.5-1.6,0-2.2c0.4-0.5,1.1-0.6,1.7-0.7c3-0.3,6-0.7,9-1.1
			c2.5-0.3,5.5-0.3,6.7,1.9c1.3,2.3-0.6,5-2.6,6.6c-2.6,2.1-5.7,3.6-8.9,4.4"/>
		<g>
			<path class="st3" d="M375.7,591.6c-0.2-0.1-0.3-0.1-0.5-0.2c0.1,0,0.3,0.2-0.1-0.1c-0.3-0.1-0.5-0.3-0.8-0.4
				c-0.3-0.2-0.5-0.3-0.8-0.5c0,0-0.4-0.3-0.1-0.1c-0.1-0.1-0.3-0.2-0.4-0.3c-1-0.9-1.5-1.5-2.1-2.7c-0.1-0.2-0.2-0.3-0.2-0.5
				c0,0.1,0.1,0.3,0-0.1c0,0,0-0.1,0-0.1c0-0.2,0-0.2,0,0c0.2,0-0.6,1-0.3,0.6c-0.1,0.1-0.2,0.3-0.3,0.4c-0.2,0.1-0.2,0.1-0.1,0
				c0.1,0,0.2,0,0.3-0.1c-0.5,0.1,0,0,0.1,0c0.3,0,0.5-0.1,0.8-0.1c1.7-0.2,3.3-0.4,5-0.6c1.4-0.2,2.9-0.4,4.3-0.5
				c0.6,0,1.2,0,1.8,0c-0.5-0.1,0.2,0.1,0.3,0.1c0.1,0,0.2,0.1,0.3,0.1c0.6,0.2-0.2-0.1,0.1,0c0.2,0.1,0.6,0.5,0.3,0.1
				c0.1,0.1,0.2,0.2,0.3,0.3c-0.2-0.2-0.1-0.2,0,0c-0.1-0.5,0.1,0.6,0.1,0.2c0-0.3,0,0.1,0,0.1c-0.1,0.8,0.1-0.3,0,0.2
				c-0.3,1-0.9,1.8-1.9,2.7c-2.2,2-5.2,3.4-8.2,4.1c-1.3,0.3-2.1,1.8-1.8,3.1c0.4,1.3,1.8,2.1,3.1,1.8c3.8-1,7.7-2.9,10.6-5.6
				c2.9-2.7,4.8-7.6,1.2-10.6c-2.9-2.5-7-1.7-10.5-1.3c-2.1,0.2-4.3,0.5-6.4,0.8c-1.1,0.1-2.2,0.4-3,1.2c-1,1-1.3,2.4-1.1,3.8
				c0.4,2,1.8,4,3.2,5.5c1.5,1.5,3.4,2.7,5.4,3.4c1.3,0.5,2.7-0.5,3.1-1.8C377.8,593.3,377,592,375.7,591.6L375.7,591.6z"/>
		</g>
	</g>
	<g>
		<path class="st3" d="M206,601c-1.5-0.1-2.9-1.5-3-3"/>
		<g>
			<path class="st3" d="M206,598.5c-0.1,0-0.1,0-0.2,0c0.2,0,0.4,0.1,0.7,0.1c-0.3,0-0.5-0.1-0.8-0.2c0.2,0.1,0.4,0.2,0.6,0.2
				c-0.3-0.1-0.5-0.3-0.8-0.5C205.7,598.3,205.9,598.4,206,598.5c-0.2-0.1-0.4-0.3-0.6-0.6c0.1,0.2,0.3,0.3,0.4,0.5
				c-0.2-0.2-0.3-0.5-0.4-0.8c0.1,0.2,0.2,0.4,0.2,0.6c-0.1-0.2-0.2-0.5-0.2-0.8c0,0.2,0.1,0.4,0.1,0.7c0-0.1,0-0.1,0-0.2
				c0-0.3-0.1-0.7-0.2-1c-0.1-0.3-0.3-0.6-0.5-0.8c-0.2-0.2-0.5-0.4-0.8-0.5c-0.3-0.2-0.6-0.2-1-0.2c-0.6,0-1.3,0.2-1.8,0.7
				c-0.4,0.5-0.8,1.1-0.7,1.8c0,0.4,0.1,0.8,0.2,1.2c0.1,0.4,0.3,0.8,0.4,1.1c0.1,0.2,0.2,0.3,0.3,0.5c0.2,0.3,0.5,0.7,0.8,0.9
				s0.6,0.5,0.9,0.8c0.2,0.1,0.3,0.2,0.5,0.3c0.4,0.2,0.7,0.3,1.1,0.5c0.4,0.1,0.8,0.2,1.2,0.2c0.3,0,0.7-0.1,1-0.2
				c0.3-0.1,0.6-0.3,0.8-0.5c0.2-0.2,0.4-0.5,0.5-0.8c0.2-0.3,0.2-0.6,0.2-1c0-0.7-0.2-1.3-0.7-1.8c-0.2-0.1-0.3-0.3-0.5-0.4
				C206.9,598.6,206.4,598.5,206,598.5L206,598.5z"/>
		</g>
	</g>
	<g>
		<path class="st3" d="M205.2,599.3c-6.3-2.1-11.3-7.7-12.6-14.1c6-0.2,11.2-5.5,17.2-5.1c2,0.1,3.8,0.9,5.5,1.9
			c3.6,2.2,6.5,6,6.9,10.2s-1.8,8.8-5.7,10.4c-3.9,1.6-9.2-0.6-10.3-4.7"/>
		<g>
			<path class="st3" d="M205.9,596.9c-5.5-1.9-9.6-6.7-10.9-12.4c-0.8,1-1.6,2.1-2.4,3.2c4.1-0.2,7.6-2.2,11.2-3.8
				c1.5-0.7,3.2-1.3,4.9-1.4c1.9-0.1,3.7,0.6,5.3,1.6c2.9,1.8,5.4,4.9,5.7,8.4c0.3,3-1.1,6.3-3.9,7.6c-2.6,1.2-6.4,0-7.2-2.9
				c-0.9-3.1-5.8-1.8-4.8,1.3c1.3,4.4,5.8,7.3,10.4,7c4.9-0.3,8.7-4,10.1-8.5c3.1-10-7.2-20.9-17.3-19.4c-5.1,0.8-9.2,4.7-14.4,4.9
				c-1.7,0.1-2.8,1.5-2.4,3.2c1.6,7.4,7.3,13.5,14.4,15.9c1.3,0.4,2.7-0.5,3.1-1.8C208,598.7,207.2,597.4,205.9,596.9L205.9,596.9z"
				/>
		</g>
	</g>
	<g>
		<path class="st3" d="M253,638c-0.9-0.6-1.8-1.2-2.7-1.9c-1.4,2.5,0,5.9,2.3,7.5c2.4,1.6,5.4,1.8,8.2,1.5c2.3-0.3,4.9-1.2,5.6-3.4
			c0.7-2.2-1.1-4.6-3.3-5.4c-2.2-0.8-4.6-0.4-7,0"/>
		<g>
			<path class="st3" d="M254.3,635.8c-0.9-0.6-1.8-1.2-2.7-1.9c-1.1-0.7-2.9-0.2-3.4,0.9c-1.6,3.1-0.8,6.7,1.4,9.3
				c2.2,2.6,5.7,3.5,9,3.6c3,0,6.5-0.5,8.7-2.7c2.6-2.5,2.2-6.5-0.1-9.1c-3-3.2-7.6-2.8-11.6-2.1c-1.3,0.2-2.1,1.9-1.8,3.1
				c0.4,1.4,1.7,2,3.1,1.8c1.3-0.2,2.2-0.4,3.6-0.4c0.7,0,0.9,0,1.5,0.2c0.1,0,0.8,0.3,0.4,0.1c0.2,0.1,0.5,0.2,0.7,0.4
				c0,0,0.4,0.3,0.2,0.2c-0.2-0.2,0.1,0.1,0.1,0.1c0.2,0.2,0.3,0.3,0.5,0.5c-0.3-0.3,0.1,0.2,0.2,0.3c0.1,0.2,0,0,0-0.1
				c0,0.1,0.1,0.3,0.1,0.4c0.1,0.5,0-0.3,0,0.2c0,0.4,0,0.1,0,0c0,0.1,0,0.2-0.1,0.3c0,0.1-0.1,0.2-0.1,0.3c0.1-0.2,0-0.2,0-0.1
				c0,0-0.1,0.2-0.2,0.3c0.2-0.4,0-0.1-0.1,0c-0.1,0.1-0.2,0.1-0.2,0.2c0,0,0.3-0.2,0.1-0.1c-0.2,0.1-0.4,0.3-0.6,0.4
				c-0.1,0.1-0.6,0.2-0.2,0.1c-0.2,0.1-0.5,0.2-0.7,0.2c-0.5,0.1-0.9,0.2-1.4,0.3c0.5-0.1-0.1,0-0.3,0c-0.4,0-0.7,0-1,0.1
				c-0.6,0-1.1,0-1.7,0c-0.1,0-0.7-0.1-0.6,0c0.2,0-0.2,0-0.2,0c-0.2,0-0.4-0.1-0.6-0.1c-0.2-0.1-0.5-0.1-0.7-0.2
				c-0.1,0-0.2-0.1-0.4-0.1c0.1,0,0.3,0.1,0,0c-0.3-0.1-0.5-0.3-0.8-0.4c-0.1-0.1-0.2-0.1-0.3-0.2c0,0-0.4-0.3-0.2-0.2
				c0.2,0.2-0.1-0.1-0.1-0.1c-0.1-0.1-0.3-0.3-0.4-0.4c-0.1-0.1-0.1-0.2-0.2-0.3c0.2,0.2,0.1,0.1,0,0c-0.2-0.3-0.3-0.5-0.5-0.8
				c0,0-0.2-0.4-0.1-0.1s-0.1-0.2-0.1-0.2c0-0.1-0.1-0.2-0.1-0.3c0-0.1-0.1-0.7-0.1-0.3c0.1,0.3,0-0.1,0-0.1c0-0.2,0-0.3,0-0.4
				c0-0.1,0-0.2,0-0.3c0-0.3-0.1,0.5,0-0.1c0-0.1,0.1-0.2,0.1-0.3c0.1-0.4-0.3,0.5,0.1-0.1c-1.1,0.3-2.3,0.6-3.4,0.9
				c0.9,0.6,1.8,1.2,2.7,1.9c1.1,0.8,2.8,0.2,3.4-0.9C255.8,638,255.4,636.6,254.3,635.8L254.3,635.8z"/>
		</g>
	</g>
	<g>
		<path class="st3" d="M348,633.9c-1.5-0.2-2.9,1.2-2.9,2.7c1.7-0.7,2.7-2.9,2.1-4.6c-1.5,0.2-3-0.2-4.2-1"/>
		<g>
			<path class="st3" d="M348,631.4c-1.4-0.1-2.8,0.5-3.8,1.5c-1,1-1.6,2.4-1.6,3.8c0,0.8,0.4,1.5,1,2c0.2,0.2,0.5,0.4,0.9,0.5
				c0.4,0.1,0.9,0.1,1.3,0c0.4-0.2,0.8-0.3,1.2-0.6c0.4-0.2,0.7-0.5,1-0.8c0.5-0.5,0.9-1.1,1.2-1.7c0.7-1.5,0.9-3.1,0.4-4.6
				c-0.2-0.6-0.6-1.2-1.1-1.5c-0.2-0.1-0.4-0.2-0.6-0.2c-0.4-0.1-0.9-0.1-1.3,0c0,0-0.1,0-0.1,0c0.2,0,0.4-0.1,0.7-0.1
				c-0.5,0.1-1,0.1-1.6,0c0.2,0,0.4,0.1,0.7,0.1c-0.5-0.1-1-0.2-1.5-0.4c0.2,0.1,0.4,0.2,0.6,0.2c-0.4-0.2-0.7-0.3-1.1-0.6
				c-0.5-0.3-1.3-0.4-1.9-0.2c-0.6,0.2-1.2,0.6-1.5,1.2c-0.3,0.6-0.5,1.3-0.2,1.9c0.2,0.6,0.6,1.1,1.1,1.5c0.8,0.5,1.7,0.9,2.7,1.2
				c0.6,0.1,1.1,0.2,1.7,0.2c0.6,0,1.2-0.1,1.8-0.1c-1-0.6-2-1.2-3.1-1.8c0.1,0.2,0.1,0.4,0.2,0.7c0-0.2-0.1-0.4-0.1-0.7
				c0,0.3,0,0.6,0,1c0-0.2,0.1-0.4,0.1-0.7c0,0.3-0.1,0.7-0.3,1c0.1-0.2,0.2-0.4,0.2-0.6c-0.1,0.3-0.3,0.6-0.5,0.9
				c0.1-0.2,0.3-0.3,0.4-0.5c-0.2,0.2-0.4,0.5-0.7,0.7c0.2-0.1,0.3-0.3,0.5-0.4c-0.2,0.2-0.5,0.3-0.7,0.4c0.2-0.1,0.4-0.2,0.6-0.2
				c0,0,0,0-0.1,0c1,0.8,2.1,1.6,3.2,2.4c0-0.2,0-0.3,0-0.5c0,0.2-0.1,0.4-0.1,0.7c0-0.2,0.1-0.4,0.2-0.6c-0.1,0.2-0.2,0.4-0.2,0.6
				c0.1-0.2,0.2-0.4,0.4-0.6c-0.1,0.2-0.3,0.3-0.4,0.5c0.1-0.2,0.3-0.3,0.5-0.5c-0.2,0.1-0.3,0.3-0.5,0.4c0.2-0.2,0.4-0.3,0.7-0.4
				c-0.2,0.1-0.4,0.2-0.6,0.2c0.2-0.1,0.4-0.1,0.6-0.2c-0.2,0-0.4,0.1-0.7,0.1c0.2,0,0.4,0,0.5,0c0.6,0,1.4-0.3,1.8-0.7
				c0.4-0.4,0.8-1.2,0.7-1.8c0-0.7-0.2-1.3-0.7-1.8C349.3,631.7,348.7,631.5,348,631.4L348,631.4z"/>
		</g>
	</g>
	<g>
		<path class="st3" d="M504,639.1c-0.7-1.3-2.6-1.3-3.7-0.5s-1.7,2.3-2.2,3.6c-0.3,0.8-0.6,1.7-0.5,2.6c0.3,3.1,5.5,3.1,7,0.4
			c1.6-2.7,0.6-6-0.5-8.9c-0.6-1.6-1.3-3.2-2.8-4c-1.5-0.8-3.8,0.1-3.8,1.8"/>
		<g>
			<path class="st3" d="M506.1,637.9c-1.1-2-3.6-2.7-5.7-2c-2.2,0.7-3.5,2.6-4.4,4.7c-0.9,2-1.5,4.2-0.5,6.3
				c0.7,1.4,2.1,2.4,3.6,2.7c1.7,0.3,3.4,0.1,4.9-0.6c1.7-0.8,2.8-2.4,3.3-4.1c0.7-2,0.5-4.2,0-6.3c-0.5-1.8-1.1-3.8-2-5.4
				c-1.1-2-3.2-3.8-5.6-3.6c-2.5,0.2-4.7,1.9-4.8,4.5c0,1.3,1.2,2.6,2.5,2.5c1.4-0.1,2.5-1.1,2.5-2.5c0-0.5-0.1,0.5,0,0.2
				c0.1-0.3-0.3,0.5-0.1,0.2c-0.4,0.6-0.3,0.3-0.1,0.2c0.4-0.3-0.4,0.2-0.1,0.1c0,0,0.3-0.1,0.3-0.2c-0.1,0.2-0.5,0.2-0.2,0.1
				c0.1,0,0.3,0,0.4-0.1c0.2,0,0.1,0-0.3,0c0.1,0,0.2,0,0.3,0c0.3,0,0,0.2-0.2,0c0,0,0.2,0.1,0.3,0.1c0.5,0.1-0.4-0.2-0.1,0
				c0.1,0.1,0.3,0.2,0.4,0.3c-0.5-0.4,0.1,0.2,0.2,0.3c0.3,0.3-0.3-0.5,0,0c0.1,0.2,0.2,0.3,0.3,0.5c0.2,0.3,0.3,0.6,0.4,0.9
				c0,0.1,0.2,0.4,0,0c0,0.1,0.1,0.2,0.1,0.4c0.3,0.7,0.5,1.3,0.7,2c0.2,0.7,0.4,1.4,0.5,2.1c0,0.1,0,0.5,0,0c0,0.1,0,0.3,0,0.4
				c0,0.4,0,0.8,0,1.2c0,0.2,0.1,0.3,0-0.1c0,0.1,0,0.3-0.1,0.4c0,0.2-0.1,0.4-0.2,0.6c0,0.1-0.2,0.4,0,0c-0.1,0.2-0.4,0.5-0.4,0.8
				c0,0,0.4-0.5,0.1-0.2c-0.1,0.1-0.2,0.2-0.3,0.3c-0.3,0.3,0.4-0.2,0.1-0.1c-0.1,0-0.2,0.1-0.3,0.2c-0.1,0-0.2,0.1-0.2,0.1
				c-0.3,0.2,0.2-0.1,0.2-0.1c-0.2,0-0.4,0.2-0.6,0.2c-0.1,0-0.2,0-0.3,0.1c-0.5,0.1,0.7,0,0.1,0c-0.2,0-0.4,0-0.6,0
				c-0.1,0-0.5,0-0.1,0c0.5,0.1,0,0,0,0c-0.1,0-0.5-0.2-0.5-0.1c0.2-0.1,0.6,0.3,0.2,0c-0.1,0-0.2-0.2-0.3-0.2c0,0,0.6,0.3,0.2,0.2
				c-0.1,0-0.3-0.4,0,0c0.3,0.4,0,0,0,0c-0.1-0.3,0.1,0.2,0.1,0.3c0-0.1-0.2-1-0.1-0.2c0-0.1,0-0.5,0,0c0-0.2,0.1-0.5,0.2-0.7
				c0.1-0.4,0.3-0.8,0.4-1.2c0.1-0.2,0.1-0.3,0.2-0.5c0.2-0.6-0.2,0.5,0.1-0.1c0.2-0.3,0.3-0.6,0.5-0.9c0.1-0.1,0.4-0.4,0,0
				c0.1-0.1,0.3-0.3,0.4-0.4c0.3-0.3-0.1,0.1-0.1,0c0.1-0.1,0.2-0.1,0.3-0.2c-0.1,0-0.2,0.1-0.3,0.1c0,0,0.4-0.1,0.4-0.1
				c0.2,0,0.1,0-0.3,0c0.1,0,0.2,0,0.3,0c0.3,0,0,0.2-0.2,0c0,0,0.4,0.1,0.5,0.1c-0.1,0-0.2-0.1-0.3-0.1c0.2,0.1,0.2,0.1,0,0
				c-0.2-0.1-0.2-0.1,0,0c-0.2-0.3-0.3-0.4-0.1-0.1c0.7,1.1,2.3,1.6,3.4,0.9C506.4,640.5,506.8,639.1,506.1,637.9L506.1,637.9z"/>
		</g>
	</g>
	<g>
		<path class="st3" d="M110,189.9c-4.7-0.1-9.3,0.4-13.9,1.4c-4.3,0.9-9.3,3.2-9.6,7.6c-0.2,2.1,0.9,4.2,2.1,5.9
			c5.3,7.7,14,12.2,22.3,16.4c0.8,0.4,1.7,0.9,2.7,1.1c1.4,0.3,2.9-0.1,4.3-0.6c8.1-3,13.5-12.2,12-20.8s-9.6-15.4-18.3-15.5
			c-0.5,0-1.1,0.1-1.4,0.5s0.4,1.1,0.7,0.7"/>
		<g>
			<path class="st3" d="M110,187.4c-5.4-0.1-11.3,0.4-16.5,2c-4,1.2-8.4,3.7-9.3,8.2c-1.1,5.3,3,10.1,6.5,13.5
				c3.5,3.4,7.6,6.1,11.9,8.5c2.1,1.1,4.2,2.2,6.2,3.3c2.6,1.3,4.9,2.3,7.9,1.7c4.4-0.8,8.5-3.9,11.2-7.4c5.5-7.1,6.4-17.1,1.2-24.6
				c-2.8-4.1-6.9-7.2-11.7-8.8c-2.2-0.7-5.5-1.5-7.7-0.6c-1.6,0.7-2.5,2.4-1.8,4.1c0.7,1.6,2.7,2.5,4.3,1.4c2.7-1.7,0.2-6.1-2.5-4.3
				c-0.1,0-0.1,0.1-0.2,0.1c0.6-0.1,1.3-0.2,1.9-0.2c0.1,0,0.1,0.1,0.2,0.1c0.3,0.3,0.6,0.6,0.9,0.9c0,0.1,0,0.1,0.1,0.1
				c0,0.4,0,0.9,0,1.3c0-0.1,0-0.2,0.1-0.2c-0.2,0.4-0.4,0.7-0.6,1.1c-0.2,0.2-1.2,0.1-0.4,0.2c0.2,0,0.4,0,0.5,0
				c0.4,0,0.8,0,1.2,0.1c0.8,0.1,1.5,0.3,2.2,0.5c1.5,0.4,3,1.1,4.3,2c2.7,1.7,4.9,4.2,6.3,7.1c2.8,5.7,1.2,12.8-2.9,17.5
				c-2,2.3-5.2,4.7-8.4,4.8c-1.8,0.1-3.5-1.2-5-2c-1.7-0.9-3.5-1.8-5.2-2.8c-3.3-1.9-6.5-3.9-9.3-6.4c-1.4-1.2-2.7-2.6-3.8-4
				c-1.1-1.4-2.3-3.1-2.6-4.8c-0.4-3.2,3.5-4.9,6.1-5.7c4.8-1.4,9.9-1.7,14.8-1.7C113.2,192.4,113.2,187.4,110,187.4L110,187.4z"/>
		</g>
	</g>
	<g>
		<path class="st3" d="M106,153.1c-3.6-0.4-7.4,0.9-10,3.5c3.7,0.9,7.9-0.3,10.6-3.1"/>
		<g>
			<path class="st3" d="M106,150.6c-4.3-0.4-8.7,1.2-11.8,4.2c-1.3,1.3-0.7,3.7,1.1,4.2c4.6,1.1,9.7-0.3,13-3.8c0.9-0.9,1-2.6,0-3.5
				c-1-0.9-2.6-1-3.5,0c-0.3,0.3-0.7,0.6-1,0.9c-0.2,0.2,0.4-0.3,0.1-0.1c-0.1,0.1-0.2,0.1-0.3,0.2c-0.2,0.1-0.4,0.3-0.6,0.4
				c-0.4,0.2-0.8,0.4-1.2,0.6c-0.3,0.1,0.5-0.2,0.2-0.1c-0.1,0-0.2,0.1-0.3,0.1c-0.2,0.1-0.4,0.2-0.7,0.2c-0.4,0.1-0.8,0.2-1.2,0.3
				c-0.1,0-0.6,0.1-0.1,0c0.4-0.1,0,0-0.1,0c-0.2,0-0.4,0-0.6,0c-0.4,0-0.9,0-1.4,0c-0.1,0-0.2,0-0.3,0c0.2,0,0.5,0.1,0.1,0
				c-0.2,0-0.5-0.1-0.7-0.1c0.4,1.4,0.7,2.8,1.1,4.2c0.3-0.2,0.7-0.8,1-0.9c-0.3,0.2-0.3,0.2-0.1,0.1c0.1-0.1,0.2-0.1,0.3-0.2
				c0.2-0.1,0.4-0.2,0.6-0.4c0.4-0.2,0.8-0.4,1.2-0.6c0.1-0.1,0.2-0.1,0.3-0.1c-0.3,0.1-0.4,0.2-0.1,0.1c0.2-0.1,0.4-0.1,0.6-0.2
				c0.4-0.1,0.8-0.2,1.2-0.4c0.2-0.1,0.4-0.1,0.7-0.1c0.1,0,0.2,0,0.3-0.1c0.3,0,0.2,0-0.2,0c0,0,1.2-0.1,1.3-0.1
				c0.4,0,0.9,0,1.3,0.1c1.3,0.1,2.6-1.2,2.5-2.5C108.4,151.6,107.4,150.7,106,150.6L106,150.6z"/>
		</g>
	</g>
	<g>
		<path class="st3" d="M232,179c-2.4,3.3-4.3,6.9-5.6,10.7c-0.4,1.2-0.8,2.6-0.2,3.7c1.3,2.8,5.5,1.3,8-0.5c2.7-2,5.6-4.1,6.9-7.2
			s0.4-7.4-2.7-8.6c-3-1.1-6.4,0.9-9.5,0.3"/>
		<g>
			<path class="st3" d="M229.9,177.8c-1.4,1.9-2.6,3.9-3.7,6.1c-1,2.1-2.2,4.4-2.6,6.8c-0.5,2.5,0.3,5.2,2.7,6.4
				c1.9,0.9,4,0.6,5.9-0.1c1.9-0.7,3.5-1.8,5.1-3.1c1.9-1.4,3.6-2.9,4.9-4.9c2.2-3.2,2.8-7.9,0.4-11.3c-1.5-2.1-3.9-3.3-6.5-3.2
				c-1.3,0-2.5,0.3-3.8,0.5c-0.3,0.1-0.5,0.1-0.8,0.1c-0.2,0-0.4,0.1-0.5,0.1c0.2,0,0.2,0-0.1,0c-0.3,0-0.5,0-0.8,0
				c-0.1,0-1-0.1-0.6,0c-1.3-0.2-2.8,0.3-3.1,1.8c-0.3,1.2,0.4,2.9,1.8,3.1c2.1,0.4,4.1,0,6.3-0.4c0.2,0,0.4-0.1,0.5-0.1
				c0.8-0.1-0.2,0,0.2,0c0.4,0,0.8-0.1,1.1-0.1c0,0,0.8,0.1,0.3,0c0.2,0,0.3,0.1,0.5,0.1c0.1,0,0.8,0.4,0.3,0.1
				c0.2,0.1,0.3,0.2,0.5,0.3c0.5,0.3-0.1-0.2,0,0c0.1,0.1,0.2,0.2,0.3,0.3c0.3,0.3,0,0,0-0.1c0.1,0.2,0.2,0.3,0.3,0.5
				c0.1,0.1,0.1,0.2,0.2,0.4c0.3,0.5-0.1-0.5,0.1,0.1c0.1,0.3,0.2,0.6,0.3,1c0.2,0.6,0-0.5,0,0.1c0,0.1,0,0.3,0,0.4c0,0.4,0,0.7,0,1
				c0-0.6,0-0.1,0,0.1c0,0.2-0.1,0.3-0.1,0.5c0,0.1-0.1,0.3-0.1,0.4c0,0.1-0.1,0.3-0.1,0.4c0.1-0.2,0.1-0.2,0,0.1
				c-1.5,2.6-3.9,4.8-6.7,6.4c-0.3,0.2-0.6,0.4-0.9,0.5c-0.1,0-0.7,0.3-0.2,0.1c-0.1,0.1-0.3,0.1-0.4,0.1c-0.3,0.1-0.7,0.2-1,0.3
				c-0.1,0-0.3,0.1-0.4,0.1c0.7-0.1-0.1,0-0.3,0c-0.1,0-0.2,0-0.4,0c0.6,0.1,0.2,0,0.1,0c-0.3-0.1,0.5,0.3,0.1,0
				c-0.4-0.2,0.1,0.1,0.1,0.1c0,0-0.1-0.1-0.1-0.1c-0.2-0.2-0.2-0.2,0.1,0.1c-0.1-0.4-0.1-0.1,0,0c0-0.1-0.1-0.2-0.1-0.2
				c0,0.2,0,0.2,0-0.1c0-0.1,0.1-0.8,0-0.4c0.4-2.1,1.3-3.9,2.3-5.8c1-2,2.2-3.9,3.5-5.7c0.8-1.1,0.2-2.8-0.9-3.4
				C232,176.1,230.7,176.7,229.9,177.8L229.9,177.8z"/>
		</g>
	</g>
	<g>
		<path class="st3" d="M174,226c-2.5-0.4-4.9,2.7-3.8,5c3.3-1.1,6.2-3,8.6-5.5c1-1.1,2-2.4,1.7-3.9s-2.4-2.4-3.2-1.2"/>
		<g>
			<path class="st3" d="M174.7,223.6c-1.3-0.2-2.4-0.1-3.6,0.5c-1,0.5-1.8,1.2-2.4,2.1c-0.5,0.7-0.9,1.5-1.1,2.4
				c-0.2,1.3-0.1,2.5,0.5,3.7c0.4,1,1.9,1.5,2.8,1.1c3.2-1.1,6.2-2.8,8.7-5.1c1.4-1.2,2.6-2.7,3.2-4.4c0.6-1.8,0.2-4-1.3-5.3
				c-0.9-0.7-1.9-1.2-3-1.2c-1.1,0-2.3,0.4-3,1.3c-0.4,0.5-0.7,1.1-0.7,1.8c0,0.6,0.3,1.4,0.7,1.8c0.9,0.8,2.7,1.1,3.5,0
				c0.4-0.5-0.4,0.2-0.1,0c-0.1,0.1-0.6,0.3-0.2,0.1c-0.5,0.1-0.6,0.1-0.3,0.1c0,0,0.1,0,0.1,0c-0.5-0.1-0.6-0.1-0.3,0
				c0.1,0,0.1,0,0.2,0.1c-0.2,0-0.6-0.3-0.2,0c0.4,0.2-0.5-0.4-0.1-0.1c0.4,0.4-0.2-0.5-0.1-0.1c0,0.1,0.1,0.1,0.1,0.2
				c0.1,0.2,0,0.1-0.1-0.3c0,0.1,0,0.1,0.1,0.2c0-0.4-0.1-0.4-0.1-0.2c-0.1,0.6,0.1-0.4,0,0.1c0,0.1-0.1,0.4-0.1,0.5
				c0.1-0.3,0.2-0.4,0.1-0.1c0,0.1-0.1,0.1-0.1,0.2c-0.1,0.2-0.2,0.3-0.3,0.5c-0.3,0.5,0.4-0.4,0,0.1c-0.3,0.3-0.5,0.6-0.8,0.9
				c-0.5,0.5-1.1,1-1.7,1.5c-0.1,0.1-0.2,0.1-0.3,0.2c0.3-0.2,0.3-0.2,0.1-0.1c-0.1,0.1-0.3,0.2-0.4,0.3c-0.3,0.2-0.7,0.5-1,0.7
				c-0.6,0.4-1.3,0.8-2,1.1c-0.2,0.1-0.4,0.2-0.6,0.2c-0.2,0.1-0.1,0.1,0.2-0.1c-0.1,0-0.2,0.1-0.3,0.1c-0.4,0.1-0.8,0.3-1.1,0.4
				c0.9,0.4,1.9,0.8,2.8,1.1c0.3,0.7,0.1,0.3,0.1,0.1c-0.1-0.5,0.1,0,0,0.1c0-0.1,0-0.3,0-0.4c0-0.5-0.1,0.6,0,0.1
				c0-0.1,0.1-0.2,0.1-0.4c0.1-0.4,0.2-0.2-0.1,0.1c0.1-0.1,0.3-0.5,0.4-0.7c-0.1,0.1-0.1,0.2-0.2,0.3c0.1-0.1,0.1-0.1,0.2-0.2
				c0.1-0.1,0.2-0.2,0.3-0.3c0.3-0.3-0.5,0.3-0.1,0.1c0.1-0.1,0.2-0.1,0.3-0.2c0.4-0.2-0.6,0.2-0.1,0.1c0.1,0,0.2-0.1,0.3-0.1
				c0.5-0.1-0.4,0-0.1,0c0.2,0,0.8,0.1-0.1-0.1c0.7,0.1,1.3,0.1,1.9-0.2c0.5-0.3,1-0.9,1.1-1.5C176.7,225.5,176.1,223.8,174.7,223.6
				L174.7,223.6z"/>
		</g>
	</g>
	<g>
		<path class="st3" d="M321,146c-10.8,5.4-19.8,14.2-25.5,24.8c-0.6,1.1-1.1,2.5-0.5,3.5c0.4,0.7,1.3,1.1,2.1,1.3
			c7.8,2.1,16.9-2.1,23.8,2.1c1.4,0.8,2.7,2,4.3,1.9c0.9-0.1,1.7-0.5,2.4-1c4.9-2.9,10.3-6.3,11.7-11.9c1.1-4.6-0.8-9.3-2.7-13.7
			c-0.7-1.6-1.5-3.3-2.8-4.5c-3-2.8-8.2-2.3-11.2-5.2"/>
		<g>
			<path class="st3" d="M319.7,143.8c-7.7,3.9-14.7,9.5-20.1,16.3c-1.4,1.7-2.7,3.5-3.9,5.3c-1.2,1.9-2.5,3.8-3.2,5.9
				c-0.9,2.5,0.2,5.1,2.6,6.2c2,0.9,4.5,1.1,6.7,1.2c4.4,0.1,8.7-0.8,13.1-0.4c1.9,0.2,3.7,0.8,5.3,1.8c2.2,1.4,4.4,2.4,7,1.5
				c2-0.8,3.8-2.1,5.5-3.2c1.8-1.2,3.5-2.5,4.9-4c3.2-3.3,4.9-7.6,4.4-12.2c-0.3-2.9-1.2-5.5-2.3-8.2c-1-2.4-2-5.1-3.9-7
				c-1.7-1.7-3.9-2.6-6.1-3.3c-1.8-0.5-3.9-0.9-5.3-2.2c-2.4-2.1-5.9,1.4-3.5,3.5c2.7,2.5,6.1,2.8,9.4,4.1c1.6,0.7,2.5,1.7,3.3,3.2
				c1,1.9,1.8,3.8,2.5,5.8c1.3,3.7,1.8,7.5-0.5,10.9c-1.8,2.7-4.8,4.6-7.5,6.3c-0.8,0.5-1.5,1-2.4,1.4c-0.8,0.3-1.2,0.1-1.9-0.4
				c-1.7-1-3.4-2-5.3-2.6c-3.8-1-7.7-0.6-11.5-0.4c-2,0.1-3.9,0.3-5.9,0.1c-0.8-0.1-1.7-0.1-2.5-0.3c-0.4-0.1-0.8-0.2-1.1-0.3
				c-0.8-0.2,0.1,0.2-0.1,0.2c0,0,0.8-1.8,0.8-1.9c0.5-0.9,1.1-1.8,1.6-2.7c1-1.5,2-3,3-4.4c5.2-6.8,12-12.3,19.6-16.1
				C325.1,146.7,322.6,142.4,319.7,143.8L319.7,143.8z"/>
		</g>
	</g>
	<g>
		<path class="st3" d="M508.9,178.1c-3.6-3.5-7.6-7.2-12.7-7.4c-4-0.2-7.9,2.1-10.5,5.3s-4.1,6.9-5.4,10.8
			c-1.9,5.5-3.4,11.2-4.6,16.9c4.8,1.8,10-1.1,15.1-1.7c6.5-0.8,13,2.2,19.6,2.3c7.2,0.1,14.3-3.5,18.4-9.4c1.1-1.6,2.1-3.5,1.9-5.4
			c-0.3-5.3-7.8-8.1-7.7-13.3c0-1.2,0.4-2.6-0.4-3.5c-0.7-0.7-1.8-0.7-2.8-0.6c-4.2,0.4-8.5,1.1-12.6,2.1c-0.5,1-0.1,2.4,0.8,2.9"/>
		<g>
			<path class="st3" d="M510.6,176.3c-2.6-2.6-5.5-5.2-8.9-6.8c-3.7-1.7-7.7-1.8-11.4-0.2c-7.8,3.3-10.9,11.7-13.3,19.1
				c-1.5,4.7-2.8,9.6-3.8,14.4c-0.3,1.4,0.4,2.6,1.8,3.1c4,1.4,8.2,0.2,12.2-0.8c1.9-0.5,3.8-0.9,5.8-0.9c2,0,3.9,0.3,5.8,0.7
				c4.1,0.8,8.3,1.9,12.5,1.8c3.7-0.1,7.4-1.1,10.7-2.8c6-3.1,13.8-10.6,10.4-17.9c-1.2-2.6-3.5-4.4-5.3-6.6
				c-0.7-0.8-1.3-1.7-1.5-2.8c-0.1-0.3,0-0.1,0,0c0-0.2,0-0.4,0-0.6c0-0.4,0-0.8,0.1-1.1c0.1-1.1,0-2.2-0.5-3.2
				c-1.2-2.1-3.5-2.4-5.7-2.2c-2.5,0.3-5,0.6-7.5,1.1c-1.2,0.2-2.3,0.4-3.5,0.7c-1.4,0.3-2.8,0.4-3.5,1.8c-1.1,2.2-0.1,4.8,1.9,6.1
				c2.7,1.8,5.2-2.5,2.5-4.3c0.2,0.1,0.3,0,0.1,0.5c-0.5,0.4-1,0.8-1.5,1.1c3.6-0.8,7.2-1.4,10.8-1.9c0.7-0.1,1.5,0,2.2-0.2
				c0,0,0,0,0,0c0.5,0.2,0.4,0.1-0.2-0.3c0,0-0.2,0.9,0,0.5c-0.4,1.1-0.1,2.9,0.3,3.9c0.8,2.4,2.5,4.3,4.2,6.1c1.4,1.5,3,3,3.2,4.9
				c0-0.4,0,0.3,0,0.3c0,0.4,0,0.6-0.2,1c-0.2,0.8-0.6,1.4-1,2.1c-0.8,1.2-1.8,2.4-2.8,3.4c-2,1.9-4.4,3.4-7,4.3
				c-2.8,1-5.7,1.3-8.7,1.1c-3.4-0.3-6.7-1.3-10-1.8c-4-0.7-7.9-0.7-11.8,0.3c-3.4,0.8-6.9,2.2-10.4,1c0.6,1,1.2,2.1,1.8,3.1
				c1-4.9,2.3-9.8,3.9-14.6c1.3-4.1,2.7-8.5,5.5-11.9c2.3-2.8,5.8-5.1,9.6-4.4c4,0.7,7.2,3.9,10,6.6
				C509.4,182.1,513,178.6,510.6,176.3L510.6,176.3z"/>
		</g>
	</g>
	<g>
		<path class="st3" d="M579.9,158c0.3-2.5,0.2-5-0.5-7.4c-2.3,1.4-4.6,2.8-6,5.1c-1.4,2.2-1.6,5.5,0.3,7.3c1,0.9,2.3,1.4,3.7,1.6
			c4.1,0.9,8.6,0.7,12.3-1.2s6.6-5.8,6.8-10c0.1-2.2-0.7-4.6-2.6-5.6c-3.8-2.1-7.8,2.2-11.9,3.2"/>
		<g>
			<path class="st3" d="M582.4,158c0.3-2.7,0.1-5.4-0.5-8.1c-0.4-1.6-2.3-2.3-3.7-1.5c-4.3,2.6-8.9,6.2-8.3,11.8
				c0.7,6.3,7.8,7.6,13,7.4c5.4-0.2,10.5-2.5,13.6-6.9c2.8-3.9,3.9-10.5-0.1-14.1c-2.2-2-5.2-2.2-8-1.2c-2.5,0.9-4.6,2.5-7.2,3.2
				c-3.1,0.8-1.8,5.6,1.3,4.8c1.9-0.5,3.6-1.4,5.3-2.3c1.3-0.7,2.8-1.6,4.2-1.4c1,0.2,1.7,1.5,1.9,2.7c0.2,1.4-0.2,2.9-0.8,4.1
				c-1.6,3.2-4.7,5.1-8.2,5.8c-1.9,0.4-3.9,0.4-5.8,0.1c-1.4-0.2-3.6-0.5-4.2-2c-0.4-1.1,0-2.8,0.8-3.9c1.3-1.7,3.2-2.7,4.9-3.8
				c-1.2-0.5-2.5-1-3.7-1.5c0.6,2.2,0.7,4.5,0.4,6.8c-0.2,1.3,1.3,2.5,2.5,2.5C581.4,160.5,582.3,159.3,582.4,158L582.4,158z"/>
		</g>
	</g>
	<g>
		<path class="st3" d="M516.8,126.2c-2.4-2.2-6.8,0-7.3,3.2s2,6.3,5,7.6c3,1.3,6.4,1.2,9.6,1.1c4.5-0.2,10.4-2,10.2-6.4
			c-0.2-3.8-4.8-5.5-8.6-6.2c-3.9-0.8-7.8-1.5-11.7-2.2"/>
		<g>
			<path class="st3" d="M518.6,124.4c-4.1-3.5-10.8-0.6-11.5,4.7c-0.4,2.9,0.8,5.8,2.9,7.9c2.2,2.2,5.1,3.2,8.1,3.6
				c4.7,0.6,10.8,0.4,15-2.4c2-1.4,3.5-3.4,3.7-5.9c0.2-2.6-1.3-4.9-3.3-6.4c-2.2-1.6-5-2.4-7.6-2.9c-3.8-0.7-7.5-1.4-11.2-2.2
				c-1.3-0.3-2.7,0.4-3.1,1.8c-0.3,1.2,0.4,2.8,1.8,3.1c2.5,0.5,5,1,7.5,1.4c2.1,0.4,4.3,0.7,6.4,1.3c1.4,0.4,2.9,1,3.9,2
				c0.4,0.4,0.6,0.8,0.7,1.4c0-0.3-0.1,0.8,0,0.4c-0.1,0.5-0.1,0.4-0.3,0.8c-0.5,0.8-1.7,1.5-2.9,1.9c-1.6,0.5-3.1,0.8-4.7,0.8
				c-3.7,0.2-8.6,0.4-11-3c-0.5-0.7-0.9-1.5-0.9-2.4c0-0.7,0.2-1.2,0.5-1.5c0.5-0.5,1-0.8,1.6-0.9c0.3-0.1,0.8-0.1,1,0.1
				c1,0.9,2.5,1,3.5,0C519.5,127.1,519.6,125.3,518.6,124.4L518.6,124.4z"/>
		</g>
	</g>
	<g>
		<path class="st3" d="M419.1,149.5c0.6,0.2,0.6-1,0-1.1c-0.6-0.1-1.1,0.5-1.4,1c-2,4.1,1.4,8.9,5.5,10.9c3.4,1.7,7.5,2.2,10.9,0.4
			c3.4-1.7,5.4-6,4-9.5c-1.8-4.2-7.4-5.1-12-5.4"/>
		<g>
			<path class="st3" d="M419.1,152c3.9,0.3,3.8-6.1-0.1-6.1c-3,0-4.4,3.5-4.4,6.1c0,4.9,4,9.1,8.2,11c4.8,2.1,10.8,2.1,14.8-1.6
				c3.4-3.2,4.6-8.7,1.8-12.6c-3-4.2-8.5-5-13.4-5.3c-1.4-0.1-2.5,1.2-2.5,2.5c0,1.4,1.1,2.4,2.5,2.5c1.5,0.1,2.5,0.2,3.9,0.5
				c0.7,0.1,1.3,0.3,2,0.5c0.3,0.1,0.6,0.2,0.9,0.3c0.3,0.1,0.1,0,0,0c0.2,0.1,0.4,0.2,0.6,0.3c0.3,0.2,0.6,0.3,0.9,0.5
				c0.2,0.2,0,0,0,0c0.1,0.1,0.3,0.2,0.4,0.3c0.6,0.6,0.6,0.6,1,1.3c0.4,0.8,0.5,1.9,0.2,2.8c-0.3,1.2-0.9,2.1-1.9,3
				c-0.7,0.7-2.2,1.3-3.4,1.4c-2.8,0.4-6.1-0.6-8.1-2.4c-0.6-0.5-1.2-1.2-1.6-1.7c-0.4-0.6-0.8-1.3-1-1.8c-0.1-0.2-0.2-0.8-0.2-0.9
				c0-0.1,0-0.7,0-1c0,0.3,0.1-0.5,0.2-0.7c0.2-0.6,0.1-0.3,0.1-0.2c0-0.1,0.1-0.2,0.1-0.2c-0.3,0.4-0.7,0.6-1.4,0.4
				c-0.4-0.2-0.7-0.4-1.1-0.6c-0.1-1.7-0.2-2.2-0.5-1.5c0.2-0.4,0.4-0.7,0.6-1.1c0.1-0.1,0.2-0.1,0.3-0.2c0.4-0.1,0.8-0.2,1.3-0.3
				c0,0-0.1,0-0.2,0c-1.4-0.1-2.5,1.2-2.5,2.5C416.6,151,417.7,151.9,419.1,152L419.1,152z"/>
		</g>
	</g>
	<g>
		<path class="st3" d="M367.1,125.3c-2.2,0.7-2.4,4.2-0.8,5.9c1.6,1.7,4.2,2,6.6,2c0.9,0,1.8-0.1,2.6-0.5c1.9-1.2,1.5-4.2-0.2-5.6
			c-1.7-1.4-4-1.7-6.2-1.8"/>
		<g>
			<path class="st3" d="M366.5,122.9c-1.3,0.5-2.5,1.3-3.1,2.7c-0.6,1.4-0.7,2.7-0.5,4.2c0.5,2.9,3,4.8,5.7,5.5
				c1.3,0.4,2.7,0.5,4.1,0.5c1.8,0,3.5-0.3,4.9-1.5c2.1-1.9,2.1-5.5,0.5-7.7c-2.1-3-5.7-3.6-9-3.8c-1.3-0.1-2.6,1.2-2.5,2.5
				c0.1,1.4,1.1,2.4,2.5,2.5c0.5,0,1,0.1,1.5,0.1c0.2,0,0.5,0.1-0.1,0c0.1,0,0.3,0,0.4,0.1c0.3,0.1,0.5,0.1,0.8,0.2
				c0.3,0.1,0.5,0.1,0.8,0.2c0.1,0,0.2,0.1,0.3,0.1c0.5,0.2-0.5-0.3-0.1,0c0.2,0.1,0.4,0.2,0.6,0.3c0.1,0.1,0.2,0.1,0.2,0.2
				c0.4,0.2-0.4-0.4,0,0c0.1,0.1,0.2,0.3,0.4,0.4c-0.5-0.4-0.3-0.4-0.2-0.2c0.1,0.1,0.1,0.2,0.2,0.3c0,0.1,0.1,0.2,0.1,0.2
				c0.1,0.2,0.1,0.4-0.1-0.2c0.1,0.2,0.1,0.4,0.2,0.6c0.1,0.6,0-0.6,0,0c0,0.2,0,0.4,0,0.6c0,0.4,0.1-0.7,0-0.2c0,0.1,0,0.1,0,0.2
				c-0.1,0.2-0.2,0.4,0.1-0.2c0,0.1-0.1,0.2-0.1,0.3c-0.1,0.2-0.3,0.2,0.1-0.2c0,0-0.1,0.1-0.1,0.1c-0.2,0.2-0.4,0.1,0.2-0.1
				c-0.1,0-0.1,0.1-0.2,0.1c-0.4,0.3,0.5-0.1,0.1,0c-0.1,0-0.2,0.1-0.4,0.1c-0.3,0.1-0.3-0.1,0.1,0c-0.1,0-0.3,0-0.5,0
				c-0.5,0-1,0-1.5,0c-0.3,0-0.5,0-0.8-0.1c-0.1,0-0.2,0-0.3,0s-0.2,0-0.3,0c0.4,0.1,0.5,0.1,0.2,0c-0.5-0.1-0.9-0.2-1.4-0.3
				c-0.2-0.1-0.9-0.4-0.2,0c-0.2-0.1-0.5-0.2-0.7-0.4c-0.1-0.1-0.1-0.1-0.2-0.1c-0.4-0.3,0.4,0.4,0.1,0.1c-0.2-0.1-0.3-0.3-0.5-0.4
				c-0.4-0.4,0.3,0.5,0,0c-0.1-0.1-0.1-0.2-0.2-0.3c-0.1-0.2-0.1-0.5,0.1,0.2c-0.1-0.2-0.1-0.4-0.2-0.6c0-0.1,0-0.2,0-0.3
				c0-0.2,0.1,0.8,0,0.2c0-0.2,0-0.4,0-0.6c0-0.3,0,0.3,0,0.4c0.1-0.1,0.1-0.3,0.1-0.4c0-0.1,0-0.1,0.1-0.2c0.2-0.6-0.3,0.5-0.1,0.1
				c0-0.1,0.1-0.1,0.1-0.2c0.1-0.2,0.4-0.4-0.1,0.1c0.1-0.1,0.6-0.5,0.2-0.2c-0.4,0.3-0.1,0.1,0,0c0.5-0.3-0.5,0.2-0.1,0.1
				c1.2-0.4,2.2-1.7,1.8-3.1C369.1,123.4,367.8,122.4,366.5,122.9L366.5,122.9z"/>
		</g>
	</g>
</g>
<g id="rock_3">
	<g>
		<g>
			<path class="st4" d="M0,353c20.5,8.7,41.3,16.5,62.6,23.3c11,3.5,22.1,6.6,33.4,8.8c10.3,2,21.8,4.4,32.3,3
				c10.1-1.4,19.5-5.9,28.1-11.3c9.5-6,18.6-12.8,27.7-19.6c8.8-6.6,17.5-13.3,26.3-19.9c9.2-7,18.4-14.1,28.3-20.1
				c8.9-5.4,18.2-9.9,28.1-13.1c10-3.2,20.4-5.5,30.9-4.6c10.7,0.9,20.9,4.6,30.7,8.7c9.2,3.9,17.8,9,28.1,7.4
				c2.3-0.4,4.5-1,6.6-1.9c2.3-1,4.3-2.8,6.6-3.6c0.8-0.3,1.7,0,2.5-0.3c1.1-0.4,1.9-1.2,2.8-1.8c2.2-1.6,4.6-2.9,7.1-3.8
				c10.3-3.7,19.5-0.2,28.7,4.5c9.1,4.7,18,9.9,27.9,12.8c9.7,2.9,20,2.5,30,1.3c41.1-4.9,76.8-28.7,113.3-46.4
				c4.8-2.3,9.7-4.3,15-5.4c3.2-0.7,1.8-5.5-1.3-4.8c-10.1,2.1-19.3,7.4-28.4,12c-9.1,4.6-18.2,9.5-27.3,14.1
				c-18.2,9.3-36.8,18.1-56.8,22.9c-10,2.4-20.2,3.6-30.5,3.4c-10.7-0.2-20.3-4.4-29.7-9.2c-8.6-4.4-17.2-10.2-27-11.6
				c-4.5-0.6-9.1-0.3-13.4,0.9c-2.2,0.6-4.3,1.5-6.3,2.6c-2.2,1.1-4.2,3.2-6.5,3.7c-4.3,0.9-7.7,4.2-12.2,5.3
				c-5.1,1.2-10.4,0.6-15.2-1.4c-9.6-4-18.8-8.6-28.8-11.4c-9.9-2.9-20.4-4.1-30.6-2.4c-9.7,1.6-19.2,4.4-28.3,8.3
				c-20.1,8.5-37.3,22.4-54.5,35.5c-8.8,6.7-17.5,13.3-26.4,19.8c-9,6.6-18.1,13.4-28.1,18.5c-4.6,2.3-9.4,4.2-14.4,5.4
				c-5.3,1.2-10.4,1-15.8,0.5c-11.4-1.2-22.7-3.4-33.7-6.3c-10.9-2.9-21.6-6.3-32.2-10c-10.6-3.7-21.3-7.2-31.7-11.5
				c-5.1-2.1-10.1-4.3-15.2-6.5C-0.4,347.4-3,351.7,0,353L0,353z"/>
		</g>
	</g>
	<g>
		<g>
			<path class="st4" d="M-0.1,454.4c16.3,8.6,34.4,14.5,53,14.6c9.2,0.1,18.5-1.3,27.3-4.3c9.8-3.4,17.9-8.8,26.4-14.6
				c17.2-11.9,35.2-23.4,55.6-29c10.7-2.9,21.5-4,32.6-3.8c11,0.2,22,1.3,33,2c2.5,0.2,4.7,0.4,7.1,1.1c2.2,0.7,4.2,1.1,6.4,1.1
				c5.1,0,9.8,0.3,14.8,0.9c10.8,1.5,21.8,1.8,32.7,0.8c10.2-1,21.2-2.7,30.7-6.6c9-3.7,16.3-10,24-15.8
				c16.3-12.2,36-20.9,55.5-26.5c20.1-5.7,40.9-7.8,61.8-7.2c11,0.3,22,1.4,32.8,3.7c10.2,2.2,19.7,6,29.4,9.7
				c9.4,3.6,19.2,6.9,29.5,6.9c9.9-0.1,19.4-2.8,28.9-5.2c4.8-1.2,9.6-2.4,14.5-3c3.2-0.4,3.2-5.4,0-5c-9.7,1.3-19,4.2-28.6,6.3
				c-10.3,2.2-20.1,2.4-30.3-0.5c-9.7-2.7-18.8-7-28.3-10.3c-9.9-3.4-20.4-5.3-30.8-6.5c-40.6-4.6-82.4,2.4-118.5,21.8
				c-9.1,4.9-17.4,10.7-25.5,16.9c-3.8,2.9-7.6,5.7-11.8,7.9c-4.8,2.6-10.1,4-15.4,5.3c-10.5,2.5-21.3,3.7-32,3.5
				c-10.6-0.1-20.9-2.3-31.4-2.3c-2.3,0-4.3-0.1-6.5-0.8c-2.3-0.7-4.3-1.1-6.7-1.3c-5.4-0.4-10.7-0.8-16.1-1.2
				c-10.9-0.8-22-1.6-32.9-0.6c-10.4,1-20.6,3.5-30.4,6.9c-9.6,3.3-18.6,8.5-27.3,13.8c-17.4,10.5-32.7,24.7-53.1,29.1
				c-18.4,4-37.5,0.6-54.8-6.3c-4.4-1.8-8.7-3.8-12.9-6C-0.4,448.6-2.9,452.9-0.1,454.4L-0.1,454.4z"/>
		</g>
	</g>
</g>
</svg>
