<?xml version="1.0" encoding="UTF-8"?>
<svg id="Layer_3" data-name="Layer 3" xmlns="http://www.w3.org/2000/svg" viewBox="0 0 14456.26 5749.81"
  preserveAspectRatio="xMinYMid">>
  <defs>
    <style>
      .cls-1 {
        fill: #f3f8ff;
      }
    </style>
  </defs>
  <path class="cls-1"
    d="m552.02,4796.08h3878.63s-203.51-371.1-885.86-119.71c0,0-251.39-366.05-502.79-57.33,0,0,95.77-253.92-155.62-289.83,0,0-263.36,0-395.05,233.44,0,0-47.88-317.23-263.36-401.03,0,0-263.36-107.74-359.13,143.65,0,0,155.62-658.41-191.54-706.29,0,0-526.73-23.94-514.76,490.81,0,0-311.25-466.87-526.73-395.05,0,0-335.19,107.74-83.8,730.24,0,0-167.6-251.39-239.42-107.74,0,0-35.91,311.25,239.42,478.84Z" />
  <path class="cls-1" d="m4385.77,3898.25s2358.31,47.88,2585.76,0c0,0-2202.68-167.6-2585.76,0Z" />
  <path class="cls-1"
    d="m6971.52,3385.17h2166.77s-239.42-120.06-430.96-60.03c0,0-514.76-418.81-754.18-83.62,0,0-586.58-323.57-514.76,83.62,0,0-404.47-150.79-466.87,60.03Z" />
  <path class="cls-1"
    d="m9974.72,2038.57h2166.77s-239.42-120.06-430.96-60.03c0,0-514.76-418.81-754.18-83.62,0,0-586.58-323.57-514.76,83.62,0,0-404.47-150.79-466.87,60.03Z" />
  <path class="cls-1"
    d="m9234.06,4281.32h3351.91s-47.88-299.28-347.16-191.54c0,0,23.94-256.71-251.39-218.14,0,0-251.39-3.95-287.31,202.86,0,0-59.86-533.72-478.84-552.51,0,0-490.81,17.12-478.84,579.76,0,0-143.65-220.8-275.34-182.23,0,0-95.77,74.49-107.74,218.14,0,0-347.16-155.62-658.41,71.83,0,0-347.16-179.57-466.87,71.83Z" />
  <path class="cls-1"
    d="m1217.14,2661.07h3351.91s-47.88-299.28-347.16-191.54c0,0,23.94-256.71-251.39-218.14,0,0-251.39-3.95-287.31,202.86,0,0-59.86-533.72-478.84-552.51,0,0-490.81,17.12-478.84,579.76,0,0-143.65-220.8-275.34-182.23,0,0-95.77,74.49-107.74,218.14,0,0-347.16-155.62-658.41,71.83,0,0-347.16-179.57-466.87,71.83Z" />
  <path class="cls-1" d="m10910.01,4484.83s2406.19,59.86,2801.24,0c0,0-2442.1-95.77-2801.24,0Z" />
</svg>