<?xml version="1.0" encoding="utf-8"?>
<!-- Generator: Adobe Illustrator 28.1.0, SVG Export Plug-In . SVG Version: 6.00 Build 0)  -->
<svg version="1.1" id="Layer_1" xmlns="http://www.w3.org/2000/svg" xmlns:xlink="http://www.w3.org/1999/xlink" x="0px" y="0px"
	 viewBox="0 0 400 350" style="enable-background:new 0 0 400 350;" xml:space="preserve">
<style type="text/css">
	.st0{fill:#D3C690;}
	.st1{fill:#FF9532;}
	.st2{fill:#AFA475;}
	.st3{fill:#878166;}
</style>
<g>
	<path class="st0" d="M337.7,126.3c-0.7-1.3-2.1-2-3.4-2.7c-14.3-7.4-28.8-14.8-44.4-18.6c-4.9-1.2-8.9-4.2-13.1-7
		c0,0.1,0.1,0.1,0.1,0.2c0,0,0,0,0,0c0,0,0,0,0,0c0.1,0.1,0.2,0.2,0.2,0.3c0.1,0.1,0.1,0.2,0.2,0.3c0.1,0.2,0.2,0.4,0.3,0.5
		c0,0,0,0,0,0c0.1,0.1,0.2,0.2,0.2,0.3c0.1,0.1,0.1,0.2,0.2,0.3c0.2,0.3,0.3,0.6,0.5,0.9c0,0,0,0,0,0c0.1,0,0.2,0.2,0.4,0.4
		c0,0,0,0,0,0c0.1,0.1,0.1,0.2,0.2,0.3c0.2,0.3,0.3,0.6,0.5,1l0.3,0.6c0.1,0.2,0.2,0.4,0.2,0.6c0.2,0.2,0.4,0.7,0.6,1.1l0,0
		c0.4,0.5,0.8,1.7,0.9,1.9c0,0.1,0.1,0.3,0.3,0.7c0.1,0.1,0.2,0.2,0.2,0.3c0.1,0.2,0.2,0.4,0.2,0.6c0,0.1,0,0.1,0,0.2c0,0,0,0,0,0.1
		c0.1,0.1,0.2,0.4,0.3,0.5c0.2,0.4,0.3,0.9,0.5,1.4c0.1,0.3,0.2,0.7,0.3,1c0,0,0,0,0,0c0,0,0,0.1,0,0.1c0,0.1,0,0.2,0.1,0.4
		c0.1,0.1,0.2,0.3,0.3,0.4c0.1,0.2,0.1,0.4,0.1,0.6c0,0,0,0,0,0c0,0.1,0.1,0.2,0.1,0.2c0,0,0,0.1,0,0.1c0,0.1,0.1,0.2,0.1,0.3
		c0,0.1,0.1,0.3,0.1,0.4c0,0.1,0.1,0.1,0.1,0.2c0,0.1,0.1,0.3,0.1,0.4c0,0.2,0.1,0.5,0.1,0.7c0,0,0,0.1,0,0.1
		c0.1,0.4,0.1,0.7,0.2,1.1c0,0.2,0.1,0.4,0.1,0.7c0,0.3,0.1,0.6,0.1,1c0,0.2,0,0.3,0,0.5c0,0.2,0.1,0.4,0.1,0.5
		c0.3,1.7,0.3,3.5,0.3,5.3c0,0.3,0,0.6-0.1,0.9c0,0.1,0,0.3,0,0.4c0,0.1,0,0.2,0,0.2c0,0,0,0.1,0,0.1c0,0.1,0,0.3,0,0.4
		c0,0.1,0,0.2,0,0.2c0,0,0,0,0,0c0,0,0,0,0,0.1c0,0,0,0,0,0.1c0,0.2,0,0.4,0,0.6l0,0c0,0.1,0,0.3-0.1,0.4c0,0,0,0.1,0,0.1
		c0,0.6-0.1,1.1-0.2,1.7c0,0,0,0,0,0c0,0.1,0,0.2,0,0.3c0,0.1-0.1,0.2-0.1,0.2c-0.2,0.7-0.3,1.4-0.5,2.1c-0.1,0.3-0.2,0.6-0.3,0.8
		c0,0,0,0,0,0c0,0.1,0,0.2,0,0.2c0,0,0,0,0,0c-0.1,0.2-0.1,0.5-0.2,0.7c0,0.1-0.1,0.1-0.1,0.2c-0.1,0.2-0.2,0.5-0.3,0.7
		c-0.1,0.3-0.2,0.6-0.3,1c-0.1,0.4-0.3,0.8-0.5,1.1c0,0,0,0,0,0c0,0,0,0,0,0c0,0,0-0.1-0.1-0.1c0,0.2-0.1,0.4-0.2,0.6
		c-0.1,0.3-0.3,0.5-0.4,0.7c0,0.1,0,0.1,0,0.2c-0.1,0.3-0.3,0.6-0.5,0.9c-0.2,0.3-0.4,0.6-0.5,0.9c-0.2,0.3-0.3,0.6-0.5,0.9
		c0,0,0,0,0-0.1c0,0.2-0.1,0.3-0.2,0.4c-0.1,0.1-0.1,0.3-0.2,0.4c-0.1,0.2-0.3,0.4-0.5,0.7c-0.2,0.2-0.3,0.5-0.5,0.7
		c-0.1,0.1-0.2,0.2-0.3,0.3c0,0.1-0.1,0.2-0.2,0.3c-0.3,0.4-0.7,0.8-1,1.2c0,0,0,0,0,0c0,0,0,0.1-0.1,0.1c-0.1,0.1-0.1,0.2-0.2,0.3
		c-0.1,0.1-0.3,0.2-0.4,0.4c0,0,0,0,0,0c0,0.1,0,0.2,0,0.2c-0.2,0.1-0.3,0.3-0.5,0.4c0,0,0,0,0-0.1c0,0,0,0,0,0c0,0,0,0.1,0,0.1
		c-0.1,0.1-0.2,0.2-0.3,0.3c-0.1,0.1-0.2,0.2-0.3,0.3c0,0,0,0,0,0c-1,1-2.1,2-3.2,2.9c0,0,0,0,0-0.1c0,0,0,0,0,0c0,0.1,0,0.1,0,0.1
		c-0.1,0.1-0.1,0.1-0.2,0.1c0,0,0,0,0,0c-0.4,0.2-0.6,0.5-1,0.7c-0.3,0.2-0.7,0.4-1,0.6c2.9,11.7,6,23.2,11.1,34
		c0.3,2.2,0.7,4.6,2.6,5.8c0.9,0.6,1.9,0.7,2.9,1.1c4.4,1.6,6.8,7,5.1,11.3c9-3.8,18.1-7.6,27.1-11.5c1.7-0.7,3.4-1.5,4.5-2.9
		c1.6-2.1,1.4-4.9,1.3-7.5c-0.2-17.4,9.3-33.4,13.2-50.4C338.2,129.9,338.6,127.9,337.7,126.3z"/>
	<path class="st0" d="M265.8,94c0.5-0.2,1.1-0.3,1.7-0.4c0,0,0,0,0,0c0.1-0.1,0.2-0.1,0.3-0.1c-3.5-1.1-7.2-1.4-10.7-0.7
		c-0.8,0.2-1.6,0.5-2.1,1.1c-0.8,1-0.7,2.4-0.5,3.7c0,0.2,0.1,0.5,0.1,0.7c0.4-0.2,0.8-0.4,1.2-0.5c0,0,0-0.1,0-0.1
		c0.2-0.1,0.3-0.1,0.5-0.1c0,0,0-0.1,0-0.1c0.3-0.3,0.8-0.3,1.2-0.5c0.5-0.2,0.9-0.4,1.4-0.6c0.8-0.4,1.7-0.7,2.6-0.9c0,0,0,0,0,0
		C262.9,94.8,264.4,94.4,265.8,94C265.8,94.1,265.8,94.1,265.8,94z"/>
	<g>
		<path class="st0" d="M338.7,125.2c-1.3-1.9-3.5-2.8-5.4-3.8c-2.3-1.2-4.5-2.3-6.8-3.5c-9.2-4.6-18.5-9-28.2-12.2
			c-4.7-1.5-9.7-2.3-14-4.8c-3.3-1.9-6.3-4.3-9.6-6.2c0,0.1,0.1,0.2,0.1,0.2c0.1,0.2,0.2,0.4,0.3,0.6c0.2,0.1,0.3,0.2,0.4,0.4
			c0.2,0.3,0.4,0.5,0.6,0.8c0,0.1,0.1,0.1,0.1,0.2c0.1,0.1,0,0-0.1-0.1c0.1,0.1,0.1,0.2,0.2,0.3c0.1,0.2,0.2,0.3,0.3,0.5
			c0,0.1,0.1,0.1,0.1,0.2c0.1,0.1,0.1,0.1,0.2,0.2c0,0,0,0,0,0c0,0,0,0,0,0c0.1,0.1,0.2,0.2,0.2,0.3c0.1,0.1,0.1,0.2,0.2,0.3
			c0.1,0.2,0.2,0.4,0.3,0.5c0,0,0,0,0,0c0.1,0.1,0.2,0.2,0.2,0.3c0.1,0.1,0.1,0.2,0.2,0.3c0.2,0.3,0.3,0.6,0.5,0.9c0,0,0,0,0,0
			c0.1,0,0.2,0.2,0.4,0.4c0,0,0,0,0,0.1l0,0c3.6,2.4,7.2,4.3,11.4,5.4c9.5,2.4,18.5,6.1,27.3,10.3c4.5,2.1,8.9,4.4,13.3,6.7
			c1.7,0.8,4.2,1.7,5.3,3.3c1.2,1.8,0.1,4.5-0.3,6.3c-2.3,8.9-5.9,17.5-8.7,26.2c-1.4,4.4-2.6,8.9-3.3,13.4
			c-0.3,2.2-0.6,4.4-0.7,6.6c-0.1,2.2,0.2,4.4-0.1,6.5c-0.3,2.3-1.6,3.6-3.6,4.5c-2.2,1.1-4.5,1.9-6.7,2.9c-4.8,2-9.7,4.1-14.5,6.1
			c-1.5,0.6-3,1.3-4.6,1.9c0.1-2.9-1-5.8-3-7.9c-1.5-1.5-3.2-2.2-5.2-2.8c-0.1,0-0.2-0.1-0.3-0.1c0-0.1-0.1-0.3-0.2-0.4
			c-6.7-12.3-10.4-25.7-13.7-39.2c-0.1,0.1-0.2,0.2-0.3,0.3c-0.5,0.3-0.9,0.6-1.3,0.8c-0.3,0.2-0.7,0.3-1,0.5
			c2.8,11.2,5.8,22.2,10.6,32.7c0.1,0.3,0.3,0.6,0.4,0.9c0.2,1.8,0.6,3.7,1.7,5.3c1.4,1.9,3.5,2,5.5,3c3.2,1.7,4.7,5.8,3.4,9.2
			c-0.5,1.4,1.2,2.1,2.2,1.7c5.1-2.2,10.3-4.3,15.4-6.5c2.5-1.1,5-2.1,7.6-3.2c2.3-1,4.8-1.8,7-3.1c4.2-2.8,3.7-7.4,3.8-11.8
			c0.1-4.8,0.9-9.6,2.2-14.3c2.5-9.4,6.4-18.3,9.2-27.6c0.7-2.3,1.4-4.7,1.9-7.1C339.8,129.4,340,127.1,338.7,125.2z"/>
		<path class="st0" d="M270.5,92.9C270.5,92.9,270.5,92.9,270.5,92.9c-3.6-1.5-7.6-2.2-11.5-1.9c-2,0.2-4.3,0.5-5.5,2.4
			c-1,1.6-0.7,3.7-0.3,5.5c0.4-0.2,0.9-0.4,1.3-0.6c0,0,0-0.1,0-0.1c0,0,0,0,0,0c0,0,0,0,0,0c0,0,0,0,0,0c0,0,0,0,0,0c0,0,0,0,0,0
			c0,0,0,0,0,0l0,0c0.4-0.3,0.8-0.4,1.3-0.5c0,0,0-0.1,0-0.1c0,0,0.1,0,0.2,0c-0.1-0.4-0.1-0.9-0.1-1.3c0-1,0.1-1.7,1.2-2
			c1-0.3,2.2-0.4,3.2-0.4c1.5,0,3.1,0.1,4.6,0.4c0.3-0.1,0.7-0.1,1-0.2c0-0.1,0-0.1,0-0.1c0.5-0.2,1.1-0.3,1.7-0.4c0,0,0,0,0,0
			c0.3-0.2,0.7-0.2,1-0.3c0,0,0,0,0,0c0.3-0.1,0.6-0.1,0.9-0.2c0,0,0,0,0,0c0.3-0.2,0.6-0.2,1-0.3C270.4,92.9,270.4,92.9,270.5,92.9
			z"/>
	</g>
</g>
<g>
	<path class="st0" d="M276.7,98c0.1,0.1,0.1,0.1,0.1,0.2c0,0,0,0,0,0c0,0,0,0,0,0c0.1,0.1,0.2,0.2,0.2,0.3c0.1,0.1,0.1,0.2,0.2,0.3
		c0,0.1,0.1,0.1,0.1,0.2l62.4,26.2c-11.6-13.7-24-22.6-37.7-34.2c-3.2-2.7-6.5-5.4-10.5-6.7c-11.5-3.6-23.1,5.9-35.1,5.8l9.5,4
		c0,0,0,0,0,0c0.5-0.2,1.1-0.3,1.7-0.4c0,0,0,0,0,0c0.3-0.2,0.7-0.2,1-0.3c0,0,0,0,0,0c0.3-0.1,0.6-0.1,0.9-0.2c0,0,0,0,0,0
		c0.3-0.2,0.6-0.2,1-0.3c0,0,0.1,0,0.1,0c0,0,0,0,0,0c0.4-0.1,0.7-0.2,1.1-0.3c0-0.1,0-0.2,0-0.2c0.6-0.1,1.1,0.2,1.5,0.5
		c0.4,0.3,0.8,0.8,1.1,1.2c0.2,0.3,0.4,0.7,0.6,1c0.1,0.2,0.2,0.4,0.3,0.6c0.2,0.1,0.3,0.2,0.4,0.4c0.2,0.3,0.4,0.5,0.6,0.8
		c0,0.1,0.1,0.1,0.1,0.2c0.1,0.1,0,0-0.1-0.1c0.1,0.1,0.1,0.2,0.2,0.3c0.1,0.2,0.2,0.3,0.3,0.5C276.6,97.8,276.6,97.9,276.7,98z"/>
	<g>
		<path class="st0" d="M256.3,91.6c6.2,0,12-2.3,17.8-4.2c5.5-1.8,11.6-3.6,17.3-1.6c3.1,1,5.7,3.1,8.2,5.1c2.6,2.2,5.2,4.4,7.9,6.5
			c5.1,4.2,10.2,8.3,15.2,12.6c5.7,5,11.1,10.3,16,16.1c1.2,1.5,3.4-0.7,2.1-2.1c-8.9-10.5-19.5-19.2-30.1-27.9
			c-2.8-2.3-5.5-4.5-8.3-6.8c-2.5-2-5-4.1-7.9-5.5c-5.8-2.8-12-2.1-18-0.4c-6.7,1.9-13.2,5.1-20.2,5.1
			C254.4,88.6,254.4,91.6,256.3,91.6L256.3,91.6z"/>
	</g>
</g>
<g>
	<path class="st0" d="M339.9,125.4c4.4,9.7-4.6,21.5-7.6,30.5c-3.5,10.7-6.2,19.9-5.6,31.1"/>
	<g>
		<path class="st0" d="M338.6,126.2c3.1,7-1.3,15.1-4.3,21.3c-3.6,7.6-6.3,15.8-7.9,24.1c-1,5.1-1.4,10.3-1.2,15.5
			c0.1,1.9,3.1,1.9,3,0c-0.4-9.6,1.7-18.8,4.6-27.8c1.2-3.8,2.7-7.4,4.4-11c1.7-3.6,3.5-7.3,4.5-11.2c1.1-4.2,1.2-8.4-0.5-12.4
			C340.5,122.9,337.9,124.4,338.6,126.2L338.6,126.2z"/>
	</g>
</g>
<g>
	<path class="st0" d="M288.2,206.7c-0.2,0.2-0.4,0.4-0.8,0.7c0.9,0.5,1.9,0.8,2.8,1.1l-0.9-3.1C289,205.8,288.6,206.2,288.2,206.7z"
		/>
	<path class="st0" d="M290.2,195.3c-1.4-0.5-2.7-0.9-4.1-1.4l3.2,11.5C291.7,202.4,292.4,198.8,290.2,195.3z"/>
	<path class="st0" d="M273.5,149.2c-0.4,0.3-0.8,0.7-1.2,1c0,0,0,0,0-0.1c0,0,0,0,0,0c0,0.1,0,0.1,0,0.1c-0.1,0.1-0.1,0.1-0.2,0.1
		c0,0,0,0,0,0c-0.4,0.2-0.6,0.5-1,0.7c-0.5,0.3-0.9,0.6-1.3,0.8c-0.5,0.3-1,0.5-1.5,0.7c-0.4,0.2-0.8,0.4-1.3,0.5
		c-0.4,0.3-1,0.4-1.5,0.5c0,0.1,0,0.1,0,0.1c0,0-0.1,0-0.1-0.1c0,0-0.1,0-0.1,0c0,0,0,0-0.1,0c0,0.1,0,0.1,0,0.1c0,0-0.1,0-0.1-0.1
		c0,0-0.1,0-0.1,0c0,0.1,0,0.1,0,0.1c0,0-0.1,0-0.1-0.1c0,0-0.1,0-0.1,0c0,0.1,0,0.1,0,0.1c0,0-0.1,0-0.1-0.1c-0.1,0-0.1,0-0.2,0
		c0,0.1,0,0.1,0,0.1c0,0-0.1,0-0.1-0.1c-0.1,0-0.2,0-0.3,0.1c0,0.1,0,0.1,0,0.1c0,0-0.1,0-0.1-0.1c-0.1,0-0.1,0-0.2,0
		c0,0.1,0,0.1,0,0.1c0,0-0.1,0-0.1-0.1c0,0,0,0-0.1,0c0,0.1,0,0.2,0,0.2c0,0-0.1-0.1-0.1-0.1c-0.1,0-0.2,0-0.3,0c0,0,0,0,0,0
		c0,0,0,0-0.1,0c-0.1,0-0.1,0-0.2,0c0,0,0,0-0.1,0c0,0.1,0,0.2,0,0.2c-0.1,0-0.1-0.1-0.1-0.2c-0.1,0-0.2,0-0.3,0c0,0.1,0,0.2,0,0.2
		c0,0-0.1,0-0.1-0.1c0,0,0,0-0.1,0c0,0,0,0.1,0,0.1c-0.3,0-0.5,0-0.8,0c0,0,0,0.1,0,0.1c-0.2,0-0.5,0-0.7-0.1c0,0.1,0,0.1,0,0.1
		c0,0-0.1,0-0.1-0.1c0,0,0,0,0,0c0,0-0.1,0-0.1,0c-0.2,0-0.3,0-0.5,0c-0.2,0-0.3-0.1-0.5-0.2c0,0,0-0.1,0-0.1
		c-0.6-0.1-1.2-0.2-1.8-0.4c0,0,0,0-0.1-0.1c0,0,0,0,0,0c0,0,0,0,0,0c0,0,0,0.1,0,0.1c0,0,0,0,0,0c0,0-0.1-0.1-0.1-0.1c0,0,0,0,0,0
		c0,0,0,0,0-0.1c0,0,0,0.1,0,0.1c-0.3-0.2-0.5-0.3-0.8-0.5c-0.1-0.1-0.1-0.2-0.1-0.3c-0.1,0-0.1-0.1-0.2-0.1c0,0.2,0,0.2,0,0.2
		c-0.1,0-0.2-0.1-0.2-0.4c-0.1,0-0.1-0.1-0.1-0.1c0,0,0,0,0,0c0,0.1,0,0.2,0,0.2c-0.1,0-0.1-0.1-0.2-0.3c-0.1,0-0.1-0.1-0.2-0.1
		c0,0.1,0,0.2,0,0.2c-0.1,0-0.2-0.2-0.2-0.4c0-0.1-0.1-0.1-0.1-0.2c0,0,0-0.1,0-0.1c0,0,0,0-0.1,0c0,0.3,0,0.5,0,0.5
		c-0.1,0-0.2-0.3-0.3-0.8c0,0,0,0-0.1-0.1c0,0.3,0,0.4,0,0.4c-0.1,0-0.2-0.3-0.3-0.7c0,0,0,0,0,0c0,0.3,0,0.5,0,0.5
		c-0.1,0-0.1-0.1-0.2-0.3c0,0.1,0,0.1,0,0.1c-0.1,0-0.2-0.3-0.3-0.7c0,0.2,0,0.4,0,0.4c-0.1,0-0.2-0.2-0.2-0.5c0,0,0,0,0,0
		c0-0.1-0.1-0.1-0.1-0.2c-0.3-0.4-0.6-0.7-0.9-1.1c-0.2-0.2-0.3-0.4-0.4-0.7c-0.1-0.1-0.1-0.2-0.2-0.3c0,0,0,0.1,0,0.1c0,0,0,0,0,0
		c0,0,0,0,0,0c-0.1,0-0.2-0.2-0.3-0.5c0,0,0-0.1,0-0.1c0,0,0,0,0,0c-0.2-0.2-0.4-0.4-0.6-0.6c-0.1-0.2-0.2-0.5-0.2-0.7
		c0-0.1-0.1-0.3-0.1-0.4c-0.2-0.3-0.3-0.6-0.5-0.9c0,0,0,0,0,0c0,0-0.1,0-0.1-0.1c0,0,0,0.1,0,0.1c-0.1,0-0.2-0.2-0.3-0.5
		c0-0.1-0.1-0.2-0.1-0.4c0,0.1,0,0.2,0,0.2c-0.1,0-0.2-0.3-0.3-0.7c-0.1-0.1-0.1-0.2-0.2-0.5c0,0.1,0,0.2,0,0.2
		c-0.1,0-0.2-0.3-0.3-0.8c0,0,0-0.1,0-0.1c-0.1,0-0.2-0.2-0.2-0.5c0,0-0.1-0.1-0.1-0.2c0,0,0,0.1,0,0.1c-0.1,0-0.2-0.3-0.3-0.6
		c0-0.1,0-0.1-0.1-0.2c-0.1,0-0.1-0.2-0.2-0.4c-0.1-0.1-0.1-0.2-0.2-0.4c0,0.1,0,0.1,0,0.1c-0.1,0-0.2-0.2-0.3-0.5
		c0-0.1-0.1-0.3-0.1-0.4c0,0-0.1-0.1-0.1-0.2c0,0,0,0,0,0c-0.1,0-0.2-0.2-0.3-0.5c-0.1,0-0.2-0.2-0.2-0.5c-0.1-0.1-0.1-0.2-0.2-0.4
		c0,0,0,0,0,0c-0.1,0-0.2-0.2-0.2-0.4c0,0-0.1-0.1-0.1-0.1c-0.1,0-0.2-0.2-0.3-0.6c0,0,0-0.1,0-0.1c-0.2-0.5-0.5-1-0.7-1.5
		c-0.1-0.3-0.2-0.5-0.3-0.8c-0.1,0-0.2-0.2-0.2-0.5c0,0-0.1-0.1-0.1-0.3c-0.1,0-0.1-0.2-0.2-0.4c-0.1-0.1-0.1-0.2-0.2-0.3
		c-0.1-0.2-0.2-0.3-0.2-0.5c0,0,0-0.1-0.1-0.1c0,0,0,0,0,0c0,0,0-0.1,0,0c-0.1-0.2-0.2-0.4-0.3-0.6c0,0,0-0.1,0-0.1
		c0,0,0-0.1-0.1-0.1c-0.1,0-0.1-0.1-0.2-0.3c-0.1,0-0.1-0.1-0.2-0.3c0,0-0.1-0.1-0.1-0.1c0,0,0,0,0,0c0,0,0,0,0,0c0,0,0,0,0-0.1
		c0,0,0,0,0-0.1c0-0.1,0-0.1-0.1-0.2c0,0,0,0,0,0c-0.1-0.1-0.1-0.3-0.2-0.4c-0.1-0.2-0.1-0.3-0.2-0.5c0,0,0-0.1-0.1-0.1
		c0-0.1-0.1-0.1-0.1-0.2c0,0-0.1-0.1-0.1-0.1c0,0,0-0.1-0.1-0.1c0,0,0,0,0-0.1c0,0,0-0.1,0-0.1c0,0,0,0,0-0.1c0,0,0-0.1,0-0.1
		c0,0,0,0,0-0.1c-0.1-0.2-0.2-0.3-0.2-0.5c0,0,0,0,0,0c-0.1-0.2-0.3-0.5-0.4-0.8c-0.1-0.1-0.1-0.2-0.1-0.2c-0.1-0.3-0.3-0.5-0.4-0.8
		c-0.1-0.2-0.2-0.3-0.2-0.5c0,0,0-0.1-0.1-0.1c-0.4-0.4-0.6-1-0.8-1.5c-0.1-0.3-0.2-0.6-0.3-0.8c0,0,0,0,0,0c0,0,0,0,0-0.1
		c-0.1-0.1-0.1-0.2-0.2-0.3c0-0.1-0.1-0.2-0.1-0.3c0,0,0,0,0,0c0,0,0,0,0,0c0,0,0,0,0-0.1c0,0,0-0.1,0-0.1c0,0,0-0.1,0-0.1
		c0-0.1-0.1-0.1-0.1-0.2c0,0,0,0,0,0c0-0.1-0.1-0.2-0.1-0.3c0,0,0,0,0,0c0-0.1-0.1-0.1-0.1-0.2c0-0.1-0.1-0.2-0.1-0.3c0,0,0,0,0,0
		c-0.1-0.2-0.2-0.4-0.2-0.5c0-0.1-0.1-0.2-0.1-0.3c-0.1-0.1-0.1-0.2-0.1-0.3c0-0.1-0.1-0.2-0.1-0.3c0,0,0-0.1,0-0.1c0,0,0,0,0,0
		c0,0,0-0.1,0-0.1c0-0.1-0.1-0.2-0.1-0.3c0-0.1-0.1-0.2-0.1-0.3c0,0,0-0.1,0-0.1c0,0,0,0,0,0c0,0,0,0,0,0c0,0,0,0,0,0c0,0,0,0,0,0
		c0,0,0,0,0,0c0-0.1,0-0.1-0.1-0.2c0-0.1,0-0.1,0-0.2c0,0,0-0.1,0-0.1c0,0,0-0.1,0-0.1c0,0,0,0,0,0c0,0,0,0,0-0.1c0-0.1,0-0.1,0-0.2
		c0,0,0-0.1-0.1-0.1c0-0.1,0-0.1,0-0.1c0-0.1-0.1-0.2-0.1-0.2c0-0.1,0-0.1,0-0.2c0,0,0-0.1,0-0.1c0-0.1-0.1-0.3-0.1-0.4
		c0,0,0,0,0-0.1c0,0,0-0.1,0-0.1c0,0,0,0,0,0c0,0,0-0.1,0-0.1c0-0.2-0.1-0.3-0.1-0.5c0,0,0,0,0,0c0,0,0,0,0,0c0,0,0,0,0,0
		c0,0,0,0,0,0c0,0,0,0,0,0c0-0.4-0.2-0.9,0.1-1.3c0-0.1,0-0.1,0-0.2c0-0.1-0.1-0.3,0-0.4c0,0,0-0.1,0-0.1c0-0.1,0-0.1,0-0.2
		c0,0,0-0.1,0-0.1c0-0.2,0-0.5,0.1-0.7c0.1-0.2,0.1-0.3,0.2-0.5c0.1-0.2,0.1-0.4,0.2-0.6c0,0,0,0,0,0c0,0,0-0.1,0-0.1
		c0-0.1,0.1-0.2,0.1-0.3c0,0,0-0.1,0-0.1c0-0.1,0.1-0.2,0.1-0.2c0,0,0,0,0,0c0-0.1,0.1-0.2,0.1-0.2c0,0,0,0,0,0c0,0,0-0.1,0-0.1
		c0-0.1,0.1-0.1,0.1-0.2c0,0,0-0.1,0.1-0.1c0-0.1,0.1-0.1,0.1-0.2c0,0,0,0,0,0c0-0.1,0.1-0.1,0.1-0.2c0,0,0,0,0,0c0,0,0-0.1,0.1-0.1
		c0,0,0,0,0,0c0.1-0.2,0.2-0.3,0.3-0.4c0,0,0.1-0.1,0.1-0.1c0,0,0,0,0,0c0-0.1,0.1-0.1,0.1-0.1c0,0,0,0,0,0c0,0,0.1-0.1,0.1-0.1
		c0,0,0,0,0,0c0,0,0,0,0,0c0,0,0,0,0,0c0,0,0,0,0,0c0,0,0,0,0,0c0,0,0,0,0,0c0,0-0.1-0.1,0-0.1c0.2-0.2,0.3-0.4,0.5-0.6
		c0.1-0.1,0.3-0.3,0.4-0.4c0,0,0,0,0,0c0.1-0.1,0.2-0.2,0.3-0.2c0-0.1,0-0.1,0-0.1c0.3-0.2,0.5-0.4,0.8-0.5c0,0,0-0.1,0-0.1
		c0.4-0.4,0.8-0.7,1.3-1c0,0,0-0.1,0-0.1c0.5-0.3,0.9-0.6,1.4-0.9c0.1-0.1,0.2-0.2,0.3-0.3c0.1-0.1,0.2-0.1,0.3-0.2c0,0,0,0,0,0
		c0,0,0.1-0.1,0.1-0.1c0,0,0,0,0,0c0,0,0,0,0.1,0c0.1,0,0.1-0.1,0.2-0.1c0-0.1-0.1-0.1-0.1-0.1c0,0,0.1,0,0.1,0.1c0,0,0-0.1,0-0.1
		c0.2-0.1,0.5-0.2,0.8-0.3c0,0,0,0,0,0c0,0,0,0,0,0c0.4-0.1,0.6-0.4,0.9-0.5c0,0,0,0,0,0c0,0,0.1,0,0.1-0.1c0,0,0,0,0,0
		c0.2-0.1,0.3-0.2,0.5-0.3c0.4-0.3,0.9-0.6,1.4-0.8c0-0.1-0.1-0.2-0.1-0.2c1.3-0.5,2.5-1.2,3.7-1.9c0.2-0.1,0.4-0.2,0.6-0.3
		c0-0.1,0-0.1,0-0.1c0.6-0.3,1.2-0.5,1.8-0.7c0,0,0-0.1,0-0.1c0,0,0,0,0,0c0,0,0,0,0,0c0,0,0,0,0,0c0,0,0,0,0,0c0,0,0,0,0,0
		c0,0,0,0,0,0l0,0c0.4-0.3,0.8-0.4,1.3-0.5c0,0,0-0.1,0-0.1c0.2-0.1,0.3-0.1,0.5-0.1c0,0,0-0.1,0-0.1c0.3-0.3,0.8-0.3,1.2-0.5
		c0.3-0.1,0.7-0.3,1-0.4l-1.8-6.5c-1.1-8.8-8.4-20.2-18.4-16.6C224.7,78.8,211,85.1,196.5,86c-26.4,1.8-51-5.3-77.4-9.8
		c-15.5-1.8-29.1,7.1-42.8,14.2c-0.9,0.9-1.8,1.8-2.7,2.7c-10.9,6.2-24.6,8.9-30.9,20.4c-0.9,1.8-1.8,4.4-1.8,6.2
		c-1.8,8.9-7.3,18.7-1.8,26.7c29.1,7.1,59.2,9.8,89.2,18.7c9.1,1.8,17.3,5.3,26.4,6.2c20,3.6,38.2,1.8,58.2,4.4
		c25.8,5,49.2,10.1,73.2,18.1L273.5,149.2z M100,93.7c0.2,2.1-0.4,4.3-1,6.3c-0.5,1.4-1,2.9-1.6,4.3c0.2,0.6,0.2,1.2-0.2,1.8
		c-0.3,0.5-0.6,0.8-0.9,1.3c-0.3,0.4-0.6,0.8-0.9,1.1c-0.8,1.4-1.8,2.9-3.1,3.9c0,0.1,0,0.2-0.1,0.3c-0.1,0.1-0.2,0.2-0.3,0.3
		c-0.1,0.1-0.1,0.1-0.2,0.1c0,0-0.1,0.1-0.1,0.1c-0.2,0.2-0.4,0.4-0.7,0.5c-0.4,0.2-0.9,0.3-1.3,0.4c-0.3,0-0.5,0.1-0.8,0.1
		c-0.4,0-0.8,0-1.2-0.1c-0.1,0-0.3,0-0.4-0.1c-0.1,0-0.1,0-0.2,0c-0.6,0-1.2-0.1-1.7-0.2c-0.7,0-1.4-0.1-2-0.3
		c-0.9,0-1.8-0.1-2.7-0.1c-2.8-0.2-5.7-0.4-8.5-0.8c-0.7,0.2-1.6,0.2-2.1,0.1c-1.7-0.2-4.1-0.9-4-3c0-0.8,0.3-1.4,0.7-2
		c-0.1-0.2-0.1-0.4,0-0.5c0.5-0.8,1.3-1.2,1.9-1.8c0.1-0.1,0.2-0.2,0.2-0.3c0.2-0.4,0.7-0.6,1.2-0.8c0.2-0.2,0.5-0.4,0.7-0.6
		c4.7-3.9,10-7.7,15.8-9.8c0.1-0.1,0.2-0.2,0.4-0.2c1.6-0.8,3.2-1.1,4.8-1.6c0.7-0.2,1.4-0.5,2-0.7c1.7-0.6,6.6-1.4,6.7,1.4
		C100.6,93.1,100.3,93.4,100,93.7z M231.2,145c-0.1,0.3-0.2,0.5-0.4,0.7c-0.2,0.5-0.6,1-1.2,1.2c0,0-0.1,0.1-0.1,0.1
		c-0.5,0.3-1,0.3-1.5,0.2c-0.1,0-0.1,0-0.2-0.1c-2.2,1.6-5.2,1.5-7.9,1.8c-3.6,0.4-7.1,0.5-10.7,0.5c-0.4,0.3-0.8,0.5-1.3,0.5
		c-0.9,0-1.9-0.1-2.8-0.3c0,0,0,0-0.1,0c-1.4-0.2-2.9-0.4-4.3-0.6c-0.3,0-0.5,0-0.8,0c-0.2,0-0.4-0.1-0.6-0.1c-0.1,0-0.2,0-0.2,0
		c-0.1,0-0.3-0.1-0.4-0.1c-0.1,0-0.1,0-0.2,0c0,0,0,0-0.1,0c0,0,0,0,0,0c0,0,0,0,0,0c0,0,0,0,0,0c0,0,0,0,0,0c0,0-0.1,0-0.1,0
		c-0.1,0-0.1,0-0.2,0c-0.1,0-0.3,0-0.4,0c-0.1,0-0.2,0-0.3-0.1c0,0-0.1,0-0.1,0c-0.1,0-0.2,0-0.2,0c-0.2,0-0.4,0-0.6,0
		c-0.3-0.1-0.6-0.2-0.9-0.3c0,0,0,0,0,0c-0.2,0.2-0.4,0.3-0.6,0.4c-0.2,0.1-0.5,0.2-0.8,0.2h-0.3c-0.4,0-0.7-0.1-1-0.3l0,0
		c-0.1,0-0.2,0-0.3,0c-0.3,0-0.5,0-0.8-0.2c-0.1,0-0.3-0.1-0.4-0.2c0,0-0.1,0-0.1,0c-0.2-0.1-0.4-0.2-0.7-0.3c0,0-0.1,0-0.1-0.1
		c0,0,0,0-0.1-0.1c0,0,0,0,0,0c-0.3,0-0.5,0-0.8-0.2c-0.2-0.1-0.5-0.2-0.6-0.4c0,0,0,0-0.1-0.1c-0.1-0.1-0.1-0.2-0.2-0.3
		c-0.1-0.1-0.2-0.1-0.3-0.2c-0.1-0.1-0.2-0.2-0.2-0.3c-0.1,0-0.1,0-0.2-0.1c-0.1,0-0.2-0.1-0.3-0.1c-0.2,0-0.3-0.1-0.5-0.1
		c-0.1-0.1-0.3-0.1-0.4-0.2c-0.3-0.1-0.6-0.2-0.9-0.3c-0.1,0-0.1-0.1-0.2-0.1c0,0,0,0-0.1,0c0,0,0,0,0,0c0,0,0,0,0,0
		c0,0-0.1,0-0.1,0c-0.1,0-0.1,0-0.2-0.1c-0.1,0-0.3-0.1-0.4-0.1c0,0-0.1-0.1-0.1-0.1c0,0,0,0,0,0c-0.1,0-0.2-0.1-0.2-0.1
		c-0.2-0.1-0.4-0.2-0.5-0.3c0,0,0,0,0,0c-0.1,0-0.2-0.1-0.2-0.1c0,0-0.1,0-0.1,0c-0.3-0.1-0.5-0.2-0.8-0.4c-0.3-0.1-0.6-0.3-0.9-0.5
		c-0.1,0-0.1-0.1-0.1-0.2c0,0,0,0,0,0c0,0,0,0,0,0c-0.1,0-0.1,0-0.2,0c-0.1,0-0.2-0.1-0.3-0.1c-0.1,0-0.1-0.1-0.2-0.1
		c-0.1,0-0.1-0.1-0.2-0.1c-0.1-0.1-0.3-0.1-0.4-0.2c-0.1-0.1-0.1-0.1-0.1-0.2c0,0,0,0,0,0c0,0-0.1,0-0.1-0.1
		c-0.6-0.5-1.3-0.7-1.9-1.1c0,0,0-0.1-0.1-0.1c-0.1-0.1-0.2-0.1-0.3-0.2c-0.1-0.1-0.2-0.2-0.3-0.2c-0.1-0.1-0.2-0.1-0.3-0.2
		c-0.1-0.1-0.2-0.2-0.3-0.3c0,0,0,0,0,0c0,0,0,0,0,0c-0.5-0.4-1-0.8-1.5-1.3c-0.2-0.2-0.4-0.4-0.7-0.6c-0.2-0.2-0.5-0.4-0.6-0.6
		c0,0,0-0.1,0-0.1c-0.2-0.1-0.3-0.3-0.5-0.5c-0.2-0.3-0.5-0.5-0.7-0.8c0,0,0,0,0,0c0,0-0.1-0.1-0.1-0.1c0,0,0,0,0,0c0,0,0,0,0,0
		c0,0,0,0,0,0c-0.4-0.4-0.7-0.8-1.1-1.2c0,0,0,0,0-0.1c-0.3-0.3-0.5-0.7-0.8-1c-0.3-0.4-0.7-0.8-1-1.3c-0.6-0.9-1.3-1.8-1.9-2.7
		c-0.1-0.1-0.1-0.2,0-0.2c-0.1,0-0.1-0.1-0.2-0.1c-0.2-0.2-0.3-0.4-0.5-0.6c-0.1-0.2-0.2-0.4-0.3-0.5c-0.1-0.2-0.3-0.4-0.5-0.6
		c0-0.1,0-0.1,0-0.2c-0.3-0.3-0.5-0.6-0.8-0.9c0-0.1,0-0.1,0-0.2c-0.2-0.1-0.4-0.3-0.6-0.5c-0.2-0.2-0.4-0.5-0.6-0.7
		c0,0,0-0.1,0-0.1c-0.3-0.2-0.5-0.5-0.8-0.8c0,0-0.1-0.1-0.1-0.1c0.1,0.1,0,0,0,0c-0.1-0.1-0.2-0.1-0.2-0.2
		c-0.2-0.2-0.3-0.3-0.5-0.5c-0.6-0.6-1.2-1.1-1.8-1.7c0,0-0.1,0-0.1,0c-0.1,0-0.1-0.1-0.2-0.1c0,0,0,0,0,0c0,0,0.1,0.1,0.1,0.1
		c-0.1-0.1-0.2-0.2-0.3-0.3c0,0-0.1-0.1-0.1-0.1c-0.1,0-0.1-0.1-0.2-0.1c-0.1,0-0.3-0.1-0.3-0.2c-0.2-0.2-0.4-0.4-0.6-0.6
		c-0.3,0-0.6,0-0.7-0.2c-2.4-2.2-5-4.1-7.9-5.5c-0.2-0.1-0.3-0.2-0.3-0.4c-1.9-0.6-3.8-1.3-5.1-2.6c-0.4-0.3-0.7-0.7-0.9-1
		c-0.1,0-0.2,0.1-0.3,0.1c-0.1,0-0.2,0-0.4,0c-0.4,0-0.8-0.1-1.1-0.3c-0.4,0-0.8-0.1-0.9-0.2c-1.2-1.3-0.7-2.5,0.6-3.4
		c1.2-1.5,3.4-2.6,5.2-3.1c0.2-0.1,0.3-0.2,0.5-0.3c1.6-0.8,3.2-1.5,4.9-2.1c1.1-0.8,2.6-1.2,4-1.4c0.1-0.1,0.3-0.2,0.4-0.3
		c3.1-0.9,6.3-1.7,9.5-2.3c1.5-0.4,3-0.6,4.5-0.7c0.1-0.1,0.2-0.1,0.5-0.2c2.5-0.5,5.1-0.7,7.6-0.8c0.1-0.3,0.7-0.4,1-0.4
		c3.7-0.3,7.4-0.4,11-0.5c0.1-0.2,0.5-0.4,0.7-0.4c2.6-0.4,5.3-0.3,7.9-0.2c0,0,0,0,0,0c0-0.4,0.7-0.5,1-0.5
		c0.9-0.1,1.7-0.1,2.6-0.1c0.2,0,0.4,0,0.6,0c0.1,0,0.2,0,0.3,0c0,0,0.1,0,0.2,0c0.4,0,0.9-0.1,1.3-0.2c0.3-0.1,1-0.1,1.2,0.3
		c0,0,0,0,0,0c0.4-0.1,0.8-0.2,1.3-0.4c0.2-0.1,0.6-0.1,1-0.1c0.3,0,0.6-0.1,0.8,0.1c5.4-0.9,10.8-2.1,16.4-2.6c0,0,0,0,0,0
		c-0.1-0.3,0.1-0.6,0.8-0.6c0.6,0,0.9,0.2,0.9,0.4c0,0,0.1,0,0.1,0c0.1,0,0.1,0,0.2,0.1c0,0,0,0,0,0c0.1,0,0.2,0.1,0.3,0.1
		c0.2,0.1,0.5,0.3,0.6,0.5c0.2,0.4,0.2,0.9,0,1.3c-0.1,0.1-0.1,0.2-0.3,0.2c0,0-0.1,0-0.1,0.1c-0.1,0.1-0.2,0.2-0.3,0.2
		c-0.2,0.8-0.8,1.5-1.8,1.6c-0.4,0-0.8,0.1-1.1,0.1c-0.2,0.2-0.4,0.4-0.7,0.5c1.1,2.1,0.7,4.9-2.2,5.4c-0.1,1-0.5,2-1,2.9
		c-0.2,0.4-0.5,0.6-0.9,0.8c-0.1,2-0.3,4-0.5,6c-0.4,4.8-0.1,9.7,1.2,14.4c0.2,0.3,0.4,0.6,0.5,0.9c1,1.7,1.8,3.5,2.2,5.4
		c1.3,2,2.8,3.9,4,6.2c0.3,0.6,0.5,1.2,0.7,1.8c0.4,0.4,0.7,0.8,0.9,1.2c0.2,0.4,0.4,0.9,0.5,1.4c0.1,0.5,0.1,1,0.1,1.5
		C231.3,144,231.3,144.5,231.2,145z"/>
	<g>
		<path class="st0" d="M258.3,90.1c-0.8-6.2-3.8-12.5-8.9-16.3c-2.4-1.8-5.5-2.8-8.5-2.4c-2,0.2-3.7,1-5.6,1.7
			c-2.1,0.8-4.2,1.7-6.3,2.5c-8.5,3.4-17.1,6.6-26.2,8.1c-9.1,1.5-18.7,1.2-27.8,0.4c-9.4-0.8-18.6-2.4-27.9-4.2
			c-4.6-0.9-9.2-1.8-13.9-2.7c-4.7-0.9-9.3-1.9-14-2.6c-8.4-1.1-16.8,1.3-24.4,4.5c-3.9,1.7-7.7,3.7-11.5,5.7c-1.9,1-3.7,2-5.6,3
			c-0.9,0.5-2,0.9-2.8,1.6c-0.9,0.8-1.6,1.8-2.6,2.4c-1.4,1-3.2,1.7-4.7,2.4c-1.6,0.8-3.2,1.5-4.9,2.2c-3.2,1.4-6.4,2.9-9.4,4.6
			c-6.1,3.5-11.7,8.5-13.7,15.5c-0.5,1.9-0.7,3.8-1.2,5.7c-0.5,2-1.2,4-1.7,5.9c-1.1,3.9-2.2,8-1.7,12.1c0.2,1.9,0.8,3.8,1.7,5.5
			c0.5,1,1,1.8,2.1,2.1s2.3,0.6,3.5,0.8c4.6,1.1,9.2,2,13.8,2.9c18.8,3.7,37.7,6.4,56.3,10.8c4.7,1.1,9.5,2.4,14.1,3.7
			c2.2,0.7,4.6,1.1,6.9,1.7c2.2,0.6,4.4,1.2,6.6,1.9c8.9,2.5,18.1,3.9,27.3,4.7c9.3,0.8,18.7,0.9,28.1,1.3c4.7,0.2,9.5,0.5,14.2,1.1
			c4.7,0.5,9.4,1.6,14,2.6c17.8,3.6,35.6,7.7,53,13.1c4.3,1.3,8.6,2.7,12.8,4.2c-0.3-0.2-0.6-0.5-0.9-0.7c2.3,3.9,0.5,7.5-2.6,10.3
			c-0.9,0.8-0.3,2.2,0.7,2.5c1.3,0.5,3-0.8,3.2-2.1c0.1-0.9-0.5-1.8-1.5-1.8c-0.9,0-1.7,0.8-2.3,1.4c-0.7,0.6-0.6,1.9,0.3,2.4
			c1,0.5,2.1,0.9,3.2,1.3c1.8,0.5,2.7-2.3,0.8-2.9c-0.9-0.3-1.7-0.6-2.5-1c0.1,0.8,0.2,1.6,0.3,2.4c0.2-0.2,0.5-0.4,0.6-0.6
			c0.3-0.4,0.9,0.5-0.8,0c-0.3-0.4-0.7-0.7-1-1c0.2-0.9,0.2-1.1,0-0.8c0.1-0.1,0.1-0.1,0,0c-0.1,0.1,0.4-0.1,0.5-0.1
			c0.2,0.8,0.4,1.7,0.7,2.5c2.7-2.4,4.9-5.8,4.5-9.6c-0.2-1.6-0.7-4.3-2.4-5c-2-0.9-4.2-1.4-6.2-2.1c-8.3-2.7-16.7-5.1-25.1-7.3
			c-8.5-2.2-17-4.1-25.5-6c-8.8-1.9-17.7-4-26.7-4.9c-9-0.9-18-1-27-1.4c-4.5-0.2-9-0.4-13.5-0.8c-4.6-0.4-9.2-1.1-13.8-1.8
			c-4.3-0.6-8.5-1.8-12.7-3c-4.3-1.2-8.6-2.1-12.9-3.4c-9-2.6-18.1-4.7-27.3-6.5c-17.9-3.6-36.1-6.2-53.9-10.2
			c-2.2-0.5-4.3-1-6.5-1.5c0.3,0.2,0.6,0.5,0.9,0.7c-5.1-7.8,0.2-17.1,1.9-25.1c0.4-2,0.6-3.9,1.5-5.8c0.8-1.6,1.9-3.2,3.1-4.6
			c2.4-2.7,5.4-4.8,8.5-6.6c3.2-1.8,6.7-3.3,10.1-4.8c1.7-0.8,3.4-1.5,5-2.3c1.7-0.8,3.5-1.6,4.9-3c0.9-0.8,1.6-1.7,2.7-2.3
			c1.1-0.6,2.2-1.1,3.3-1.7c2-1.1,4-2.1,6-3.2c4-2.1,8-4.1,12.2-5.6c4.1-1.5,8.5-2.7,12.9-3.1c4.8-0.4,9.4,0.6,14.1,1.4
			c9.9,1.8,19.7,3.9,29.6,5.6c19.1,3.2,39.1,5.2,58-0.4c4.7-1.4,9.2-3.1,13.8-4.9c2.2-0.9,4.5-1.8,6.7-2.7c2-0.8,4.1-1.9,6.3-2.2
			c6.7-1.1,11.5,5.6,13.5,11.1c0.5,1.5,0.9,3,1.1,4.5C255.5,92,258.5,92,258.3,90.1L258.3,90.1z"/>
	</g>
</g>
<g>
	<path class="st1" d="M95.4,108.6c-0.8,1.4-1.8,2.9-3.1,3.9c0,0.1,0,0.2-0.1,0.3c0.1-0.1,0.2-0.1,0.4-0.2
		C94,111.6,94.8,110.1,95.4,108.6C95.4,108.6,95.4,108.6,95.4,108.6z"/>
	<g>
		<path class="st1" d="M97.4,104.3c0.2,0.6,0.2,1.2-0.2,1.9c-0.3,0.5-0.6,0.8-0.9,1.3c-0.3,0.4-0.6,0.8-0.9,1.1
			c-0.8,1.4-1.8,2.9-3.1,3.9c0,0.1,0,0.2-0.1,0.3c-0.1,0.1-0.2,0.2-0.3,0.3c-0.1,0.1-0.1,0.1-0.2,0.1c0,0-0.1,0.1-0.1,0.1
			c-0.2,0.2-0.4,0.4-0.7,0.5c-0.4,0.2-0.9,0.3-1.3,0.4c-0.3,0-0.5,0.1-0.8,0.1c-0.4,0-0.8,0-1.2-0.1c-0.1,0-0.3,0-0.4-0.1
			c-0.1,0-0.1,0-0.2,0c-0.6,0-1.2-0.1-1.7-0.2c-0.7,0-1.4-0.1-2-0.3c-0.9,0-1.8-0.1-2.7-0.1c-2.8-0.2-5.7-0.4-8.5-0.8
			c-0.7,0.2-1.6,0.2-2.1,0.1c-0.1,0-0.2,0-0.3,0c0.9,0.2,1.9,0.3,2.8,0.5c1.7,0.3,3.5,0.6,5.2,0.8c3.2,0.5,6.5,1,9.8,1.1
			c2.7,0.1,5.6-0.5,7.4-2.7c2-2.3,2.5-5.5,3.1-8.4c0.2-0.9,0.4-1.9,0.5-2.8C98.2,102.2,97.8,103.3,97.4,104.3z"/>
	</g>
</g>
<g>
	<path class="st0" d="M311.7,210.3c-5.1,2.1-8,7.5-12.7,10.3c-3.7,2.2-9.6,3.1-12.6-0.7"/>
	<g>
		<path class="st0" d="M310.9,209c-4.7,2-7.5,6.5-11.5,9.5c-3.3,2.5-8.9,4-12,0.3c-1.2-1.5-3.4,0.6-2.1,2.1
			c3.5,4.2,9.8,3.6,14.2,1.1c4.9-2.8,7.7-8.2,13-10.5C314.2,210.9,312.7,208.3,310.9,209L310.9,209z"/>
	</g>
</g>
<g>
	<path class="st0" d="M291,222.6c-12.6-13.1-31.7-19.3-49.9-21.1c-15.5-0.9-30.9,3.6-46.4,7.1c-16.4,5.3-31.8,9.8-48.2,13.3
		c-4.5,0.9-8.2,0.9-12.7,1.8c-28.2,3.6-52.8-6.2-78.3-16c-1.8-0.9-4.5,0-5.5,0.9c-3.6,10.7,1.8,23.1,9.1,32
		c10.9,13.3,29.1,16.9,45.5,23.1c23.7,8,48.2,8.9,72.8,12.4c20,1.8,37.3,8.9,57.3,12.4c2.7,0,5.5-0.9,7.3-1.8
		c13.7-8,25.5-15.1,38.2-24c8.2-6.2,14.6-12.4,19.8-21.6c4.4,3.7-1.7,3.5,0,0c4.4,3.7,9.1,7,14,10c4,2.4,9.7,6.2,13.1,1
		c5.8-8.9-0.1-22.8-3.9-31.2c-1.8-4.1-4.5-12.5-10.6-10.9"/>
	<g>
		<path class="st0" d="M292,221.5c-11.6-12-28-18.2-44.2-20.7c-4.4-0.7-8.8-1.1-13.3-0.9c-5,0.2-10,0.8-14.9,1.6
			c-5,0.9-9.9,2-14.8,3.1c-5,1.2-10,2.3-15,3.9c-9.5,3-19.2,5.9-28.9,8.4c-4.9,1.2-9.8,2.5-14.7,3.5c-2.3,0.5-4.6,0.7-6.9,1
			c-2.4,0.3-4.8,0.7-7.2,1c-18.9,2.1-37.4-2.1-55.2-8.3c-4.4-1.5-8.8-3.1-13.1-4.8c-2.3-0.9-4.5-1.7-6.8-2.6
			c-1.9-0.7-3.6-1.1-5.6-0.5c-0.8,0.2-1.5,0.6-2.2,1.1c-0.8,0.6-1,1.6-1.2,2.6c-0.5,1.9-0.7,3.9-0.7,5.9c0,4,0.9,8.1,2.3,11.9
			c2.9,7.6,7.8,14.8,14.2,19.9c6.1,4.9,13.3,8.1,20.6,10.8c3.8,1.4,7.7,2.7,11.6,4c4.1,1.4,8.1,2.9,12.2,4.2
			c9.5,2.9,19.3,4.8,29.1,6.2c9.8,1.4,19.7,2.4,29.5,3.6c9.8,1.2,19.6,2.3,29.3,4.5c9.3,2.1,18.4,4.9,27.7,7.1
			c2.4,0.6,4.7,1.1,7.1,1.5c1.2,0.2,2.4,0.5,3.6,0.7c1.2,0.1,2.5-0.1,3.6-0.4c4.5-0.9,8.4-3.8,12.3-6.1c8.1-4.8,16.2-9.8,24-15
			c7.2-4.8,14.2-10,19.9-16.7c2.7-3.1,5-6.5,7-10c-0.8,0.1-1.6,0.2-2.4,0.3c0.1,0.1,1.1,1.2,1.2,1.2c0.1,0-0.1-0.1,0-0.4
			c0.5-0.9,0.5-0.7,1.1-0.7c-0.3,0,0-0.1,0,0c0,0.1,0-0.3,0.1-0.5c-0.8,0.1-1.6,0.2-2.4,0.3c5.4,4.5,11.2,8.6,17.5,12
			c2.3,1.3,5.1,2.4,7.8,1.9c2.8-0.6,4.5-3.1,5.5-5.6c2.4-5.6,1.4-12.1-0.3-17.8c-1.5-5.3-3.9-10.2-6-15.3c-2-4.6-5.2-10.2-11.1-8.9
			c-1.9,0.4-1.1,3.3,0.8,2.9c4-0.9,6.2,4,7.5,7c1.8,4.2,3.8,8.4,5.2,12.7c1.7,4.9,3,10.4,2,15.5c-0.4,2.1-1.4,5.3-3.5,6.3
			c-1.9,0.9-4.3-0.2-6-1.1c-6.1-3.2-11.9-7.3-17.2-11.7c-0.7-0.5-1.9-0.6-2.4,0.3c-0.9,2-0.4,5,2.4,5c1.1,0,2-0.9,2.1-2
			c0-1.3-1.1-2.5-2.1-3.3c-0.7-0.6-1.8-0.6-2.4,0.3c-4,7.1-9.4,13.1-15.7,18.3c-6.9,5.7-14.8,10.5-22.4,15.2
			c-3.9,2.4-7.8,4.8-11.8,7.2c-3.9,2.3-7.8,5.3-12.3,5.9c-2.3,0.4-4.8-0.4-7.1-0.9c-2.4-0.5-4.7-1-7-1.6c-4.5-1.1-9-2.3-13.5-3.5
			c-8.8-2.4-17.8-4.6-26.8-5.7c-9.6-1.2-19.2-2.4-28.8-3.5c-9.5-1.1-19.1-2.3-28.5-4.2c-4.8-1-9.5-2.1-14.1-3.4
			c-4.2-1.2-8.2-2.8-12.3-4.1c-14.4-4.9-30.1-9.3-39.6-22.1c-4.8-6.4-8.6-14.3-8.4-22.5c0-1.8,0.2-3.9,0.9-5.6c0.2-0.4,0-0.1-0.1,0
			c0.1-0.1,0.4-0.2,0.6-0.3c0.3-0.1,0.7-0.2,1-0.3c1.1-0.2,2,0.1,3,0.5c4.3,1.6,8.6,3.3,12.9,4.9c16.9,6.2,34.3,11.5,52.5,11.6
			c4.7,0,9.4-0.2,14-1c4.4-0.8,8.9-1,13.3-1.9c9.5-2.1,18.8-4.5,28.2-7.2c4.7-1.4,9.4-2.8,14.1-4.3c4.8-1.5,9.6-2.6,14.4-3.8
			c9.5-2.2,19.1-4.4,28.9-4.8c8.5-0.3,17,1.1,25.2,3.4c7.7,2.2,15.2,5.3,21.8,9.8c3.2,2.2,6.2,4.7,9,7.5
			C291.2,225,293.4,222.9,292,221.5L292,221.5z"/>
	</g>
</g>
<g>
	<path class="st0" d="M327.1,187.4c0.3,2.5,2,4.6,3.9,6.3c1.9,1.7,4.1,3,5.9,4.9c0.5,0.5,0.9,1,1,1.7c0.3,1.5-1.3,2.9-2.9,3.1
		c-1.6,0.1-3.1-0.5-4.6-1.1c-4.3-1.5-8.8-2-13.3-2.4c-1.5-0.1-2.9-0.3-4.3,0.2c-0.9,0.3-1.7,0.8-2.5,1.3c-1.8,1.1-3.5,2.3-5.2,3.4
		c-3.9,2.6-13,4.2-17.3,2.3"/>
	<g>
		<path class="st0" d="M325.7,187.8c0.7,4.9,5.2,7.5,8.7,10.4c0.6,0.5,2.2,1.5,2.2,2.4c0.1,1-1.6,1.3-2.3,1.2
			c-1.2-0.1-2.3-0.6-3.4-1c-1.3-0.5-2.7-0.8-4-1.1c-2.6-0.6-5.2-0.9-7.8-1.1c-2.4-0.2-5-0.7-7.3,0.3c-2.3,1-4.3,2.6-6.4,4
			c-1.5,1-3,1.8-4.8,2.4c-2.1,0.6-4.2,1.1-6.4,1.2c-1.8,0.1-3.9,0.1-5.6-0.6c-0.8-0.3-1.6-0.2-2,0.5c-0.4,0.6-0.2,1.7,0.5,2
			c3.8,1.6,8.2,1.1,12,0.3c2-0.4,3.9-1.1,5.7-2c2.4-1.2,4.5-2.9,6.7-4.3c1.1-0.7,2.2-1.2,3.5-1.2c1.5,0,3,0.2,4.5,0.4
			c2.8,0.3,5.6,0.7,8.4,1.4c2.6,0.7,5.3,2.3,8,1.7c2.2-0.5,4.2-2.5,3.6-4.9c-0.6-2.6-3.8-4.4-5.8-6c-2.3-1.8-4.6-3.8-5-6.9
			c-0.1-0.8-1.1-1.2-1.8-1C325.9,186.2,325.6,187,325.7,187.8L325.7,187.8z"/>
	</g>
</g>
<g>
	<g>
		<path class="st2" d="M253.1,213.5c-5.6-2.2-11.6-3.1-17.5-3.5s-12-0.2-17.9,0.4c-12.2,1.3-24,4.3-35.8,7.7
			c-23.2,6.8-46.3,15.5-70.8,15.8c-6.6,0.1-13.3-0.5-19.8-2c-5.8-1.3-11.9-3.1-15.8-7.8c-1.3-1.5-3.4,0.7-2.1,2.1
			c3.4,4,8.3,6.1,13.2,7.5c5.7,1.6,11.7,2.5,17.6,2.9c12.1,0.7,24.2-0.9,36-3.6c24.1-5.4,47-15.2,71.5-19c6.8-1,13.7-1.6,20.5-1.4
			c6.8,0.2,13.7,1,20.1,3.5C254.1,217.1,254.9,214.2,253.1,213.5L253.1,213.5z"/>
	</g>
</g>
<g>
	<g>
		<path class="st2" d="M274.5,227.9c-0.9,0-1.7,0-2.6,0c-0.9,0-1.8,0.1-2.7,0.3c-0.8,0.2-1.6,0.7-2.1,1.5c-0.3,0.5-0.4,1.1-0.2,1.6
			c0.1,0.4,0.3,0.8,0.7,1c0.3,0.1,0.6,0.2,0.9,0.3c1.7,0.4,3.5,0.3,5.1-0.3c0.9-0.3,2-0.7,2.4-1.6c0.6-1.2,0-2.5-1.1-3.1
			c-0.9-0.5-2-0.7-3-0.8c-1-0.1-2,0.1-3,0.4c-0.7,0.2-1.3,1-1,1.9c0.2,0.7,1,1.3,1.8,1c0.2-0.1,0.5-0.1,0.8-0.2
			c0.1,0,0.2-0.1,0.3-0.1c-0.2,0-0.2,0-0.1,0c0.1,0,0.2,0,0.2,0c0.2,0,0.5,0,0.7,0c0.1,0,0.3,0,0.4,0c0.4,0-0.3-0.1,0.1,0
			c0.3,0,0.5,0.1,0.8,0.2c0.1,0,0.2,0.1,0.3,0.1c0.1,0,0.1,0,0.2,0.1c-0.2-0.1-0.3-0.1-0.2-0.1c0,0,0.1,0,0.1,0.1
			c0.1,0.1,0.1,0.1-0.1-0.1c0,0,0.1,0.1,0.1,0.1c0.1,0.1,0,0-0.1-0.1c-0.1-0.2-0.1-0.3-0.1-0.1c-0.1-0.2-0.1-0.5,0-0.7
			c0-0.1,0.1-0.2,0.2-0.3c0.2-0.1,0.2-0.2,0.1-0.1c-0.1,0-0.2,0.1-0.3,0.1c-0.1,0-0.5,0.3-0.1,0.1c-0.2,0.1-0.4,0.2-0.6,0.2
			c-0.2,0.1-0.5,0.1-0.7,0.2c-0.1,0-0.2,0-0.3,0.1c-0.1,0-0.1,0-0.2,0c0.2,0,0.2,0,0.1,0c-0.5,0-1,0.1-1.4,0c-0.1,0-0.3,0-0.4,0
			c-0.1,0-0.1,0,0.1,0c-0.1,0-0.1,0-0.2,0c-0.2,0-0.5-0.1-0.8-0.2c0.3,0.4,0.7,0.7,1,1c0-0.2,0-0.1,0,0.2c0-0.2,0-0.1,0,0.2
			c0-0.1,0-0.1-0.1,0.2c0.1-0.1,0-0.1-0.1,0.1c0,0,0.1-0.1,0.1-0.1c-0.2,0.1-0.2,0.2-0.1,0.1c0.1,0,0.2-0.1,0.2-0.1
			c0.1-0.1,0.1,0-0.1,0c0,0,0.1,0,0.2-0.1c0.1,0,0.2-0.1,0.3-0.1c0.4-0.1-0.2,0,0.1,0c0.1,0,0.3,0,0.4,0c1.2-0.1,2.5-0.2,3.8-0.1
			c0.8,0,1.5-0.7,1.5-1.5C276,228.5,275.3,227.9,274.5,227.9L274.5,227.9z"/>
	</g>
</g>
<g>
	<g>
		<path class="st2" d="M249.3,242.3c-2,0.5-3.9,1.1-5.8,1.9c-0.6,0.2-1.1,0.7-1.1,1.5c0,0.6,0.4,1.3,1.1,1.5
			c1.1,0.2,2.3,0.2,3.4-0.1c-0.5-0.8-1-1.7-1.5-2.5c0,0-0.1,0.1-0.2,0.1c0.2-0.1,0.2-0.1,0.1,0c-0.1,0.1-0.2,0.2-0.3,0.2
			c-0.2,0.1-0.4,0.2-0.6,0.4c-0.1,0-0.1,0.1-0.2,0.1c-0.2,0.1-0.1,0.1,0.1,0c-0.1,0.1-0.2,0.1-0.3,0.1c-0.2,0.1-0.5,0.2-0.8,0.2
			c-0.8,0.2-1.3,1.1-1,1.9c0.3,0.8,1,1.2,1.8,1c1.3-0.3,2.5-1,3.5-1.8c0.5-0.4,0.6-1.3,0.2-1.8c-0.3-0.5-1-0.9-1.7-0.7
			c-0.2,0.1-0.4,0.1-0.6,0.1c-0.2,0-0.1,0,0,0c-0.1,0-0.3,0-0.3,0c-0.2,0-0.4,0-0.5,0c0,0-0.1,0-0.2,0c-0.1,0-0.1,0,0.1,0
			c-0.1,0-0.3,0-0.3-0.1c0,1,0,1.9,0,2.9c1.9-0.7,3.8-1.4,5.8-1.9c0.8-0.2,1.3-1.1,1-1.9C250.8,242.6,250.1,242.1,249.3,242.3
			L249.3,242.3z"/>
	</g>
</g>
<g>
	<g>
		<path class="st2" d="M237.2,256.7c-7.1,1.4-13.6,4.8-20.2,7.7c-6.7,2.9-14.2,5.5-21.5,4.1c-1.9-0.4-2.7,2.5-0.8,2.9
			c15.8,2.9,28.6-8.9,43.3-11.8C239.9,259.2,239.1,256.3,237.2,256.7L237.2,256.7z"/>
	</g>
</g>
<g>
	<g>
		<path class="st0" d="M80.9,216.5c0.4-5.5,2-10.9,4.5-15.8c-0.9-0.2-1.9-0.5-2.8-0.8c-0.3,5.9,0.1,11.7,1,17.5
			c0.1,0.7,0.2,1.5,0.4,2.2c0.1,0.7,0.2,1.5,0.5,2.2c0,0.1,0.1,0.3,0.1,0.4c0.2-0.2,0.4-0.4,0.6-0.6c0-0.1-0.8-0.4-0.9-0.4
			c-0.5-0.2-1-0.5-1.4-0.7c-1.4-0.8-3.6-3-1.9-4.6c1.4-1.3-0.7-3.4-2.1-2.1c-2.3,2.1-1.7,5.7,0.4,7.8c1.5,1.5,7,5.1,8.2,1.8
			c0.3-0.8,0.1-1.5-0.1-2.3c-0.2-1-0.4-2-0.6-3c-0.4-2-0.6-3.9-0.8-5.9c-0.4-4-0.5-8.1-0.3-12.1c0.1-1.5-2.1-2.1-2.8-0.8
			c-2.8,5.4-4.5,11.2-5,17.3C77.7,218.4,80.7,218.4,80.9,216.5L80.9,216.5z"/>
	</g>
</g>
<g>
	<g>
		<path class="st0" d="M97.7,221.8c-0.1-6.5-1.3-14.8,3.2-20.3c-0.8-0.4-1.7-0.7-2.6-1.1c0.6,9,1.2,18,1.7,27.1
			c0.6-0.5,1.3-1,1.9-1.5c-2.4-0.5-3.9-3-3.2-5.4c0.5-1.9-2.3-2.6-2.9-0.8c-1.1,3.9,1.3,8.2,5.3,9.1c0.9,0.2,2-0.4,1.9-1.5
			c-0.6-9-1.2-18-1.7-27.1c-0.1-1.2-1.7-2.1-2.6-1.1c-5.1,6.2-4.2,14.8-4,22.4C94.7,223.7,97.7,223.7,97.7,221.8L97.7,221.8z"/>
	</g>
</g>
<g>
	<g>
		<path class="st0" d="M114,230c-0.7-8.8-0.9-18.2,4.1-25.9c-0.9-0.2-1.9-0.5-2.8-0.8c0,5.3,0.5,10.5,1.5,15.7
			c0.2,1.2,0.5,2.5,0.8,3.7c0.1,0.6,0.3,1.2,0.4,1.8c0.2,0.6,0.2,1.5,0.5,2.1c-0.2-0.4,0.5-0.2-0.2-0.3c-0.3,0-0.7,0.1-1,0.1
			c-0.7,0.1-1.3,0.1-2,0.1c-0.8,0-2.5,0.1-2.4-1.1c0.2-1.9-2.9-1.9-3,0c-0.3,3.5,3.5,4.2,6.2,4c1.4-0.1,3.4,0,4.6-1
			c1.3-1.1,0.7-2.7,0.3-4.1c-1.8-6.9-2.7-14-2.8-21.2c0-1.5-2-2-2.8-0.8c-5.3,8.1-5.2,18.1-4.5,27.4
			C111.2,231.9,114.2,231.9,114,230L114,230z"/>
	</g>
</g>
<g>
	<g>
		<path class="st0" d="M134.1,228.1c-3.5-6.9-3.6-15.1-0.7-22.2c-1-0.1-2-0.3-3-0.4c0.4,4.1,1,8.1,2,12.1c0.5,2,1,4,1.6,5.9
			c0.2,0.7,0.8,1.6,0.2,2.2c-0.2,0.2-0.5,0.3-0.7,0.4c-0.3,0.1-0.5,0.2-0.8,0.3c-0.3,0.1-0.3,0.3-0.2,0.6c1.2-1.5-1.5-3-2.6-1.5
			c-0.7,0.9-0.5,2.3,0.3,3.1c1,1,2.4,1,3.7,0.6c1.1-0.4,2.2-0.9,2.9-1.8c0.9-1.1,0.7-2.5,0.3-3.8c-1.8-5.9-3.1-11.9-3.7-18.1
			c-0.2-1.7-2.3-2-3-0.4c-3.3,7.9-2.8,16.9,1,24.5C132.4,231.4,135,229.8,134.1,228.1L134.1,228.1z"/>
	</g>
</g>
<g>
	<g>
		<path class="st0" d="M149.2,221.6c-0.9-7-0.1-14,2.4-20.6c-1,0-1.9,0-2.9,0c1.3,5.1,2.7,10.1,4,15.2c0.3,1.2,0.7,2.5,1,3.7
			c0.1,0.3,0.6,1.5,0.5,1.8c0.1-0.2-0.5,0.1-0.7,0.1c-1.7,0.2-3.2-1.1-3.5-2.6c-0.4-1.9-3.3-1.1-2.9,0.8c0.5,2.5,2.6,4.3,5.1,4.8
			c2.7,0.5,5.5-1.1,4.8-4.1c-0.8-3.4-1.8-6.7-2.6-10c-0.9-3.5-1.8-7-2.7-10.4c-0.4-1.5-2.4-1.3-2.9,0c-2.6,6.8-3.4,14.2-2.5,21.4
			c0.1,0.8,0.6,1.5,1.5,1.5C148.4,223.1,149.3,222.4,149.2,221.6L149.2,221.6z"/>
	</g>
</g>
<g>
	<g>
		<path class="st0" d="M173.6,215.5c-1.5-4.1-2.1-8.4-1.9-12.8c-1,0-2,0-3,0c0.2,4.5,1.5,9,3.8,12.9c0.1-0.6,0.2-1.2,0.2-1.8
			c-0.2,0.2-0.1,0.2,0.4-0.1c0.5,0.3,0.7,0.4,0.4,0.1c-0.5-0.6-1.6-0.5-2.1,0c-0.6,0.6-0.5,1.5,0,2.1c0.8,1,2.6,1,3.4,0
			c0.4-0.5,0.6-1.2,0.2-1.8c-2-3.5-3.2-7.4-3.4-11.4c-0.1-1.9-2.9-1.9-3,0c-0.2,4.6,0.5,9.3,2,13.6c0.3,0.8,1,1.3,1.8,1
			C173.3,217.2,173.8,216.3,173.6,215.5L173.6,215.5z"/>
	</g>
</g>
<g>
	<g>
		<path class="st0" d="M54.2,148.5c-0.7,4.4-1,8.7-0.1,13.1c0.9,4.3,2.6,8.3,4.2,12.4c0.7,1.8,3.2,1.1,2.9-0.8
			c-0.5-2.9-0.6-5.8-0.3-8.6c0.3-2.9,1.4-5.5,2.1-8.3c0.7-2.4,0-4.8-1.6-6.6c-1.8-2-4.6-2.8-7.2-3c0.2,0.9,0.5,1.9,0.8,2.8
			c0,0,0.1,0,0.1,0c1.9,0,1.9-3,0-3c-0.6,0-1.1,0.1-1.6,0.4c-1.4,0.8-0.6,2.7,0.8,2.8c2.2,0.2,4.6,0.9,5.7,3c1.1,2.1-0.4,4.5-1,6.6
			c-1.3,4.8-1.5,9.8-0.6,14.8c1-0.3,1.9-0.5,2.9-0.8c-1.6-3.7-3.1-7.5-4-11.5c-1-4.2-0.7-8.2-0.1-12.4
			C57.4,147.4,54.5,146.6,54.2,148.5L54.2,148.5z"/>
	</g>
</g>
<g>
	<g>
		<path class="st0" d="M72.8,152.9c-1.8,8.2-0.7,16.9,3.3,24.3c0.8,1.6,3,0.4,2.7-1.2c-0.8-4.9-0.3-9.9,1.2-14.5
			c0.7-2.1,1.4-4.1-0.2-6c-1.2-1.5-3.2-2.1-5-1.5c-1.8,0.6-1,3.5,0.8,2.9c1.4-0.5,2.4,0.7,2.1,2c-0.2,1-0.7,1.9-0.9,2.9
			c-0.3,1-0.5,2.1-0.7,3.1c-0.8,4-0.8,8-0.1,12c0.9-0.4,1.8-0.8,2.7-1.2c-3.5-6.7-4.6-14.6-3-22C76.1,151.8,73.2,151,72.8,152.9
			L72.8,152.9z"/>
	</g>
</g>
<g>
	<g>
		<path class="st0" d="M96.9,155.7c-2.7,0.5-3.6,3.3-3.6,5.8c0,3,0.3,6.1,0.7,9.1c0.3,3.1,0.8,6.2,1.3,9.3c0.3,1.4,0.5,2.9,0.8,4.3
			c0.3,1.2,0.3,2.9,1.4,3.8c0.9,0.7,2.2,0.5,2.8-0.4c0.7-1,0.5-2.8,0.5-4c0-2.9-0.6-5.9-0.3-8.8c0.4-2.9,1.8-5.6,2.8-8.3
			c0.8-2.3,1.6-4.9,0.4-7.2c-1.2-2.3-4.2-3.3-6.5-2.2c-2.2,1.1-3.3,4-2.3,6.2c0.3,0.8,1,1.3,1.8,1c0.7-0.2,1.4-1.1,1-1.9
			c-0.4-0.9-0.3-1.9,0.5-2.6c0.8-0.6,2.1-0.4,2.7,0.4c0.8,1,0.4,2.5,0.2,3.5c-0.4,1.5-1,2.9-1.6,4.4c-1.1,2.8-2,5.6-2,8.7
			c0,1.5,0.2,3.1,0.3,4.6c0,0.8,0.1,1.5,0.1,2.3c0,0.4,0,0.8,0,1.1c0,0.1,0,0.3,0,0.5c-0.2,0.7,0.1,0.7,0.8,0
			c0.3,0.1,0.7,0.3,1.1,0.4c-0.3-0.2-0.3-1.1-0.4-1.5c-0.1-0.6-0.3-1.3-0.4-1.9c-0.2-1.1-0.5-2.2-0.7-3.3c-0.5-2.5-0.8-5-1.1-7.5
			c-0.3-2.4-0.5-4.8-0.6-7.2c-0.1-1.5-0.9-5.3,1.3-5.7C99.6,158.3,98.8,155.4,96.9,155.7L96.9,155.7z"/>
	</g>
</g>
<g>
	<g>
		<path class="st0" d="M85.2,154.9c-1.8,9.2-1.1,18.8,3.3,27.2c0.8,1.6,3,0.4,2.7-1.2c-0.8-4.8-1.5-9.9-0.7-14.8
			c0.4-2.3,1.8-4.7,1.3-7c-0.3-1.8-1.9-3.4-3.8-3.3c-1.9,0.2-1.9,3.2,0,3c2-0.2,0.2,3.9,0,4.7c-0.5,1.9-0.8,3.9-0.8,5.8
			c-0.2,4.1,0.5,8.3,1.1,12.4c0.9-0.4,1.8-0.8,2.7-1.2c-4-7.6-4.6-16.5-3-24.9C88.5,153.8,85.6,153,85.2,154.9L85.2,154.9z"/>
	</g>
</g>
<g>
	<g>
		<path class="st0" d="M111.7,162.3c-1.8,6.6-1.2,13.6,1.7,19.9c0.6,1.3,2.9,0.7,2.8-0.8c-0.4-4-0.3-8,0.4-12
			c0.3-1.9,1.1-3.9,0.6-5.8c-0.4-1.6-2-3-3.7-2.8c-0.8,0.1-1.5,0.6-1.5,1.5c0,0.7,0.7,1.6,1.5,1.5c1.3-0.2,0.7,2.1,0.6,2.8
			c-0.3,1.6-0.6,3.2-0.8,4.9c-0.4,3.3-0.4,6.6-0.1,9.9c0.9-0.2,1.9-0.5,2.8-0.8c-2.5-5.5-3-11.8-1.3-17.5
			C115.1,161.2,112.2,160.5,111.7,162.3L111.7,162.3z"/>
	</g>
</g>
<g>
	<g>
		<path class="st0" d="M137.1,166.4c-2.1,6.8-1,14.5,2.8,20.5c0.8,1.2,2.9,0.8,2.8-0.8c-0.2-4.5,0.8-9,2.9-12.9
			c0.5-0.9,1.1-1.9,0.8-3c-0.2-1-1-1.7-2-2c-2.1-0.7-4.7-0.7-6.9-0.5c-0.8,0.1-1.5,0.6-1.5,1.5c0,0.7,0.7,1.6,1.5,1.5
			c1.9-0.2,3.9-0.3,5.7,0.2c0,0,0.4,0.1,0.4,0.1c0.2,0.1,0.1,0-0.2-0.3c0,0.1-0.1,0.1-0.1,0.2c-0.3,0.2-0.5,0.9-0.6,1.2
			c-0.5,0.9-0.8,1.8-1.2,2.7c-1.4,3.6-2,7.5-1.9,11.3c0.9-0.2,1.9-0.5,2.8-0.8c-3.4-5.4-4.3-12.1-2.5-18.2
			C140.6,165.3,137.7,164.5,137.1,166.4L137.1,166.4z"/>
	</g>
</g>
<g>
	<g>
		<path class="st0" d="M125,164.4c-2.2,0.1-2.2,2.5-2.4,4.1c-0.2,2.3-0.2,4.6-0.1,6.9c0.1,2.2,0.3,4.4,0.6,6.5
			c0.3,1.9,0.9,3.7,2.1,5.2c0.8,1,2.6,0.2,2.6-1.1c-0.1-4.3-0.3-8.7,1.1-12.9c0.6-1.8,2-3.6,2-5.6c0-0.9-0.4-1.8-1-2.5
			c-0.3-0.3-0.7-0.5-1.1-0.8c-0.3-0.1-0.8-0.3-1-0.5c-1.1-1.6-3.7-0.1-2.6,1.5c0.5,0.8,1.2,1.1,2,1.5c0.7,0.4,0.9,0.5,0.7,1.4
			c-0.3,0.9-0.8,1.7-1.2,2.6c-0.4,1-0.8,1.9-1,2.9c-1,4-1,8.2-0.8,12.3c0.8-0.4,1.7-0.7,2.6-1.1c-0.8-1-1.1-2.5-1.3-3.7
			c-0.2-1.6-0.4-3.2-0.5-4.9c-0.1-1.7-0.1-3.3-0.1-5c0-0.8,0-1.5,0.1-2.3c0-0.4,0-0.8,0.1-1.2c0-0.2,0-0.4,0-0.6
			c0.1-0.5-0.1-0.5-0.7,0.1C127,167.4,127,164.4,125,164.4L125,164.4z"/>
	</g>
</g>
<g>
	<g>
		<path class="st0" d="M159.8,172.1c-0.4,5.1-0.6,10.6,2.3,15c0.8,1.2,2.8,0.8,2.8-0.8c-0.1-3.6,1.4-7.1,4.2-9.5
			c0.8-0.7,1.7-1.3,1.6-2.6c-0.1-1.3-1.2-1.8-2.3-2.1c-2.3-0.7-4.6-0.9-7-0.5c-0.8,0.1-1.2,1.1-1,1.9c0.2,0.9,1,1.2,1.8,1
			c1-0.1,2.1-0.1,3.1,0c0.5,0.1,1,0.2,1.5,0.3c0.2,0.1,0.5,0.1,0.8,0.2c0.2,0,0.3,0.1,0.5,0.2c-0.2,0-0.3-0.1-0.3-0.3
			c0-0.3,0-0.5,0-0.8c0-0.1-0.2,0.2-0.3,0.2c-0.2,0.2-0.5,0.4-0.7,0.6c-0.4,0.4-0.9,0.8-1.2,1.2c-0.8,0.9-1.5,2-2.1,3
			c-1.1,2.2-1.7,4.7-1.6,7.2c0.9-0.2,1.9-0.5,2.8-0.8c-2.6-4-2.2-9-1.9-13.5c0.1-0.8-0.7-1.5-1.5-1.5
			C160.4,170.6,159.8,171.2,159.8,172.1L159.8,172.1z"/>
	</g>
</g>
<g>
	<g>
		<path class="st0" d="M68.5,213.6c-0.2-6.8,2-13.5,6.3-18.7c-0.8-0.4-1.7-0.7-2.6-1.1c-0.1,5.7,0.4,11.3,1.4,16.9
			c0.2,1.3,0.6,2.5,0.8,3.8c0,0.1,0.1,0.5,0,0.6c-0.1,0.2,0,0-0.3,0.1c-0.5,0.1-1.1,0-1.6-0.1c-2-0.3-4.7-1.7-4.1-4.2
			c0.5-1.9-2.4-2.7-2.9-0.8c-0.8,3.2,1.2,6.1,4.1,7.3c2.4,1,7.1,1.8,7.6-1.7c0.2-1.6-0.4-3.3-0.7-4.8c-0.4-1.9-0.7-3.7-0.9-5.6
			c-0.5-3.8-0.6-7.5-0.6-11.3c0-1.2-1.7-2.1-2.6-1.1c-4.8,5.9-7.4,13.3-7.2,20.9C65.6,215.5,68.6,215.5,68.5,213.6L68.5,213.6z"/>
	</g>
</g>
<g>
	<g>
		<path class="st0" d="M58.3,154c0-0.4,0-0.8,0-1.2c-1,0-2,0-3,0c0,2.7,0,5.5,0,8.2c1,0,2,0,3,0c-0.3-2.9,0.2-5.7,1.2-8.4
			c-1-0.1-2-0.3-3-0.4c0,3.9-0.6,7.8-1.7,11.6c1,0.1,2,0.3,3,0.4c0.3-3.7,1.2-7.4,2.6-10.8c-0.9-0.2-1.9-0.5-2.8-0.8
			c0.2,1.9-0.1,3.7-0.8,5.4c-0.3,0.8,0.3,1.6,1,1.9c0.9,0.2,1.5-0.3,1.8-1c0.8-2,1.1-4.1,0.9-6.2c-0.1-0.7-0.4-1.3-1.1-1.5
			c-0.6-0.2-1.4,0.1-1.7,0.7c-1.7,3.9-2.7,8-3,12.3c-0.1,1.7,2.5,2,3,0.4c1.2-4,1.8-8.2,1.8-12.4c0-0.7-0.6-1.4-1.3-1.5
			c-0.8-0.1-1.4,0.4-1.7,1.1c-1.2,2.9-1.6,6.1-1.3,9.2c0.1,0.8,0.6,1.5,1.5,1.5c0.8,0,1.5-0.7,1.5-1.5c0-2.7,0-5.5,0-8.2
			c0-1.9-3-1.9-3,0c0,0.4,0,0.8,0,1.2C55.3,155.9,58.3,156,58.3,154L58.3,154z"/>
	</g>
</g>
<g>
	<g>
		<path class="st0" d="M74.3,159.2c0,2.2,0,4.5,0,6.7c1,0,2,0,3,0c0-2.6,0.1-5.3,0.4-7.9c0.1-0.7-0.6-1.4-1.3-1.5
			c-0.7-0.1-1.5,0.3-1.7,1.1c-0.2,1.1-0.3,2.2-0.5,3.4c-0.1,0.8,0.2,1.6,1,1.9c0.8,0.2,1.6-0.3,1.8-1c0.2-0.6,0.5-1.2,0.7-1.9
			c0.1-0.3,0.2-0.6,0.3-0.9c0-0.1,0.1-0.3,0.1-0.4c0-0.1,0.1-0.2,0.1-0.2c0.2-0.5,0-0.3-0.7,0.6c-0.3,0-0.5,0-0.8,0c0,0,0,0,0.1,0
			c-0.3-0.2-0.6-0.5-0.9-0.7c-0.1-0.2-0.1-0.4-0.2-0.6c0.1-0.2,0.1-0.5,0.2-0.8c0,0,0,0,0,0c0.2-0.2,0.4-0.4,0.5-0.5c0,0,0,0,0,0
			c0.4,0,0.8-0.1,1.2-0.1c0,0,0,0,0,0c-0.7-0.3-1.7,0.3-1.8,1c-0.2,0.9,0.3,1.5,1,1.9c1.2,0.5,2.3-0.9,2-2c-0.4-1.4-2.1-1.5-2.9-0.4
			c-0.5,0.6-0.6,1.5-0.9,2.2c-0.2,0.7-0.5,1.4-0.8,2.1c1,0.3,1.9,0.5,2.9,0.8c0.2-1.1,0.3-2.2,0.5-3.4c-1-0.1-2-0.3-3-0.4
			c-0.3,2.6-0.4,5.3-0.4,7.9c0,0.8,0.7,1.5,1.5,1.5c0.8,0,1.5-0.7,1.5-1.5c0-2.2,0-4.5,0-6.7c0-0.8-0.7-1.5-1.5-1.5
			C75,157.7,74.3,158.3,74.3,159.2L74.3,159.2z"/>
	</g>
</g>
<g>
	<g>
		<path class="st0" d="M85.8,161.4c-0.1,0.9-0.2,1.9-0.3,2.8c0,0.3,0.2,0.8,0.4,1.1s0.5,0.4,0.9,0.4c0.7,0.1,1.5-0.3,1.7-1.1
			c0.4-1.7,0.8-3.4,1.4-5.1c-1-0.1-2-0.3-3-0.4c0,0.4-0.1,0.7-0.1,1.1c0-0.1,0-0.3,0-0.4c-0.1,1-0.3,1.9-0.6,2.9c1,0.1,2,0.3,3,0.4
			c0-0.4,0-0.9,0.1-1.3c0,0.1,0,0.3,0,0.4c0.1-0.4,0.1-0.9,0.3-1.3c0.1-0.2,0.1-0.4,0.2-0.6c0-0.1,0.1-0.2,0.1-0.3
			c0-0.1,0-0.1,0.1-0.2c-0.1,0.2-0.1,0.2,0,0.1c0.2-0.4,0.3-0.7,0.2-1.2c-0.1-0.4-0.4-0.7-0.7-0.9c-0.7-0.4-1.7-0.2-2,0.5
			c-0.7,1.5-1,3-1,4.6c0,0.8,0.6,1.4,1.3,1.5c0.7,0.1,1.5-0.4,1.7-1.1c0.4-1.4,0.6-2.9,0.8-4.4c0-0.4-0.2-0.8-0.4-1.1
			s-0.5-0.4-0.9-0.4c-0.8-0.1-1.4,0.4-1.7,1.1c-0.6,1.7-1,3.4-1.4,5.1c1,0.1,2,0.3,3,0.4c0.1-0.9,0.2-1.9,0.3-2.8
			c0-0.4-0.2-0.8-0.4-1.1c-0.3-0.3-0.7-0.5-1.1-0.4c-0.4,0-0.8,0.1-1.1,0.4C86,160.7,85.8,161,85.8,161.4L85.8,161.4z"/>
	</g>
</g>
<g>
	<g>
		<path class="st0" d="M80.8,159.2c0-0.2,0-0.5,0-0.7c0,0.1,0,0.3,0,0.4c0-0.4,0.2-0.7,0.3-1c0,0.1-0.1,0.2-0.2,0.4
			c0.1-0.3,0.3-0.6,0.5-0.9c-0.1,0.1-0.2,0.2-0.2,0.3c0.1-0.1,0.1-0.2,0.2-0.2c0.3-0.3,0.4-0.7,0.4-1.1c0-0.4-0.2-0.8-0.4-1.1
			c-0.3-0.3-0.7-0.5-1.1-0.4c-0.4,0-0.8,0.1-1.1,0.4c-1,1.1-1.5,2.5-1.5,3.9c0,0.4,0.2,0.8,0.4,1.1c0.3,0.3,0.7,0.5,1.1,0.4
			c0.4,0,0.8-0.1,1.1-0.4C80.6,159.9,80.8,159.6,80.8,159.2L80.8,159.2z"/>
	</g>
</g>
<g>
	<g>
		<path class="st0" d="M101.1,161.1c0-0.3,0-0.6,0-0.9c0-1.7-2.5-2.1-3-0.4c-0.7,2.5-1.1,5.1-1.3,7.6c-0.2,1.7,2.5,2,3,0.4
			c0.6-2.1,0.9-4.2,1-6.4c0.1-1.4-2.2-2.1-2.8-0.8c-0.9,1.9-1.5,3.9-1.8,6c-0.1,0.8,0.2,1.6,1,1.9c0.7,0.2,1.7-0.2,1.8-1
			c0.4-2.1,0.2-4.1-0.7-6.1c-0.6-1.2-2.4-0.8-2.7,0.4c-1.2,3.7-0.7,7.6-0.2,11.3c0.1,0.7,0.5,1.4,1.3,1.5c0.7,0.1,1.5-0.3,1.7-1.1
			c1.1-4.2,2.7-8.2,4.7-12.1c-0.9-0.4-1.8-0.8-2.7-1.2c-0.3,0.9-0.6,1.7-0.9,2.6c-0.2,0.8,0.3,1.6,1,1.9c0.8,0.2,1.6-0.3,1.8-1
			c0.3-0.9,0.6-1.7,0.9-2.6c0.5-1.6-2-2.7-2.7-1.2c-2.1,4.1-3.8,8.4-5,12.8c1,0.1,2,0.3,3,0.4c-0.5-3.5-1-7.1,0.1-10.5
			c-0.9,0.1-1.8,0.2-2.7,0.4c0.5,1.2,0.7,2.5,0.4,3.8c1,0.3,1.9,0.5,2.9,0.8c0.2-1.8,0.7-3.6,1.5-5.2c-0.9-0.2-1.9-0.5-2.8-0.8
			c-0.1,1.9-0.4,3.7-0.9,5.6c1,0.1,2,0.3,3,0.4c0.2-2.3,0.6-4.6,1.2-6.8c-1-0.1-2-0.3-3-0.4c0,0.3,0,0.6,0,0.9
			C98.2,163,101.2,163,101.1,161.1L101.1,161.1z"/>
	</g>
</g>
<g>
	<g>
		<path class="st0" d="M125.7,166.5c-0.9,1.7-1.5,3.5-1.7,5.4c-0.1,0.4-0.1,0.8,0.2,1.2c0.2,0.3,0.4,0.5,0.7,0.6
			c0.7,0.3,1.5,0,1.9-0.6c0.7-1.3,1.3-2.6,1.8-4c-1-0.3-1.9-0.5-2.9-0.8c-0.3,1-0.6,2-0.9,3.1c1,0.3,1.9,0.5,2.9,0.8
			c0.1-0.6,0.3-1.3,0.5-1.9c0,0.1-0.1,0.2-0.2,0.4c0.1-0.2,0.2-0.5,0.3-0.7c0.4-0.7,0.2-1.7-0.5-2c-0.7-0.4-1.7-0.2-2,0.5
			c-0.5,0.9-0.8,1.9-1,2.9c-0.1,0.4-0.1,0.8,0.2,1.2c0.2,0.3,0.5,0.6,0.9,0.7c0.8,0.2,1.6-0.2,1.8-1c0.3-1,0.6-2,0.9-3.1
			c0.2-0.8-0.3-1.7-1-1.9c-0.8-0.2-1.6,0.2-1.8,1c-0.2,0.5-0.4,1.1-0.6,1.6c0-0.1,0.1-0.2,0.2-0.4c-0.3,0.7-0.7,1.4-1,2.1
			c0.9,0.4,1.8,0.8,2.7,1.2c0.2-1.4,0.6-2.8,1.1-4.1c0,0.1-0.1,0.2-0.2,0.4c0.1-0.3,0.3-0.7,0.5-1c0.3-0.7,0.2-1.7-0.5-2
			C127.1,165.6,126.1,165.7,125.7,166.5L125.7,166.5z"/>
	</g>
</g>
<g>
	<g>
		<path class="st0" d="M112.8,163.5c-0.8,1.8-1.2,3.6-1.1,5.5c0,0.8,0.5,1.4,1.3,1.5c0.7,0.1,1.5-0.3,1.7-1.1c0.2-1,0.5-1.9,0.8-2.9
			c0.2-0.5,0.3-0.9,0.5-1.4c0.1-0.2,0.2-0.5,0.3-0.7c0-0.1,0.1-0.4,0,0c0-0.1,0.1-0.3,0.2-0.4c0.2-0.4,0.3-0.7,0.2-1.2
			c-0.1-0.4-0.4-0.7-0.7-0.9c-0.7-0.3-1.7-0.2-2,0.5c-0.9,2-1.6,4-2,6.1c1,0.1,2,0.3,3,0.4c0-0.4,0-0.8,0-1.1c0-0.2,0-0.4,0.1-0.6
			c0,0.2,0,0.3,0,0c0-0.1,0-0.2,0-0.3c0.1-0.4,0.2-0.8,0.3-1.1c0.1-0.2,0.1-0.4,0.2-0.5c0-0.1,0.1-0.2,0.1-0.3c0.1-0.3-0.1,0.3,0,0
			c0.2-0.4,0.3-0.7,0.2-1.2c-0.1-0.4-0.4-0.7-0.7-0.9C114.2,162.6,113.1,162.8,112.8,163.5L112.8,163.5z"/>
	</g>
</g>
<g>
	<g>
		<path class="st0" d="M141.3,180.5c0.1-1.7,0.1-3.4,0.3-5.1c0.1-1.3,0.5-2.9,1.1-4c0.7-1.3-0.8-2.9-2-2c-1.9,1.2-3.1,3.4-2.9,5.7
			c0.1,0.8,0.6,1.5,1.5,1.5c0.9,0,1.4-0.7,1.5-1.5c0.2-1.7,0-3.5-0.6-5.1c-0.5,0.6-1,1.3-1.5,1.9c0.7,0,1.1,0,1.8,0.2
			c0,0,0.6,0.2,0.6,0.2c0,0-0.2-0.2-0.2-0.2c0-0.1,0-0.3,0-0.2c0,0-0.1,0.3,0,0.1c-0.1,0.1-0.1,0.3-0.2,0.4
			c-0.1,0.3-0.3,0.5-0.4,0.8c-0.3,0.6-0.6,1.3-0.9,2c-0.5,1.2-0.8,2.6-1,3.9c-0.1,1,0.4,1.9,1.4,2.1c1.1,0.3,2.1-0.6,2.2-1.7
			c0.1-0.8-0.7-1.5-1.5-1.5c-0.9,0-1.4,0.7-1.5,1.5c0,0,0,0.1,0,0.1c0.2-0.4,0.3-0.7,0.4-1.1c0,0,0.1-0.1,0.2-0.1
			c0.2-0.1,0.5-0.1,0.8-0.2c0.2,0,0.3,0.1,0.5,0.1c0.2,0.2,0.4,0.4,0.5,0.5c0.2,0.3,0,0.5,0.1,0.3c0-0.1,0-0.3,0.1-0.5
			c0.1-0.3,0.1-0.6,0.2-0.9c0.1-0.6,0.3-1.1,0.5-1.6c0.4-1,1-1.9,1.4-2.9c0.6-1.4,0.5-2.9-0.9-3.7c-1.1-0.7-2.6-0.9-3.9-0.9
			c-0.9,0-1.7,0.9-1.5,1.9c0.5,1.5,0.6,2.8,0.5,4.4c1,0,2,0,3,0c0-0.2,0-0.4,0-0.6c0-0.1,0-0.2,0-0.3c0,0.1,0,0.1,0,0
			c0-0.1,0.1-0.3,0.1-0.4c0-0.1,0.1-0.2,0.1-0.3c-0.1,0.1,0,0.1,0-0.1c0.1-0.2,0.2-0.4,0.3-0.5c0.1-0.2-0.1,0,0.1-0.2
			c0.1-0.1,0.3-0.3,0.4-0.4c0.1-0.1,0.2-0.1,0,0c0.1-0.1,0.2-0.1,0.2-0.2c-0.7-0.7-1.4-1.4-2-2c-1.8,3.2-1.7,7.1-1.8,10.7
			c0,0.8,0.7,1.5,1.5,1.5C140.7,182,141.3,181.4,141.3,180.5L141.3,180.5z"/>
	</g>
</g>
<g>
	<g>
		<path class="st0" d="M163.6,179.2c0.9-1.9,2-3.7,3.3-5.4c-0.9-0.4-1.8-0.8-2.7-1.2c0,0.1-0.1,0.3-0.2,0.5c-0.1,0.2,0,0,0-0.1
			c0,0.1-0.1,0.2-0.1,0.2c-0.1,0.3-0.3,0.6-0.5,0.8c0,0.1-0.1,0.1-0.1,0.2c-0.1,0.2,0,0,0-0.1c-0.1,0.1-0.2,0.3-0.3,0.4
			c-0.2,0.2-0.5,0.5-0.7,0.6c0.8,0.5,1.7,1,2.5,1.5c0-0.1,0-0.1,0.1-0.2c0.1-0.2,0,0,0,0.1c0.1-0.1,0.1-0.2,0.2-0.3
			c0.1-0.2,0.2-0.5,0.4-0.7c0.1-0.1,0.1-0.2,0.2-0.3c0.1-0.2-0.2,0.2-0.1,0.1c0,0,0.1-0.1,0.1-0.1c0.1-0.1,0.2-0.2,0.2-0.3
			c0,0,0.2-0.2,0,0c0,0.1-0.1,0.1-0.2,0.1c-0.1,0-0.1,0,0,0c-0.1,0-0.3,0-0.4,0c0,0,0.1,0,0.1,0c-0.1,0-0.3,0-0.4,0c0,0,0.1,0,0.1,0
			c-0.3-0.1-0.3-0.1-0.2-0.1c-0.4-0.2-0.2-0.1-0.1,0c0.2,0.2-0.2-0.3-0.1-0.1c0,0.1,0.1,0.2,0.2,0.2c0.4,0.5,0.8,0.9,1.4,1.1
			c0.6,0.1,1.2,0.1,1.7-0.2c0.7-0.4,1-1.2,0.8-2c-0.2-0.6-0.7-1-1.2-1.1c-0.6-0.1-1.1,0.2-1.5,0.7c-0.5,0.7-1,1.4-1.6,2.1
			c-0.2,0.3-0.2,0.8-0.2,1.2c0.1,0.4,0.4,0.7,0.7,0.9c0.3,0.2,0.8,0.3,1.2,0.1c0.4-0.1,0.7-0.4,0.9-0.7c0.5-0.7,1-1.4,1.6-2.1
			c-0.9-0.1-1.8-0.2-2.7-0.4c0,0,0,0,0,0c0-0.1,0-0.3,0-0.4c0,0,0,0.1,0,0.1c0-0.1,0-0.3,0-0.4c0,0.2,0.1,0.1,0.3-0.5
			c0.3-0.2,0.3-0.2,0.2-0.2c-0.1,0,0.5-0.1,0.2-0.1c0.1,0,0.3,0,0.4,0c-0.1,0-0.2,0-0.3,0c0.1,0,0.3,0,0.4,0c0,0-0.1,0-0.1,0
			c-0.1,0,0.3,0.2,0.2,0.1c-0.2-0.1,0.2,0.1,0.2,0.1c-0.2-0.1,0.2,0.3,0.1,0.1c-0.2-0.3-0.4-0.5-0.6-0.8c-0.6-0.7-1.6-1-2.5-0.6
			c-0.7,0.3-1.3,1-1.7,1.7c-0.4,0.6-0.7,1.2-0.9,1.9c-0.2,0.6,0.1,1.4,0.7,1.7c0.6,0.3,1.3,0.2,1.8-0.2c1.2-1,2.1-2.4,2.6-3.9
			c0.2-0.7-0.2-1.5-0.9-1.8c-0.3-0.1-0.7-0.2-1-0.1c-0.4,0.1-0.7,0.4-0.9,0.7c-1.3,1.7-2.3,3.5-3.3,5.4c-0.2,0.4-0.3,0.8-0.2,1.2
			c0.1,0.4,0.4,0.7,0.7,0.9C162.2,180.1,163.2,180,163.6,179.2L163.6,179.2z"/>
	</g>
</g>
<g>
	<g>
		<path class="st0" d="M149.1,208.1c-0.3,3.9-0.1,7.9,0.5,11.7c1-0.3,1.9-0.5,2.9-0.8c-0.8-2.4-1.5-4.7-2.2-7.1
			c-0.2-0.7-0.9-1.2-1.7-1.1c-0.8,0.1-1.2,0.7-1.3,1.5c-0.4,3.2-0.7,6.9,1.3,9.7c0.8,1,2.3,1,2.7-0.4c0.8-2.7,1.2-5.5,1-8.3
			c-1,0.1-2,0.3-3,0.4c0.8,2.5,1.8,4.9,2.9,7.3c0.5,1.1,2.5,0.9,2.7-0.4c0-0.3,0.1-0.6,0.2-0.9c0.1-0.8-0.2-1.6-1-1.9
			c-0.7-0.2-1.7,0.2-1.8,1c0,0.3-0.1,0.6-0.2,0.9c0.9-0.1,1.8-0.2,2.7-0.4c-1-2.1-1.9-4.4-2.6-6.6c-0.2-0.7-0.9-1.2-1.7-1.1
			c-0.7,0.1-1.4,0.7-1.3,1.5c0.2,2.6-0.1,5.1-0.8,7.5c0.9-0.1,1.8-0.2,2.7-0.4c-1.7-2.4-1.3-5.5-0.9-8.2c-1,0.1-2,0.3-3,0.4
			c0.7,2.4,1.4,4.8,2.2,7.1c0.3,0.8,1,1.3,1.8,1c0.8-0.2,1.2-1,1-1.9c-0.6-3.6-0.7-7.3-0.4-10.9c0.1-0.8-0.7-1.5-1.5-1.5
			C149.7,206.6,149.1,207.3,149.1,208.1L149.1,208.1z"/>
	</g>
</g>
<g>
	<g>
		<path class="st0" d="M129.3,214.9c0.1,2.8,0.5,5.6,1.2,8.3c0.5,1.6,3,1.3,3-0.4c0-2.9-0.4-5.8-1.1-8.7c-0.2-0.7-0.9-1.2-1.7-1.1
			c-0.7,0.1-1.4,0.7-1.3,1.5c0.4,3.9,1.4,7.6,3,11.1c0.3,0.7,1.4,0.9,2,0.5c0.8-0.4,0.9-1.3,0.5-2c-1.4-3-2.3-6.4-2.6-9.6
			c-1,0.1-2,0.3-3,0.4c0.7,2.6,1,5.2,1,7.9c1-0.1,2-0.3,3-0.4c-0.7-2.5-1.1-4.9-1.1-7.5c0-0.8-0.7-1.5-1.5-1.5
			C130,213.4,129.3,214.1,129.3,214.9L129.3,214.9z"/>
	</g>
</g>
<g>
	<g>
		<path class="st0" d="M113.6,210.7c0,4.6,0,9.2,0,13.8c0,0.7,0.6,1.4,1.3,1.5c0.7,0.1,1.5-0.3,1.7-1.1c0.3-1.8-0.2-3.5-0.5-5.3
			c-0.2-1-0.3-2.3,0.3-3.1c-0.8-0.2-1.7-0.4-2.5-0.7c0.6,2.7,1.3,5.4,1.9,8c0.3,1.4,2.7,1.5,2.9,0c0.3-1.9,0.2-3.7-0.2-5.6
			c-0.4-1.7-2.9-1.3-3,0.4c0,2,0.2,4.1,0.8,6c0.5,1.9,3.4,1.1,2.9-0.8c-0.5-1.7-0.7-3.5-0.7-5.2c-1,0.1-2,0.3-3,0.4
			c0.3,1.3,0.4,2.6,0.2,4c1,0,1.9,0,2.9,0c-0.6-2.7-1.3-5.4-1.9-8c-0.2-1-1.8-1.5-2.5-0.7c-1.1,1.3-1.5,2.9-1.3,4.6s1,3.5,0.7,5.1
			c1,0.1,2,0.3,3,0.4c0-4.6,0-9.2,0-13.8C116.6,208.8,113.6,208.8,113.6,210.7L113.6,210.7z"/>
	</g>
</g>
<g>
	<g>
		<path class="st0" d="M96.2,207.8c-0.2,3.7,0.1,7.4,0.7,11c0.1,0.7,1,1.2,1.7,1.1c0.8-0.1,1.2-0.7,1.3-1.5
			c0.3-3.4,0.4-6.8,0.2-10.2c-0.1-1.9-3-1.9-3,0c-0.1,4.6,0,9.2,0.2,13.8c0.1,1,1.3,2,2.3,1.3c1-0.7,1.5-1.8,1.1-3
			c-0.2-0.6-0.8-1.1-1.5-1.1c-0.6,0-1.3,0.5-1.5,1.1c-0.1,0.9-0.1,1.7,0.4,2.5c1,1.6,3.6,0.1,2.6-1.5c0.1,0.2-0.1-0.2-0.1-0.2
			c-1,0-1.9,0-2.9,0c0.1,0.2,0.1,0.2,0.1,0.1c0-0.2,0-0.3,0.2-0.4c0.8,0.4,1.5,0.9,2.3,1.3c-0.3-4.6-0.3-9.2-0.2-13.8c-1,0-2,0-3,0
			c0.1,3.4,0,6.8-0.2,10.2c1-0.1,2-0.3,3-0.4c-0.6-3.4-0.8-6.8-0.6-10.2C99.3,205.9,96.3,205.9,96.2,207.8L96.2,207.8z"/>
	</g>
</g>
<g>
	<g>
		<path class="st0" d="M79.2,208.1c0.3,3.5,1.1,6.9,2.3,10.1c0.3,0.7,0.9,1.2,1.7,1.1c0.8-0.1,1.2-0.7,1.3-1.5
			c0.2-2.8,0.3-5.6,0.2-8.4c0-0.8-0.7-1.5-1.5-1.5c-0.8,0-1.5,0.7-1.5,1.5c0,1.6,0,3.2,0,4.8c0,0.8,0.7,1.5,1.5,1.5
			c0.9,0,1.4-0.7,1.5-1.5c0.2-1.3,0-2.7-0.4-3.9c-0.2-0.6-0.8-1.1-1.5-1.1c-0.6,0-1.3,0.4-1.5,1.1c-0.2,1.1-0.4,2.3-0.6,3.4
			c1,0.1,2,0.3,3,0.4c0-0.6,0-1.2,0-1.8c0-0.8-0.7-1.5-1.5-1.5c-0.8,0-1.5,0.7-1.5,1.5c0,0.6,0,1.2,0,1.8c0,0.8,0.6,1.4,1.3,1.5
			c0.7,0.1,1.5-0.3,1.7-1.1c0.2-1.1,0.4-2.3,0.6-3.4c-1,0-1.9,0-2.9,0c0.4,1.1,0.5,2,0.3,3.1c1,0,2,0,3,0c0-1.6,0-3.2,0-4.8
			c-1,0-2,0-3,0c0.1,2.8,0,5.6-0.2,8.4c1-0.1,2-0.3,3-0.4c-1.2-3-1.9-6.2-2.2-9.3c-0.1-0.8-0.6-1.5-1.5-1.5
			C79.9,206.6,79.1,207.3,79.2,208.1L79.2,208.1z"/>
	</g>
</g>
<g>
	<g>
		<path class="st0" d="M70.8,201.9c-0.6,4.1-0.5,8.2,0,12.3c0.2,1.5,2.5,1.3,2.9,0c1.1-3.9,1-8.1-0.4-12c-0.2-0.6-0.8-1.1-1.5-1.1
			c-0.6,0-1.4,0.5-1.5,1.1c-0.5,3.9-0.4,7.7,0.5,11.6c0.4,1.7,2.9,1.3,3-0.4c0-4.9-0.5-9.8-1.6-14.5c-0.3-1.5-2.5-1.4-2.9,0
			c-1.4,5.1-2.5,10.4-2.1,15.8c0.2,2,2.8,1.9,3,0c0.1-1.1,0.2-2.2,0.3-3.4c0.1-0.8-0.8-1.5-1.5-1.5c-0.9,0-1.4,0.7-1.5,1.5
			c-0.1,1.1-0.2,2.2-0.3,3.4c1,0,2,0,3,0c-0.4-5.1,0.6-10.1,2-15c-1,0-1.9,0-2.9,0c1,4.5,1.5,9.1,1.5,13.7c1-0.1,2-0.3,3-0.4
			c-0.8-3.2-0.9-6.6-0.5-10c-1,0-1.9,0-2.9,0c1.2,3.4,1.4,6.9,0.4,10.4c1,0,1.9,0,2.9,0c-0.5-3.5-0.5-7.2,0-10.7
			c0.1-0.8-0.2-1.6-1-1.9C71.9,200.7,70.9,201.1,70.8,201.9L70.8,201.9z"/>
	</g>
</g>
<g>
	<g>
		<path class="st2" d="M53.3,151.8c0.2,3.3,0.5,6.5,1.1,9.7c0.1,0.8,1.1,1.3,1.8,1c0.8-0.3,1.2-1,1-1.9c-0.5-2.9-0.8-5.9-1-8.9
			c0-0.8-0.7-1.5-1.5-1.5C54.1,150.3,53.3,150.9,53.3,151.8L53.3,151.8z"/>
	</g>
</g>
<g>
	<g>
		<path class="st2" d="M56.4,153.9c1.5,0.4,3,0.8,4.5,1.2c0.8,0.2,1.7-0.2,1.8-1c0.2-0.8-0.2-1.6-1-1.9c-1.5-0.4-3-0.8-4.5-1.2
			c-0.8-0.2-1.7,0.2-1.8,1C55.1,152.9,55.6,153.7,56.4,153.9L56.4,153.9z"/>
	</g>
</g>
<g>
	<g>
		<path class="st2" d="M56.6,153.8c16,3.4,32.1,6.7,48.1,10.1c8,1.7,16,3.5,24,4.8c8.1,1.4,16.3,2.1,24.5,3.1
			c9.2,1,18.4,2.1,27.5,3.1c1.9,0.2,1.9-2.8,0-3c-8.2-0.9-16.4-1.9-24.6-2.8c-8.1-0.9-16.2-1.7-24.2-2.9c-8.1-1.2-16.1-3-24.1-4.7
			c-7.9-1.7-15.8-3.3-23.7-5c-8.9-1.9-17.9-3.8-26.8-5.6C55.5,150.5,54.7,153.4,56.6,153.8L56.6,153.8z"/>
	</g>
</g>
<g>
	<g>
		<path class="st2" d="M65.1,211.7c6.3,4.6,14.1,7.3,21.6,9.3c7.6,2,15.5,3,23.3,3.3c16.8,0.7,33.6-1.6,50.2-4.1
			c4.3-0.7,8.6-1.6,12.6-3.5c3.6-1.8,6.9-4.2,11-4.9c1.9-0.3,1.1-3.2-0.8-2.9c-3.5,0.6-6.5,2.4-9.5,4.1c-3.3,1.8-6.7,3.1-10.4,3.8
			c-8.1,1.6-16.4,2.5-24.6,3.4c-15.8,1.7-32,2.2-47.7-1.2c-8.4-1.9-17.2-4.6-24.2-9.8C65.1,207.9,63.6,210.5,65.1,211.7L65.1,211.7z
			"/>
	</g>
</g>
<g>
	<g>
		<path class="st2" d="M73.8,160.1c0.8,0.1,1.5,0.2,2.3,0.2c0.6,0.1,1.5,0.1,1.9,0.2c0,0,0.3,0.1,0.3,0.1c-0.1,0.1-0.3-0.3-0.3-0.3
			c-0.2-0.1,0.1-0.2-0.1,0c-0.1,0.1-0.1,0.4-0.2,0.5c-0.2,0.7-0.5,1.3-0.7,2c-0.8,2.8-1.3,5.6-1.5,8.5c0,0.8,0.7,1.5,1.5,1.5
			c0.9,0,1.5-0.7,1.5-1.5c0.2-3.3,0.9-6.5,2-9.5c0.3-0.8,0.6-1.6,0.3-2.4c-0.3-0.9-1-1.4-1.8-1.7c-0.8-0.2-1.6-0.2-2.4-0.3
			c-0.9-0.1-1.8-0.2-2.8-0.3c-0.8-0.1-1.5,0.8-1.5,1.5C72.3,159.5,73,160,73.8,160.1L73.8,160.1z"/>
	</g>
</g>
<g>
	<g>
		<path class="st2" d="M86.9,161.1c-0.1,3.8-0.5,7.5-1.1,11.2c-0.1,0.8,0.2,1.6,1,1.9c0.7,0.2,1.7-0.2,1.8-1c0.7-4,1.1-8,1.2-12
			c0-0.8-0.7-1.5-1.5-1.5C87.6,159.6,86.9,160.3,86.9,161.1L86.9,161.1z"/>
	</g>
</g>
<g>
	<g>
		<path class="st2" d="M96,162c-1.6,1.3-0.6,3.8,1.1,4.4c0.8,0.3,1.7,0.3,2.6,0.4c1,0,2,0.1,3,0.1c1.4,0.1,2.1-2.1,0.8-2.8
			c-2.6-1.3-5.4-1.7-8.3-1.2c-0.7,0.1-1.2,1-1.1,1.6c0.1,0.7,0.7,1.4,1.5,1.3c2.2-0.2,4.4-0.1,6.5,0.2c-0.3-0.7-0.6-1.5-0.9-2.2
			c-2.4,3.2-3.7,7.3-3.6,11.4c0,1.9,3,1.9,3,0c-0.1-3.6,1.1-7,3.2-9.9c0.5-0.7,0-2.1-0.9-2.2c-2.4-0.4-4.9-0.5-7.3-0.3
			c0.1,1,0.3,2,0.4,3c2-0.3,4.2,0.1,6,0.9c0.2-0.9,0.5-1.9,0.8-2.8c-1.2,0-2.4-0.1-3.7-0.2c-0.1,0-0.9,0-0.9-0.2
			c0-0.1,0.1,0.5,0.1,0.1c0,0.2-0.3,0.7-0.1,0.5c0.6-0.5,0.5-1.6,0-2.1C97.5,161.4,96.6,161.5,96,162L96,162z"/>
	</g>
</g>
<g>
	<g>
		<path class="st2" d="M111.7,167.2c0.8,0.6,1.8,0.9,2.7,0.9c-0.5-0.5-1-1-1.5-1.5c-0.2,3,0,6.1,0.5,9.1c0.2,0.8,1.1,1.3,1.8,1
			c0.8-0.3,1.2-1,1-1.9c-0.5-2.7-0.6-5.5-0.4-8.3c0.1-0.8-0.7-1.5-1.5-1.5c0,0-0.5,0-0.2,0c-0.2,0-0.3-0.1-0.4-0.1c0,0-0.1,0-0.1,0
			c0.1,0,0.1,0,0,0c-0.1-0.1-0.3-0.2-0.4-0.2c-0.6-0.5-1.7-0.1-2,0.5C110.8,166,111.1,166.7,111.7,167.2L111.7,167.2z"/>
	</g>
</g>
<g>
	<g>
		<path class="st2" d="M126.4,167.2c-0.8-0.6-2-0.2-2.5,0.6c-0.5,0.9-0.2,2,0.6,2.6c0.6,0.4,1.4,0.5,2.1,0.7
			c0.9,0.2,1.8,0.3,2.8,0.3c-0.4-0.8-0.9-1.5-1.3-2.3c-2.4,3.5-3.3,7.8-2.7,12c0.1,0.8,1.1,1.2,1.8,1c0.9-0.2,1.2-1,1-1.9
			c-0.5-3.4,0.5-6.9,2.4-9.7c0.7-1-0.2-2.2-1.3-2.3c-0.6,0-1.2,0-1.8-0.2c-0.3,0-0.6-0.1-0.9-0.2c-0.1,0-0.3-0.1-0.4-0.1
			c-0.1,0,0.1,0,0.3,0.2c0.1,0.2,0.1,0.5,0.2,0.8c-0.1,0.2-0.2,0.4-0.2,0.6c-0.2,0.1-0.4,0.3-0.7,0.4c-0.1,0-0.1,0-0.2,0
			c-0.2-0.1-0.5-0.1-0.8-0.2c0,0,0.1,0,0.1,0.1c0.7,0.5,1.7,0.1,2-0.5C127.4,168.5,127,167.7,126.4,167.2L126.4,167.2z"/>
	</g>
</g>
<g>
	<g>
		<path class="st2" d="M136.3,173.2c1.6,0,3.2,0,4.8,0c0.4,0,0.7,0,1.1,0c0.2,0,0.5,0,0.6,0c-0.4,0.1-0.3-1.3-0.7-0.9
			c-0.1,0.1-0.2,0.5-0.4,0.8c-0.2,0.4-0.3,0.8-0.5,1.2c-1,2.8-1.5,5.8-1.2,8.7c0.1,0.8,0.6,1.5,1.5,1.5c0.8,0,1.6-0.7,1.5-1.5
			c-0.3-3.2,0.3-6.3,1.7-9.2c0.5-1,0.6-2.1-0.3-3c-0.8-0.7-1.8-0.6-2.7-0.6c-1.8,0-3.7,0-5.5,0C134.4,170.2,134.4,173.2,136.3,173.2
			L136.3,173.2z"/>
	</g>
</g>
<g>
	<g>
		<path class="st2" d="M140.5,173.3c-1.1,1.3-1.7,2.9-1.8,4.6c0,1.3,1.7,2,2.6,1.1c1.8-2,3.5-3.9,5.3-5.8c0.5-0.6,0.6-1.6,0-2.1
			c-0.6-0.5-1.6-0.6-2.1,0c-1.8,2-3.5,3.9-5.3,5.8c0.8,0.4,1.7,0.7,2.6,1.1c0-0.1,0-0.3,0-0.4c0-0.2,0-0.1,0,0.1c0-0.1,0-0.1,0-0.2
			c0.1-0.3,0.1-0.6,0.2-0.9c0,0,0.1-0.2,0,0c-0.1,0.2,0-0.1,0-0.1c0.1-0.1,0.1-0.3,0.2-0.4s0.2-0.2,0.2-0.4c0,0,0.1-0.1,0.1-0.1
			c-0.2,0.3-0.1,0.1,0,0c0.5-0.6,0.6-1.5,0-2.1C142,172.8,141,172.6,140.5,173.3L140.5,173.3z"/>
	</g>
</g>
<g>
	<g>
		<path class="st2" d="M162.4,177.1c2.2-0.8,4.5-1,6.7-0.6c-0.2-0.8-0.4-1.7-0.7-2.5c-2.5,2.3-4.6,5-6.1,8.1
			c0.9,0.2,1.9,0.5,2.8,0.8c0-2.2,0.2-4.4,0.1-6.6c0-1.3-0.7-2.2-1.8-2.8c-1-0.5-2.1-0.9-3.1-1.4c-0.2,0.9-0.5,1.9-0.8,2.8
			c1.4,0,2.8,0.1,4.1,0.2c0.8,0,1.5-0.7,1.5-1.5c0-0.8-0.7-1.5-1.5-1.5c-1.4,0-2.8-0.1-4.1-0.2c-0.6,0-1.3,0.5-1.5,1.1
			c-0.1,0.6,0.1,1.4,0.7,1.7c0.9,0.4,1.8,0.8,2.7,1.2c0.2,0.1,0.4,0.2,0.6,0.3c0.1,0,0.2,0.1,0.3,0.1c0,0-0.1-0.1-0.1-0.1
			c-0.1-0.3,0,0,0,0.1c0,0.2,0,0.4,0,0.6c0,2-0.1,3.9-0.1,5.9c0,1.4,2.1,2.1,2.8,0.8c1.4-2.9,3.2-5.3,5.6-7.5
			c0.8-0.7,0.4-2.3-0.7-2.5c-2.8-0.5-5.6-0.3-8.3,0.6c-0.8,0.3-1.3,1-1,1.9C160.8,176.8,161.6,177.4,162.4,177.1L162.4,177.1z"/>
	</g>
</g>
<g>
	<g>
		<path class="st2" d="M169.3,204.6c0.3,3.1,1.4,6.1,3.2,8.6c0.5,0.6,1.3,1,2,0.5c0.6-0.4,1-1.4,0.5-2c-0.4-0.5-0.8-1.1-1.1-1.7
			c-0.2-0.3-0.3-0.6-0.5-1c-0.1-0.2-0.2-0.3-0.2-0.5c0.1,0.3-0.1-0.1-0.1-0.2c-0.2-0.6-0.5-1.3-0.6-1.9c-0.1-0.3-0.2-0.7-0.2-1
			c0-0.2-0.1-0.4-0.1-0.5c0,0.4,0-0.2,0-0.3c-0.1-0.8-0.6-1.5-1.5-1.5C170,203.1,169.2,203.7,169.3,204.6L169.3,204.6z"/>
	</g>
</g>
<g>
	<g>
		<path class="st2" d="M154.3,217.3c-1-3.5-1.7-7.1-2.1-10.7c-1,0.1-2,0.3-3,0.4c1.4,3.7,2.9,7.3,4.7,10.8c0.9-0.5,1.7-1,2.6-1.5
			c-2.5-3.7-4.1-7.9-4.5-12.3c-0.1-0.7-0.5-1.4-1.3-1.5c-0.7-0.1-1.5,0.3-1.7,1.1c-0.5,2.4-0.7,4.9-0.8,7.3c0,1.2,0,2.4,0.1,3.6
			c0,0.6,0.1,1.1,0.2,1.7c0,0.3,0.1,0.5,0.1,0.8c0,0.2,0,0.3,0,0.5c0.1-0.4,0.4-0.5,0.8-0.5c-0.1,1-0.3,2-0.4,3c1.4,0,2.9,0,4.3,0
			c1.9,0,1.9-3,0-3c-1.4,0-2.9,0-4.3,0c-1.7,0-2.1,2.5-0.4,3c1.6,0.4,2.9-0.9,3-2.4c0-0.7-0.1-1.4-0.2-2.1c-0.1-0.7-0.1-1.5-0.1-2.2
			c-0.1-2.9,0.1-5.9,0.7-8.7c-1-0.1-2-0.3-3-0.4c0.5,5,2.1,9.7,4.9,13.8c1.1,1.6,3.5,0.2,2.6-1.5c-1.6-3.3-3.1-6.6-4.3-10.1
			c-0.3-0.7-0.9-1.2-1.7-1.1c-0.7,0.1-1.4,0.7-1.3,1.5c0.4,3.9,1.1,7.7,2.2,11.5C152,220,154.9,219.2,154.3,217.3L154.3,217.3z"/>
	</g>
</g>
<g>
	<g>
		<path class="st2" d="M136.4,220.2c-1.5-3.2-2.2-6.8-2.1-10.4c0-0.8-0.7-1.5-1.5-1.5c-0.9,0-1.4,0.7-1.5,1.5
			c-0.2,1.6-0.1,3.3,0.1,4.9c0.1,0.8,0.2,1.6,0.4,2.4c0.1,0.3,0,0.7,0.1,1c0.1,0.2-0.1,0,0,0c0-0.1,0-0.1,0.1,0c0.1,0.1,0.1,0,0.2,0
			c-0.8-0.2-1.6,0.3-1.8,1c-0.2,0.9,0.3,1.5,1,1.9c1.3,0.6,2.5-0.7,2.7-1.9c0.2-0.6,0.1-1.3,0.1-1.9c0-0.7,0-1.5,0-2.2
			c0-2.8,0-5.7,0-8.5c0-1.9-3-1.9-3,0c0,2.2,0,4.3,0,6.5c0,1.1,0,2.1,0,3.2c0,0.5,0,1.1,0,1.6c0,0,0,0.6,0,0.5c0,0.1,0,0.1,0,0.2
			c0.1-0.4,0.4-0.5,1-0.4c-0.3,1-0.5,1.9-0.8,2.9c1.1,0.4,2.3-0.2,3-1.1c0.7-1,0.5-2.2,0.3-3.3c-0.5-2.2-0.6-4.4-0.4-6.6
			c-1,0-2,0-3,0c-0.1,4.1,0.8,8.2,2.5,11.9c0.3,0.7,1.4,0.9,2,0.5C136.6,221.8,136.8,220.9,136.4,220.2L136.4,220.2z"/>
	</g>
</g>
<g>
	<g>
		<path class="st2" d="M115.5,209.4c0.2,2.3,0.3,4.6,0.4,6.9c0,0.6,0.1,1.2,0.1,1.8c0,0.1,0,0.2,0,0.3c0,0.4,0.2,0.2,0.6-0.7
			c-0.2,0-0.6,0.1-0.8,0.2c-1.1,0.1-2.1,0.1-3.2,0c0.3,0.9,0.7,1.7,1.1,2.6c2.5-2.3,4.4-5.1,5.7-8.3c-1-0.1-2-0.3-3-0.4
			c-0.2,3,0.2,6,1.3,8.8c0.6-0.6,1.2-1.2,1.8-1.9c-1.4-0.5-3.4-0.1-3.8,1.6c-0.4,1.7,1.5,3.5,3.1,2.4c1-0.7,0.9-2.4-0.4-2.7
			c-1.6-0.5-3.2-0.5-4.9-0.3c-0.8,0.1-1.2,1.1-1,1.9c0.2,0.9,1,1.2,1.8,1c1.1-0.2,2.2,0,3.3,0.3c-0.1-0.9-0.2-1.8-0.4-2.7
			c0.4-0.3,1.2-0.1,1.3,0.4c0.1,0.4-0.2,0.8-0.5,1c0.2,0,0.2,0,0.1,0s-0.1,0,0.1,0c-0.2-0.1,0.3,0.1,0.4,0.1c1,0.4,2.3-0.8,1.8-1.9
			c-1-2.5-1.4-5.2-1.2-8c0.1-0.7-0.6-1.4-1.3-1.5c-0.8-0.1-1.3,0.4-1.7,1.1c-1.1,2.7-2.8,5-5,6.9c-0.4,0.4-0.5,1.1-0.3,1.6
			c0.3,0.6,0.8,0.9,1.4,0.9c1.4,0.1,2.7,0.1,4.1-0.1c0.7-0.1,1.4-0.3,1.9-0.9c0.5-0.6,0.4-1.3,0.4-2.1c-0.2-2.8-0.3-5.5-0.5-8.3
			c0-0.8-0.7-1.5-1.5-1.5C116.2,207.9,115.4,208.6,115.5,209.4L115.5,209.4z"/>
	</g>
</g>
<g>
	<g>
		<path class="st2" d="M96.2,220.9c1.2,1.5,2.9,2.2,4.7,1.8c0.7-0.1,1.1-0.8,1.1-1.5c0.1-3.8-0.3-7.5-0.9-11.2
			c-0.3-1.5-2.5-1.4-2.9,0c-0.5,1.8-0.6,3.7-0.5,5.6c0.1,0.7,0.2,1.6,0.1,2.2c-0.1,0.2,0,0-0.1,0.1c0,0-0.1,0.1,0,0.1
			c0.1,0,0.1,0-0.1,0c0.2,0,0.2,0,0.1,0c-0.2-0.1,0.4,0.2,0.1,0c0.2,0.6,0.5,1.1,0.7,1.7c1.2-3.2,2.4-6.5,3.5-9.8
			c0.3-0.8-0.3-1.6-1-1.9c-0.8-0.2-1.6,0.3-1.8,1c-1.1,3.3-2.3,6.6-3.5,9.8c-0.2,0.7,0.2,1.3,0.7,1.7c0.9,0.6,2.2,0.5,3.1-0.1
			c1-0.7,1.5-1.8,1.6-3c0.1-1.1-0.2-2.2-0.2-3.4c0-1.1,0.1-2.2,0.4-3.4c-1,0-1.9,0-2.9,0c0.6,3.5,0.9,7,0.8,10.5
			c0.4-0.5,0.7-1,1.1-1.5c-0.4,0.1-1.1-0.1-1.3-0.4c-0.5-0.6-1.3-1-2-0.5C96.1,219.2,95.7,220.3,96.2,220.9L96.2,220.9z"/>
	</g>
</g>
<g>
	<g>
		<path class="st2" d="M81.7,210c-0.2,2.8,0.5,5.6,1.9,8.1c0.7-0.7,1.4-1.4,2-2c-1.8-1-3.6-2.1-5.2-3.4c-0.6-0.5-1.5-0.1-1.9,0.4
			c-0.5,0.6-0.4,1.4,0.1,2c1.3,1.4,3.2,1.9,5,1.5c0.6-0.1,1.1-0.8,1.1-1.5c-0.1-3.3,0-6.6,0.5-9.9c-1-0.1-2-0.3-3-0.4
			c0.2,3.7,0.8,7.3,1.7,10.9c0.5,1.9,3.4,1.1,2.9-0.8c-0.8-3.3-1.4-6.7-1.5-10.1c0-0.7-0.5-1.4-1.3-1.5c-0.7-0.1-1.5,0.3-1.7,1.1
			c-0.5,3.6-0.7,7.1-0.6,10.7c0.4-0.5,0.7-1,1.1-1.5c-0.7,0.1-1.5-0.1-2-0.8c-0.6,0.8-1.2,1.6-1.8,2.4c1.7,1.3,3.4,2.4,5.2,3.4
			c1.3,0.7,2.8-0.7,2-2c-1.2-2-1.7-4.3-1.5-6.6c0-0.8-0.7-1.5-1.5-1.5C82.3,208.5,81.8,209.2,81.7,210L81.7,210z"/>
	</g>
</g>
<g>
	<g>
		<path class="st2" d="M73.6,202.6c-0.2,3.8,0.2,7.6,1.2,11.3c0.2,0.8,1.1,1.3,1.8,1c0.8-0.2,1.2-1.1,1-1.9c-0.9-3.4-1.2-7-1-10.5
			c0-0.8-0.7-1.5-1.5-1.5C74.3,201.1,73.7,201.8,73.6,202.6L73.6,202.6z"/>
	</g>
</g>
<g>
	<g>
		<path class="st2" d="M68.4,208.7c-0.2-0.7-0.4-1.4-0.5-2.1c0,0.1,0,0.3,0,0.4c-0.1-1-0.1-2,0-3c0-0.4-0.2-0.8-0.4-1.1
			c-0.3-0.3-0.7-0.5-1.1-0.4c-0.4,0-0.8,0.1-1.1,0.4c-0.3,0.3-0.4,0.6-0.4,1.1c-0.2,1.9,0,3.8,0.6,5.6c0.2,0.7,1,1.3,1.8,1
			C68.1,210.3,68.7,209.5,68.4,208.7L68.4,208.7z"/>
	</g>
</g>
<g>
	<g>
		<path class="st2" d="M60.7,155c-0.7,2.9-1.2,5.9-1.6,9c1,0,2,0,3,0c0.1-2.1,0.1-4.2-0.2-6.2c-0.3-2-1.5-3.7-3.5-4.1
			c-0.8-0.2-1.7,0.2-1.8,1c-0.2,0.8,0.2,1.6,1,1.9c0.1,0,0.6,0.2,0.3,0.1c0.2,0.1,0.3,0.2,0.5,0.3c-0.2-0.2,0.1,0.1,0.2,0.1
			c0,0,0.1,0.1,0.1,0.1c-0.1-0.1-0.1-0.1,0,0c0,0,0.3,0.5,0.2,0.3c0.1,0.2,0.1,0.4,0.2,0.6c0,0.1,0.1,0.3,0.1,0.5c0-0.3,0,0.3,0,0.4
			c0.2,1.7,0.2,3.5,0.1,5.2c0,0.8,0.7,1.5,1.5,1.5c0.9,0,1.4-0.7,1.5-1.5c0.3-2.6,0.8-5.5,1.5-8.1c0.2-0.8-0.2-1.7-1-1.9
			C61.7,153.7,60.9,154.1,60.7,155L60.7,155z"/>
	</g>
</g>
<g>
	<g>
		<path class="st2" d="M190.3,86.7c-8.8,3.2-17.5,6-26.9,5.7c-1.9-0.1-1.9,2.9,0,3c9.7,0.3,18.7-2.5,27.7-5.8
			C192.9,88.9,192.1,86,190.3,86.7L190.3,86.7z"/>
	</g>
</g>
<g>
	<g>
		<path class="st2" d="M152.7,94.9c-2.1,0.5-4.3,0.9-6.4,1.4c-0.8,0.2-1.3,1.1-1,1.9c0.3,0.8,1,1.2,1.8,1c2.1-0.5,4.3-0.9,6.4-1.4
			c0.8-0.2,1.3-1.1,1-1.9C154.3,95.2,153.5,94.8,152.7,94.9L152.7,94.9z"/>
	</g>
</g>
<g>
	<g>
		<path class="st2" d="M155.9,126.7c0.6-1-0.1-2.3-1.3-2.4c-1.3-0.1-2.1,1.1-1.8,2.2c0.3,0.9,1.3,1.5,2,2.1c0.7,0.6,1.4,1.2,2.1,1.8
			c2.8,2.4,5.6,4.8,8.4,7.2c0.6,0.5,1.5,0.6,2.1,0c0.5-0.5,0.6-1.6,0-2.1c-2-1.7-4.1-3.5-6.1-5.2c-1-0.9-2-1.7-3-2.6
			c-0.5-0.4-1-0.8-1.5-1.2c-0.5-0.4-1.1-0.8-1.5-1.3c0.1,0.2,0.3,0.4,0.4,0.7c0,0,0,0.1,0,0.1c-0.2,0.4-0.3,0.7-0.4,1.1
			c0,0,0,0,0.1-0.1c-0.2,0.1-0.4,0.3-0.7,0.4c0,0,0.1,0,0.1,0c-0.3,0-0.5,0-0.8,0c-0.1,0-0.1-0.1-0.2-0.1c-0.2-0.2-0.4-0.4-0.5-0.5
			c0,0,0,0,0,0.1c0-0.5,0-1,0-1.5c0,0,0,0,0,0.1C152.4,126.9,155,128.4,155.9,126.7L155.9,126.7z"/>
	</g>
</g>
<g>
	<g>
		<path class="st2" d="M247,138.9c-2.4-1.9-5-4-8.2-4.6c-1.7-0.3-3.4,0-5.1,0c-1.5,0-2.9-0.3-4.2-0.9c0-0.1,0-0.1,0-0.2
			c-0.1-0.8-1.1-1.2-1.8-1c-0.7,0.2-1,0.7-1.1,1.4c0.6,0.8,1.2,1.7,1.8,2.6c0.7,0.3,1.5,0.6,2.2,0.8c1.9,0.4,3.7,0.3,5.5,0.2
			c3.5-0.2,6.2,1.8,8.7,3.8c0.6,0.5,1.5,0.6,2.1,0C247.5,140.5,247.7,139.4,247,138.9z"/>
	</g>
</g>
<g>
	<g>
		<path class="st2" d="M99.9,98.3c1.2,5.7,0.9,11.7,3.2,17.2c1,2.2,2.4,4.3,4.3,5.8c1.4,1.1,4.3,2.3,4.2,4.4c0.6-0.5,1.3-1,1.9-1.5
			c-9.9-2-19.8-4.1-29.7-6.1c-0.1,1-0.3,2-0.4,3c2.8-0.4,5.6-0.7,8.4-1.1c2.7-0.4,5.5-0.5,8.1-1c2.4-0.4,2.8-2.5,3-4.6
			c0.3-2.7,0.1-5.4-0.4-8c-0.3-1.6-3.1-1.3-3,0.4c0.4,6,2,11.7,4.8,17c0.7-0.7,1.4-1.4,2-2c-3.7-2-7.9-3.1-12.1-3
			c-1.6,0-2.1,2.6-0.4,3c3.1,0.5,6.2,0.8,9.3,0.9c1.6,0,2.1-2.7,0.4-3c-1-0.2-1.9-0.4-2.8-0.9c0.1,0.8,0.2,1.6,0.3,2.4
			c0.3-0.3,0.7-0.4,1.2-0.3c0.1-1,0.3-2,0.4-3c-0.5,0-1-0.1-1.4-0.1c-1.7-0.1-2.1,2.7-0.4,3c1.4,0.2,2.4,1.2,3.5,2.1
			c1.1,0.9,2.3,1.5,3.7,2c2.5,0.9,5.6,1,7.7,2.9c1.4,1.3,3.6-0.8,2.1-2.1c-2.4-2.1-5.4-2.5-8.3-3.5c-1.4-0.4-2.6-1.1-3.8-2
			c-1.2-1-2.5-2-4.1-2.2c-0.1,1-0.3,2-0.4,3c0.5,0,1,0.1,1.4,0.1c1.7,0.1,2.1-2.7,0.4-3c-1.6-0.3-2.9,0.1-4.1,1.1
			c-0.7,0.6-0.5,1.9,0.3,2.4c1.1,0.6,2.3,1,3.5,1.2c0.1-1,0.3-2,0.4-3c-2.9,0-5.7-0.3-8.5-0.8c-0.1,1-0.3,2-0.4,3
			c3.7,0,7.3,0.8,10.6,2.6c1.3,0.7,2.8-0.7,2-2c-2.5-4.8-4-10.1-4.4-15.5c-1,0.1-2,0.3-3,0.4c0.4,2.2,0.5,4.4,0.4,6.5
			c0,0.5,0.1,1.9-0.3,2.2c-0.5,0.5-2.3,0.4-3,0.5c-4.4,0.6-8.9,1.1-13.3,1.7c-1.5,0.2-2.2,2.6-0.4,3c9.9,2,19.8,4.1,29.7,6.1
			c1,0.2,1.8-0.4,1.9-1.5c0.1-2.4-1.6-4-3.4-5.3c-2.1-1.5-3.8-2.9-5-5.3c-2.7-5.4-2.1-11.8-3.4-17.5C102.4,95.7,99.5,96.5,99.9,98.3
			L99.9,98.3z"/>
	</g>
</g>
<g>
	<g>
		<path class="st2" d="M46.5,126.5c3.2,0.1,6.3,1,9.1,2.6c0.1-0.9,0.2-1.8,0.4-2.7c-3.5,0.7-7.2,0.6-10.7-0.2
			c-0.8-0.2-1.6,0.2-1.8,1c-0.2,0.8,0.2,1.7,1,1.9c4,0.9,8.2,1,12.3,0.2c1.3-0.2,1.4-2.1,0.4-2.7c-3.2-1.9-6.9-2.9-10.6-3
			c-0.8,0-1.5,0.7-1.5,1.5C45,125.9,45.7,126.5,46.5,126.5L46.5,126.5z"/>
	</g>
</g>
<g>
	<g>
		<path class="st2" d="M174.8,268.7c13-6.1,22.2-18.2,35.7-23.4c-0.4-0.9-0.8-1.8-1.2-2.7c-7.1,3.1-14.3,6.3-20.6,11
			c-5.5,4.1-10.3,10.1-17.4,11.6c-3.3,0.7-7.2,0.9-9.5,3.8c-0.9,1.2-0.1,2.8,1.5,2.5c5-1,9.9-2.2,14.9-3.3c2.5-0.6,5.1-1.2,7.7-1.8
			c2.2-0.5,4.6-0.9,6.7-1.9c1.9-0.9,3.1-2.6,4.1-4.3c1.2-1.9,2.4-3.6,3.9-5.2c3-3.3,6.5-6.1,10-9c1.5-1.2-0.6-3.3-2.1-2.1
			c-3.3,2.7-6.6,5.4-9.5,8.5c-1.4,1.5-2.8,3.2-3.9,4.9c-1.1,1.7-2,3.8-3.9,4.6c-2.1,0.9-4.5,1.2-6.7,1.8c-2.4,0.6-4.8,1.2-7.2,1.7
			c-4.9,1.1-9.8,2.2-14.6,3.3c0.5,0.8,1,1.7,1.5,2.5c1.9-2.4,5.4-2.4,8.2-3c3.3-0.7,6.3-2.4,9-4.4c2.8-2.1,5.3-4.5,8-6.7
			c3.1-2.4,6.5-4.5,9.9-6.3c3.9-2,7.8-3.8,11.8-5.5c1.5-0.7,0.4-3.3-1.2-2.7c-13.8,5.2-23.2,17.5-36.4,23.7
			C171.5,267,173,269.5,174.8,268.7L174.8,268.7z"/>
	</g>
</g>
<g>
	<g>
		<path class="st2" d="M194.2,254.8c-4.6,2.9-9.2,5.8-13.7,8.6c0.5,0.9,1,1.7,1.5,2.6c5.1-3.7,10-7.6,14.7-11.8
			c1.3-1.1-0.4-3.2-1.8-2.4c-3,1.9-5.8,4.1-8.2,6.7c-1.1,1.2,0.4,3.4,1.8,2.4c2.2-1.6,4.4-3.2,6.6-4.8c-0.6-0.8-1.2-1.6-1.8-2.4
			c-2.2,2.3-4.3,4.7-6.5,7c-1.1,1.2,0.4,3.4,1.8,2.4c1.3-1,2.7-2,4-3c-0.6-0.8-1.2-1.6-1.8-2.4c-0.9,0.8-1.7,1.8-2.2,2.9
			c-0.8,1.6,1,2.9,2.4,1.8c3.9-3.1,7.3-7,9.8-11.3c1-1.7-1.5-3-2.6-1.5c-1.2,1.6-2.4,3.3-3.6,4.9c0.9,0.5,1.7,1,2.6,1.5
			c0.1-0.1,0.1-0.2,0.2-0.2c1.8-0.6,1-3.5-0.8-2.9c-0.9,0.3-1.6,0.8-2,1.6c-1,1.7,1.5,3,2.6,1.5c1.2-1.6,2.4-3.3,3.6-4.9
			c-0.9-0.5-1.7-1-2.6-1.5c-2.4,4.1-5.6,7.7-9.3,10.7c0.8,0.6,1.6,1.2,2.4,1.8c0.5-0.9,1-1.6,1.8-2.3c1.3-1.1-0.4-3.4-1.8-2.4
			c-1.3,1-2.7,2-4,3c0.6,0.8,1.2,1.6,1.8,2.4c2.2-2.3,4.3-4.7,6.5-7c1.1-1.2-0.4-3.4-1.8-2.4c-2.2,1.6-4.4,3.2-6.6,4.8
			c0.6,0.8,1.2,1.6,1.8,2.4c2.2-2.4,4.7-4.5,7.6-6.3c-0.6-0.8-1.2-1.6-1.8-2.4c-4.5,4-9.2,7.8-14.1,11.3c-1.5,1.1-0.2,3.6,1.5,2.6
			c4.6-2.9,9.2-5.8,13.7-8.6C197.3,256.4,195.8,253.8,194.2,254.8L194.2,254.8z"/>
	</g>
</g>
<g>
	<g>
		<path class="st2" d="M299.1,179.8c0-3.4,1-6.6,2.9-9.4c2-3.1,4.8-5.1,8.1-6.7c3.3-1.6,6.7-3,9.6-5.3c2.6-2.1,4.6-4.9,6.1-7.8
			c1.8-3.5,3.2-7.2,4.4-10.9c0.6-1.8-2.3-2.6-2.9-0.8c-2.2,6.4-4.6,13.4-10.1,17.7c-3,2.3-6.7,3.5-10,5.3c-3.1,1.7-5.8,4-7.7,7
			c-2.2,3.3-3.3,7.2-3.4,11.1C296.1,181.8,299.1,181.8,299.1,179.8L299.1,179.8z"/>
	</g>
</g>
<g>
	<g>
		<path class="st2" d="M311.1,192.4c-3.3,0-6.7,0-10.1,0.1c-0.8,0-1.5,0.7-1.5,1.5c0,0.9,0.7,1.4,1.5,1.5c4.3,0.5,8.6,0.3,12.8-0.5
			c-0.4-0.9-0.8-1.8-1.2-2.7c-1.5,0.9-3.1,1.8-4.6,2.7c-1.3,0.7-0.8,2.8,0.8,2.8c1.8,0,3.5-0.5,5-1.4c-0.7-0.2-1.4-0.4-2-0.5
			c-0.2-0.3,0.1-0.4-0.3-0.2c-0.3,0.2-0.6,0.4-0.8,0.6c-0.6,0.5-1,1.3-1.1,2.1c0,0.2,0,0.4,0,0.6c0,0.2,0.2-0.2,0,0
			c-0.2,0.2-0.4,0.3-0.6,0.4c-0.8,0.4-1.7,0.9-2.5,1.3c-3.2,1.6-6.5,3.3-9.8,5c-0.7,0.4-0.9,1.4-0.5,2c0.4,0.7,1.3,0.9,2,0.5
			c4-1.9,7.6-4.4,10.9-7.4c1.4-1.3-0.7-3.4-2.1-2.1c-3.1,2.8-6.6,5.1-10.3,6.9c0.5,0.9,1,1.7,1.5,2.6c3.8-1.9,7.6-3.9,11.5-5.8
			c0.8-0.4,1.6-0.8,2.2-1.4c0.3-0.4,0.5-0.8,0.7-1.3c0.1-0.3,0.1-0.5,0.1-0.8c0-0.1,0-0.5,0-0.4c-0.1,0.1,0.1-0.1,0.2-0.1
			c0.2-0.1,0.3-0.2,0.5-0.3c0.4-0.3,0.7-0.6,1-1c0.6-0.9,0.7-1.9,0.2-2.8c-0.4-0.7-1.3-0.9-2-0.5c-1.1,0.6-2.2,0.9-3.5,1
			c0.2,0.9,0.5,1.9,0.8,2.8c1.5-0.9,3.1-1.8,4.6-2.7c1.5-0.9,0.5-3-1.2-2.7c-4,0.7-8,0.8-12,0.4c0,1,0,2,0,3c3.3,0,6.7,0,10.1-0.1
			C313,195.4,313,192.4,311.1,192.4L311.1,192.4z"/>
	</g>
</g>
<g>
	<g>
		<path class="st2" d="M318.8,191.4c2.4-5.7,4.9-11.4,7.4-17c0.3-0.7,0.2-1.6-0.5-2c-0.6-0.4-1.7-0.2-2,0.5c-2.5,5.6-5,11.3-7.4,17
			c-0.3,0.8-0.2,1.6,0.5,2C317.4,192.3,318.5,192.2,318.8,191.4L318.8,191.4z"/>
	</g>
</g>
<g>
	<g>
		<path class="st2" d="M251.1,86.7c0.4,0.9-0.8,1.9-1.5,2.3c-1.4,0.8-3,1.1-4.4,1.8c-2.9,1.3-5.6,3.2-7.8,5.5
			c-1.3,1.4,0.8,3.5,2.1,2.1c2.4-2.5,5.3-4.4,8.6-5.6c1.7-0.6,3.5-1.1,4.7-2.5c1.3-1.4,1.7-3.3,0.9-5.1c-0.3-0.7-1.4-0.9-2-0.5
			C250.9,85.1,250.7,86,251.1,86.7L251.1,86.7z"/>
	</g>
</g>
<g>
	<path class="st3" d="M301.9,110.3c3.5,6.4,5.4,13.7,5.4,21.1c0,3.9-0.5,8,1.2,11.5c1.8,3.7,5.8,5.8,9.4,7.7c1.6,0.8,3.2,1.6,5,1.5
		c1.7-0.1,3.3-1.1,4.4-2.3c3.4-3.7,3.5-9.5,1.7-14.2c-1.9-4.7-5.4-8.4-8.9-12.1c-4-4.2-7.9-8.4-11.9-12.6c-1-1.1-2.1-2.2-3.5-2.7
		c-1.4-0.5-3.2-0.2-4,1.1s0.4,3.3,1.9,3"/>
	<g>
		<path class="st3" d="M300.6,111.1c2.2,4.1,3.8,8.5,4.5,13.1c0.4,2.3,0.6,4.6,0.6,7c0,2.2-0.2,4.5,0,6.8c0.3,4.2,2,7.7,5.4,10.3
			c1.6,1.2,3.3,2.2,5,3.1c1.9,1,3.9,2.1,6.1,2.3c4.1,0.3,7.3-3.3,8.6-6.8c1.3-3.6,1.1-7.8-0.3-11.3c-1.5-4-4.2-7.5-7.1-10.6
			c-3.2-3.6-6.6-7-9.9-10.5c-1.9-2-3.6-4.1-5.7-5.9c-1.6-1.4-3.6-2.3-5.7-1.8c-1.9,0.5-3.3,2.1-3,4.1c0.3,2,2,3.3,4,3
			c1.9-0.3,1.1-3.2-0.8-2.9c0.2,0,0,0-0.1-0.2c-0.1-0.2-0.2-0.4-0.1-0.6c0.1-0.5,0.9-0.6,1.3-0.6c1.6-0.1,2.9,1.4,3.9,2.5
			c2.9,3,5.8,6.1,8.6,9.1c4.7,5,10.7,10.2,12.4,17.1c0.7,2.9,0.6,6.2-0.9,8.8c-0.8,1.4-2,2.8-3.6,3.3c-1.8,0.6-3.6-0.3-5.2-1.1
			c-2.8-1.4-5.7-2.9-7.7-5.4c-2.3-2.8-2.3-6.5-2.3-10c0.2-8.6-1.4-16.8-5.5-24.4C302.3,107.9,299.7,109.4,300.6,111.1L300.6,111.1z"
			/>
	</g>
</g>
<g>
	<path class="st3" d="M320.8,160.9c-5.8,0.9-11.4,3.6-15.6,7.7c-1,0.9-1.9,1.9-2.7,3c-3.7,4.7-5.7,10.6-5.6,16.6
		c0,0.3,0,0.7,0.2,0.9c0.2,0.2,0.5,0.3,0.8,0.3c2.5,0.2,4.9-1.1,7-2.4c2.1-1.2,4.1-2.4,6.2-3.5c1.5-0.9,3.2-1.8,4.1-3.4
		c0.7-1.1,0.9-2.5,1.2-3.7c0.9-4,2.2-7.9,4.1-11.6c0.3-0.7,0.7-1.5,0.5-2.2c-0.2-0.7-1.3-1.2-1.8-0.5"/>
	<g>
		<path class="st3" d="M320.5,159.4c-12.2,1.9-22.5,11.4-24.6,23.7c-0.4,2.1-1.5,6.9,1.4,7.6c3,0.7,6.2-1.2,8.7-2.6
			c2.8-1.6,5.7-3,8.3-4.9c1.2-0.9,2.1-1.9,2.7-3.2c0.7-1.5,0.9-3.1,1.3-4.7c0.9-3.6,2.3-6.9,3.8-10.2c0.6-1.3,1-3-0.2-4.1
			c-1-1-2.7-1.2-3.6-0.1c-1.3,1.4,0.8,3.6,2.1,2.1c-0.2,0.2-0.6-0.1-0.8,0.2c-0.1,0.1-0.2,0.5-0.3,0.7c-0.3,0.5-0.5,1.1-0.8,1.6
			c-0.6,1.2-1.1,2.5-1.5,3.7c-0.9,2.4-1.5,4.8-2,7.2c-0.2,1.1-0.5,2.3-1.2,3.2c-0.7,0.9-1.7,1.5-2.7,2.1c-2.2,1.3-4.5,2.5-6.7,3.8
			c-1,0.6-2.1,1.2-3.2,1.6c-0.5,0.2-1.1,0.4-1.7,0.5c-0.3,0-0.6,0-0.9,0.1c-0.5-0.1-0.6,0-0.2,0.1c0.3,0.3,0.3,0.2,0.2-0.3
			c0.1-0.5,0-1.2,0.1-1.7c0-0.6,0.1-1.1,0.2-1.7c0.2-1.2,0.5-2.4,0.8-3.5c1.4-4.7,4.1-8.8,7.7-12c4-3.5,8.9-5.6,14-6.5
			C323.2,162,322.3,159.1,320.5,159.4L320.5,159.4z"/>
	</g>
</g>
<g>
	<path class="st3" d="M323.1,249.2c1-2.4,1.2-5,0.8-7.5c-0.4-2-1.2-3.9-2.1-5.8c-1.5-3.2-3.7-6.8-7.2-7.2c-2.9-0.4-5.7,1.7-7,4.3
		c-1.4,2.6-1.7,5.6-1.9,8.5c0,0.5-0.1,1,0.2,1.5c0.3,0.5,1,0.8,1.5,1c2.9,1,5.5,2.6,7.8,4.6c1,0.8,1.8,1.7,3,2.3s2.5,0.8,3.6,0.2
		c1.8-1,1.9-3.5,1.8-5.5"/>
	<g>
		<path class="st3" d="M324.6,249.6c2.2-5.6,0.4-11.1-2.3-16.1c-2.2-4-6.2-7.7-11.1-5.7c-5.2,2.2-6.4,7.9-6.9,13
			c-0.1,1.1-0.2,2.3,0.5,3.3c0.8,1.1,2.2,1.4,3.3,1.8c2.5,1,4.8,2.6,6.8,4.4c2.1,1.9,5,3.7,7.8,2c2.3-1.4,2.5-4.3,2.4-6.7
			c-0.1-1.9-3.1-1.9-3,0c0.1,1.2,0.3,3.5-1.1,4.2c-1.7,0.9-3.6-1.3-4.7-2.2c-1.6-1.4-3.4-2.6-5.3-3.6c-0.9-0.5-1.8-0.9-2.8-1.2
			c-0.2-0.1-0.9-0.2-1-0.4c-0.1-0.2,0-0.9,0.1-1.1c0.3-3.8,0.9-8.4,4.7-10.4c3.5-1.8,6.2,1.3,7.7,4.1c1.1,2,2.2,4.2,2.7,6.5
			c0.6,2.5,0.4,5.1-0.6,7.5C321,250.6,323.9,251.3,324.6,249.6L324.6,249.6z"/>
	</g>
</g>
<g>
	<path class="st3" d="M250.6,151.5c1.8,1.3,2.4,3.7,3.6,5.5c2.1,3.1,6.1,4.6,9.8,4.5c3.8-0.1,7.4-1.5,10.8-3.1c3-1.5,6-3.1,8.9-4.9
		c2.8-1.8,5.6-3.9,6.8-6.9c1.3-3.2,0.8-7.1,2.5-10.1c-9,8.5-19.2,15.5-30.3,20.8c-0.7,0.4-1.5,0.7-2.3,0.6c-0.9-0.1-1.7-0.7-2.4-1.3
		c-2.4-2-4.9-4-7.3-6"/>
	<g>
		<path class="st3" d="M249.5,152.6c1.5,1.2,2.1,3,3,4.6c0.9,1.6,2.2,2.9,3.8,3.9c3.4,2.1,7.5,2.4,11.3,1.6c4.4-0.9,8.6-3,12.5-5.2
			c3.6-2,7.5-4.2,10.1-7.4c1.4-1.8,2.2-3.9,2.6-6.1c0.4-2.2,0.5-4.6,1.5-6.6c0.8-1.5-1.1-3-2.4-1.8c-5.9,5.5-12.3,10.5-19.2,14.7
			c-3.4,2.1-6.8,4-10.4,5.7c-1,0.5-1.7,0.9-2.7,0.3c-0.9-0.6-1.8-1.4-2.6-2.1c-1.8-1.5-3.6-3-5.4-4.4c-1.5-1.2-3.6,0.9-2.1,2.1
			c2,1.7,4.1,3.4,6.1,5c1.6,1.3,3.2,2.9,5.4,2.6c2-0.3,4-1.6,5.8-2.5c2-1,3.9-2.1,5.8-3.2c7.7-4.5,14.8-10,21.3-16.1
			c-0.8-0.6-1.6-1.2-2.4-1.8c-1.8,3.3-1.2,7.3-2.8,10.6c-1.6,3.3-5.2,5.4-8.2,7.2c-3.6,2.1-7.4,4.2-11.4,5.5
			c-3.4,1.1-7.3,1.5-10.6-0.1c-1.7-0.8-3-2-3.8-3.6c-1-1.7-1.7-3.6-3.3-4.9C250.2,149.3,248,151.4,249.5,152.6L249.5,152.6z"/>
	</g>
</g>
<g>
	<g>
		<path class="st3" d="M138.9,87.2c-5.2-2.4-11.2-1.1-16.6-0.4c-5.8,0.8-11.7,1.5-17.3,3c-2.5,0.7-3.9,2.3-4.2,4.9
			c-0.1,0.7-0.2,1.4-0.2,2.1c-0.6,1.3-1.2,2.6-1.8,3.8c-0.4,1.2-0.9,2.4-1.4,3.7c0.2,0.6,0.2,1.2-0.2,1.9c-0.3,0.5-0.6,0.8-0.9,1.3
			c-0.3,0.4-0.6,0.8-0.9,1.1c-0.8,1.4-1.8,2.9-3.1,3.9c0,0.1,0,0.2-0.1,0.3c-0.1,0.1-0.2,0.2-0.3,0.3c0,0-0.1,0.1-0.1,0.1
			c0,0.1-0.1,0.1-0.1,0.2c-0.2,0.2-0.4,0.4-0.7,0.5c-0.4,0.2-0.9,0.3-1.3,0.4c-0.3,0-0.5,0.1-0.8,0.1c-0.4,0-0.8,0-1.2-0.1
			c-0.1,0-0.3,0-0.4-0.1c-0.1,0-0.1,0-0.2,0c-0.6,0-1.2-0.1-1.8-0.2c-0.6,0-1.3-0.1-1.8-0.3c-0.3,0-0.7-0.1-1-0.1
			c-0.6,0-1.2,0-1.8-0.1c-2.8-0.2-5.7-0.4-8.5-0.8c-0.7,0.2-1.5,0.2-2.1,0.1c-0.5,0.8-0.3,1.9,0.8,2.1c0,0,0,0,0,0
			c4.3,0.7,8.5,1.4,12.8,2.1c2.2,0.4,4.3,0.6,6.3,0.1c2.3,0.2,4.9,0.5,7.1-0.1c2.3-0.7,3.6-2.6,4.2-4.8c0.8-2.6,1.1-5.5,1.5-8.2
			c0.3-2.2,0.4-4.3,0.7-6.5c0.2-0.5,0.4-0.9,0.6-1.4c0.3-0.7,0.1-1.3-0.2-1.7c0.2-0.8,0.6-1.3,1.6-1.7c1.3-0.4,2.6-0.6,3.9-0.9
			c3-0.6,6-1.1,9.1-1.6c3.4-0.5,6.7-1,10.1-1.3c3-0.3,6.1-0.5,8.9,0.7C139.1,90.6,140.7,88,138.9,87.2z M98.3,112
			c-0.4,1-0.9,1.8-2,2.2c-0.5,0.2-1.1,0.2-1.8,0.2c1.8-1.9,3-4.3,4.1-6.5c0.3-0.7,0.6-1.3,0.9-2C99.3,107.9,99,110.1,98.3,112z"/>
	</g>
</g>
<g>
	<g>
		<path class="st3" d="M102.2,104.7c0-0.8-0.7-1.5-1.5-1.5c-0.8,0-1.5,0.7-1.5,1.5c0,0.2,0,0.5,0,0.7c0,0,0,0.3,0,0.3
			c0,0.1,0,0.2-0.1,0.3c0,0,0,0.1,0,0.1c-0.4-0.4-1-0.6-1.5-0.5c0,0,0,0,0,0c-0.1,0.2-0.1,0.3-0.2,0.5c-0.3,0.4-0.6,0.8-0.8,1.2
			c0,0.1,0,0.1,0,0.2c0.1,0.2,0.1,0.4,0.1,0.6c0,0,0,0,0,0c0,0.1,0,0.2,0,0.3c0,0.2,0,0.4,0,0.6c0,0.1,0,0.2,0,0.3c0-0.2,0-0.1,0,0
			c-0.1,0.4-0.2,0.8-0.3,1.2c0,0,0,0.1,0,0.1c-0.5,0.5-1,1-1.5,1.5c-0.9,0.8-1.7,1.4-2.5,2c-0.6,0.5-0.9,1.1-0.6,1.9
			c0.3,0.7,1,1,1.8,0.9c2.4-0.6,4.3-2.3,5.4-4.5C100.7,110.3,102.1,107.8,102.2,104.7z"/>
	</g>
</g>
<g>
	<g>
		<path class="st2" d="M301.7,107.5c-0.5-0.9-0.9-1.7-1.4-2.6c-0.8-1.5-3.3-0.5-2.7,1.2c1.9,5.2,3.2,10.7,3.9,16.2
			c0.1,0.8,0.6,1.5,1.5,1.5c0.7,0,1.6-0.7,1.5-1.5c-0.7-5.8-2.1-11.5-4-17c-0.9,0.4-1.8,0.8-2.7,1.2c0.5,0.9,0.9,1.7,1.4,2.6
			C300,110.8,302.6,109.2,301.7,107.5L301.7,107.5z"/>
	</g>
</g>
<g>
	<g>
		<path class="st2" d="M288.9,137.2c-0.9-1.4-2.5-1.1-3.5,0.1c-1.2,1.4-2.2,2.8-3.4,4.2c-2.4,2.7-4.9,5.3-7.7,7.6
			c-4.5,3.8-10.9,7.2-16.7,4.8c0,0,0,0,0,0c0,0,0,0,0,0c0,0,0,0,0,0c0,0-0.1,0-0.1,0c0,0,0,0,0,0c0,0-0.1,0-0.1-0.1
			c-0.5-0.2-0.9-0.4-1.4-0.7c-1.6-1-3.2,1.6-1.5,2.6c5.9,3.7,13.1,1.8,18.5-1.8c2.8-1.9,5.4-4.2,7.8-6.6c1.3-1.3,2.5-2.6,3.6-3.9
			c0.6-0.7,1.2-1.4,1.7-2.1c0.3-0.3,0.5-0.7,0.8-1c0.1-0.2,0.3-0.3,0.4-0.5c0.1-0.1,0.2-0.2,0.2-0.2
			C288.6,139.3,289.6,138.3,288.9,137.2z"/>
	</g>
</g>
<g>
	<g>
		<path class="st2" d="M302.3,120.4c0.4,4,0.7,8.1,1.1,12.1c0.3,3.6,0.3,7.4,1.3,10.9c1,3.4,3.2,5.6,6.2,7.3
			c2.6,1.5,6.2,2.9,7.1,6.1c0.6,1.8,3.5,1,2.9-0.8c-1-3.1-3.5-5.1-6.2-6.6c-2.9-1.6-5.9-3-7-6.4c-1.1-3.3-1-7-1.4-10.4
			c-0.4-4-0.7-8.1-1.1-12.1C305.1,118.5,302.1,118.4,302.3,120.4L302.3,120.4z"/>
	</g>
</g>
<g>
	<g>
		<path class="st2" d="M308.9,226.5c-4.1,4.7-6.8,10.4-7.7,16.6c-0.1,0.8,0.2,1.6,1,1.9c0.7,0.2,1.7-0.2,1.8-1
			c0.8-5.6,3.2-11,6.9-15.3C312.3,227.2,310.2,225.1,308.9,226.5L308.9,226.5z"/>
	</g>
</g>
</svg>
