<?xml version="1.0" encoding="utf-8"?>
<!-- Generator: Adobe Illustrator 27.7.0, SVG Export Plug-In . SVG Version: 6.00 Build 0)  -->
<svg version="1.1" id="Layer_1" xmlns="http://www.w3.org/2000/svg" xmlns:xlink="http://www.w3.org/1999/xlink" x="0px" y="0px"
	 viewBox="0 0 1366 768" style="enable-background:new 0 0 1366 768;" xml:space="preserve">
<style type="text/css">
	.st0{fill:#996600;}
	.st1{fill:#824D00;}
	.st2{fill:#603813;}
	.st3{fill:#D3C690;}
	.st4{fill:#AFA475;}
	.st5{fill:#878166;}
</style>
<g>
	<path class="st0" d="M451.19,446.23c-6.74,16.89-7.74,34.89-6.74,52.89c1,8,3,16,6,24c1,2,2,4,3,7c7,15,18,27,33,36c1,1,3,0,4,1
		c16,10,33,11,51,13c47,3,90-9,137-19c1,0,3-2,4-2c31-6,56-19,82-37c37-26,69-51,108-70c10-9,16-21,14-34c0-3,1-6,3-8
		c9-8,17-14,25-23c17-20,18-46,13-71c-6-37-24-67-48-96c-22-26-57-30-89-33c-43-3-85,4-129,10c-28,5-48,22-73,33c-14,5-29,9-44,6
		c-21-3-45-7-59,12c-1,2-3,5-5,7c-5,10-8,20-8,31c-2,19,0,37-1,56c-2,28-9,55-15.34,81.86"/>
	<g>
		<path class="st0" d="M449.75,445.83c-4.65,11.83-6.67,24.44-7.06,37.11c-0.18,6.05-0.31,12.34,0.55,18.35
			c0.91,6.35,2.44,12.59,4.49,18.67c3.38,10.02,8.34,19.6,15.02,27.83c3.36,4.15,7.15,7.94,11.25,11.35
			c1.86,1.55,3.79,3.02,5.77,4.42c2.05,1.45,4.39,3.44,6.76,4.32c1.04,0.39,2.13,0.08,3.16,0.53c1.3,0.57,2.52,1.51,3.77,2.18
			c2.59,1.39,5.27,2.59,8,3.64c5.34,2.05,10.91,3.43,16.53,4.43c11.83,2.1,23.96,3.28,35.97,3.4c25.48,0.25,50.74-3.69,75.63-8.79
			c13.05-2.67,26.03-5.65,39.04-8.51c3.09-0.68,6.18-1.36,9.28-2.01c2.14-0.45,3.66-1.93,5.76-2.36c5.66-1.16,11.26-2.51,16.8-4.17
			c21.75-6.52,41.8-17.33,60.56-29.97c20.62-13.89,40.36-29.06,61.02-42.9c10.33-6.92,20.85-13.56,31.67-19.68
			c5.36-3.03,10.78-5.93,16.29-8.69c1.14-0.57,2.45-1.07,3.49-1.81c1.03-0.74,1.94-1.82,2.82-2.73c1.86-1.94,3.57-4.03,5.1-6.24
			c2.87-4.15,5.05-8.87,6.11-13.81c0.52-2.41,0.8-4.89,0.79-7.36c-0.01-2.9-0.76-5.72,0.2-8.54c1.02-3,3.65-4.8,5.96-6.79
			c2.34-2.01,4.69-4,7.02-6.02c4.45-3.85,8.8-7.83,12.79-12.17c14.96-16.3,18.86-38.8,16.66-60.19
			c-2.24-21.74-8.37-43.03-18.23-62.53c-5.09-10.06-11.07-19.64-17.62-28.81c-6.26-8.77-12.78-17.97-20.73-25.29
			c-14.9-13.74-34.61-20.1-54.22-23.44c-22.79-3.88-45.9-5-68.97-3.88c-26.1,1.28-52,5.01-77.86,8.61
			c-6.27,0.88-12.59,1.54-18.74,3.09c-5.46,1.38-10.79,3.25-15.97,5.45c-10.11,4.27-19.61,9.77-29.16,15.13
			c-4.8,2.69-9.62,5.35-14.55,7.8c-5.53,2.75-11.17,4.87-17.1,6.58c-6.34,1.83-12.84,3.21-19.44,3.55
			c-6.17,0.32-12.08-0.7-18.16-1.56c-17.31-2.44-37.77-4.81-51.63,8.29c-1.67,1.58-3.33,3.37-4.56,5.32
			c-0.68,1.08-1.26,2.2-1.99,3.24c-0.83,1.18-1.96,2.17-2.76,3.35c-1.51,2.23-2.48,5.13-3.47,7.63c-1.14,2.88-2.12,5.82-2.88,8.82
			c-1.47,5.77-1.61,11.48-2.15,17.36c-0.6,6.52-0.76,13.08-0.74,19.63c0.03,13.2,0.73,26.43-0.49,39.6
			c-1.23,13.28-3.56,26.43-6.32,39.46c-2.62,12.34-5.64,24.6-8.54,36.88c-0.44,1.88,2.45,2.68,2.89,0.8
			c5.84-24.74,12.15-49.47,14.74-74.81c1.3-12.72,0.86-25.46,0.74-38.22c-0.06-6.36-0.02-12.73,0.39-19.08
			c0.4-6.12,0.52-12.35,1.8-18.36c1.23-5.81,3.16-12.06,6.12-17.23c1.18-2.07,3.01-3.78,4.28-5.83c1.36-2.19,2.72-4.12,4.58-5.94
			c6.72-6.61,15.83-9.29,25.05-9.74c9.39-0.46,18.87,0.87,28.13,2.31c5.77,0.9,11.36,1.44,17.21,0.95
			c6.11-0.52,12.13-1.8,18.01-3.51c5.53-1.6,10.85-3.5,16.04-6.01c4.85-2.35,9.58-4.91,14.29-7.53
			c9.29-5.17,18.46-10.58,28.17-14.95c5.17-2.33,10.49-4.32,15.95-5.85c5.85-1.63,11.78-2.42,17.79-3.25
			c13.09-1.82,26.18-3.69,39.31-5.28c25.09-3.04,50.39-5.06,75.66-3.71c10.25,0.55,20.56,1.73,30.7,3.33
			c9.68,1.52,19.32,3.64,28.54,7.02c9.39,3.44,18.33,8.3,25.88,14.91c8.21,7.2,14.8,16.42,21.14,25.24
			c12.58,17.52,23.06,36.61,29.26,57.33c3.14,10.49,5.37,21.48,6.56,32.37c1.16,10.64,1.01,21.54-1.58,31.97
			c-2.71,10.92-8.12,20.69-15.92,28.79c-3.86,4.01-8.02,7.71-12.24,11.34c-2.14,1.84-4.29,3.66-6.43,5.5
			c-2.14,1.85-4.34,3.54-5.54,6.17c-2.12,4.65-0.47,9.69-1.07,14.59c-0.64,5.2-2.63,10.13-5.43,14.53c-1.44,2.26-3.1,4.36-4.93,6.32
			c-0.86,0.92-1.77,1.99-2.77,2.76c-1.48,1.14-3.4,1.83-5.05,2.67c-5.22,2.65-10.38,5.43-15.46,8.32
			c-20.98,11.93-40.78,25.79-60.4,39.81c-19.05,13.61-37.82,27.82-58.67,38.64c-9.76,5.06-19.9,9.36-30.39,12.66
			c-5.47,1.72-11.03,3.18-16.64,4.37c-2.22,0.47-3.98,0.78-5.91,1.99c-2.29,1.44-5.75,1.62-8.37,2.19
			c-24.74,5.39-49.4,11.38-74.5,14.91c-24.57,3.46-49.18,4.01-73.75,0.35c-5.64-0.84-11.25-1.97-16.69-3.72
			c-2.77-0.89-5.49-1.94-8.13-3.18c-2.5-1.18-4.8-2.92-7.29-4.03c-0.88-0.39-1.7-0.23-2.59-0.39c-1.31-0.24-2.51-1.25-3.61-1.96
			c-2.49-1.6-4.9-3.32-7.22-5.17c-3.99-3.19-7.69-6.74-11.01-10.61c-7.03-8.19-12.22-18.01-15.67-28.21
			c-1.95-5.79-3.44-11.74-4.36-17.78c-0.96-6.31-0.78-12.97-0.55-19.33c0.44-12.12,2.47-24.11,6.92-35.42
			C453.35,444.83,450.45,444.05,449.75,445.83L449.75,445.83z"/>
	</g>
</g>
<g>
	<path class="st0" d="M457.4,419.23c-3.47,11.23-6.75,22.53-9.83,33.87"/>
	<g>
		<path class="st0" d="M455.95,418.83c-3.47,11.24-6.74,22.53-9.83,33.87c-0.51,1.87,2.39,2.66,2.89,0.8
			c3.09-11.35,6.36-22.64,9.83-33.87C459.42,417.78,456.52,416.99,455.95,418.83L455.95,418.83z"/>
	</g>
</g>
<g>
	<path class="st0" d="M441.48,382.38c-0.71-4.89,0.18-9.86,0.1-14.8c-0.08-4.94-1.42-10.3-5.38-13.25
		c-1.33-0.99-3.02-1.67-4.65-1.37c-2.28,0.41-3.82,2.52-5.02,4.5c-5.71,9.43-9.49,20.04-11.02,30.96c-0.23,1.62-0.38,3.4,0.47,4.8
		c0.58,0.95,1.54,1.59,2.24,2.45c1.95,2.39,1.49,5.84,1.52,8.92c0.03,3.08,1.3,6.84,4.36,7.25c2.04,0.27,3.9-1.14,5.4-2.54
		c5.06-4.72,9.28-10.34,12.38-16.53c0.78-1.55,1.5-3.21,1.38-4.94c-0.14-2.02-1.39-3.75-2.29-5.57c-0.9-1.81-1.4-4.14-0.17-5.74"/>
	<g>
		<path class="st0" d="M442.93,381.98c-0.76-5.64,0.61-11.31-0.01-16.96c-0.49-4.43-2.03-8.97-5.68-11.77
			c-1.96-1.5-4.54-2.4-6.96-1.49c-2.19,0.82-3.66,2.71-4.86,4.63c-2.89,4.63-5.23,9.64-7.12,14.75c-1.91,5.17-3.29,10.54-4.12,15.99
			c-0.37,2.46-0.78,5.16,0.82,7.29c0.63,0.85,1.52,1.46,2.15,2.3c0.75,1.01,0.99,2.3,1.07,3.53c0.26,4.04-0.62,8.92,2.96,11.86
			c4.42,3.63,9.23-1.41,12.14-4.51c4.02-4.28,7.5-9.18,10.05-14.48c1.34-2.79,1.86-5.46,0.58-8.37c-0.95-2.16-3.49-5.1-1.85-7.49
			c1.09-1.6-1.51-3.1-2.59-1.51c-1.22,1.79-1.11,4.06-0.37,6.02c0.76,2.01,2.41,3.86,2.62,6.05c0.22,2.32-1.41,4.74-2.5,6.66
			c-1.17,2.07-2.46,4.07-3.88,5.99c-1.38,1.87-2.89,3.64-4.49,5.32c-1.51,1.58-3.39,3.94-5.61,4.48c-4.07,0.98-4.06-5.46-4.03-7.85
			c0.03-2.12-0.05-4.29-0.96-6.24c-0.88-1.87-3.22-2.96-3.45-5.08c-0.25-2.31,0.47-4.89,0.93-7.13c0.47-2.34,1.05-4.65,1.73-6.94
			c1.4-4.74,3.23-9.34,5.48-13.74c1.08-2.1,2.2-4.22,3.53-6.17c1.19-1.74,2.82-3.25,5.06-2.51c4.41,1.45,6.07,7.04,6.4,11.15
			c0.47,5.68-0.72,11.34,0.04,17.02c0.11,0.81,1.14,1.23,1.85,1.05C442.75,383.6,443.03,382.78,442.93,381.98L442.93,381.98z"/>
	</g>
</g>
<g>
	<path class="st0" d="M565.32,214.96c3.46,2.6,8.2,2.61,12.47,1.9c4.17-0.69,8.24-1.96,12.06-3.76c1.98-0.93,4.01-2.13,4.95-4.11
		c1.26-2.67-0.01-6.07-2.41-7.79c-2.39-1.73-5.59-2-8.48-1.4c-2.89,0.6-5.54,1.99-8.16,3.36c-1.47,0.77-2.95,1.55-4.42,2.32
		c-4.34,2.28-8.73,4.6-12.34,7.92c-0.59,0.55-1.16,1.54-0.54,2.06c0.19,0.16,0.45,0.21,0.69,0.25c3.61,0.63,7.29,0.87,10.96,0.71"/>
	<g>
		<path class="st0" d="M564.56,216.25c5.52,3.98,13.3,2.54,19.35,0.72c5.25-1.58,13.86-4.43,12.77-11.44
			c-1.13-7.25-9.48-8.57-15.3-6.6c-3.47,1.18-6.69,3.09-9.93,4.78c-3.1,1.63-6.24,3.23-9.15,5.2c-1.76,1.19-7.86,4.9-4.92,7.6
			c0.74,0.68,1.83,0.73,2.77,0.86c1.08,0.16,2.16,0.29,3.25,0.39c2.23,0.2,4.46,0.24,6.69,0.15c1.92-0.07,1.93-3.07,0-3
			c-3.13,0.12-6.28-0.01-9.38-0.47c-0.14-0.02-1.14-0.25-1.18-0.19c0.02,0.11,0.05,0.22,0.07,0.33c0.01,0.4,0.08,0.43,0.22,0.1
			c0.46-0.18,1.13-1.04,1.52-1.36c1.12-0.92,2.32-1.75,3.55-2.53c2.32-1.47,4.75-2.75,7.18-4.02c2.65-1.39,5.27-2.88,7.99-4.11
			c4.18-1.89,11.71-3.19,13.49,2.64c0.72,2.37-0.55,4.23-2.52,5.46c-2.29,1.43-4.93,2.39-7.5,3.19c-5.4,1.68-12.49,3.3-17.47-0.29
			C564.5,212.53,563.01,215.13,564.56,216.25L564.56,216.25z"/>
	</g>
</g>
<g>
	<path class="st0" d="M934.05,268.71c1.71,9.22,3.42,18.43,5.14,27.65c0.23,1.25,0.87,2.83,2.14,2.72c0.99-0.09,1.51-1.2,1.82-2.15
		c2.91-8.74,5.86-18.06,3.65-27c-0.52-2.11-1.32-4.13-2.11-6.15c-1.16-2.95-2.32-5.9-3.48-8.84c-0.27-0.7-0.56-1.41-1.05-1.97
		c-1.36-1.56-3.99-1.44-5.62-0.16c-1.62,1.28-2.39,3.38-2.66,5.43c-0.75,5.58,1.5,11.08,3.71,16.26"/>
	<g>
		<path class="st0" d="M932.6,269.11c1.61,8.65,3.21,17.3,4.82,25.95c0.29,1.56,0.48,3.37,1.64,4.57c1.09,1.12,2.8,1.26,4.01,0.24
			c1.34-1.14,1.73-3.18,2.25-4.77c0.64-1.95,1.25-3.92,1.79-5.9c1.1-4.03,1.91-8.2,1.95-12.39c0.04-4.23-0.91-8.2-2.42-12.13
			c-1.45-3.77-2.77-7.71-4.5-11.37c-1.44-3.03-5.17-3.78-7.95-2.08c-3.54,2.17-4.21,7.06-3.89,10.84c0.39,4.64,2.19,8.95,4,13.19
			c0.75,1.77,3.34,0.24,2.59-1.51c-1.33-3.12-2.63-6.28-3.29-9.62c-0.57-2.87-0.79-6.61,0.96-9.15c0.7-1.01,1.78-1.75,3.06-1.65
			c1.43,0.11,1.86,1.27,2.32,2.45c1.27,3.23,2.56,6.46,3.81,9.7c1.24,3.23,2.17,6.47,2.3,9.95c0.12,3.45-0.35,6.87-1.13,10.22
			c-0.78,3.39-1.83,6.7-2.93,10c-0.18,0.55-0.3,1.35-0.71,1.79c-0.25,0.28,0.04,0.18-0.04,0.14c-0.13-0.08-0.25-0.38-0.3-0.49
			c-0.65-1.4-0.71-3.26-0.99-4.75c-1.49-8-2.97-16.01-4.46-24.01C935.14,266.42,932.25,267.22,932.6,269.11L932.6,269.11z"/>
	</g>
</g>
<g>
	<path class="st0" d="M946.81,319.73c-0.22,2.62-0.32,5.25-0.32,7.87c0,1.57,0.1,3.29,1.13,4.48c0.23,0.27,0.52,0.51,0.87,0.56
		c1,0.16,1.55-1.12,1.71-2.12c0.41-2.52,0.75-5.06,1-7.61c0.04-0.38,0.07-0.78-0.08-1.14c-0.63-1.53-3.38-0.52-4.36-1.85"/>
	<g>
		<path class="st0" d="M945.31,319.73c-0.22,2.71-0.35,5.44-0.31,8.17c0.03,2.15,0.48,5.41,2.94,6.15c1.27,0.38,2.48-0.31,3.12-1.41
			c0.59-1.02,0.69-2.22,0.87-3.36c0.22-1.44,0.41-2.88,0.58-4.33c0.15-1.28,0.55-2.86-0.12-4.05c-0.52-0.93-1.52-1.37-2.53-1.53
			c-0.32-0.05-0.65-0.09-0.97-0.12c-0.05-0.01-0.29-0.04-0.03,0c-0.12-0.02-0.24-0.04-0.35-0.06c-0.1-0.02-0.61-0.2-0.35-0.07
			c-0.08-0.04-0.15-0.08-0.23-0.13c0.21,0.15,0-0.04-0.07-0.12c-0.51-0.63-1.59-0.53-2.12,0c-0.62,0.62-0.51,1.49,0,2.12
			c0.48,0.59,1.24,0.94,1.97,1.09c0.39,0.08,0.79,0.12,1.18,0.17c0.08,0.01,0.43,0.05,0.17,0.02c0.16,0.02,0.32,0.05,0.48,0.09
			c0.1,0.02,0.46,0.14,0.19,0.03c0.12,0.05,0.29,0.2,0.09,0.04c-0.13-0.11-0.04-0.09-0.05,0c-0.02,0.25-0.04,0.5-0.06,0.75
			c-0.11,1.15-0.25,2.29-0.4,3.43c-0.14,1.05-0.29,2.1-0.46,3.15c-0.06,0.4-0.12,0.82-0.27,1.2c0.04-0.09-0.11,0.2-0.14,0.25
			c0.08-0.16,0,0.08-0.05,0.07c0.03,0.01,0.13-0.09,0.18-0.09c0.04,0,0.24,0.03,0.25,0.02c0.26-0.04,0.07,0.09-0.01-0.05
			c0.05,0.09-0.12-0.18-0.15-0.21c-0.23-0.33-0.35-0.67-0.44-1.06c-0.19-0.77-0.19-1.59-0.19-2.4c-0.01-2.59,0.11-5.17,0.32-7.75
			c0.07-0.81-0.74-1.5-1.5-1.5C945.95,318.23,945.38,318.92,945.31,319.73L945.31,319.73z"/>
	</g>
</g>
<g>
	<path class="st0" d="M808.41,515.58c-12.56,6.06-23.29,15.86-30.47,27.82c3.21,0.21,6.35-0.85,9.39-1.9
		c14.21-4.89,28.81-10.01,40.13-19.89c1.71-1.49,3.45-3.93,2.16-5.8c-0.57-0.82-1.56-1.2-2.49-1.55c-3.44-1.26-7.24-2.52-10.67-1.26
		c-3.28,1.21-5.33,4.4-7.87,6.8c-2.46,2.32-5.47,3.94-8.44,5.54c1.95-3.45,4.7-6.46,7.97-8.71"/>
	<g>
		<path class="st0" d="M807.65,514.28c-12.8,6.23-23.65,16.17-31.01,28.35c-0.61,1.01,0.19,2.2,1.3,2.26
			c3.68,0.17,7.16-1.05,10.59-2.23c3.23-1.11,6.46-2.24,9.67-3.43c6.24-2.32,12.41-4.89,18.23-8.15c2.95-1.65,5.8-3.47,8.5-5.51
			c2.37-1.79,5.3-3.75,6.33-6.67c0.5-1.42,0.37-2.96-0.58-4.15c-0.99-1.24-2.55-1.72-3.99-2.23c-3.22-1.14-6.83-2.14-10.22-1.1
			c-3.23,1-5.39,3.6-7.62,5.98c-2.71,2.89-6.01,4.79-9.47,6.65c0.68,0.68,1.37,1.37,2.05,2.05c1.86-3.24,4.37-6.02,7.43-8.17
			c1.57-1.1,0.07-3.7-1.51-2.59c-3.49,2.44-6.38,5.55-8.5,9.25c-0.76,1.33,0.75,2.76,2.05,2.05c2.7-1.45,5.38-2.94,7.76-4.9
			c2.1-1.73,3.68-3.97,5.74-5.75c2.35-2.03,5.13-2.34,8.08-1.64c1.45,0.34,2.86,0.83,4.25,1.35c1.41,0.53,2.26,1.2,1.47,2.72
			c-0.63,1.2-1.74,2.09-2.76,2.94c-1.2,1-2.44,1.95-3.72,2.86c-2.41,1.71-4.94,3.26-7.53,4.67c-5.25,2.87-10.77,5.19-16.37,7.28
			c-3.07,1.15-6.16,2.23-9.26,3.3c-3.43,1.19-6.91,2.57-10.6,2.4c0.43,0.75,0.86,1.5,1.3,2.26c7.11-11.77,17.57-21.27,29.93-27.28
			C810.9,516.03,809.38,513.44,807.65,514.28L807.65,514.28z"/>
	</g>
</g>
<g>
	<path class="st1" d="M490.83,311.24c11.9,16.79,24.17,34.91,24.94,55.47c1.17,31.19-23.76,56.31-37.33,84.41
		c-7.17,14.85-11.29,31.16-12.02,47.63c-0.64,14.34,1.72,29.77,11.39,40.39c8.96,9.83,22.62,13.83,35.76,15.85
		c39.95,6.16,82-2.36,116.4-23.6c10.61-6.55,20.74-14.37,32.72-17.83c19.61-5.67,40.51,1.25,60.92,0.62
		c23.17-0.71,44.86-11.1,65.13-22.34c28.04-15.56,56.8-35.48,66.87-65.92c4.24-12.83,5.09-27.31,13.45-37.93
		c5.92-7.5,14.88-12.04,21.2-19.21c10.35-11.76,12.07-28.68,11.89-44.35c-0.39-33.1-8.52-68.58-33.44-90.36
		c-24.99-21.84-60.79-25.08-93.96-26.02c-21.01-0.59-42.65-0.57-62.21,7.12c-18.14,7.13-34.65,20.82-54.14,20.63
		c-10.52-0.1-20.62-4.36-31.13-4.95c-26.12-1.47-48.38,19.35-74.22,23.42c-11.39,1.79-23.27,0.27-34.36,3.45
		c-21.72,6.22-35.35,32.36-28.01,53.73"/>
	<g>
		<path class="st1" d="M489.54,312c13.08,18.47,26.91,38.97,24.47,62.72c-2.16,21.01-15.27,39.03-26.06,56.47
			c-5.75,9.31-11.15,18.81-15.06,29.06c-4.31,11.31-6.93,23.25-7.78,35.32c-0.74,10.49-0.19,21.44,3.62,31.34
			c3.71,9.65,10.5,17.28,19.66,22.09c9.47,4.97,20.19,6.99,30.71,8.25c11.44,1.37,23.03,1.56,34.52,0.6
			c22.51-1.88,44.63-8.05,64.79-18.26c10.28-5.2,19.53-11.95,29.46-17.74c5.05-2.94,10.34-5.52,16-7.06
			c6.04-1.64,12.3-2.09,18.54-1.95c12.44,0.26,24.73,2.71,37.18,2.88c11.88,0.16,23.6-2.21,34.78-6.11
			c11.37-3.97,22.19-9.37,32.74-15.15c9.26-5.07,18.37-10.43,27.03-16.47c16.31-11.39,31.57-25.57,39.91-43.96
			c4.39-9.68,5.92-20.1,8.98-30.19c1.56-5.15,3.63-10.22,6.92-14.53c3.32-4.35,7.75-7.7,12.02-11.06c4.12-3.24,8.14-6.59,11.32-10.8
			c3.04-4.03,5.26-8.62,6.82-13.41c3.23-9.92,3.73-20.57,3.54-30.92c-0.37-20.41-3.55-41.19-11.99-59.91
			c-8.38-18.58-22.36-33.68-40.75-42.64c-18.89-9.19-40.14-12.13-60.9-13.37c-11.38-0.68-22.84-1.04-34.24-0.82
			c-11.91,0.23-23.93,1.32-35.42,4.6c-10.86,3.09-20.62,8.57-30.59,13.71c-9.87,5.08-20.39,9.84-31.73,9.62
			c-12.03-0.23-23.34-5.5-35.47-4.97c-10.21,0.44-19.89,3.96-29.15,8.03c-9.79,4.3-19.3,9.36-29.49,12.7
			c-5.36,1.75-10.83,2.91-16.45,3.37c-6.17,0.5-12.36,0.41-18.52,0.99c-9.81,0.92-18.75,3.96-26.19,10.55
			c-6.51,5.76-11.29,13.5-13.73,21.83c-2.4,8.17-2.47,16.97,0.23,25.07c0.61,1.82,3.51,1.04,2.89-0.8
			c-5.62-16.81,1.66-36.47,16.01-46.58c9.06-6.38,19.68-7.21,30.44-7.6c5.88-0.22,11.77-0.46,17.55-1.63
			c4.92-1,9.71-2.56,14.38-4.39c18.78-7.36,37.27-20.25,58.33-18.37c11.63,1.03,22.65,5.85,34.49,4.59
			c10.43-1.11,20.01-5.68,29.2-10.46c10.02-5.21,19.85-10.51,30.86-13.35c11.59-3,23.6-3.83,35.53-3.92
			c21.43-0.16,43.48,0.53,64.48,5.11c20.03,4.37,39.07,13.2,52.52,29.09c12.97,15.32,19.62,35.02,22.66,54.61
			c1.56,10.03,2.21,20.24,2.08,30.39c-0.13,10.34-1.22,21.13-5.79,30.55c-2.35,4.84-5.61,8.99-9.61,12.57
			c-3.84,3.42-8.08,6.36-11.93,9.77c-7.98,7.07-11.9,16.19-14.51,26.34c-2.6,10.11-4.69,20.12-9.67,29.41
			c-4.68,8.73-11,16.45-18.12,23.3c-14.91,14.32-33.11,24.99-51.31,34.56c-10.52,5.53-21.38,10.52-32.82,13.82
			c-11.62,3.35-23.36,4.4-35.4,3.48c-12.06-0.92-24.11-3.12-36.25-2.36c-11.52,0.72-21.69,4.86-31.46,10.83
			c-9.59,5.87-18.76,12.23-28.89,17.19c-10.13,4.96-20.76,8.87-31.66,11.75c-21.78,5.74-44.74,7.25-67.06,4.13
			c-10.32-1.45-20.92-3.82-29.81-9.51c-9.1-5.82-14.54-15.03-16.92-25.42c-2.47-10.84-1.95-22.37-0.23-33.28
			c1.87-11.92,5.51-23.56,10.81-34.4c9.06-18.54,22.35-34.74,30.63-53.69c3.89-8.91,6.54-18.39,6.65-28.17
			c0.12-10.81-3.04-21.27-7.71-30.94c-4.8-9.92-11.11-19.02-17.47-27.99C491.02,308.92,488.42,310.42,489.54,312L489.54,312z"/>
	</g>
</g>
<g>
	<path class="st1" d="M666.67,529.98c-5.21,1.37-9.38,5.18-13.32,8.86c-3.23,3.02-6.7,6.59-6.64,11c0.01,0.51,0.08,1.05,0.43,1.42
		c0.36,0.38,0.92,0.47,1.44,0.55c2.97,0.45,5.9,1.12,8.78,1.99c3.28,1,6.62,2.28,10.03,1.87c4.23-0.51,7.67-3.51,10.82-6.37
		c1.42-1.29,2.98-3,2.5-4.87c-0.41-1.6-2.13-2.42-3.61-3.15c-1.48-0.73-3.1-1.9-3.04-3.55c0.03-0.86,0.55-1.63,1.18-2.21
		c1.3-1.22,3.1-1.78,4.46-2.93s2.15-3.42,0.86-4.66c-1.03-0.98-2.68-0.7-4.06-0.35c-4.25,1.08-8.5,2.15-12.75,3.23"/>
	<g>
		<path class="st1" d="M666.27,528.53c-3.89,1.07-7.21,3.31-10.26,5.88c-2.96,2.5-6,5.17-8.29,8.32c-1.07,1.48-1.96,3.19-2.31,5
			c-0.32,1.69-0.49,3.97,1.2,5.02c0.75,0.46,1.65,0.52,2.5,0.66c1.25,0.21,2.49,0.46,3.72,0.74c2.15,0.5,4.26,1.15,6.37,1.8
			c4.24,1.31,8.36,1.88,12.51-0.03c1.75-0.81,3.32-1.96,4.82-3.17c1.48-1.21,3.05-2.47,4.25-3.97c1.15-1.43,1.91-3.23,1.28-5.06
			c-0.56-1.6-2-2.61-3.44-3.36c-1.08-0.56-3.82-1.61-2.79-3.24c1.01-1.58,3.36-2.18,4.78-3.35c1.41-1.17,2.41-3.14,2.03-5
			c-0.42-2.06-2.33-3.1-4.33-3.01c-2.32,0.11-4.69,1-6.92,1.56c-2.68,0.68-5.35,1.36-8.03,2.03c-1.87,0.47-1.08,3.37,0.8,2.89
			c3.94-1,7.87-1.99,11.81-2.99c0.81-0.2,3.13-1.12,3.7-0.07c0.73,1.36-1.58,2.75-2.42,3.24c-2.49,1.44-5.84,3.69-4.29,7.05
			c0.61,1.32,1.83,2.25,3.08,2.93c1.02,0.55,2.93,1.12,3.24,2.41c0.31,1.33-1.25,2.61-2.12,3.41c-1.29,1.19-2.61,2.37-4.04,3.38
			c-2.88,2.03-5.94,3.05-9.47,2.39c-3.86-0.72-7.54-2.26-11.39-3.06c-0.93-0.19-1.86-0.36-2.8-0.51c-0.1-0.02-0.62-0.05-0.78-0.12
			c-0.57-0.27-0.24,0.17-0.45-0.47c-0.44-1.36,0.77-3.53,1.45-4.62c1.89-3.05,4.85-5.51,7.52-7.86c2.91-2.57,6.09-4.89,9.88-5.93
			C668.93,530.91,668.14,528.02,666.27,528.53L666.27,528.53z"/>
	</g>
</g>
<g>
	<path class="st1" d="M889.57,390.89c-3.28,3.92-6.52,7.88-9.71,11.88c-0.82,1.03-1.67,2.44-0.96,3.55
		c6.73-2.4,12.27-7.94,14.67-14.67c0.23-0.63,0.43-1.32,0.26-1.97c-0.31-1.18-1.84-1.74-2.97-1.29c-1.13,0.45-1.83,1.65-2.01,2.85"
		/>
	<g>
		<path class="st1" d="M888.51,389.82c-2.35,2.81-4.68,5.64-6.98,8.48c-1.11,1.37-2.3,2.71-3.32,4.16c-0.98,1.39-1.45,3.03-0.61,4.6
			c0.29,0.54,1.1,0.91,1.69,0.69c4.45-1.62,8.44-4.4,11.41-8.09c1.49-1.84,2.74-3.84,3.67-6.02c0.52-1.22,1.14-2.54,0.97-3.9
			c-0.15-1.21-0.92-2.18-2.02-2.67c-2.79-1.24-5.43,1.02-5.93,3.75c-0.14,0.8,0.22,1.62,1.05,1.85c0.73,0.2,1.7-0.25,1.85-1.05
			c0.13-0.74,0.5-1.89,1.41-1.91c0.91-0.02,0.67,0.77,0.47,1.38c-0.71,2.11-1.84,4.11-3.17,5.9c-2.62,3.56-6.36,6.35-10.51,7.86
			c0.56,0.23,1.13,0.46,1.69,0.69c-0.41-0.77,1.19-2.31,1.6-2.82c0.98-1.22,1.97-2.44,2.96-3.66c1.94-2.39,3.91-4.76,5.88-7.13
			c0.52-0.62,0.61-1.51,0-2.12C890.1,389.29,889.04,389.2,888.51,389.82L888.51,389.82z"/>
	</g>
</g>
<g>
	<g>
		<path class="st1" d="M824.05,199.05c-3.87-0.01-7.74-0.01-11.61-0.02c-3.5-0.01-7.43-0.47-10.75,0.87c-0.76,0.31-1.27,1-1.05,1.85
			c0.19,0.71,1.1,1.35,1.85,1.05c3.18-1.29,7.02-0.77,10.38-0.76c3.73,0.01,7.46,0.01,11.18,0.02
			C825.98,202.05,825.98,199.05,824.05,199.05L824.05,199.05z"/>
	</g>
</g>
<g>
	<path class="st1" d="M656.04,214.98c1.62,1.27,3.25,2.54,4.87,3.81c1.64,1.28,3.31,2.58,5.27,3.28c1.02,0.36,2.16,0.55,3.16,0.15
		c0.66-0.26,1.21-0.75,1.74-1.24c2.75-2.51,5.5-5.02,8.25-7.53c0.45-0.41,0.9-0.83,1.17-1.37c0.67-1.37-0.15-3.11-1.46-3.89
		c-1.31-0.78-2.94-0.78-4.44-0.55c-2.34,0.36-4.59,1.25-6.55,2.59c-2.31,1.57-4.64,3.88-7.39,3.4c-1.84-0.33-3.67-1.9-5.34-1.06
		c-0.7,1.53,0.5,3.58,2.17,3.72"/>
	<g>
		<path class="st1" d="M654.98,216.04c2.27,1.77,4.5,3.62,6.84,5.31c1.91,1.38,4.31,2.78,6.76,2.57c1.29-0.11,2.3-0.76,3.25-1.58
			c1.21-1.04,2.37-2.16,3.55-3.24c1.02-0.93,2.03-1.86,3.05-2.78c1-0.91,2.16-1.78,2.98-2.88c1.39-1.87,0.89-4.38-0.77-5.92
			c-1.84-1.7-4.53-1.67-6.84-1.25c-2.51,0.46-4.9,1.52-6.97,3c-1.71,1.22-3.84,3.36-6.13,2.83c-1.91-0.44-6.01-2.86-6.92,0.36
			c-0.65,2.29,0.97,4.9,3.33,5.28c1.89,0.3,2.7-2.59,0.8-2.89c-0.97-0.16-1.47-0.94-1.12-1.88c-0.35,0.35-0.7,0.7-1.05,1.05
			c1.46-0.59,3.1,0.79,4.54,1.06c1.58,0.3,3.11-0.08,4.52-0.8c1.52-0.78,2.79-1.93,4.2-2.86c1.53-1.01,3.2-1.73,4.99-2.13
			c1.45-0.32,3.64-0.67,4.77,0.59c1.32,1.46-0.54,2.58-1.54,3.5c-1.55,1.42-3.11,2.84-4.66,4.26c-0.72,0.65-1.43,1.31-2.15,1.96
			c-0.71,0.65-1.37,1.37-2.41,1.34c-1.94-0.06-3.84-1.55-5.32-2.68c-1.87-1.42-3.71-2.89-5.56-4.34
			C655.59,212.74,653.46,214.85,654.98,216.04L654.98,216.04z"/>
	</g>
</g>
<g>
	<g>
		<path class="st1" d="M500.4,360.13c0.09,3.93,0.19,7.87,0.28,11.8c0.04,1.89,0.11,3.78,0.13,5.66c0.02,1.61-0.02,3.2-0.92,4.59
			c-1.06,1.62,1.54,3.13,2.59,1.51c2.02-3.1,1.31-7.38,1.22-10.87c-0.1-4.23-0.2-8.46-0.3-12.69
			C503.35,358.2,500.35,358.2,500.4,360.13L500.4,360.13z"/>
	</g>
</g>
<g>
	<g>
		<path class="st1" d="M485.97,383.31c0.12,8.59-1.33,17.13-4.34,25.18c-2.83,7.57-6.78,14.69-7.86,22.81
			c-0.11,0.81,0.77,1.49,1.5,1.5c0.9,0.01,1.39-0.7,1.5-1.5c1.07-8.1,5.35-15.3,8.07-22.89c2.88-8.03,4.25-16.58,4.12-25.11
			C488.94,381.39,485.94,381.38,485.97,383.31L485.97,383.31z"/>
	</g>
</g>
<g>
	<path class="st1" d="M628.29,550.85c-7.7,1.94-14.9,5.85-20.72,11.24c-1.56,1.44-3.06,3.06-3.75,5.06
		c-0.11,0.31-0.18,0.67,0.01,0.93c0.19,0.25,0.55,0.29,0.87,0.29c5.89,0.06,11.55-2.32,17.42-2.83c2.18-0.19,4.39-0.11,6.54-0.52
		c2.15-0.41,4.31-1.4,5.52-3.22c1.22-1.82,1.15-4.58-0.55-5.96c-0.79-0.64-1.92-1.01-2.27-1.97c-0.14-0.39-0.13-0.82-0.22-1.22
		c-0.38-1.59-2.8-2.19-3.88-0.96"/>
	<g>
		<path class="st1" d="M627.89,549.4c-5.93,1.52-11.58,4.12-16.55,7.69c-2.41,1.73-4.87,3.65-6.78,5.95
			c-1.3,1.56-4.16,5.95-0.58,6.76c1.36,0.31,2.97,0.01,4.32-0.16c1.78-0.23,3.54-0.58,5.29-0.97c3.29-0.74,6.55-1.54,9.93-1.71
			c3.13-0.16,6.38-0.2,9.17-1.81c2.28-1.32,3.89-3.62,3.81-6.32c-0.04-1.4-0.56-2.83-1.57-3.82c-0.51-0.5-1.14-0.8-1.7-1.22
			c-0.65-0.49-0.48-1.05-0.73-1.78c-0.88-2.6-4.44-3.2-6.3-1.36c-1.38,1.36,0.74,3.48,2.12,2.12c0.34-0.33,0.98-0.28,1.28,0.1
			c0.23,0.3,0.17,0.86,0.27,1.21c0.14,0.53,0.4,1.02,0.77,1.42c0.65,0.71,1.64,1.02,2.26,1.72c0.56,0.63,0.7,1.54,0.57,2.36
			c-0.34,2.16-2.53,3.34-4.46,3.83c-2.54,0.65-5.21,0.43-7.8,0.73c-5.1,0.59-10.02,2.46-15.16,2.71c-0.29,0.01-0.87-0.09-1.13,0.03
			c-0.08,0-0.15,0-0.23,0c0.31,0.78,0.53,0.94,0.64,0.49c0.28-0.27,0.52-1.04,0.75-1.39c0.66-1.01,1.52-1.87,2.4-2.69
			c1.73-1.63,3.6-3.11,5.57-4.44c4.47-3.02,9.41-5.22,14.63-6.56C630.56,551.81,629.76,548.92,627.89,549.4L627.89,549.4z"/>
	</g>
</g>
<g>
	<g>
		<path class="st1" d="M918.21,316.42c-0.8,7.01-2.14,13.96-3.96,20.78c-0.5,1.87,2.39,2.66,2.89,0.8
			c1.89-7.08,3.24-14.29,4.07-21.57c0.09-0.81-0.76-1.49-1.5-1.5C918.82,314.92,918.3,315.62,918.21,316.42L918.21,316.42z"/>
	</g>
</g>
<g>
	<path class="st2" d="M555.8,347.23c5.33-6.74,4.93-16.66,1.28-24.44c-3.65-7.78-9.99-13.91-16.2-19.85c-7-6.7-14-13.4-21-20.1
		c22.09-13.81,50.5-7.27,76.24-3.3c17.73,2.73,35.68,4.01,53.61,3.82c3.74-9.2-4.04-20.99,1.69-29.1
		c3.58-5.06,10.68-5.88,16.88-5.78c6.84,0.12,13.67,0.8,20.4,2.03c4.24,0.78,8.67,1.77,12.79,0.48c4.98-1.56,8.32-6.07,12.24-9.51
		c9.76-8.56,23.52-10.65,36.49-11.37c19.72-1.09,39.82,0.22,58.47,6.7c18.65,6.49,35.81,18.52,45.96,35.45
		c7.36,12.28,10.75,26.47,14.04,40.4c1.72,7.31,3.46,14.86,2.14,22.25c-1.94,10.82-9.98,19.32-15.88,28.59
		c-15.06,23.68-16.81,54.2-32.99,77.13c-8.73,12.37-21.06,21.65-33.19,30.71c-11.64,8.7-23.56,17.55-37.4,22.01
		c-38.31,12.33-80.2-11.73-119.63-3.69c-20.1,4.1-37.49,16.14-55.83,25.32c-18.34,9.18-40.14,15.61-59.12,7.83
		c-4.17-1.71-8.2-4.19-10.7-7.94c-1.79-2.68-2.69-5.86-3.27-9.03c-3.52-19.22,4.04-38.69,13-56.06
		c8.96-17.37,19.64-34.37,23.11-53.61c1.87-10.37,1.6-21.21,5.3-31.08c2.97-7.93,8.33-14.71,13.6-21.34"/>
	<g>
		<path class="st2" d="M557.1,347.99c5.9-7.71,5.03-18.5,0.87-26.8c-4.91-9.8-13.75-17.14-21.54-24.58
			c-5.16-4.94-10.33-9.88-15.49-14.82c-0.1,0.79-0.2,1.57-0.3,2.36c13.84-8.54,30.37-9.02,46.1-7.41
			c17.11,1.75,33.94,5.44,51.1,6.93c10.6,0.92,21.25,1.31,31.89,1.21c0.71-0.01,1.2-0.47,1.45-1.1c2.41-6.27,0.2-12.89-0.34-19.28
			c-0.26-3.09-0.15-6.35,1.59-9.04c1.87-2.89,5.11-4.26,8.37-4.92c3.5-0.71,7.13-0.59,10.68-0.44c4.46,0.19,8.91,0.61,13.33,1.29
			c4.19,0.65,8.43,1.85,12.7,1.74c3.55-0.09,6.73-1.31,9.54-3.44c2.8-2.13,5.1-4.81,7.74-7.13c2.71-2.37,5.83-4.26,9.12-5.72
			c6.78-3.03,14.29-4.26,21.64-4.89c16.49-1.41,33.48-0.95,49.68,2.64c14.85,3.29,29.19,9.42,41.07,19.05
			c5.53,4.48,10.52,9.68,14.58,15.54c4.57,6.6,7.85,13.94,10.38,21.53c2.59,7.77,4.46,15.77,6.32,23.74
			c1.95,8.38,3.45,16.91,0.41,25.22c-2.57,7.03-7.4,13.01-11.64,19.09c-4.25,6.1-7.7,12.59-10.57,19.44
			c-5.74,13.75-9.23,28.31-14.78,42.14c-2.75,6.85-6.07,13.51-10.33,19.55c-4.58,6.5-10.26,12.16-16.28,17.33
			c-6.08,5.23-12.55,10.01-18.98,14.8c-6.45,4.8-12.99,9.53-20.01,13.47c-6.91,3.89-14.25,6.85-22.04,8.42
			c-7.44,1.5-15.08,1.78-22.64,1.39c-30.29-1.53-60.51-13.6-90.93-6.73c-31.43,7.09-55.85,32.74-88.51,35.95
			c-7.74,0.76-15.59,0.09-22.9-2.66c-3.53-1.33-6.99-3.18-9.58-5.96c-2.83-3.04-3.96-7.08-4.64-11.08
			c-2.87-16.85,3.04-33.87,10.27-48.86c6.98-14.47,15.64-28.12,21.36-43.19c2.9-7.64,4.71-15.46,5.65-23.58
			c0.97-8.37,1.45-16.98,4.71-24.86c2.99-7.22,7.93-13.43,12.75-19.49c1.19-1.5-0.92-3.63-2.12-2.12
			c-5.02,6.32-10.12,12.73-13.28,20.23c-3.28,7.79-3.96,16.25-4.87,24.56c-0.95,8.64-2.83,16.94-5.96,25.06
			c-3.05,7.9-6.94,15.43-10.92,22.89c-7.96,14.94-16.46,29.99-19.85,46.76c-1.64,8.12-2.01,16.51-0.39,24.66
			c0.75,3.79,2.08,7.47,4.59,10.46c2.42,2.88,5.73,4.93,9.14,6.43c14.89,6.54,31.76,4.25,46.63-1.09
			c15.63-5.6,29.56-14.78,44.37-22.12c7.31-3.62,14.87-6.79,22.8-8.75c7.83-1.93,15.89-2.52,23.94-2.28
			c16.03,0.48,31.74,4.05,47.53,6.5c15.2,2.36,30.88,3.82,46.02,0.24c16.26-3.85,29.87-13.79,43.03-23.63
			c12.76-9.54,25.76-19.33,34.74-32.72c8.53-12.73,12.95-27.6,17.62-42.03c2.39-7.37,4.85-14.75,8.05-21.82
			c3.2-7.08,7.31-13.45,11.79-19.77c4.36-6.15,8.78-12.6,10.37-20.1c1.83-8.66-0.42-17.41-2.41-25.83
			c-3.74-15.77-7.98-31.88-17.9-45.03c-8.83-11.71-20.95-20.67-34.29-26.63c-15.34-6.86-32.13-9.77-48.85-10.33
			c-8.46-0.28-17.01-0.1-25.43,0.79c-7.32,0.77-14.62,2.2-21.33,5.31c-3.33,1.54-6.44,3.53-9.21,5.95
			c-2.71,2.38-5.04,5.25-8.02,7.31c-3.73,2.57-7.83,2.66-12.17,1.95c-4.41-0.72-8.78-1.56-13.23-2.03
			c-7.25-0.76-15.74-1.77-22.71,0.98c-6.33,2.5-9.11,8.24-8.76,14.81c0.34,6.44,2.93,13.21,0.51,19.51c0.48-0.37,0.96-0.73,1.45-1.1
			c-19.15,0.18-38.22-1.35-57.12-4.39c-16.07-2.58-32.53-5.81-48.87-4.01c-8.71,0.96-17.13,3.46-24.62,8.08
			c-0.8,0.5-1.02,1.67-0.3,2.36c5.43,5.19,10.85,10.38,16.28,15.57c4.76,4.55,9.69,8.99,13.99,13.99c7.59,8.83,13.44,22.49,5.42,33
			C553.34,348.01,555.94,349.51,557.1,347.99L557.1,347.99z"/>
	</g>
</g>
<g>
	<path class="st3" d="M560.15,409.91c-0.84-7.74,3.03-15.41,8.55-20.91c5.52-5.49,12.56-9.16,19.55-12.61
		c-2.28,1.39-4.8,2.37-7.42,2.87c2.84-1.27,5.69-2.54,8.53-3.81c0.82-0.37,1.71-0.81,2.04-1.64c0.23-0.59,0.13-1.25-0.04-1.86
		c-0.59-2.07-1.98-3.93-2.09-6.08c-0.18-3.61,3.15-6.29,6.15-8.31c22.18-14.9,45.39-29.46,71.52-35.07
		c9.59-2.06,19.4-2.87,29.18-3.68c1.37-0.11,2.78-0.22,4.12,0.12c2.82,0.72,4.76,3.3,6.12,5.87c5.05,9.58,5.12,20.97,4.19,31.76
		c-0.94,10.93-2.79,21.76-4.63,32.58c1.22-0.39,2.65,0.69,2.62,1.97c0.41-2.52,0.14-5.14-0.77-7.52c1.29,3.99,0.47,8.44-1.39,12.2
		c-1.86,3.76-4.68,6.96-7.55,10.02c-9.81,10.45-20.65,19.94-32.3,28.28c-2.98,2.13-6.08,4.23-9.6,5.27c-3.38,1-6.97,0.98-10.49,0.87
		c-21.07-0.69-42.04-4.61-61.94-11.58c-5.19-1.82-10.46-3.93-14.42-7.75c-3.81-3.68-6.09-8.62-8.28-13.44
		c-1.02-2.24-2.05-4.52-2.28-6.96c-0.39-4.03,1.45-8.01,4.11-11.06c2.66-3.05,6.08-5.31,9.46-7.54"/>
	<g>
		<path class="st3" d="M561.65,409.91c-0.72-7.38,2.75-14.39,7.83-19.56c5.49-5.59,12.58-9.23,19.53-12.66
			c-0.5-0.86-1.01-1.73-1.51-2.59c-2.2,1.31-4.55,2.21-7.06,2.72c0.39,0.91,0.77,1.83,1.16,2.74c1.8-0.8,3.59-1.6,5.39-2.41
			c1.52-0.68,3.34-1.23,4.65-2.28c2.93-2.35,0.43-5.78-0.49-8.45c-1.02-2.97,0.73-5.21,2.95-7.03c2.59-2.13,5.58-3.86,8.37-5.71
			c11.73-7.74,23.75-15.14,36.53-21.05c12.99-6.01,26.59-10,40.8-11.75c3.83-0.47,7.68-0.84,11.53-1.17
			c1.76-0.15,3.51-0.31,5.27-0.44c1.74-0.13,3.43-0.14,4.93,0.86c2.61,1.74,4.09,5.17,5.16,7.99c1.22,3.22,2,6.61,2.4,10.03
			c0.94,7.89,0.23,15.91-0.67,23.76c-1,8.65-2.47,17.24-3.93,25.83c-0.19,1.14,0.66,2.1,1.85,1.85c0.32-0.07,0.7,0.18,0.72,0.52
			c0.11,1.57,2.69,2.18,2.95,0.4c0.42-2.83,0.21-5.62-0.77-8.32c-0.65-1.78-3.46-1.08-2.89,0.8c2.06,6.79-1.88,13.25-6.2,18.19
			c-4.57,5.22-9.6,10.1-14.73,14.76c-5.1,4.63-10.41,9.03-15.92,13.15c-2.74,2.05-5.5,4.16-8.48,5.85c-3.1,1.77-6.37,2.65-9.93,2.8
			c-7.07,0.29-14.3-0.45-21.32-1.25c-7.14-0.81-14.23-2.02-21.24-3.57c-7.07-1.57-14.05-3.51-20.91-5.8
			c-5.91-1.98-12.22-4.06-16.73-8.57c-2.57-2.58-4.38-5.79-5.97-9.04c-1.57-3.21-3.65-6.8-3.88-10.43
			c-0.51-7.93,7.07-13.07,12.86-16.88c1.61-1.06,0.1-3.66-1.51-2.59c-5.72,3.76-11.85,8.03-13.82,14.98
			c-1.03,3.63-0.37,7.11,1.06,10.52c1.32,3.15,2.76,6.3,4.46,9.26c1.72,2.99,3.83,5.78,6.52,7.95c2.57,2.07,5.47,3.59,8.5,4.87
			c6.85,2.88,14.1,4.99,21.29,6.86c14.89,3.88,30.23,6.12,45.61,6.66c3.72,0.13,7.53,0.18,11.14-0.84c3.46-0.98,6.54-2.91,9.46-4.97
			c6.07-4.28,11.92-8.91,17.52-13.79c6.27-5.46,12.34-11.25,17.86-17.48c5.15-5.81,9.7-13.4,7.26-21.43
			c-0.96,0.27-1.93,0.53-2.89,0.8c0.79,2.17,1.11,4.43,0.77,6.72c0.98,0.13,1.96,0.27,2.95,0.4c-0.16-2.35-2.21-3.92-4.52-3.42
			c0.62,0.62,1.23,1.23,1.85,1.85c1.36-7.96,2.71-15.93,3.72-23.94c0.94-7.46,1.73-15.03,1.33-22.55
			c-0.37-6.88-1.75-14.02-5.32-20.01c-1.55-2.6-3.81-5.05-6.9-5.66c-1.82-0.36-3.68-0.11-5.51,0.05c-2.09,0.17-4.17,0.35-6.25,0.54
			c-7.78,0.71-15.56,1.63-23.18,3.36c-7.02,1.59-13.88,3.84-20.54,6.56c-13.41,5.48-25.99,12.74-38.16,20.55
			c-3.37,2.16-6.71,4.37-10.03,6.59c-2.86,1.92-6.22,3.89-7.85,7.07c-0.73,1.42-1.04,2.97-0.8,4.56c0.29,1.9,1.35,3.49,1.94,5.29
			c0.31,0.96,0.35,1.41-0.57,1.9c-0.92,0.49-1.91,0.87-2.86,1.3c-2.1,0.94-4.19,1.87-6.29,2.81c-1.63,0.73-0.41,3.06,1.16,2.74
			c2.75-0.56,5.36-1.59,7.77-3.03c1.67-1,0.2-3.44-1.51-2.59c-7.41,3.66-14.98,7.61-20.69,13.72c-5.27,5.64-8.92,13.25-8.15,21.1
			C558.84,411.81,561.84,411.83,561.65,409.91L561.65,409.91z"/>
	</g>
</g>
<g>
	<g>
		<path class="st2" d="M642.79,506.45c-9.43,3.22-17.87,9.05-24.13,16.82c-1.2,1.49,0.91,3.63,2.12,2.12
			c5.94-7.37,13.84-12.98,22.81-16.05C645.4,508.72,644.62,505.82,642.79,506.45L642.79,506.45z"/>
	</g>
</g>
<g>
	<path class="st2" d="M517.67,417.85c-4.69,9.89-9.92,20.11-18.88,26.39c-1.19-5.26,1.43-10.57,4.19-15.21
		c1.31-2.21,2.67-4.39,4.1-6.52c1.48-2.21,3.04-4.4,5.05-6.15c2.01-1.75,4.52-3.03,7.18-3.13c0.97,2.21-0.86,4.59-2.61,6.26
		s-3.72,3.84-3.04,6.16"/>
	<g>
		<path class="st2" d="M516.37,417.09c-4.52,9.52-9.52,19.58-18.34,25.85c0.73,0.3,1.47,0.6,2.2,0.9
			c-1.3-6.31,2.98-12.48,6.17-17.55c2.96-4.7,6.65-11.19,12.9-11.57c-0.48-0.37-0.96-0.73-1.45-1.1c0.9,2.42-1.91,4.37-3.33,5.92
			c-1.67,1.82-2.91,3.97-2.32,6.5c0.44,1.88,3.33,1.08,2.89-0.8c-0.56-2.39,2.41-4.29,3.74-5.84c1.56-1.82,2.81-4.16,1.9-6.58
			c-0.22-0.59-0.75-1.14-1.45-1.1c-7.37,0.45-11.64,7-15.23,12.65c-3.8,5.98-8.26,12.85-6.73,20.27c0.18,0.9,1.44,1.44,2.2,0.9
			c9.3-6.6,14.64-16.87,19.42-26.92C519.79,416.87,517.2,415.34,516.37,417.09L516.37,417.09z"/>
	</g>
</g>
<g>
	<path class="st2" d="M527.91,341.15c1.01-3.59,1.99-7.55,0.42-10.94c-0.74-1.6-1.98-2.9-3.24-4.12
		c-4.81-4.67-10.24-8.69-16.1-11.94c-0.59-0.33-1.34-0.64-1.89-0.24c-0.28,0.21-0.42,0.55-0.53,0.89c-0.82,2.55-0.62,5.41,0.54,7.82
		c2.6,5.43,9.49,8.12,11.28,13.86c0.24,0.77,0.38,1.57,0.74,2.29c0.7,1.39,2.18,2.26,3.7,2.62s3.1,0.26,4.66,0.16
		c0.37-0.02,0.79-0.07,1.03-0.35c0.21-0.25,0.22-0.61,0.22-0.94c-0.01-2.65-0.02-5.3-0.04-7.95"/>
	<g>
		<path class="st2" d="M529.35,341.55c0.91-3.26,1.78-6.76,0.98-10.14c-0.79-3.32-3.38-5.7-5.8-7.92c-2.51-2.3-5.18-4.43-7.96-6.38
			c-1.46-1.03-2.96-2-4.49-2.92c-1.27-0.76-2.83-1.98-4.37-1.97c-3.48,0.02-3.33,5.69-2.93,7.98c0.49,2.81,2.05,5.21,3.99,7.24
			c1.87,1.97,4.05,3.62,5.86,5.64c0.78,0.88,1.49,1.84,1.98,2.92c0.67,1.49,0.77,3.12,1.83,4.43c2.17,2.69,6.52,3.21,9.72,2.54
			c1.95-0.41,2.07-2.03,2.06-3.7c-0.01-2.32-0.02-4.63-0.03-6.95c-0.01-1.93-3.01-1.93-3,0c0.01,1.49,0.01,2.98,0.02,4.47
			c0,0.83,0.01,1.66,0.01,2.48c0,0.15-0.04,0.96,0,0.99c-0.23-0.17,1.17-0.27-0.22-0.18c-2.35,0.15-5.76,0.23-6.74-2.45
			c-0.38-1.05-0.59-2.12-1.07-3.14c-0.47-1-1.11-1.91-1.8-2.77c-1.34-1.67-2.98-3.06-4.55-4.5c-1.51-1.39-3.03-2.83-4.05-4.62
			c-0.64-1.11-1.05-2.35-1.18-3.63c-0.06-0.56-0.06-1.13-0.02-1.69c0.03-0.33,0.24-1.99,0.37-2.04c0.03-0.01,1.2,0.73,1.43,0.86
			c0.58,0.34,1.16,0.68,1.73,1.03c1.21,0.74,2.39,1.51,3.55,2.32c2.34,1.62,4.59,3.39,6.72,5.27c2.11,1.86,4.82,3.95,5.79,6.68
			c1.08,3.02,0.08,6.4-0.74,9.35C525.94,342.62,528.84,343.41,529.35,341.55L529.35,341.55z"/>
	</g>
</g>
<g>
	<path class="st2" d="M610.17,261.08c-2.4-0.46-4.9-0.91-7.27-0.31c-2.37,0.6-4.59,2.55-4.67,5c-0.05,1.6,0.81,3.13,2.03,4.16
		c1.21,1.04,2.74,1.64,4.29,2.05c2.66,0.71,5.45,0.9,8.18,0.56c1.48-0.18,3.05-0.58,4.04-1.7c0.72-0.81,1.04-1.89,1.22-2.96
		c0.22-1.27,0.26-2.65-0.35-3.79c-0.94-1.76-3.08-2.44-5.04-2.77c-1.67-0.28-3.37-0.43-5.06-0.43"/>
	<g>
		<path class="st2" d="M610.56,259.64c-4.13-0.79-9.14-1.39-12.21,2.19c-2.92,3.41-1.45,7.95,2.18,10.14
			c3.75,2.27,8.95,2.66,13.18,1.94c2.04-0.35,4-1.32,4.96-3.24c0.9-1.81,1.28-4.27,0.7-6.23c-1.4-4.73-7.83-5.01-11.85-5.04
			c-1.93-0.02-1.93,2.98,0,3c1.7,0.01,3.4,0.13,5.07,0.45c1.13,0.22,2.42,0.53,3.26,1.36c1.02,1.01,0.86,2.63,0.55,3.92
			c-0.35,1.48-1.12,2.31-2.6,2.7c-3.21,0.84-7,0.42-10.09-0.66c-2.29-0.8-5.18-3.2-3.5-5.85c2.02-3.17,6.47-2.38,9.55-1.79
			C611.65,262.89,612.46,260,610.56,259.64L610.56,259.64z"/>
	</g>
</g>
<g>
	<g>
		<path class="st2" d="M717.81,230.56c13.28-7.88,28.55-12.07,43.99-12.06c1.93,0,1.93-3,0-3c-15.96-0.01-31.78,4.32-45.51,12.47
			C714.64,228.95,716.14,231.55,717.81,230.56L717.81,230.56z"/>
	</g>
</g>
<g>
	<path class="st2" d="M881.22,298.85c1.26,10.63,2.52,21.25,3.78,31.88c6.17-15.07,6.06-32.6-0.29-47.59
		c-0.88-2.08-1.94-4.19-3.7-5.61c-0.68-0.54-1.5-0.98-2.37-0.95c-1.41,0.06-2.5,1.39-2.77,2.77c-0.27,1.38,0.08,2.8,0.43,4.17
		c1.92,7.49,3.84,14.98,5.76,22.46"/>
	<g>
		<path class="st2" d="M879.72,298.85c1.26,10.63,2.52,21.25,3.78,31.88c0.2,1.71,2.3,2.01,2.95,0.4
			c4.64-11.46,5.75-24.2,3.39-36.32c-0.58-2.99-1.39-5.95-2.41-8.82c-1-2.8-2.07-5.78-3.97-8.11c-1.62-2-4.36-3.77-6.86-2.15
			c-2.67,1.72-2.52,5.02-1.86,7.74c1.85,7.66,3.92,15.28,5.88,22.92c0.48,1.87,3.37,1.08,2.89-0.8c-1.51-5.89-3.03-11.79-4.54-17.68
			c-0.37-1.43-0.74-2.87-1.1-4.3c-0.35-1.37-1-3.13-0.35-4.5c1.29-2.76,3.95,0.94,4.69,2.25c2.57,4.54,3.98,10.01,4.9,15.11
			c0.96,5.3,1.18,10.74,0.73,16.11c-0.51,6.1-1.98,12.09-4.28,17.76c0.98,0.13,1.96,0.27,2.95,0.4
			c-1.26-10.63-2.52-21.25-3.78-31.88C882.49,296.96,879.49,296.94,879.72,298.85L879.72,298.85z"/>
	</g>
</g>
<g>
	<path class="st2" d="M880.21,342.54c-1.05,2.81-1.59,5.81-1.61,8.82c0,0.66,0.03,1.36,0.43,1.89c0.91,1.22,2.94,0.6,3.92-0.57
		c1.25-1.51,1.61-3.64,1.18-5.56c-0.43-1.91-1.57-3.61-3-4.96"/>
	<g>
		<path class="st2" d="M878.76,342.14c-0.82,2.23-1.32,4.55-1.55,6.91c-0.19,2.05-0.5,4.99,1.76,6.03c1.99,0.91,4.22-0.22,5.42-1.86
			c1.28-1.74,1.59-3.99,1.25-6.09c-0.38-2.33-1.79-4.44-3.46-6.05c-1.39-1.34-3.52,0.78-2.12,2.12c1.07,1.03,1.99,2.26,2.42,3.62
			c0.42,1.32,0.44,2.78-0.1,3.93c-0.14,0.31-0.32,0.62-0.52,0.89c0.05-0.07-0.18,0.19-0.22,0.23c-0.05,0.05-0.1,0.1-0.16,0.14
			c0.12-0.1,0.04-0.02-0.04,0.03c-0.14,0.09-0.29,0.18-0.44,0.25c-0.16,0.08,0,0,0.03-0.01c-0.07,0.02-0.13,0.05-0.2,0.07
			c-0.1,0.03-0.5,0.08-0.21,0.06c-0.08,0-0.48,0.01-0.32,0c0.22,0-0.07-0.02-0.05-0.03c0.02-0.01,0.3,0.17,0.01,0
			c-0.02-0.01-0.18-0.14-0.05-0.03c0.14,0.12-0.04-0.05-0.04-0.06c-0.01,0.05,0.05,0.15,0-0.08c-0.04-0.17-0.06-0.25-0.07-0.5
			c-0.03-0.92,0.03-1.85,0.12-2.77c0.2-2.05,0.72-4.08,1.43-6.01c0.28-0.76-0.31-1.64-1.05-1.85
			C879.77,340.87,879.04,341.38,878.76,342.14L878.76,342.14z"/>
	</g>
</g>
<g>
	<path class="st3" d="M697.61,317.73c1.37-5.53,0.2-11.46-2.28-16.59s-6.19-9.56-10.08-13.72c-10.35-11.07-22.64-20.86-37.09-25.41
		c4.75,6.89,9.5,13.78,14.25,20.66c2.76,4.01,5.6,8.19,6.37,13c1.57,9.83-5.85,19.28-4.95,29.2"/>
	<g>
		<path class="st3" d="M699.05,318.13c2.67-11.32-3.7-21.72-10.96-29.83c-6.91-7.72-14.73-14.82-23.55-20.3
			c-5-3.11-10.36-5.65-15.98-7.44c-1.2-0.38-2.44,1.12-1.69,2.2c2.89,4.19,5.77,8.37,8.66,12.56c2.72,3.94,5.56,7.82,8.1,11.88
			c2.34,3.74,4.04,7.7,3.85,12.19c-0.18,4.06-1.58,7.97-2.8,11.8c-1.41,4.42-2.72,8.99-2.35,13.68c0.15,1.91,3.15,1.93,3,0
			c-0.68-8.52,4.35-16.15,5.08-24.51c0.83-9.52-5.83-17.18-10.9-24.53c-3.35-4.86-6.7-9.72-10.06-14.59
			c-0.56,0.73-1.13,1.47-1.69,2.2c9.34,2.98,17.82,8.18,25.31,14.45c3.77,3.15,7.32,6.56,10.69,10.13
			c3.56,3.77,6.98,7.73,9.47,12.31c2.81,5.15,4.3,11.19,2.93,16.99C695.72,319.21,698.61,320.01,699.05,318.13L699.05,318.13z"/>
	</g>
</g>
<g>
	<path class="st3" d="M662.96,320.26c-7.26,3.51-15.48,7.09-23.12,4.51c-2.34-0.79-4.45-2.12-6.52-3.47
		c-16.48-10.71-32.3-23.25-51.12-28.9c-27.56-8.27-58.46-0.77-85.18-11.46c-1.19,2.66,0.1,5.9,2.26,7.85
		c2.16,1.95,5.02,2.9,7.78,3.81c18.51,6.12,36.8,12.89,54.84,20.29c3.59,1.47,7.2,2.99,10.41,5.18c3.9,2.66,7.08,6.24,10.22,9.77
		c5.87,6.62,11.75,13.24,17.62,19.86c-6.81,2.77-11.99,9.24-13.19,16.49"/>
	<g>
		<path class="st3" d="M662.2,318.97c-5.22,2.52-10.85,5.17-16.77,5.19c-6,0.02-10.76-3.7-15.53-6.89
			c-9.46-6.32-18.73-12.97-28.74-18.39c-9.99-5.41-20.54-9.14-31.8-10.78c-11.35-1.66-22.83-1.7-34.27-2.17
			c-12.78-0.52-25.68-1.67-37.68-6.43c-0.81-0.32-1.57,0.37-1.85,1.05c-1.3,3.2,0.1,6.9,2.52,9.18c2.85,2.69,6.81,3.73,10.43,4.93
			c8.4,2.8,16.75,5.73,25.06,8.8c8.38,3.09,16.71,6.32,24.99,9.68c3.89,1.58,7.87,3.09,11.48,5.26c3.46,2.08,6.34,4.9,9.05,7.86
			c6.78,7.4,13.34,15,19.99,22.51c0.22-0.84,0.44-1.67,0.66-2.51c-7.33,3.06-12.86,9.67-14.24,17.54c-0.33,1.89,2.56,2.7,2.89,0.8
			c1.19-6.76,5.76-12.79,12.14-15.45c1.05-0.44,1.47-1.59,0.66-2.51c-5.77-6.5-11.53-13-17.3-19.49c-2.65-2.99-5.31-6.03-8.42-8.55
			c-3.08-2.5-6.52-4.32-10.15-5.88c-15.77-6.77-31.96-12.71-48.19-18.29c-4.33-1.49-8.83-2.71-13.06-4.47
			c-3.34-1.39-7.3-4.53-5.64-8.61c-0.62,0.35-1.23,0.7-1.85,1.05c21.91,8.68,45.96,5.49,68.88,8.19
			c11.51,1.35,22.37,4.69,32.63,10.07c10.28,5.39,19.74,12.14,29.36,18.6c5.26,3.53,10.5,7.6,17.08,7.89
			c6.75,0.29,13.21-2.72,19.15-5.58C665.46,320.72,663.94,318.13,662.2,318.97L662.2,318.97z"/>
	</g>
</g>
<g>
	<path class="st3" d="M587.42,364.21c0.6,1.38,1.2,2.77,1.79,4.15"/>
	<g>
		<path class="st3" d="M586.12,364.97c0.6,1.38,1.2,2.77,1.79,4.15c0.14,0.32,0.58,0.6,0.9,0.69c0.36,0.1,0.84,0.05,1.16-0.15
			c0.32-0.21,0.6-0.51,0.69-0.9c0.02-0.13,0.04-0.27,0.05-0.4c0-0.27-0.07-0.52-0.2-0.76c-0.6-1.38-1.2-2.77-1.79-4.15
			c-0.14-0.32-0.58-0.6-0.9-0.69c-0.36-0.1-0.84-0.05-1.16,0.15c-0.32,0.21-0.6,0.51-0.69,0.9c-0.02,0.13-0.04,0.27-0.05,0.4
			C585.92,364.49,585.99,364.74,586.12,364.97L586.12,364.97z"/>
	</g>
</g>
<g>
	<path class="st3" d="M595.27,362.45c-2.19,2.81-3.77,6.07-6.02,8.84c-2.24,2.77-5.43,5.12-9,5.08c-1.55-0.02-3.05-0.49-4.54-0.89
		c-6.9-1.87-14.15-2.44-21.26-1.66c-1.6,0.17-3.41,0.56-4.18,1.97c-0.47,0.86-0.42,1.91-0.33,2.88c0.79,8.97,3.54,17.76,8.01,25.58"
		/>
	<g>
		<path class="st3" d="M593.97,361.69c-3.19,4.16-5.27,9.73-10.14,12.27c-2.51,1.31-4.88,0.83-7.49,0.12
			c-2.81-0.77-5.67-1.32-8.57-1.67c-3-0.37-6.02-0.51-9.04-0.41c-2.49,0.08-5.46,0.03-7.75,1.17c-2.56,1.27-2.72,3.84-2.46,6.38
			c0.28,2.7,0.71,5.39,1.32,8.04c1.4,6.1,3.72,11.97,6.81,17.41c0.95,1.68,3.54,0.17,2.59-1.51c-2.63-4.65-4.66-9.59-6.03-14.76
			c-0.68-2.58-1.21-5.21-1.54-7.85c-0.15-1.19-0.52-2.72-0.24-3.91c0.26-1.1,1.4-1.37,2.38-1.56c2.68-0.5,5.55-0.48,8.26-0.41
			c2.88,0.07,5.76,0.35,8.6,0.88c2.77,0.51,5.47,1.51,8.27,1.89c2.36,0.32,4.68-0.2,6.74-1.38c5.17-2.94,7.42-8.64,10.89-13.17
			C597.74,361.68,595.13,360.18,593.97,361.69L593.97,361.69z"/>
	</g>
</g>
<g>
	<path class="st3" d="M556.94,403.2c-29.04,26.41-43.08,68.33-35.81,106.92c26.08-20.02,53.65-38.08,82.41-53.99
		c5.13-2.84,10.43-5.65,16.23-6.48c5.09-0.73,10.36,0.1,15.35-1.13c3.18-0.79,6.1-2.39,9.12-3.67c5.19-2.19,10.77-3.45,16.4-3.68"/>
	<g>
		<path class="st3" d="M555.88,402.13c-11.45,10.45-20.66,23.3-27.1,37.39c-6.45,14.12-10.23,29.44-10.93,44.96
			c-0.39,8.71,0.23,17.45,1.83,26.03c0.16,0.88,1.47,1.46,2.2,0.9c16.44-12.61,33.47-24.46,51.02-35.47
			c8.71-5.47,17.55-10.73,26.5-15.78c4.38-2.47,8.77-5.12,13.44-7.01c2.37-0.96,4.85-1.72,7.39-2.06c2.48-0.33,4.99-0.27,7.48-0.32
			c2.91-0.05,5.86-0.22,8.66-1.04c2.63-0.77,5.09-2.03,7.59-3.14c5.26-2.34,10.93-3.65,16.67-3.92c1.92-0.09,1.93-3.09,0-3
			c-5.16,0.24-10.27,1.24-15.1,3.06c-4.7,1.77-8.98,4.43-14.09,4.88c-5.24,0.46-10.45-0.08-15.59,1.35
			c-4.78,1.33-9.18,3.73-13.49,6.12c-18.33,10.15-36.17,21.18-53.45,33.04c-9.7,6.65-19.22,13.57-28.55,20.73
			c0.73,0.3,1.47,0.6,2.2,0.9c-2.77-14.86-2.36-30.26,0.9-45c3.26-14.71,9.29-28.78,17.8-41.22c4.81-7.03,10.43-13.49,16.73-19.24
			C559.43,402.95,557.3,400.83,555.88,402.13L555.88,402.13z"/>
	</g>
</g>
<g>
	<path class="st4" d="M612.36,453.84c-9.38,21.48-28.79,38.33-51.36,44.59c-7.45,2.07-15.47,3.01-22.86,0.77
		c3.63,8.53,8.92,16.7,16.76,21.65c7.83,4.95,18.56,6.04,26.26,0.9c8.19-5.47,11.24-16.28,18.85-22.54
		c3.07-2.53,6.75-4.19,10.41-5.75c24.51-10.46,50.38-17.7,76.75-21.47c1.1-0.16,2.27-0.34,3.08-1.1c2.23-2.1-0.26-5.68-2.63-7.62
		c-8.45-6.92-16.89-13.84-25.34-20.76"/>
	<g>
		<path class="st4" d="M611.06,453.08c-9.14,20.79-27.56,37.18-49.38,43.59c-7.49,2.2-15.53,3.32-23.15,1.08
			c-1.38-0.41-2.18,1.08-1.69,2.2c5.38,12.57,14.88,24.65,29.3,26.45c6.63,0.83,13.28-0.9,18.33-5.35
			c4.78-4.21,7.69-10.04,11.39-15.12c1.96-2.69,4.23-5.16,7.03-7c3.26-2.15,6.92-3.63,10.51-5.13c7.55-3.14,15.23-5.98,23.01-8.5
			c15.49-5.03,31.37-8.82,47.46-11.33c3.01-0.47,7.8-0.37,8.64-4.14c0.68-3.05-1.85-6.01-4.02-7.8
			c-6.69-5.54-13.44-11.01-20.16-16.52c-1.66-1.36-3.33-2.73-4.99-4.09c-1.48-1.21-3.62,0.9-2.12,2.12
			c6.4,5.24,12.8,10.49,19.2,15.73c1.54,1.26,3.07,2.52,4.61,3.78c1.34,1.1,2.77,2.16,3.74,3.63c0.55,0.84,1.38,2.27,0.43,3.13
			c-0.53,0.48-1.38,0.55-2.05,0.66c-1.04,0.17-2.1,0.3-3.14,0.46c-15.4,2.35-30.62,5.88-45.49,10.55
			c-7.43,2.33-14.78,4.95-22.01,7.84c-6.53,2.61-13.72,5.06-18.9,10.01c-4.4,4.2-7.2,9.7-10.76,14.57
			c-3.7,5.06-8.52,8.89-14.93,9.58c-7.32,0.79-14.58-1.99-20.06-6.78c-5.63-4.92-9.5-11.47-12.41-18.27
			c-0.56,0.73-1.13,1.47-1.69,2.2c7.07,2.08,14.56,1.49,21.64-0.24c5.9-1.45,11.64-3.65,17.04-6.43
			c10.46-5.39,19.76-13.09,27.01-22.35c4.1-5.24,7.56-10.93,10.24-17.02C614.43,452.84,611.84,451.32,611.06,453.08L611.06,453.08z"
			/>
	</g>
</g>
<g>
	<path class="st3" d="M661.52,439.57c12.31-9.72,31.4-9.54,43.53,0.41c-3.09,8.37-8.82,15.73-16.17,20.79
		c9.6,2.37,19.43-2.08,28.31-6.42c5.3-2.59,11.32-6.19,11.78-12.07c0.28-3.65-1.81-7.11-4.46-9.63s-5.86-4.37-8.7-6.66
		c-1.81-1.46-3.62-3.52-3.2-5.81c0.18-0.96,0.74-1.81,1.3-2.61c2.61-3.67,5.69-7.01,9.14-9.91c0.72-0.61,1.53-1.32,1.54-2.27
		c0.01-0.8-0.54-1.48-1.08-2.06c-4.12-4.47-8.98-8.24-14.34-11.11"/>
	<g>
		<path class="st3" d="M662.58,440.63c11.74-9.16,29.85-8.96,41.41,0.41c-0.13-0.49-0.26-0.97-0.39-1.46
			c-3,8-8.46,15.01-15.48,19.89c-1,0.69-0.98,2.42,0.36,2.74c8.6,2.03,17.1-0.85,24.88-4.39c5.99-2.73,13.9-5.89,16.46-12.54
			c1.31-3.42,0.56-7.16-1.36-10.2c-2.16-3.42-5.47-5.74-8.71-8.04c-1.6-1.13-3.33-2.25-4.6-3.77c-0.54-0.65-1.07-1.48-1.1-2.35
			c-0.03-1.05,0.71-1.97,1.29-2.78c2.42-3.38,5.29-6.44,8.45-9.15c1.5-1.28,2.9-2.85,2.03-4.95c-0.81-1.95-2.94-3.61-4.46-5
			c-3.45-3.17-7.3-5.9-11.42-8.12c-1.7-0.92-3.21,1.67-1.51,2.59c3.39,1.83,6.59,3.99,9.51,6.5c1.42,1.23,2.79,2.53,4.08,3.89
			c0.53,0.56,1.4,1.2,0.79,1.95c-0.54,0.66-1.32,1.17-1.95,1.74c-2.87,2.55-5.43,5.42-7.71,8.51c-1.06,1.43-2.11,2.97-2.08,4.82
			c0.03,1.77,0.97,3.34,2.11,4.62c2.47,2.77,5.97,4.51,8.82,6.85c2.64,2.17,5.29,5.12,5.51,8.71c0.4,6.55-7.17,10.06-12.08,12.44
			c-8.01,3.88-17.06,7.91-26.13,5.77c0.12,0.91,0.24,1.83,0.36,2.74c7.7-5.35,13.56-12.9,16.85-21.68c0.17-0.45-0.01-1.15-0.39-1.46
			c-10-8.1-24.2-10.2-36.23-5.7c-3.42,1.28-6.55,3.05-9.42,5.29C658.94,439.69,661.08,441.8,662.58,440.63L662.58,440.63z"/>
	</g>
</g>
<g>
	<path class="st3" d="M691.44,291.37c2.27-5.85,4.59-11.78,8.31-16.84s9.09-9.21,15.3-10.1c2.54-0.36,5.36-0.25,7.37-1.84
		c1.8-1.43,2.44-3.85,3.62-5.83c2.33-3.9,6.92-6.05,11.45-6.42s9.04,0.81,13.34,2.28c2.31,0.79,4.69,1.68,7.11,1.42
		c5.07-0.56,8.24-5.79,12.89-7.89c4.76-2.15,10.45-0.68,14.87,2.09c4.42,2.77,7.97,6.7,11.98,10.05
		c6.44,5.38,14.13,9.24,22.29,11.19c2.16,0.52,4.52,1,5.97,2.68c2.44,2.84,0.92,7.17,1.17,10.91c0.39,5.98,5.42,10.45,10,14.32
		c6.86,5.8,13.64,11.89,18.57,19.41c4.93,7.52,7.88,16.69,6.37,25.55c-0.93,5.44-3.46,10.46-5.96,15.39
		c-5.25,10.34-10.51,20.68-15.76,31.02c-2.11,4.15-4.28,8.38-7.65,11.58c-1.71,1.62-3.71,2.96-5.18,4.8
		c-2.52,3.15-3.2,7.39-5.27,10.86c-3.98,6.67-12.33,9.32-20.06,10c-16.97,1.49-33.73-3.87-49.78-9.59
		c-2.26-0.81-4.59-1.66-6.32-3.32c-1.61-1.53-2.56-3.61-3.52-5.62c-3.12-6.55-6.96-13.18-13.2-16.89s-15.44-3.3-19.58,2.65"/>
	<g>
		<path class="st3" d="M692.89,291.77c2.78-7.16,5.7-14.67,11.36-20.1c2.48-2.38,5.45-4.32,8.78-5.27c3.27-0.94,7.12-0.34,10-2.4
			c2.85-2.03,3.28-5.76,5.63-8.2c2.28-2.38,5.59-3.69,8.84-3.96c4.28-0.35,8.48,0.73,12.5,2.08c3.73,1.25,7.35,2.43,11.16,0.76
			c2.91-1.27,5.1-3.65,7.61-5.51c2.87-2.13,6.1-2.99,9.64-2.29c7.86,1.55,12.98,8.23,18.89,13.02c6.01,4.86,12.98,8.49,20.44,10.55
			c3.03,0.84,7.36,1.05,8.03,4.84c0.6,3.39-0.61,6.8,0.24,10.22c1.76,7.04,8.56,11.56,13.7,16.06c5.87,5.14,11.55,10.71,15.61,17.43
			c4,6.61,6.49,14.52,5.4,22.3c-0.56,4.01-2.08,7.82-3.81,11.45c-1.89,3.96-3.94,7.85-5.93,11.76c-4.04,7.96-8.08,15.91-12.12,23.87
			c-1.76,3.45-3.55,6.98-6.19,9.85c-2.53,2.76-5.79,4.64-7.67,7.99c-1.76,3.14-2.5,6.77-4.53,9.78c-1.81,2.67-4.54,4.57-7.44,5.88
			c-6.66,3.01-14.49,3.19-21.65,2.71c-8.61-0.58-17.05-2.62-25.27-5.14c-4.09-1.26-8.15-2.65-12.18-4.08
			c-1.76-0.62-3.56-1.2-5.17-2.15c-1.72-1.01-2.85-2.5-3.78-4.24c-1.71-3.22-3.13-6.54-5.09-9.63c-1.89-2.98-4.12-5.8-6.88-8.03
			c-4.87-3.94-11.51-5.83-17.63-3.84c-2.81,0.92-5.16,2.6-6.88,5c-1.13,1.57,1.47,3.07,2.59,1.51c3.58-4.98,11.07-5.25,16.21-2.81
			c6.62,3.13,10.57,10.01,13.63,16.33c1.71,3.53,3.36,6.8,7,8.67c3.66,1.88,7.81,3.02,11.7,4.32c8.32,2.78,16.8,5.22,25.5,6.42
			c13.01,1.8,32.95,2.11,39.42-12.14c1.57-3.46,2.47-7.24,5.28-9.95c1.35-1.3,2.88-2.4,4.22-3.72c1.39-1.37,2.59-2.93,3.66-4.56
			c2.3-3.48,4.06-7.31,5.95-11.02c2.1-4.14,4.2-8.27,6.3-12.41c2.06-4.06,4.13-8.12,6.19-12.19c1.93-3.79,3.93-7.57,5.46-11.54
			c2.94-7.62,2.99-15.68,0.3-23.38c-2.64-7.58-7.41-14.12-12.96-19.84c-2.83-2.92-5.86-5.64-8.95-8.28
			c-2.77-2.38-5.67-4.66-8.03-7.47c-2.38-2.83-3.55-5.94-3.34-9.64c0.2-3.38,0.76-7.09-1.75-9.8c-2.45-2.65-6.74-2.88-10-3.89
			c-3.82-1.19-7.48-2.81-10.94-4.82c-3.43-1.99-6.55-4.37-9.49-7.03c-2.99-2.71-5.89-5.56-9.26-7.81c-3.09-2.06-6.66-3.5-10.38-3.75
			c-3.65-0.25-6.97,0.94-9.85,3.13c-2.45,1.86-4.75,4.48-7.75,5.44c-1.95,0.63-3.88,0.27-5.79-0.32c-2.09-0.64-4.13-1.42-6.24-1.98
			c-7.08-1.87-15.79-1.82-21.01,4.16c-1.15,1.32-1.91,2.82-2.67,4.39c-0.76,1.56-1.58,3.03-3.29,3.65c-1.7,0.62-3.58,0.6-5.35,0.84
			c-1.71,0.24-3.36,0.71-4.95,1.38c-7.02,2.95-11.94,9.14-15.29,15.78c-1.77,3.51-3.2,7.19-4.62,10.85
			C689.3,292.78,692.2,293.56,692.89,291.77L692.89,291.77z"/>
	</g>
</g>
<g>
	<path class="st3" d="M697.52,308.59c11.58,3.28,23.79,4.3,35.75,3.01c0.78-0.08,1.58-0.19,2.26-0.58c1.48-0.86,1.88-2.79,2.13-4.48
		"/>
	<g>
		<path class="st3" d="M697.12,310.04c7.83,2.19,15.93,3.41,24.06,3.58c4.03,0.09,8.08-0.06,12.09-0.52
			c1.66-0.19,3.2-0.55,4.29-1.91c0.97-1.21,1.32-2.75,1.55-4.25c0.29-1.89-2.6-2.7-2.89-0.8c-0.17,1.12-0.32,2.78-1.33,3.5
			c-0.58,0.42-1.4,0.44-2.09,0.51c-0.94,0.1-1.89,0.18-2.84,0.25c-3.55,0.26-7.12,0.31-10.68,0.16c-7.23-0.3-14.39-1.46-21.36-3.42
			C696.06,306.62,695.26,309.52,697.12,310.04L697.12,310.04z"/>
	</g>
</g>
<g>
	<path class="st2" d="M543.09,460.27c13.16-27.99,33.12-52.75,57.69-71.54c4.77-3.64,10.52-7.24,16.36-5.89
		c3.78,0.88,6.78,3.69,9.33,6.61c2.11,2.41,4.08,5.04,5.04,8.1c1.72,5.48-0.05,11.37-1.81,16.84c-2.39,7.42-5.16,15.37-11.54,19.84
		c-7.46,5.23-18.17,3.93-25.61-1.33c-7.44-5.26-12.03-13.74-14.8-22.42"/>
	<g>
		<path class="st2" d="M544.38,461.02c6.18-13.12,13.82-25.57,22.78-36.97c8.91-11.34,19.08-21.7,30.28-30.8
			c2.92-2.37,5.88-4.79,9.15-6.67c3.16-1.82,6.87-3.18,10.53-2.19c3.4,0.92,6.03,3.55,8.28,6.13c2.5,2.86,4.74,6.07,5.2,9.93
			c0.48,4.07-0.66,8.14-1.86,11.98c-1.03,3.31-2.09,6.65-3.48,9.83c-2.62,5.98-6.66,11.42-13.26,13.17
			c-6.45,1.71-13.53-0.11-18.87-3.94c-5.65-4.05-9.56-10.2-12.18-16.55c-0.66-1.6-1.24-3.22-1.77-4.87
			c-0.59-1.83-3.49-1.05-2.89,0.8c2.28,7.08,5.64,13.98,10.86,19.37c5.09,5.25,11.94,8.63,19.31,8.81
			c7.34,0.18,13.81-3.23,18.03-9.19c2.08-2.94,3.55-6.28,4.8-9.65c1.37-3.69,2.65-7.48,3.56-11.31c0.96-4.1,1.35-8.52-0.17-12.54
			c-1.38-3.66-3.95-6.83-6.66-9.61c-2.65-2.73-5.87-5.05-9.72-5.57c-3.96-0.53-7.83,0.85-11.22,2.81c-3.43,1.97-6.53,4.53-9.59,7.01
			c-3.06,2.48-6.04,5.05-8.94,7.71c-5.75,5.27-11.18,10.89-16.25,16.82c-10.14,11.84-18.9,24.87-25.96,38.78
			c-0.87,1.72-1.72,3.46-2.55,5.21C540.97,461.25,543.56,462.77,544.38,461.02L544.38,461.02z"/>
	</g>
</g>
<g>
	<path class="st2" d="M550.65,445.64c3.38,0.18,6.33,2.84,9.71,2.7c2.98-0.12,5.49-2.48,6.7-5.2c1.21-2.72,1.38-5.78,1.52-8.75
		c0.28-5.77,0.57-11.55,0.85-17.32"/>
	<g>
		<path class="st2" d="M550.65,447.14c3.66,0.3,6.59,3.13,10.41,2.63c3.46-0.45,6.15-3.17,7.47-6.28c1.65-3.92,1.52-8.39,1.72-12.57
			c0.23-4.62,0.45-9.24,0.68-13.86c0.09-1.93-2.91-1.92-3,0c-0.2,4.12-0.4,8.25-0.61,12.37c-0.19,3.82,0,7.93-1.1,11.64
			c-0.83,2.79-3.03,5.85-6.25,5.77c-1.55-0.04-3.03-0.75-4.44-1.34c-1.59-0.67-3.14-1.22-4.88-1.37
			C548.73,443.98,548.74,446.98,550.65,447.14L550.65,447.14z"/>
	</g>
</g>
<g>
	<path class="st2" d="M658.73,373.03c-2.23,0.81-4.25,2.2-5.79,4c-0.8,0.94-1.5,2.04-1.59,3.26c-0.1,1.23,0.57,2.58,1.75,2.94
		c0.66,0.2,1.37,0.07,2.04-0.08c3.87-0.91,7.5-2.86,10.4-5.58c1.11-1.05,2.18-2.69,1.37-3.98c-0.53-0.85-1.62-1.1-2.6-1.28
		c-2.49-0.45-5.37-0.81-7.27,0.86"/>
	<g>
		<path class="st2" d="M658.33,371.59c-3.25,1.21-6.7,3.58-8.06,6.9c-0.62,1.53-0.59,3.32,0.4,4.7c1.18,1.65,3,1.83,4.86,1.41
			c3.54-0.82,6.86-2.52,9.69-4.78c1.34-1.07,2.69-2.29,3.25-3.96c0.58-1.72-0.12-3.54-1.75-4.37c-1.58-0.81-3.72-1-5.46-1.05
			c-1.95-0.05-3.78,0.41-5.29,1.67c-0.62,0.52-0.54,1.59,0,2.12c0.62,0.62,1.5,0.52,2.12,0c1.6-1.33,4.28-0.79,6.13-0.41
			c0.66,0.13,1.7,0.27,1.39,1.14c-0.38,1.08-1.46,1.88-2.31,2.58c-1.93,1.58-4.21,2.81-6.57,3.6c-0.61,0.21-1.24,0.39-1.87,0.54
			c-0.44,0.11-1.05,0.31-1.47,0.06c-0.7-0.42-0.61-1.46-0.36-2.11c0.47-1.21,1.53-2.23,2.5-3.06c1.05-0.9,2.3-1.61,3.6-2.09
			c0.76-0.28,1.28-1.02,1.05-1.85C659.97,371.9,659.09,371.3,658.33,371.59L658.33,371.59z"/>
	</g>
</g>
<g>
	<path class="st2" d="M693.79,345.59c-7.95,0.76-15.89,1.52-23.84,2.28c-1.36,0.13-2.97,0.44-3.48,1.7
		c-0.56,1.37,0.6,2.81,1.73,3.77c6.04,5.19,13.88,8.23,21.83,8.48c3.5,0.11,7.49-0.58,9.42-3.5c1.73-2.62,1.12-6.31-0.78-8.81
		c-1.9-2.5-4.84-4.01-7.81-5.04"/>
	<g>
		<path class="st2" d="M693.79,344.09c-7.53,0.72-15.06,1.44-22.59,2.16c-2.47,0.24-5.97,0.53-6.33,3.67
			c-0.35,3.07,3.05,5.26,5.22,6.78c5.14,3.61,11.2,5.81,17.44,6.46c5.12,0.54,12.07-0.02,14.03-5.77c1.03-3.02,0.1-6.48-1.82-8.94
			c-2.13-2.72-5.27-4.3-8.47-5.43c-1.82-0.65-2.61,2.25-0.8,2.89c4.11,1.45,9.33,4.63,8.43,9.78c-0.84,4.78-7.02,4.84-10.75,4.51
			c-5.09-0.44-10.07-2.11-14.45-4.74c-1.02-0.61-2.01-1.27-2.95-1.98c-0.93-0.7-2.24-1.55-2.75-2.64c-0.89-1.86,4.51-1.73,5.43-1.82
			c6.79-0.65,13.57-1.3,20.36-1.95C695.69,346.9,695.71,343.9,693.79,344.09L693.79,344.09z"/>
	</g>
</g>
<g>
	<g>
		<path class="st4" d="M660.2,347.94c0.31-0.73,0.61-1.47,0.92-2.2c0.65-1.56-1.99-2.67-2.74-1.16c-1.79,3.58-1.15,7.81,0.92,11.14
			c2.18,3.5,5.66,5.88,9.01,8.15c1.6,1.08,3.11-1.51,1.51-2.59c-2.77-1.87-5.72-3.82-7.64-6.62c-1.67-2.44-2.61-5.78-1.22-8.56
			c-0.91-0.39-1.83-0.77-2.74-1.16c-0.31,0.73-0.61,1.47-0.92,2.2c-0.31,0.75,0.34,1.65,1.05,1.85
			C659.22,349.23,659.89,348.7,660.2,347.94L660.2,347.94z"/>
	</g>
</g>
<g>
	<g>
		<path class="st4" d="M689.81,292.22c3.42,6.37,7.44,13.44,14.15,16.82c4.03,2.03,8.42,2.19,12.82,1.69
			c4.75-0.54,9.48-1.32,14.17-2.2c5.54-1.04,11.04-2.3,16.49-3.75c1.86-0.5,1.07-3.39-0.8-2.89c-8.87,2.36-17.88,4.2-26.98,5.48
			c-4.28,0.6-8.78,1.22-12.93-0.35c-3.17-1.2-5.76-3.54-7.9-6.11c-2.57-3.09-4.54-6.66-6.44-10.19
			C691.48,289,688.89,290.51,689.81,292.22L689.81,292.22z"/>
	</g>
</g>
<g>
	<g>
		<path class="st4" d="M572.69,411.76c-11.92,13.23-24.18,26.93-31.28,43.48c-1.97,4.59-3.53,9.33-4.53,14.22
			c-0.39,1.88,2.5,2.69,2.89,0.8c3.54-17.24,13.89-31.9,25.09-45.09c3.25-3.82,6.59-7.56,9.95-11.29
			C576.1,412.45,573.99,410.33,572.69,411.76L572.69,411.76z"/>
	</g>
</g>
<g>
	<g>
		<path class="st5" d="M662.71,439.77c-5.94,0.72-11.46,2.87-16.96,5.13c-1.75,0.72-1.02,3.6,0.8,2.89c2.72-1.06,5.5-1.93,8.35-2.57
			c2.86-0.65,5.7-1.39,8.41,0.09c4.72,2.58,8.96,6.1,12.65,9.99c1.33,1.41,3.45-0.72,2.12-2.12c-3.96-4.19-8.76-8.34-14-10.85
			c-2.89-1.38-5.79-0.87-8.81-0.25c-3.25,0.66-6.42,1.62-9.51,2.82c0.27,0.96,0.53,1.93,0.8,2.89c5.21-2.14,10.53-4.34,16.16-5.02
			C664.6,442.54,664.63,439.54,662.71,439.77L662.71,439.77z"/>
	</g>
</g>
<g>
	<g>
		<path class="st5" d="M586.25,506.71c-1.33,1.01-2.68,2.01-4.04,2.98c-0.34,0.24-0.68,0.49-1.02,0.73
			c-0.06,0.04-0.99,0.62-0.99,0.67c0,0,0.41-0.03,0.41-0.03c0,0-0.32-0.26-0.32-0.26c-0.27-0.23-0.53-0.47-0.78-0.71
			c-1.95-1.9-3.38-4.25-4.18-6.85c-0.57-1.84-3.46-1.06-2.89,0.8c1.01,3.28,2.87,6.3,5.41,8.61c0.66,0.6,1.37,1.28,2.29,1.37
			c1.1,0.12,1.91-0.55,2.76-1.14c1.64-1.16,3.26-2.35,4.86-3.57c0.64-0.49,0.98-1.29,0.54-2.05
			C587.93,506.62,586.9,506.22,586.25,506.71L586.25,506.71z"/>
	</g>
</g>
<g>
	<g>
		<path class="st5" d="M662.48,468.03c-5.16-1.25-10,1.28-14.57,3.38c-4.98,2.28-9.96,4.56-14.94,6.83
			c-1.75,0.8-0.23,3.39,1.51,2.59c4.53-2.07,9.07-4.15,13.6-6.22c4.1-1.88,8.92-4.81,13.6-3.68
			C663.56,471.38,664.36,468.49,662.48,468.03L662.48,468.03z"/>
	</g>
</g>
<g>
	<path class="st5" d="M573.37,413.55c8.21-7.83,16.41-15.65,24.62-23.48c4.11-3.92,8.9-8.11,14.58-7.84
		c4.43,0.21,8.26,3.16,11.23,6.45c3.49,3.88,6.25,8.42,8.09,13.3c0.86,2.28,1.52,4.77,0.99,7.15c-0.51,2.3-2.05,4.2-3.57,6
		c-6.75,7.99-14.58,16.01-24.78,18.29c-0.73-2.66,0.12-5.45,0.52-8.17c0.61-4.11,0.18-8.44-1.68-12.15s-5.24-6.74-9.27-7.74
		c-4.1-1.02-8.5,0.11-12.19,2.18c-3.69,2.07-6.78,5.03-9.83,7.96c-0.21,0.2-0.43,0.45-0.37,0.73c0.06,0.28,0.6,0.3,0.56,0.01"/>
	<g>
		<path class="st5" d="M574.43,414.61c6.48-6.18,12.96-12.37,19.45-18.55c2.98-2.84,5.87-5.86,9.09-8.43
			c2.72-2.18,5.99-4.08,9.6-3.9c3.62,0.17,6.77,2.52,9.22,5.01c2.7,2.75,4.95,5.95,6.73,9.37c1.7,3.26,3.95,7.69,2.69,11.42
			c-0.6,1.78-1.89,3.28-3.09,4.7c-1.22,1.45-2.47,2.88-3.75,4.27c-5.56,6.03-12.06,11.59-20.24,13.48c0.62,0.35,1.23,0.7,1.85,1.05
			c-0.61-2.53,0.19-5.08,0.55-7.59c0.34-2.34,0.37-4.68,0.03-7.02c-0.62-4.29-2.61-8.43-5.94-11.26c-3.35-2.85-7.55-4.09-11.91-3.51
			c-4.74,0.63-8.86,3.09-12.5,6.08c-1.02,0.83-2,1.71-2.96,2.61c-0.87,0.81-2.01,1.63-2.66,2.63c-1.51,2.31,2.1,4.31,3.13,1.69
			c0.71-1.8-2.19-2.58-2.89-0.8c-0.02,0.05-0.04,0.1-0.06,0.16c0.35-0.35,0.7-0.7,1.05-1.05c0.14,0,0.28-0.01,0.42-0.01
			c0.3,0.23,0.6,0.46,0.9,0.69c0,0.15,0.01,0.31,0.01,0.46c-0.1,0.49-0.05,0.59,0.17,0.31c0.13-0.03,0.37-0.36,0.47-0.45
			c0.32-0.3,0.63-0.61,0.95-0.91c0.74-0.7,1.5-1.4,2.26-2.07c1.38-1.21,2.82-2.36,4.37-3.35c3.11-1.99,6.71-3.36,10.46-3.12
			c7.24,0.47,11.65,7.54,11.96,14.23c0.2,4.39-1.75,8.74-0.7,13.08c0.2,0.81,1.08,1.23,1.85,1.05c7.91-1.83,14.47-6.89,20.02-12.62
			c2.78-2.87,5.81-5.94,7.93-9.35c2.51-4.03,1.7-8.33-0.01-12.5c-1.6-3.91-3.74-7.54-6.37-10.85c-2.46-3.08-5.41-6.04-9.07-7.64
			c-3.69-1.62-7.59-1.48-11.24,0.16c-3.69,1.66-6.72,4.52-9.61,7.27c-8.09,7.71-16.18,15.43-24.26,23.14
			C570.91,413.82,573.03,415.94,574.43,414.61L574.43,414.61z"/>
	</g>
</g>
<g>
	<g>
		<path class="st4" d="M566.23,423.59c10.04-12.76,21.95-24.01,35.32-33.24c1.58-1.09,0.08-3.69-1.51-2.59
			c-13.58,9.38-25.72,20.74-35.92,33.71C562.93,422.97,565.04,425.1,566.23,423.59L566.23,423.59z"/>
	</g>
</g>
<g>
	<g>
		<path class="st4" d="M601.67,389.74c2.7-2.59,5.99-4.45,9.61-5.39c2-0.52,4.21-0.88,6.25-0.41c1.97,0.46,3.69,1.69,5.2,3
			c5.6,4.88,8.78,12.13,8.45,19.56c-0.2,4.46-1.65,8.76-4.08,12.49c-1.06,1.62,1.54,3.13,2.59,1.51c4.86-7.45,5.9-17.07,2.51-25.32
			c-1.6-3.89-4.04-7.44-7.2-10.23c-1.67-1.48-3.51-2.82-5.62-3.59c-2.29-0.83-4.77-0.7-7.13-0.29c-4.78,0.84-9.22,3.21-12.71,6.55
			C598.15,388.96,600.27,391.08,601.67,389.74L601.67,389.74z"/>
	</g>
</g>
<g>
	<g>
		<path class="st4" d="M674.13,366.49c4.16,3.61,9.27,6.05,14.72,6.87c-0.37-0.48-0.73-0.96-1.1-1.45c-0.24,2.43-0.48,4.87-0.73,7.3
			c-0.08,0.81,0.75,1.5,1.5,1.5c0.88,0,1.42-0.69,1.5-1.5c0.24-2.43,0.48-4.87,0.73-7.3c0.06-0.58-0.5-1.36-1.1-1.45
			c-4.94-0.74-9.62-2.82-13.4-6.1c-0.61-0.53-1.52-0.6-2.12,0C673.59,364.91,673.52,365.96,674.13,366.49L674.13,366.49z"/>
	</g>
</g>
<g>
	<g>
		<path class="st4" d="M664.97,366.35c-7.19-0.8-12.01,5.42-17.52,8.84c-1.64,1.02-0.13,3.61,1.51,2.59c4.96-3.08,9.55-9.15,16-8.43
			c0.81,0.09,1.5-0.75,1.5-1.5C666.47,366.97,665.78,366.44,664.97,366.35L664.97,366.35z"/>
	</g>
</g>
<g>
	<g>
		<path class="st4" d="M714.88,392.94c2.2-4.3,5.48-7.87,9.61-10.38c1.51-0.92,0.48-3.04-1.16-2.74c-3.39,0.62-6.29,2.5-8.91,4.67
			c-2.75,2.28-5.31,4.84-7.79,7.41c-5.13,5.31-9.81,11.05-14.04,17.11c-1.11,1.59,1.49,3.09,2.59,1.51
			c4-5.73,8.42-11.14,13.26-16.18c2.34-2.44,4.76-4.83,7.31-7.06c2.44-2.13,5.13-3.98,8.37-4.57c-0.39-0.91-0.77-1.83-1.16-2.74
			c-4.55,2.76-8.26,6.71-10.69,11.45C711.41,393.14,714,394.66,714.88,392.94L714.88,392.94z"/>
	</g>
</g>
<g>
	<g>
		<path class="st4" d="M714.29,421.82c-1.86,0.05-3.37-1.09-4.67-2.31c-1.63-1.53-3.13-3.2-4.68-4.81
			c-1.08-1.13-2.82,0.05-2.51,1.46c0.84,3.82,3.74,6.56,6.77,8.8c3.68,2.73,7.59,5.19,11.39,7.75c1.6,1.08,3.11-1.51,1.51-2.59
			c-3.58-2.42-7.21-4.77-10.73-7.28c-2.64-1.88-5.31-4.17-6.04-7.48c-0.84,0.49-1.67,0.97-2.51,1.46c1.73,1.8,3.4,3.73,5.3,5.36
			c1.75,1.51,3.79,2.7,6.18,2.63C716.22,424.76,716.22,421.76,714.29,421.82L714.29,421.82z"/>
	</g>
</g>
<g>
	<g>
		<path class="st4" d="M716.71,390.78c-0.02-0.03-0.04-0.06-0.06-0.1c-0.34-0.58-1.05-0.85-1.69-0.69c-2.07,0.52-1.49,3.47,0.6,3.32
			c1.05-0.08,2.13-0.79,3.07-1.22c1.11-0.51,2.21-1.03,3.31-1.55c4.29-2.01,8.89-4.32,13.65-4.87c2.1-0.25,4.3-0.03,6.12,1.12
			c1.86,1.17,2.64,3.1,2.76,5.23c0.28,5.01-0.96,10.19-1.87,15.09c-0.35,1.89,2.54,2.7,2.89,0.8c0.91-4.93,2.03-10.03,2-15.07
			c-0.03-4.23-1.87-7.85-5.95-9.46c-4.3-1.69-9.08-0.36-13.22,1.17c-2.26,0.84-4.47,1.82-6.65,2.83c-1.11,0.51-2.21,1.03-3.31,1.55
			c-0.55,0.26-1.1,0.51-1.66,0.77c-0.28,0.13-0.55,0.25-0.83,0.38c-0.56,0.13-0.56,0.25,0.02,0.36c0.25,0.43,0.5,0.86,0.74,1.3
			c-0.01-0.05-0.01-0.09-0.02-0.14c-0.15,0.35-0.29,0.71-0.44,1.06c-0.14,0.08-0.28,0.16-0.42,0.24c-0.56-0.23-1.13-0.46-1.69-0.69
			c0.02,0.03,0.04,0.06,0.06,0.1C715.08,393.96,717.68,392.45,716.71,390.78L716.71,390.78z"/>
	</g>
</g>
<g>
	<g>
		<path class="st4" d="M764.97,385.3c0.29,2.65,0.83,5.25,1.73,7.76c0.44,1.24,0.95,2.45,1.53,3.63c0.5,1.02,1.02,2.21,2.03,2.81
			c2.42,1.46,4.41-0.95,5.27-2.98c1.08-2.57,2.15-5.14,3.22-7.7c0.58-1.39,1.1-2.82,1.78-4.16c0.44-0.86,1.26-2.16,2.42-1.91
			c1.88,0.4,2.69-2.49,0.8-2.89c-3.38-0.73-5.35,2.09-6.5,4.82c-1.29,3.06-2.56,6.13-3.84,9.2c-0.27,0.64-0.51,1.3-0.82,1.93
			c-0.13,0.26-0.49,1.07-0.83,1.13c0.13-0.03,0.12,0.08-0.01-0.05c-0.16-0.16-0.26-0.42-0.37-0.61c-0.4-0.72-0.75-1.47-1.08-2.22
			c-1.21-2.77-1.99-5.76-2.32-8.76c-0.09-0.81-0.63-1.5-1.5-1.5C765.73,383.8,764.89,384.49,764.97,385.3L764.97,385.3z"/>
	</g>
</g>
<g>
	<g>
		<path class="st4" d="M783.53,382.34c1.07,4.31,2.51,8.5,4.28,12.57c0.83,1.91,1.72,3.81,2.74,5.63c0.91,1.62,2.09,3.18,3.82,3.97
			c1.74,0.8,3.27-1.78,1.51-2.59c-1.55-0.71-2.35-2.14-3.12-3.59c-0.91-1.73-1.75-3.5-2.52-5.3c-1.59-3.72-2.85-7.57-3.82-11.49
			C785.95,379.67,783.06,380.47,783.53,382.34L783.53,382.34z"/>
	</g>
</g>
<g>
	<g>
		<path class="st4" d="M795.6,384.67c2.36,4.28,5.35,8.24,9.27,11.21c2.1,1.59,4.44,2.74,6.84,3.8c1.15,0.51,2.43,1.23,3.63,0.45
			c1.26-0.82,1.11-2.55-0.05-3.35c-1.59-1.1-3.1,1.5-1.51,2.59c0.05,0.03,0.09,0.06,0.14,0.1c-0.18-0.18-0.36-0.36-0.54-0.54
			c0.02,0.05,0.05,0.1,0.07,0.15c-0.07-0.25-0.14-0.5-0.2-0.76c0.02-0.08,0.03-0.16,0.05-0.25c0.18-0.18,0.36-0.36,0.54-0.54
			c0.26-0.18,0.11-0.13-0.16-0.25c-0.25-0.11-0.49-0.22-0.74-0.33c-0.44-0.2-0.89-0.4-1.33-0.61c-0.88-0.41-1.75-0.85-2.59-1.33
			c-1.6-0.91-3.07-2.01-4.4-3.27c-2.62-2.48-4.68-5.45-6.42-8.59C797.26,381.47,794.67,382.98,795.6,384.67L795.6,384.67z"/>
	</g>
</g>
<g>
	<g>
		<path class="st4" d="M845.01,317.74c-8.87-0.72-17.08-4.75-25.96-5.53c-1.92-0.17-1.91,2.83,0,3c8.87,0.78,17.07,4.81,25.96,5.53
			C846.94,320.9,846.93,317.89,845.01,317.74L845.01,317.74z"/>
	</g>
</g>
<g>
	<g>
		<path class="st4" d="M824.13,292.44c-6.01-1.23-11.96-2.75-17.83-4.55c-1.85-0.57-2.64,2.33-0.8,2.89
			c5.87,1.8,11.81,3.32,17.83,4.55C825.22,295.71,826.02,292.82,824.13,292.44L824.13,292.44z"/>
	</g>
</g>
<g>
	<g>
		<path class="st4" d="M715.85,306.08c1.87-1.55,3.74-3.16,5.02-5.25c1.42-2.32,1.74-5.02,1.76-7.69
			c0.04-6.09-0.42-12.21-1.16-18.25c-0.23-1.89-3.23-1.92-3,0c0.68,5.62,1.07,11.26,1.15,16.92c0.03,2.42,0.07,5-1.15,7.17
			c-1.13,2.02-2.99,3.53-4.74,4.98C712.24,305.19,714.37,307.3,715.85,306.08L715.85,306.08z"/>
	</g>
</g>
<g>
	<g>
		<path class="st4" d="M754.89,259.23c-0.75,4.87-2.08,9.62-3.94,14.18c-0.31,0.75,0.33,1.65,1.05,1.85
			c0.86,0.24,1.54-0.29,1.85-1.05c1.87-4.56,3.19-9.31,3.94-14.18c0.12-0.8-0.2-1.61-1.05-1.85
			C756.03,257.99,755.02,258.42,754.89,259.23L754.89,259.23z"/>
	</g>
</g>
<g>
	<g>
		<path class="st4" d="M739.63,273.71c-0.94,1.8-1.17,3.94-0.54,5.87c0.24,0.74,1.05,1.31,1.85,1.05c0.74-0.24,1.31-1.05,1.05-1.85
			c-0.12-0.35-0.2-0.72-0.25-1.09c0.02,0.13,0.04,0.27,0.05,0.4c-0.07-0.53-0.07-1.06,0-1.59c-0.02,0.13-0.04,0.27-0.05,0.4
			c0.08-0.56,0.22-1.09,0.44-1.61c-0.05,0.12-0.1,0.24-0.15,0.36c0.06-0.15,0.13-0.29,0.21-0.43c0.36-0.7,0.2-1.66-0.54-2.05
			C740.99,272.81,740.02,272.97,739.63,273.71L739.63,273.71z"/>
	</g>
</g>
<g>
	<path class="st4" d="M654.02,270.54c4.58,7.66,9.17,15.31,13.75,22.97c1.04,1.73,2.1,3.56,2.19,5.57c0.08,1.84-0.67,3.6-1.4,5.28
		c-2.77,6.4-5.55,12.8-8.32,19.2c9.03-0.82,18.07-1.63,27.1-2.45c-4.78-13.53-16.88-23.02-24.3-35.3"/>
	<g>
		<path class="st4" d="M652.73,271.3c2.55,4.25,5.09,8.51,7.64,12.76c2.4,4,5.08,7.94,7.19,12.1c1.14,2.24,1.02,4.21,0.1,6.52
			c-0.86,2.16-1.84,4.27-2.77,6.41c-1.98,4.57-3.96,9.14-5.95,13.71c-0.4,0.93,0.03,2.37,1.3,2.26c9.03-0.82,18.07-1.63,27.1-2.45
			c0.89-0.08,1.8-0.9,1.45-1.9c-4.99-13.89-16.93-23.31-24.45-35.66c-1-1.65-3.6-0.14-2.59,1.51c7.35,12.07,19.28,21.39,24.15,34.95
			c0.48-0.63,0.96-1.27,1.45-1.9c-9.03,0.82-18.07,1.63-27.1,2.45c0.43,0.75,0.86,1.5,1.3,2.26c2.11-4.88,4.23-9.75,6.34-14.63
			c1.82-4.2,4.75-8.84,2.96-13.5c-0.87-2.27-2.31-4.33-3.55-6.41c-1.27-2.13-2.55-4.25-3.82-6.38c-2.72-4.54-5.43-9.07-8.15-13.61
			C654.33,268.13,651.73,269.63,652.73,271.3L652.73,271.3z"/>
	</g>
</g>
<g>
	<g>
		<path class="st4" d="M589.12,368.29c-0.01,0.03-0.02,0.06-0.04,0.09c0.13-0.22,0.26-0.44,0.39-0.66
			c-0.02,0.02-0.05,0.04-0.07,0.06c0.22-0.13,0.44-0.26,0.66-0.39c0.39,0.15,0.78,0.3,1.18,0.45c0.07,0.25,0.14,0.5,0.2,0.76
			c0.01,0.19-0.21,0.29-0.01,0.19c0.11-0.05,0.22-0.24,0.31-0.33c0.23-0.24,0.46-0.49,0.7-0.73c0.47-0.48,0.95-0.95,1.43-1.42
			c1-0.95,2.04-1.87,3.11-2.74c2.07-1.69,4.28-3.2,6.59-4.55c1.66-0.98,0.16-3.57-1.51-2.59c-3.26,1.92-6.34,4.17-9.15,6.7
			c-0.67,0.6-1.32,1.21-1.95,1.85c-0.7,0.7-1.49,1.4-2.06,2.22c-0.64,0.92-0.6,2.24,0.42,2.88c1.07,0.67,2.28,0.13,2.71-0.99
			c0.29-0.76-0.32-1.64-1.05-1.85C590.12,367.01,589.41,367.53,589.12,368.29L589.12,368.29z"/>
	</g>
</g>
<g>
	<g>
		<path class="st4" d="M596.76,347.96c1.57-0.56,3.15-1.12,4.72-1.67c0.37-0.13,0.69-0.34,0.9-0.69c0.19-0.32,0.27-0.8,0.15-1.16
			c-0.24-0.73-1.05-1.33-1.85-1.05c-1.57,0.56-3.15,1.12-4.72,1.67c-0.37,0.13-0.69,0.34-0.9,0.69c-0.19,0.32-0.27,0.8-0.15,1.16
			C595.15,347.64,595.97,348.24,596.76,347.96L596.76,347.96z"/>
	</g>
</g>
<g>
	<path class="st4" d="M604.93,340.85c-11.94-21.59-35.55-36.24-60.2-37.34c-6.41-0.29-13.06,0.24-19.02-2.13
		c11.86,2.68,22.91,8.03,33.84,13.34c12.41,6.03,25.63,12.82,32.04,25.04c0.75,1.44,1.45,2.99,2.75,3.97
		c3.16,2.39,7.61,0.1,10.85-2.18"/>
	<g>
		<path class="st4" d="M606.23,340.09c-11.61-20.87-33.66-35.27-57.38-37.78c-7.56-0.8-15.51,0.4-22.74-2.39
			c-0.27,0.96-0.53,1.93-0.8,2.89c13.46,3.08,26.03,9.38,38.29,15.56c10.11,5.1,20.67,11.24,26.34,21.47
			c1.6,2.89,3.03,5.92,6.71,6.34c3.36,0.39,6.64-1.5,9.3-3.34c1.58-1.09,0.08-3.69-1.51-2.59c-2.15,1.49-5.31,3.66-8.08,2.84
			c-2.54-0.76-3.5-4.34-4.79-6.38c-2.97-4.73-7-8.64-11.45-11.98c-4.57-3.42-9.58-6.2-14.66-8.77c-5.83-2.95-11.73-5.81-17.7-8.47
			c-7-3.12-14.17-5.86-21.66-7.57c-1.91-0.44-2.57,2.21-0.8,2.89c6.5,2.51,13.55,1.83,20.36,2.23c5.8,0.34,11.53,1.46,17.06,3.24
			c10.95,3.53,21.03,9.7,29.18,17.82c4.62,4.6,8.56,9.8,11.73,15.49C604.58,343.29,607.17,341.78,606.23,340.09L606.23,340.09z"/>
	</g>
</g>
<g>
	<g>
		<path class="st4" d="M557.77,402.95c3.42-3.16,7.26-5.82,11.4-7.95c0.72-0.37,0.93-1.38,0.54-2.05c-0.43-0.73-1.33-0.91-2.05-0.54
			c-4.36,2.25-8.4,5.09-12.01,8.42C554.22,402.15,556.35,404.26,557.77,402.95L557.77,402.95z"/>
	</g>
</g>
<g>
	<g>
		<path class="st4" d="M550,388.01c0.97,5.05,2.84,9.91,5.47,14.33c0.99,1.66,3.58,0.15,2.59-1.51c-2.51-4.21-4.24-8.8-5.17-13.61
			c-0.15-0.8-1.11-1.25-1.85-1.05C550.21,386.4,549.84,387.22,550,388.01L550,388.01z"/>
	</g>
</g>
<g>
	<g>
		<path class="st4" d="M552.66,388.4c2,3.25,4.33,6.3,6.94,9.08c0.54,0.57,1.58,0.58,2.12,0c0.56-0.61,0.57-1.51,0-2.12
			c-0.61-0.65-1.21-1.32-1.79-2c-0.29-0.34-0.58-0.69-0.86-1.03c-0.15-0.18-0.3-0.37-0.44-0.56c-0.07-0.08-0.13-0.17-0.19-0.25
			c0.11,0.15-0.07-0.09-0.1-0.13c-1.1-1.45-2.13-2.95-3.08-4.5c-0.41-0.67-1.36-0.98-2.05-0.54
			C552.53,386.78,552.22,387.68,552.66,388.4L552.66,388.4z"/>
	</g>
</g>
<g>
	<g>
		<path class="st4" d="M560.62,392.09c1.1,1.15,2.19,2.3,3.29,3.44c0.26,0.27,0.68,0.44,1.06,0.44c0.37,0,0.81-0.16,1.06-0.44
			c0.56-0.61,0.58-1.52,0-2.12c-1.1-1.15-2.19-2.3-3.29-3.44c-0.26-0.27-0.68-0.44-1.06-0.44c-0.37,0-0.81,0.16-1.06,0.44
			C560.06,390.57,560.04,391.48,560.62,392.09L560.62,392.09z"/>
	</g>
</g>
<g>
	<g>
		<path class="st4" d="M520.54,504.26c1.39,1.74,2.97,3.33,4.7,4.73c0.32,0.26,0.63,0.44,1.06,0.44c0.37,0,0.81-0.16,1.06-0.44
			c0.26-0.29,0.46-0.66,0.44-1.06c-0.02-0.37-0.14-0.82-0.44-1.06c-1.73-1.4-3.31-2.99-4.7-4.73c-0.22-0.28-0.72-0.44-1.06-0.44
			c-0.37,0-0.81,0.16-1.06,0.44c-0.26,0.29-0.46,0.66-0.44,1.06C520.12,503.62,520.28,503.93,520.54,504.26L520.54,504.26z"/>
	</g>
</g>
<g>
	<g>
		<path class="st4" d="M520.99,492.38c3.14,3.92,7.26,6.9,11.89,8.82c0.75,0.31,1.65-0.34,1.85-1.05c0.24-0.86-0.3-1.53-1.05-1.85
			c-4.1-1.71-7.75-4.55-10.57-8.05c-0.51-0.63-1.59-0.53-2.12,0C520.36,490.89,520.48,491.75,520.99,492.38L520.99,492.38z"/>
	</g>
</g>
<g>
	<g>
		<path class="st4" d="M525.3,486.35c2.83,2.24,5.76,4.35,8.79,6.31c1.48,0.96,2.99,1.88,4.52,2.76c1.31,0.75,3.33,1.98,4.58,0.42
			c0.51-0.63,0.62-1.51,0-2.12c-0.53-0.53-1.61-0.63-2.12,0c0.49-0.61,0.56,0.15,0.2-0.24c-0.22-0.24-0.74-0.42-1.02-0.58
			c-0.6-0.34-1.19-0.69-1.78-1.04c-1.3-0.78-2.59-1.59-3.86-2.43c-2.47-1.63-4.88-3.36-7.2-5.2c-0.64-0.5-1.5-0.62-2.12,0
			C524.78,484.75,524.66,485.84,525.3,486.35L525.3,486.35z"/>
	</g>
</g>
<g>
	<g>
		<path class="st4" d="M534.45,484.95c3.34,3.23,7.27,5.74,11.58,7.47c0.75,0.3,1.65-0.33,1.85-1.05c0.24-0.86-0.29-1.54-1.05-1.85
			c-3.78-1.52-7.31-3.85-10.25-6.7c-0.58-0.56-1.54-0.58-2.12,0C533.88,483.4,533.86,484.39,534.45,484.95L534.45,484.95z"/>
	</g>
</g>
<g>
	<g>
		<path class="st4" d="M542.82,483.65c2.76,2.18,5.74,4.04,8.96,5.47c0.71,0.32,1.65,0.23,2.05-0.54c0.35-0.65,0.23-1.71-0.54-2.05
			c-1.52-0.68-3-1.45-4.43-2.3c-0.71-0.43-1.41-0.88-2.1-1.35c-0.34-0.24-0.68-0.48-1.02-0.73c-0.17-0.12-0.33-0.25-0.5-0.37
			c-0.14-0.11-0.17-0.13-0.07-0.05c-0.08-0.06-0.16-0.13-0.25-0.19c-0.61-0.49-1.53-0.64-2.12,0
			C542.32,482.07,542.16,483.13,542.82,483.65L542.82,483.65z"/>
	</g>
</g>
<g>
	<g>
		<path class="st4" d="M735.37,387.94c-0.48-1.09-2.19-1.3-2.93-0.38c-0.47,0.58-0.52,1.14-0.23,1.82c1.9,4.49,4.33,8.73,7.24,12.64
			c0.48,0.65,1.3,0.98,2.05,0.54c0.64-0.37,1.02-1.4,0.54-2.05c-2.91-3.91-5.34-8.15-7.24-12.64c-0.08,0.61-0.16,1.21-0.23,1.82
			c-0.04,0.03-0.08,0.06-0.12,0.09c-0.25,0.07-0.5,0.14-0.76,0.2c-0.05-0.01-0.1-0.01-0.15-0.02c-0.22-0.13-0.44-0.26-0.66-0.39
			c-0.03-0.04-0.06-0.08-0.09-0.12c0.32,0.74,1.41,0.91,2.05,0.54C735.6,389.54,735.7,388.68,735.37,387.94L735.37,387.94z"/>
	</g>
</g>
<g>
	<g>
		<path class="st4" d="M741.75,393.8c1.43,4.09,3.03,8.12,4.79,12.07c0.84,1.89,1.71,3.78,2.64,5.63c0.82,1.63,1.81,3.13,3.38,4.12
			c1.64,1.03,3.14-1.56,1.51-2.59c-1.31-0.83-1.96-2.34-2.62-3.68c-0.87-1.77-1.7-3.56-2.49-5.36c-1.59-3.61-3.03-7.28-4.33-11
			C744.01,391.2,741.11,391.97,741.75,393.8L741.75,393.8z"/>
	</g>
</g>
<g>
	<g>
		<path class="st4" d="M754.27,408.85c1.79,2.77,3.59,5.54,5.38,8.31c0.88,1.36,1.72,2.74,2.64,4.07c0.48,0.7,1.11,1.29,2.02,1.31
			c0.89,0.02,1.79-0.61,1.96-1.5c0.15-0.8-0.22-1.62-1.05-1.85c-0.73-0.2-1.69,0.25-1.85,1.05c0.02-0.04,0.03-0.07,0.05-0.11
			c0.18-0.18,0.36-0.36,0.54-0.54c0.59-0.21,0.91-0.14,0.97,0.19c-0.08-0.12-0.16-0.24-0.24-0.37c-0.19-0.29-0.37-0.58-0.56-0.86
			c-0.33-0.5-0.65-1.01-0.98-1.51c-0.7-1.08-1.4-2.16-2.1-3.24c-1.4-2.16-2.8-4.32-4.19-6.48
			C755.81,405.72,753.21,407.22,754.27,408.85L754.27,408.85z"/>
	</g>
</g>
<g>
	<g>
		<path class="st4" d="M762.6,407.56c2.42,3.9,5.02,7.68,7.8,11.32c0.49,0.64,1.29,0.98,2.05,0.54c0.63-0.37,1.03-1.4,0.54-2.05
			c-2.78-3.65-5.38-7.43-7.8-11.32C764.18,404.41,761.58,405.92,762.6,407.56L762.6,407.56z"/>
	</g>
</g>
<g>
	<g>
		<path class="st4" d="M773.03,408.92c3.49,5.21,7.09,10.34,10.81,15.38c0.48,0.65,1.3,0.98,2.05,0.54c0.64-0.38,1.02-1.4,0.54-2.05
			c-3.72-5.05-7.32-10.18-10.81-15.38C774.55,405.8,771.95,407.31,773.03,408.92L773.03,408.92z"/>
	</g>
</g>
<g>
	<g>
		<path class="st4" d="M787.87,411.95c2.3,4.75,5.56,9.05,9.51,12.55c0.61,0.54,1.52,0.6,2.12,0c0.55-0.55,0.61-1.58,0-2.12
			c-3.78-3.35-6.84-7.39-9.04-11.94c-0.35-0.73-1.39-0.92-2.05-0.54C787.67,410.34,787.52,411.22,787.87,411.95L787.87,411.95z"/>
	</g>
</g>
<g>
	<g>
		<path class="st4" d="M799.26,413.67c2.48,4.12,5.23,8.07,8.22,11.84c0.5,0.64,1.6,0.53,2.12,0c0.63-0.63,0.5-1.48,0-2.12
			c-2.83-3.57-5.4-7.33-7.75-11.23C800.85,410.5,798.26,412.01,799.26,413.67L799.26,413.67z"/>
	</g>
</g>
<g>
	<g>
		<path class="st4" d="M809.4,411.96c1.87,2.61,3.74,5.22,5.61,7.83c0.46,0.64,1.33,1.01,2.05,0.54c0.63-0.41,1.03-1.37,0.54-2.05
			c-1.87-2.61-3.74-5.22-5.61-7.83c-0.46-0.64-1.33-1.01-2.05-0.54C809.3,410.31,808.91,411.28,809.4,411.96L809.4,411.96z"/>
	</g>
</g>
<g>
	<g>
		<path class="st4" d="M816.29,409.29c0.38,0.38,0.75,0.78,1.1,1.19c0.09,0.11,0.18,0.21,0.26,0.32c0.04,0.05,0.08,0.1,0.12,0.14
			c0.12,0.16-0.03-0.03-0.06-0.08c0.16,0.23,0.33,0.45,0.49,0.67c0.62,0.89,1.15,1.83,1.6,2.81c0.15,0.32,0.57,0.6,0.9,0.69
			c0.36,0.1,0.84,0.05,1.16-0.15c0.74-0.47,0.89-1.29,0.54-2.05c-0.97-2.1-2.34-4.03-3.98-5.66c-0.56-0.56-1.57-0.6-2.12,0
			C815.74,407.77,815.69,408.7,816.29,409.29L816.29,409.29z"/>
	</g>
</g>
<g>
	<g>
		<path class="st5" d="M616.37,458.44c1,1.36,2,2.71,3,4.07c0.24,0.32,0.49,0.58,0.9,0.69c0.36,0.1,0.84,0.05,1.16-0.15
			c0.32-0.21,0.6-0.51,0.69-0.9c0.08-0.37,0.08-0.84-0.15-1.16c-1-1.36-2-2.71-3-4.07c-0.24-0.32-0.49-0.58-0.9-0.69
			c-0.36-0.1-0.84-0.05-1.16,0.15c-0.32,0.21-0.6,0.51-0.69,0.9C616.14,457.65,616.14,458.12,616.37,458.44L616.37,458.44z"/>
	</g>
</g>
<g>
	<g>
		<path class="st5" d="M622.97,454.98c2.24,4.31,5.13,8.28,8.53,11.76c1.35,1.38,3.47-0.74,2.12-2.12
			c-3.23-3.3-5.93-7.05-8.06-11.15c-0.37-0.72-1.38-0.93-2.05-0.54C622.77,453.36,622.59,454.26,622.97,454.98L622.97,454.98z"/>
	</g>
</g>
<g>
	<g>
		<path class="st5" d="M628.8,454.42c2.3,3.54,4.83,6.92,7.56,10.14c0.52,0.62,1.58,0.54,2.12,0c0.61-0.61,0.53-1.5,0-2.12
			c-2.57-3.03-4.91-6.18-7.09-9.53c-0.44-0.68-1.33-0.96-2.05-0.54C628.67,452.76,628.36,453.74,628.8,454.42L628.8,454.42z"/>
	</g>
</g>
<g>
	<g>
		<path class="st5" d="M633.63,451.64c2.5,3.56,5.21,6.99,8.09,10.25c0.54,0.61,1.57,0.55,2.12,0c0.6-0.6,0.54-1.51,0-2.12
			c-2.74-3.09-5.26-6.27-7.63-9.64c-0.47-0.66-1.31-0.97-2.05-0.54C633.52,449.98,633.17,450.98,633.63,451.64L633.63,451.64z"/>
	</g>
</g>
<g>
	<g>
		<path class="st5" d="M640.85,449.09c1.87,2.61,3.74,5.22,5.61,7.83c0.46,0.64,1.33,1.01,2.05,0.54c0.63-0.41,1.03-1.37,0.54-2.05
			c-1.87-2.61-3.74-5.22-5.61-7.83c-0.46-0.64-1.33-1.01-2.05-0.54C640.76,447.44,640.36,448.41,640.85,449.09L640.85,449.09z"/>
	</g>
</g>
<g>
	<g>
		<path class="st5" d="M644.95,447.36c1.34,1.85,2.77,3.64,4.31,5.32c0.53,0.58,1.59,0.58,2.12,0c0.57-0.62,0.57-1.5,0-2.12
			c-0.72-0.79-1.41-1.59-2.08-2.41c-0.16-0.19-0.31-0.39-0.47-0.59c-0.09-0.11-0.17-0.22-0.26-0.33c-0.03-0.04-0.17-0.21-0.03-0.03
			c0.14,0.18,0,0-0.03-0.03c-0.33-0.43-0.66-0.87-0.98-1.32c-0.23-0.33-0.5-0.58-0.9-0.69c-0.36-0.1-0.84-0.05-1.16,0.15
			C644.86,445.72,644.46,446.68,644.95,447.36L644.95,447.36z"/>
	</g>
</g>
<g>
	<g>
		<path class="st5" d="M695.89,457.77c0.83,1.58,2.42,2.81,4.16,3.19c0.39,0.09,0.8,0.05,1.16-0.15c0.31-0.18,0.61-0.54,0.69-0.9
			c0.09-0.38,0.07-0.81-0.15-1.16c-0.21-0.32-0.51-0.6-0.9-0.69c-0.29-0.06-0.57-0.15-0.84-0.27c0.12,0.05,0.24,0.1,0.36,0.15
			c-0.39-0.17-0.75-0.38-1.09-0.64c0.1,0.08,0.2,0.16,0.3,0.23c-0.33-0.26-0.63-0.56-0.89-0.9c0.08,0.1,0.16,0.2,0.23,0.3
			c-0.17-0.22-0.32-0.45-0.44-0.7c-0.17-0.32-0.55-0.59-0.9-0.69c-0.36-0.1-0.84-0.05-1.16,0.15
			C695.72,456.17,695.51,457.02,695.89,457.77L695.89,457.77z"/>
	</g>
</g>
<g>
	<g>
		<path class="st5" d="M698.71,454.78c1.58,1.34,3.16,2.68,4.74,4.02c0.31,0.26,0.64,0.44,1.06,0.44c0.37,0,0.81-0.16,1.06-0.44
			c0.51-0.56,0.64-1.58,0-2.12c-1.58-1.34-3.16-2.68-4.74-4.02c-0.31-0.26-0.64-0.44-1.06-0.44c-0.37,0-0.81,0.16-1.06,0.44
			C698.2,453.22,698.08,454.24,698.71,454.78L698.71,454.78z"/>
	</g>
</g>
<g>
	<g>
		<path class="st5" d="M702.83,451.48c1.93,0,1.93-3,0-3C700.9,448.48,700.9,451.48,702.83,451.48L702.83,451.48z"/>
	</g>
</g>
<g>
	<g>
		<path class="st5" d="M705.67,447.16c2.61,2.89,5.54,5.46,8.72,7.7c0.64,0.45,1.7,0.14,2.05-0.54c0.41-0.77,0.15-1.57-0.54-2.05
			c-0.37-0.26-0.73-0.52-1.1-0.79c-0.2-0.15-0.4-0.3-0.6-0.45c0.13,0.1,0,0-0.05-0.04c-0.1-0.08-0.2-0.15-0.29-0.23
			c-0.73-0.58-1.43-1.17-2.13-1.79c-1.39-1.23-2.7-2.54-3.94-3.92c-0.53-0.58-1.59-0.58-2.12,0
			C705.1,445.66,705.11,446.54,705.67,447.16L705.67,447.16z"/>
	</g>
</g>
<g>
	<g>
		<path class="st5" d="M703.14,442.26c4.59,4.44,9.64,8.4,15.05,11.8c1.64,1.03,3.15-1.56,1.51-2.59
			c-5.2-3.27-10.03-7.06-14.44-11.33C703.87,438.8,701.75,440.92,703.14,442.26L703.14,442.26z"/>
	</g>
</g>
<g>
	<g>
		<path class="st5" d="M701.7,450.42c1.13,1.4,2.26,2.79,3.38,4.19c0.53,0.65,1.02,1.32,1.76,1.75c0.93,0.53,2.28,0.63,3.02-0.3
			c0.26-0.33,0.44-0.63,0.44-1.06c0-0.37-0.16-0.81-0.44-1.06c-0.54-0.5-1.6-0.66-2.12,0c-0.04,0.05-0.21,0.2,0,0.04
			c0.06-0.05,0.48-0.2,0.26-0.16c0.09-0.01,0.17-0.03,0.26-0.04c-0.11-0.01-0.09,0,0.06,0.01c0.35,0.04-0.02-0.03-0.02-0.03
			c0.04-0.01,0.32,0.16,0.13,0.05c-0.06-0.04-0.12-0.07-0.18-0.11c-0.22-0.14,0.02-0.03,0.05,0.05c-0.02-0.05-0.13-0.11-0.17-0.15
			c-0.52-0.49-0.94-1.12-1.39-1.67c-0.98-1.21-1.96-2.42-2.93-3.63c-0.5-0.61-1.61-0.55-2.12,0
			C701.1,448.95,701.17,449.76,701.7,450.42L701.7,450.42z"/>
	</g>
</g>
<g>
	<g>
		<path class="st5" d="M710.68,414.02c-0.72-0.56-1.79-0.26-2.38,0.33c-0.7,0.69-0.69,1.72-0.28,2.55c0.2,0.41,0.5,0.77,0.77,1.14
			c0.3,0.43,0.6,0.86,0.91,1.29c0.6,0.85,1.13,1.83,2.04,2.4c0.43,0.27,0.96,0.44,1.48,0.43c0.88-0.03,1.52-0.61,1.8-1.42
			c0.25-0.74-0.29-1.67-1.05-1.85c-0.83-0.19-1.58,0.25-1.85,1.05c-0.01,0.02-0.01,0.03-0.02,0.05c0.05-0.12,0.1-0.24,0.15-0.36
			c-0.03,0.07-0.13,0.2,0.04-0.03c0.05-0.09,0.12-0.16,0.21-0.21c0.13-0.09,0.16-0.12,0.08-0.07c0.12-0.05,0.24-0.1,0.36-0.15
			c-0.04,0.02-0.08,0.03-0.13,0.03c0.13-0.02,0.27-0.04,0.4-0.05c-0.07,0.01-0.13,0-0.19-0.01c0.13,0.02,0.27,0.04,0.4,0.05
			c-0.09-0.02-0.18-0.04-0.26-0.08c0.12,0.05,0.24,0.1,0.36,0.15c-0.07-0.03-0.14-0.07-0.21-0.11c-0.14-0.08-0.28-0.27,0.05,0.06
			c-0.06-0.06-0.12-0.11-0.18-0.17c-0.25-0.26,0.22,0.33,0.03,0.04c-0.28-0.42-0.59-0.83-0.88-1.25c-0.29-0.42-0.59-0.83-0.88-1.25
			c-0.28-0.4-0.61-0.79-0.82-1.22c0.05,0.12,0.1,0.24,0.15,0.36c-0.04-0.1-0.07-0.2-0.09-0.3c0.02,0.13,0.04,0.27,0.05,0.4
			c-0.01-0.05-0.01-0.11,0-0.16c-0.02,0.13-0.04,0.27-0.05,0.4c0.01-0.04,0.02-0.08,0.03-0.12c-0.05,0.12-0.1,0.24-0.15,0.36
			c0.1-0.2-0.24,0.24-0.11,0.13c0.1-0.1-0.34,0.22-0.13,0.12c-0.12,0.05-0.24,0.1-0.36,0.15c0.04-0.02,0.07-0.03,0.11-0.03
			c-0.13,0.02-0.27,0.04-0.4,0.05c0.04-0.01,0.07,0,0.11,0c-0.13-0.02-0.27-0.04-0.4-0.05c0.02,0,0.03,0.01,0.05,0.01
			c-0.12-0.05-0.24-0.1-0.36-0.15c0.04,0.01,0.07,0.03,0.1,0.06c0.29,0.22,0.83,0.24,1.16,0.15c0.35-0.1,0.72-0.36,0.9-0.69
			c0.18-0.35,0.28-0.77,0.15-1.16C711.24,414.52,711,414.28,710.68,414.02L710.68,414.02z"/>
	</g>
</g>
<g>
	<g>
		<path class="st5" d="M709.7,412.55c0.54,1.31,1.27,2.49,2.27,3.5c1,1.01,2.18,1.74,3.49,2.29c0.33,0.14,0.86,0.02,1.16-0.15
			c0.31-0.18,0.61-0.54,0.69-0.9c0.09-0.38,0.07-0.82-0.15-1.16c-0.23-0.35-0.51-0.53-0.9-0.69c-0.02-0.01-0.04-0.02-0.07-0.03
			c0.12,0.05,0.24,0.1,0.36,0.15c-0.67-0.29-1.29-0.65-1.86-1.09c0.1,0.08,0.2,0.16,0.3,0.23c-0.61-0.47-1.16-1.02-1.63-1.63
			c0.08,0.1,0.16,0.2,0.23,0.3c-0.45-0.6-0.83-1.24-1.12-1.93c0.05,0.12,0.1,0.24,0.15,0.36c-0.01-0.02-0.02-0.04-0.03-0.07
			c-0.16-0.38-0.32-0.68-0.69-0.9c-0.32-0.19-0.8-0.27-1.16-0.15c-0.36,0.12-0.71,0.34-0.9,0.69
			C709.68,411.73,709.55,412.19,709.7,412.55L709.7,412.55z"/>
	</g>
</g>
<g>
	<g>
		<path class="st5" d="M712.81,411.25c1.14,0.88,2.28,1.76,3.41,2.64c0.29,0.22,0.83,0.24,1.16,0.15c0.35-0.1,0.72-0.36,0.9-0.69
			c0.18-0.35,0.28-0.77,0.15-1.16c-0.05-0.12-0.1-0.24-0.15-0.36c-0.13-0.23-0.31-0.4-0.54-0.54c-1.14-0.88-2.28-1.76-3.41-2.64
			c-0.29-0.22-0.83-0.24-1.16-0.15c-0.35,0.1-0.72,0.36-0.9,0.69c-0.18,0.35-0.28,0.77-0.15,1.16c0.05,0.12,0.1,0.24,0.15,0.36
			C712.4,410.94,712.58,411.12,712.81,411.25L712.81,411.25z"/>
	</g>
</g>
<g>
	<g>
		<path class="st5" d="M717.26,409.99c1.5,0.6,3.17,0.85,4.78,0.73c0.4-0.03,0.77-0.15,1.06-0.44c0.26-0.26,0.46-0.69,0.44-1.06
			c-0.03-0.77-0.66-1.56-1.5-1.5c-0.66,0.05-1.33,0.03-1.99-0.06c0.13,0.02,0.27,0.04,0.4,0.05c-0.82-0.11-1.62-0.32-2.39-0.62
			c-0.34-0.13-0.86-0.02-1.16,0.15c-0.31,0.18-0.61,0.54-0.69,0.9c-0.09,0.38-0.07,0.82,0.15,1.16
			C716.59,409.64,716.88,409.83,717.26,409.99L717.26,409.99z"/>
	</g>
</g>
<g>
	<g>
		<path class="st5" d="M616.67,454.89c11.64-2.13,23.04-5.42,34.02-9.83c1.77-0.71,1-3.61-0.8-2.89
			c-10.98,4.41-22.38,7.71-34.02,9.83C613.98,452.34,614.78,455.23,616.67,454.89L616.67,454.89z"/>
	</g>
</g>
<g>
	<g>
		<path class="st5" d="M550.98,512.71c3.36,4.6,7.75,8.37,12.88,10.86c0.73,0.35,1.62,0.2,2.05-0.54c0.39-0.66,0.19-1.7-0.54-2.05
			c-4.65-2.26-8.75-5.6-11.81-9.79c-0.48-0.65-1.3-0.98-2.05-0.54C550.87,511.03,550.5,512.05,550.98,512.71L550.98,512.71z"/>
	</g>
</g>
<g>
	<g>
		<path class="st5" d="M560.62,513.02c3.69,4.46,8.61,7.79,14.07,9.66c0.77,0.26,1.64-0.3,1.85-1.05c0.23-0.82-0.28-1.58-1.05-1.85
			c-4.99-1.71-9.39-4.82-12.75-8.89c-0.52-0.62-1.59-0.53-2.12,0C560,511.52,560.11,512.4,560.62,513.02L560.62,513.02z"/>
	</g>
</g>
<g>
	<g>
		<path class="st5" d="M567.41,511.95c3.14,2.77,6.59,5.18,10.3,7.14c0.72,0.38,1.63,0.18,2.05-0.54c0.4-0.68,0.18-1.67-0.54-2.05
			c-3.52-1.85-6.75-4.07-9.69-6.67c-0.61-0.54-1.52-0.6-2.12,0C566.87,510.38,566.8,511.42,567.41,511.95L567.41,511.95z"/>
	</g>
</g>
<g>
	<g>
		<path class="st5" d="M575.53,511.93c2.54,2.66,6,4.47,9.65,4.98c0.77,0.11,1.65-0.19,1.85-1.05c0.16-0.71-0.22-1.73-1.05-1.85
			c-0.81-0.11-1.62-0.29-2.4-0.53c-0.39-0.12-0.78-0.26-1.16-0.41c-0.08-0.03-0.3-0.13-0.11-0.04c-0.09-0.04-0.18-0.08-0.26-0.12
			c-0.2-0.09-0.39-0.19-0.59-0.28c-0.73-0.37-1.43-0.81-2.09-1.29c-0.02-0.01-0.24-0.18-0.14-0.1c0.1,0.08-0.11-0.09-0.13-0.11
			c-0.17-0.14-0.33-0.28-0.5-0.42c-0.33-0.29-0.64-0.59-0.94-0.91c-0.54-0.57-1.58-0.59-2.12,0
			C574.97,510.42,574.95,511.33,575.53,511.93L575.53,511.93z"/>
	</g>
</g>
<g>
	<g>
		<path class="st5" d="M664.18,279.71c2.17,5.84,4.63,11.65,6.37,17.63c0.86,2.96,1.27,5.9,1.21,8.98c-0.06,3.16-0.27,6.29,0.45,9.4
			c0.43,1.88,3.33,1.08,2.89-0.8c-0.73-3.14-0.33-6.37-0.33-9.56c0-3-0.5-5.95-1.33-8.82c-1.73-5.98-4.2-11.8-6.37-17.63
			C666.41,277.12,663.51,277.89,664.18,279.71L664.18,279.71z"/>
	</g>
</g>
<g>
	<g>
		<path class="st5" d="M555.04,310.07c7.19,3.62,14.29,7.43,21.23,11.5c3.28,1.92,6.23,4.08,8.8,6.89c2.45,2.67,4.52,5.65,6.59,8.61
			c1.1,1.57,3.7,0.07,2.59-1.51c-2.13-3.06-4.28-6.12-6.77-8.9c-2.58-2.88-5.57-5.23-8.89-7.21c-7.17-4.28-14.58-8.22-22.04-11.98
			C554.83,306.61,553.31,309.2,555.04,310.07L555.04,310.07z"/>
	</g>
</g>
<g>
	<g>
		<path class="st5" d="M673.58,369.73c3.61,3.12,7.8,5.46,12.36,6.86c1.85,0.57,2.64-2.33,0.8-2.89c-4.05-1.25-7.83-3.32-11.04-6.09
			c-0.61-0.53-1.52-0.6-2.12,0C673.04,368.15,672.97,369.2,673.58,369.73L673.58,369.73z"/>
	</g>
</g>
<g>
	<g>
		<path class="st5" d="M664.92,305.87c1.07,4.18,1.9,8.43,2.42,12.71c0.1,0.8,0.62,1.5,1.5,1.5c0.73,0,1.6-0.69,1.5-1.5
			c-0.56-4.56-1.39-9.07-2.53-13.51C667.34,303.21,664.44,304,664.92,305.87L664.92,305.87z"/>
	</g>
</g>
<g>
	<g>
		<path class="st5" d="M676.13,299.05c0.61,4.68,1.75,9.24,3.48,13.63c0.3,0.75,1,1.28,1.85,1.05c0.72-0.2,1.35-1.09,1.05-1.85
			c-1.63-4.12-2.8-8.44-3.38-12.83c-0.11-0.8-0.61-1.5-1.5-1.5C676.91,297.55,676.03,298.24,676.13,299.05L676.13,299.05z"/>
	</g>
</g>
<g>
	<g>
		<path class="st5" d="M583.53,319.32c2.47,3.05,4.93,6.1,7.4,9.14c2.24,2.77,4.41,5.6,7.31,7.71c0.66,0.48,1.67,0.11,2.05-0.54
			c0.44-0.76,0.12-1.57-0.54-2.05c-2.75-2-4.8-4.88-6.91-7.49c-2.4-2.96-4.8-5.93-7.19-8.89c-0.51-0.63-1.59-0.53-2.12,0
			C582.9,317.82,583.02,318.69,583.53,319.32L583.53,319.32z"/>
	</g>
</g>
<g>
	<g>
		<path class="st5" d="M589.31,318.26c3.8,4.18,7.94,8.04,12.38,11.55c0.64,0.5,1.5,0.62,2.12,0c0.52-0.52,0.64-1.62,0-2.12
			c-4.43-3.5-8.57-7.36-12.38-11.55c-0.55-0.6-1.57-0.55-2.12,0C588.71,316.73,588.76,317.65,589.31,318.26L589.31,318.26z"/>
	</g>
</g>
<g>
	<g>
		<path class="st4" d="M693.94,285.31c0.8,3.79,1.61,7.57,2.41,11.36c0.4,1.86,0.79,3.72,1.19,5.58c0.33,1.54,0.77,2.95,2.15,3.86
			c1.62,1.06,3.12-1.53,1.51-2.59c-0.43-0.28-0.53-0.96-0.63-1.41c-0.17-0.73-0.31-1.46-0.47-2.2c-0.37-1.73-0.74-3.47-1.1-5.2
			c-0.72-3.4-1.45-6.8-2.17-10.2C696.43,282.63,693.54,283.42,693.94,285.31L693.94,285.31z"/>
	</g>
</g>
<g>
	<g>
		<path class="st4" d="M697.58,278.53c4.66,9.59,3.77,20.8,8.11,30.53c0.78,1.76,3.37,0.24,2.59-1.51
			c-4.34-9.72-3.43-20.9-8.11-30.53C699.32,275.28,696.74,276.8,697.58,278.53L697.58,278.53z"/>
	</g>
</g>
<g>
	<g>
		<path class="st4" d="M703.9,274.48c1.62,5.87,2.94,11.83,3.92,17.84c0.47,2.9,0.84,5.81,1.19,8.72c0.29,2.4,0.74,4.75,2.48,6.55
			c1.34,1.39,3.46-0.73,2.12-2.12c-1.58-1.65-1.57-4.28-1.83-6.41c-0.34-2.84-0.75-5.67-1.22-8.49c-0.96-5.69-2.23-11.33-3.76-16.89
			C706.28,271.82,703.38,272.61,703.9,274.48L703.9,274.48z"/>
	</g>
</g>
<g>
	<g>
		<path class="st4" d="M710.54,271.81c2.49,9.78,4.42,19.69,5.8,29.69c0.11,0.81,1.14,1.23,1.85,1.05c0.87-0.23,1.16-1.05,1.05-1.85
			c-1.37-10-3.31-19.91-5.8-29.69C712.96,269.15,710.07,269.94,710.54,271.81L710.54,271.81z"/>
	</g>
</g>
<g>
	<g>
		<path class="st4" d="M715.57,271.08c0.8,7.77,2.18,15.47,4.16,23.03c0.49,1.87,3.38,1.07,2.89-0.8
			c-1.91-7.3-3.28-14.73-4.06-22.23C718.38,269.18,715.37,269.16,715.57,271.08L715.57,271.08z"/>
	</g>
</g>
<g>
	<g>
		<path class="st4" d="M719.68,275.52c0.51,3.15,1.01,6.31,1.52,9.46c0.12,0.78,1.13,1.28,1.85,1.05c0.84-0.27,1.18-1.01,1.05-1.85
			c-0.51-3.15-1.01-6.31-1.52-9.46c-0.12-0.78-1.13-1.28-1.85-1.05C719.88,273.95,719.54,274.69,719.68,275.52L719.68,275.52z"/>
	</g>
</g>
</svg>
