<?xml version="1.0" encoding="utf-8"?>
<!-- Generator: Adobe Illustrator 28.1.0, SVG Export Plug-In . SVG Version: 6.00 Build 0)  -->
<svg version="1.1" id="Layer_1" xmlns="http://www.w3.org/2000/svg" xmlns:xlink="http://www.w3.org/1999/xlink" x="0px" y="0px"
	 viewBox="0 0 400 350" style="enable-background:new 0 0 400 350;" xml:space="preserve">
<style type="text/css">
	.st0{fill:#D3C690;}
	.st1{fill:#AFA475;}
	.st2{fill:#603813;}
	.st3{fill:#878166;}
</style>
<g>
	<path class="st0" d="M224.8,174.6c0.7,2.1,0.8,4.3,0.4,6.5c0.2,0.3,0.3,0.7,0.3,1.1C226,179.6,225.7,177,224.8,174.6z"/>
	<path class="st0" d="M223.4,115.8c-1.4-2.6-3.3-5.1-6.1-5.9c-1.3-0.3-2.8-0.2-4.1-0.1c-9.8,0.8-19.6,1.6-29.2,3.7
		c-26.1,5.6-49.3,20.2-71.5,35.1c-3,2-6.3,4.7-6.2,8.3c0.1,2.2,1.5,4,2.1,6.1c0.2,0.6,0.3,1.3,0,1.9c-0.3,0.8-1.2,1.3-2,1.6
		c-2.8,1.3-5.7,2.5-8.5,3.8c1.5-0.3,2.9-0.7,4.3-1.3c-5.1,2.6-10.2,5.5-14.5,9.3l2.5-5.3c-3.4,2.2-6.8,4.5-9.5,7.5s-4.5,7-4.1,11.1
		c0.1,1.2,0.4,2.4,0.9,3.6c-0.3,1.9-0.4,3.9-0.2,5.8l1.4-3c0.1,0.2,0.2,0.4,0.3,0.6c2,4.4,4.1,8.9,7.4,12.5c0.2-0.4,0.5-0.7,0.8-0.9
		c0.3-0.3,0.6-0.5,0.9-0.7c0,0,0-0.1,0-0.1c0-0.1,0.1-0.1,0.1-0.2c0,0,0,0,0.1-0.1c0.1-0.1,0.2-0.2,0.3-0.2c0,0,0,0,0,0
		c0.1,0,0.1,0,0.2,0c0,0,0,0,0.1,0c0.1,0,0.1,0,0.2,0c0.1,0,0.1,0,0.2,0.1c0.1,0,0.1,0.1,0.2,0.2c0,0,0,0.1,0.1,0.1
		c0,0.1,0,0.2,0,0.3c0,0,0,0.1-0.1,0.1c0,0.1-0.1,0.1-0.1,0.1c0,0-0.1,0-0.1,0.1c-0.2,0.5-0.6,0.8-0.9,1.2c-0.1,0.1-0.1,0.1-0.2,0.2
		c0,0.1-0.1,0.2-0.2,0.3c0,0,0,0,0,0c0,0,0,0,0,0c0,0,0,0,0,0c0,0,0,0.1,0,0.1c0.1,0.2,0.1,0.5-0.1,0.6c0.1,0.1,0.1,0.2,0.2,0.4
		c3.9,3.4,8.8,5.4,13.6,7.1c0.5,0.2,1,0.4,1.6,0.5c-0.2-0.3-0.4-0.5-0.7-0.8c-0.1-0.2-0.2-0.3-0.2-0.5c-2-2-3.8-4.2-4.5-6.8
		c-0.6-1-1.2-2-1.7-3.1c-0.1-0.1-0.1-0.2-0.1-0.3c-0.1-0.1-0.1-0.2-0.2-0.2c0,0,0,0-0.1-0.1c0,0,0,0-0.1-0.1c0-0.1-0.1-0.2-0.1-0.3
		c0-0.1-0.1-0.2-0.1-0.3c0,0,0,0,0-0.1c0-0.1,0-0.2,0.1-0.3c-0.3-0.2-0.6-0.4-0.7-0.6c-2.3-4.4,1.8-7,6.9-8c0,0,0,0,0,0
		c0.1,0,0.2-0.1,0.3-0.1c0.3-0.3,0.9-0.5,1.4-0.5c1.5-0.6,3.2-0.8,4.9-0.8c1.2,0,2.5,0.3,3.7,0.8c0.3,0,0.6,0.1,0.8,0.2
		c0.4,0.2,0.8,0.5,1.2,0.7c0,0,0.1,0.1,0.1,0.1c0,0,0,0,0.1,0c0.1,0,0.2,0.1,0.2,0.1c0,0,0,0.1,0.1,0.1c0.3,0.2,0.6,0.4,0.9,0.7
		c0.5,0.4,0.9,0.8,1.3,1.2c0.3,0.3,0.6,0.6,0.8,1c0,0,0,0,0,0c0,0,0,0,0,0c0,0,0,0,0,0c0,0,0.1,0.1,0.1,0.1c0,0,0,0,0,0
		c0,0,0,0.1,0,0.1c0,0,0,0,0,0c0,0,0,0,0,0c1.1,1,2,2.2,2.1,3.6c0,0.1,0,0.2,0,0.3c0,0,0.1,0,0.1,0c0,0,0,0.1,0,0.1c0,0,0,0,0,0
		c0.2,0.2,0.4,0.5,0.4,0.8c0,0.3,0,0.5,0,0.8c0,0.1,0.1,0.2,0.1,0.4c0.1,0.1,0.2,0.2,0.2,0.4c0.1,1.1,0.2,2.3,0.2,3.4
		c0,0.9,0,1.9-0.3,2.7c0,0,0.1,0.1,0.1,0.2c0,0.4,0,0.9-0.2,1.3c0,0-0.1,0.1-0.1,0.1c0,0.4,0,0.8,0,1.1c0.1,2.2,0.1,4.4-0.4,6.1
		c0.1,0,0.1,0.1,0.1,0.2c0.1,0.1,0.1,0.2,0.2,0.3c0,0,0,0,0,0c0.3,0.2,0.7,0.5,1,0.7c0,0,0,0,0,0c0,0,0.1,0,0.1,0.1
		c0,0,0.2,0.1,0.3,0.1c0,0,0,0,0,0c0,0,0,0,0,0c0.1,0,0.1,0,0.1,0c0,0,0,0,0,0c0.2,0,0.7,0,0.9,0.2c3.8-0.8,7.1-3.6,10.2-5.9
		c0.8-0.6,1.8-0.9,2.8-1c0,0,0-0.1,0.1-0.1c0.6-0.6,1.2-1.1,1.9-1.6c0.6-0.4,1.2-0.8,1.8-1.2c0,0,0-0.1,0-0.1c0,0,0.1-0.1,0.1-0.1
		c0,0,0,0,0,0c0.1,0,0.1-0.1,0.1-0.1c0.1-0.1,0.1-0.1,0.2-0.2c0,0,0,0,0.1,0c0.1-0.1,0.3-0.2,0.4-0.3c0.5-0.8,1-1.7,1.3-2.6
		c0.1-0.3,0.6-0.5,0.9-0.6c0.3-0.1,0.7-0.1,1.1-0.1c0-0.1,0.1-0.2,0.1-0.2c0,0,0.1,0,0.1-0.1c0.1,0,0.1,0,0.2,0.1
		c0.1,0,0.1,0.1,0.2,0.2c0,0,0,0.1,0,0.1c0.4,0,0.8,0.2,1.1,0.4c0.1,0,0.2,0,0.3,0.1c0.1,0,0.2,0.1,0.2,0.1c0.1,0,0.1,0.1,0.1,0.2
		c0,0.1-0.1,0.2-0.2,0.3c0,0,0,0,0,0c0.1,0.7-0.4,1.5-0.7,2.2c0,0.2-0.1,0.3-0.1,0.5c0,0.2-0.2,0.3-0.3,0.3c-0.1,0-0.2,0.1-0.3,0.1
		c-0.2,1-0.8,2-1.2,2.7c-0.9,1.6-1.9,3.2-3.2,4.5c-0.8,0.8-1.7,1.6-2.7,2.2c0.1,0.2,0,0.3-0.2,0.5c-0.9,0.6-1.9,1.1-2.8,1.6
		c0.1,0.2,0.1,0.4-0.2,0.5c-0.2,0.1-0.4,0.2-0.7,0.2c9.9,1.8,19.9,2.9,29.9,3.2c3.5,0.1,7.1,0.1,10.5-0.9c3.5-1,6.6-3.1,9.6-5.3
		c11.6-8.3,22.5-17.8,32.3-28.3c2.9-3.1,5.7-6.3,7.5-10c0.9-1.8,1.5-3.8,1.8-5.7c-0.5-0.7-1.4-1.2-2.3-0.9
		c1.8-10.8,3.7-21.7,4.6-32.6C228.5,136.8,228.4,125.4,223.4,115.8z M183.6,170.4c-0.4,0.4-1.1,0.6-1.8,0.7
		c-0.1,0.1-0.1,0.1-0.2,0.2c0,0.3-0.2,0.5-0.4,0.7c-0.2,0.2-0.4,0.3-0.7,0.4c-0.1,0-0.1,0.1-0.2,0.1c-0.3,0.2-0.6,0.3-0.9,0.4
		c-0.1,0-0.3,0.1-0.4,0.1c-0.4,0.2-0.7,0.4-1.1,0.5c0,0,0,0-0.1,0c-2.1,2.7-8.2,3.2-10.5,1.1c-0.4-0.3-0.4-0.6-0.3-0.9
		c-0.9-1.2-0.7-2.5,0-3.7c-0.1-0.2-0.1-0.4,0-0.6c0.4-0.6,0.8-1.2,1.3-1.7c0-0.2,0.1-0.5,0.3-0.7c1.5-1.3,3-2.6,4.7-3.7
		c0.1-0.1,0.2-0.2,0.4-0.3c0.2-0.2,0.4-0.3,0.6-0.4c0.2-0.1,0.3-0.2,0.5-0.3c0.1,0,0.1-0.1,0.2-0.1c0,0,0,0,0,0
		c0.2-0.1,0.3-0.2,0.5-0.3c0.3-0.1,0.5-0.2,0.8-0.3c0.9-0.4,1.9-0.6,2.8-0.6c0.7,0,2.1,0.1,2.8,0.7c0.1,0,0.2,0.1,0.3,0.1
		c1,0.1,2.3,0.3,2.3,1.2c0,0.1,0,0.2-0.1,0.3c0.7,0.5,1.1,1.2,1.1,2c0.1,0.4,0.2,0.8,0.2,1.3C185.6,168.1,184.7,169.4,183.6,170.4z
		 M218.8,147.7c-0.1,0.7-0.4,1.2-0.7,1.7c0,0,0,0.1,0,0.1c0,0,0,0,0,0c-0.1,0.2-0.1,0.5-0.2,0.7c-0.1,0.1-0.2,0.3-0.3,0.4
		c0,0,0,0,0,0c-0.3,0.5-0.8,0.9-1.2,1.3c0,0,0,0,0,0c-0.3,0.3-0.8,0.6-1.2,0.7c-0.1,0-0.1,0.1-0.2,0.1c-0.1,0-0.1,0.1-0.2,0.1
		c-0.5,0.3-1,0.5-1.5,0.6c-0.3,0.1-0.6,0.2-0.9,0.2c-1.9,0.6-4,0.7-6,0.7c-0.7,0-1.6,0-2.2-0.4c-0.9-0.1-1.7-0.2-2.5-0.5
		c-2.1-0.2-4.3-0.6-6.1-1.6c-2.3-0.7-4.5-1.4-6.5-2.8c-0.3-0.2-0.5-0.4-0.7-0.6c-0.4-0.1-0.8-0.4-1.1-0.6c-1-1-2.6-1.7-3.6-3
		c0,0,0-0.1,0-0.1c-0.2-0.2-0.4-0.5-0.6-0.8c-0.2-0.1-0.5-0.3-0.6-0.5c-0.2-0.5-0.4-1.1-0.4-1.6c-0.1-0.1-0.1-0.2-0.1-0.3
		c0.1-0.4,0-0.9,0.1-1.4c0.1-0.7,0.5-1.2,1-1.6c0.2-0.1,0.3-0.2,0.5-0.3c0.1-0.1,0.2-0.2,0.4-0.3c0.1-0.1,0.3-0.2,0.6-0.2
		c0.3-0.2,0.7-0.3,1.2-0.4c2.9-0.7,5.9-0.7,8.9-0.8c1.1-0.2,2.1-0.2,3.2-0.3c2.6-0.6,5.2-0.6,7.8-0.7c0,0,0.1,0,0.1,0
		c0.1-0.1,0.3-0.1,0.4-0.2c0-0.1,0-0.3,0.1-0.4c0-0.1,0-0.2,0.1-0.3c0,0,0,0,0,0c0.1-0.1,0.1-0.1,0.2-0.2c0.2-0.1,0.4-0.2,0.6-0.3
		c0.3-0.1,0.5-0.1,0.8-0.1c0.1,0,0.3,0,0.5,0c0.2,0,0.5,0.1,0.7,0.2c0.1,0,0.2,0.1,0.2,0.1c0.1,0,0.1,0.1,0.1,0.2c0.1,0,0.2,0,0.3,0
		c0.1,0,0.2,0.1,0.4,0.1c0.1,0,0.1,0,0.2,0.1c0,0,0,0,0.1,0.1c0,0,0,0,0,0c0.5,0.1,1.1,0.2,1.6,0.6c0.1,0,0.1,0.1,0.1,0.1
		c0,0,0,0,0,0c0.1,0.1,0.3,0.2,0.4,0.3c0,0,0,0,0,0c0,0,0.1,0,0.1,0.1c0.1,0,0.1,0,0.2,0.1c0.1,0.1,0.3,0.1,0.4,0.2
		c0.4,0.2,0.7,0.4,1.1,0.7c0.2,0.1,0.3,0.2,0.4,0.4c0,0,0.1,0.1,0.1,0.1c1.1,0.8,2.1,1.9,2.9,3c0.1,0.1,0.1,0.3,0,0.4
		c0.1,0.1,0.2,0.2,0.3,0.3c0.2,0.3,0.2,0.6,0.3,0.9c0.3,0.2,0.5,0.5,0.6,0.8C219,144.4,219.1,146,218.8,147.7z"/>
	<g>
		<path class="st0" d="M229.5,134.1c-0.4-6.9-1.8-14-5.3-20c-1.5-2.6-3.8-5-6.9-5.7c-1.8-0.4-3.7-0.1-5.5,0
			c-2.1,0.2-4.2,0.3-6.2,0.5c-7.8,0.7-15.6,1.6-23.2,3.4c-7,1.6-13.9,3.8-20.5,6.6c-13.4,5.5-26,12.7-38.2,20.5
			c-3.4,2.2-6.7,4.4-10,6.6c-2.9,1.9-6.2,3.9-7.8,7.1c-0.7,1.4-1,3-0.8,4.6c0.3,1.9,1.3,3.5,1.9,5.3c0.3,1,0.3,1.4-0.6,1.9
			s-1.9,0.9-2.9,1.3c-2,0.9-3.9,1.8-5.9,2.6c0,0-0.1,0-0.1,0l0,0c-0.1,0-0.2,0.1-0.3,0.1c-0.7,0.3-0.8,0.8-0.7,1.4
			c-1.7,0.9-3.3,2-4.9,3c0.4-1.2-0.9-2.6-2.1-1.8c-5.7,3.8-11.8,8-13.8,15c-0.8,2.9-0.5,5.8,0.3,8.6c-0.3,1.9-0.4,3.8-0.2,5.7
			c0.1,1.7,2.4,1.9,2.9,0.6c0.8,1.6,1.6,3.3,2.5,4.8c1.2,2,2.5,4,4.1,5.7c0.2-0.2,0.4-0.3,0.6-0.4c0,0,0-0.1,0.1-0.1
			c0,0,0-0.1,0.1-0.1c0,0,0-0.1,0-0.1c0.2-0.5,0.6-1,1-1.3c0.1-0.1,0.1-0.1,0.2-0.2c-2.2-2.5-3.9-5.4-5.3-8.3c-1-2-2.2-4.2-3-6.4
			c1-5.2,3.8-9.9,7.5-13.7c4.6-4.7,10.3-8,16.2-11c1.2-0.5,2.3-1,3.4-1.7c0.3-0.2,0.5-0.4,0.6-0.7c0.7-0.3,1.4-0.7,1.9-1.1
			c2.9-2.4,0.4-5.8-0.5-8.5c-1-3,0.7-5.2,3-7c2.6-2.1,5.6-3.9,8.4-5.7c11.7-7.7,23.8-15.1,36.5-21c13-6,26.6-10,40.8-11.8
			c3.8-0.5,7.7-0.8,11.5-1.2c1.8-0.1,3.5-0.3,5.3-0.4c1.7-0.1,3.4-0.1,4.9,0.9c2.6,1.7,4.1,5.2,5.2,8c1.2,3.2,2,6.6,2.4,10
			c0.9,7.9,0.2,15.9-0.7,23.8c-1,8.6-2.5,17.2-3.9,25.8c-0.2,1.1,0.7,2.1,1.8,1.9c0.1,0,0.2,0,0.3,0c-0.9,4.3-3.6,8.3-6.5,11.6
			c-4.6,5.2-9.6,10.1-14.7,14.8c-5.1,4.6-10.4,9-15.9,13.1c-2.7,2-5.5,4.2-8.5,5.9c-3.1,1.8-6.4,2.6-9.9,2.8
			c-7.1,0.3-14.3-0.5-21.3-1.2c-3.8-0.4-7.7-1-11.5-1.7c-0.3,0.2-0.6,0.3-1,0.5c0.1,0.2,0.1,0.4-0.2,0.5c-1.2,0.5-2.3,0.9-3.5,1.2
			c10.7,2.1,21.5,3.3,32.4,3.7c3.7,0.1,7.5,0.2,11.1-0.8c3.5-1,6.5-2.9,9.5-5c6.1-4.3,11.9-8.9,17.5-13.8
			c6.3-5.5,12.3-11.2,17.9-17.5c3.1-3.5,6-7.6,7.2-12.1c0.4-0.1,0.7-0.5,0.8-1c0-0.1,0-0.3,0-0.4c0,0,0,0,0,0c0,0,0-0.1,0-0.1
			c0.3-2.6,0.1-5.2-0.8-7.7c0,0,0-0.1,0-0.1c0,0,0,0,0,0c0,0,0,0,0,0c-0.1-0.4-0.4-0.6-0.6-0.8c0.9-5.6,1.8-11.2,2.5-16.8
			C229.1,149.1,229.9,141.6,229.5,134.1z M83.9,179.8c-2.2,2.4-4.1,5.1-5.6,8c1-4.5,4.7-8,8.5-10.8
			C85.8,177.9,84.8,178.8,83.9,179.8z"/>
		<path class="st0" d="M102.4,219.4c-0.1-0.2-0.2-0.3-0.2-0.5c-0.3-0.3-0.6-0.6-0.9-0.9c-4.7-1.7-9.4-3.7-13-7.1
			c0,0-0.1,0.1-0.1,0.1c-0.1,0.1-0.1,0.1-0.2,0.2c0,0.1-0.1,0.2-0.2,0.3c0,0,0,0,0,0c0,0,0,0,0,0c0,0,0,0,0,0c0,0,0,0.1,0,0.1
			c0.1,0.2,0.1,0.5-0.1,0.6c0.2,0.3,0.3,0.7,0.2,1.1c-0.1,0.3-0.2,0.5-0.4,0.8c0,0,0,0,0,0c0,0,0.1,0.1,0.1,0.1
			c2.6,2.1,5.5,3.6,8.5,4.9c3,1.3,6.2,2.4,9.3,3.4C104.3,221.6,103.4,220.5,102.4,219.4z"/>
		<path class="st0" d="M120.1,223.6c0,0.2-0.1,0.4-0.2,0.5c0,0,0.1,0.1,0.1,0.1c0.1,0.1,0.1,0.2,0.2,0.3c0,0,0,0,0,0
			c0.3,0.2,0.7,0.5,1,0.7c0,0,0,0,0,0c0,0,0.1,0,0.1,0.1c0,0,0.2,0.1,0.3,0.1c0,0,0,0,0,0c0,0,0,0,0,0c0.1,0,0.1,0,0.1,0
			c0,0,0,0,0,0c0.2,0,0.7,0,0.9,0.2c0.9-0.2,1.7-0.5,2.6-0.8C123.5,224.5,121.8,224.1,120.1,223.6z"/>
	</g>
</g>
<g>
	<path class="st0" d="M214.6,108.7c1.4-5.5,0.2-11.5-2.3-16.6s-6.2-9.6-10.1-13.7c-10.3-11.1-22.6-20.9-37.1-25.4
		c4.8,6.9,9.5,13.8,14.2,20.7c2.8,4,5.6,8.2,6.4,13c1.6,9.8-5.8,19.3-5,29.2"/>
	<g>
		<path class="st0" d="M216,109.1c2.7-11.3-3.7-21.7-11-29.8c-6.9-7.7-14.7-14.8-23.5-20.3c-5-3.1-10.4-5.6-16-7.4
			c-1.2-0.4-2.4,1.1-1.7,2.2c2.9,4.2,5.8,8.4,8.7,12.6c2.7,3.9,5.6,7.8,8.1,11.9c2.3,3.7,4,7.7,3.8,12.2c-0.2,4.1-1.6,8-2.8,11.8
			c-1.4,4.4-2.7,9-2.3,13.7c0.2,1.9,3.2,1.9,3,0c-0.7-8.5,4.3-16.1,5.1-24.5c0.8-9.5-5.8-17.2-10.9-24.5c-3.3-4.9-6.7-9.7-10.1-14.6
			c-0.6,0.7-1.1,1.5-1.7,2.2c9.3,3,17.8,8.2,25.3,14.5c3.8,3.1,7.3,6.6,10.7,10.1c3.6,3.8,7,7.7,9.5,12.3c2.8,5.1,4.3,11.2,2.9,17
			C212.7,110.2,215.6,111,216,109.1L216,109.1z"/>
	</g>
</g>
<g>
	<path class="st0" d="M180,111.3c-7.3,3.5-15.5,7.1-23.1,4.5c-2.3-0.8-4.5-2.1-6.5-3.5c-16.5-10.7-32.3-23.2-51.1-28.9
		C71.6,75.1,40.7,82.6,14,71.9c-1.2,2.7,0.1,5.9,2.3,7.9s5,2.9,7.8,3.8c18.5,6.1,36.8,12.9,54.8,20.3c3.6,1.5,7.2,3,10.4,5.2
		c3.9,2.7,7.1,6.2,10.2,9.8c5.9,6.6,11.8,13.2,17.6,19.9c-6.8,2.8-12,9.2-13.2,16.5"/>
	<g>
		<path class="st0" d="M179.2,110c-5.2,2.5-10.8,5.2-16.8,5.2c-6,0-10.8-3.7-15.5-6.9c-9.5-6.3-18.7-13-28.7-18.4
			c-10-5.4-20.5-9.1-31.8-10.8c-11.3-1.7-22.8-1.7-34.3-2.2c-12.8-0.5-25.7-1.7-37.7-6.4c-0.8-0.3-1.6,0.4-1.9,1
			c-1.3,3.2,0.1,6.9,2.5,9.2c2.9,2.7,6.8,3.7,10.4,4.9c8.4,2.8,16.8,5.7,25.1,8.8c8.4,3.1,16.7,6.3,25,9.7c3.9,1.6,7.9,3.1,11.5,5.3
			c3.5,2.1,6.3,4.9,9,7.9c6.8,7.4,13.3,15,20,22.5c0.2-0.8,0.4-1.7,0.7-2.5c-7.3,3.1-12.9,9.7-14.2,17.5c-0.3,1.9,2.6,2.7,2.9,0.8
			c1.2-6.8,5.8-12.8,12.1-15.5c1-0.4,1.5-1.6,0.7-2.5c-5.8-6.5-11.5-13-17.3-19.5c-2.7-3-5.3-6-8.4-8.5c-3.1-2.5-6.5-4.3-10.2-5.9
			c-15.8-6.8-32-12.7-48.2-18.3c-4.3-1.5-8.8-2.7-13.1-4.5c-3.3-1.4-7.3-4.5-5.6-8.6c-0.6,0.4-1.2,0.7-1.9,1
			c21.9,8.7,46,5.5,68.9,8.2c11.5,1.4,22.4,4.7,32.6,10.1c10.3,5.4,19.7,12.1,29.4,18.6c5.3,3.5,10.5,7.6,17.1,7.9
			c6.8,0.3,13.2-2.7,19.2-5.6C182.5,111.7,180.9,109.1,179.2,110L179.2,110z"/>
	</g>
</g>
<g>
	<path class="st0" d="M104.4,155.2c0.6,1.4,1.2,2.8,1.8,4.1"/>
	<g>
		<path class="st0" d="M103.1,156c0.6,1.4,1.2,2.8,1.8,4.1c0.1,0.3,0.6,0.6,0.9,0.7c0.4,0.1,0.8,0,1.2-0.1c0.3-0.2,0.6-0.5,0.7-0.9
			c0-0.1,0-0.3,0-0.4c0-0.3-0.1-0.5-0.2-0.8c-0.6-1.4-1.2-2.8-1.8-4.1c-0.1-0.3-0.6-0.6-0.9-0.7c-0.4-0.1-0.8,0-1.2,0.1
			c-0.3,0.2-0.6,0.5-0.7,0.9c0,0.1,0,0.3,0,0.4C102.9,155.5,103,155.7,103.1,156L103.1,156z"/>
	</g>
</g>
<g>
	<path class="st0" d="M112.3,153.5c-2.2,2.8-3.8,6.1-6,8.8c-2.2,2.8-5.4,5.1-9,5.1c-1.5,0-3-0.5-4.5-0.9c-6.9-1.9-14.2-2.4-21.3-1.7
		c-1.6,0.2-3.4,0.6-4.2,2c-0.5,0.9-0.4,1.9-0.3,2.9c0.8,9,3.5,17.8,8,25.6"/>
	<g>
		<path class="st0" d="M111,152.7c-3.2,4.2-5.3,9.7-10.1,12.3c-2.5,1.3-4.9,0.8-7.5,0.1c-2.8-0.8-5.7-1.3-8.6-1.7
			c-3-0.4-6-0.5-9-0.4c-2.5,0.1-5.5,0-7.8,1.2c-2.6,1.3-2.7,3.8-2.5,6.4c0.3,2.7,0.7,5.4,1.3,8c1.4,6.1,3.7,12,6.8,17.4
			c1,1.7,3.5,0.2,2.6-1.5c-2.6-4.6-4.7-9.6-6-14.8c-0.7-2.6-1.2-5.2-1.5-7.9c-0.2-1.2-0.5-2.7-0.2-3.9c0.3-1.1,1.4-1.4,2.4-1.6
			c2.7-0.5,5.5-0.5,8.3-0.4c2.9,0.1,5.8,0.4,8.6,0.9c2.8,0.5,5.5,1.5,8.3,1.9c2.4,0.3,4.7-0.2,6.7-1.4c5.2-2.9,7.4-8.6,10.9-13.2
			C114.7,152.7,112.1,151.2,111,152.7L111,152.7z"/>
	</g>
</g>
<g>
	<path class="st0" d="M120.7,211.3c0,0.4,0.1,0.9,0.1,1.3c0,0.9,0,1.9-0.3,2.7c0,0,0.1,0.1,0.1,0.2c0,0.4,0,0.9-0.2,1.3
		c0,0-0.1,0.1-0.1,0.1c0,0.4,0,0.8,0,1.1c0.1,2.2,0.1,4.4-0.4,6.2c0,0,0.1,0.1,0.1,0.2c0.1,0.1,0.1,0.2,0.2,0.3c0,0,0,0,0,0
		c0.3,0.2,0.7,0.5,1,0.7c0,0,0,0,0,0c0,0,0.1,0,0.1,0.1c0,0,0.2,0.1,0.3,0.1c0,0,0,0,0,0c0,0,0,0,0,0c0.1,0,0.1,0,0.1,0c0,0,0,0,0,0
		c0.2,0,0.7,0,0.9,0.2c3.8-0.8,7.1-3.6,10.2-5.9c0.8-0.6,1.8-0.9,2.8-1c0,0,0-0.1,0.1-0.1c0.4-0.5,0.9-0.9,1.4-1.3L120.7,211.3z"/>
	<path class="st0" d="M142.8,219.4c-0.8,1.3-1.7,2.6-2.7,3.6c-0.8,0.8-1.7,1.6-2.7,2.2c0.1,0.2,0.1,0.3-0.2,0.5
		c-0.9,0.6-1.9,1.1-2.8,1.6c0.1,0.2,0.1,0.3-0.2,0.5c-2.1,0.9-4.2,1.5-6.4,1.9c-0.1,0.1-0.4,0.2-0.7,0.2c-0.1,0-0.1,0-0.2,0
		c-0.1,0-0.1,0-0.1,0c-0.7,0.1-1.5,0.2-2.3,0.4c-0.2,0-0.6,0.1-0.9,0c-0.3,0-0.6,0-0.9,0c-0.3,0-0.8,0-1-0.3c0-0.1,0-0.1,0-0.2
		c-0.3,0-0.6-0.1-0.9-0.1c-0.1,0-0.2,0-0.3,0c0,0,0,0,0,0c0,0,0,0,0,0c-0.2,0-0.4,0-0.6,0c-0.2,0-0.4,0-0.6,0c0,0,0,0,0,0
		c-0.1,0-0.2,0-0.2,0c-0.3,0.1-1,0.1-1.2-0.3c0,0,0,0,0,0c-1-0.1-2-0.2-2.9-0.3c-1-0.2-1.9-0.7-1.9-1.5c-1-0.2-1.6-0.7-2.1-1.3
		c-1.5-0.5-2.6-1.4-3.6-2.5c-0.3-0.1-0.6-0.3-0.9-0.5c-1.5-1.1-2.8-2.5-3.9-3.9c-0.1-0.2-0.2-0.3-0.2-0.5c-2-2-3.8-4.2-4.6-6.8
		c-0.6-1-1.2-2-1.7-3c-0.1-0.1-0.1-0.2-0.1-0.3c-0.1-0.1-0.1-0.2-0.2-0.2c0,0,0,0-0.1-0.1c0,0,0,0-0.1-0.1c0-0.1-0.1-0.2-0.1-0.3
		c0-0.1-0.1-0.2-0.1-0.3c0,0,0,0,0-0.1c0-0.1,0-0.2,0.1-0.3c-0.3-0.2-0.6-0.4-0.7-0.6c-1.1-2-0.8-3.6,0.4-4.9l-21.2-7.8
		c-29,26.4-43.1,68.3-35.8,106.9c26.1-20,53.7-38.1,82.4-54c5.1-2.8,10.4-5.7,16.2-6.5c5.1-0.7,10.4,0.1,15.3-1.1
		c3.2-0.8,6.1-2.4,9.1-3.7c5.2-2.2,10.8-3.5,16.4-3.7L142.8,219.4z M89.4,209.4c0,0,0,0.1-0.1,0.1c0,0.1-0.1,0.1-0.1,0.1
		c0,0-0.1,0-0.1,0.1c-0.2,0.5-0.6,0.8-0.9,1.2c-0.1,0.1-0.1,0.1-0.2,0.2c0,0.1-0.1,0.2-0.2,0.3c0,0,0,0,0,0c0,0,0,0,0,0c0,0,0,0,0,0
		c0,0,0,0.1,0,0.1c0.1,0.2,0.1,0.5-0.1,0.6c0.2,0.3,0.3,0.7,0.2,1.1c-0.1,0.3-0.2,0.5-0.4,0.8c0,0.1,0,0.1-0.1,0.2c0,0,0,0,0,0
		c0,0.1,0.1,0.3,0.1,0.4c0,0.2,0,0.4,0,0.6c0,0,0,0,0,0.1c0.2,0.3,0.3,0.8,0.2,1.2c-0.1,0.2-0.1,0.4-0.2,0.6c0,0.1,0,0.1,0,0.2
		c0,0.4-0.1,0.8-0.1,1.1c1,1.7,1.2,3.8-0.3,5.7c0,0,0,0.1,0,0.2c0,0.1,0,0.2,0,0.2c0.1,0.7,0.1,1.5-0.1,2.2c0,0.1,0,0.1-0.1,0.2
		c0.1,0.3,0.2,0.6,0.2,0.9c0,0.6-0.2,1.2-0.3,1.8c0,0,0,0.1-0.1,0.2c0,1.4-0.4,2.8-0.8,4.2c-0.1,0.2-0.2,0.4-0.3,0.5
		c-0.8,2.4-2.7,4.4-5,5.5c-0.1,0.1-0.3,0.1-0.4,0.1c-0.5,0.2-1,0.4-1.5,0.5c-0.4,0.3-0.9,0.5-1.4,0.3c-0.2-0.1-0.4-0.1-0.5-0.2
		c-0.3,0.1-0.6,0.1-0.9,0.1c-0.9-0.2-1.7-0.5-2.5-0.9c-0.1,0-0.1-0.1-0.2-0.1c-0.2,0.1-0.4,0.1-0.6,0c-0.2,0-0.4-0.1-0.6-0.2
		c-0.4-0.3-0.9-0.6-1.4-0.8c-0.1,0-0.2-0.1-0.2-0.1c-0.3-0.1-0.5-0.2-0.7-0.4l-0.2-0.2c-0.2,0.2-0.3,0.4-0.4,0.7
		c-0.3,0.5-0.6,1.1-0.9,1.6c-0.6,1.1-1.1,2.2-1.8,3.2c-0.1,0.3-0.2,0.5-0.4,0.7c-0.1,0.1-0.2,0.3-0.4,0.4c0,0-0.1,0.1-0.1,0.1
		c0,0,0,0,0,0c-0.2,0.3-0.4,0.6-0.6,0.9c-0.4,0.6-0.8,1.3-1.2,2c-0.4,0.7-0.7,1.4-1,2.1c0,0,0,0,0,0.1c0,0.1-0.1,0.1-0.1,0.2
		c-0.1,0.2-0.1,0.3-0.2,0.5c-0.1,0.3-0.2,0.6-0.3,0.9c-0.2,0.7-0.9,1.2-1.7,1.1c0,0-0.1,0.1-0.1,0.1c-0.1,0-0.1,0-0.2,0
		c-0.1,0-0.1,0-0.2-0.1c0,0,0,0,0,0c0,0,0,0,0,0c0,0,0,0-0.1,0c-0.4,0-0.6-0.4-0.4-0.7c0,0,0,0,0,0c-0.2-0.3-0.3-0.8-0.1-1.1
		c0.5-1.6,1.2-3.1,2-4.5c0.7-1.3,1.4-2.5,2.4-3.6c0-0.2,0-0.3,0.1-0.4c0,0,0,0,0,0c0-0.1,0-0.1,0-0.2c0-0.1,0.1-0.1,0.1-0.2
		c0,0,0,0,0,0c0,0,0.1,0,0.1,0c0-0.1,0-0.2,0-0.3c0.2-0.6,0.5-1.2,0.9-1.7c0.2-0.3,0.4-0.5,0.7-0.8V239c0-0.1,0-0.2,0.1-0.3
		c0,0,0.1-0.1,0.1-0.1c0.1-0.1,0.1-0.1,0.2-0.1c0.3-0.5,0.5-1,0.8-1.5c0.1-0.1,0.2-0.2,0.2-0.3c0-0.1-0.1-0.2,0-0.3
		c0.2-0.4,0.4-0.7,0.7-1.1c0.1-0.1,0.2-0.2,0.4-0.3c0.7-1.3,1.3-2.6,2.3-3.5c0,0,0,0,0,0c0-0.1,0.1-0.3,0.1-0.4
		c0.2-0.1,0.3-0.3,0.4-0.4c0-0.1,0-0.2,0-0.2c0.2-0.5,0.4-1.1,0.7-1.6c0.2-0.3,0.3-0.6,0.6-0.8c0.1-0.1,0.2-0.2,0.3-0.3
		c1-1.6,2.2-3,3.5-4.1c0.1-0.1,0.2-0.1,0.3-0.2c0-0.1,0-0.2,0.1-0.2c0.1-0.1,0.2-0.2,0.3-0.2c0,0,0,0,0,0c0.3-0.7,0.8-1.3,1.4-1.8
		c0.4-1.3,1-2.5,2-3.7c0.7-0.7,1.4-1.2,2.2-1.4c0.1-0.3,0.2-0.6,0.4-0.8c0.5-0.6,1.1-1.1,1.6-1.6c0.1-0.1,0.2-0.2,0.4-0.4
		c0.2-0.3,0.3-0.5,0.6-0.7c0.1-0.1,0.1-0.3,0.2-0.4c0.2-0.3,0.4-0.5,0.7-0.6c0,0,0,0,0-0.1c0,0,0,0,0.1-0.1c0,0,0-0.1,0-0.1
		c0.2-0.5,0.6-1,1-1.3c0.3-0.3,0.6-0.5,0.9-0.7c0,0,0-0.1,0-0.1c0-0.1,0.1-0.1,0.1-0.2c0,0,0,0,0.1-0.1c0.1-0.1,0.2-0.2,0.3-0.2
		c0,0,0,0,0,0c0.1,0,0.1,0,0.2,0c0,0,0,0,0.1,0c0.1,0,0.1,0,0.2,0c0.1,0,0.1,0,0.2,0.1c0.1,0,0.1,0.1,0.2,0.2c0,0,0,0.1,0.1,0.1
		C89.4,209.3,89.4,209.3,89.4,209.4z"/>
	<g>
		<path class="st0" d="M72.9,193.1c-11.5,10.5-20.7,23.3-27.1,37.4c-6.5,14.1-10.2,29.4-10.9,45c-0.4,8.7,0.2,17.5,1.8,26
			c0.2,0.9,1.5,1.5,2.2,0.9c16.4-12.6,33.5-24.5,51-35.5c8.7-5.5,17.5-10.7,26.5-15.8c4.4-2.5,8.8-5.1,13.4-7c2.4-1,4.8-1.7,7.4-2.1
			c2.5-0.3,5-0.3,7.5-0.3c2.9,0,5.9-0.2,8.7-1c2.6-0.8,5.1-2,7.6-3.1c5.3-2.3,10.9-3.6,16.7-3.9c1.9-0.1,1.9-3.1,0-3
			c-5.2,0.2-10.3,1.2-15.1,3.1c-4.7,1.8-9,4.4-14.1,4.9c-5.2,0.5-10.5-0.1-15.6,1.4c-4.8,1.3-9.2,3.7-13.5,6.1
			c-18.3,10.1-36.2,21.2-53.5,33c-9.7,6.6-19.2,13.6-28.5,20.7c0.7,0.3,1.5,0.6,2.2,0.9c-2.8-14.9-2.4-30.3,0.9-45
			c3.3-14.7,9.3-28.8,17.8-41.2c4.8-7,10.4-13.5,16.7-19.2C76.4,194,74.3,191.8,72.9,193.1L72.9,193.1z"/>
	</g>
</g>
<g>
	<path class="st1" d="M129.4,244.8c-9.4,21.5-28.8,38.3-51.4,44.6c-7.5,2.1-15.5,3-22.9,0.8c3.6,8.5,8.9,16.7,16.8,21.6
		c7.8,5,18.6,6,26.3,0.9c8.2-5.5,11.2-16.3,18.8-22.5c3.1-2.5,6.8-4.2,10.4-5.8c24.5-10.5,50.4-17.7,76.8-21.5
		c1.1-0.2,2.3-0.3,3.1-1.1c2.2-2.1-0.3-5.7-2.6-7.6c-8.5-6.9-16.9-13.8-25.3-20.8"/>
	<g>
		<path class="st1" d="M128.1,244.1c-9.1,20.8-27.6,37.2-49.4,43.6c-7.5,2.2-15.5,3.3-23.2,1.1c-1.4-0.4-2.2,1.1-1.7,2.2
			c5.4,12.6,14.9,24.6,29.3,26.4c6.6,0.8,13.3-0.9,18.3-5.3c4.8-4.2,7.7-10,11.4-15.1c2-2.7,4.2-5.2,7-7c3.3-2.1,6.9-3.6,10.5-5.1
			c7.5-3.1,15.2-6,23-8.5c15.5-5,31.4-8.8,47.5-11.3c3-0.5,7.8-0.4,8.6-4.1c0.7-3-1.8-6-4-7.8c-6.7-5.5-13.4-11-20.2-16.5
			c-1.7-1.4-3.3-2.7-5-4.1c-1.5-1.2-3.6,0.9-2.1,2.1c6.4,5.2,12.8,10.5,19.2,15.7c1.5,1.3,3.1,2.5,4.6,3.8c1.3,1.1,2.8,2.2,3.7,3.6
			c0.5,0.8,1.4,2.3,0.4,3.1c-0.5,0.5-1.4,0.5-2,0.7c-1,0.2-2.1,0.3-3.1,0.5c-15.4,2.4-30.6,5.9-45.5,10.5c-7.4,2.3-14.8,5-22,7.8
			c-6.5,2.6-13.7,5.1-18.9,10c-4.4,4.2-7.2,9.7-10.8,14.6c-3.7,5.1-8.5,8.9-14.9,9.6c-7.3,0.8-14.6-2-20.1-6.8
			c-5.6-4.9-9.5-11.5-12.4-18.3c-0.6,0.7-1.1,1.5-1.7,2.2c7.1,2.1,14.6,1.5,21.6-0.2c5.9-1.5,11.6-3.6,17-6.4
			c10.5-5.4,19.8-13.1,27-22.4c4.1-5.2,7.6-10.9,10.2-17C131.4,243.8,128.8,242.3,128.1,244.1L128.1,244.1z"/>
	</g>
</g>
<g>
	<path class="st0" d="M178.5,230.6c12.3-9.7,31.4-9.5,43.5,0.4c-3.1,8.4-8.8,15.7-16.2,20.8c9.6,2.4,19.4-2.1,28.3-6.4
		c5.3-2.6,11.3-6.2,11.8-12.1c0.3-3.6-1.8-7.1-4.5-9.6s-5.9-4.4-8.7-6.7c-1.8-1.5-3.6-3.5-3.2-5.8c0.2-1,0.7-1.8,1.3-2.6
		c2.6-3.7,5.7-7,9.1-9.9c0.7-0.6,1.5-1.3,1.5-2.3c0-0.8-0.5-1.5-1.1-2.1c-4.1-4.5-9-8.2-14.3-11.1"/>
	<g>
		<path class="st0" d="M179.6,231.6c11.7-9.2,29.8-9,41.4,0.4c-0.1-0.5-0.3-1-0.4-1.5c-3,8-8.5,15-15.5,19.9c-1,0.7-1,2.4,0.4,2.7
			c8.6,2,17.1-0.9,24.9-4.4c6-2.7,13.9-5.9,16.5-12.5c1.3-3.4,0.6-7.2-1.4-10.2c-2.2-3.4-5.5-5.7-8.7-8c-1.6-1.1-3.3-2.2-4.6-3.8
			c-0.5-0.6-1.1-1.5-1.1-2.4c0-1,0.7-2,1.3-2.8c2.4-3.4,5.3-6.4,8.5-9.1c1.5-1.3,2.9-2.9,2-5c-0.8-2-2.9-3.6-4.5-5
			c-3.5-3.2-7.3-5.9-11.4-8.1c-1.7-0.9-3.2,1.7-1.5,2.6c3.4,1.8,6.6,4,9.5,6.5c1.4,1.2,2.8,2.5,4.1,3.9c0.5,0.6,1.4,1.2,0.8,2
			c-0.5,0.7-1.3,1.2-2,1.7c-2.9,2.5-5.4,5.4-7.7,8.5c-1.1,1.4-2.1,3-2.1,4.8c0,1.8,1,3.3,2.1,4.6c2.5,2.8,6,4.5,8.8,6.9
			c2.6,2.2,5.3,5.1,5.5,8.7c0.4,6.5-7.2,10.1-12.1,12.4c-8,3.9-17.1,7.9-26.1,5.8c0.1,0.9,0.2,1.8,0.4,2.7
			c7.7-5.4,13.6-12.9,16.8-21.7c0.2-0.5,0-1.1-0.4-1.5c-10-8.1-24.2-10.2-36.2-5.7c-3.4,1.3-6.5,3-9.4,5.3
			C175.9,230.7,178.1,232.8,179.6,231.6L179.6,231.6z"/>
	</g>
</g>
<g>
	<path class="st0" d="M208.4,82.4c2.3-5.9,4.6-11.8,8.3-16.8s9.1-9.2,15.3-10.1c2.5-0.4,5.4-0.2,7.4-1.8c1.8-1.4,2.4-3.9,3.6-5.8
		c2.3-3.9,6.9-6.1,11.5-6.4s9,0.8,13.3,2.3c2.3,0.8,4.7,1.7,7.1,1.4c5.1-0.6,8.2-5.8,12.9-7.9c4.8-2.1,10.5-0.7,14.9,2.1
		c4.4,2.8,8,6.7,12,10.1c6.4,5.4,14.1,9.2,22.3,11.2c2.2,0.5,4.5,1,6,2.7c2.4,2.8,0.9,7.2,1.2,10.9c0.4,6,5.4,10.5,10,14.3
		c6.9,5.8,13.6,11.9,18.6,19.4s7.9,16.7,6.4,25.5c-0.9,5.4-3.5,10.5-6,15.4c-5.2,10.3-10.5,20.7-15.8,31c-2.1,4.1-4.3,8.4-7.7,11.6
		c-1.7,1.6-3.7,3-5.2,4.8c-2.5,3.1-3.2,7.4-5.3,10.9c-4,6.7-12.3,9.3-20.1,10c-17,1.5-33.7-3.9-49.8-9.6c-2.3-0.8-4.6-1.7-6.3-3.3
		c-1.6-1.5-2.6-3.6-3.5-5.6c-3.1-6.5-7-13.2-13.2-16.9s-15.4-3.3-19.6,2.6"/>
	<g>
		<path class="st0" d="M209.9,82.8c2.8-7.2,5.7-14.7,11.4-20.1c2.5-2.4,5.5-4.3,8.8-5.3c3.3-0.9,7.1-0.3,10-2.4
			c2.8-2,3.3-5.8,5.6-8.2c2.3-2.4,5.6-3.7,8.8-4c4.3-0.4,8.5,0.7,12.5,2.1c3.7,1.2,7.3,2.4,11.2,0.8c2.9-1.3,5.1-3.6,7.6-5.5
			c2.9-2.1,6.1-3,9.6-2.3c7.9,1.6,13,8.2,18.9,13c6,4.9,13,8.5,20.4,10.5c3,0.8,7.4,1,8,4.8c0.6,3.4-0.6,6.8,0.2,10.2
			c1.8,7,8.6,11.6,13.7,16.1c5.9,5.1,11.5,10.7,15.6,17.4c4,6.6,6.5,14.5,5.4,22.3c-0.6,4-2.1,7.8-3.8,11.5c-1.9,4-3.9,7.9-5.9,11.8
			c-4,8-8.1,15.9-12.1,23.9c-1.8,3.5-3.5,7-6.2,9.9c-2.5,2.8-5.8,4.6-7.7,8c-1.8,3.1-2.5,6.8-4.5,9.8c-1.8,2.7-4.5,4.6-7.4,5.9
			c-6.7,3-14.5,3.2-21.7,2.7c-8.6-0.6-17-2.6-25.3-5.1c-4.1-1.3-8.2-2.6-12.2-4.1c-1.8-0.6-3.6-1.2-5.2-2.1c-1.7-1-2.8-2.5-3.8-4.2
			c-1.7-3.2-3.1-6.5-5.1-9.6c-1.9-3-4.1-5.8-6.9-8c-4.9-3.9-11.5-5.8-17.6-3.8c-2.8,0.9-5.2,2.6-6.9,5c-1.1,1.6,1.5,3.1,2.6,1.5
			c3.6-5,11.1-5.2,16.2-2.8c6.6,3.1,10.6,10,13.6,16.3c1.7,3.5,3.4,6.8,7,8.7c3.7,1.9,7.8,3,11.7,4.3c8.3,2.8,16.8,5.2,25.5,6.4
			c13,1.8,33,2.1,39.4-12.1c1.6-3.5,2.5-7.2,5.3-10c1.3-1.3,2.9-2.4,4.2-3.7c1.4-1.4,2.6-2.9,3.7-4.6c2.3-3.5,4.1-7.3,6-11
			c2.1-4.1,4.2-8.3,6.3-12.4c2.1-4.1,4.1-8.1,6.2-12.2c1.9-3.8,3.9-7.6,5.5-11.5c2.9-7.6,3-15.7,0.3-23.4c-2.6-7.6-7.4-14.1-13-19.8
			c-2.8-2.9-5.9-5.6-9-8.3c-2.8-2.4-5.7-4.7-8-7.5c-2.4-2.8-3.5-5.9-3.3-9.6c0.2-3.4,0.8-7.1-1.8-9.8c-2.5-2.6-6.7-2.9-10-3.9
			c-3.8-1.2-7.5-2.8-10.9-4.8c-3.4-2-6.5-4.4-9.5-7c-3-2.7-5.9-5.6-9.3-7.8c-3.1-2.1-6.7-3.5-10.4-3.8c-3.7-0.2-7,0.9-9.8,3.1
			c-2.5,1.9-4.8,4.5-7.8,5.4c-2,0.6-3.9,0.3-5.8-0.3c-2.1-0.6-4.1-1.4-6.2-2c-7.1-1.9-15.8-1.8-21,4.2c-1.2,1.3-1.9,2.8-2.7,4.4
			c-0.8,1.6-1.6,3-3.3,3.6c-1.7,0.6-3.6,0.6-5.3,0.8c-1.7,0.2-3.4,0.7-5,1.4c-7,3-11.9,9.1-15.3,15.8c-1.8,3.5-3.2,7.2-4.6,10.9
			C206.3,83.8,209.2,84.6,209.9,82.8L209.9,82.8z"/>
	</g>
</g>
<g>
	<path class="st0" d="M214.5,99.6c11.6,3.3,23.8,4.3,35.8,3c0.8-0.1,1.6-0.2,2.3-0.6c1.5-0.9,1.9-2.8,2.1-4.5"/>
	<g>
		<path class="st0" d="M214.1,101c7.8,2.2,15.9,3.4,24.1,3.6c4,0.1,8.1-0.1,12.1-0.5c1.7-0.2,3.2-0.5,4.3-1.9c1-1.2,1.3-2.8,1.5-4.2
			c0.3-1.9-2.6-2.7-2.9-0.8c-0.2,1.1-0.3,2.8-1.3,3.5c-0.6,0.4-1.4,0.4-2.1,0.5c-0.9,0.1-1.9,0.2-2.8,0.2c-3.5,0.3-7.1,0.3-10.7,0.2
			c-7.2-0.3-14.4-1.5-21.4-3.4C213.1,97.6,212.3,100.5,214.1,101L214.1,101z"/>
	</g>
</g>
<g>
	<path class="st2" d="M148.5,188.5c-1-3.1-2.9-5.7-5-8.1c-2.5-2.9-5.5-5.7-9.3-6.6c-5.8-1.3-11.6,2.2-16.4,5.9
		c-13.7,10.5-26.1,22.9-36.5,36.7c0.2-0.1,0.5-0.2,0.7-0.3c0.1-0.3,0.2-0.6,0.4-0.8c0.5-0.6,1.1-1.1,1.6-1.6
		c0.1-0.1,0.2-0.2,0.4-0.4c0.2-0.3,0.3-0.5,0.6-0.7c0.1-0.1,0.1-0.3,0.2-0.4c0.2-0.3,0.4-0.5,0.7-0.6c0,0,0,0,0-0.1c0,0,0,0,0.1-0.1
		c0,0,0-0.1,0-0.1c0.2-0.5,0.6-1,1-1.3c0.3-0.3,0.6-0.5,0.9-0.7c0,0,0-0.1,0-0.1c0-0.1,0.1-0.1,0.1-0.2c0,0,0,0,0.1-0.1
		c0.1-0.1,0.2-0.2,0.3-0.2c0,0,0,0,0,0c0.1,0,0.1,0,0.2,0c0,0,0,0,0.1,0c0.1,0,0.1,0,0.2,0c0.1,0,0.1,0,0.2,0.1
		c0.1,0,0.1,0.1,0.2,0.2c0,0,0,0.1,0.1,0.1c0,0,0,0,0,0.1l5.4-7.7c0.1,0.2,0.2,0.4,0.2,0.7c1.3-1.6,3.8-2.6,6.7-3.2l0.1,0
		c0.1-0.1,0.2-0.1,0.3-0.1c0.3-0.3,0.9-0.5,1.4-0.5c1.5-0.6,3.2-0.8,4.9-0.8c1.2,0,2.5,0.3,3.7,0.8c0.3,0,0.6,0.1,0.8,0.2
		c0.4,0.2,0.8,0.5,1.2,0.7c0,0,0.1,0.1,0.1,0.1c0,0,0,0,0.1,0c0.1,0,0.2,0.1,0.2,0.1c0,0,0,0.1,0.1,0.1c0.3,0.2,0.6,0.4,0.9,0.7
		c0.5,0.4,0.9,0.8,1.3,1.2c0.3,0.3,0.6,0.6,0.8,1c0,0,0,0,0,0c0,0,0,0,0,0c0,0,0,0,0,0c0,0,0.1,0.1,0.1,0.1c0,0,0,0,0,0
		c0,0,0,0.1,0,0.1c0,0,0,0,0,0c0,0,0,0,0,0c1.1,1,2,2.2,2.1,3.6c0,0.1,0,0.2,0,0.3c0,0,0.1,0,0.1,0c0,0,0,0.1,0,0.1c0,0,0,0,0,0
		c0.2,0.2,0.4,0.5,0.4,0.8c0,0.3,0,0.5,0,0.8c0,0.1,0.1,0.2,0.1,0.4c0.1,0.1,0.2,0.2,0.2,0.4c0.1,1.1,0.2,2.3,0.2,3.4
		c0,0.9,0,1.9-0.3,2.7c0,0,0.1,0.1,0.1,0.2c0,0.4,0,0.9-0.2,1.3c0,0-0.1,0.1-0.1,0.1c0,0.4,0,0.8,0,1.1c0.1,2.2,0.1,4.4-0.4,6.1
		c0.1,0.1,0.1,0.1,0.2,0.2c0.1,0.1,0.1,0.2,0.2,0.3c0,0,0,0,0,0c0.3,0.2,0.7,0.5,1,0.7c0,0,0,0,0,0c0,0,0.1,0,0.1,0.1
		c0,0,0.2,0.1,0.3,0.1c0,0,0,0,0,0c0,0,0,0,0,0c0.1,0,0.1,0,0.1,0c0,0,0,0,0,0c0.2,0,0.7,0,0.9,0.2c3.8-0.8,7.1-3.6,10.2-5.9
		c0.8-0.6,1.8-0.9,2.8-1c0,0,0-0.1,0.1-0.1c0.6-0.6,1.2-1.1,1.9-1.6c0.6-0.4,1.2-0.8,1.8-1.2c0,0,0-0.1,0-0.1c0,0,0.1-0.1,0.1-0.1
		c0,0,0,0,0,0c0.1,0,0.1-0.1,0.1-0.1c0.1-0.1,0.1-0.1,0.2-0.2c0,0,0,0,0.1,0c0.1-0.1,0.3-0.2,0.4-0.3c0.5-0.8,1-1.7,1.3-2.6
		c0.1-0.3,0.6-0.5,0.9-0.6c0.3-0.1,0.7-0.1,1.1-0.1c0-0.1,0.1-0.2,0.1-0.2c0,0,0.1,0,0.1-0.1c0.1,0,0.1,0,0.2,0.1
		c0.1,0,0.1,0.1,0.2,0.2c0,0,0,0.1,0,0.1c0.1,0,0.2,0,0.2,0c0.8-2.1,1.5-4.2,2.2-6.3C148.5,199.9,150.2,194,148.5,188.5z"/>
	<g>
		<path class="st2" d="M149.7,187.4c-1.4-3.7-4-6.8-6.7-9.6c-2.7-2.7-5.9-5-9.7-5.6c-4-0.5-7.8,0.8-11.2,2.8c-3.4,2-6.5,4.5-9.6,7
			c-3.1,2.5-6,5-8.9,7.7c-5.8,5.3-11.2,10.9-16.2,16.8c-10.1,11.8-18.9,24.9-26,38.8c-0.9,1.7-1.7,3.5-2.5,5.2
			c-0.4,0.8-0.1,1.5,0.5,1.9c0-0.1,0-0.2,0-0.3c0,0,0,0,0,0c-0.2-0.3-0.3-0.8-0.1-1.1c0.5-1.6,1.2-3.1,2-4.5
			c0.7-1.3,1.4-2.5,2.4-3.6c0-0.2,0-0.3,0.1-0.4c0,0,0,0,0,0c0-0.1,0-0.1,0-0.2c0-0.1,0.1-0.1,0.1-0.2c0,0,0,0,0,0c0,0,0.1,0,0.1,0
			c0-0.1,0-0.2,0-0.3c0.2-0.6,0.5-1.2,0.9-1.7c0.2-0.3,0.4-0.5,0.7-0.8V239c0-0.1,0-0.2,0.1-0.3c0,0,0.1-0.1,0.1-0.1
			c0.1-0.1,0.1-0.1,0.2-0.1c0.3-0.5,0.5-1,0.8-1.5c0.1-0.1,0.2-0.2,0.2-0.3c0-0.1-0.1-0.2,0-0.3c0.2-0.4,0.4-0.7,0.7-1.1
			c0.1-0.1,0.2-0.2,0.4-0.3c0.7-1.3,1.3-2.6,2.3-3.5c0,0,0,0,0,0c0-0.1,0.1-0.3,0.1-0.4c0.2-0.1,0.3-0.3,0.4-0.4c0-0.1,0-0.2,0-0.2
			c0.2-0.5,0.4-1.1,0.7-1.6c0.2-0.3,0.3-0.6,0.6-0.8c0.1-0.1,0.2-0.2,0.3-0.3c1-1.6,2.2-3,3.5-4.1c0.1-0.1,0.2-0.1,0.3-0.2
			c0-0.1,0-0.2,0.1-0.2c0.1-0.1,0.2-0.2,0.3-0.2c0,0,0,0,0,0c0.3-0.7,0.8-1.3,1.4-1.8c0.4-1.3,1-2.5,2-3.7c0.7-0.7,1.4-1.2,2.2-1.4
			c0.1-0.3,0.2-0.6,0.4-0.8c0.5-0.6,1.1-1.1,1.6-1.6c0.1-0.1,0.2-0.2,0.4-0.4c0.2-0.3,0.3-0.5,0.6-0.7c0.1-0.1,0.1-0.3,0.2-0.4
			c0.2-0.3,0.4-0.5,0.7-0.6c0,0,0-0.1,0.1-0.1c0,0,0-0.1,0.1-0.1c0,0,0-0.1,0-0.1c0.2-0.5,0.6-1,1-1.3c0.3-0.3,0.6-0.5,0.9-0.7
			c0,0,0-0.1,0-0.1c0-0.1,0.1-0.1,0.1-0.2c0,0,0,0,0.1-0.1c0.1-0.1,0.2-0.2,0.3-0.2c0,0,0,0,0,0c0.1,0,0.1,0,0.2,0c0,0,0,0,0.1,0
			c0.1,0,0.1,0,0.2,0c0.1,0,0.1,0,0.2,0.1c0,0,0,0,0.1,0.1c1.5-1.8,3.1-3.6,4.7-5.3c0.1,0.2,0.2,0.4,0.2,0.7c0.1-1.5,1-2.6,2.5-3.5
			c5.6-5.9,11.5-11.4,17.8-16.5c2.9-2.4,5.9-4.8,9.2-6.7c3.2-1.8,6.9-3.2,10.5-2.2c3.4,0.9,6,3.5,8.3,6.1c2.5,2.9,4.7,6.1,5.2,9.9
			c0.5,4.1-0.7,8.1-1.9,12c-0.9,2.8-1.8,5.6-2.9,8.3c0.2-0.1,0.5-0.1,0.7-0.1c0-0.1,0.1-0.2,0.1-0.2c0,0,0.1,0,0.1-0.1
			c0.1,0,0.1,0,0.2,0.1c0.1,0,0.1,0.1,0.2,0.2c0,0,0,0.1,0,0.1c0.4,0,0.8,0.2,1.1,0.4c0.1,0,0.2,0,0.3,0.1c0.1,0,0.1,0.1,0.2,0.1
			c0.1-0.4,0.3-0.7,0.4-1.1c1.4-3.7,2.7-7.5,3.6-11.3C150.8,195.8,151.2,191.4,149.7,187.4z"/>
	</g>
</g>
<g>
	<path class="st2" d="M84.9,212.7c0.1-0.1,0.1-0.3,0.2-0.4c0.2-0.3,0.4-0.5,0.7-0.6c0,0,0-0.1,0.1-0.1c0,0,0-0.1,0.1-0.1
		c0,0,0-0.1,0-0.1c0.1-0.2,0.2-0.3,0.3-0.5c0-0.9,0.1-1.9,0.1-2.8l-5.7,8.6c0.4-0.2,0.8-0.4,1.2-0.5c0.1-0.3,0.2-0.6,0.4-0.8
		c0.5-0.6,1.1-1.1,1.6-1.6c0.1-0.1,0.2-0.2,0.4-0.4C84.5,213.1,84.7,212.9,84.9,212.7z"/>
	<g>
		<path class="st2" d="M84.9,208.1c-0.1,1.6-0.2,3.2-0.2,4.8c0.1-0.1,0.1-0.2,0.2-0.2c0.1-0.1,0.1-0.3,0.2-0.4
			c0.2-0.3,0.4-0.5,0.7-0.6c0,0,0,0,0-0.1c0,0,0,0,0.1-0.1c0,0,0-0.1,0-0.1c0.2-0.5,0.6-1,1-1.3c0.3-0.2,0.5-0.5,0.8-0.7
			c0-0.4,0-0.9,0.1-1.3C88,206.1,85,206.1,84.9,208.1z"/>
	</g>
</g>
<g>
	<g>
		<path class="st2" d="M173.8,162.9c0.2-0.2,0.4-0.3,0.6-0.4c0.2-0.1,0.3-0.2,0.5-0.3c0.1,0,0.1-0.1,0.2-0.1c0,0,0,0,0,0
			c0.2-0.1,0.3-0.2,0.5-0.3c0.1,0,0.1,0,0.2-0.1c-1,0.3-1.9,0.7-2.7,1.4c-0.2,0.2-0.3,0.4-0.3,0.6c0.3-0.2,0.6-0.4,0.8-0.5
			C173.6,163.1,173.7,163,173.8,162.9z"/>
	</g>
</g>
<g>
	<g>
		<path class="st1" d="M177.2,138.9c0.3-0.7,0.6-1.5,0.9-2.2c0.7-1.6-2-2.7-2.7-1.2c-1.8,3.6-1.2,7.8,0.9,11.1
			c2.2,3.5,5.7,5.9,9,8.1c1.6,1.1,3.1-1.5,1.5-2.6c-2.8-1.9-5.7-3.8-7.6-6.6c-1.7-2.4-2.6-5.8-1.2-8.6c-0.9-0.4-1.8-0.8-2.7-1.2
			c-0.3,0.7-0.6,1.5-0.9,2.2c-0.3,0.8,0.3,1.6,1,1.9C176.2,140.2,176.9,139.7,177.2,138.9L177.2,138.9z"/>
	</g>
</g>
<g>
	<g>
		<path class="st1" d="M206.8,83.2c3.4,6.4,7.4,13.4,14.2,16.8c4,2,8.4,2.2,12.8,1.7c4.8-0.5,9.5-1.3,14.2-2.2
			c5.5-1,11-2.3,16.5-3.8c1.9-0.5,1.1-3.4-0.8-2.9c-8.9,2.4-17.9,4.2-27,5.5c-4.3,0.6-8.8,1.2-12.9-0.4c-3.2-1.2-5.8-3.5-7.9-6.1
			c-2.6-3.1-4.5-6.7-6.4-10.2C208.5,80,205.9,81.5,206.8,83.2L206.8,83.2z"/>
	</g>
</g>
<g>
	<g>
		<path class="st1" d="M89.7,202.8c-11.9,13.2-24.2,26.9-31.3,43.5c-2,4.6-3.5,9.3-4.5,14.2c-0.4,1.9,2.5,2.7,2.9,0.8
			c0.6-3,1.5-6,2.5-8.9c0-0.1,0-0.2,0-0.3l0-0.1c-0.2-0.3-0.3-0.7-0.1-1.1c0.5-1.6,1.2-3.1,2-4.5c0.6-1.2,1.3-2.4,2.2-3.5
			c0-0.1,0.1-0.2,0.1-0.3c0-0.1,0.1-0.2,0.1-0.3c0,0,0,0,0,0c0-0.1,0-0.1,0-0.2c0-0.1,0.1-0.1,0.1-0.2c0,0,0,0,0,0c0,0,0.1,0,0.1,0
			c0-0.1,0-0.2,0-0.3c0.2-0.6,0.5-1.2,0.9-1.7c0.2-0.3,0.4-0.5,0.6-0.7c0,0,0-0.1,0-0.1V239c0-0.1,0-0.2,0.1-0.3
			c0,0,0.1-0.1,0.1-0.1c0,0,0.1-0.1,0.1-0.1c0.4-0.6,0.7-1.3,1.1-1.9c0-0.1,0-0.2,0-0.3c0.2-0.4,0.4-0.7,0.7-1.1
			c0.1-0.1,0.2-0.2,0.4-0.3c0.6-1.3,1.2-2.6,2.3-3.5c0,0,0,0,0,0c0-0.1,0.1-0.3,0.1-0.3c0.1-0.1,0.2-0.2,0.3-0.3
			c0,0,0.1-0.1,0.1-0.1c0-0.1,0-0.1,0-0.2c0.2-0.5,0.4-1.1,0.7-1.6c0.2-0.3,0.3-0.6,0.6-0.8c0.1-0.1,0.2-0.2,0.2-0.2
			c1-1.6,2.2-3,3.5-4.1c0,0,0.1-0.1,0.1-0.1c0-0.1,0.1-0.1,0.1-0.2c0-0.1,0-0.1,0.1-0.2c0.1-0.1,0.1-0.1,0.2-0.2
			c0,0,0.1-0.1,0.1-0.1c0.3-0.6,0.7-1.2,1.3-1.6c0,0,0.1-0.1,0.1-0.1c0.4-1.3,1-2.5,2-3.6c0.7-0.7,1.4-1.2,2.1-1.4
			c0,0,0.1-0.1,0.1-0.1c0.1-0.3,0.2-0.5,0.4-0.7c0.5-0.6,1.1-1.1,1.6-1.6c0.2-0.2,0.4-0.5,0.6-0.7c0.1-0.1,0.2-0.2,0.3-0.3
			c0,0,0,0,0.1-0.1c0.1-0.1,0.1-0.3,0.2-0.4c0.2-0.3,0.4-0.5,0.7-0.6c0.1-0.1,0.1-0.1,0.2-0.2c0,0,0-0.1,0-0.1c0.2-0.5,0.6-1,1-1.3
			c0.2-0.2,0.5-0.4,0.7-0.6c0.1-0.1,0.1-0.1,0.2-0.2c0,0,0,0,0,0c0-0.1,0.1-0.1,0.1-0.2c0,0,0,0,0.1-0.1c0,0,0.1-0.1,0.1-0.1
			c1.2-1.3,2.4-2.7,3.6-4C93.1,203.5,91,201.3,89.7,202.8z"/>
	</g>
</g>
<g>
	<g>
		<path class="st3" d="M179.7,230.8c-5.9,0.7-11.5,2.9-17,5.1c-1.8,0.7-1,3.6,0.8,2.9c2.7-1.1,5.5-1.9,8.3-2.6
			c2.9-0.6,5.7-1.4,8.4,0.1c4.7,2.6,9,6.1,12.7,10c1.3,1.4,3.5-0.7,2.1-2.1c-4-4.2-8.8-8.3-14-10.9c-2.9-1.4-5.8-0.9-8.8-0.2
			c-3.2,0.7-6.4,1.6-9.5,2.8c0.3,1,0.5,1.9,0.8,2.9c5.2-2.1,10.5-4.3,16.2-5C181.6,233.5,181.6,230.5,179.7,230.8L179.7,230.8z"/>
	</g>
</g>
<g>
	<g>
		<path class="st3" d="M103.2,297.7c-1.3,1-2.7,2-4,3c-0.3,0.2-0.7,0.5-1,0.7c-0.1,0-1,0.6-1,0.7l0.4,0l-0.3-0.3
			c-0.3-0.2-0.5-0.5-0.8-0.7c-2-1.9-3.4-4.2-4.2-6.9c-0.6-1.8-3.5-1.1-2.9,0.8c1,3.3,2.9,6.3,5.4,8.6c0.7,0.6,1.4,1.3,2.3,1.4
			c1.1,0.1,1.9-0.5,2.8-1.1c1.6-1.2,3.3-2.4,4.9-3.6c0.6-0.5,1-1.3,0.5-2C104.9,297.6,103.9,297.2,103.2,297.7L103.2,297.7z"/>
	</g>
</g>
<g>
	<g>
		<path class="st3" d="M179.5,259c-5.2-1.2-10,1.3-14.6,3.4c-5,2.3-10,4.6-14.9,6.8c-1.8,0.8-0.2,3.4,1.5,2.6
			c4.5-2.1,9.1-4.1,13.6-6.2c4.1-1.9,8.9-4.8,13.6-3.7C180.6,262.4,181.4,259.5,179.5,259L179.5,259z"/>
	</g>
</g>
<g>
	<path class="st3" d="M90.4,204.5c8.2-7.8,16.4-15.6,24.6-23.5c4.1-3.9,8.9-8.1,14.6-7.8c4.4,0.2,8.3,3.2,11.2,6.5
		c3.5,3.9,6.2,8.4,8.1,13.3c0.9,2.3,1.5,4.8,1,7.1c-0.5,2.3-2,4.2-3.6,6c-6.8,8-14.6,16-24.8,18.3c-0.7-2.7,0.1-5.5,0.5-8.2
		c0.6-4.1,0.2-8.4-1.7-12.1s-5.2-6.7-9.3-7.7c-4.1-1-8.5,0.1-12.2,2.2s-6.8,5-9.8,8c-0.2,0.2-0.4,0.5-0.4,0.7s0.6,0.3,0.6,0"/>
	<g>
		<path class="st3" d="M149.9,191.4c-1.6-3.9-3.7-7.5-6.4-10.9c-2.5-3.1-5.4-6-9.1-7.6c-3.7-1.6-7.6-1.5-11.2,0.2
			c-3.7,1.7-6.7,4.5-9.6,7.3c-8.1,7.7-16.2,15.4-24.3,23.1c-0.4,0.3-0.5,0.7-0.5,1.1c-0.5,0.4-0.9,0.9-1.3,1.4
			c-0.8,1.3-0.1,2.4,0.9,2.8c0,0,0,0,0,0c0.1,0,0.1,0,0.2,0c0,0,0,0,0.1,0c0.1,0,0.1,0,0.2,0c0.1,0,0.1,0,0.2,0.1c0,0,0,0,0,0
			c0.6,0,1.2-0.4,1.6-1.2c0.1-0.3,0.1-0.5,0.1-0.7c0.3-0.3,0.6-0.6,0.9-0.9c0.7-0.7,1.5-1.4,2.3-2.1c0.1-0.1,0.1-0.1,0.2-0.2
			c0.5-2.5,3.6-4.1,7.4-4.9c0.2-0.1,0.4-0.2,0.6-0.2c0.3-0.3,0.8-0.4,1.2-0.4c0.2-0.1,0.4-0.1,0.6-0.2c1.2-0.4,2.5-0.6,3.9-0.6
			c0,0,0,0,0.1,0c0.2,0,0.3,0,0.5,0c0.1,0,0.2,0,0.3,0c0,0,0.1,0,0.1,0c0,0,0.1,0,0.1,0c0.4,0,0.8,0.1,1.2,0.2c0.1,0,0.2,0,0.2,0
			c0.3,0.1,0.5,0.1,0.7,0.2c0.4,0.1,0.8,0.3,1.2,0.4c0.2,0,0.4,0.1,0.6,0.2c0.4,0.2,0.7,0.4,1.1,0.7c0.1,0.1,0.2,0.2,0.3,0.2
			c0,0,0.1,0,0.1,0.1c0,0,0,0,0,0c0.8,0.5,1.5,1.2,2.2,1.9c0,0,0,0,0.1,0.1c0.2,0.2,0.4,0.4,0.5,0.6c0.1,0.2,0.2,0.3,0.4,0.5
			c0,0,0,0,0.1,0.1c0,0,0,0,0,0c0,0,0,0,0,0c0,0.1,0.1,0.1,0.2,0.2c1.1,1,1.9,2.2,1.9,3.5c0,0.1,0,0.1,0,0.2c0,0.1,0,0.1,0.1,0.2
			c0,0,0,0,0,0c0,0,0,0.1,0,0.1c0,0,0,0,0,0c0,0,0,0,0,0c0.2,0.2,0.4,0.5,0.4,0.8c0,0.2,0,0.4,0,0.6c0,0.2,0.1,0.4,0.1,0.5
			c0.1,0.1,0.2,0.2,0.2,0.4c0.1,0.7,0.1,1.4,0.2,2.1c0,0.1,0,0.3,0,0.4c0,0.2,0,0.4,0,0.6c0,0.1,0,0.2,0,0.3c0,0.8,0,1.6-0.2,2.3
			c0,0.2,0,0.3-0.1,0.5c0,0,0,0.1,0,0.1c0,0.4,0,0.9-0.2,1.3c0,0,0,0,0,0c0,0.1,0,0.2,0,0.3c0,0.3,0,0.6,0,0.8
			c0.1,2.2,0.1,4.4-0.4,6.1c0,0,0,0.1,0,0.1c0,0,0.1,0.1,0.1,0.1c0.1,0.1,0.1,0.2,0.2,0.3c0,0,0,0,0,0c0.3,0.2,0.7,0.5,1,0.7
			c0,0,0,0,0,0c0,0,0.1,0,0.1,0.1c0,0,0.2,0.1,0.3,0.1c0,0,0,0,0,0c0,0,0,0,0,0c0.1,0,0.1,0,0.1,0c0,0,0,0,0,0c0.2,0,0.7,0,0.9,0.2
			c0.6-0.2,1.2-0.3,1.8-0.5c3.1-1.2,5.8-3.5,8.4-5.4c0.8-0.6,1.8-0.9,2.8-1c0,0,0-0.1,0.1-0.1c0.6-0.6,1.2-1.1,1.9-1.6
			c0.4-0.3,0.9-0.7,1.4-1c0.5-0.4,1-0.9,1.4-1.3c0.5-0.8,0.9-1.6,1.2-2.4c0.1-0.3,0.6-0.5,0.9-0.6c0.3-0.1,0.6-0.1,0.9-0.1
			c2.3-2.4,4.6-5,6.4-7.7C152.4,199.9,151.6,195.6,149.9,191.4z M148.2,200.5c-0.6,1.8-1.9,3.3-3.1,4.7c-1.2,1.5-2.5,2.9-3.8,4.3
			c-5.2,5.6-11.2,10.8-18.6,13c-0.1-2,0.5-4.1,0.7-6.1c0.3-2.3,0.4-4.7,0-7c-0.6-4.3-2.6-8.4-5.9-11.3c-3.3-2.9-7.5-4.1-11.9-3.5
			c-1.3,0.2-2.5,0.5-3.7,0.9c3-2.8,5.9-5.7,8.9-8.5c3-2.8,5.9-5.9,9.1-8.4c2.7-2.2,6-4.1,9.6-3.9c3.6,0.2,6.8,2.5,9.2,5
			c2.7,2.8,5,6,6.7,9.4C147.2,192.4,149.5,196.8,148.2,200.5z"/>
	</g>
</g>
<g>
	<g>
		<path class="st1" d="M117,178.8c-13.6,9.4-25.7,20.7-35.9,33.7c-1,1.3,0.3,3,1.5,2.6c0.4-0.4,0.8-0.8,1.2-1.1
			c0.4-0.5,0.9-1,1.3-1.6c0,0,0-0.1,0.1-0.1c0.1-0.2,0.2-0.3,0.4-0.4c0.2-0.3,0.5-0.5,0.7-0.8c0.2-0.3,0.5-0.7,0.8-0.9
			c9.2-10.9,19.8-20.6,31.6-28.7C120.1,180.3,118.6,177.7,117,178.8z"/>
	</g>
</g>
<g>
	<g>
		<path class="st1" d="M149.2,186.2c-1.6-3.9-4-7.4-7.2-10.2c-1.7-1.5-3.5-2.8-5.6-3.6c-2.3-0.8-4.8-0.7-7.1-0.3
			c-4.8,0.8-9.2,3.2-12.7,6.5c-1.4,1.3,0.7,3.5,2.1,2.1c2.7-2.6,6-4.5,9.6-5.4c2-0.5,4.2-0.9,6.2-0.4c2,0.5,3.7,1.7,5.2,3
			c5.6,4.9,8.8,12.1,8.5,19.6c-0.2,4.5-1.7,8.8-4.1,12.5c-0.3,0.5-0.3,1-0.1,1.4c0,0,0,0,0,0c0.1,0,0.1,0.1,0.2,0.2c0,0,0,0.1,0,0.1
			c0.4,0,0.9,0.2,1.1,0.4c0.1,0,0.2,0,0.2,0.1c0.4,0,0.8-0.2,1.1-0.7C151.5,204,152.6,194.4,149.2,186.2z"/>
	</g>
</g>
<g>
	<g>
		<path class="st1" d="M191.1,157.5c4.2,3.6,9.3,6,14.7,6.9c-0.4-0.5-0.7-1-1.1-1.5c-0.2,2.4-0.5,4.9-0.7,7.3
			c-0.1,0.8,0.8,1.5,1.5,1.5c0.9,0,1.4-0.7,1.5-1.5c0.2-2.4,0.5-4.9,0.7-7.3c0.1-0.6-0.5-1.4-1.1-1.5c-4.9-0.7-9.6-2.8-13.4-6.1
			c-0.6-0.5-1.5-0.6-2.1,0C190.6,155.9,190.5,157,191.1,157.5L191.1,157.5z"/>
	</g>
</g>
<g>
	<g>
		<path class="st1" d="M182,157.3c-7.2-0.8-12,5.4-17.5,8.8c-1.6,1-0.1,3.6,1.5,2.6c1.3-0.8,2.6-1.8,3.8-2.8c1-0.9,2.1-1.8,3.2-2.5
			c0.2-0.2,0.5-0.3,0.7-0.5c0.2-0.2,0.4-0.3,0.6-0.4c0.1-0.1,0.2-0.1,0.4-0.2c0.1-0.1,0.2-0.1,0.4-0.2c0,0,0,0,0,0
			c0.2-0.1,0.3-0.2,0.5-0.3c0.1,0,0.2-0.1,0.2-0.1c1.9-1,3.9-1.6,6.2-1.4c0.8,0.1,1.5-0.8,1.5-1.5C183.5,158,182.8,157.4,182,157.3z
			"/>
	</g>
</g>
<g>
	<g>
		<path class="st1" d="M231.9,183.9c2.2-4.3,5.5-7.9,9.6-10.4c1.5-0.9,0.5-3-1.2-2.7c-3.4,0.6-6.3,2.5-8.9,4.7
			c-2.8,2.3-5.3,4.8-7.8,7.4c-5.1,5.3-9.8,11-14,17.1c-1.1,1.6,1.5,3.1,2.6,1.5c4-5.7,8.4-11.1,13.3-16.2c2.3-2.4,4.8-4.8,7.3-7.1
			c2.4-2.1,5.1-4,8.4-4.6c-0.4-0.9-0.8-1.8-1.2-2.7c-4.5,2.8-8.3,6.7-10.7,11.5C228.4,184.1,231,185.7,231.9,183.9L231.9,183.9z"/>
	</g>
</g>
<g>
	<g>
		<path class="st1" d="M231.3,212.8c-1.9,0-3.4-1.1-4.7-2.3c-1.6-1.5-3.1-3.2-4.7-4.8c-1.1-1.1-2.8,0-2.5,1.5
			c0.8,3.8,3.7,6.6,6.8,8.8c3.7,2.7,7.6,5.2,11.4,7.8c1.6,1.1,3.1-1.5,1.5-2.6c-3.6-2.4-7.2-4.8-10.7-7.3c-2.6-1.9-5.3-4.2-6-7.5
			c-0.8,0.5-1.7,1-2.5,1.5c1.7,1.8,3.4,3.7,5.3,5.4c1.8,1.5,3.8,2.7,6.2,2.6C233.2,215.8,233.2,212.8,231.3,212.8L231.3,212.8z"/>
	</g>
</g>
<g>
	<g>
		<path class="st1" d="M233.7,181.8c0,0,0-0.1-0.1-0.1c-0.3-0.6-1-0.9-1.7-0.7c-2.1,0.5-1.5,3.5,0.6,3.3c1-0.1,2.1-0.8,3.1-1.2
			c1.1-0.5,2.2-1,3.3-1.5c4.3-2,8.9-4.3,13.7-4.9c2.1-0.2,4.3,0,6.1,1.1c1.9,1.2,2.6,3.1,2.8,5.2c0.3,5-1,10.2-1.9,15.1
			c-0.3,1.9,2.5,2.7,2.9,0.8c0.9-4.9,2-10,2-15.1c0-4.2-1.9-7.9-6-9.5c-4.3-1.7-9.1-0.4-13.2,1.2c-2.3,0.8-4.5,1.8-6.7,2.8
			c-1.1,0.5-2.2,1-3.3,1.5c-0.5,0.3-1.1,0.5-1.7,0.8c-0.3,0.1-0.5,0.2-0.8,0.4c-0.6,0.1-0.6,0.2,0,0.4c0.2,0.4,0.5,0.9,0.7,1.3
			c0,0,0-0.1,0-0.1c-0.2,0.4-0.3,0.7-0.4,1.1c-0.1,0.1-0.3,0.2-0.4,0.2c-0.6-0.2-1.1-0.5-1.7-0.7c0,0,0,0.1,0.1,0.1
			C232.1,185,234.7,183.5,233.7,181.8L233.7,181.8z"/>
	</g>
</g>
<g>
	<g>
		<path class="st1" d="M282,176.3c0.3,2.6,0.8,5.2,1.7,7.8c0.4,1.2,1,2.5,1.5,3.6c0.5,1,1,2.2,2,2.8c2.4,1.5,4.4-1,5.3-3
			c1.1-2.6,2.2-5.1,3.2-7.7c0.6-1.4,1.1-2.8,1.8-4.2c0.4-0.9,1.3-2.2,2.4-1.9c1.9,0.4,2.7-2.5,0.8-2.9c-3.4-0.7-5.3,2.1-6.5,4.8
			c-1.3,3.1-2.6,6.1-3.8,9.2c-0.3,0.6-0.5,1.3-0.8,1.9c-0.1,0.3-0.5,1.1-0.8,1.1c0.1,0,0.1,0.1,0,0c-0.2-0.2-0.3-0.4-0.4-0.6
			c-0.4-0.7-0.8-1.5-1.1-2.2c-1.2-2.8-2-5.8-2.3-8.8c-0.1-0.8-0.6-1.5-1.5-1.5C282.7,174.8,281.9,175.5,282,176.3L282,176.3z"/>
	</g>
</g>
<g>
	<g>
		<path class="st1" d="M300.5,173.3c1.1,4.3,2.5,8.5,4.3,12.6c0.8,1.9,1.7,3.8,2.7,5.6c0.9,1.6,2.1,3.2,3.8,4
			c1.7,0.8,3.3-1.8,1.5-2.6c-1.5-0.7-2.3-2.1-3.1-3.6c-0.9-1.7-1.8-3.5-2.5-5.3c-1.6-3.7-2.8-7.6-3.8-11.5
			C303,170.7,300.1,171.5,300.5,173.3L300.5,173.3z"/>
	</g>
</g>
<g>
	<g>
		<path class="st1" d="M312.6,175.7c2.4,4.3,5.3,8.2,9.3,11.2c2.1,1.6,4.4,2.7,6.8,3.8c1.2,0.5,2.4,1.2,3.6,0.5
			c1.3-0.8,1.1-2.5,0-3.4c-1.6-1.1-3.1,1.5-1.5,2.6c0,0,0.1,0.1,0.1,0.1c-0.2-0.2-0.4-0.4-0.5-0.5c0,0,0,0.1,0.1,0.1
			c-0.1-0.2-0.1-0.5-0.2-0.8c0-0.1,0-0.2,0-0.2c0.2-0.2,0.4-0.4,0.5-0.5c0.3-0.2,0.1-0.1-0.2-0.2c-0.2-0.1-0.5-0.2-0.7-0.3
			c-0.4-0.2-0.9-0.4-1.3-0.6c-0.9-0.4-1.8-0.9-2.6-1.3c-1.6-0.9-3.1-2-4.4-3.3c-2.6-2.5-4.7-5.5-6.4-8.6
			C314.3,172.5,311.7,174,312.6,175.7L312.6,175.7z"/>
	</g>
</g>
<g>
	<g>
		<path class="st1" d="M362,108.7c-8.9-0.7-17.1-4.8-26-5.5c-1.9-0.2-1.9,2.8,0,3c8.9,0.8,17.1,4.8,26,5.5
			C363.9,111.9,363.9,108.9,362,108.7L362,108.7z"/>
	</g>
</g>
<g>
	<g>
		<path class="st1" d="M341.1,83.4c-6-1.2-12-2.8-17.8-4.5c-1.8-0.6-2.6,2.3-0.8,2.9c5.9,1.8,11.8,3.3,17.8,4.5
			C342.2,86.7,343,83.8,341.1,83.4L341.1,83.4z"/>
	</g>
</g>
<g>
	<g>
		<path class="st1" d="M232.8,97.1c1.9-1.5,3.7-3.2,5-5.2c1.4-2.3,1.7-5,1.8-7.7c0-6.1-0.4-12.2-1.2-18.2c-0.2-1.9-3.2-1.9-3,0
			c0.7,5.6,1.1,11.3,1.2,16.9c0,2.4,0.1,5-1.2,7.2c-1.1,2-3,3.5-4.7,5C229.2,96.2,231.4,98.3,232.8,97.1L232.8,97.1z"/>
	</g>
</g>
<g>
	<g>
		<path class="st1" d="M271.9,50.2c-0.8,4.9-2.1,9.6-3.9,14.2c-0.3,0.8,0.3,1.6,1,1.9c0.9,0.2,1.5-0.3,1.8-1
			c1.9-4.6,3.2-9.3,3.9-14.2c0.1-0.8-0.2-1.6-1-1.9C273,49,272,49.4,271.9,50.2L271.9,50.2z"/>
	</g>
</g>
<g>
	<g>
		<path class="st1" d="M256.6,64.7c-0.9,1.8-1.2,3.9-0.5,5.9c0.2,0.7,1,1.3,1.8,1c0.7-0.2,1.3-1,1-1.9c-0.1-0.4-0.2-0.7-0.2-1.1
			c0,0.1,0,0.3,0,0.4c-0.1-0.5-0.1-1.1,0-1.6c0,0.1,0,0.3,0,0.4c0.1-0.6,0.2-1.1,0.4-1.6c0,0.1-0.1,0.2-0.2,0.4
			c0.1-0.1,0.1-0.3,0.2-0.4c0.4-0.7,0.2-1.7-0.5-2C258,63.8,257,64,256.6,64.7L256.6,64.7z"/>
	</g>
</g>
<g>
	<path class="st1" d="M171,61.5c4.6,7.7,9.2,15.3,13.8,23c1,1.7,2.1,3.6,2.2,5.6c0.1,1.8-0.7,3.6-1.4,5.3
		c-2.8,6.4-5.5,12.8-8.3,19.2c9-0.8,18.1-1.6,27.1-2.5c-4.8-13.5-16.9-23-24.3-35.3"/>
	<g>
		<path class="st1" d="M169.7,62.3c2.5,4.2,5.1,8.5,7.6,12.8c2.4,4,5.1,7.9,7.2,12.1c1.1,2.2,1,4.2,0.1,6.5
			c-0.9,2.2-1.8,4.3-2.8,6.4c-2,4.6-4,9.1-6,13.7c-0.4,0.9,0,2.4,1.3,2.3c9-0.8,18.1-1.6,27.1-2.5c0.9-0.1,1.8-0.9,1.5-1.9
			c-5-13.9-16.9-23.3-24.5-35.7c-1-1.6-3.6-0.1-2.6,1.5c7.3,12.1,19.3,21.4,24.2,35c0.5-0.6,1-1.3,1.5-1.9c-9,0.8-18.1,1.6-27.1,2.5
			c0.4,0.8,0.9,1.5,1.3,2.3c2.1-4.9,4.2-9.8,6.3-14.6c1.8-4.2,4.8-8.8,3-13.5c-0.9-2.3-2.3-4.3-3.5-6.4c-1.3-2.1-2.5-4.2-3.8-6.4
			c-2.7-4.5-5.4-9.1-8.2-13.6C171.3,59.1,168.7,60.6,169.7,62.3L169.7,62.3z"/>
	</g>
</g>
<g>
	<g>
		<path class="st1" d="M106.1,159.3C106.1,159.3,106.1,159.4,106.1,159.3c0.1-0.1,0.2-0.4,0.4-0.6c0,0,0,0-0.1,0.1
			c0.2-0.1,0.4-0.3,0.7-0.4c0.4,0.1,0.8,0.3,1.2,0.5c0.1,0.2,0.1,0.5,0.2,0.8c0,0.2-0.2,0.3,0,0.2c0.1,0,0.2-0.2,0.3-0.3
			c0.2-0.2,0.5-0.5,0.7-0.7c0.5-0.5,1-1,1.4-1.4c1-1,2-1.9,3.1-2.7c2.1-1.7,4.3-3.2,6.6-4.5c1.7-1,0.2-3.6-1.5-2.6
			c-3.3,1.9-6.3,4.2-9.2,6.7c-0.7,0.6-1.3,1.2-2,1.9c-0.7,0.7-1.5,1.4-2.1,2.2c-0.6,0.9-0.6,2.2,0.4,2.9c1.1,0.7,2.3,0.1,2.7-1
			c0.3-0.8-0.3-1.6-1-1.9C107.1,158,106.4,158.5,106.1,159.3L106.1,159.3z"/>
	</g>
</g>
<g>
	<g>
		<path class="st1" d="M113.8,139c1.6-0.6,3.2-1.1,4.7-1.7c0.4-0.1,0.7-0.3,0.9-0.7c0.2-0.3,0.3-0.8,0.2-1.2c-0.2-0.7-1-1.3-1.8-1
			c-1.6,0.6-3.2,1.1-4.7,1.7c-0.4,0.1-0.7,0.3-0.9,0.7c-0.2,0.3-0.3,0.8-0.2,1.2C112.2,138.6,113,139.2,113.8,139L113.8,139z"/>
	</g>
</g>
<g>
	<path class="st1" d="M121.9,131.9C110,110.3,86.4,95.6,61.7,94.5c-6.4-0.3-13.1,0.2-19-2.1c11.9,2.7,22.9,8,33.8,13.3
		c12.4,6,25.6,12.8,32,25c0.8,1.4,1.5,3,2.8,4c3.2,2.4,7.6,0.1,10.8-2.2"/>
	<g>
		<path class="st1" d="M123.2,131.1c-11.6-20.9-33.7-35.3-57.4-37.8c-7.6-0.8-15.5,0.4-22.7-2.4c-0.3,1-0.5,1.9-0.8,2.9
			c13.5,3.1,26,9.4,38.3,15.6c10.1,5.1,20.7,11.2,26.3,21.5c1.6,2.9,3,5.9,6.7,6.3c3.4,0.4,6.6-1.5,9.3-3.3c1.6-1.1,0.1-3.7-1.5-2.6
			c-2.2,1.5-5.3,3.7-8.1,2.8c-2.5-0.8-3.5-4.3-4.8-6.4c-3-4.7-7-8.6-11.5-12c-4.6-3.4-9.6-6.2-14.7-8.8c-5.8-3-11.7-5.8-17.7-8.5
			c-7-3.1-14.2-5.9-21.7-7.6c-1.9-0.4-2.6,2.2-0.8,2.9c6.5,2.5,13.5,1.8,20.4,2.2c5.8,0.3,11.5,1.5,17.1,3.2
			c11,3.5,21,9.7,29.2,17.8c4.6,4.6,8.6,9.8,11.7,15.5C121.6,134.3,124.2,132.8,123.2,131.1L123.2,131.1z"/>
	</g>
</g>
<g>
	<g>
		<path class="st1" d="M74.8,194c3.4-3.2,7.3-5.8,11.4-8c0.7-0.4,0.9-1.4,0.5-2c-0.4-0.7-1.3-0.9-2-0.5c-4.4,2.2-8.4,5.1-12,8.4
			C71.2,193.1,73.3,195.3,74.8,194L74.8,194z"/>
	</g>
</g>
<g>
	<g>
		<path class="st1" d="M67,179c1,5,2.8,9.9,5.5,14.3c1,1.7,3.6,0.1,2.6-1.5c-2.5-4.2-4.2-8.8-5.2-13.6c-0.2-0.8-1.1-1.2-1.8-1
			C67.2,177.4,66.8,178.2,67,179L67,179z"/>
	</g>
</g>
<g>
	<g>
		<path class="st1" d="M69.7,179.4c2,3.2,4.3,6.3,6.9,9.1c0.5,0.6,1.6,0.6,2.1,0c0.6-0.6,0.6-1.5,0-2.1c-0.6-0.6-1.2-1.3-1.8-2
			c-0.3-0.3-0.6-0.7-0.9-1c-0.2-0.2-0.3-0.4-0.4-0.6c-0.1-0.1-0.1-0.2-0.2-0.2c0.1,0.1-0.1-0.1-0.1-0.1c-1.1-1.5-2.1-3-3.1-4.5
			c-0.4-0.7-1.4-1-2-0.5C69.5,177.8,69.2,178.7,69.7,179.4L69.7,179.4z"/>
	</g>
</g>
<g>
	<g>
		<path class="st1" d="M77.6,183.1c1.1,1.1,2.2,2.3,3.3,3.4c0.3,0.3,0.7,0.4,1.1,0.4c0.4,0,0.8-0.2,1.1-0.4c0.6-0.6,0.6-1.5,0-2.1
			c-1.1-1.1-2.2-2.3-3.3-3.4c-0.3-0.3-0.7-0.4-1.1-0.4c-0.4,0-0.8,0.2-1.1,0.4C77.1,181.6,77,182.5,77.6,183.1L77.6,183.1z"/>
	</g>
</g>
<g>
	<g>
		<path class="st1" d="M37.5,295.3c1.4,1.7,3,3.3,4.7,4.7c0.3,0.3,0.6,0.4,1.1,0.4c0.4,0,0.8-0.2,1.1-0.4c0.3-0.3,0.5-0.7,0.4-1.1
			c0-0.4-0.1-0.8-0.4-1.1c-1.7-1.4-3.3-3-4.7-4.7c-0.2-0.3-0.7-0.4-1.1-0.4c-0.4,0-0.8,0.2-1.1,0.4c-0.3,0.3-0.5,0.7-0.4,1.1
			C37.1,294.6,37.3,294.9,37.5,295.3L37.5,295.3z"/>
	</g>
</g>
<g>
	<g>
		<path class="st1" d="M38,283.4c3.1,3.9,7.3,6.9,11.9,8.8c0.8,0.3,1.7-0.3,1.8-1c0.2-0.9-0.3-1.5-1-1.9c-4.1-1.7-7.8-4.5-10.6-8
			c-0.5-0.6-1.6-0.5-2.1,0C37.4,281.9,37.5,282.8,38,283.4L38,283.4z"/>
	</g>
</g>
<g>
	<g>
		<path class="st1" d="M42.3,277.4c2.8,2.2,5.8,4.4,8.8,6.3c1.5,1,3,1.9,4.5,2.8c1.3,0.8,3.3,2,4.6,0.4c0.5-0.6,0.6-1.5,0-2.1
			c-0.5-0.5-1.6-0.6-2.1,0c0.5-0.6,0.6,0.1,0.2-0.2c-0.2-0.2-0.7-0.4-1-0.6c-0.6-0.3-1.2-0.7-1.8-1c-1.3-0.8-2.6-1.6-3.9-2.4
			c-2.5-1.6-4.9-3.4-7.2-5.2c-0.6-0.5-1.5-0.6-2.1,0C41.8,275.8,41.7,276.8,42.3,277.4L42.3,277.4z"/>
	</g>
</g>
<g>
	<g>
		<path class="st1" d="M51.5,276c3.3,3.2,7.3,5.7,11.6,7.5c0.8,0.3,1.7-0.3,1.8-1c0.2-0.9-0.3-1.5-1-1.9c-3.8-1.5-7.3-3.9-10.2-6.7
			c-0.6-0.6-1.5-0.6-2.1,0S50.9,275.4,51.5,276L51.5,276z"/>
	</g>
</g>
<g>
	<g>
		<path class="st1" d="M59.8,274.6c2.8,2.2,5.7,4,9,5.5c0.7,0.3,1.7,0.2,2-0.5c0.3-0.6,0.2-1.7-0.5-2c-1.5-0.7-3-1.5-4.4-2.3
			c-0.7-0.4-1.4-0.9-2.1-1.4c-0.3-0.2-0.7-0.5-1-0.7c-0.2-0.1-0.3-0.2-0.5-0.4c-0.1-0.1-0.2-0.1-0.1,0c-0.1-0.1-0.2-0.1-0.2-0.2
			c-0.6-0.5-1.5-0.6-2.1,0C59.3,273.1,59.2,274.1,59.8,274.6L59.8,274.6z"/>
	</g>
</g>
<g>
	<g>
		<path class="st1" d="M252.4,178.9c-0.5-1.1-2.2-1.3-2.9-0.4c-0.5,0.6-0.5,1.1-0.2,1.8c1.9,4.5,4.3,8.7,7.2,12.6
			c0.5,0.6,1.3,1,2,0.5c0.6-0.4,1-1.4,0.5-2c-2.9-3.9-5.3-8.1-7.2-12.6c-0.1,0.6-0.2,1.2-0.2,1.8c0,0-0.1,0.1-0.1,0.1
			c-0.2,0.1-0.5,0.1-0.8,0.2c0,0-0.1,0-0.2,0c-0.2-0.1-0.4-0.3-0.7-0.4c0,0-0.1-0.1-0.1-0.1c0.3,0.7,1.4,0.9,2,0.5
			C252.6,180.5,252.7,179.7,252.4,178.9L252.4,178.9z"/>
	</g>
</g>
<g>
	<g>
		<path class="st1" d="M258.8,184.8c1.4,4.1,3,8.1,4.8,12.1c0.8,1.9,1.7,3.8,2.6,5.6c0.8,1.6,1.8,3.1,3.4,4.1c1.6,1,3.1-1.6,1.5-2.6
			c-1.3-0.8-2-2.3-2.6-3.7c-0.9-1.8-1.7-3.6-2.5-5.4c-1.6-3.6-3-7.3-4.3-11C261,182.2,258.1,183,258.8,184.8L258.8,184.8z"/>
	</g>
</g>
<g>
	<g>
		<path class="st1" d="M271.3,199.9c1.8,2.8,3.6,5.5,5.4,8.3c0.9,1.4,1.7,2.7,2.6,4.1c0.5,0.7,1.1,1.3,2,1.3c0.9,0,1.8-0.6,2-1.5
			c0.2-0.8-0.2-1.6-1-1.9c-0.7-0.2-1.7,0.2-1.8,1c0,0,0-0.1,0-0.1c0.2-0.2,0.4-0.4,0.5-0.5c0.6-0.2,0.9-0.1,1,0.2
			c-0.1-0.1-0.2-0.2-0.2-0.4c-0.2-0.3-0.4-0.6-0.6-0.9c-0.3-0.5-0.7-1-1-1.5c-0.7-1.1-1.4-2.2-2.1-3.2c-1.4-2.2-2.8-4.3-4.2-6.5
			C272.8,196.7,270.2,198.2,271.3,199.9L271.3,199.9z"/>
	</g>
</g>
<g>
	<g>
		<path class="st1" d="M279.6,198.6c2.4,3.9,5,7.7,7.8,11.3c0.5,0.6,1.3,1,2,0.5c0.6-0.4,1-1.4,0.5-2c-2.8-3.6-5.4-7.4-7.8-11.3
			C281.2,195.4,278.6,196.9,279.6,198.6L279.6,198.6z"/>
	</g>
</g>
<g>
	<g>
		<path class="st1" d="M290,199.9c3.5,5.2,7.1,10.3,10.8,15.4c0.5,0.6,1.3,1,2,0.5c0.6-0.4,1-1.4,0.5-2c-3.7-5-7.3-10.2-10.8-15.4
			C291.5,196.8,289,198.3,290,199.9L290,199.9z"/>
	</g>
</g>
<g>
	<g>
		<path class="st1" d="M304.9,203c2.3,4.8,5.6,9,9.5,12.5c0.6,0.5,1.5,0.6,2.1,0c0.5-0.5,0.6-1.6,0-2.1c-3.8-3.4-6.8-7.4-9-11.9
			c-0.3-0.7-1.4-0.9-2-0.5C304.7,201.3,304.5,202.2,304.9,203L304.9,203z"/>
	</g>
</g>
<g>
	<g>
		<path class="st1" d="M316.3,204.7c2.5,4.1,5.2,8.1,8.2,11.8c0.5,0.6,1.6,0.5,2.1,0c0.6-0.6,0.5-1.5,0-2.1
			c-2.8-3.6-5.4-7.3-7.8-11.2C317.8,201.5,315.3,203,316.3,204.7L316.3,204.7z"/>
	</g>
</g>
<g>
	<g>
		<path class="st1" d="M326.4,203c1.9,2.6,3.7,5.2,5.6,7.8c0.5,0.6,1.3,1,2,0.5c0.6-0.4,1-1.4,0.5-2c-1.9-2.6-3.7-5.2-5.6-7.8
			c-0.5-0.6-1.3-1-2-0.5C326.3,201.3,325.9,202.3,326.4,203L326.4,203z"/>
	</g>
</g>
<g>
	<g>
		<path class="st1" d="M333.3,200.3c0.4,0.4,0.8,0.8,1.1,1.2c0.1,0.1,0.2,0.2,0.3,0.3c0,0,0.1,0.1,0.1,0.1c0.1,0.2,0,0-0.1-0.1
			c0.2,0.2,0.3,0.5,0.5,0.7c0.6,0.9,1.2,1.8,1.6,2.8c0.2,0.3,0.6,0.6,0.9,0.7c0.4,0.1,0.8,0,1.2-0.1c0.7-0.5,0.9-1.3,0.5-2
			c-1-2.1-2.3-4-4-5.7c-0.6-0.6-1.6-0.6-2.1,0C332.7,198.8,332.7,199.7,333.3,200.3L333.3,200.3z"/>
	</g>
</g>
<g>
	<g>
		<path class="st3" d="M133.4,249.4c1,1.4,2,2.7,3,4.1c0.2,0.3,0.5,0.6,0.9,0.7c0.4,0.1,0.8,0,1.2-0.1c0.3-0.2,0.6-0.5,0.7-0.9
			c0.1-0.4,0.1-0.8-0.2-1.2c-1-1.4-2-2.7-3-4.1c-0.2-0.3-0.5-0.6-0.9-0.7c-0.4-0.1-0.8,0-1.2,0.1c-0.3,0.2-0.6,0.5-0.7,0.9
			C133.1,248.6,133.1,249.1,133.4,249.4L133.4,249.4z"/>
	</g>
</g>
<g>
	<g>
		<path class="st3" d="M140,246c2.2,4.3,5.1,8.3,8.5,11.8c1.3,1.4,3.5-0.7,2.1-2.1c-3.2-3.3-5.9-7-8.1-11.1c-0.4-0.7-1.4-0.9-2-0.5
			C139.8,244.4,139.6,245.3,140,246L140,246z"/>
	</g>
</g>
<g>
	<g>
		<path class="st3" d="M145.8,245.4c2.3,3.5,4.8,6.9,7.6,10.1c0.5,0.6,1.6,0.5,2.1,0c0.6-0.6,0.5-1.5,0-2.1c-2.6-3-4.9-6.2-7.1-9.5
			c-0.4-0.7-1.3-1-2-0.5C145.7,243.8,145.4,244.7,145.8,245.4L145.8,245.4z"/>
	</g>
</g>
<g>
	<g>
		<path class="st3" d="M150.6,242.6c2.5,3.6,5.2,7,8.1,10.2c0.5,0.6,1.6,0.5,2.1,0c0.6-0.6,0.5-1.5,0-2.1c-2.7-3.1-5.3-6.3-7.6-9.6
			c-0.5-0.7-1.3-1-2-0.5C150.5,241,150.2,242,150.6,242.6L150.6,242.6z"/>
	</g>
</g>
<g>
	<g>
		<path class="st3" d="M157.8,240.1c1.9,2.6,3.7,5.2,5.6,7.8c0.5,0.6,1.3,1,2,0.5c0.6-0.4,1-1.4,0.5-2c-1.9-2.6-3.7-5.2-5.6-7.8
			c-0.5-0.6-1.3-1-2-0.5C157.8,238.4,157.4,239.4,157.8,240.1L157.8,240.1z"/>
	</g>
</g>
<g>
	<g>
		<path class="st3" d="M162,238.4c1.3,1.9,2.8,3.6,4.3,5.3c0.5,0.6,1.6,0.6,2.1,0c0.6-0.6,0.6-1.5,0-2.1c-0.7-0.8-1.4-1.6-2.1-2.4
			c-0.2-0.2-0.3-0.4-0.5-0.6c-0.1-0.1-0.2-0.2-0.3-0.3c0,0-0.2-0.2,0,0c0.1,0.2,0,0,0,0c-0.3-0.4-0.7-0.9-1-1.3
			c-0.2-0.3-0.5-0.6-0.9-0.7c-0.4-0.1-0.8,0-1.2,0.1C161.9,236.7,161.5,237.7,162,238.4L162,238.4z"/>
	</g>
</g>
<g>
	<g>
		<path class="st3" d="M212.9,248.8c0.8,1.6,2.4,2.8,4.2,3.2c0.4,0.1,0.8,0,1.2-0.1c0.3-0.2,0.6-0.5,0.7-0.9
			c0.1-0.4,0.1-0.8-0.2-1.2c-0.2-0.3-0.5-0.6-0.9-0.7c-0.3-0.1-0.6-0.1-0.8-0.3c0.1,0,0.2,0.1,0.4,0.1c-0.4-0.2-0.8-0.4-1.1-0.6
			c0.1,0.1,0.2,0.2,0.3,0.2c-0.3-0.3-0.6-0.6-0.9-0.9c0.1,0.1,0.2,0.2,0.2,0.3c-0.2-0.2-0.3-0.5-0.4-0.7c-0.2-0.3-0.5-0.6-0.9-0.7
			c-0.4-0.1-0.8,0-1.2,0.1C212.7,247.2,212.5,248,212.9,248.8L212.9,248.8z"/>
	</g>
</g>
<g>
	<g>
		<path class="st3" d="M215.7,245.8c1.6,1.3,3.2,2.7,4.7,4c0.3,0.3,0.6,0.4,1.1,0.4c0.4,0,0.8-0.2,1.1-0.4c0.5-0.6,0.6-1.6,0-2.1
			c-1.6-1.3-3.2-2.7-4.7-4c-0.3-0.3-0.6-0.4-1.1-0.4c-0.4,0-0.8,0.2-1.1,0.4C215.2,244.2,215.1,245.2,215.7,245.8L215.7,245.8z"/>
	</g>
</g>
<g>
	<g>
		<path class="st3" d="M219.8,242.5c1.9,0,1.9-3,0-3S217.9,242.5,219.8,242.5L219.8,242.5z"/>
	</g>
</g>
<g>
	<g>
		<path class="st3" d="M222.7,238.2c2.6,2.9,5.5,5.5,8.7,7.7c0.6,0.5,1.7,0.1,2-0.5c0.4-0.8,0.2-1.6-0.5-2c-0.4-0.3-0.7-0.5-1.1-0.8
			c-0.2-0.1-0.4-0.3-0.6-0.5c0.1,0.1,0,0,0,0c-0.1-0.1-0.2-0.1-0.3-0.2c-0.7-0.6-1.4-1.2-2.1-1.8c-1.4-1.2-2.7-2.5-3.9-3.9
			c-0.5-0.6-1.6-0.6-2.1,0C222.1,236.7,222.1,237.5,222.7,238.2L222.7,238.2z"/>
	</g>
</g>
<g>
	<g>
		<path class="st3" d="M220.1,233.3c4.6,4.4,9.6,8.4,15,11.8c1.6,1,3.2-1.6,1.5-2.6c-5.2-3.3-10-7.1-14.4-11.3
			C220.9,229.8,218.8,231.9,220.1,233.3L220.1,233.3z"/>
	</g>
</g>
<g>
	<g>
		<path class="st3" d="M218.7,241.4c1.1,1.4,2.3,2.8,3.4,4.2c0.5,0.6,1,1.3,1.8,1.8c0.9,0.5,2.3,0.6,3-0.3c0.3-0.3,0.4-0.6,0.4-1.1
			c0-0.4-0.2-0.8-0.4-1.1c-0.5-0.5-1.6-0.7-2.1,0c0,0-0.2,0.2,0,0c0.1,0,0.5-0.2,0.3-0.2c0.1,0,0.2,0,0.3,0c-0.1,0-0.1,0,0.1,0
			c0.3,0,0,0,0,0c0,0,0.3,0.2,0.1,0c-0.1,0-0.1-0.1-0.2-0.1c-0.2-0.1,0,0,0,0c0,0-0.1-0.1-0.2-0.1c-0.5-0.5-0.9-1.1-1.4-1.7
			c-1-1.2-2-2.4-2.9-3.6c-0.5-0.6-1.6-0.5-2.1,0C218.1,240,218.2,240.8,218.7,241.4L218.7,241.4z"/>
	</g>
</g>
<g>
	<g>
		<path class="st3" d="M227.7,205c-0.7-0.6-1.8-0.3-2.4,0.3c-0.7,0.7-0.7,1.7-0.3,2.5c0.2,0.4,0.5,0.8,0.8,1.1
			c0.3,0.4,0.6,0.9,0.9,1.3c0.6,0.9,1.1,1.8,2,2.4c0.4,0.3,1,0.4,1.5,0.4c0.9,0,1.5-0.6,1.8-1.4c0.2-0.7-0.3-1.7-1-1.9
			c-0.8-0.2-1.6,0.2-1.8,1c0,0,0,0,0,0c0-0.1,0.1-0.2,0.2-0.4c0,0.1-0.1,0.2,0,0c0-0.1,0.1-0.2,0.2-0.2c0.1-0.1,0.2-0.1,0.1-0.1
			c0.1,0,0.2-0.1,0.4-0.1c0,0-0.1,0-0.1,0c0.1,0,0.3,0,0.4,0c-0.1,0-0.1,0-0.2,0c0.1,0,0.3,0,0.4,0c-0.1,0-0.2,0-0.3-0.1
			c0.1,0,0.2,0.1,0.4,0.1c-0.1,0-0.1-0.1-0.2-0.1c-0.1-0.1-0.3-0.3,0,0.1c-0.1-0.1-0.1-0.1-0.2-0.2c-0.2-0.3,0.2,0.3,0,0
			c-0.3-0.4-0.6-0.8-0.9-1.2s-0.6-0.8-0.9-1.2c-0.3-0.4-0.6-0.8-0.8-1.2c0,0.1,0.1,0.2,0.2,0.4c0-0.1-0.1-0.2-0.1-0.3
			c0,0.1,0,0.3,0,0.4c0,0,0-0.1,0-0.2c0,0.1,0,0.3,0,0.4c0,0,0-0.1,0-0.1c0,0.1-0.1,0.2-0.2,0.4c0.1-0.2-0.2,0.2-0.1,0.1
			c0.1-0.1-0.3,0.2-0.1,0.1c-0.1,0-0.2,0.1-0.4,0.1c0,0,0.1,0,0.1,0c-0.1,0-0.3,0-0.4,0c0,0,0.1,0,0.1,0c-0.1,0-0.3,0-0.4,0
			c0,0,0,0,0,0c-0.1,0-0.2-0.1-0.4-0.1c0,0,0.1,0,0.1,0.1c0.3,0.2,0.8,0.2,1.2,0.1c0.3-0.1,0.7-0.4,0.9-0.7c0.2-0.4,0.3-0.8,0.2-1.2
			C228.2,205.5,228,205.3,227.7,205L227.7,205z"/>
	</g>
</g>
<g>
	<g>
		<path class="st3" d="M226.7,203.5c0.5,1.3,1.3,2.5,2.3,3.5s2.2,1.7,3.5,2.3c0.3,0.1,0.9,0,1.2-0.1c0.3-0.2,0.6-0.5,0.7-0.9
			c0.1-0.4,0.1-0.8-0.2-1.2c-0.2-0.4-0.5-0.5-0.9-0.7c0,0,0,0-0.1,0c0.1,0,0.2,0.1,0.4,0.1c-0.7-0.3-1.3-0.6-1.9-1.1
			c0.1,0.1,0.2,0.2,0.3,0.2c-0.6-0.5-1.2-1-1.6-1.6c0.1,0.1,0.2,0.2,0.2,0.3c-0.5-0.6-0.8-1.2-1.1-1.9c0,0.1,0.1,0.2,0.2,0.4
			c0,0,0,0,0-0.1c-0.2-0.4-0.3-0.7-0.7-0.9c-0.3-0.2-0.8-0.3-1.2-0.1s-0.7,0.3-0.9,0.7C226.7,202.7,226.5,203.2,226.7,203.5
			L226.7,203.5z"/>
	</g>
</g>
<g>
	<g>
		<path class="st3" d="M229.8,202.2c1.1,0.9,2.3,1.8,3.4,2.6c0.3,0.2,0.8,0.2,1.2,0.1c0.3-0.1,0.7-0.4,0.9-0.7
			c0.2-0.4,0.3-0.8,0.2-1.2c0-0.1-0.1-0.2-0.2-0.4c-0.1-0.2-0.3-0.4-0.5-0.5c-1.1-0.9-2.3-1.8-3.4-2.6c-0.3-0.2-0.8-0.2-1.2-0.1
			c-0.3,0.1-0.7,0.4-0.9,0.7c-0.2,0.4-0.3,0.8-0.2,1.2c0,0.1,0.1,0.2,0.2,0.4C229.4,201.9,229.6,202.1,229.8,202.2L229.8,202.2z"/>
	</g>
</g>
<g>
	<g>
		<path class="st3" d="M234.3,201c1.5,0.6,3.2,0.9,4.8,0.7c0.4,0,0.8-0.1,1.1-0.4c0.3-0.3,0.5-0.7,0.4-1.1c0-0.8-0.7-1.6-1.5-1.5
			c-0.7,0-1.3,0-2-0.1c0.1,0,0.3,0,0.4,0c-0.8-0.1-1.6-0.3-2.4-0.6c-0.3-0.1-0.9,0-1.2,0.1c-0.3,0.2-0.6,0.5-0.7,0.9
			c-0.1,0.4-0.1,0.8,0.2,1.2C233.6,200.6,233.9,200.8,234.3,201L234.3,201z"/>
	</g>
</g>
<g>
	<g>
		<path class="st3" d="M133.7,245.9c11.6-2.1,23-5.4,34-9.8c1.8-0.7,1-3.6-0.8-2.9c-11,4.4-22.4,7.7-34,9.8
			C131,243.3,131.8,246.2,133.7,245.9L133.7,245.9z"/>
	</g>
</g>
<g>
	<g>
		<path class="st3" d="M68,303.7c3.4,4.6,7.8,8.4,12.9,10.9c0.7,0.3,1.6,0.2,2-0.5c0.4-0.7,0.2-1.7-0.5-2c-4.7-2.3-8.8-5.6-11.8-9.8
			c-0.5-0.6-1.3-1-2-0.5C67.9,302,67.5,303,68,303.7L68,303.7z"/>
	</g>
</g>
<g>
	<g>
		<path class="st3" d="M77.6,304c3.7,4.5,8.6,7.8,14.1,9.7c0.8,0.3,1.6-0.3,1.8-1c0.2-0.8-0.3-1.6-1-1.8c-5-1.7-9.4-4.8-12.8-8.9
			c-0.5-0.6-1.6-0.5-2.1,0C77,302.5,77.1,303.4,77.6,304L77.6,304z"/>
	</g>
</g>
<g>
	<g>
		<path class="st3" d="M84.4,303c3.1,2.8,6.6,5.2,10.3,7.1c0.7,0.4,1.6,0.2,2-0.5c0.4-0.7,0.2-1.7-0.5-2c-3.5-1.8-6.8-4.1-9.7-6.7
			c-0.6-0.5-1.5-0.6-2.1,0C83.9,301.4,83.8,302.4,84.4,303L84.4,303z"/>
	</g>
</g>
<g>
	<g>
		<path class="st3" d="M92.5,302.9c2.5,2.7,6,4.5,9.7,5c0.8,0.1,1.7-0.2,1.8-1c0.2-0.7-0.2-1.7-1-1.8c-0.8-0.1-1.6-0.3-2.4-0.5
			c-0.4-0.1-0.8-0.3-1.2-0.4c-0.1,0-0.3-0.1-0.1,0c-0.1,0-0.2-0.1-0.3-0.1c-0.2-0.1-0.4-0.2-0.6-0.3c-0.7-0.4-1.4-0.8-2.1-1.3
			c0,0-0.2-0.2-0.1-0.1s-0.1-0.1-0.1-0.1c-0.2-0.1-0.3-0.3-0.5-0.4c-0.3-0.3-0.6-0.6-0.9-0.9c-0.5-0.6-1.6-0.6-2.1,0
			C92,301.4,92,302.3,92.5,302.9L92.5,302.9z"/>
	</g>
</g>
<g>
	<g>
		<path class="st3" d="M181.2,70.7c2.2,5.8,4.6,11.6,6.4,17.6c0.9,3,1.3,5.9,1.2,9c-0.1,3.2-0.3,6.3,0.5,9.4
			c0.4,1.9,3.3,1.1,2.9-0.8c-0.7-3.1-0.3-6.4-0.3-9.6c0-3-0.5-6-1.3-8.8c-1.7-6-4.2-11.8-6.4-17.6C183.4,68.1,180.5,68.9,181.2,70.7
			L181.2,70.7z"/>
	</g>
</g>
<g>
	<g>
		<path class="st3" d="M72,101.1c7.2,3.6,14.3,7.4,21.2,11.5c3.3,1.9,6.2,4.1,8.8,6.9c2.5,2.7,4.5,5.6,6.6,8.6
			c1.1,1.6,3.7,0.1,2.6-1.5c-2.1-3.1-4.3-6.1-6.8-8.9c-2.6-2.9-5.6-5.2-8.9-7.2c-7.2-4.3-14.6-8.2-22-12
			C71.8,97.6,70.3,100.2,72,101.1L72,101.1z"/>
	</g>
</g>
<g>
	<g>
		<path class="st3" d="M190.6,160.7c3.6,3.1,7.8,5.5,12.4,6.9c1.8,0.6,2.6-2.3,0.8-2.9c-4-1.2-7.8-3.3-11-6.1
			c-0.6-0.5-1.5-0.6-2.1,0C190,159.1,190,160.2,190.6,160.7L190.6,160.7z"/>
	</g>
</g>
<g>
	<g>
		<path class="st3" d="M181.9,96.9c1.1,4.2,1.9,8.4,2.4,12.7c0.1,0.8,0.6,1.5,1.5,1.5c0.7,0,1.6-0.7,1.5-1.5
			c-0.6-4.6-1.4-9.1-2.5-13.5C184.3,94.2,181.4,95,181.9,96.9L181.9,96.9z"/>
	</g>
</g>
<g>
	<g>
		<path class="st3" d="M193.1,90c0.6,4.7,1.8,9.2,3.5,13.6c0.3,0.8,1,1.3,1.8,1c0.7-0.2,1.3-1.1,1-1.9c-1.6-4.1-2.8-8.4-3.4-12.8
			c-0.1-0.8-0.6-1.5-1.5-1.5C193.9,88.5,193,89.2,193.1,90L193.1,90z"/>
	</g>
</g>
<g>
	<g>
		<path class="st3" d="M100.5,110.3c2.5,3,4.9,6.1,7.4,9.1c2.2,2.8,4.4,5.6,7.3,7.7c0.7,0.5,1.7,0.1,2-0.5c0.4-0.8,0.1-1.6-0.5-2
			c-2.8-2-4.8-4.9-6.9-7.5c-2.4-3-4.8-5.9-7.2-8.9c-0.5-0.6-1.6-0.5-2.1,0C99.9,108.8,100,109.7,100.5,110.3L100.5,110.3z"/>
	</g>
</g>
<g>
	<g>
		<path class="st3" d="M106.3,109.3c3.8,4.2,7.9,8,12.4,11.5c0.6,0.5,1.5,0.6,2.1,0c0.5-0.5,0.6-1.6,0-2.1
			c-4.4-3.5-8.6-7.4-12.4-11.5c-0.5-0.6-1.6-0.5-2.1,0C105.7,107.7,105.8,108.6,106.3,109.3L106.3,109.3z"/>
	</g>
</g>
<g>
	<g>
		<path class="st1" d="M210.9,76.3c0.8,3.8,1.6,7.6,2.4,11.4c0.4,1.9,0.8,3.7,1.2,5.6c0.3,1.5,0.8,3,2.2,3.9
			c1.6,1.1,3.1-1.5,1.5-2.6c-0.4-0.3-0.5-1-0.6-1.4c-0.2-0.7-0.3-1.5-0.5-2.2c-0.4-1.7-0.7-3.5-1.1-5.2c-0.7-3.4-1.5-6.8-2.2-10.2
			C213.4,73.6,210.5,74.4,210.9,76.3L210.9,76.3z"/>
	</g>
</g>
<g>
	<g>
		<path class="st1" d="M214.6,69.5c4.7,9.6,3.8,20.8,8.1,30.5c0.8,1.8,3.4,0.2,2.6-1.5c-4.3-9.7-3.4-20.9-8.1-30.5
			C216.3,66.3,213.7,67.8,214.6,69.5L214.6,69.5z"/>
	</g>
</g>
<g>
	<g>
		<path class="st1" d="M220.9,65.5c1.6,5.9,2.9,11.8,3.9,17.8c0.5,2.9,0.8,5.8,1.2,8.7c0.3,2.4,0.7,4.8,2.5,6.5
			c1.3,1.4,3.5-0.7,2.1-2.1c-1.6-1.6-1.6-4.3-1.8-6.4c-0.3-2.8-0.8-5.7-1.2-8.5c-1-5.7-2.2-11.3-3.8-16.9
			C223.3,62.8,220.4,63.6,220.9,65.5L220.9,65.5z"/>
	</g>
</g>
<g>
	<g>
		<path class="st1" d="M227.5,62.8c2.5,9.8,4.4,19.7,5.8,29.7c0.1,0.8,1.1,1.2,1.8,1c0.9-0.2,1.2-1,1-1.9c-1.4-10-3.3-19.9-5.8-29.7
			C230,60.1,227.1,60.9,227.5,62.8L227.5,62.8z"/>
	</g>
</g>
<g>
	<g>
		<path class="st1" d="M232.6,62.1c0.8,7.8,2.2,15.5,4.2,23c0.5,1.9,3.4,1.1,2.9-0.8c-1.9-7.3-3.3-14.7-4.1-22.2
			C235.4,60.2,232.4,60.2,232.6,62.1L232.6,62.1z"/>
	</g>
</g>
<g>
	<g>
		<path class="st1" d="M236.7,66.5c0.5,3.1,1,6.3,1.5,9.5c0.1,0.8,1.1,1.3,1.8,1c0.8-0.3,1.2-1,1-1.9c-0.5-3.1-1-6.3-1.5-9.5
			c-0.1-0.8-1.1-1.3-1.8-1C236.9,65,236.5,65.7,236.7,66.5L236.7,66.5z"/>
	</g>
</g>
</svg>
