<?xml version="1.0" encoding="utf-8"?>
<!-- Generator: Adobe Illustrator 28.1.0, SVG Export Plug-In . SVG Version: 6.00 Build 0)  -->
<svg version="1.1" id="Layer_1" xmlns="http://www.w3.org/2000/svg" xmlns:xlink="http://www.w3.org/1999/xlink" x="0px" y="0px"
	 viewBox="0 0 441.1 240.7" style="enable-background:new 0 0 441.1 240.7;" xml:space="preserve">
<style type="text/css">
	.st0{fill:#824D00;}
	.st1{fill:#878166;}
	.st2{fill:#AFA475;}
	.st3{fill:#D3C690;}
</style>
<g>
	<path class="st0" d="M359.2,350.4"/>
	<g>
		<path class="st0" d="M359.2,351.9c1.9,0,1.9-3,0-3S357.3,351.9,359.2,351.9L359.2,351.9z"/>
	</g>
</g>
<g>
	<path class="st1" d="M274.7,163c0.6-3.6,1.2-7.2,0.6-10.8s-2.7-7.1-6-8.4c-2.1-0.9-4.5-0.7-6.8-0.6c-6.7,0.4-13.5,0.7-19.8,2.9
		c-6.3,2.2-12.3,6.5-14.8,12.7c-1.2,2.9-1.8,6.3-4.2,8.2c-1.2,0.9-2.6,1.3-4,1.7c-12.8,3.7-25.7,7.4-38.5,11.1
		c-7.3,2.1-14.7,4.2-22.2,5.4c-7.6,1.2-15.4,1.3-23.1,2.1c-9.9,0.9-19.7,2.9-29.2,5.7c-4.2,1.2-8.5,2.7-12.8,2.1
		c-0.4-4.1,3.1-7.4,6.4-9.9c12.1-9.5,24.1-18.9,36.2-28.4c1.1-0.9,2.2-1.7,3.6-2c2.1-0.4,4.2,0.7,6.3,0.6c3.4-0.1,6-3.2,9.2-4.5
		c2-0.8,4.1-0.9,6.2-1c14.5-0.6,29.2-2.2,42.5-7.8c6.9-2.9,13.4-6.9,20.4-9.6c5.2-2,10.8-3.2,16.3-3.9c11.9-1.6,24-1.2,35.8,1.2
		c3.2,0.7,6.5,1.5,9.5,3c6.8,3.4,11.8,10.3,12.9,17.9c0.5,3.3,0.2,6.8-1.6,9.6c-1.7,2.8-4.7,4.5-7.8,5.5c-4.9,1.5-10.4,1.3-15.1-0.7
		"/>
	<g>
		<path class="st1" d="M276.1,163.5c1.1-6.3,2-13.6-2.9-18.7c-2.2-2.2-5.1-3.1-8.2-3.1c-3.5,0-7.1,0.3-10.5,0.6
			c-6.6,0.6-13.4,2-19,5.7c-2.4,1.6-4.6,3.5-6.3,5.7c-1.8,2.3-2.8,4.9-3.8,7.6c-0.4,1.2-0.9,2.5-1.7,3.5c-0.9,1.3-2.3,1.9-3.8,2.3
			c-3.6,1.1-7.2,2.1-10.8,3.1c-7.4,2.1-14.9,4.3-22.3,6.4c-7.2,2.1-14.4,4.3-21.7,5.9c-7.5,1.6-15,2.2-22.6,2.7
			c-8.3,0.6-16.6,1.5-24.7,3.3c-4,0.9-8,1.9-11.9,3c-4,1.2-8,2.5-12.2,2c0.5,0.5,1,1,1.5,1.5c-0.3-3.8,3-6.5,5.6-8.6
			c3.8-3,7.7-6,11.5-9c7.6-6,15.2-11.9,22.8-17.9c1.6-1.2,3.4-3.2,5.5-3.4c2-0.1,4,0.8,6,0.6c3.8-0.4,6.3-3.7,9.9-4.8
			c2.1-0.6,4.4-0.6,6.6-0.7c2.2-0.1,4.4-0.2,6.6-0.4c4.4-0.3,8.8-0.8,13.2-1.5c8.8-1.4,17.4-3.8,25.4-7.7c4-1.9,7.9-4,12-5.9
			s8.4-3.4,12.8-4.4c9-2.1,18.5-2.7,27.7-2.2c4.7,0.2,9.3,0.8,13.9,1.7c4.2,0.8,8.5,1.8,12.1,4c6.1,3.7,10.5,10.6,10.7,17.8
			c0.1,4.1-1.3,7.8-4.9,10c-3.5,2.1-7.7,2.9-11.7,2.5c-2.1-0.2-4.2-0.8-6.2-1.6c-1.8-0.7-2.6,2.2-0.8,2.9c7.5,3,18.3,2.4,23.8-4.3
			c5.2-6.5,2.8-16.4-1.6-22.6c-2.2-3.1-5-5.8-8.4-7.7c-4-2.3-8.7-3.3-13.2-4.1c-9.7-1.8-19.7-2.2-29.5-1.3
			c-9.7,0.9-18.9,3.2-27.7,7.4c-4.3,2-8.5,4.4-12.8,6.3s-8.9,3.4-13.5,4.5c-9.2,2.3-18.7,3.1-28.2,3.6c-2.2,0.1-4.5,0.1-6.7,0.7
			c-2,0.5-3.8,1.7-5.5,2.8c-1.5,1-3.1,2.1-5,2c-2.3,0-4.4-1.1-6.7-0.4c-2.1,0.6-3.8,2.2-5.4,3.5c-2.1,1.6-4.2,3.3-6.3,4.9
			c-4,3.1-8,6.3-12,9.4c-4.1,3.2-8.1,6.4-12.2,9.5c-3.3,2.6-7.3,5.1-9.5,8.8c-1,1.6-1.5,3.5-1.4,5.4c0.1,0.9,0.6,1.4,1.5,1.5
			c3.6,0.4,7.1-0.4,10.5-1.4s6.7-2,10.1-2.8c7.1-1.7,14.3-3,21.6-3.6c7.2-0.7,14.4-0.9,21.6-1.9c7.2-1,14.2-2.9,21.2-4.9
			c7.1-2,14.2-4.1,21.3-6.1c3.6-1,7.1-2,10.7-3.1c3.5-1,7.1-1.9,10.6-3.1c2.8-1,4.7-2.7,5.8-5.3c1.2-2.6,1.8-5.3,3.3-7.8
			c3.1-4.8,8.3-7.9,13.7-9.5c3.8-1.1,7.7-1.7,11.6-2c2-0.2,3.9-0.3,5.9-0.4c1.8-0.1,3.7-0.3,5.4,0.1c3.2,0.6,5.3,3.1,6.2,6.1
			c1.2,3.8,0.5,7.9-0.2,11.8C272.9,164.5,275.8,165.4,276.1,163.5L276.1,163.5z"/>
	</g>
</g>
<g>
	<path class="st1" d="M223.5,199.7c23.2,2.1,48.2,2.3,68-10.1c3.1-1.9,6.1-4.2,8-7.4c0.5-0.9,1-2,0.8-3c-0.4-1.9-2.8-2.6-4.7-2.8
		c-23.6-3-47.1,5.1-68.7,15c-1.5,0.7-3.1,1.5-4.2,2.7c-1.1,1.3-1.7,3.2-0.8,4.7s3.3,1.9,4.2,0.5"/>
	<g>
		<path class="st1" d="M223.5,201.2c23.5,2.1,50.1,2.6,70.5-11.4c3.4-2.3,11.5-9.3,6-13.4c-2.2-1.6-5.3-1.6-7.9-1.9
			c-3.3-0.3-6.6-0.3-9.8-0.2c-13.4,0.5-26.5,3.9-39,8.6c-3.5,1.3-7,2.8-10.5,4.2c-1.8,0.8-3.5,1.5-5.3,2.4c-1.5,0.7-3,1.3-4.3,2.3
			c-2.3,1.7-4.1,5-2.5,7.8c1.3,2.2,4.9,2.9,6.5,0.8c1.2-1.5-0.9-3.6-2.1-2.1c-0.4,0.5-1.2,0.6-1.7,0c-0.7-0.7-0.3-2.1,0.2-2.8
			c1.4-2.1,4.7-3,6.9-4c5.5-2.5,11-4.7,16.7-6.7c11-3.9,22.5-6.8,34.3-7.3c2.9-0.1,5.8-0.1,8.7,0c1.4,0.1,2.8,0.2,4.1,0.3
			c1.2,0.1,2.4,0.2,3.5,0.7c2.6,1.2-0.4,4.5-1.6,5.7c-1.8,1.9-4,3.3-6.2,4.6c-9.1,5.5-19.5,8.4-30,9.6c-12.1,1.4-24.3,0.8-36.3-0.3
			C221.6,198,221.6,201,223.5,201.2L223.5,201.2z"/>
	</g>
</g>
<g>
	<path class="st2" d="M379.3,137.7c0.9,0.3,1.4-1.4,0.6-2s-1.9-0.4-2.8-0.1c-11.4,3.4-21.8,10.2-29.6,19.2c-2.1,2.4-4,5-6.8,6.6
		c-3.7,2.1-8.3,2-12.6,1.8c-7-0.3-13.9-0.6-20.9-0.9c-4.7-0.2-9.5-0.4-14-2c-11.7-4.3-18.2-17.2-29.5-22.3c-2.8-1.3-6-2.1-7.9-4.5
		c-3-3.7-1.7-9.5-4.3-13.5c-2.8-4.2-8.6-4.8-13.6-4.9c-4.8-0.1-9.6-0.3-14.4-0.4c-4.9-0.1-10.6,0.1-13.4,4.1
		c-2.6,3.5-1.9,9-5.1,11.9c-2.5,2.3-6.3,2.1-9.6,1.7c-4.9-0.6-9.8-1.4-14.7-2.2c-14.9-2.5-29.8-4.9-44.7-7.4
		c-2.1-0.3-4.4-0.9-5.5-2.7c-0.9-1.6-0.5-3.5-0.6-5.4c-0.3-6.6-6.8-11.4-7.9-17.9c-0.8-5.1,2-10.3,5.8-13.8s8.6-5.8,13.1-8.5
		c7.6-4.5,14.4-10.1,21.7-15.1c13-8.9,27.2-15.8,41.3-22.6c11.6-5.6,23.4-11.3,36.2-13.5c2.9-0.5,5.9-0.8,8.7,0.2s5.2,3.5,5.2,6.4
		c0,3-2.4,5.4-4.4,7.5c-9.6,10-16,24.8-11.2,37.8c1,2.8,2.7,5.5,5.5,6.6s6,0.2,8.9-0.8c8.7-2.8,17.5-5.7,26.2-8.5
		c3.2-1,6.5-2.2,8.6-4.7c2-2.4,2.7-5.7,2.9-8.9c0.7-9.2-1.3-18.7-5.8-26.8c-0.8-1.5-1.7-3.1-1.1-4.6c0.6-1.5,2.2-2.1,3.7-2.6
		c6.5-2,13.4-2.7,20.2-2.1c1.2,0.1,2.4,0.3,3.3,0.9c2.2,1.5,2,4.9,0.6,7.1s-3.8,3.6-5.8,5.3c-10.2,8.4-11.8,25.3-3.5,35.6
		c1,1.2,2.2,2.4,3.8,2.6s3.1-0.8,4.4-1.8c4.8-3.7,9.1-8,12.7-12.9c2.6,8.2,2.1,17.5-1.5,25.3c-0.7,1.6-1.6,3.1-2.9,4.2
		c-4.2,3.4-10.3,0.5-15.3-1.6c-11-4.6-25.3-3.9-32.8,5.2c3.9,4.4,11,1,16.9,1.6c6.4,0.7,10.9,6.3,16.3,9.8
		c4.9,3.1,10.8,4.5,16.5,5.7c17.2,3.5,35.1,5.8,50.6,14.2c5.1,2.8,10.4,7,10.6,12.9"/>
	<g>
		<path class="st2" d="M379.3,139.2c2.8,0.4,3.2-3.8,1.1-5c-1.1-0.6-2.5-0.4-3.7-0.1c-1.5,0.4-2.9,0.9-4.4,1.5
			c-5.6,2.1-10.8,5-15.6,8.6c-2.4,1.8-4.7,3.8-6.8,5.9s-4,4.4-6,6.7c-2.2,2.4-4.5,4.1-7.7,4.8c-3.1,0.6-6.4,0.4-9.5,0.2
			c-7.1-0.3-14.2-0.6-21.3-0.9c-3.5-0.2-7-0.5-10.3-1.5c-2.5-0.8-4.9-2-7.1-3.5c-8.7-6-14.5-15.4-24.5-19.6c-2.4-1-5.4-1.9-6.9-4.3
			c-1.4-2.3-1.5-5.2-2-7.8c-0.5-2.5-1.4-5-3.4-6.8c-1.8-1.7-4.2-2.6-6.7-3.1c-2.9-0.6-5.8-0.6-8.7-0.7c-3.6-0.1-7.2-0.2-10.8-0.3
			c-5.1-0.1-11.2-0.4-15.1,3.4c-1.8,1.8-2.7,4.2-3.3,6.7c-0.6,2.3-1,5-3,6.5c-2.2,1.7-5.5,1.3-8.1,1c-3.7-0.4-7.3-1-10.9-1.6
			c-14.4-2.3-28.8-4.7-43.2-7.1c-1.7-0.3-3.4-0.5-5.1-0.8c-1.2-0.2-2.6-0.4-3.7-1.1c-1.3-0.9-1.3-2.3-1.3-3.8c0-1.4,0-2.8-0.4-4.2
			c-1.2-5.1-5.3-8.8-7-13.7c-2-5.9,1.4-11.6,5.9-15.3c4.9-4.1,11.1-6.7,16.4-10.3c5.7-3.8,11-8,16.6-11.9
			c5.7-3.9,11.6-7.5,17.7-10.8c5.9-3.2,12-6.2,18-9.2c6.2-3,12.3-6.1,18.7-8.9c6.2-2.7,12.6-5.1,19.2-6.6c3.2-0.7,6.8-1.6,10.1-1.1
			c2.5,0.4,5.4,2,5.8,4.7s-2,5.1-3.7,6.9c-2.1,2.2-4,4.5-5.7,7c-3.2,4.7-5.8,10-7,15.7c-1.2,5.6-1.2,11.5,0.9,16.9
			c0.9,2.5,2.3,5,4.5,6.6c2.6,1.9,5.8,1.9,8.8,1.2c3.4-0.8,6.8-2.1,10.2-3.2s6.8-2.2,10.2-3.3c3.3-1.1,6.7-2.1,10.1-3.3
			c2.7-0.9,5.4-2,7.4-4.1c4.2-4.2,4.3-11.3,3.9-16.9c-0.4-6.5-2-12.9-4.8-18.8c-0.7-1.4-1.6-2.7-2.1-4.2c-0.6-1.7,0.3-2.5,1.8-3.1
			c3.2-1.2,6.7-1.8,10.1-2.2c3.5-0.4,7-0.4,10.5-0.1c1.1,0.1,2.5,0.3,3.1,1.4c0.6,1,0.5,2.2,0.1,3.3c-0.9,2.7-3.8,4.3-5.9,6
			c-1.9,1.6-3.6,3.5-5,5.6c-2.7,4.1-4.1,8.9-4.4,13.8c-0.3,5,0.7,10,3,14.5c1.1,2.2,2.7,4.5,4.7,6c2.9,2.1,5.8,0.8,8.4-1.2
			c4.9-3.8,9.2-8.2,12.8-13.1c-0.9-0.1-1.8-0.2-2.7-0.4c1.8,5.7,2.1,11.9,0.8,17.8c-0.7,2.9-1.6,6-3.2,8.5c-1.5,2.4-4,3.2-6.7,2.8
			c-2.7-0.4-5.3-1.5-7.8-2.6c-2.3-1-4.6-1.8-7-2.3c-4.8-1.1-9.9-1.2-14.7-0.2c-5.2,1.1-10.1,3.7-13.5,7.8c-0.5,0.6-0.6,1.5,0,2.1
			c5.3,5.6,13.7,0.4,20.1,2.5c3.5,1.1,6.3,3.7,9.1,5.9c3.2,2.6,6.5,4.7,10.4,6.1c4.1,1.5,8.4,2.4,12.7,3.2c4.3,0.9,8.6,1.6,12.9,2.5
			c8.7,1.7,17.4,3.6,25.7,6.8c4.3,1.6,8.8,3.5,12.6,6.1c3.4,2.3,6.7,5.5,6.9,9.8c0.1,1.9,3.1,1.9,3,0c-0.5-8.2-8.4-12.9-15.1-16
			c-8.1-3.8-16.8-6.3-25.6-8.2c-8.8-1.9-17.6-3.2-26.3-5.3c-4.3-1-8.5-2.5-12.2-4.9c-3.2-2.1-5.9-4.9-9.2-6.9
			c-3.7-2.3-7.5-3-11.8-2.5c-3.5,0.4-8.4,1.7-11.2-1.3c0,0.7,0,1.4,0,2.1c6.7-8,18.2-8.9,27.6-6.2c5,1.5,10,4.9,15.4,4.5
			c6.5-0.4,9-6.9,10.5-12.3c1.8-6.8,1.6-14-0.5-20.6c-0.4-1.3-2-1.4-2.7-0.4c-2,2.6-4.1,5.1-6.4,7.4c-1.1,1.1-2.3,2.2-3.5,3.2
			s-2.5,2.3-4,3c-2.8,1.3-4.8-2-6-4c-1.2-2.1-2.1-4.3-2.7-6.6c-1.1-4.8-0.8-9.9,0.8-14.5c1.7-4.9,4.8-8.5,8.8-11.6
			c2.1-1.6,4.3-3.5,5-6.2c0.6-2.2,0.2-4.9-1.6-6.5c-2.3-2-6.2-1.8-9-1.8c-3.4,0-6.8,0.3-10.1,0.9c-2.9,0.5-6.4,1-8.8,2.6
			c-2.8,1.8-2.5,4.8-1.2,7.5c1.5,3,2.9,5.9,3.9,9s1.7,6.4,2,9.6c0.3,3.1,0.3,6.3,0,9.4c-0.3,2.9-1.2,5.8-3.5,7.7
			c-2.2,1.9-5.2,2.6-7.8,3.5c-3.5,1.1-7,2.2-10.4,3.4s-7,2.2-10.4,3.4c-3.1,1-6.5,2.6-9.8,2.6c-6.2,0.1-8.2-7.7-8.6-12.6
			c-0.5-5.8,0.9-11.6,3.4-16.8c2.5-5.3,6-9.8,10-14.1c1.8-2,3.6-4.2,3.8-7c0.2-2.7-1.4-5.2-3.5-6.8c-5.2-3.9-12.7-1.8-18.4-0.3
			c-13.1,3.4-25.3,9.8-37.4,15.7c-12.2,6-24.3,12.2-35.4,20C155.3,63,150,67.2,144.3,71c-5.3,3.5-11.2,6.1-16.1,10.1
			c-4.5,3.6-8.2,9.2-7.7,15.2c0.5,5.4,4.2,9.4,6.6,14c0.5,1.1,1,2.2,1.2,3.3c0.3,1.5,0.1,2.9,0.2,4.4c0.2,3,1.9,5,4.7,5.9
			c3,1,6.4,1.2,9.5,1.7c3.6,0.6,7.1,1.2,10.7,1.8c7.2,1.2,14.4,2.4,21.6,3.5c7,1.2,14.1,2.5,21.2,3.2c2.7,0.3,5.5,0.3,8-0.9
			c2.4-1.2,3.7-3.4,4.5-5.8s1-5.1,2.4-7.3c1.4-2.2,3.8-3.1,6.2-3.5c2.7-0.5,5.5-0.3,8.2-0.2c3.6,0.1,7.2,0.2,10.8,0.3
			c4.7,0.1,11.5-0.1,14.2,4.7c1.3,2.4,1.4,5.3,1.9,7.9s1.6,5,3.7,6.7c2.1,1.7,4.8,2.5,7.2,3.6c2.3,1.1,4.5,2.5,6.5,4.1
			c8.2,6.6,14.6,16.1,25.3,18.9c6.6,1.8,13.8,1.5,20.5,1.8c3.7,0.1,7.3,0.3,11,0.5c3.1,0.1,6.2,0.3,9.3-0.1c3-0.4,5.7-1.6,8-3.6
			s4-4.5,6.1-6.7c4.1-4.5,8.8-8.3,14.1-11.4c2.4-1.4,5-2.7,7.5-3.8c1.3-0.5,2.6-1,3.9-1.5c0.7-0.2,1.3-0.5,2-0.6
			c0.3-0.1,0.8-0.1,1.1-0.2c0.1,0,0.2,0,0.3,0c-0.2-0.3-0.1-0.5,0.4-0.7c-0.8-0.1-1.5,0.8-1.5,1.5
			C377.8,138.6,378.5,139.1,379.3,139.2L379.3,139.2z"/>
	</g>
</g>
<g>
	<path class="st2" d="M340.6,60c4.1,4.1,7.7,8.8,10.6,13.8c2.1,3.5,3.8,7.5,3.7,11.6c-0.1,4-2,7.8-3.3,11.6c-1.3,3.9-2.1,8-2.2,12.1
		c0,1.6,0,3.2,1,4.5c1,1.4,2.9,1.9,4.7,2.2c5.9,0.8,11.8-0.6,17.3-2.9c3.3-1.4,6.5-3.2,8.9-5.8c2.7-2.9,4.4-6.5,5.9-10.1
		c9.8-22.8,16.3-48.6,8.7-72.2c-0.6-1.8-1.2-3.5-2.3-5c-2.7-3.6-7.4-5.1-11.8-5.6c-1.2-0.1-2.5-0.2-3.6,0.2
		c-3.9,1.4-3.9,6.8-3.3,10.9c0.8,4.5,1.5,9,2.2,13.6c0.6,3.7,0.6,8.7-3,9.9c-4.4,1.5-7.7-4.5-12.1-5.7c-1.8-0.5-3.8-0.2-5.6-0.9
		c-1.8-0.7-3-2.4-4.4-3.8c-2-2.2-4.5-3.9-7.3-5c-1.1-0.5-2.3-0.8-3.4-0.4c-1.1,0.4-1.8,1.5-2.4,2.6c-1.5,2.9-2.6,6.1-3.2,9.3
		c-0.7,3.4-0.8,6.9,0.4,10.1s3.9,6,7.3,6.5"/>
	<g>
		<path class="st2" d="M339.5,61c3.9,4,7.3,8.3,10.2,13.1c1.4,2.4,2.7,4.9,3.4,7.7c0.7,2.8,0.3,5.6-0.6,8.4c-0.9,2.8-2.2,5.5-3,8.4
			s-1.3,5.8-1.6,8.8c-0.2,2.5-0.3,5.3,1.4,7.4c1.5,1.8,4,2.3,6.3,2.6c5.7,0.6,11.5-0.7,16.8-3c4.9-2.1,9.3-4.9,12.2-9.4
			c3-4.5,4.9-9.9,6.8-15c2.1-5.4,3.9-11,5.4-16.6c2.9-10.9,4.4-22.3,3.4-33.5c-0.5-5.5-1.5-11.1-3.3-16.4c-0.8-2.4-2-4.8-3.9-6.5
			c-1.8-1.6-3.9-2.7-6.2-3.4c-4.1-1.3-10.1-2.4-12.7,2.1c-2.2,4-1,9-0.3,13.2c0.5,3.1,1,6.1,1.5,9.2c0.3,2,0.7,4.2,0.2,6.2
			c-0.4,1.6-1.4,3.2-3.3,3c-1.8-0.2-3.3-1.7-4.7-2.7c-1.6-1.3-3.3-2.6-5.3-3.1c-1.3-0.3-2.6-0.3-3.8-0.5c-1.5-0.2-2.5-0.8-3.6-1.8
			c-1.9-1.9-3.5-3.8-5.7-5.3c-2-1.4-4.9-3.1-7.4-2.7c-2.6,0.3-3.9,2.9-4.9,5.1c-1.2,2.6-2.1,5.3-2.6,8c-1,5.2-0.8,10.9,2.8,15
			c1.5,1.8,3.6,3,5.9,3.5c1.9,0.4,2.7-2.5,0.8-2.9c-5-1-7.1-6.1-7-10.8c0-2.6,0.6-5.2,1.4-7.7c0.4-1.2,0.8-2.5,1.4-3.6
			c0.5-1,0.9-2.3,1.8-3.1c1-1,2.4-0.3,3.5,0.2c1.2,0.5,2.3,1.2,3.3,1.9c2,1.5,3.5,3.5,5.3,5.1c2,1.7,4.1,2,6.6,2.2
			c2.1,0.2,3.7,1.2,5.3,2.4c2.9,2.2,6.3,5.1,10.1,3.1c3.4-1.8,3.7-6.4,3.4-9.8c-0.6-5.4-2-10.7-2.6-16.1c-0.4-3.3-0.3-8.5,4.2-8.4
			c4.3,0.1,9.6,1.6,12.2,5.3c1.4,2.1,2.1,4.7,2.8,7.1c0.7,2.5,1.2,5,1.6,7.6c1.6,10.5,0.7,21.3-1.5,31.7
			c-2.2,10.4-5.8,20.6-10.1,30.4c-2,4.6-4.5,8.8-8.9,11.6c-4.3,2.8-9.6,4.7-14.7,5.2c-2.5,0.3-5.1,0.4-7.6-0.3c-1-0.2-2-0.6-2.6-1.5
			c-0.6-1-0.6-2.3-0.5-3.4c0.2-5.7,1.9-10.9,3.8-16.1c0.9-2.4,1.7-5,1.7-7.6s-0.6-5.2-1.6-7.6c-2-4.7-4.9-9.1-8.1-13.1
			c-1.6-2-3.3-3.9-5.1-5.7C340.3,57.5,338.2,59.6,339.5,61L339.5,61z"/>
	</g>
</g>
<g>
	<path class="st3" d="M49.6,95c0.2-0.7,0.6-1.1,1-1.4c0.6-1.1,1.8-1.9,2.7-2.8c0.9-0.9,1.7-1.8,2.6-2.7c0-0.2,0-0.4,0.1-0.6
		c0.2-0.8,0.4-1.6,0.6-2.3c0-0.3,0.2-0.7,0.4-1c0,0,0,0,0-0.1c0.8-1.9,2.1-3.2,4.5-4.4c3.4-1.6,6.3-0.9,9.5,0.9
		c3.7,2,7.6,3.4,11.3,5.3L221.8,20c-41.2,4.1-80.7,18.2-119.7,32.1c-7.9,2.8-15.7,5.6-23.6,8.5c-2.8,1-5.6,2-8.3,3.5
		c-2.4,1.3-4.6,3-7,4.6c-9.4,6.3-20.6,10-29,17.7c-3.5,3.2-6.4,6.9-9.2,10.7c-6.5,8.4-12.9,16.9-19.4,25.3l47-22.2
		C50.3,99.5,49,97.5,49.6,95z"/>
	<g>
		<path class="st3" d="M51.1,95.4c0.1-0.4,0.4-0.5,0.6-0.7c0.3-0.3,0.4-0.6,0.7-0.9c0.6-0.6,1.2-1.2,1.9-1.8
			c1.2-1.2,2.9-2.5,3.2-4.2c0.5-2.9,1.8-5.3,4.5-6.6c3.7-1.8,6.7-0.1,10,1.6c1.7,0.9,3.5,1.6,5.3,2.4c0.8,0.4,1.7,0.7,2.5,1.1
			s1.8,1.1,2.7,1.1c0.6,0,1.3-0.5,1.9-0.7c1.1-0.5,2.2-1,3.3-1.6c4-1.9,8.1-3.8,12.1-5.7c5.9-2.8,11.8-5.6,17.8-8.4
			c7-3.3,14.1-6.7,21.1-10c7.5-3.6,15.1-7.1,22.6-10.7c7.2-3.4,14.5-6.9,21.7-10.3c6.3-3,12.6-6,18.9-8.9c4.6-2.2,9.2-4.3,13.8-6.5
			c2.2-1,4.5-2,6.7-3.1c0.1,0,0.2-0.1,0.3-0.1c1.3-0.6,0.7-2.9-0.8-2.8c-16.3,1.6-32.4,4.8-48.3,8.9c-15.9,4.1-31.5,9.2-47,14.5
			C110.8,47.5,95,53.2,79.3,58.9c-3.7,1.3-7.4,2.6-10.8,4.6c-3.3,2-6.3,4.4-9.7,6.3c-6.2,3.6-12.7,6.5-18.7,10.4c-3,2-6,4.2-8.5,6.8
			c-2.8,2.8-5.2,5.9-7.6,9c-5.2,6.8-10.5,13.7-15.7,20.5c-1.3,1.7-2.6,3.4-3.9,5.1c-1,1.3,0.9,2.6,2,2c5.3-2.5,10.6-5,15.9-7.5
			c8.4-4,16.9-8,25.3-12c2-0.9,3.9-1.8,5.9-2.8c1.2-0.6,0.8-2.4-0.4-2.7C51.4,98.2,50.7,97,51.1,95.4c0.5-1.9-2.4-2.7-2.9-0.8
			c-0.8,3.2,0.9,6,4,6.9c-0.1-0.9-0.2-1.8-0.4-2.7c-5.3,2.5-10.6,5-15.9,7.5c-8.4,4-16.9,8-25.3,12c-2,0.9-3.9,1.8-5.9,2.8
			c0.7,0.7,1.4,1.4,2,2c5.1-6.7,10.3-13.4,15.5-20.1c4.7-6.2,9.3-12.8,15.5-17.6C43.3,81,49.9,78,56.2,74.6c3.2-1.7,6.3-3.5,9.2-5.6
			c3.2-2.2,6.5-4.3,10.2-5.7c7.7-3,15.5-5.6,23.3-8.4c7.6-2.7,15.3-5.5,23-8.2c15.3-5.4,30.7-10.5,46.4-14.8
			c15.5-4.3,31.3-7.7,47.3-9.7c2-0.2,4.1-0.5,6.1-0.7c-0.2-0.9-0.5-1.9-0.8-2.8c-4.6,2.2-9.3,4.4-13.9,6.6
			c-11.1,5.2-22.1,10.5-33.2,15.7c-13.4,6.4-26.9,12.7-40.3,19.1c-11.6,5.5-23.1,10.9-34.7,16.4c-3.8,1.8-7.7,3.6-11.5,5.5
			c-1.8,0.8-3.7,1.6-5.4,2.5c-0.1,0-0.2,0.1-0.2,0.1c0.5,0,1,0,1.5,0c-3.1-1.5-6.4-2.8-9.5-4.3c-2.8-1.4-5.6-3.1-8.9-3
			c-5.7,0.3-10.2,5.1-10.5,10.7c0.1-0.4,0.3-0.7,0.4-1.1c-1.3,1.4-2.6,2.7-4,4.1c-0.4,0.4-1,1.2-1.2,1.4c-0.6,0.7-1.1,1.1-1.5,2.1
			C47.5,96.5,50.4,97.2,51.1,95.4z"/>
	</g>
</g>
<g>
	<g>
		<path class="st3" d="M427.7,33.6c-4.4-5.7-10.2-10-16.4-13.7C386,5,355.3,2.5,326,4s-58.5,6.7-87.8,5.9
			c-6.6-0.2-13.3-0.7-19.7,0.8c-6.4,1.4-12.8,5.2-15.5,11.2L79.4,84.5c1.2,0.5,2.3,1,3.5,1.6c0.3,0.1,0.6,0.3,0.9,0.5
			c1.1,0.2,2.2,0.6,2.9,1.5c0.5,0.6,0.7,1.3,0.7,2c0.2,0.4,0.3,0.8,0.3,1.1c0.1,1.4-1.2,2.4-2.5,2.5c-0.1,0-0.2,0-0.4,0
			c-1.4,0.8-3.5,0.5-5,0.5c-0.6,0-1.2,0-1.8,0c-1.5,0.1-3,0.2-4.6,0.3c-3.2,0.3-6.3,0.9-9.2,1.8c-3.2,1-7.5,4.4-11,3.9
			c-1-0.1-1.9-0.5-2.5-1.1L7.1,121.2c-1.3-0.9-2.7,1.5-1.8,2.7c0.9,1.3,2.6,1.4,4.2,1.5c18.7,0.7,38.9,1,54.1-10
			c3.4-2.5,6.6-5.5,10.5-7.2c5.7-2.3,12.2-1.3,18.2-0.2c13.1,2.4,26.2,4.7,39.3,7.1c11.3,2,22.6,4.1,33.9,6
			c14.7,2.5,29.5,4.8,44.3,6.9c9.3,1.3,19,2.5,28.1,0.1c8-2.2,15-7,22.5-10.3c15.4-6.7,33-6.7,49.5-3.2
			c16.4,3.5,31.9,10.4,47.3,17.2c5.7,2.5,11.7,5.2,16,9.8c4.5,4.7,6.8,11,9.6,16.9s6.4,11.9,12.3,14.7c5.9,2.8,14.3,0.9,16.4-5.3
			c1.4-4-0.2-8.4-1.7-12.3c-9.6-25.7-13.2-57.3,4.3-78.5c5.8,4.3,12.4,7.7,19.3,10C438.8,69.3,439.1,48.3,427.7,33.6z M323.6,56.8
			c0,0.9-0.3,1.8-1,2.8c-2.8,3.7-2.2,10.7-2.5,15.1c-0.3,3.9-0.7,7.8-1.1,11.6c-0.2,2.1-1.3,6.6-0.9,7.8c1.3,3.5-2,6.6-5.2,6.8
			c-4.4,0.3-9,1.2-13.1-0.9c-9.2,1.7-17.9,0-26.9-2.2c-5-1.2-9.9-1.1-14.9-2c-1-0.2-2.1-0.4-3.1-0.7c-0.6,0.2-1.2,0.3-1.8,0.3
			c-3.9-0.1-7.7-1.2-10.6-3.9c-2.6-2.5-4.8-6.7-3.8-10.3c0.2-0.8,0.6-1.4,1.1-2c0.1-2.5,0.4-5.1,0-7.6c-0.4-2.3-1.4-4.3-2.4-6.4
			c-0.1-0.2-0.2-0.4-0.2-0.6c-1.7-2.1-3.2-4.4-4.7-6.6c-1.6-2.4-2.9-4.6-2.7-7.6c0.1-2.4,1.6-4.4,3.7-5.1c0.7-0.9,1.5-1.7,2.4-2.3
			c3.4-2.5,6.9-5.1,10.5-7.5c0.3-1.2,1.1-2.2,2.6-2.9c4.4-2,8.7-4.4,13.3-5.7c4.9-1.5,10.4-1.9,15.5-2.3c4.8-0.4,10.1-0.5,14.7,1.2
			c4.7,1.7,8.3,5.3,11.8,8.7c0.8,0.8,1.3,1.6,1.5,2.5c0.1,0.1,0.1,0.1,0.2,0.2c2.2,2.5,5.1,4.2,7.3,6.6c1.1,1.2,2,2.5,3,3.8
			c0.1,0.1,0.6,0.6,1,1.1C322.2,46.5,326.4,52.9,323.6,56.8z M401,25.6L401,25.6c-0.2,0.1-0.4,0.1-0.6,0c-0.1,0-0.3,0-0.4-0.1
			c-0.1,0-0.2,0-0.4,0h-0.1c-0.2,1.3-1,2.4-2.7,2.7c-0.3,0.1-0.6,0.1-0.9,0.2l0,0c-0.1,0.1-0.2,0.3-0.3,0.4
			c-0.2,0.6-0.5,1.1-0.9,1.5c-0.1,0.1-0.3,0.3-0.4,0.4c0,2.6-1,5.2-2.8,7.2c-0.4,0.4-0.8,0.8-1.2,1.2v0.1c0.2,1.7-0.7,4-1.2,5.7
			c-1,3.9-2.4,7.7-3.2,11.6c-0.2,0.8-0.4,1.6-0.6,2.4c0.6,1,0.7,2.2-0.1,3.5c-1.9,3.3-3.2,6.7-4.2,10.3c-0.5,1.6-1.6,2.4-2.9,2.6
			c-1.1,1.5-2.3,3-3.3,4.7c-1.8,2.9-3,6.3-3.8,9.7c0.3,0.8,0.4,1.6,0.1,2.4c-0.8,2.1-0.3,4.2-0.1,6.3c0.2,2.2-0.1,4.5-1.2,6.5
			c-0.9,1.6-2.1,2.5-3.4,2.8c-0.7,0.3-1.4,0.4-2.2,0.2c-2.1-0.2-4.3-1.4-6.2-2.7c-0.4-0.3-0.8-0.7-1.1-1.1c-0.3-0.1-0.7-0.3-1-0.5
			c-0.8,0-1.5-0.2-2.2-0.5c-1.8-0.8-3-2.5-4-4.2c-0.8-0.4-1.6-0.8-2.3-1.2c-2-1-4-2-5.8-3.3c-2-1.5-4.1-3.2-5.9-5.2
			c-1.2-0.7-2.2-1.5-3.2-2.3c-1.9-1.6-3.4-3.8-3.5-6.4c0-1,0.4-1.9,1.1-2.6c-0.5-4.3,0.2-9,0.5-13.1c0.2-1.9,0.4-3.8,0.7-5.6
			c0-0.1,0-0.2,0-0.2l0,0c0.2-1.3,0.4-2.5,0.7-3.7c0.1-2.4,0.5-5.1,2-7.1c0.8-2.1,1.7-4.2,2.9-6.2c0.5-0.8,1.1-1.3,1.8-1.5
			c1.1-1.9,2.5-3.7,3.9-5.2c0-0.6,0.2-1.2,0.5-1.7c2.5-3.4,6.5-4.5,10.6-4.4c0.6,0,1,0.1,1.5,0.3c1.4,0.1,3.1,0.7,4.3,0.5
			c1.7-0.2,2.9-1.3,4.3-2.2c2.1-1.3,4.3-2.9,6.7-4c0.3-0.3,0.8-0.6,1.3-0.8c0,0,0.1,0,0.2,0c0.5-0.6,1.2-1.2,2-1.5
			c3.6-1.4,7.7-1.5,11.5-0.9c0,0,0.1,0,0.2,0c0.6-0.2,1.2-0.3,1.9-0.2c2.7,0.4,5.5,0.3,8.3,0.5c1.6,0.1,2.8,1.2,3.3,2.5
			c0.2,0.1,0.4,0.1,0.6,0.2c0.1,0,0.2,0,0.3,0c0.2,0,0.4,0.1,0.5,0.2c0.1,0,0.3,0,0.4,0c0.5,0,0.8,0.4,0.8,0.8
			C401.9,25.2,401.5,25.6,401,25.6z"/>
	</g>
	<g>
		<path class="st3" d="M428.8,32.5c-5.8-7.4-13.8-12.7-22.2-16.9c-8.3-4.2-17.2-7.3-26.3-9.4c-18.8-4.4-38.4-4.7-57.6-3.6
			c-21.8,1.3-43.4,4.5-65.2,5.5c-5.4,0.2-10.9,0.4-16.3,0.3c-5.4-0.1-10.8-0.5-16.2-0.2c-8.3,0.5-17.2,3.3-22,10.6
			c-0.3,0.4-0.6,0.9-0.8,1.4c0.5-0.9-0.8,1.4,0.1,0.3c0,0,0,0-0.1,0c-0.1,0.1-0.3,0.1-0.4,0.2c-0.4,0.3-1,0.5-1.5,0.8
			c-2,1-4.1,2.1-6.1,3.1c-7.1,3.6-14.2,7.2-21.3,10.8c-19.1,9.7-38.2,19.4-57.3,29c-12.1,6.1-24.5,11.9-36.3,18.4
			c-0.2,0.1-0.4,0.2-0.5,0.3c-0.9,0.5-1,2.1,0,2.6c1.6,0.7,3.1,1.6,4.8,2.3c1.3,0.5,2.3,0.7,2.6,2.4c0.2,1.2-0.4,1.6-1.5,1.8
			C81,93,77,92.6,73.2,93c-3.7,0.4-7.5,1-10.9,2.5c-2.7,1.2-7.5,4.8-10.4,2.5c-0.6-0.5-1.2-0.6-1.8-0.2
			c-12.7,6.4-25.4,12.9-38.2,19.3c-1.8,0.9-3.6,1.8-5.4,2.8c0.5,0,1,0,1.5,0c-2.7-1.1-5.2,1.7-4.1,4.4c1.4,3.3,6.6,2.7,9.5,2.8
			c8.7,0.3,17.4,0.3,26-0.9c8.2-1.2,16.3-3.6,23.3-8.2c3.7-2.4,6.9-5.8,10.9-7.7c4.3-2.2,9.3-2,14-1.4c10.3,1.4,20.5,3.6,30.8,5.5
			c10.4,1.9,20.8,3.8,31.1,5.6c20.6,3.7,41.3,7.1,62,9.9c9.6,1.3,19.6,2.3,29-0.8c8.8-3,16.5-8.6,25.3-11.5
			c18.4-6.2,38.3-3.6,56.5,2.1c9.7,3,19,7,28.3,11c8,3.5,17.3,6.6,22.9,13.7c5.3,6.7,7.2,15.5,12.2,22.5c4.2,5.9,10.4,10.3,17.9,9
			c3-0.5,5.9-2,7.8-4.5c2.4-3.2,2.5-7.3,1.5-11c-1-4.1-2.8-8.1-4.1-12.2c-1.2-3.9-2.3-7.9-3.1-11.9c-3.4-15.7-3.9-33.1,3.1-47.9
			c1.7-3.6,3.8-7,6.4-10.1c-0.6,0.1-1.2,0.2-1.8,0.2c6,4.4,12.6,7.8,19.6,10.1c0.8,0.3,1.6-0.3,1.8-1c5.6-17.8,6.2-39.1-5.5-54.6
			c-1.2-1.5-3.8,0-2.6,1.5c11.4,14.9,10.6,35.2,5.2,52.3c0.6-0.4,1.2-0.7,1.8-1c-6.8-2.3-13.1-5.6-18.9-9.8
			c-0.5-0.4-1.4-0.2-1.8,0.2c-12.2,14.9-14.3,34.5-11.7,53c1.4,9.7,4.2,19,7.5,28.3c1.7,4.7,3.1,10.7-1.8,13.9
			c-3.5,2.3-8.4,2.2-12,0.2c-9.2-5-11.5-16.6-16.4-25c-2.5-4.3-5.8-7.8-10-10.5c-4.5-2.9-9.4-4.9-14.3-7
			c-20.9-9.2-42.8-18.3-66.1-18.1c-10.8,0.1-21.5,2.3-31.2,7c-5.1,2.5-9.9,5.4-15.2,7.5c-5.6,2.2-11.4,2.9-17.4,2.8
			c-6.3-0.2-12.5-1.2-18.7-2.1c-6.3-0.9-12.6-1.9-18.8-2.8c-12.2-1.9-24.4-4-36.6-6.1c-12.2-2.2-24.4-4.4-36.6-6.6
			c-6.1-1.1-12.3-2.2-18.4-3.3c-5.4-1-11-2.2-16.6-1.5c-5.3,0.7-9.2,3.4-13.3,6.6c-4.2,3.3-8.6,6-13.6,7.8
			c-9.7,3.5-20.1,4.2-30.3,4.2c-2.6,0-5.1-0.1-7.7-0.1c-1.2,0-2.3-0.1-3.5-0.1s-3.5,0.2-3.4-1.5c-0.1,0-0.2,0-0.4,0
			c0.2,0.1,0.5,0.2,0.8,0.2c0.6-0.1,0.2,0,0.8-0.2l0.1-0.1c0.4-0.1,0.7-0.4,1-0.5c3.9-2,7.8-4,11.7-5.9c9.6-4.9,19.1-9.7,28.7-14.5
			c0.6-0.3,1.3-0.7,2-1c-0.6-0.1-1.2-0.2-1.8-0.2c3.8,3.1,8.2,0.9,12-1c5.2-2.6,11-3.2,16.7-3.4c3.2-0.1,9.8,0.8,10.8-3.5
			c0.4-1.8-0.4-4.4-1.8-5.6c-0.9-0.8-2.1-1-3.2-1.5c-1.3-0.6-2.6-1.3-3.9-1.9c0,0.9,0,1.7,0,2.6c9.8-5,19.7-10,29.5-15
			c18.9-9.6,37.9-19.2,56.8-28.8c12.2-6.1,24.3-12.3,36.4-18.5c0.2-0.1,0.6-0.2,0.8-0.4c0.8-0.6,1.2-1.9,1.8-2.8
			c1.3-1.9,3-3.5,4.8-4.7c8.6-5.7,19.3-4.5,29.1-4.2c21.7,0.5,43.2-2.2,64.8-4.3c19.7-1.9,39.6-3.1,59.3-0.7
			c18.6,2.2,37.6,7.6,53,18.7c3.8,2.7,7.2,5.9,10.1,9.5C427.8,36.2,430,34,428.8,32.5z"/>
		<path class="st3" d="M322.1,56.8c0,1-0.6,1.6-1.1,2.4s-0.8,1.6-1.1,2.4c-0.6,1.7-0.8,3.6-1,5.5c-0.3,4-0.3,8-0.7,12
			c-0.3,4-0.9,7.9-1.5,11.9c-0.1,0.7-0.2,1.5-0.2,2.2s0.2,1.3,0.4,2c0.3,1.7-1,3.1-2.4,3.8c-1.7,0.8-4,0.7-5.9,0.8
			c-2.1,0.2-4.3,0.2-6.4-0.4c-1.1-0.3-1.9-0.9-3.1-0.8c-1.3,0.2-2.6,0.4-3.9,0.5c-2.4,0.2-4.9,0.1-7.3-0.1c-5-0.4-9.8-1.5-14.6-2.6
			c-4.9-1.1-9.9-1.2-14.9-2c-1-0.2-2.1-0.5-3.1-0.7c-0.7-0.1-1.1,0.2-1.7,0.2c-0.5,0.1-1.1,0-1.7,0c-2-0.2-4.1-0.7-5.9-1.6
			c-3.3-1.8-6.4-5.7-6-9.7c0.1-1.1,0.6-1.6,1.1-2.5c0.5-1,0.3-2.5,0.3-3.6c0.1-2.3,0.1-4.6-0.6-6.8c-0.6-2-1.5-4.1-2.5-5.8
			c-1.3-2.1-2.9-4-4.3-6.1c-1.9-2.7-4.7-7.6-1.2-10.4c0.7-0.5,1.4-0.6,2-1.3c0.9-1,1.7-1.7,2.8-2.5c2-1.5,4-2.9,6-4.4
			c0.9-0.6,1.8-1.3,2.8-1.9c0.5-0.3,1-0.6,1.3-1.1c0.2-0.4,0.3-0.8,0.5-1.1c0.5-0.8,1.4-1.1,2.2-1.5c1.1-0.5,2.2-1,3.3-1.6
			c4.3-2.1,8.6-3.9,13.3-4.7c4.6-0.9,9.3-1.3,13.9-1.5c4.5-0.2,9.1,0.1,13.2,2.2c1.9,1,3.6,2.3,5.2,3.7c0.8,0.7,1.5,1.4,2.3,2.1
			c0.8,0.8,1.8,1.5,2.4,2.4c0.5,0.8,0.7,1.5,1.3,2.2c0.7,0.8,1.5,1.5,2.4,2.2c1.7,1.4,3.5,2.7,4.9,4.4c1.3,1.5,2.4,3.1,3.7,4.5
			c0.3,0.4,1,0.6,1.5,0.4c3.5-1.3,6.7,2.9,4.6,6c-1.1,1.6,1.5,3.1,2.6,1.5c3.5-5.2-2-12.7-8-10.4c0.5,0.1,1,0.3,1.5,0.4
			c-1.8-1.9-3.2-4.2-5.2-6c-1-0.9-2.1-1.8-3.1-2.6c-1-0.8-2.3-1.7-3-2.8c0.2,0.4-0.1-0.3-0.1-0.4c-0.1-0.3-0.3-0.6-0.5-0.9
			c-0.4-0.6-0.9-1.1-1.4-1.6c-1-1-2-1.9-3-2.8c-2-1.8-4.2-3.6-6.6-4.8c-5.2-2.7-11.2-2.9-16.8-2.5c-6,0.4-12.3,0.9-18.1,2.9
			c-3.1,1-6.1,2.5-9.1,3.9c-2.7,1.3-5.6,2.2-6.6,5.3c0.2-0.3,0.5-0.6,0.7-0.9c-2.5,1.6-4.8,3.4-7.2,5.1c-2.2,1.6-4.5,3.1-6.2,5.2
			c0.3-0.2,0.6-0.5,0.9-0.7c-2.8,1-4.5,3.4-4.8,6.4c-0.3,3.4,1.4,6.3,3.2,9c1.1,1.6,2.2,3.1,3.3,4.7c1,1.3,1.7,2.6,2.3,4.1
			c0.8,1.6,1.3,3.3,1.4,5.1c0.1,2.1-0.1,4.1-0.2,6.2c0.2-0.4,0.3-0.7,0.4-1.1c-2.9,3.7-1.8,8.6,0.8,12.1c2.7,3.7,6.7,5.9,11.2,6.4
			c1.2,0.1,2.3,0.3,3.5,0.1c1.2-0.2,2.2,0.2,3.4,0.4c2.7,0.5,5.4,0.7,8.1,0.9c5.6,0.6,10.9,2.2,16.4,3.1c6,1,12,1.2,18.1,0.1
			c-0.4,0-0.8-0.1-1.2-0.1c4.4,2.1,9.5,1.6,14.2,1c3.8-0.4,7.4-3.9,6.5-8c-0.2-0.7-0.3-1-0.2-1.7c0.1-0.9,0.2-1.8,0.4-2.7
			c0.3-2,0.6-4,0.8-6c0.5-4.7,0.8-9.4,1-14.1c0.1-2.3,0.2-4.6,0.8-6.8c0.7-2.2,2.4-3.8,2.5-6.3C325.2,54.8,322.2,54.9,322.1,56.8z"
			/>
		<path class="st3" d="M401,24.1c-0.5,0-1,0-1.5,0c-0.6,0-1.3,0.5-1.5,1.1c-0.2,1-0.6,1.4-1.6,1.7c-0.8,0.2-1.2,0.2-1.8,0.9
			c-0.3,0.4-0.4,0.7-0.6,1.1c-0.2,0.4-0.6,0.7-0.9,1.1c-0.4,0.5-0.3,1.1-0.3,1.7c-0.1,1.3-0.5,2.6-1.2,3.7s-1.6,1.9-2.4,2.9
			c-0.7,0.9-0.4,2-0.6,3.1c-0.6,2.5-1.4,5-2.2,7.5c-0.9,3-1.6,5.9-2.3,8.9c-0.2,0.6-0.4,1.1-0.3,1.8c0.2,0.8,0.6,1,0.3,1.9
			c-0.4,1.3-1.4,2.6-2,3.9c-0.5,1.2-1,2.4-1.5,3.7c-0.5,1.3-0.7,2.7-1.3,4c-0.5,1.1-1.2,0.9-2.1,1.4c-0.5,0.3-1,1.1-1.3,1.6
			c-0.4,0.6-0.9,1.2-1.3,1.8c-1.6,2.3-2.8,4.7-3.8,7.3c-0.5,1.2-0.8,2.5-1.1,3.8c-0.1,0.5-0.3,1.1-0.2,1.6c0.1,0.4,0.3,0.6,0.2,1
			c0,0.4-0.2,0.9-0.3,1.3c-0.7,2.7,0.2,5.4,0,8.1c-0.2,2.3-1.1,5-3.5,5.8c-2.3,0.8-5.6-1-7.3-2.6c-0.9-0.9-1.6-1.5-2.9-1.6
			c-1.4-0.2-2.5-0.9-3.4-2c-0.8-0.9-1.2-2.1-2.3-2.7c-1.3-0.7-2.6-1.3-3.9-2c-2.5-1.3-4.8-2.9-6.9-4.8c-1.1-1-2-2.2-3.2-3
			s-2.4-1.7-3.4-2.8c-0.9-1-1.6-2.1-1.9-3.3c-0.1-0.6-0.2-1.2,0-1.8c0.2-0.7,0.8-1,1-1.7c0.1-0.7-0.1-1.6-0.1-2.4c0-0.7,0-1.5,0-2.2
			c0-1.6,0.2-3.1,0.3-4.7c0.3-3.2,0.5-6.4,1.1-9.5c0.1-0.7-0.2-1.7-1-1.9l0,0c0.3,0.6,0.7,1.2,1,1.9c0.2-1.6,0.6-3.2,0.7-4.9
			c0.1-1.4,0.3-2.9,0.9-4.2c0.3-0.6,0.7-1.1,0.9-1.7c0.3-0.7,0.6-1.5,0.9-2.2c0.6-1.3,1.3-3.3,2.3-4.2c0.5-0.5,1-0.6,1.4-1.2
			c0.5-0.7,0.9-1.4,1.3-2c0.8-1.2,2.3-2.4,2.7-3.8c0.6-2.5,3.7-3.8,5.9-4.3c1.2-0.3,2.8-0.5,4.1-0.3c1.4,0.3,2.8,0.7,4.3,0.8
			c2.9,0.2,5.4-1.9,7.7-3.4c1.4-0.9,2.8-1.8,4.3-2.6c0.6-0.3,1.1-0.7,1.8-1.1c0.6-0.3,1-0.8,1.5-1.2c1.1-0.8,2.7-1.1,4.1-1.3
			c1.6-0.3,3.3-0.3,5-0.2c0.8,0,1.6,0.2,2.4,0.2s1.5-0.2,2.4-0.1c1.8,0.2,3.6,0.3,5.5,0.3c1.5,0,3.4-0.2,4.4,1.2
			c0.5,0.7,0.6,1.2,1.4,1.5c0.3,0.1,0.6,0.1,0.8,0.2c0.1,0.1,0.2,0.2,0.4,0.2c0.7,0.2,0.8-0.2,0.4-1.2c-1.9,0.4-1.1,3.3,0.8,2.9
			c1.6-0.3,2.4-2.1,1.6-3.5c-0.8-1.3-2.2-1.1-3.4-1.5c0.3,0.2,0.6,0.5,0.9,0.7c-2.1-4.6-7.9-3.2-12-3.6c-0.6-0.1-1.2-0.2-1.7-0.2
			c-0.2,0-0.6,0-0.8,0.1c-0.1,0-0.8,0.2-0.1,0.1c-1.1,0.1-2.4-0.3-3.5-0.3c-2.4-0.1-4.9,0.1-7.3,0.8c-1,0.3-2.1,0.6-3,1.3
			c-0.3,0.2-0.7,0.5-1,0.8c0.2-0.3,0.3-0.1-0.1,0.1c-0.4,0.2-0.7,0.3-1,0.6c-2,1.3-4.2,2.5-6.2,3.8c-1.9,1.2-3.6,2.8-6,2.4
			c-2.2-0.4-4.1-0.9-6.4-0.7c-4.1,0.4-10.1,2.7-10.4,7.5c0.2-0.4,0.3-0.7,0.4-1.1c-0.8,0.9-1.6,1.8-2.3,2.8
			c-0.5,0.7-1.2,1.9-1.7,2.4c-0.8,0.8-1.5,1.3-2.1,2.3c-0.7,1.1-1.2,2.3-1.8,3.5c-0.5,1.1-0.9,2.1-1.4,3.1s-0.9,2-1.2,3.1
			c-0.2,1-0.3,2.1-0.4,3.1c-0.1,1.4-0.4,2.7-0.6,4.1c-0.1,0.7,0.2,1.7,1,1.9l0,0c-0.3-0.6-0.7-1.2-1-1.9c-0.6,3.2-0.8,6.4-1.1,9.6
			s-0.6,6.5-0.2,9.7c0.2-0.4,0.3-0.7,0.4-1.1c-2,2.2-1.8,5.1-0.4,7.6c0.6,1.2,1.6,2.3,2.6,3.2c1.2,1.1,2.6,1.9,3.7,2.9
			c1.2,1.1,2.3,2.3,3.5,3.3s2.5,2,3.8,2.8c1.4,0.9,2.8,1.6,4.3,2.3c0.6,0.3,1.5,0.6,2,1c0.4,0.4,0.8,1.1,1.2,1.6
			c0.9,1.1,1.9,2.1,3.2,2.8c0.7,0.3,1.3,0.5,2.1,0.6c0.8,0.2,1,0.4,1.6,1c2.2,1.9,5.5,3.5,8.4,3.5c2.8,0,5.2-2.2,6.3-4.6
			c1.4-3,1-6,0.8-9.2c-0.1-2,0.7-3.7,0.5-5.6c0-0.1-0.2-0.4-0.2-0.4c0-0.5,0.3-1.2,0.4-1.7c0.2-0.9,0.5-1.7,0.8-2.5
			c1.3-3.5,3.4-6.4,5.5-9.4c-0.3,0.2-0.6,0.5-0.9,0.7c3.8-0.7,4.2-4.9,5.3-7.9c0.7-1.8,1.5-3.6,2.5-5.3c1-1.8,1.3-3.5,0.3-5.5
			c0,0.4,0.1,0.8,0.2,1.2c0.8-2.8,1.4-5.7,2.2-8.5c0.8-2.6,1.5-5.2,2.3-7.8c0.3-1.1,0.5-2.2,0.6-3.3c0-0.2-0.3,0.1,0,0
			s0.5-0.5,0.7-0.8c0.4-0.5,0.8-0.9,1.1-1.4c1.4-2,2.1-4.4,2.1-6.9c-0.2,0.4-0.3,0.7-0.4,1.1c0.8-0.7,1.4-1.7,1.9-2.6
			c-0.3,0.2-0.6,0.5-0.9,0.7c2.2-0.4,4.2-1.5,4.6-4c-0.5,0.4-1,0.7-1.5,1.1c0.5,0,1.2,0,1.5,0C403,27.2,403,24.2,401,24.1z"/>
	</g>
</g>
<g>
	<g>
		<path class="st3" d="M411.3,176.5c-0.7-0.6-1.7-0.8-2.6-0.9c-7.7-1-15.3,1.6-23,2.1s-16.8-2.2-19.3-9.5c-0.6-1.9-0.8-4-2.1-5.5
			c-1.3-1.6-3.6-2.1-5.6-2.5c-33.2-6.5-67.5-10.4-100.8-4.9c-37.4,6.1-72.5,23.8-110.2,27.1c-7.5,0.6-15.2,0.7-22.3,2.9
			c-4.1,1.2-8,3.1-12.1,4.2c-6,1.6-12.4,1.5-18.5,2.3c-18.6,2.6-35.4,15-43.6,31.8l-3.7,2.4c6.7,6.5,16.5,8.1,25.7,9.5
			c7.9,1.1,16.2,2.3,23.7-0.5c3.2-1.1,6.1-2.9,9.3-3.9c9.7-2.9,20.2,2.4,30.2,1c7.3-1,13.6-5.5,20.5-8.2c14.1-5.4,29.8-3.1,44.8-0.6
			c17.1,2.8,34.2,5.6,51.2,8.4c7.9,1.3,15.8,2.6,23.8,2c9-0.6,17.6-3.5,26.2-6c11.4-3.3,23-5.9,34.7-7.5c14.3-1.9,30.2-2.8,40-13.3
			c3.5-3.7,5.8-8.4,9.3-12c5.3-5.4,12.8-8.1,19.9-10.8C410.1,182.9,414,178.9,411.3,176.5z M284,195.9c-0.6,4.4,0.5,10.2-3.8,13.1
			c-1.4,0.9-2.7,0.7-3.8,0c-0.1,0-0.2,0-0.2,0c-2.6,0.4-5.5-0.6-7.8-1.9s-4.2-3.2-6.8-3.8c-2.9-0.7-6.3-0.1-9.2,0.3
			c-4.6,0.7-9.1,2.4-13.5,0.2c-2.3-1.1-2.2-4.2-0.8-5.9c0.1-0.1,0.2-0.2,0.2-0.3c0.2-1,0.8-1.9,1.7-2.8c0.8-0.7,1.8-1.4,2.9-1.9
			c4-3.8,8.7-6.4,14.6-7.1c4.1-0.5,7.9,0.2,12,0.4c3.8,0.2,7.5,0,11.3,0.8c1.5,0.3,2.9,2.1,2.7,3.6c-0.1,0.9-0.3,1.8-0.5,2.7
			C283.7,194,284.1,194.9,284,195.9z"/>
	</g>
	<g>
		<path class="st3" d="M412.1,175.3c-2.4-1.7-6.3-1.5-9.1-1.3c-3.4,0.2-6.8,0.8-10.2,1.4c-5.8,1-11.5,1.6-17.2-0.4
			c-2.3-0.8-4.4-2.1-6-4c-1.8-2.1-2-4.7-3-7.2s-3.2-3.8-5.7-4.5c-3.3-0.9-6.8-1.4-10.1-2c-28.4-5.1-57.5-8.1-86.3-4.4
			c-27.2,3.5-52.8,13.4-79.1,20.7c-13.3,3.7-26.7,6.5-40.5,7.5c-6.9,0.5-14,0.8-20.7,3c-3.3,1.1-6.5,2.5-9.8,3.6
			c-3.5,1.1-7.1,1.6-10.8,1.9c-6.2,0.5-12.3,1-18.3,3c-5.3,1.7-10.3,4.1-14.9,7.1c-4.6,3.1-8.8,6.7-12.4,10.9
			c-1.7,2-3.3,4.1-4.8,6.3c-0.7,1.1-1.4,2.3-2.1,3.5c-0.3,0.6-0.7,1.2-1,1.9c-0.2,0.5,0.3,0-0.2,0.4c-0.9,0.9-2.3,1.5-3.4,2.1
			c-0.8,0.5-1,1.7-0.3,2.4c8.6,8.2,21.8,9.5,33.1,10.8c6.7,0.7,13.4,0.6,19.6-2.1c3-1.3,5.8-2.9,9-3.5c3.2-0.7,6.5-0.5,9.7-0.1
			c6.3,0.8,12.6,2.4,19,1.4c6.2-0.9,11.6-4.1,17.2-6.7c12.7-5.9,26.6-5.2,40.1-3.2c14.4,2.1,28.8,4.7,43.1,7
			c7.2,1.2,14.4,2.4,21.6,3.5c7.1,1,14.2,1.7,21.4,0.8c6.9-0.9,13.5-2.9,20.2-4.8c6.9-2,13.8-3.9,20.9-5.4
			c6.7-1.4,13.5-2.5,20.2-3.3c5.7-0.7,11.4-1.4,16.9-2.6c5.2-1.2,10.5-3,15-6.1c4.9-3.3,8-7.9,11.5-12.6c3.8-5.2,8.7-8.6,14.6-11.2
			c4.6-2,11.2-3.1,13.8-8c1-1.9,0.8-3.8-0.7-5.3c-1.4-1.4-3.5,0.8-2.1,2.1c3.2,3.2-9.7,7.4-11.2,8c-5.2,2.2-10.3,4.9-14,9.2
			c-4,4.4-6.6,9.9-11.2,13.7c-4.2,3.4-9.2,5.5-14.4,6.8c-11.4,3-23.4,3.4-35,5.6c-6.7,1.3-13.4,2.9-20,4.8c-6.5,1.8-13,4-19.7,5.4
			c-14,2.9-28-0.3-41.8-2.5c-14.1-2.3-28.2-4.6-42.2-6.9c-12.5-2-25.5-3.9-38-1.1c-6,1.4-11.4,4.3-17,6.9c-2.8,1.3-5.6,2.4-8.6,3
			c-3.1,0.6-6.3,0.5-9.5,0.1c-6-0.7-12.1-2.3-18.2-1.6c-6.2,0.8-11.3,4.7-17.4,5.8c-6.7,1.2-13.5,0-20.2-1
			c-5.6-0.8-11.4-1.8-16.5-4.2c-2.5-1.2-4.8-2.7-6.9-4.6c-0.1,0.8-0.2,1.6-0.3,2.4c1.1-0.7,2.3-1.4,3.4-2.1c1.6-1.1,2.3-3.6,3.3-5.2
			c2.9-4.7,6.5-9,10.6-12.7c8.3-7.5,18.8-12.5,29.9-14c6.9-0.9,13.8-0.8,20.5-3c3.3-1.1,6.5-2.5,9.8-3.5c3.4-1,6.8-1.6,10.3-1.9
			c6.7-0.7,13.5-1,20.2-1.9c6.6-0.9,13.2-2.2,19.7-3.8c26.2-6.3,51.3-16.5,77.8-21.5c28.3-5.4,57.5-3.7,85.8,0.8
			c6.8,1.1,13.9,2,20.6,3.8c1.4,0.4,2.8,1,3.5,2.3c0.7,1.2,0.8,2.7,1.3,4c0.7,2.2,2,4.2,3.7,5.8c9,8.2,21.4,4.2,32,3
			c1.6-0.2,3.2-0.3,4.7-0.3c1.7,0,3.8,0,5.2,1C412.1,179,413.6,176.4,412.1,175.3z"/>
		<path class="st3" d="M282.5,195.9c-0.4,3,0,6.1-1,8.9c-0.4,1.3-1.5,3-3,3.3c-0.8,0.1-1.4-0.6-2.2-0.6c-0.9,0-1.8,0.1-2.7,0
			c-1.9-0.3-3.7-1.1-5.3-2.2c-1.5-1-3-2.1-4.7-2.9c-3.7-1.6-7.9-0.9-11.7-0.3c-3.9,0.6-8.6,2.4-12.3,0.4c-1.2-0.6-1.3-2-0.7-3.1
			c0.3-0.6,0.8-1.1,1-1.8c0.4-0.9,1-1.6,1.8-2.1c0.7-0.5,1.5-0.8,2.2-1.3s1.3-1.2,2-1.8c1.4-1.1,2.8-2,4.4-2.8
			c3.5-1.8,7.4-2.4,11.3-2.3c2.5,0.1,4.9,0.4,7.4,0.5c2.4,0.1,4.9,0.1,7.3,0.3c1.7,0.1,5.1-0.1,5.7,2.1c0.3,1.1-0.5,2.2-0.4,3.3
			C281.5,194.4,282.5,194.8,282.5,195.9c-0.1,1.9,2.9,1.9,3,0c0.1-1.4-0.5-2.6-1.4-3.6c0.1,0.5,0.3,1,0.4,1.5c0.5-2.1,1-4.2-0.4-6.1
			s-3.4-2.2-5.6-2.5c-2.5-0.3-5-0.3-7.5-0.4s-5.1-0.4-7.6-0.5c-4.6-0.3-9.1,0.2-13.3,2.1c-1.8,0.8-3.5,1.8-5.2,3
			c-0.8,0.6-1.6,1.3-2.3,1.9c-0.8,0.7-1.8,1.1-2.6,1.7s-1.6,1.4-2.1,2.2c-0.5,0.8-0.7,1.5-1.1,2.1c-1,1.4-1.3,3.2-0.9,4.8
			c1.2,4.4,7.2,4.5,10.8,4c4.6-0.6,9.5-2.4,14.2-1.5c2.1,0.4,3.8,1.8,5.5,2.9c1.8,1.2,3.8,2.2,5.9,2.7c1.2,0.3,2.4,0.4,3.6,0.3
			c0.2,0,0.6,0.1,0.2,0c0.2,0.1,0.5,0.2,0.7,0.3c0.6,0.2,1.2,0.3,1.9,0.3c2.2-0.1,4.1-1.9,5.1-3.7c2-3.5,1.4-7.7,1.8-11.5
			C285.7,194,282.7,194,282.5,195.9z"/>
	</g>
</g>
<g>
	<path class="st2" d="M120.8,186.9c0.8-4.4,4.8-8.1,9.3-8.4c1.8-0.1,3.7,0.2,5.5,0c3.9-0.3,7.3-2.6,10.9-4c5.2-2,10.9-2.1,16.5-2.2
		c11.3-0.2,22.5-0.4,33.8-0.5"/>
	<g>
		<path class="st2" d="M122.2,187.3c0.8-4.2,4.4-7.3,8.7-7.4c2.5,0,4.9,0.3,7.4-0.4c2.3-0.6,4.5-1.8,6.7-2.8
			c4.8-2.2,9.9-2.8,15.1-2.9c5.7-0.1,11.4-0.2,17.1-0.3c6.5-0.1,12.9-0.2,19.4-0.3c1.9,0,1.9-3,0-3c-12.1,0.2-24.2,0.3-36.3,0.6
			c-5.5,0.1-10.9,0.6-15.9,2.9c-2.3,1-4.5,2.3-6.9,3c-2.7,0.7-5.4,0-8.1,0.4c-5,0.6-9.2,4.6-10.2,9.5
			C119,188.4,121.8,189.2,122.2,187.3L122.2,187.3z"/>
	</g>
</g>
<g>
	<g>
		<path class="st2" d="M27.9,103.3c3.6-3.2,7.1-6.4,10.7-9.7c1.8-1.6,3.6-3.2,5.4-4.8c1.7-1.5,3.4-3.3,5.2-4.6
			c1.8-1.3,3.4-1,5.4-0.6c1.9,0.3,3.7,0.4,5.5-0.5c1.6-0.9,2.8-2.5,4.7-2.7c2-0.3,4,0.7,5.7,1.7c1.8,1.1,3.4,2.4,5.3,3.2
			c1.9,0.9,4,1.3,6,2c1.5,0.6,3.4,1.7,3.6,3.5c0.2,2-2.9,1.5-4.2,1.6c-4.3,0.3-8.6,0.5-12.8,1.3c-2.1,0.4-4.2,0.9-6.2,1.6
			c-1.9,0.7-3.8,1.8-5.7,2.5c-1.6,0.5-3.8,0.8-4.9-0.8c-1-1.3,0.4-2.5,1.4-3.3c1.4-1.1,3-2,4.1-3.4c1.3-1.7,1.7-3.9,1.3-6
			c-0.4-1.9-3.2-1.1-2.9,0.8c0.8,4.2-4.2,5.3-6.2,8.1c-2.4,3.3,0.2,7.1,3.8,7.9c2.2,0.4,4.3-0.3,6.3-1.2c2.2-1,4.4-2,6.7-2.6
			c4.7-1.2,9.5-1.5,14.3-1.8c2-0.1,4.8,0.1,6.5-1.1s1.9-3.5,1.2-5.3c-1.8-4.6-7-4.6-10.8-6.4c-4.1-2-7.5-5.8-12.5-5.2
			c-2.3,0.2-3.7,1.6-5.5,2.8c-1.9,1.2-4,0.4-6.1,0.1c-2.7-0.3-4.8,0.7-6.8,2.5c-2.3,2-4.5,4-6.8,6.1c-4.6,4.1-9.1,8.2-13.7,12.3
			C24.3,102.5,26.4,104.6,27.9,103.3L27.9,103.3z"/>
	</g>
</g>
<g>
	<g>
		<path class="st2" d="M320.3,50.1c-9.9-6.8-14.5-19.7-26-24.4c-7.3-3-15.8-1.5-23.4-0.6c-4.2,0.5-8.3,1.2-12.3,2.5
			c-3.6,1.2-7,2.9-10.2,4.9s-6.2,4.3-9.2,6.7c-1.5,1.2-2.9,2.4-4.3,3.6c-1.3,1.2-2.8,2.3-3.9,3.7c-1,1.3-1.7,2.9-1.5,4.5
			c0.2,2,1.4,3.8,2.3,5.5c2,3.6,4.2,7.2,5.8,11c1.5,3.4,1.5,6.8,1.2,10.4c-0.2,3.1-0.7,6.4,0.3,9.5c1,3.3,3.5,5.4,6.6,6.6
			c3.7,1.4,7.9,1.9,11.8,2.6c17,3.1,34.4,4.9,51.7,5.2c2.1,0,4.2,0,6.4,0c0.7,0,1.2-0.5,1.5-1.1c2.1-5.5,2.2-11.5,2.2-17.3
			c0-5.9,0.4-11.7,1.8-17.5c1.4-5.7,3.5-11.1,6.4-16.2c2.6-4.5,5.6-9.8,3.8-15.2c-0.9-2.6-2.8-4.4-5.1-5.8c-2.2-1.3-4.6-2.2-6.3-4.2
			c-1.2-1.5-3.4,0.7-2.1,2.1c1.5,1.7,3.4,2.8,5.3,3.8c1.9,1,3.8,2.1,4.9,4c2.6,4.9-1.3,10.4-3.6,14.5c-5.5,9.9-8.1,21-8.2,32.2
			c-0.1,6.3,0.2,12.8-2.1,18.8c0.5-0.4,1-0.7,1.5-1.1c-16.4,0-32.8-1.2-49.1-3.7c-4.1-0.6-8.2-1.4-12.3-2.2c-3.2-0.6-7.4-1-10.1-3.1
			c-2.4-1.9-2.7-5-2.6-7.8c0.1-3.2,0.7-6.3,0.4-9.5c-0.3-3.7-1.9-7-3.6-10.2c-0.9-1.7-1.9-3.5-2.8-5.2c-0.9-1.7-2-3.4-2.8-5.2
			c-0.8-1.8,0-3.1,1.3-4.4c1.2-1.2,2.6-2.3,3.9-3.4c2.7-2.4,5.5-4.7,8.5-6.8c2.9-2.1,6-3.9,9.2-5.4c3.5-1.6,7.3-2.6,11.2-3.2
			c3.8-0.6,7.7-1,11.6-1.4c3.7-0.3,7.5-0.6,11.2,0.2c12,2.4,17.2,15.2,25.6,22.6c1.1,1,2.2,1.8,3.4,2.6
			C320.4,53.8,321.9,51.1,320.3,50.1L320.3,50.1z"/>
	</g>
</g>
<g>
	<g>
		<path class="st2" d="M318.1,51.3c2,0.3,4,0.6,6,0.9c0.4,0.1,0.8,0.1,1.2-0.1c0.3-0.2,0.6-0.5,0.7-0.9c0.2-0.7-0.2-1.7-1-1.9
			c-2-0.3-4-0.6-6-0.9c-0.4-0.1-0.8-0.1-1.2,0.1c-0.3,0.2-0.6,0.5-0.7,0.9C316.9,50.2,317.3,51.2,318.1,51.3L318.1,51.3z"/>
	</g>
</g>
<g>
	<g>
		<path class="st2" d="M409.3,26.9c-5.2-6-13.5-7.1-20.9-7.3c-4.2-0.1-8.4-0.1-12.5,0.6c-2.2,0.4-4.3,1.1-6.2,2.3
			c-1.6,1-3.1,2.3-4.6,3.5c-1.4,1.1-2.9,2.3-4.7,2.7c-2.2,0.6-4.3-0.4-6.5-0.7c-2.1-0.4-4.1-0.3-6.1,0.6c-1.9,0.9-3.4,2.5-4.7,4
			c-3.1,3.6-6,7.5-8.5,11.5c-1.2,2-2.4,4-3.1,6.2c-0.7,2.3-0.8,4.7-1,7c-0.4,5.2-0.9,10.4-1.3,15.7c-0.2,2.5-0.5,5-0.6,7.5
			c-0.1,2.2,0.2,4.4,1.5,6.2c1.3,1.7,3.2,2.8,4.9,4c2.1,1.4,4.2,2.9,6.3,4.3c4.3,2.9,8.5,5.8,12.8,8.6c2.1,1.4,4.2,2.8,6.3,4.2
			c1.8,1.1,3.9,2.2,6,1.7c4-1.1,4.8-6.7,5.2-10.1c0.5-4.3,0.2-8.7,1-12.9c0.4-2.1,1.1-4,2.2-5.8c1.1-1.8,2.6-3.4,4-5
			c3-3.3,5.2-6.7,6.4-11c1.2-4.4,1.6-8.9,2.5-13.3c1.1-4.8,2.6-9.5,4.2-14.2c1.2-3.8,2.9-8.3,6.9-9.8c1.7-0.6,3.5-0.6,5,0.4
			c1.6,1,3.1-1.5,1.5-2.6c-3.1-2-7.2-1.3-10.1,0.8c-3.3,2.4-4.9,6.3-6.2,10.1c-1.5,4.6-3,9.2-4.1,13.9c-1,4.2-1.4,8.6-2.4,12.8
			c-0.5,2-1.1,4-2.2,5.9c-1,1.8-2.3,3.3-3.6,4.8c-2.7,3-5.3,6-6.6,9.9c-1.2,4-1.2,8.2-1.4,12.3c-0.1,2-0.3,4.1-0.7,6.1
			c-0.3,1.5-0.9,4.4-2.6,4.8c-1.9,0.5-4.3-1.8-5.8-2.7c-2-1.4-4.1-2.7-6.1-4.1c-4.1-2.7-8.2-5.5-12.2-8.2c-2-1.4-4-2.8-6.1-4.2
			c-1.7-1.1-3.4-2.3-3.8-4.4c-0.4-2.2,0.1-4.6,0.2-6.8c0.2-2.5,0.4-5,0.6-7.5c0.4-5,0.7-10,1.3-15c0.6-4.6,3.4-8.5,5.9-12.2
			c1.3-1.9,2.7-3.7,4.2-5.5c1.3-1.5,2.6-3.2,4.3-4.3c3.8-2.5,7.9,0.6,12,0c3.8-0.6,6.4-3.5,9.3-5.6c3.5-2.6,7.5-3.3,11.8-3.5
			c7.1-0.3,15.4-0.6,21.8,3c1.5,0.9,2.9,2,4,3.3C408.4,30.4,410.6,28.3,409.3,26.9L409.3,26.9z"/>
	</g>
</g>
<g>
	<g>
		<path class="st2" d="M415.1,77.7c2.4-4.9,4.5-10.1,5.2-15.5c0.8-5.9,0.5-11.9,0.5-17.8c0-1.9-3-1.9-3,0c0,5.6,0.3,11.4-0.4,17
			c-0.7,5.2-2.7,10.1-4.9,14.9C411.6,77.9,414.2,79.4,415.1,77.7L415.1,77.7z"/>
	</g>
</g>
<g>
	<g>
		<path class="st2" d="M418.8,49.1c3.1,10.4,10.8,21.5,6.1,32.6c-0.3,0.8,0.3,1.6,1,1.9c0.9,0.2,1.5-0.3,1.8-1
			c4.9-11.7-2.8-23.3-6.1-34.2C421.2,46.5,418.3,47.2,418.8,49.1L418.8,49.1z"/>
	</g>
</g>
<g>
	<g>
		<path class="st2" d="M264,202.5c-4-0.8-8-1.6-12.1-1.4c-2,0.1-4,0.5-6,1c-1.6,0.4-3.4,0.9-5,0.4c-4.2-1.4-0.3-5.6,1.6-7.2
			c2.7-2.2,5.9-3.8,9.1-4.9c7.4-2.5,15.3-2.5,23-2c2,0.1,4.2,0.1,6.1,0.5c0.9,0.2,0.6,0.9,0.5,1.6c-0.1,1.1-0.2,2.3-0.3,3.4
			c-0.2,2-0.3,4.1-0.5,6.1c-0.1,1.7-0.1,3.8-1,5.4c-1.6,2.9-5.9,1.8-8.2,0.5c-3.5-1.8-6.5-4.4-10.6-4.6c-1.9-0.1-1.9,2.9,0,3
			c4,0.2,7.1,3.5,10.7,4.9c3,1.2,7,1.5,9.6-0.8c1.5-1.3,2-3.2,2.3-5.1c0.3-2.3,0.4-4.6,0.6-7c0.2-2.3,0.6-4.8,0.5-7.1
			c-0.1-2.1-1.6-3.1-3.6-3.4c-9-1-18.7-1.4-27.6,1c-3.9,1-7.8,2.7-11.1,5c-2.9,2.1-7,5.5-6.1,9.6c0.5,2,2.1,3.3,4,3.9
			c2.3,0.7,4.6,0.1,6.8-0.4c5.5-1.5,10.7-0.6,16.2,0.5C265.1,205.8,265.9,202.9,264,202.5L264,202.5z"/>
	</g>
</g>
<g>
	<g>
		<path class="st2" d="M315.7,18.1c6.9,0.6,13.9,0.9,20.9,0.8c2.4,0,6.2,0.3,6.7-2.8c0.2-1.3-0.3-2.6-1.3-3.4c-0.5-0.4-1-0.7-1.7-1
			c-0.4-0.1-0.8-0.2-1.1-0.4c-0.1,0-0.2-0.1-0.3-0.1c-0.3-0.3-0.4-0.2-0.3,0.4c1-1.7-1.6-3.2-2.6-1.5c-0.6,1-0.4,2.1,0.4,2.9
			c0.8,0.9,1.9,1,2.9,1.5c0.3,0.1,1.2,0.6,0.9,1.1c-0.2,0.3-1,0.2-1.3,0.2c-1.6,0.1-3.2,0.1-4.7,0.1c-6.2,0-12.4-0.3-18.6-0.8
			C313.7,14.9,313.8,17.9,315.7,18.1L315.7,18.1z"/>
	</g>
</g>
<g>
	<path class="st2" d="M272.1,104.4c-18.4,2.8-37-3.6-55.6-4.4c-12.2-0.5-24.5,1.5-35.9,5.7"/>
	<g>
		<path class="st2" d="M271.7,103c-12,1.8-24.2-0.4-36-2.2c-6-0.9-12.1-1.8-18.2-2.1c-5.8-0.3-11.7,0-17.5,0.8
			c-6.8,0.9-13.4,2.6-19.8,5c-1.8,0.7-1,3.6,0.8,2.9c11.2-4.1,23.1-6.1,35.1-5.7c12.1,0.4,24,3.3,36,4.5c6.8,0.7,13.6,0.8,20.4-0.2
			C274.4,105.6,273.6,102.7,271.7,103L271.7,103z"/>
	</g>
</g>
<g>
	<path class="st2" d="M190.8,103c15.1,0.2,30.1,3,44.2,8.3c1.8,0.7,3.6,1.4,4.8,2.9s1.5,3.8,0.2,5.1c15.5-1.2,28.1-15.2,43.6-14.8"
		/>
	<g>
		<path class="st2" d="M190.8,104.5c9.3,0.1,18.5,1.2,27.6,3.3c4.4,1,8.8,2.3,13.1,3.8c2,0.7,4.3,1.3,6,2.5c1.2,0.8,2.6,2.7,1.4,4.1
			c-0.8,0.9-0.3,2.7,1.1,2.6c7.9-0.6,15-4.3,21.9-7.9c6.8-3.5,13.9-7.1,21.7-6.9c1.9,0,1.9-3,0-3c-16.1-0.4-27.9,13.5-43.6,14.8
			c0.3,0.9,0.7,1.7,1.1,2.6c2.2-2.5,1.3-6.2-1.2-8.2c-1.4-1.1-3-1.8-4.6-2.4c-2-0.7-4-1.4-6-2.1c-7.9-2.5-16-4.3-24.3-5.3
			c-4.7-0.6-9.4-0.9-14.1-0.9C188.9,101.4,188.9,104.4,190.8,104.5L190.8,104.5z"/>
	</g>
</g>
<g>
	<g>
		<path class="st2" d="M128.2,82.2c-2.2,3.8-4.5,7.5-6.7,11.3c-1.1,1.8-2.2,3.6-3.2,5.5c-0.8,1.5-1.2,3.4,0.1,4.8s3.4-0.7,2.1-2.1
			c-0.4-0.4,1.5-3,1.7-3.4c1-1.6,1.9-3.2,2.9-4.9c1.9-3.2,3.8-6.4,5.7-9.6C131.8,82,129.2,80.5,128.2,82.2L128.2,82.2z"/>
	</g>
</g>
<g>
	<g>
		<path class="st2" d="M134.6,84.5c-3.7,4.5-6.9,9.4-9.5,14.7c-0.3,0.7-0.2,1.6,0.5,2s1.7,0.2,2-0.5c2.5-5,5.5-9.8,9-14.1
			c0.5-0.6,0.6-1.5,0-2.1C136.2,84,135.1,83.9,134.6,84.5L134.6,84.5z"/>
	</g>
</g>
<g>
	<g>
		<path class="st2" d="M142.7,85.8c-2.8,4-5.5,8-8.3,12c-0.5,0.7-0.1,1.7,0.5,2c0.7,0.4,1.6,0.1,2-0.5c2.8-4,5.5-8,8.3-12
			c0.5-0.7,0.1-1.7-0.5-2C144,84.8,143.1,85.1,142.7,85.8L142.7,85.8z"/>
	</g>
</g>
<g>
	<g>
		<path class="st2" d="M151,88.4c-0.7,0.5-1.3,1-1.8,1.6s-1,1.3-1.4,2c-0.2,0.4-0.3,0.8-0.2,1.2c0.1,0.4,0.4,0.7,0.7,0.9
			c0.3,0.2,0.8,0.3,1.2,0.1c0.4-0.1,0.7-0.3,0.9-0.7c0.2-0.4,0.5-0.8,0.8-1.2c-0.1,0.1-0.2,0.2-0.2,0.3c0.5-0.6,1.1-1.2,1.7-1.7
			c-0.1,0.1-0.2,0.2-0.3,0.2c0.1,0,0.1-0.1,0.2-0.1c0.3-0.2,0.6-0.5,0.7-0.9c0.1-0.4,0-0.8-0.2-1.2c-0.2-0.3-0.5-0.6-0.9-0.7
			C151.8,88.1,151.3,88.1,151,88.4L151,88.4z"/>
	</g>
</g>
<g>
	<g>
		<path class="st2" d="M165.8,85.4c-1,1-2.1,2.1-3.1,3.1c-0.3,0.3-0.4,0.7-0.4,1.1s0.2,0.8,0.4,1.1c0.3,0.3,0.7,0.5,1.1,0.4
			s0.8-0.1,1.1-0.4c1-1,2.1-2.1,3.1-3.1c0.3-0.3,0.4-0.7,0.4-1.1s-0.2-0.8-0.4-1.1c-0.3-0.3-0.7-0.5-1.1-0.4S166.1,85.1,165.8,85.4
			L165.8,85.4z"/>
	</g>
</g>
<g>
	<g>
		<path class="st2" d="M227,40.4c-5.6,3.9-9.6,9.8-11.2,16.5c-0.4,1.9,2.5,2.7,2.9,0.8c1.3-5.9,4.8-11.2,9.8-14.7
			c0.7-0.5,1-1.3,0.5-2C228.7,40.2,227.7,39.9,227,40.4L227,40.4z"/>
	</g>
</g>
<g>
	<g>
		<path class="st2" d="M212.4,40.9c-2.9,4.2-5.9,8.4-8.8,12.6c-0.5,0.7-0.1,1.7,0.5,2c0.8,0.4,1.6,0.1,2-0.5
			c2.9-4.2,5.9-8.4,8.8-12.6c0.5-0.7,0.1-1.7-0.5-2C213.7,39.9,212.9,40.2,212.4,40.9L212.4,40.9z"/>
	</g>
</g>
<g>
	<g>
		<path class="st2" d="M205.5,43.4c-3.3,1.4-6,3.7-7.8,6.9c-0.4,0.7-0.2,1.7,0.5,2c0.7,0.4,1.7,0.2,2-0.5c0.2-0.3,0.4-0.7,0.6-1
			c0.1-0.1,0.2-0.3,0.3-0.4c0-0.1,0.1-0.1,0.2-0.2c0.1-0.1-0.2,0.2,0,0c0.5-0.6,1-1.2,1.6-1.7c0.1-0.1,0.3-0.2,0.4-0.4
			c0.1-0.1,0.1-0.1,0.2-0.2c0.1-0.1,0.3-0.3,0,0c0.2-0.2,0.6-0.5,0.9-0.6c0.3-0.2,0.6-0.4,1-0.6c0.2-0.1,0.3-0.2,0.5-0.2
			c0.1,0,0.2-0.1,0.3-0.1s0.4-0.2,0,0c0.4-0.2,0.7-0.3,0.9-0.7c0.2-0.3,0.3-0.8,0.2-1.2C207.2,43.7,206.3,43,205.5,43.4L205.5,43.4z
			"/>
	</g>
</g>
<g>
	<g>
		<path class="st2" d="M227.1,19.4c11.6-4.9,24.1-7.4,36.7-7.4c1.9,0,1.9-3,0-3c-12.8,0-25.6,2.6-37.5,7.5c-0.8,0.3-1.3,1-1,1.9
			C225.4,19.1,226.3,19.7,227.1,19.4L227.1,19.4z"/>
	</g>
</g>
<g>
	<g>
		<path class="st2" d="M219.9,16.7c6.5-1.8,13.1-2.9,19.8-3.5c1.9-0.1,1.9-3.1,0-3c-7,0.5-13.9,1.7-20.6,3.6
			C217.3,14.3,218,17.2,219.9,16.7L219.9,16.7z"/>
	</g>
</g>
<g>
	<g>
		<path class="st2" d="M335.6,10.5c0,0.2-0.1,0.4-0.2,0.5c-0.1,0.2,0.1-0.2,0,0c0,0.1-0.1,0.2-0.1,0.3s-0.3,0.4-0.1,0.2
			c-0.1,0.1-0.2,0.3-0.4,0.4s-0.3,0.2-0.4,0.4c0.2-0.2-0.2,0.1-0.2,0.2c-0.2,0.1-0.3,0.2-0.5,0.3c-0.1,0-0.2,0.1-0.2,0.1
			s-0.4,0.2-0.2,0.1s-0.1,0-0.1,0c-0.1,0-0.2,0.1-0.2,0.1c-0.2,0.1-0.4,0.1-0.6,0.2c-0.4,0.1-0.8,0.2-1.2,0.3
			c-0.2,0-0.4,0.1-0.6,0.1c-0.1,0-0.2,0-0.3,0c0,0-0.3,0-0.1,0s-0.2,0-0.2,0c-0.1,0-0.2,0-0.3,0c-0.2,0-0.4,0-0.7,0.1
			c-0.8,0.1-1.5,0.6-1.5,1.5s0.7,1.4,1.5,1.5c3.6,0.2,7.3-0.1,10.8-1.1c0.8-0.2,1.3-1.1,1-1.9c-0.2-0.8-1-1.2-1.8-1
			c-2,0.4-4.1,0.2-6-0.2c-0.8-0.2-1.6,0.3-1.8,1c-0.2,0.8,0.3,1.6,1,1.9c2.5,0.6,5.1,0.7,7.6,0.2c-0.3-1-0.5-1.9-0.8-2.9
			c-3.3,0.9-6.6,1.2-10,1c0,1,0,2,0,3c3.7-0.3,8.5-1.3,9.5-5.5c0.2-0.8-0.2-1.6-1-1.9C336.7,9.3,335.8,9.7,335.6,10.5L335.6,10.5z"
			/>
	</g>
</g>
<g>
	<g>
		<path class="st2" d="M420.1,57.4c-1.4,4-2.4,8.2-3.1,12.4c1,0.1,2,0.3,3,0.4c0.3-4.8,1-9.5,2.1-14.2c-1,0-1.9,0-2.9,0
			c1.4,4.9,2.5,9.9,3.2,14.9c0.2,1.7,3.1,1.3,3-0.4c-0.4-3.7-0.8-7.5-1.2-11.2c-1,0-2,0-3,0c0.7,5.9,1.4,11.7,2.1,17.6
			c0.2,1.9,2.9,2,3,0c0.1-4.1,0.1-8.2-0.2-12.2c-0.1-1.4-2.1-2.2-2.8-0.8c-1.5,3-2.5,6.2-3,9.6c1,0.1,2,0.3,3,0.4
			c0.1-2.4-0.1-4.7-0.6-7.1c-0.2-1.1-1.8-1.4-2.5-0.7c-2.1,2.1-2.9,4.9-2.5,7.8c0.3,1.8,2.8,1.2,3-0.4c0.1-1.2,0.2-2.4,0.3-3.6
			s-1.8-2.1-2.6-1.1c-1.5,2-2.6,4.1-3.1,6.5c-0.4,1.9,2.4,2.7,2.9,0.8c0.5-1.7,0.9-3.4,1.4-5c0.5-1.7-1.8-2.5-2.7-1.2
			c-1.8,2.5-3.5,6.1-0.9,8.8c1.1,1.2,2.8,1.8,4.3,2.5c1.8,0.8,3.6,1.6,5.4,2.3c0.8,0.3,1.6-0.3,1.8-1c1.2-3.9,1.7-7.9,1.3-12
			c-0.1-1.5-2.6-2.2-3-0.4c-0.3,2-0.7,4-1.1,6.1c-0.1,0.5,0,1-0.6,0.7c-0.6-0.4-0.6-1.6-0.7-2.2c-0.1-1.2-1.6-2.1-2.6-1.1
			c-2.3,2.5-1.8,6.4,1,8.2c0.9,0.6,2.3-0.2,2.3-1.3c-0.2-2.6-1.2-5-3.2-6.7c-0.7-0.6-1.9-0.6-2.4,0.3c-1.1,2.3-0.8,4.7,0.8,6.7
			c1,1.3,2.7-0.2,2.5-1.5s-0.7-2.5-1.5-3.5c-0.7,0.7-1.4,1.4-2,2c1.5,1.1,3.2,1.8,5,2.1c1.2,0.2,2.1-0.6,1.8-1.9
			c-1-5.3-2.1-10.5-3.1-15.8c-0.3-1.8-2.8-1.2-3,0.4c-0.4,3.7-0.7,7.4-1.1,11.1c-0.2,1.9,2.8,1.9,3,0c0.4-3.7,0.7-7.4,1.1-11.1
			c-1,0.1-2,0.3-3,0.4c1,5.3,2.1,10.5,3.1,15.8c0.6-0.6,1.2-1.2,1.8-1.9c-1.6-0.2-3-0.8-4.3-1.8c-1.2-0.9-2.9,0.9-2,2
			c0.6,0.9,1,1.7,1.2,2.8c0.8-0.5,1.7-1,2.5-1.5c-0.7-0.9-0.8-2.1-0.3-3.1c-0.8,0.1-1.6,0.2-2.4,0.3c1.3,1.2,2.2,2.8,2.3,4.6
			c0.8-0.4,1.5-0.9,2.3-1.3c-1.1-0.8-1.3-2.5-0.4-3.5c-0.8-0.4-1.7-0.7-2.6-1.1c0.1,1.5,0.3,3.1,1.4,4.2c0.9,0.9,2.3,1.4,3.5,1
			c1.4-0.4,2-1.7,2.2-3.1c0.4-2,0.7-3.9,1-5.9c-1-0.1-2-0.3-3-0.4c0.3,3.8,0,7.5-1.2,11.2c0.6-0.4,1.2-0.7,1.8-1
			c-2.5-1-5.1-2-7.5-3.3c-2.5-1.4-0.8-4,0.5-5.8c-0.9-0.4-1.8-0.8-2.7-1.2c-0.5,1.7-0.9,3.4-1.4,5c1,0.3,1.9,0.5,2.9,0.8
			c0.4-1.9,1.2-3.7,2.3-5.2c-0.8-0.4-1.7-0.7-2.6-1.1c-0.1,1.2-0.2,2.4-0.3,3.6c1-0.1,2-0.3,3-0.4c-0.3-1.8,0.4-3.6,1.7-4.9
			c-0.8-0.2-1.7-0.4-2.5-0.7c0.4,2.1,0.6,4.2,0.5,6.3c-0.1,1.6,2.7,2.1,3,0.4c0.5-3.1,1.3-6.1,2.7-8.9c-0.9-0.2-1.9-0.5-2.8-0.8
			c0.2,4.1,0.3,8.2,0.2,12.2c1,0,2,0,3,0c-0.7-5.9-1.4-11.7-2.1-17.6c-0.2-1.9-3.2-1.9-3,0c0.4,3.7,0.8,7.5,1.2,11.2
			c1-0.1,2-0.3,3-0.4c-0.7-5-1.8-10-3.2-14.9c-0.4-1.4-2.5-1.5-2.9,0c-1.2,4.9-1.9,9.9-2.2,15c-0.1,1.7,2.7,2.1,3,0.4
			c0.7-4.2,1.8-8.3,3.1-12.4C423.6,56.4,420.7,55.6,420.1,57.4L420.1,57.4z"/>
	</g>
</g>
<g>
	<g>
		<path class="st2" d="M383.9,90.5c-5.6,9.8-9.6,20.5-11.7,31.6c-0.4,1.9,2.5,2.7,2.9,0.8c2.1-10.9,6-21.3,11.4-30.9
			C387.5,90.3,384.9,88.8,383.9,90.5L383.9,90.5z"/>
	</g>
</g>
<g>
	<g>
		<path class="st2" d="M383.1,101.7c-2.4,9.1-5.1,18.2-8,27.2c-0.6,1.8,2.3,2.6,2.9,0.8c3-9,5.6-18.1,8-27.2
			C386.5,100.7,383.6,99.9,383.1,101.7L383.1,101.7z"/>
	</g>
</g>
<g>
	<g>
		<path class="st2" d="M383.2,120c-2.2,5.6-3.1,11.6-2.6,17.6c0.1,1.9,3.1,1.9,3,0c-0.4-5.7,0.4-11.5,2.5-16.8
			c0.3-0.8-0.3-1.6-1-1.9C384.2,118.7,383.5,119.2,383.2,120L383.2,120z"/>
	</g>
</g>
<g>
	<g>
		<path class="st2" d="M329.5,90.5c2.6,11.6,9.5,22,19.2,29c1.6,1.1,3.1-1.5,1.5-2.6c-9-6.5-15.4-16.3-17.8-27.2
			C332,87.9,329.1,88.7,329.5,90.5L329.5,90.5z"/>
	</g>
</g>
<g>
	<g>
		<path class="st2" d="M336.6,104.8c2.6,3.1,5.2,6.2,7.8,9.4c0.5,0.6,1.6,0.6,2.1,0c0.6-0.6,0.5-1.5,0-2.1c-2.6-3.1-5.2-6.2-7.8-9.4
			c-0.5-0.6-1.6-0.6-2.1,0C336,103.3,336.1,104.2,336.6,104.8L336.6,104.8z"/>
	</g>
</g>
<g>
	<g>
		<path class="st2" d="M337.1,101.2c3.3,2.8,6.6,5.6,9.9,8.4c0.6,0.5,1.5,0.6,2.1,0c0.5-0.5,0.6-1.6,0-2.1c-3.3-2.8-6.6-5.6-9.9-8.4
			c-0.6-0.5-1.5-0.6-2.1,0C336.6,99.6,336.5,100.6,337.1,101.2L337.1,101.2z"/>
	</g>
</g>
<g>
	<g>
		<path class="st2" d="M338.9,99.8c3.5,1.3,6.9,3,10,5.2c0.7,0.5,1.7,0.1,2-0.5c0.4-0.7,0.1-1.6-0.5-2c-3.3-2.3-7-4.1-10.7-5.5
			c-0.8-0.3-1.6,0.3-1.8,1C337.7,98.8,338.2,99.6,338.9,99.8L338.9,99.8z"/>
	</g>
</g>
<g>
	<path class="st2" d="M386.6,184.8c-4.7,3.3-11.3,1.9-16.2-1s-9.1-7.1-14.3-9.5s-12.3-2.4-15.8,2.1c-2.9,3.7-2.4,9.4-5.5,12.9
		c-1.5,1.8-3.8,2.8-5.9,3.9c-6.2,3.2-11.9,7.3-17,12.1c-3.6,3.5-6.9,7.4-11.2,9.8c-8.6,4.8-20.8,3.6-26.8,11.4
		c-0.4,0.6-0.8,1.3-0.6,2c0.3,0.8,1.3,1,2.1,1.1c23.8,2.8,45.9-14,69.8-15.2c6-0.3,12.3,0.4,18-1.8c4.9-1.8,8.8-5.5,12.5-9.2
		c3.8-3.7,7.7-7.4,11.5-11.1c1.1-1.1,2.3-2.3,2.3-3.9s-2-3-3.1-1.9"/>
	<g>
		<path class="st2" d="M385.9,183.5c-3.8,2.6-8.7,1.9-12.6,0.1c-4.4-2-8-5.4-12-8.1c-3.6-2.4-7.7-4.3-12.1-4.3
			c-4,0-7.9,1.4-10.3,4.8c-2.5,3.5-2.2,8.2-4.7,11.8c-1.3,2-3.6,3-5.7,4c-2.2,1.1-4.3,2.3-6.4,3.7c-4.3,2.8-8.3,6-12,9.6
			c-3.4,3.4-6.6,7-10.9,9.2c-7.1,3.6-15.8,3.3-22.6,7.8c-1.6,1.1-3.2,2.4-4.2,4c-1.3,2-0.5,4.2,1.8,4.8c2.1,0.6,4.7,0.5,6.8,0.5
			c2.3,0,4.7-0.2,7-0.5c19.1-2.5,36.1-13.3,55.4-14.9c5.2-0.4,10.5,0,15.7-0.8c5.1-0.8,9.4-3.2,13.2-6.5c4.2-3.5,8-7.5,11.9-11.2
			c1.8-1.8,4-3.5,5.5-5.5c1.4-1.7,2.1-4.1,0.5-5.9c-1.3-1.5-3.2-1.8-4.7-0.5c-1.5,1.2,0.7,3.4,2.1,2.1c-0.2,0.1,0.2,0.1,0.3,0.3
			c0.2,0.3,0.3,0.4,0.2,0.9c-0.2,1.1-1.3,1.9-2,2.6c-1.9,1.9-3.8,3.7-5.8,5.5c-3.5,3.4-6.9,6.9-10.6,10c-3.8,3.2-8.1,5.1-13.1,5.5
			c-4.8,0.5-9.7,0.1-14.5,0.6c-17.9,1.9-33.9,11.2-51.6,14.4c-4.3,0.8-8.7,1.1-13,0.8c-0.7,0-2.2,0.1-2.8-0.3s-0.1,0,0-0.1
			c0-0.2,0.3-0.4,0.4-0.6c0.3-0.4,0.7-0.8,1.1-1.2c1.2-1.2,2.7-2.1,4.3-2.9c6.8-3.2,14.7-3.2,21.3-7c4-2.3,7.1-5.7,10.3-8.9
			c3.4-3.3,7-6.3,11-8.9c1.9-1.3,4-2.5,6-3.5c1.9-1,3.9-1.9,5.6-3.4c3.2-2.7,3.8-6.9,5.1-10.6c1.2-3.7,3.7-6.1,7.6-6.6
			c4.1-0.5,7.8,1,11.2,3.1c7.2,4.5,13.8,11.8,23.2,10.7c2-0.2,3.9-0.9,5.6-2C389,185,387.5,182.4,385.9,183.5L385.9,183.5z"/>
	</g>
</g>
<g>
	<g>
		<path class="st1" d="M105.7,209c-9.3,1.9-18.5,4.3-27.6,7.2c-1.8,0.6-1,3.5,0.8,2.9c9-3,18.2-5.4,27.6-7.2
			C108.4,211.5,107.6,208.7,105.7,209L105.7,209z"/>
	</g>
</g>
<g>
	<g>
		<path class="st1" d="M101.8,214.1c-4,1.5-7.9,3-11.9,4.5c-2,0.7-3.9,1.5-5.8,2.2c-1.5,0.5-3.8,1.6-3,3.6c0.3,0.8,1,1.3,1.8,1
			c0.7-0.2,1.3-1.1,1-1.9c-0.3,0.5-0.2,0.6,0.1,0.4c0.1,0,0.3-0.1,0.4-0.2c0.4-0.2,0.8-0.3,1.3-0.5c0.7-0.3,1.5-0.5,2.2-0.8
			c1.6-0.6,3.3-1.2,4.9-1.9c3.2-1.2,6.5-2.4,9.7-3.6C104.4,216.3,103.7,213.4,101.8,214.1L101.8,214.1z"/>
	</g>
</g>
<g>
	<g>
		<path class="st1" d="M106.2,217.9c-7.5,2.5-15,5.1-22.5,7.6c-1.3,0.4-1.6,2.6,0,2.9c0.6,0.1,1.3,0.2,1.9,0.4
			c1.9,0.4,2.7-2.5,0.8-2.9c-0.6-0.1-1.3-0.2-1.9-0.4c0,1,0,1.9,0,2.9c7.5-2.5,15-5.1,22.5-7.6C108.8,220.2,108.1,217.3,106.2,217.9
			L106.2,217.9z"/>
	</g>
</g>
<g>
	<g>
		<path class="st1" d="M103.3,224.9c-3.1,1.3-6.2,2.6-9.3,3.9c-0.7,0.3-1.3,1-1,1.9c0.2,0.7,1.1,1.4,1.8,1c3.1-1.3,6.2-2.6,9.3-3.9
			c0.7-0.3,1.3-1,1-1.9C105,225.3,104.1,224.6,103.3,224.9L103.3,224.9z"/>
	</g>
</g>
<g>
	<g>
		<path class="st1" d="M200.1,174.5c-18.5,2.7-37,6.2-55.2,10.5c-1.9,0.4-1.1,3.3,0.8,2.9c18.2-4.3,36.6-7.8,55.2-10.5
			C202.8,177.1,202,174.2,200.1,174.5L200.1,174.5z"/>
	</g>
</g>
<g>
	<g>
		<path class="st1" d="M138.1,189.4c-9.4,0.4-18.7,1.3-27.9,2.8c-1.9,0.3-1.1,3.2,0.8,2.9c9-1.4,18-2.3,27.1-2.7
			C140,192.4,140,189.4,138.1,189.4L138.1,189.4z"/>
	</g>
</g>
<g>
	<g>
		<path class="st1" d="M177,185c-14.9,4.4-30,8.2-45.2,11.3c-1.9,0.4-1.1,3.3,0.8,2.9c15.2-3.1,30.3-6.8,45.2-11.3
			C179.6,187.3,178.8,184.4,177,185L177,185z"/>
	</g>
</g>
<g>
	<g>
		<path class="st1" d="M182.1,200.5c-6.2,2.6-11.8,6.2-16.9,10.6c-0.6,0.5-0.5,1.6,0,2.1c0.6,0.6,1.5,0.5,2.1,0
			c4.9-4.2,10.4-7.6,16.3-10.1c0.7-0.3,0.9-1.4,0.5-2C183.7,200.3,182.8,200.2,182.1,200.5L182.1,200.5z"/>
	</g>
</g>
<g>
	<g>
		<path class="st1" d="M174.2,210.7c-0.7,0.3-1.3,0.7-2,1c-0.2,0.1-0.3,0.2-0.4,0.4c-0.1,0.1-0.2,0.3-0.3,0.5s-0.1,0.4,0,0.6
			c0,0.2,0.1,0.4,0.2,0.6c0.2,0.3,0.5,0.6,0.9,0.7c0.1,0,0.3,0,0.4,0c0.3,0,0.5-0.1,0.8-0.2c0.7-0.3,1.3-0.7,2-1
			c0.2-0.1,0.3-0.2,0.4-0.4c0.1-0.1,0.2-0.3,0.3-0.5s0.1-0.4,0-0.6c0-0.2-0.1-0.4-0.2-0.6c-0.2-0.3-0.5-0.6-0.9-0.7
			c-0.1,0-0.3,0-0.4,0C174.7,210.5,174.4,210.6,174.2,210.7L174.2,210.7z"/>
	</g>
</g>
<g>
	<g>
		<path class="st1" d="M303.8,214.3c1.8,3.3,3.6,6.6,5.3,9.9c0.4,0.7,1.4,0.9,2,0.5c0.7-0.4,0.9-1.3,0.5-2c-1.8-3.3-3.6-6.6-5.3-9.9
			c-0.4-0.7-1.4-0.9-2-0.5C303.6,212.6,303.4,213.5,303.8,214.3L303.8,214.3z"/>
	</g>
</g>
<g>
	<g>
		<path class="st1" d="M310.9,216.1c0.4,0.4,0.8,0.7,1.1,1.1c0.1,0.1,0.2,0.2,0.3,0.3l0.1,0.1c0.2,0.2,0,0,0-0.1
			c0.2,0.2,0.3,0.4,0.5,0.6c0.3,0.4,0.5,0.9,0.8,1.3c0.1,0.1,0.1,0.2,0.2,0.4c0,0.1,0.1,0.1,0.1,0.2c0.1,0.2-0.1-0.3,0-0.1
			c0.1,0.3,0.2,0.5,0.3,0.8c0.2,0.7,1,1.3,1.8,1c0.7-0.2,1.3-1,1-1.9c-0.8-2.3-2.1-4.4-4-6c-0.3-0.3-0.7-0.4-1.1-0.4
			c-0.4,0-0.8,0.2-1.1,0.4C310.4,214.5,310.3,215.5,310.9,216.1L310.9,216.1z"/>
	</g>
</g>
<g>
	<g>
		<path class="st1" d="M317.1,211.3c2.7,3.4,5.4,6.8,8.1,10.2c0.5,0.6,1.6,0.5,2.1,0c0.6-0.6,0.5-1.5,0-2.1
			c-2.7-3.4-5.4-6.8-8.1-10.2c-0.5-0.6-1.6-0.5-2.1,0C316.5,209.8,316.6,210.6,317.1,211.3L317.1,211.3z"/>
	</g>
</g>
<g>
	<g>
		<path class="st1" d="M325.4,212.3c1.4,2.3,3.1,4.4,5.2,6.2c0.6,0.5,1.5,0.6,2.1,0c0.5-0.6,0.6-1.6,0-2.1c-1-0.8-1.8-1.8-2.7-2.7
			c-0.2-0.2-0.4-0.5-0.6-0.7c0,0.1,0.2,0.2,0,0.1c0-0.1-0.1-0.1-0.2-0.2c-0.1-0.1-0.2-0.2-0.3-0.4c-0.4-0.5-0.7-1.1-1.1-1.6
			c-0.4-0.7-1.4-1-2-0.5C325.3,210.7,325,211.6,325.4,212.3L325.4,212.3z"/>
	</g>
</g>
<g>
	<g>
		<path class="st1" d="M371.9,190.4c0,4.8,0,9.5,0,14.3c0,1.9,3,1.9,3,0c0-4.8,0-9.5,0-14.3C374.9,188.5,371.9,188.5,371.9,190.4
			L371.9,190.4z"/>
	</g>
</g>
<g>
	<g>
		<path class="st1" d="M377.9,188.9c-0.2,3.8-0.4,7.5-0.6,11.3c0,0.8,0.7,1.5,1.5,1.5s1.5-0.7,1.5-1.5c0.2-3.8,0.4-7.5,0.6-11.3
			c0-0.8-0.7-1.5-1.5-1.5C378.5,187.4,377.9,188.1,377.9,188.9L377.9,188.9z"/>
	</g>
</g>
<g>
	<g>
		<path class="st1" d="M384.3,184.5c0.2,2.8,0.5,5.6,0.7,8.4c0.1,0.8,0.6,1.5,1.5,1.5c0.8,0,1.6-0.7,1.5-1.5
			c-0.2-2.8-0.5-5.6-0.7-8.4c-0.1-0.8-0.6-1.5-1.5-1.5C385.1,183,384.3,183.6,384.3,184.5L384.3,184.5z"/>
	</g>
</g>
<g>
	<g>
		<path class="st1" d="M386.6,158.4c5.5,3.7,12.1,5.6,18.7,5.3c1.9-0.1,1.9-3.1,0-3c-6.1,0.3-12.1-1.4-17.2-4.9
			C386.5,154.7,385,157.3,386.6,158.4L386.6,158.4z"/>
	</g>
</g>
<g>
	<g>
		<path class="st1" d="M391.7,167.1c4.1,0.9,8.1,1.9,12.2,2.8c0.8,0.2,1.6-0.2,1.8-1s-0.2-1.7-1-1.9c-4.1-0.9-8.1-1.9-12.2-2.8
			c-0.8-0.2-1.6,0.2-1.8,1C390.4,166,390.9,166.9,391.7,167.1L391.7,167.1z"/>
	</g>
</g>
<g>
	<g>
		<path class="st1" d="M393.2,171.5c2.4,1.8,5.2,2.8,8.1,3.1c0.8,0.1,1.5-0.8,1.5-1.5c0-0.9-0.7-1.4-1.5-1.5c-0.2,0-0.2,0,0,0
			c-0.1,0-0.2,0-0.2,0c-0.2,0-0.3-0.1-0.5-0.1c-0.3-0.1-0.6-0.1-0.9-0.2c-0.6-0.2-1.3-0.4-1.9-0.6c-0.1,0-0.1,0-0.2-0.1
			c0.2,0.1,0.2,0.1,0,0s-0.3-0.1-0.5-0.2c-0.3-0.1-0.6-0.3-0.8-0.4c-0.6-0.3-1.1-0.7-1.7-1.1c-0.6-0.5-1.7-0.1-2,0.5
			C392.3,170.2,392.6,171,393.2,171.5L393.2,171.5z"/>
	</g>
</g>
<g>
	<g>
		<path class="st1" d="M417.8,65.2c-0.4,0.9-0.9,1.8-1.5,2.6c-0.1,0.2-0.3,0.4-0.4,0.6c0.1-0.1,0.2-0.3,0-0.1l-0.1,0.1
			c-0.1,0.1-0.2,0.2-0.2,0.3c-0.3,0.4-0.7,0.8-1,1.1c-0.6,0.5-0.6,1.6,0,2.1c0.6,0.6,1.5,0.6,2.1,0c1.5-1.5,2.8-3.3,3.7-5.2
			c0.2-0.4,0.3-0.7,0.2-1.2c-0.1-0.4-0.4-0.7-0.7-0.9C419.2,64.3,418.1,64.5,417.8,65.2L417.8,65.2z"/>
	</g>
</g>
<g>
	<g>
		<path class="st1" d="M422.6,70c-2.7,0.9-5.1,2.3-7.1,4.2c-0.6,0.5-0.6,1.6,0,2.1c0.6,0.6,1.5,0.6,2.1,0c0.2-0.2,0.5-0.4,0.7-0.6
			c0.1-0.1,0.2-0.2,0.3-0.3c0,0,0.2-0.2,0.1,0c-0.2,0.1,0,0,0.1,0c0.5-0.4,1-0.7,1.5-1s1-0.6,1.6-0.8c0.1,0,0.3-0.1,0.4-0.2
			c0,0-0.3,0.1-0.1,0c0.1,0,0.1,0,0.2-0.1c0.3-0.1,0.6-0.2,0.9-0.3c0.7-0.2,1.3-1,1-1.9C424.2,70.3,423.4,69.7,422.6,70L422.6,70z"
			/>
	</g>
</g>
<g>
	<g>
		<path class="st1" d="M424.6,73.9c-2.6,0.5-5,1.6-7.1,3.3c-0.6,0.5-0.5,1.6,0,2.1c0.7,0.6,1.5,0.5,2.1,0c0.1,0,0.1-0.1,0.2-0.1
			c-0.2,0.1-0.2,0.1,0,0c0.1-0.1,0.2-0.2,0.3-0.2c0.2-0.2,0.5-0.3,0.7-0.5c0.5-0.3,1-0.6,1.5-0.8c0.1,0,0.1-0.1,0.2-0.1
			c-0.2,0.1-0.2,0.1-0.1,0c0.1,0,0.3-0.1,0.4-0.2c0.3-0.1,0.5-0.2,0.8-0.3c0.5-0.2,1.1-0.3,1.7-0.4c0.8-0.1,1.3-1.1,1-1.9
			C426.1,74.1,425.4,73.7,424.6,73.9L424.6,73.9z"/>
	</g>
</g>
<g>
	<g>
		<path class="st1" d="M358.7,46.7c-4.1,3.1-7.9,6.6-11.2,10.5c-0.5,0.6-0.6,1.5,0,2.1c0.5,0.5,1.6,0.6,2.1,0
			c3.2-3.7,6.7-7.1,10.6-10c0.7-0.5,1-1.3,0.5-2C360.4,46.6,359.4,46.2,358.7,46.7L358.7,46.7z"/>
	</g>
</g>
<g>
	<g>
		<path class="st1" d="M362.8,51.8c-3.9,2.9-7.7,6.1-11,9.6c-0.6,0.6-0.6,1.5,0,2.1c0.6,0.6,1.6,0.6,2.1,0c3.2-3.3,6.7-6.4,10.5-9.2
			c0.7-0.5,1-1.3,0.5-2C364.5,51.7,363.4,51.4,362.8,51.8L362.8,51.8z"/>
	</g>
</g>
<g>
	<g>
		<path class="st1" d="M367.6,54.2c-3.7,3.7-7.4,7.4-11.1,11c-1.4,1.4,0.8,3.5,2.1,2.1c3.7-3.7,7.4-7.4,11.1-11
			C371.1,55,368.9,52.9,367.6,54.2L367.6,54.2z"/>
	</g>
</g>
<g>
	<g>
		<path class="st1" d="M371,57.2c-3.5,3.1-7.2,5.9-11.2,8.3c-1.7,1-0.2,3.6,1.5,2.6c4.2-2.5,8.2-5.5,11.8-8.8c0.6-0.5,0.5-1.6,0-2.1
			C372.5,56.6,371.6,56.7,371,57.2L371,57.2z"/>
	</g>
</g>
<g>
	<g>
		<path class="st1" d="M372.2,60.3c-4.1,3.1-8,6.4-11.8,9.9c-0.6,0.5-0.6,1.6,0,2.1c0.6,0.6,1.5,0.5,2.1,0c3.6-3.3,7.3-6.5,11.2-9.4
			c0.6-0.5,1-1.3,0.5-2C373.8,60.2,372.8,59.8,372.2,60.3L372.2,60.3z"/>
	</g>
</g>
<g>
	<g>
		<path class="st1" d="M375.5,63.7c-4.7,4.2-9.5,8.5-14.2,12.8c-1.4,1.3,0.7,3.4,2.1,2.1c4.7-4.2,9.5-8.5,14.2-12.8
			C379.1,64.6,377,62.4,375.5,63.7L375.5,63.7z"/>
	</g>
</g>
<g>
	<g>
		<path class="st1" d="M372.9,70.9c-3.6,3.4-7.2,6.9-10.8,10.3c-0.6,0.6-0.6,1.6,0,2.1c0.6,0.6,1.5,0.6,2.1,0
			c3.6-3.4,7.2-6.9,10.8-10.3c0.6-0.6,0.6-1.6,0-2.1C374.4,70.3,373.5,70.3,372.9,70.9L372.9,70.9z"/>
	</g>
</g>
<g>
	<g>
		<path class="st1" d="M384.4,27.3c-1.4,1.9-2.7,3.9-4.1,5.8c-0.5,0.6-0.1,1.7,0.5,2c0.8,0.4,1.6,0.1,2-0.5c1.4-1.9,2.7-3.9,4.1-5.8
			c0.5-0.6,0.1-1.7-0.5-2C385.7,26.4,384.8,26.6,384.4,27.3L384.4,27.3z"/>
	</g>
</g>
<g>
	<g>
		<path class="st1" d="M386.1,32.9c-2.5,3-5.3,5.8-8.4,8.3c-0.6,0.5-0.6,1.6,0,2.1c0.7,0.6,1.5,0.5,2.1,0c3.1-2.5,5.9-5.3,8.4-8.3
			c0.5-0.6,0.6-1.5,0-2.1C387.7,32.4,386.6,32.3,386.1,32.9L386.1,32.9z"/>
	</g>
</g>
<g>
	<g>
		<path class="st1" d="M382.5,43.6c-0.3,0.4-0.6,0.8-0.9,1.2c0,0.1-0.1,0.2,0,0c-0.1,0.1-0.2,0.2-0.2,0.3c-0.2,0.2-0.3,0.4-0.5,0.6
			c-0.6,0.7-1.2,1.4-1.9,2.1c-1.3,1.4-2.7,2.6-4.2,3.8c-0.6,0.5-0.5,1.6,0,2.1c0.7,0.6,1.5,0.5,2.1,0c3.1-2.5,5.8-5.4,8.1-8.6
			c0.5-0.6,0.1-1.7-0.5-2C383.7,42.6,382.9,42.9,382.5,43.6L382.5,43.6z"/>
	</g>
</g>
<g>
	<g>
		<path class="st1" d="M380.7,50.7c-1.5,1.8-3,3.5-4.6,5.3c-0.3,0.3-0.4,0.6-0.4,1.1c0,0.4,0.2,0.8,0.4,1.1c0.6,0.5,1.6,0.6,2.1,0
			c1.5-1.8,3-3.5,4.6-5.3c0.3-0.3,0.4-0.6,0.4-1.1c0-0.4-0.2-0.8-0.4-1.1C382.3,50.1,381.3,50,380.7,50.7L380.7,50.7z"/>
	</g>
</g>
<g>
	<g>
		<path class="st1" d="M380.7,55.5c-0.3,0.3-0.7,0.7-1,1c-0.2,0.1-0.2,0.3-0.3,0.5s-0.1,0.4-0.1,0.6s0,0.4,0.1,0.6s0.2,0.4,0.3,0.5
			s0.2,0.2,0.3,0.2c0.2,0.1,0.5,0.2,0.8,0.2c0.1,0,0.3,0,0.4,0c0.2-0.1,0.5-0.2,0.7-0.4c0.3-0.3,0.7-0.7,1-1
			c0.2-0.1,0.2-0.3,0.3-0.5s0.1-0.4,0.1-0.6s0-0.4-0.1-0.6s-0.2-0.4-0.3-0.5s-0.2-0.2-0.3-0.2c-0.2-0.1-0.5-0.2-0.8-0.2
			c-0.1,0-0.3,0-0.4,0C381.1,55.2,380.8,55.4,380.7,55.5L380.7,55.5z"/>
	</g>
</g>
<g>
	<g>
		<path class="st1" d="M255,82.6c-2.5,2.4-4.6,5.1-6.2,8.1c-0.4,0.7-0.2,1.7,0.5,2c0.7,0.4,1.6,0.2,2-0.5s0.8-1.4,1.2-2
			c0.2-0.3,0.5-0.7,0.7-1c0.1-0.2,0.2-0.3,0.4-0.5c0-0.1,0.1-0.1,0.2-0.2c0,0,0.2-0.3,0.1-0.2c-0.1,0.1,0.1-0.1,0.1-0.1
			c0.1-0.1,0.1-0.1,0.2-0.2c0.1-0.2,0.3-0.3,0.4-0.5c0.3-0.3,0.5-0.6,0.8-0.9c0.5-0.6,1.1-1.2,1.7-1.8c0.6-0.5,0.6-1.6,0-2.1
			C256.5,82.1,255.6,82.1,255,82.6L255,82.6z"/>
	</g>
</g>
<g>
	<g>
		<path class="st1" d="M262,81.4c-2.5,3.4-5,6.8-7.5,10.3c-0.5,0.7-0.1,1.7,0.5,2c0.8,0.4,1.6,0.1,2-0.5c2.5-3.4,5-6.8,7.5-10.3
			c0.5-0.7,0.1-1.7-0.5-2C263.3,80.4,262.5,80.8,262,81.4L262,81.4z"/>
	</g>
</g>
<g>
	<g>
		<path class="st1" d="M273.1,79.6c-3.6,3.4-6.7,7.3-9.2,11.5c-1,1.7,1.6,3.2,2.6,1.5c2.4-4,5.4-7.7,8.8-10.9c0.6-0.6,0.6-1.6,0-2.1
			C274.6,79.1,273.7,79.1,273.1,79.6L273.1,79.6z"/>
	</g>
</g>
<g>
	<g>
		<path class="st1" d="M277.7,78.4c-2.1,3.3-4.2,6.6-6.3,9.9c-0.4,0.7-0.1,1.6,0.5,2c0.7,0.4,1.6,0.1,2-0.5c2.1-3.3,4.2-6.6,6.3-9.9
			c0.4-0.7,0.1-1.6-0.5-2C279,77.5,278.2,77.8,277.7,78.4L277.7,78.4z"/>
	</g>
</g>
<g>
	<g>
		<path class="st1" d="M287.5,76c-2.2,2.9-4.3,5.9-6.4,8.8c-0.5,0.6-0.1,1.7,0.5,2c0.8,0.4,1.6,0.1,2-0.5c2.2-2.9,4.3-5.9,6.4-8.8
			c0.5-0.6,0.1-1.7-0.5-2C288.8,75,288,75.3,287.5,76L287.5,76z"/>
	</g>
</g>
<g>
	<g>
		<path class="st1" d="M322.2,126.4c-6.1,5.2-12.2,10.3-18.4,15.5c-1.5,1.2,0.7,3.4,2.1,2.1c6.1-5.2,12.2-10.3,18.4-15.5
			C325.8,127.3,323.7,125.1,322.2,126.4L322.2,126.4z"/>
	</g>
</g>
<g>
	<g>
		<path class="st1" d="M330.8,130.1c-4.8,6.4-10.6,12-17,16.8c-0.7,0.5-1,1.3-0.5,2c0.4,0.6,1.4,1,2,0.5c6.9-5.1,13-11.1,18.1-17.9
			c0.5-0.6,0.1-1.7-0.5-2C332.1,129.1,331.3,129.4,330.8,130.1L330.8,130.1z"/>
	</g>
</g>
<g>
	<g>
		<path class="st1" d="M338.7,134.1c-3.6,4.7-7.7,9-12.1,12.9c-0.6,0.5-0.5,1.6,0,2.1c0.6,0.6,1.5,0.5,2.1,0
			c4.6-4.1,8.8-8.6,12.6-13.5c0.5-0.6,0.1-1.7-0.5-2C340,133.1,339.2,133.4,338.7,134.1L338.7,134.1z"/>
	</g>
</g>
<g>
	<g>
		<path class="st1" d="M346.7,137.1c-3.9,3.8-7.9,7.5-11.8,11.3c-1.4,1.3,0.7,3.5,2.1,2.1c3.9-3.8,7.9-7.5,11.8-11.3
			C350.2,137.9,348.1,135.8,346.7,137.1L346.7,137.1z"/>
	</g>
</g>
<g>
	<g>
		<path class="st1" d="M347.8,141.1c-2.3,2.3-4.6,4.6-6.9,6.9c-0.6,0.6-0.6,1.6,0,2.1s1.5,0.6,2.1,0c2.3-2.3,4.6-4.6,6.9-6.9
			c0.6-0.6,0.6-1.6,0-2.1S348.3,140.5,347.8,141.1L347.8,141.1z"/>
	</g>
</g>
<g>
	<g>
		<path class="st1" d="M80.6,99.3c-8.4,2.1-16.1,6-22.8,11.5c-1.5,1.2,0.6,3.4,2.1,2.1c6.2-5.2,13.6-8.8,21.5-10.8
			C83.3,101.7,82.5,98.8,80.6,99.3L80.6,99.3z"/>
	</g>
</g>
<g>
	<g>
		<path class="st1" d="M69.5,107.8c-1,0.7-2,1.3-3,2c-0.3,0.2-0.6,0.5-0.7,0.9c-0.1,0.4,0,0.8,0.2,1.2c0.2,0.3,0.5,0.6,0.9,0.7
			s0.8,0.1,1.2-0.1c1-0.7,2-1.3,3-2c0.3-0.2,0.6-0.5,0.7-0.9c0.1-0.4,0-0.8-0.2-1.2c-0.2-0.3-0.5-0.6-0.9-0.7
			C70.2,107.5,69.8,107.5,69.5,107.8L69.5,107.8z"/>
	</g>
</g>
<g>
	<g>
		<path class="st1" d="M162.9,111.5c19.6-1.7,38.1-10.6,57.9-10.7c5.5,0,10.9,0.7,16.1,2.4c1.8,0.6,2.6-2.3,0.8-2.9
			c-19.3-6.4-39.2,0.8-58,5.3c-5.5,1.3-11.1,2.4-16.8,2.9C161,108.7,161,111.7,162.9,111.5L162.9,111.5z"/>
	</g>
</g>
<g>
	<g>
		<path class="st1" d="M205.4,37.5c5.1,0.9,10.2,0.8,15.3,0c2.1-0.3,4.5-0.8,6.5,0.2s3.6,2.6,6,1.9c1.8-0.5,1.1-3.4-0.8-2.9
			c-1,0.3-1.9-0.5-2.6-1c-0.9-0.6-1.8-1-2.9-1.3c-2-0.5-4.1-0.2-6.1,0.1c-4.9,0.7-9.7,0.9-14.5,0.1
			C204.3,34.2,203.5,37.1,205.4,37.5L205.4,37.5z"/>
	</g>
</g>
</svg>
