<?xml version="1.0" encoding="utf-8"?>
<!-- Generator: Adobe Illustrator 27.7.0, SVG Export Plug-In . SVG Version: 6.00 Build 0)  -->
<svg version="1.1" id="Layer_1" xmlns="http://www.w3.org/2000/svg" xmlns:xlink="http://www.w3.org/1999/xlink" x="0px" y="0px"
	 viewBox="0 0 1366 768" style="enable-background:new 0 0 1366 768;" xml:space="preserve">
<style type="text/css">
	.st0{fill:#996600;}
	.st1{fill:#824D00;}
	.st2{fill:#603813;}
	.st3{fill:#878166;}
	.st4{fill:#AFA475;}
	.st5{fill:#D3C690;}
</style>
<g>
	<path class="st0" d="M566.89,231c-35.07,8.45-69.13,21.41-101.15,38.5c-17.02,9.08-33.65,19.48-47.16,33.55
		c-21.7,22.61-34.22,54.43-33.95,86.35c0.25,30.58,11.57,59.74,22.72,88.04c6.53,16.59,13.29,33.55,24.92,46.8
		c22.53,25.66,58.32,32.34,91.38,37.56c61.6,9.74,124.49,19.47,185.91,8.55c27-4.8,53.2-13.53,79.17-22.58
		c27.64-9.63,55.15-19.67,82.52-30.1c8.47-3.23,17.23-6.7,23.48-13.46c5.28-5.71,8.27-13.25,11.05-20.62
		c18.89-50.01,34.02-101.55,45.2-153.99c2.03-9.5,3.93-19.22,2.95-28.9c-0.92-9.09-4.35-17.71-8.43-25.81
		c-21.05-41.81-63.46-73.44-108.89-72.72c-7.94,0.13-15.9,1.19-23.78,0.21c-9.55-1.18-18.48-5.3-27.47-8.83
		c-76.54-30.08-169.55-16.41-229.83,41.07"/>
	<g>
		<path class="st0" d="M566.49,229.56c-27.08,6.56-53.49,15.74-78.81,27.38c-23.64,10.88-47.74,23.38-66.66,41.55
			c-17.73,17.03-29.88,39.53-35.05,63.52c-5.64,26.13-1.86,52.51,6.02,77.76c4.22,13.52,9.42,26.71,14.62,39.88
			c4.68,11.85,9.49,23.79,16.35,34.58c12.46,19.61,31.74,31.77,53.52,38.87c23.9,7.8,49.42,10.7,74.19,14.41
			c28.65,4.29,57.45,7.96,86.43,8.92c29.08,0.96,58.23-1,86.65-7.42c28.08-6.35,55.28-16.15,82.37-25.77
			c14.15-5.03,28.26-10.16,42.33-15.39c7.04-2.62,14.07-5.26,21.09-7.93c5.64-2.15,11.37-4.24,16.64-7.23
			c5.04-2.87,9.42-6.58,12.76-11.35c3.42-4.88,5.67-10.48,7.79-16.02c5.1-13.36,9.87-26.84,14.4-40.41
			c9.22-27.65,17.31-55.68,24.23-83.99c3.4-13.91,7-27.95,9.22-42.1c1.06-6.74,1.54-13.56,0.59-20.34
			c-0.88-6.22-2.86-12.2-5.35-17.95c-17.49-40.39-56.15-74.23-100.74-79.26c-5.95-0.67-11.89-0.7-17.86-0.41
			c-7.37,0.36-14.74,0.9-22.03-0.61c-12.53-2.59-24.13-8.83-36.27-12.75c-21.22-6.84-43.48-10.49-65.76-10.92
			c-44.67-0.88-89.85,11.24-127,36.34c-9.11,6.15-17.69,13.07-25.67,20.63c-1.4,1.33,0.72,3.45,2.12,2.12
			c32.19-30.55,74.37-49.11,118.27-54.46c21.84-2.66,44.1-2.18,65.79,1.5c10.93,1.85,21.73,4.5,32.26,7.95
			c11.56,3.78,22.58,9.57,34.46,12.27c12.52,2.84,25.31,0.05,37.98,1c10.75,0.8,21.32,3.46,31.29,7.52
			c20.46,8.33,38.3,22.66,52.01,39.87c7.15,8.98,13.25,18.88,17.95,29.35c2.85,6.35,5.12,13.09,5.83,20.04
			c0.72,7.05-0.12,14.14-1.4,21.07c-5.09,27.52-12.36,54.81-20.14,81.67c-7.8,26.92-16.65,53.54-26.56,79.75
			c-2.17,5.75-4.43,11.57-7.99,16.63c-3.68,5.24-8.82,8.94-14.5,11.76c-5.91,2.94-12.21,5.1-18.37,7.43
			c-6.67,2.52-13.35,5.02-20.04,7.5c-26.78,9.91-53.65,19.73-80.82,28.5c-26.93,8.69-54.31,15.35-82.58,17.57
			c-28.28,2.22-56.71,0.8-84.88-2.23c-27.5-2.95-54.94-7.13-82.19-11.83c-21.83-3.76-44.33-8.81-63.11-21.11
			c-9.82-6.43-17.99-14.82-24.28-24.72c-6.9-10.85-11.7-22.85-16.4-34.77c-10.03-25.43-20.37-51.48-22.59-78.99
			c-2-24.76,3.46-49.8,15.72-71.43c12.53-22.1,31.77-38.11,53.48-50.75c23.29-13.57,48.18-24.61,73.68-33.32
			c12.44-4.25,25.08-7.91,37.85-11.01C569.17,232,568.37,229.1,566.49,229.56L566.49,229.56z"/>
	</g>
</g>
<g>
	<path class="st0" d="M966.14,346.12c-8.27,16.78-8.77,36.5-16.53,53.52c-2.45,5.37-5.65,10.58-6.33,16.44
		c-0.12,1.05-0.15,2.16,0.33,3.1c0.44,0.86,1.25,1.47,2.09,1.94c5.14,2.85,11.88,1.09,16.33-2.76s7.09-9.34,9.36-14.77
		c3.73-8.91,6.83-18.08,9.26-27.43c1.32-5.07,2.23-11.11-1.29-14.98c-1.28-1.41-3.06-2.38-4.07-4c-2.9-4.63,1.59-12.21-2.7-15.59
		c-1.78-1.4-4.65-1.11-6.11,0.61s-1.3,4.6,0.36,6.14"/>
	<g>
		<path class="st0" d="M964.84,345.37c-6.48,13.26-8.27,28.02-12.38,42.05c-1.02,3.48-2.18,6.94-3.62,10.28
			c-1.46,3.38-3.25,6.61-4.69,10c-1.31,3.08-2.73,6.77-2.41,10.17c0.32,3.41,3.61,5.21,6.66,5.85c6.4,1.34,12.85-1.83,17-6.59
			c4.72-5.41,7.3-12.46,9.83-19.08c2.81-7.36,5.33-14.91,7.16-22.58c0.75-3.15,1.24-6.43,0.72-9.66c-0.53-3.29-2.35-5.5-4.81-7.6
			c-1.12-0.96-2.01-1.93-2.35-3.39c-0.3-1.27-0.22-2.62-0.13-3.91c0.17-2.61,0.66-5.41-0.37-7.91c-1.09-2.64-3.75-4.14-6.58-3.69
			c-3,0.48-5.11,3.18-4.86,6.21c0.12,1.49,0.72,2.83,1.78,3.89c1.36,1.38,3.48-0.75,2.12-2.12c-1.85-1.87-0.71-5.09,2-5.08
			c2.4,0.01,3.14,2.31,3.17,4.31c0.04,2.44-0.48,4.86-0.28,7.31c0.23,2.79,1.42,4.82,3.53,6.62c1.06,0.9,2.12,1.75,2.83,2.97
			c0.65,1.12,1,2.41,1.12,3.7c0.28,2.92-0.33,5.85-1.06,8.66c-1.74,6.74-3.86,13.4-6.29,19.92c-2.25,6.04-4.54,12.44-8.36,17.7
			c-3.32,4.59-8.75,8.34-14.68,7.55c-1.31-0.17-2.62-0.6-3.74-1.3c-1.39-0.87-1.54-2.04-1.36-3.56c0.39-3.29,1.71-6.45,3.11-9.42
			c1.35-2.87,2.81-5.68,4.04-8.61c1.23-2.94,2.27-5.95,3.19-9c4.21-14.01,5.84-28.9,12.32-42.17
			C968.27,345.15,965.69,343.63,964.84,345.37L964.84,345.37z"/>
	</g>
</g>
<g>
	<path class="st0" d="M488.08,234.95c10.95-4.13,22.56-6.52,34.25-7.05c5.41-0.25,11.05-0.15,15.94-2.48
		c6.05-2.89,9.9-9.03,12.34-15.28s3.83-12.91,6.75-18.96c2.31-4.8,5.54-10.63,2.39-14.93c-2.9-3.96-9.06-3.19-13.48-1.07
		c-11.52,5.53-19.06,16.76-28.66,25.22c-11.38,10.02-26.09,16.5-34.92,28.82c-1.04,1.46-2,3.47-0.96,4.93
		c0.48,0.68,1.3,1.04,2.09,1.3c3.62,1.17,7.74,0.71,11.02-1.22"/>
	<g>
		<path class="st0" d="M488.48,236.39c8.35-3.13,17.06-5.31,25.92-6.35c4.26-0.5,8.52-0.62,12.79-0.85
			c4.12-0.22,8.27-0.73,12.01-2.57c6.56-3.22,10.51-9.94,13.03-16.52c1.56-4.07,2.69-8.28,4.11-12.39
			c1.35-3.91,3.34-7.49,4.88-11.31c1.3-3.25,2.09-7.05,0.26-10.27c-1.64-2.89-4.83-4.19-8.05-4.2c-7.03-0.01-13.48,4.8-18.52,9.22
			c-5.69,4.98-10.53,10.83-16,16.04c-5.41,5.15-11.59,9.29-17.7,13.53c-6.02,4.18-12.05,8.53-16.89,14.08
			c-2.07,2.37-5.75,6.16-4.13,9.6c1.57,3.32,7.01,3.45,10.1,2.99c1.89-0.28,3.68-0.93,5.34-1.87c1.68-0.95,0.17-3.54-1.51-2.59
			c-2.99,1.7-6.95,2.28-10.21,0.95c-1.93-0.79-0.77-2.67,0.1-3.91c0.97-1.38,2.07-2.68,3.21-3.92c4.54-4.96,10.01-8.92,15.51-12.74
			c5.61-3.89,11.32-7.69,16.42-12.25c5.1-4.56,9.54-9.79,14.43-14.57c4.57-4.47,10.02-9.37,16.35-11.07
			c2.53-0.68,5.81-0.95,7.93,0.92c2.63,2.31,1.73,6.04,0.64,8.88c-1.33,3.47-3.2,6.69-4.49,10.19c-1.35,3.65-2.39,7.41-3.64,11.1
			c-2.13,6.26-5.2,12.96-11.01,16.61c-3.18,2-6.89,2.7-10.59,2.98c-3.92,0.29-7.86,0.3-11.78,0.67c-7.98,0.75-15.88,2.33-23.53,4.74
			c-1.94,0.61-3.85,1.28-5.75,1.99C485.89,234.17,486.67,237.07,488.48,236.39L488.48,236.39z"/>
	</g>
</g>
<g>
	<path class="st0" d="M804.07,176.66c7.84,1.72,15.89,2.44,23.91,2.14c4.88-0.18,11.11-2.09,11.26-6.98
		c0.09-2.9-2.33-5.39-5.06-6.34c-2.73-0.95-5.72-0.71-8.6-0.46c-4.97,0.44-9.94,0.87-14.91,1.31c-3.44,0.3-7.26,0.79-9.5,3.43
		c-2.23,2.64-0.84,7.97,2.61,7.73"/>
	<g>
		<path class="st0" d="M803.67,178.11c7.99,1.73,16.28,2.58,24.46,2.19c4.81-0.23,11.74-1.98,12.53-7.68
			c0.44-3.16-1.46-6.03-4.08-7.65c-3.28-2.02-7.33-1.77-11.01-1.45c-4.22,0.37-8.45,0.74-12.67,1.12c-3.33,0.29-6.84,0.41-9.91,1.89
			c-2.86,1.38-4.73,4.06-4.35,7.28c0.32,2.71,2.18,5.28,5.13,5.19c1.93-0.06,1.93-3.06,0-3c-1.67,0.05-2.27-1.86-2.19-3.27
			c0.14-2.29,2.27-3.52,4.27-4.11c2.75-0.81,5.7-0.86,8.53-1.11c3.4-0.3,6.79-0.6,10.19-0.9c3.08-0.27,6.57-0.82,9.51,0.43
			c2.13,0.9,4.13,3.07,3.54,5.54c-0.43,1.8-2.18,2.91-3.79,3.55c-2.18,0.88-4.5,1.13-6.83,1.2c-7.57,0.21-15.14-0.51-22.54-2.12
			C802.58,174.81,801.78,177.7,803.67,178.11L803.67,178.11z"/>
	</g>
</g>
<g>
	<path class="st0" d="M423.99,540.53c-2.15-2.5-3.46-5.64-5.74-8.02c-2.27-2.38-6.18-3.81-8.83-1.87c-3.49,2.55-1.88,8.08,0.5,11.69
		c5.32,8.07,12.96,14.59,21.75,18.6c0.82,0.37,1.72,0.73,2.59,0.52c2.18-0.54,2.08-3.7,1.21-5.77c-0.92-2.18-2.13-4.24-3.56-6.12
		c-2.81-3.69-6.48-6.71-10.64-8.75"/>
	<g>
		<path class="st0" d="M425.05,539.47c-2.26-2.69-3.6-6.14-6.25-8.51c-2.28-2.04-5.71-3.45-8.73-2.33c-6.65,2.47-3.92,10.86-1,15.13
			c3.97,5.82,9.08,10.82,14.97,14.68c1.46,0.96,2.97,1.84,4.51,2.64c1.52,0.79,3.29,1.89,5.05,1.92c3.32,0.05,4.26-3.31,3.8-6.03
			c-0.3-1.78-1.23-3.49-2.11-5.04c-1.03-1.79-2.25-3.48-3.61-5.03c-2.69-3.07-6-5.58-9.65-7.41c-1.72-0.86-3.24,1.73-1.51,2.59
			c5.4,2.7,9.91,6.96,12.72,12.33c0.55,1.05,1.12,2.16,1.28,3.35c0.08,0.6,0.18,1.87-0.5,2.19c-0.92,0.43-3.14-1.07-3.93-1.47
			c-1.31-0.68-2.59-1.42-3.84-2.21c-4.83-3.06-9.12-6.94-12.66-11.42c-1.61-2.04-3.24-4.24-4.08-6.72c-0.63-1.87-1.15-4.51,0.5-6.03
			c2.16-1.98,5.49-0.29,7.2,1.46c2.29,2.36,3.63,5.5,5.74,8.02C424.17,543.08,426.29,540.94,425.05,539.47L425.05,539.47z"/>
	</g>
</g>
<g>
	<path class="st0" d="M488.28,571.07c-9.33-2.68-19-4.18-28.7-4.46c8.65,6.26,19.61,9.24,30.24,8.22c1.09-0.1,2.36-0.38,2.81-1.38
		c0.87-1.93-2.08-3.22-4.19-3.29"/>
	<g>
		<path class="st0" d="M488.67,569.62c-9.47-2.7-19.26-4.21-29.1-4.52c-1.6-0.05-1.88,1.99-0.76,2.8c6.97,4.99,15.3,7.93,23.84,8.52
			c2.1,0.15,4.21,0.14,6.31-0.02c1.71-0.13,3.77-0.31,4.79-1.91c2.25-3.53-2.58-5.66-5.33-5.83c-1.93-0.12-1.92,2.88,0,3
			c0.61,0.04,2.7,0.32,2.85,1.13c0.09,0.5-2.49,0.63-2.94,0.66c-3.3,0.2-6.62,0.04-9.88-0.53c-6.55-1.14-12.73-3.74-18.13-7.6
			c-0.25,0.93-0.5,1.86-0.76,2.8c9.59,0.3,19.08,1.78,28.3,4.41C489.74,573.04,490.53,570.15,488.67,569.62L488.67,569.62z"/>
	</g>
</g>
<g>
	<path class="st1" d="M445.85,347.13c-13.62,16.44-22.45,37.68-24.86,59.83c-1.53,14.03,1.27,31.33,13.14,36.5
		c13.62,5.93,32.58-7.4,42.14,4.89c5.44,6.99,3.32,17.57,1.31,26.52c-4.4,19.69-5.41,44.01,8.93,56.62
		c5.78,5.08,13.22,7.3,20.55,8.08c27.73,2.97,53.98-12.57,81.01-20.06c47.35-13.13,96.96-1.42,145.54,3.92
		c48.57,5.35,102.38,2.36,138.97-33.45c20.54-20.1,33.04-48.16,44.76-75.61c4.4-10.31,8.83-20.86,10-32.19
		c1.61-15.53-3.05-31-8.71-45.32c-8.8-22.25-20.32-43.43-35.8-60.63c-29.91-33.24-71.79-49.01-112.43-62.2
		c-12.71-4.13-25.56-8.12-38.76-9.34c-32.64-3.01-64.38,11.06-94.67,24.87c-28.49,12.98-56.97,25.96-85.46,38.94
		c-24.08,10.97-48.29,22.02-70.45,37.16c-15.63,10.68-31.02,24.72-35.99,44.32"/>
	<g>
		<path class="st1" d="M444.79,346.07c-14.18,17.25-22.94,38.7-25.3,60.89c-1.7,15.94,2.22,38.78,22.15,39.59
			c8.69,0.35,17.64-3.58,26.25-1.72c11.59,2.5,11,15.95,9.22,25.06c-3.53,18.14-8.03,39.61,2.86,56.29
			c12.64,19.35,40.01,16.79,59.35,11.46c11.53-3.18,22.61-7.71,33.85-11.73c11.68-4.17,23.55-7.47,35.85-9.16
			c50.02-6.88,99.41,8.17,149.2,10.06c40.61,1.54,83.76-5.67,114.27-34.65c16.49-15.67,27.65-36.01,37.09-56.45
			c4.84-10.49,9.6-21.1,13.71-31.9c4.4-11.57,6.81-23.43,5.41-35.82c-1.42-12.65-5.76-24.74-10.63-36.43
			c-4.46-10.69-9.55-21.12-15.55-31.03c-11.73-19.38-27.02-35.97-45.57-49c-17.83-12.52-37.79-21.64-58.13-29.25
			c-10.48-3.92-21.1-7.47-31.75-10.87c-12.14-3.88-24.51-7.41-37.28-8.35c-25.1-1.84-49.61,6.24-72.43,15.85
			c-24.31,10.24-48.15,21.67-72.15,32.61c-23.67,10.79-47.64,21.1-70.82,32.93c-11.31,5.77-22.38,12.03-32.91,19.14
			c-8.61,5.81-16.88,12.29-23.73,20.14c-6.55,7.51-11.59,16.19-14.13,25.87c-0.49,1.87,2.4,2.67,2.89,0.8
			c5.52-21.06,22.88-35.47,40.42-46.83c20.49-13.27,42.74-23.46,64.9-33.57c24.03-10.95,48.07-21.9,72.1-32.86
			c22.7-10.34,45.41-21.64,69.76-27.61c11.79-2.89,23.96-4.37,36.1-3.49c12.82,0.94,25.24,4.62,37.42,8.54
			c20.44,6.57,40.83,13.59,60.12,23.06c19.27,9.46,37.38,21.49,52.16,37.18c15.79,16.75,27.28,37.17,36.03,58.34
			c4.79,11.58,9.15,23.67,10.33,36.23c1.17,12.48-1.71,24.21-6.28,35.74c-8.33,21.05-17.62,42.41-30.01,61.42
			c-11.63,17.86-26.88,32.62-46.02,42.22c-18.02,9.03-38.12,13.28-58.13,14.67c-46.08,3.21-91.15-9.09-136.98-11.16
			c-24.46-1.1-48.58,1.28-71.82,9.24c-21.72,7.44-43.79,18.46-67.37,16.75c-10.84-0.79-21.35-4.83-27.22-14.45
			c-4.92-8.07-6.06-17.91-5.82-27.19c0.13-4.99,0.68-9.96,1.53-14.88c0.86-5.02,2.2-9.94,2.93-14.98c1.22-8.41,0.57-18.74-7.84-23.3
			c-7.26-3.93-16.2-1.26-23.86-0.32c-4.18,0.52-8.57,0.81-12.65-0.45c-4.19-1.3-7.44-4.34-9.62-8.08
			c-4.51-7.74-5.13-17.57-4.35-26.3c0.98-11.02,3.82-21.99,7.99-32.23c4.1-10.05,9.68-19.51,16.57-27.89
			C448.13,346.71,446.02,344.58,444.79,346.07L444.79,346.07z"/>
	</g>
</g>
<g>
	<path class="st1" d="M813.68,602.41"/>
	<g>
		<path class="st1" d="M813.68,603.91c1.93,0,1.93-3,0-3C811.75,600.91,811.75,603.91,813.68,603.91L813.68,603.91z"/>
	</g>
</g>
<g>
	<path class="st1" d="M899.76,244.12c-4.25-6.47-11.02-11.23-18.55-13.04c-0.99-0.24-2.06-0.42-2.98,0.01
		c-2.41,1.12-1.53,4.73-0.27,7.08c2.99,5.6,6.03,11.27,10.39,15.88c4.36,4.61,10.27,8.11,16.6,8.2c0.84,0.01,1.79-0.09,2.32-0.74
		c0.7-0.87,0.28-2.15-0.17-3.17c-3.05-6.86-6.27-13.65-9.63-20.36"/>
	<g>
		<path class="st1" d="M901.05,243.36c-3.82-5.73-9.32-10.12-15.75-12.58c-2.76-1.05-7.22-2.75-9.31,0.31
			c-1.57,2.29-0.54,5.47,0.6,7.71c3.41,6.71,7.35,13.71,13.15,18.65c2.67,2.27,5.69,4.12,9.03,5.24c1.62,0.54,3.3,0.87,5,1.01
			c1.64,0.13,3.56,0.13,4.69-1.28c1.29-1.61,0.48-3.63-0.25-5.28c-0.99-2.24-2.01-4.47-3.04-6.69c-2.06-4.44-4.19-8.85-6.39-13.23
			c-0.86-1.73-3.45-0.21-2.59,1.51c3.22,6.42,6.3,12.91,9.23,19.47c0.24,0.54,0.76,1.36,0.73,1.96c-0.03,0.67-0.61,0.58-1.19,0.59
			c-1.5,0.01-3-0.26-4.45-0.67c-2.74-0.77-5.28-2.15-7.54-3.87c-5.03-3.81-8.47-9.26-11.49-14.7c-1.21-2.18-2.99-4.63-3.24-7.19
			c-0.1-1.02,0.08-1.89,1.25-1.99c1.35-0.11,3.03,0.63,4.3,1.07c5.96,2.1,11.18,6.22,14.68,11.47
			C899.53,246.48,902.13,244.98,901.05,243.36L901.05,243.36z"/>
	</g>
</g>
<g>
	<path class="st1" d="M673.87,541.09c-5.68-6.98-15.22-9.19-24.03-10.99c-1.32-0.27-2.67-0.54-3.99-0.29
		c-1.24,0.23-2.36,0.89-3.44,1.54c-9.46,5.68-18.91,11.37-28.37,17.05c23.52,2.09,47.14,2.96,70.75,2.6
		c2.14-0.03,4.77-0.41,5.49-2.42c0.87-2.42-1.84-4.51-4.16-5.6c-7.71-3.63-15.77-6.53-24.02-8.67c0.95-0.01,1.89-0.02,2.84-0.02"/>
	<g>
		<path class="st1" d="M674.93,540.03c-5.2-6.27-13.26-8.86-20.94-10.58c-2.02-0.45-4.08-0.98-6.15-1.18
			c-2.32-0.23-4.25,0.63-6.19,1.79c-4.45,2.66-8.89,5.34-13.34,8.02c-5.01,3.01-10.02,6.02-15.03,9.03
			c-1.35,0.81-0.67,2.67,0.76,2.8c16.12,1.43,32.28,2.29,48.46,2.57c4.13,0.07,8.25,0.11,12.38,0.1c3.71,0,7.53,0.21,11.23-0.15
			c2.63-0.26,5.63-1.46,5.82-4.5c0.2-3.18-2.96-5.26-5.48-6.44c-7.69-3.61-15.74-6.48-23.96-8.62c-0.13,0.98-0.27,1.96-0.4,2.95
			c0.95-0.01,1.89-0.02,2.84-0.02c1.93-0.02,1.93-3.02,0-3c-0.95,0.01-1.89,0.02-2.84,0.02c-1.67,0.01-2.06,2.51-0.4,2.95
			c6.77,1.76,13.43,4.01,19.85,6.79c1.49,0.65,3.02,1.27,4.45,2.04c1.02,0.55,2.37,1.35,2.83,2.49c1.07,2.74-4.49,2.43-5.77,2.44
			c-14.78,0.19-29.56-0.11-44.31-0.88c-8.24-0.43-16.48-1.02-24.7-1.74c0.25,0.93,0.5,1.86,0.76,2.8
			c8.33-5.01,16.66-10.01,24.98-15.02c1.84-1.1,3.79-2.66,5.86-3.28c1.92-0.58,4.15,0.2,6.05,0.61c3.71,0.79,7.41,1.69,10.94,3.08
			c3.91,1.54,7.48,3.8,10.18,7.05C674.04,543.64,676.15,541.5,674.93,540.03L674.93,540.03z"/>
	</g>
</g>
<g>
	<path class="st1" d="M464.76,467.81c-4.33,15.87-5.45,32.61-3.29,48.92"/>
	<g>
		<path class="st1" d="M463.32,467.41c-4.34,16.03-5.49,32.85-3.34,49.32c0.11,0.81,0.61,1.49,1.5,1.5c0.73,0.01,1.6-0.7,1.5-1.5
			c-2.12-16.22-1.03-32.73,3.24-48.52C466.71,466.34,463.82,465.55,463.32,467.41L463.32,467.41z"/>
	</g>
</g>
<g>
	<path class="st1" d="M451.36,492.83c-1.4,3.79-0.96,8.21,1.15,11.66"/>
	<g>
		<path class="st1" d="M449.92,492.43c-1.51,4.19-0.99,9.01,1.3,12.81c1,1.65,3.59,0.15,2.59-1.51c-1.92-3.19-2.25-7.02-1-10.5
			c0.27-0.76-0.31-1.64-1.05-1.85C450.93,491.15,450.19,491.66,449.92,492.43L449.92,492.43z"/>
	</g>
</g>
<g>
	<path class="st1" d="M479.9,285.39c-7.81,3.09-15.68,6.21-22.67,10.86c-7,4.64-13.14,10.99-16.09,18.86
		c-0.78,2.08-1.33,4.25-2.35,6.23c-2.99,5.79-9.34,8.81-14.65,12.58c-5.31,3.77-10.24,10.06-8.22,16.26"/>
	<g>
		<path class="st1" d="M479.51,283.95c-12.55,4.97-25.82,10.32-34.41,21.28c-1.85,2.37-3.46,4.91-4.66,7.67
			c-1.34,3.08-1.98,6.47-3.89,9.28c-3.35,4.93-9.16,7.43-13.79,10.91c-5.3,3.97-10.4,10.48-8.27,17.48c0.56,1.84,3.46,1.06,2.89-0.8
			c-1.79-5.89,3.08-11.38,7.53-14.56c4.56-3.26,9.8-5.85,13.35-10.32c1.93-2.43,2.9-5.21,3.89-8.12c0.99-2.91,2.38-5.63,4.14-8.15
			c3.36-4.8,7.92-8.7,12.85-11.82c6.62-4.18,13.91-7.09,21.16-9.96C482.08,286.14,481.3,283.23,479.51,283.95L479.51,283.95z"/>
	</g>
</g>
<g>
	<path class="st1" d="M432.24,345.03c-1.66,4.53-3.33,9.06-4.99,13.59"/>
	<g>
		<path class="st1" d="M430.8,344.63c-1.66,4.53-3.33,9.06-4.99,13.59c-0.28,0.76,0.31,1.64,1.05,1.85
			c0.84,0.23,1.56-0.28,1.85-1.05c1.66-4.53,3.33-9.06,4.99-13.59c0.28-0.76-0.31-1.64-1.05-1.85
			C431.81,343.35,431.08,343.87,430.8,344.63L430.8,344.63z"/>
	</g>
</g>
<g>
	<path class="st1" d="M626.55,210.09c-13.44,3.55-26.28,9.4-37.79,17.21c-2.4,1.63-4.8,3.4-6.38,5.84
		c-0.89,1.38-1.51,2.94-2.57,4.19c-1.28,1.51-3.11,2.43-4.88,3.32c-3.85,1.92-7.7,3.84-11.55,5.76c12.61,0.56,24.89-3.7,36.72-8.14
		c15.67-5.88,32.54-13.4,39.79-28.51c-5.05-2.79-11.52-2.81-16.59-0.06"/>
	<g>
		<path class="st1" d="M626.15,208.64c-9.42,2.51-18.54,6.1-27.14,10.7c-4.26,2.28-8.45,4.79-12.38,7.61
			c-1.79,1.29-3.49,2.69-4.85,4.44c-1.4,1.82-2.12,4.18-3.88,5.71c-1.93,1.68-4.59,2.66-6.85,3.79c-2.81,1.4-5.63,2.81-8.44,4.21
			c-1.4,0.7-0.64,2.74,0.76,2.8c13.36,0.53,26.19-4.04,38.5-8.72c9.96-3.79,19.99-8.1,28.27-14.95c4.56-3.77,8.43-8.38,11.03-13.72
			c0.34-0.71,0.22-1.65-0.54-2.05c-5.64-3.02-12.45-3.04-18.1-0.06c-1.71,0.9-0.19,3.49,1.51,2.59c4.68-2.47,10.41-2.44,15.08,0.06
			c-0.18-0.68-0.36-1.37-0.54-2.05c-4.5,9.27-12.75,15.63-21.68,20.35c-4.66,2.46-9.52,4.52-14.43,6.41
			c-5.74,2.22-11.53,4.37-17.44,6.08c-7.05,2.04-14.29,3.36-21.65,3.07c0.25,0.93,0.5,1.86,0.76,2.8c2.44-1.22,4.89-2.44,7.33-3.66
			c2.17-1.08,4.42-2.07,6.5-3.32c1.96-1.17,3.37-2.7,4.48-4.69c1.12-2,2.27-3.69,4.03-5.19c3.57-3.03,7.84-5.45,11.91-7.73
			c4.21-2.36,8.55-4.49,13.01-6.33c5.06-2.09,10.26-3.83,15.55-5.24C628.81,211.04,628.02,208.14,626.15,208.64L626.15,208.64z"/>
	</g>
</g>
<g>
	<path class="st2" d="M467.07,376.44c-4.44,3.64-8.33,7.94-11.5,12.73c-0.89,1.35-1.76,2.82-1.76,4.44c0,5.25,7.68,6.02,12.68,4.44
		c10.56-3.35,20.28-9.07,30.92-12.17s23.14-3.14,31.68,3.94c9.48,7.86,11.07,22.32,7.23,34.03c-3.84,11.71-12.03,21.39-19.79,30.95
		c-7.76,9.56-15.5,19.76-18.13,31.8c-0.92,4.21-1.17,8.72,0.42,12.72c3.2,8.08,12.78,11.7,21.45,12
		c24.28,0.84,44.96-16.36,67.56-25.3c24.52-9.7,51.79-9.62,78.01-6.85c26.22,2.77,52.24,8.08,78.6,8.37
		c37.79,0.42,75.64-9.75,108.14-29.05c5.43-3.22,10.82-6.81,14.56-11.89c7.95-10.83,6.99-26.46,15.33-37
		c8.94-11.3,27.89-16.43,28.27-30.84c0.13-4.98-2.28-9.64-4.62-14.04c-17.13-32.12-35.23-65.38-64.71-86.71
		c-17.93-12.97-39.03-20.71-59.89-28.1c-34.56-12.25-71.34-24.14-107.26-16.82c-28.3,5.76-52.89,22.91-75.17,41.3
		s-43.43,38.63-68.78,52.47c-13.31,7.27-27.61,12.68-40.51,20.66c-12.9,7.98-24.68,19.16-29.15,33.66"/>
	<g>
		<path class="st2" d="M466.01,375.38c-4.12,3.42-7.77,7.35-10.85,11.74c-2.07,2.95-4.21,6.78-1.61,10.11c2.1,2.69,6.08,3.24,9.27,3
			c4.66-0.34,9.15-2.48,13.4-4.27c9.96-4.2,19.88-9.49,30.83-10.43c9.59-0.83,19.85,1.75,25.37,10.25
			c5.06,7.79,5.36,18.02,2.75,26.72c-3.16,10.53-10.14,19.44-16.96,27.85c-6.56,8.09-13.4,16.19-17.78,25.72
			c-3.87,8.43-6.93,19.73-0.69,27.81c5.17,6.69,14.3,8.97,22.39,8.95c9.83-0.02,19.3-2.97,28.23-6.87
			c9.45-4.14,18.38-9.35,27.63-13.9c9.91-4.88,20.22-8.5,31.1-10.55c47.09-8.85,93.9,8.29,141.02,7.5
			c21.99-0.37,43.93-4.27,64.72-11.43c10.33-3.56,20.39-7.92,30.04-13.05c8.81-4.68,18.69-9.76,24.35-18.31
			c5.18-7.83,6.29-17.42,9.37-26.1c1.52-4.26,3.61-8.26,6.75-11.55c2.81-2.95,6.11-5.37,9.42-7.73c5.75-4.11,12.51-8.32,15.71-14.91
			c4.31-8.89-0.61-17.42-4.82-25.28c-9.68-18.1-19.62-36.21-32.1-52.57c-12.53-16.43-27.55-30.42-45.73-40.39
			c-19.55-10.73-41.15-17.87-62.25-24.87c-22.08-7.33-45.06-13.51-68.49-13.48c-21.98,0.03-42.74,6.54-61.73,17.38
			c-18.73,10.69-35.24,24.69-51.58,38.63c-16.92,14.43-33.96,29.01-53.5,39.81c-18.97,10.49-40.39,17.25-56.28,32.6
			c-6.65,6.42-11.97,14.15-14.78,23.01c-0.59,1.84,2.31,2.63,2.89,0.8c6.29-19.81,24.84-31.7,42.49-40.43
			c9.9-4.9,20.07-9.27,29.66-14.78c9.1-5.23,17.7-11.29,26-17.71c33.05-25.57,62.81-58.73,103.88-71.43
			c21.94-6.79,45.03-5.73,67.25-0.93c21.92,4.74,43.28,12.42,64.24,20.3c20.11,7.56,39.64,16.8,55.69,31.36
			c14.68,13.32,26.21,29.63,36.33,46.56c5.16,8.63,9.98,17.45,14.72,26.31c4.28,7.99,10.1,17.03,4.28,25.74
			c-4.1,6.13-11.15,9.89-16.9,14.24c-6.58,4.98-11.24,10.66-14.04,18.51c-3.07,8.64-4.1,18.27-9.45,25.94
			c-3.03,4.34-7.39,7.55-11.82,10.33c-4.52,2.83-9.2,5.41-13.94,7.84c-19.12,9.77-39.77,16.49-60.96,19.95
			c-22.56,3.68-45.2,2.95-67.82,0.22c-22.68-2.74-45.26-6.89-68.15-7.49c-21.51-0.56-42.97,2.2-62.66,11.24
			c-17.7,8.13-34.77,20.68-54.74,22.3c-8.38,0.68-18.93-0.55-24.3-7.93c-6.37-8.75-0.6-21.78,4.19-29.91
			c10.13-17.2,27.84-30.62,32.61-50.74c1.93-8.14,1.48-17.12-2.38-24.64c-4.05-7.89-11.81-12.57-20.46-13.74
			c-9.58-1.3-18.98,1.31-27.79,4.91c-5.13,2.1-10.14,4.49-15.29,6.55c-3.98,1.6-8.25,3.53-12.64,3.02
			c-1.56-0.18-3.58-0.67-4.42-2.15c-1.16-2.06,0.73-4.46,1.86-6.09c2.98-4.3,6.58-8.11,10.6-11.45
			C469.62,376.27,467.49,374.16,466.01,375.38L466.01,375.38z"/>
	</g>
</g>
<g>
	<path class="st2" d="M840.29,480.6c-3.66,3.46-7.47,7-12.2,8.7c-4.28,1.54-8.94,1.43-13.48,1.62c-11.1,0.45-22.12,2.76-32.47,6.8
		c9.94,2.09,19.89,4.18,29.83,6.26c2.99,0.63,6.04,1.26,9.09,1.01c7.28-0.59,13.2-6,18-11.52c3.33-3.82,6.43-7.83,9.28-12.01
		c0.36-0.53,0.73-1.09,0.83-1.72c0.3-1.87-1.95-3.33-3.81-3.01s-3.31,1.76-4.61,3.13"/>
	<g>
		<path class="st2" d="M839.23,479.53c-2.7,2.55-5.44,5.13-8.69,6.98c-3.44,1.95-7.23,2.54-11.14,2.73
			c-4.1,0.2-8.19,0.28-12.27,0.76c-4.02,0.47-8.01,1.15-11.95,2.08c-4.57,1.08-9.06,2.49-13.43,4.18c-1.25,0.48-1.59,2.56,0,2.89
			c7.09,1.49,14.18,2.98,21.27,4.47c3.48,0.73,6.96,1.5,10.46,2.19c3.29,0.64,6.62,1.02,9.94,0.35c5.63-1.15,10.36-4.91,14.26-8.95
			c4.42-4.57,8.45-9.7,11.97-14.99c0.82-1.23,1.36-2.58,0.84-4.05c-0.45-1.27-1.59-2.21-2.83-2.66c-3.17-1.15-5.9,1.16-7.96,3.3
			c-1.34,1.39,0.78,3.52,2.12,2.12c1.2-1.25,3.57-3.86,5.45-2.25c0.84,0.72,0.14,1.51-0.35,2.22c-0.82,1.2-1.67,2.39-2.53,3.56
			c-3.2,4.34-6.63,8.64-10.57,12.34c-3.51,3.3-7.82,6.28-12.76,6.68c-3.02,0.25-6-0.39-8.94-1.01c-3.02-0.63-6.03-1.27-9.05-1.9
			c-6.85-1.44-13.69-2.87-20.54-4.31c0,0.96,0,1.93,0,2.89c7.9-3.06,16.17-5.18,24.59-6.16c4.16-0.48,8.32-0.56,12.5-0.77
			c3.99-0.2,7.91-0.81,11.51-2.64c3.86-1.96,7.08-4.99,10.21-7.94C842.76,480.33,840.64,478.21,839.23,479.53L839.23,479.53z"/>
	</g>
</g>
<g>
	<path class="st2" d="M891.04,421.45c-3.78,3.18-6.38,7.74-7.18,12.62c-0.05,0.3-0.09,0.63,0.06,0.89c0.38,0.67,1.41,0.29,2.01-0.19
		c3.45-2.73,6.08-6.49,7.46-10.67c0.34-1.02,0.59-2.16,0.14-3.13c-0.45-0.97-1.92-1.47-2.62-0.67"/>
	<g>
		<path class="st2" d="M889.98,420.39c-2.24,1.9-4.11,4.27-5.43,6.9c-0.67,1.32-1.22,2.71-1.63,4.13c-0.4,1.41-1.14,3.55,0.04,4.75
			c1.26,1.28,3.05,0.47,4.21-0.47c1.1-0.89,2.11-1.88,3.03-2.96c2-2.36,3.56-5.06,4.56-8c0.57-1.67,0.9-3.76-0.42-5.19
			c-1.17-1.27-3.22-1.56-4.5-0.29c-1.37,1.36,0.75,3.48,2.12,2.12c-0.06,0.06-0.27,0.01-0.09,0.04c0.08,0.01-0.02-0.09,0.16,0.08
			c0.13,0.12,0.22,0.34,0.23,0.67c0.03,1.02-0.51,2.17-0.9,3.1c-0.82,1.92-1.94,3.75-3.29,5.35c-0.71,0.84-1.48,1.63-2.31,2.35
			c-0.34,0.3-0.72,0.54-1.07,0.82c-0.04,0.03-0.15,0.11-0.11,0.04c0.24,0.24,0.49,0.47,0.73,0.71c0-0.02-0.01-0.04-0.01-0.06
			c0.06-0.12,0.06-0.32,0.08-0.46c0.39-2.08,1.1-4.08,2.13-5.93c1.18-2.13,2.73-3.99,4.59-5.57c0.62-0.53,0.54-1.58,0-2.12
			C891.49,419.78,890.6,419.87,889.98,420.39L889.98,420.39z"/>
	</g>
</g>
<g>
	<g>
		<path class="st2" d="M745.28,224.61c5.64,1.35,11.28,2.7,16.91,4.04c5.34,1.28,11.09,2.15,16.04,4.62
			c1.72,0.86,3.24-1.73,1.51-2.59c-5.07-2.53-10.81-3.51-16.28-4.81c-5.8-1.39-11.59-2.77-17.39-4.16
			C744.2,221.27,743.4,224.16,745.28,224.61L745.28,224.61z"/>
	</g>
</g>
<g>
	<g>
		<path class="st2" d="M620.23,497.17c2.57-1.58,5.53-1.88,8.48-1.89c3.26-0.01,6.52,0.17,9.77,0.36c6.83,0.39,13.65,1,20.47,1.61
			c1.92,0.17,1.91-2.83,0-3c-7.14-0.64-14.29-1.28-21.46-1.67c-6.08-0.32-13.32-1.36-18.78,2
			C617.07,495.59,618.57,498.19,620.23,497.17L620.23,497.17z"/>
	</g>
</g>
<g>
	<g>
		<path class="st2" d="M646.17,503.67c6.19-1.18,12.58-1.07,18.73,0.31c1.88,0.42,2.68-2.47,0.8-2.89c-6.7-1.5-13.58-1.6-20.32-0.31
			C643.48,501.14,644.28,504.03,646.17,503.67L646.17,503.67z"/>
	</g>
</g>
<g>
	<path class="st3" d="M729.18,415.05c0.61-3.56,1.22-7.21,0.6-10.77s-2.7-7.09-6.05-8.43c-2.12-0.85-4.49-0.74-6.77-0.62
		c-6.7,0.35-13.51,0.71-19.85,2.92c-6.34,2.2-12.26,6.53-14.82,12.74c-1.19,2.89-1.76,6.3-4.24,8.19c-1.16,0.89-2.6,1.31-4.01,1.71
		c-12.83,3.7-25.66,7.39-38.49,11.09c-7.31,2.11-14.65,4.22-22.18,5.37c-7.64,1.16-15.39,1.32-23.09,2.06
		c-9.89,0.94-19.69,2.85-29.22,5.67c-4.19,1.24-8.49,2.68-12.82,2.15c-0.43-4.08,3.14-7.36,6.37-9.89
		c12.07-9.45,24.14-18.9,36.21-28.35c1.09-0.85,2.24-1.74,3.59-2.01c2.09-0.43,4.2,0.66,6.33,0.57c3.44-0.15,5.99-3.21,9.18-4.48
		c1.96-0.78,4.13-0.87,6.24-0.96c14.47-0.63,29.16-2.19,42.51-7.83c6.92-2.93,13.38-6.92,20.42-9.57
		c5.25-1.98,10.77-3.18,16.33-3.94c11.87-1.62,24.02-1.21,35.76,1.2c3.25,0.67,6.5,1.5,9.47,2.97c6.84,3.39,11.82,10.31,12.88,17.88
		c0.46,3.3,0.17,6.83-1.6,9.64c-1.74,2.77-4.73,4.55-7.85,5.54c-4.91,1.55-10.36,1.29-15.1-0.7"/>
	<g>
		<path class="st3" d="M730.63,415.45c1.07-6.3,1.99-13.64-2.91-18.67c-2.19-2.24-5.1-3.09-8.17-3.13
			c-3.5-0.04-7.07,0.27-10.55,0.61c-6.64,0.64-13.37,2.02-19.05,5.69c-2.41,1.56-4.58,3.46-6.33,5.73c-1.77,2.3-2.81,4.85-3.76,7.56
			c-0.43,1.23-0.88,2.49-1.65,3.55c-0.94,1.29-2.31,1.87-3.79,2.33c-3.56,1.09-7.17,2.07-10.75,3.1
			c-7.44,2.14-14.89,4.29-22.33,6.43c-7.19,2.07-14.36,4.28-21.68,5.89c-7.47,1.64-15.02,2.2-22.62,2.72
			c-8.31,0.57-16.56,1.55-24.72,3.29c-4,0.85-7.96,1.87-11.87,3.03c-3.99,1.18-7.98,2.47-12.2,2.03c0.5,0.5,1,1,1.5,1.5
			c-0.29-3.76,2.96-6.48,5.63-8.6c3.81-3.03,7.67-6.01,11.51-9.02c7.61-5.96,15.22-11.92,22.83-17.87c1.57-1.23,3.42-3.24,5.53-3.36
			c2.04-0.12,3.97,0.84,6.04,0.61c3.85-0.43,6.32-3.71,9.89-4.78c2.12-0.63,4.39-0.58,6.59-0.68c2.21-0.11,4.43-0.24,6.64-0.41
			c4.4-0.33,8.8-0.81,13.16-1.5c8.81-1.4,17.36-3.83,25.43-7.67c4.02-1.91,7.93-4.04,11.98-5.91c4.11-1.9,8.38-3.36,12.79-4.38
			c9.05-2.1,18.48-2.72,27.74-2.22c4.65,0.25,9.29,0.81,13.87,1.68c4.18,0.8,8.45,1.76,12.14,3.99c6.11,3.69,10.46,10.59,10.7,17.78
			c0.14,4.11-1.35,7.8-4.92,10.01c-3.45,2.14-7.7,2.85-11.7,2.5c-2.14-0.18-4.23-0.76-6.21-1.57c-1.79-0.73-2.56,2.17-0.8,2.89
			c7.47,3.05,18.34,2.44,23.76-4.3c5.18-6.45,2.77-16.36-1.57-22.59c-2.19-3.14-5.04-5.82-8.38-7.7c-4.04-2.26-8.65-3.28-13.16-4.1
			c-9.72-1.77-19.68-2.22-29.52-1.29c-9.68,0.92-18.91,3.18-27.7,7.38c-4.29,2.05-8.47,4.35-12.82,6.28
			c-4.33,1.92-8.86,3.39-13.46,4.52c-9.23,2.27-18.72,3.15-28.18,3.6c-2.24,0.11-4.54,0.1-6.72,0.66c-2.05,0.52-3.78,1.66-5.52,2.82
			c-1.5,0.99-3.11,2.07-4.98,2.03c-2.28-0.05-4.4-1.09-6.7-0.42c-2.08,0.61-3.76,2.22-5.43,3.53c-2.1,1.64-4.2,3.29-6.3,4.93
			c-4,3.13-8,6.27-12,9.4c-4.07,3.18-8.13,6.37-12.2,9.55c-3.35,2.62-7.28,5.13-9.55,8.82c-0.99,1.62-1.53,3.47-1.39,5.37
			c0.07,0.88,0.64,1.41,1.5,1.5c3.57,0.38,7.1-0.41,10.51-1.4c3.37-0.97,6.72-1.98,10.13-2.8c7.11-1.73,14.35-2.95,21.64-3.64
			c7.2-0.68,14.44-0.88,21.61-1.85c7.22-0.98,14.25-2.86,21.24-4.86c7.12-2.04,14.23-4.1,21.34-6.15c3.56-1.03,7.13-2.05,10.69-3.08
			c3.51-1.01,7.11-1.87,10.56-3.07c2.75-0.95,4.65-2.67,5.84-5.32c1.16-2.59,1.77-5.34,3.32-7.75c3.09-4.8,8.35-7.9,13.71-9.54
			c3.76-1.15,7.65-1.7,11.56-2.02c1.95-0.16,3.9-0.27,5.86-0.37c1.8-0.09,3.66-0.27,5.44,0.06c3.16,0.59,5.27,3.11,6.21,6.08
			c1.2,3.8,0.48,7.91-0.17,11.75C727.41,416.54,730.3,417.35,730.63,415.45L730.63,415.45z"/>
	</g>
</g>
<g>
	<path class="st3" d="M678.05,451.72c23.24,2.12,48.18,2.26,67.99-10.08c3.09-1.93,6.09-4.21,7.95-7.35c0.55-0.92,1-2,0.76-3.04
		c-0.44-1.89-2.75-2.56-4.67-2.8c-23.56-2.99-47.1,5.08-68.69,14.98c-1.53,0.7-3.1,1.45-4.22,2.71c-1.11,1.27-1.65,3.2-0.83,4.67
		c0.82,1.47,3.26,1.87,4.19,0.47"/>
	<g>
		<path class="st3" d="M678.05,453.22c23.5,2.13,50.14,2.56,70.45-11.39c3.37-2.32,11.55-9.26,6.04-13.38
			c-2.17-1.62-5.32-1.64-7.89-1.85c-3.28-0.27-6.57-0.33-9.85-0.22c-13.4,0.48-26.54,3.92-39.05,8.59
			c-3.55,1.32-7.05,2.75-10.53,4.25c-1.78,0.76-3.55,1.55-5.31,2.35c-1.48,0.67-3.02,1.29-4.34,2.26c-2.33,1.69-4.14,4.95-2.51,7.76
			c1.29,2.21,4.86,2.94,6.54,0.77c1.17-1.51-0.94-3.65-2.12-2.12c-0.42,0.55-1.17,0.58-1.68,0.05c-0.71-0.74-0.26-2.07,0.23-2.79
			c1.43-2.09,4.66-3.01,6.86-4c5.49-2.45,11.05-4.74,16.72-6.74c11.03-3.9,22.54-6.78,34.26-7.33c2.9-0.13,5.81-0.13,8.7,0.04
			c1.38,0.08,2.76,0.19,4.13,0.34c1.17,0.13,2.44,0.23,3.51,0.74c2.62,1.25-0.42,4.47-1.63,5.72c-1.81,1.86-3.98,3.31-6.2,4.64
			c-9.11,5.46-19.52,8.37-30.02,9.59c-12.06,1.41-24.26,0.83-36.32-0.27C676.13,450.04,676.14,453.04,678.05,453.22L678.05,453.22z"
			/>
	</g>
</g>
<g>
	<path class="st4" d="M833.77,389.7c0.93,0.29,1.39-1.37,0.62-1.97s-1.87-0.37-2.8-0.1c-11.43,3.41-21.84,10.17-29.61,19.23
		c-2.06,2.4-4.01,5.03-6.75,6.6c-3.72,2.14-8.28,2.02-12.57,1.84c-6.96-0.29-13.93-0.59-20.89-0.88c-4.73-0.2-9.55-0.42-13.99-2.05
		c-11.65-4.29-18.18-17.22-29.49-22.32c-2.8-1.27-5.99-2.12-7.93-4.52c-3-3.71-1.71-9.49-4.33-13.47c-2.76-4.2-8.59-4.76-13.61-4.89
		c-4.8-0.13-9.59-0.26-14.39-0.39c-4.88-0.13-10.58,0.11-13.44,4.07c-2.56,3.54-1.88,8.96-5.12,11.89
		c-2.49,2.26-6.28,2.08-9.61,1.67c-4.9-0.6-9.78-1.4-14.65-2.2c-14.9-2.45-29.81-4.9-44.71-7.35c-2.06-0.34-4.39-0.85-5.45-2.66
		c-0.92-1.57-0.54-3.54-0.62-5.35c-0.29-6.59-6.81-11.42-7.87-17.93c-0.84-5.13,1.98-10.28,5.8-13.8c3.82-3.52,8.59-5.81,13.06-8.46
		c7.58-4.49,14.43-10.09,21.69-15.08c12.97-8.91,27.18-15.8,41.34-22.65c11.62-5.63,23.43-11.32,36.15-13.49
		c2.9-0.5,5.94-0.79,8.72,0.17s5.21,3.48,5.19,6.43c-0.02,2.99-2.38,5.36-4.44,7.53c-9.56,10.04-16.04,24.82-11.23,37.83
		c1.02,2.76,2.72,5.53,5.46,6.61c2.83,1.12,6.02,0.19,8.92-0.75c8.73-2.83,17.46-5.66,26.19-8.49c3.16-1.03,6.5-2.16,8.64-4.7
		c2.04-2.42,2.67-5.71,2.91-8.87c0.7-9.24-1.32-18.68-5.76-26.81c-0.79-1.45-1.68-3.11-1.09-4.65c0.56-1.45,2.19-2.12,3.67-2.58
		c6.52-1.99,13.44-2.7,20.23-2.07c1.17,0.11,2.38,0.27,3.34,0.94c2.15,1.49,2.05,4.88,0.63,7.09c-1.42,2.21-3.75,3.62-5.77,5.3
		c-10.16,8.44-11.82,25.32-3.5,35.58c0.99,1.22,2.24,2.43,3.81,2.58c1.61,0.16,3.08-0.82,4.37-1.8c4.8-3.67,9.07-8.02,12.66-12.88
		c2.64,8.24,2.1,17.45-1.48,25.33c-0.71,1.57-1.58,3.13-2.93,4.21c-4.24,3.39-10.34,0.51-15.35-1.58
		c-10.97-4.58-25.29-3.94-32.84,5.25c3.91,4.36,11.04,0.95,16.86,1.58c6.37,0.69,10.88,6.32,16.28,9.77
		c4.94,3.15,10.78,4.52,16.53,5.69c17.24,3.5,35.13,5.82,50.62,14.18c5.13,2.77,10.43,7.03,10.63,12.86"/>
	<g>
		<path class="st4" d="M833.77,391.2c2.8,0.38,3.21-3.81,1.08-4.95c-1.14-0.61-2.47-0.39-3.65-0.06c-1.48,0.42-2.94,0.94-4.38,1.49
			c-5.57,2.13-10.83,5-15.61,8.57c-2.41,1.8-4.7,3.75-6.84,5.86c-2.13,2.11-3.98,4.44-5.98,6.67c-2.15,2.4-4.51,4.12-7.73,4.76
			c-3.12,0.62-6.38,0.35-9.53,0.21c-7.09-0.3-14.18-0.56-21.26-0.9c-3.49-0.17-6.99-0.45-10.35-1.46c-2.55-0.77-4.9-2.02-7.08-3.53
			c-8.66-5.98-14.51-15.37-24.46-19.56c-2.43-1.02-5.38-1.91-6.86-4.28c-1.43-2.3-1.5-5.2-2-7.79c-0.49-2.55-1.43-5.03-3.39-6.81
			c-1.85-1.68-4.25-2.62-6.67-3.11c-2.86-0.57-5.78-0.62-8.69-0.7c-3.6-0.1-7.19-0.2-10.79-0.29c-5.08-0.14-11.18-0.4-15.13,3.41
			c-1.85,1.79-2.67,4.23-3.3,6.66c-0.59,2.28-1.03,5.02-3.03,6.53c-2.22,1.68-5.48,1.31-8.06,1.01c-3.65-0.43-7.29-1.01-10.92-1.59
			c-14.39-2.33-28.77-4.73-43.16-7.09c-1.69-0.28-3.39-0.55-5.08-0.84c-1.22-0.21-2.61-0.4-3.67-1.09
			c-1.34-0.87-1.33-2.32-1.31-3.77c0.02-1.44-0.01-2.83-0.36-4.24c-1.24-5.09-5.33-8.8-7.02-13.68c-2.03-5.89,1.44-11.62,5.88-15.33
			c4.94-4.13,11.07-6.73,16.42-10.29c5.67-3.77,11.02-7.99,16.62-11.86c5.67-3.92,11.6-7.46,17.65-10.77
			c5.92-3.24,11.95-6.25,18.01-9.21c6.18-3.02,12.35-6.08,18.65-8.85c6.21-2.73,12.61-5.12,19.23-6.64
			c3.23-0.74,6.79-1.61,10.11-1.08c2.52,0.4,5.37,1.99,5.83,4.74c0.46,2.75-1.96,5.06-3.68,6.87c-2.08,2.19-4,4.51-5.71,6.99
			c-3.25,4.71-5.8,10.05-7.04,15.66c-1.23,5.58-1.15,11.53,0.86,16.92c0.94,2.52,2.3,4.96,4.5,6.58c2.59,1.9,5.82,1.89,8.82,1.17
			c3.44-0.82,6.81-2.11,10.17-3.2c3.39-1.1,6.79-2.2,10.18-3.3c3.35-1.09,6.73-2.14,10.06-3.27c2.67-0.91,5.41-2.03,7.43-4.06
			c4.22-4.23,4.26-11.32,3.94-16.89c-0.37-6.5-2-12.87-4.78-18.76c-0.66-1.39-1.56-2.71-2.08-4.16c-0.61-1.71,0.32-2.52,1.84-3.08
			c3.18-1.18,6.7-1.8,10.06-2.16c3.46-0.37,6.99-0.43,10.46-0.08c1.14,0.12,2.47,0.28,3.11,1.35c0.58,0.97,0.47,2.24,0.13,3.27
			c-0.91,2.69-3.85,4.31-5.93,6.01c-1.93,1.58-3.59,3.48-4.95,5.57c-2.66,4.08-4.12,8.91-4.41,13.76c-0.3,4.96,0.7,10.04,3.01,14.45
			c1.14,2.18,2.66,4.53,4.69,5.98c2.89,2.06,5.84,0.76,8.36-1.19c4.89-3.76,9.16-8.2,12.84-13.15c-0.91-0.12-1.83-0.24-2.74-0.36
			c1.79,5.74,2.1,11.88,0.78,17.76c-0.66,2.92-1.61,5.98-3.22,8.52c-1.53,2.41-3.99,3.21-6.73,2.82c-2.71-0.39-5.3-1.54-7.81-2.6
			c-2.28-0.96-4.59-1.77-7-2.31c-4.83-1.07-9.87-1.25-14.72-0.24c-5.2,1.08-10.07,3.69-13.5,7.79c-0.53,0.64-0.6,1.49,0,2.12
			c5.32,5.63,13.67,0.43,20.1,2.53c3.47,1.13,6.32,3.7,9.12,5.94c3.22,2.57,6.54,4.68,10.42,6.13c4.11,1.53,8.43,2.39,12.72,3.23
			c4.3,0.85,8.61,1.64,12.9,2.49c8.7,1.71,17.39,3.65,25.71,6.77c4.35,1.64,8.75,3.55,12.62,6.15c3.36,2.26,6.67,5.49,6.9,9.77
			c0.11,1.92,3.11,1.93,3,0c-0.45-8.2-8.42-12.89-15.06-16.01c-8.14-3.83-16.83-6.26-25.59-8.18c-8.75-1.91-17.64-3.2-26.35-5.31
			c-4.29-1.04-8.49-2.45-12.17-4.94c-3.18-2.15-5.93-4.87-9.19-6.91c-3.7-2.32-7.53-2.98-11.84-2.53
			c-3.55,0.38-8.37,1.71-11.16-1.26c0,0.71,0,1.41,0,2.12c6.67-7.97,18.17-8.94,27.62-6.19c5.05,1.47,9.95,4.85,15.39,4.51
			c6.45-0.41,9.01-6.89,10.45-12.32c1.78-6.76,1.62-13.98-0.46-20.65c-0.41-1.32-1.99-1.37-2.74-0.36
			c-1.95,2.63-4.11,5.09-6.44,7.39c-1.13,1.11-2.3,2.18-3.51,3.21c-1.24,1.05-2.55,2.28-4.03,2.98c-2.8,1.33-4.8-1.96-6.05-4.02
			c-1.24-2.06-2.12-4.29-2.67-6.63c-1.13-4.8-0.79-9.9,0.83-14.55c1.7-4.88,4.83-8.45,8.85-11.58c2.13-1.65,4.26-3.54,4.99-6.24
			c0.61-2.25,0.25-4.91-1.56-6.52c-2.27-2.01-6.21-1.77-9.04-1.8c-3.38-0.03-6.77,0.28-10.09,0.87c-2.86,0.51-6.37,1.02-8.85,2.64
			c-2.76,1.81-2.55,4.79-1.22,7.46c1.49,2.97,2.92,5.86,3.92,9.04c0.98,3.13,1.67,6.37,1.98,9.63c0.3,3.12,0.33,6.32-0.03,9.43
			c-0.34,2.86-1.19,5.77-3.47,7.69c-2.21,1.85-5.15,2.64-7.83,3.51c-3.48,1.13-6.95,2.25-10.43,3.38
			c-3.48,1.13-6.95,2.25-10.43,3.38c-3.11,1.01-6.5,2.57-9.81,2.63c-6.17,0.11-8.18-7.73-8.57-12.64
			c-0.47-5.79,0.94-11.6,3.41-16.82c2.52-5.33,6.04-9.78,10.01-14.08c1.83-1.98,3.6-4.25,3.77-7.05c0.17-2.73-1.36-5.19-3.48-6.78
			c-5.15-3.87-12.72-1.8-18.38-0.34c-13.11,3.38-25.29,9.79-37.38,15.71c-12.17,5.96-24.26,12.2-35.39,19.97
			c-5.58,3.89-10.94,8.1-16.63,11.85c-5.28,3.47-11.16,6.08-16.08,10.08c-4.46,3.62-8.23,9.22-7.69,15.21
			c0.48,5.39,4.24,9.38,6.58,14.02c0.54,1.06,0.96,2.17,1.21,3.34c0.31,1.45,0.09,2.9,0.18,4.37c0.18,3.03,1.88,5.02,4.73,5.93
			c3.04,0.97,6.41,1.19,9.55,1.71c3.56,0.58,7.11,1.17,10.67,1.75c7.2,1.18,14.4,2.37,21.59,3.55c7.03,1.16,14.07,2.48,21.16,3.22
			c2.69,0.28,5.54,0.3,8.02-0.92c2.36-1.16,3.72-3.35,4.53-5.77c0.8-2.41,1.03-5.09,2.4-7.27c1.36-2.16,3.84-3.08,6.25-3.5
			c2.71-0.46,5.51-0.29,8.25-0.22c3.6,0.1,7.19,0.2,10.79,0.29c4.7,0.13,11.47-0.06,14.15,4.67c1.34,2.37,1.38,5.28,1.91,7.88
			c0.53,2.61,1.6,5.03,3.72,6.72c2.14,1.7,4.77,2.45,7.21,3.59c2.32,1.09,4.48,2.51,6.46,4.12c8.19,6.63,14.61,16.07,25.3,18.9
			c6.6,1.75,13.77,1.47,20.55,1.75c3.65,0.15,7.3,0.31,10.96,0.46c3.09,0.13,6.2,0.31,9.28-0.14c2.99-0.44,5.67-1.6,7.97-3.58
			c2.28-1.96,4.04-4.47,6.06-6.68c4.1-4.46,8.84-8.29,14.06-11.37c2.43-1.43,4.95-2.71,7.55-3.79c1.29-0.54,2.61-1.03,3.94-1.48
			c0.66-0.22,1.33-0.45,2.01-0.64c0.31-0.09,0.78-0.1,1.06-0.23c0.1,0.01,0.21,0.01,0.31,0.02c-0.2-0.29-0.07-0.52,0.4-0.67
			c-0.81-0.11-1.49,0.77-1.5,1.5C832.26,390.6,832.97,391.09,833.77,391.2L833.77,391.2z"/>
	</g>
</g>
<g>
	<path class="st4" d="M795.08,311.96c4.11,4.12,7.69,8.77,10.62,13.81c2.06,3.55,3.84,7.46,3.74,11.56
		c-0.1,4.05-2.01,7.8-3.34,11.63c-1.34,3.89-2.1,7.98-2.24,12.1c-0.05,1.56,0.02,3.24,0.95,4.5c1.05,1.42,2.91,1.94,4.65,2.18
		c5.86,0.8,11.85-0.57,17.28-2.92c3.28-1.42,6.45-3.23,8.9-5.83c2.69-2.85,4.36-6.49,5.9-10.09c9.76-22.77,16.31-48.6,8.74-72.19
		c-0.57-1.77-1.22-3.54-2.32-5.04c-2.65-3.64-7.37-5.09-11.84-5.6c-1.2-0.14-2.45-0.22-3.6,0.19c-3.88,1.38-3.94,6.79-3.27,10.86
		c0.75,4.52,1.5,9.04,2.24,13.56c0.62,3.72,0.56,8.67-2.99,9.93c-4.36,1.55-7.66-4.45-12.13-5.66c-1.81-0.49-3.81-0.16-5.56-0.85
		c-1.82-0.71-3.05-2.37-4.39-3.79c-2.04-2.16-4.54-3.89-7.28-5.03c-1.07-0.45-2.27-0.8-3.36-0.41c-1.13,0.41-1.82,1.52-2.38,2.59
		c-1.52,2.92-2.61,6.06-3.23,9.29c-0.65,3.35-0.78,6.9,0.41,10.1c1.19,3.2,3.89,5.98,7.26,6.54"/>
	<g>
		<path class="st4" d="M794.01,313.02c3.92,3.95,7.34,8.34,10.16,13.13c1.43,2.42,2.72,4.94,3.37,7.69c0.67,2.84,0.31,5.6-0.57,8.35
			c-0.91,2.84-2.16,5.55-2.98,8.41c-0.83,2.87-1.34,5.83-1.56,8.8c-0.18,2.5-0.32,5.32,1.41,7.35c1.55,1.83,4.02,2.32,6.28,2.57
			c5.72,0.62,11.51-0.74,16.76-2.95c4.9-2.06,9.26-4.92,12.23-9.41c3-4.53,4.89-9.91,6.83-14.96c2.08-5.43,3.92-10.96,5.4-16.59
			c2.86-10.89,4.41-22.27,3.44-33.53c-0.48-5.55-1.51-11.11-3.33-16.38c-0.84-2.44-1.97-4.78-3.92-6.53
			c-1.77-1.59-3.92-2.66-6.18-3.37c-4.12-1.28-10.12-2.41-12.67,2.08c-2.25,3.97-1.01,9.01-0.31,13.22c0.51,3.07,1.02,6.13,1.52,9.2
			c0.34,2.03,0.65,4.18,0.2,6.21c-0.36,1.63-1.39,3.2-3.27,3.04c-1.78-0.16-3.35-1.66-4.69-2.71c-1.63-1.27-3.31-2.6-5.34-3.15
			c-1.26-0.34-2.57-0.31-3.85-0.46c-1.46-0.17-2.52-0.75-3.56-1.77c-1.88-1.86-3.52-3.78-5.73-5.28c-2.04-1.38-4.87-3.08-7.43-2.74
			c-2.64,0.34-3.88,2.89-4.87,5.06c-1.17,2.57-2.07,5.26-2.6,8.03c-1,5.18-0.77,10.86,2.85,15.03c1.52,1.75,3.59,3.02,5.87,3.46
			c1.89,0.37,2.69-2.53,0.8-2.89c-5.02-0.97-7.11-6.13-7.05-10.76c0.03-2.63,0.59-5.24,1.37-7.74c0.38-1.23,0.83-2.45,1.37-3.62
			c0.47-1.03,0.94-2.32,1.76-3.12c1-0.97,2.4-0.29,3.48,0.2c1.16,0.53,2.26,1.18,3.3,1.91c2.05,1.45,3.47,3.47,5.35,5.1
			c1.98,1.73,4.09,2.02,6.63,2.23c2.09,0.17,3.67,1.16,5.29,2.41c2.88,2.22,6.26,5.13,10.07,3.11c3.42-1.81,3.74-6.35,3.36-9.75
			c-0.6-5.39-1.95-10.68-2.59-16.06c-0.4-3.34-0.35-8.49,4.18-8.4c4.29,0.09,9.63,1.59,12.15,5.32c1.42,2.1,2.09,4.69,2.75,7.11
			c0.68,2.49,1.21,5.02,1.61,7.57c1.62,10.51,0.73,21.31-1.5,31.66c-2.25,10.43-5.8,20.62-10.11,30.37
			c-2.05,4.64-4.54,8.79-8.92,11.56c-4.35,2.76-9.61,4.66-14.73,5.23c-2.46,0.28-5.14,0.35-7.56-0.26
			c-0.99-0.25-2.01-0.64-2.57-1.55c-0.61-0.99-0.56-2.29-0.53-3.42c0.17-5.71,1.89-10.85,3.85-16.15c0.9-2.43,1.66-4.96,1.72-7.58
			c0.06-2.62-0.59-5.21-1.59-7.62c-1.96-4.74-4.94-9.11-8.12-13.11c-1.59-2-3.29-3.89-5.08-5.7
			C794.77,309.53,792.65,311.65,794.01,313.02L794.01,313.02z"/>
	</g>
</g>
<g>
	<path class="st5" d="M504.15,347.04c0.19-0.67,0.57-1.12,1.03-1.4c0.65-1.13,1.78-1.9,2.69-2.82c0.88-0.88,1.73-1.81,2.57-2.74
		c0-0.2,0.02-0.41,0.07-0.64c0.2-0.84,0.41-1.6,0.65-2.29c0.04-0.33,0.16-0.67,0.38-1.02c0.01-0.02,0.03-0.04,0.05-0.06
		c0.84-1.87,2.09-3.21,4.54-4.35c3.43-1.6,6.33-0.87,9.53,0.9c3.7,2.05,7.59,3.41,11.35,5.26l139.26-65.91
		c-41.23,4.08-80.73,18.17-119.74,32.15c-7.87,2.82-15.74,5.64-23.62,8.46c-2.81,1.01-5.64,2.02-8.26,3.47
		c-2.43,1.34-4.64,3.04-6.95,4.58c-9.44,6.29-20.6,10.04-28.98,17.7c-3.48,3.18-6.37,6.94-9.24,10.68
		c-6.47,8.43-12.93,16.86-19.4,25.28l47.01-22.25C504.75,351.47,503.46,349.45,504.15,347.04z"/>
	<g>
		<path class="st5" d="M505.6,347.44c0.14-0.39,0.38-0.46,0.64-0.74c0.27-0.28,0.44-0.64,0.69-0.93c0.56-0.64,1.25-1.16,1.86-1.75
			c1.21-1.17,2.86-2.49,3.17-4.17c0.53-2.93,1.82-5.29,4.55-6.65c3.71-1.84,6.7-0.09,10.04,1.59c1.72,0.86,3.5,1.62,5.27,2.39
			c0.85,0.37,1.7,0.73,2.54,1.12c0.77,0.35,1.78,1.09,2.65,1.09c0.59,0,1.34-0.48,1.87-0.73c1.1-0.52,2.2-1.04,3.29-1.56
			c4.03-1.91,8.06-3.81,12.09-5.72c5.92-2.8,11.84-5.6,17.76-8.41c7.04-3.33,14.09-6.67,21.13-10c7.53-3.56,15.06-7.13,22.59-10.69
			c7.23-3.42,14.46-6.85,21.7-10.27c6.3-2.98,12.59-5.96,18.89-8.94c4.59-2.17,9.18-4.34,13.77-6.52c2.21-1.05,4.49-2.02,6.65-3.15
			c0.09-0.05,0.19-0.09,0.29-0.14c1.31-0.62,0.71-2.94-0.76-2.8c-16.32,1.63-32.44,4.78-48.3,8.89
			c-15.87,4.11-31.48,9.16-46.97,14.51c-15.83,5.47-31.56,11.2-47.33,16.85c-3.68,1.32-7.41,2.59-10.77,4.61
			c-3.3,1.98-6.33,4.36-9.66,6.3c-6.16,3.61-12.72,6.51-18.72,10.39c-3.05,1.98-5.95,4.22-8.5,6.81c-2.76,2.8-5.16,5.93-7.56,9.04
			c-5.25,6.83-10.49,13.67-15.74,20.51c-1.31,1.71-2.63,3.42-3.94,5.14c-1.01,1.32,0.87,2.61,2.05,2.05c5.29-2.5,10.57-5,15.86-7.51
			c8.44-3.99,16.87-7.98,25.31-11.98c1.95-0.92,3.9-1.84,5.85-2.77c1.21-0.57,0.81-2.41-0.36-2.74
			C505.94,350.16,505.2,349.03,505.6,347.44c0.47-1.87-2.42-2.67-2.89-0.8c-0.8,3.16,0.85,5.97,3.99,6.85
			c-0.12-0.91-0.24-1.83-0.36-2.74c-5.29,2.5-10.57,5-15.86,7.51c-8.44,3.99-16.87,7.98-25.31,11.98c-1.95,0.92-3.9,1.84-5.85,2.77
			c0.68,0.68,1.37,1.37,2.05,2.05c5.15-6.72,10.3-13.43,15.46-20.15c4.74-6.18,9.27-12.82,15.47-17.65
			c5.64-4.39,12.19-7.42,18.45-10.79c3.17-1.71,6.27-3.53,9.23-5.58c3.25-2.25,6.46-4.27,10.16-5.69c7.7-2.96,15.54-5.59,23.3-8.38
			c7.64-2.74,15.29-5.48,22.95-8.17c15.32-5.37,30.74-10.5,46.41-14.79c15.54-4.26,31.33-7.73,47.33-9.69
			c2.04-0.25,4.08-0.48,6.12-0.68c-0.25-0.93-0.5-1.86-0.76-2.8c-4.64,2.19-9.27,4.39-13.91,6.58
			c-11.06,5.23-22.11,10.47-33.17,15.7c-13.44,6.36-26.89,12.73-40.33,19.09c-11.56,5.47-23.12,10.94-34.68,16.41
			c-3.85,1.82-7.7,3.64-11.55,5.47c-1.77,0.84-3.7,1.56-5.4,2.55c-0.07,0.04-0.16,0.07-0.23,0.11c0.5,0,1.01,0,1.51,0
			c-3.12-1.52-6.37-2.75-9.48-4.29c-2.84-1.4-5.56-3.14-8.87-2.95c-5.7,0.33-10.17,5.1-10.47,10.73c0.15-0.35,0.29-0.71,0.44-1.06
			c-1.29,1.42-2.63,2.74-4.01,4.07c-0.43,0.41-0.96,1.17-1.21,1.44c-0.65,0.71-1.11,1.15-1.45,2.11
			C502.04,348.46,504.94,349.24,505.6,347.44z"/>
	</g>
</g>
<g>
	<g>
		<path class="st5" d="M882.22,285.6c-4.38-5.67-10.22-10.05-16.39-13.68c-25.31-14.87-56-17.43-85.31-15.92
			c-29.31,1.51-58.46,6.71-87.8,5.89c-6.6-0.18-13.28-0.66-19.72,0.78c-6.44,1.44-12.75,5.17-15.47,11.2l-123.61,62.6
			c1.17,0.51,2.33,1.04,3.48,1.61c0.31,0.15,0.61,0.34,0.92,0.54c1.14,0.18,2.23,0.6,2.92,1.45c0.49,0.59,0.73,1.27,0.69,1.95
			c0.19,0.35,0.3,0.75,0.32,1.14c0.06,1.4-1.19,2.41-2.49,2.49c-0.13,0.01-0.25,0-0.38,0c-1.44,0.75-3.45,0.45-5.05,0.47
			c-0.61,0.01-1.22,0.02-1.85,0.04c-1.53,0.1-3.05,0.19-4.58,0.3c-3.16,0.32-6.32,0.87-9.22,1.81c-3.25,1.05-7.46,4.37-11.02,3.88
			c-1.02-0.14-1.88-0.54-2.52-1.12l-43.6,22.08c-1.28-0.85-2.71,1.45-1.83,2.71c0.88,1.26,2.64,1.44,4.17,1.5
			c18.67,0.73,38.92,1.01,54.05-9.97c3.44-2.49,6.56-5.55,10.49-7.16c5.71-2.34,12.18-1.28,18.25-0.18
			c13.1,2.37,26.21,4.74,39.31,7.1c11.28,2.04,22.56,4.08,33.87,6c14.74,2.51,29.52,4.81,44.32,6.91
			c9.33,1.32,18.97,2.55,28.07,0.09c7.99-2.16,14.95-7.01,22.55-10.3c15.41-6.67,33.05-6.7,49.47-3.19
			c16.42,3.51,31.91,10.37,47.26,17.17c5.74,2.55,11.65,5.2,15.96,9.77c4.47,4.73,6.79,11.02,9.56,16.91
			c2.77,5.89,6.42,11.85,12.28,14.66c5.87,2.81,14.34,0.88,16.43-5.28c1.36-4.02-0.25-8.36-1.72-12.34
			c-9.56-25.74-13.19-57.3,4.29-78.45c5.84,4.32,12.38,7.7,19.29,9.97C893.28,321.3,893.61,300.34,882.22,285.6z M778.13,308.77
			c-0.01,0.89-0.31,1.84-1.02,2.8c-2.75,3.73-2.2,10.66-2.5,15.08c-0.27,3.89-0.65,7.76-1.07,11.64c-0.22,2.07-1.33,6.56-0.87,7.76
			c1.34,3.5-2.03,6.62-5.19,6.83c-4.41,0.29-9,1.23-13.11-0.86c-9.15,1.7-17.91-0.01-26.91-2.17c-4.97-1.2-9.87-1.15-14.87-1.99
			c-1.05-0.18-2.09-0.4-3.12-0.66c-0.56,0.2-1.16,0.32-1.77,0.3c-3.87-0.07-7.69-1.19-10.56-3.9c-2.59-2.45-4.83-6.66-3.82-10.26
			c0.21-0.76,0.59-1.44,1.09-2.02c0.06-2.53,0.4-5.08,0-7.6c-0.36-2.29-1.38-4.32-2.4-6.38c-0.1-0.21-0.17-0.42-0.25-0.62
			c-1.67-2.14-3.15-4.38-4.69-6.6c-1.64-2.36-2.9-4.64-2.73-7.62c0.13-2.35,1.57-4.41,3.71-5.12c0.65-0.87,1.45-1.67,2.38-2.33
			c3.42-2.46,6.86-5.13,10.45-7.52c0.32-1.16,1.14-2.2,2.64-2.89c4.38-2,8.69-4.37,13.33-5.73c4.94-1.45,10.41-1.92,15.53-2.33
			c4.81-0.38,10.09-0.48,14.69,1.19c4.66,1.7,8.32,5.31,11.82,8.69c0.79,0.77,1.26,1.6,1.48,2.45c0.06,0.06,0.12,0.12,0.18,0.19
			c2.15,2.52,5.07,4.16,7.27,6.63c1.07,1.2,1.99,2.53,3.01,3.77c0.1,0.12,0.57,0.61,1,1.08
			C776.74,298.54,780.94,304.88,778.13,308.77z M855.53,277.63c-0.03,0-0.06,0-0.09,0c-0.16,0.06-0.34,0.09-0.51,0.05
			c-0.13-0.03-0.26-0.04-0.39-0.07c-0.12,0-0.24,0-0.37-0.01c-0.04,0-0.09-0.01-0.14-0.01c-0.16,1.26-0.98,2.38-2.65,2.73
			c-0.3,0.06-0.6,0.11-0.9,0.16c-0.01,0.01-0.01,0.03-0.02,0.04c-0.1,0.15-0.21,0.29-0.31,0.43c-0.18,0.56-0.48,1.09-0.88,1.48
			c-0.14,0.13-0.28,0.26-0.43,0.38c0.05,2.63-0.98,5.2-2.82,7.25c-0.36,0.4-0.78,0.83-1.22,1.23c-0.01,0.05-0.02,0.09-0.03,0.15
			c0.2,1.69-0.72,4.03-1.16,5.66c-1.05,3.9-2.36,7.69-3.21,11.65c-0.17,0.8-0.37,1.6-0.6,2.39c0.58,0.99,0.69,2.25-0.06,3.55
			c-1.87,3.26-3.19,6.7-4.22,10.31c-0.46,1.6-1.63,2.41-2.9,2.59c-1.11,1.54-2.28,3.05-3.29,4.7c-1.78,2.91-2.99,6.32-3.75,9.74
			c0.35,0.75,0.44,1.59,0.13,2.38c-0.82,2.06-0.28,4.18-0.14,6.33c0.15,2.21-0.1,4.5-1.21,6.45c-0.91,1.6-2.08,2.47-3.37,2.84
			c-0.69,0.29-1.44,0.36-2.2,0.17c-2.09-0.22-4.3-1.36-6.15-2.74c-0.42-0.32-0.79-0.69-1.09-1.1c-0.34-0.14-0.67-0.3-1-0.48
			c-0.76,0.05-1.47-0.16-2.2-0.49c-1.78-0.8-3.03-2.53-4.04-4.18c-0.77-0.41-1.56-0.8-2.34-1.2c-2.01-1.01-3.98-2.01-5.81-3.33
			c-2.04-1.47-4.08-3.22-5.87-5.21c-1.15-0.66-2.21-1.49-3.15-2.31c-1.87-1.65-3.42-3.84-3.48-6.42c-0.02-1,0.4-1.91,1.07-2.59
			c-0.51-4.26,0.19-9.04,0.53-13.13c0.16-1.9,0.38-3.77,0.72-5.59c0.01-0.08,0.03-0.17,0.04-0.25c0,0-0.01,0-0.01,0
			c0.18-1.26,0.4-2.5,0.65-3.73c0.08-2.36,0.52-5.12,1.95-7.08c0.78-2.13,1.73-4.2,2.92-6.2c0.47-0.79,1.08-1.29,1.75-1.55
			c1.14-1.87,2.45-3.66,3.91-5.23c0-0.62,0.16-1.23,0.54-1.74c2.48-3.36,6.54-4.46,10.58-4.38c0.56,0.01,1.04,0.13,1.47,0.32
			c1.44,0.14,3.06,0.68,4.31,0.51c1.65-0.23,2.91-1.29,4.34-2.18c2.13-1.32,4.34-2.87,6.69-4c0.35-0.33,0.78-0.6,1.3-0.8
			c0.05-0.02,0.1-0.03,0.15-0.05c0.49-0.65,1.18-1.17,1.99-1.48c3.64-1.4,7.67-1.45,11.49-0.92c0.05,0.01,0.1,0.02,0.15,0.03
			c0.57-0.21,1.21-0.29,1.92-0.19c2.73,0.41,5.53,0.26,8.28,0.48c1.62,0.13,2.8,1.23,3.34,2.54c0.2,0.06,0.4,0.13,0.6,0.19
			c0.09,0.01,0.19,0.01,0.28,0.02c0.21,0.02,0.38,0.11,0.51,0.23c0.14,0,0.27,0,0.41,0c0.46,0,0.81,0.38,0.83,0.83
			C856.38,277.25,855.96,277.63,855.53,277.63z"/>
	</g>
	<g>
		<path class="st5" d="M883.28,284.54c-5.81-7.38-13.84-12.69-22.15-16.89c-8.35-4.22-17.25-7.29-26.35-9.4
			c-18.84-4.35-38.38-4.73-57.6-3.57c-21.77,1.32-43.4,4.47-65.19,5.48c-5.44,0.25-10.88,0.37-16.32,0.29
			c-5.38-0.08-10.77-0.5-16.15-0.17c-8.32,0.52-17.23,3.3-22.05,10.61c-0.29,0.44-0.57,0.89-0.8,1.36c0.46-0.93-0.78,1.38,0.11,0.32
			c-0.02,0.02-0.05,0.02-0.07,0.04c-0.09,0.09-0.27,0.11-0.37,0.19c-0.43,0.31-1.02,0.52-1.49,0.76c-2.03,1.03-4.06,2.06-6.09,3.08
			c-7.12,3.6-14.23,7.21-21.35,10.81c-19.12,9.68-38.23,19.36-57.35,29.04c-12.09,6.12-24.45,11.89-36.34,18.4
			c-0.18,0.1-0.37,0.19-0.55,0.28c-0.94,0.48-1.02,2.14,0,2.59c1.6,0.71,3.14,1.65,4.75,2.31c1.26,0.52,2.3,0.68,2.56,2.35
			c0.2,1.22-0.4,1.56-1.5,1.79c-3.7,0.78-7.66,0.42-11.47,0.8c-3.68,0.37-7.52,0.98-10.92,2.49c-2.73,1.21-7.45,4.83-10.39,2.47
			c-0.56-0.45-1.17-0.56-1.82-0.23c-12.72,6.44-25.44,12.88-38.16,19.32c-1.81,0.92-3.63,1.84-5.44,2.76c0.5,0,1.01,0,1.51,0
			c-2.67-1.14-5.24,1.68-4.08,4.35c1.44,3.31,6.62,2.69,9.49,2.78c8.66,0.28,17.36,0.31,25.96-0.93c8.21-1.18,16.34-3.64,23.32-8.22
			c3.72-2.44,6.9-5.75,10.91-7.74c4.33-2.16,9.28-2.01,13.95-1.36c10.3,1.44,20.54,3.65,30.77,5.5c10.38,1.88,20.75,3.76,31.13,5.61
			c20.62,3.66,41.29,7.07,62.03,9.92c9.63,1.33,19.62,2.29,29.02-0.84c8.83-2.95,16.46-8.56,25.29-11.52
			c18.39-6.17,38.35-3.63,56.49,2.08c9.68,3.04,19.04,6.97,28.32,11.04c7.99,3.51,17.27,6.64,22.88,13.69
			c5.35,6.72,7.21,15.48,12.16,22.47c4.15,5.86,10.38,10.28,17.86,8.98c3.03-0.53,5.94-2,7.83-4.47c2.44-3.18,2.45-7.27,1.51-11.01
			c-1.04-4.14-2.84-8.1-4.11-12.17c-1.23-3.91-2.28-7.87-3.14-11.88c-3.36-15.67-3.91-33.07,3.11-47.87
			c1.71-3.62,3.85-7.02,6.38-10.12c-0.61,0.08-1.21,0.16-1.82,0.23c6,4.38,12.6,7.76,19.64,10.12c0.79,0.26,1.61-0.31,1.85-1.05
			c5.61-17.8,6.25-39.07-5.55-54.6c-1.15-1.52-3.76-0.02-2.59,1.51c11.36,14.94,10.64,35.17,5.25,52.29
			c0.62-0.35,1.23-0.7,1.85-1.05c-6.8-2.28-13.14-5.59-18.93-9.82c-0.49-0.36-1.43-0.24-1.82,0.23
			c-12.17,14.92-14.32,34.53-11.67,53.05c1.39,9.73,4.2,19.05,7.51,28.27c1.69,4.69,3.1,10.66-1.85,13.87
			c-3.55,2.29-8.4,2.2-12.03,0.19c-9.15-5.04-11.46-16.63-16.36-25.01c-2.51-4.28-5.82-7.79-9.98-10.49
			c-4.45-2.88-9.43-4.88-14.26-7.01c-20.93-9.24-42.81-18.27-66.09-18.08c-10.82,0.09-21.47,2.26-31.23,6.97
			c-5.08,2.45-9.92,5.41-15.19,7.47c-5.59,2.18-11.44,2.92-17.41,2.75c-6.29-0.18-12.52-1.18-18.74-2.08
			c-6.28-0.91-12.56-1.86-18.83-2.84c-12.22-1.91-24.41-3.98-36.59-6.14c-12.19-2.17-24.38-4.39-36.56-6.59
			c-6.13-1.11-12.27-2.22-18.4-3.33c-5.43-0.98-11.03-2.22-16.57-1.52c-5.27,0.67-9.25,3.42-13.32,6.62
			c-4.15,3.27-8.58,5.96-13.56,7.79c-9.68,3.55-20.12,4.24-30.34,4.21c-2.58-0.01-5.15-0.07-7.73-0.15
			c-1.16-0.04-2.32-0.08-3.48-0.12c-1.22-0.05-3.46,0.22-3.42-1.45c-0.12,0-0.24,0.01-0.37,0.01c0.23,0.14,0.49,0.2,0.76,0.2
			c0.62-0.06,0.19-0.02,0.76-0.21c0.05-0.02,0.1-0.06,0.15-0.08c0.36-0.15,0.7-0.35,1.04-0.53c3.91-1.98,7.81-3.96,11.72-5.93
			c9.58-4.85,19.15-9.7,28.73-14.55c0.65-0.33,1.3-0.66,1.96-0.99c-0.61-0.08-1.21-0.16-1.82-0.23c3.83,3.08,8.22,0.88,12.04-1.05
			c5.16-2.59,10.97-3.18,16.67-3.4c3.22-0.12,9.78,0.8,10.84-3.52c0.44-1.81-0.43-4.37-1.8-5.58c-0.94-0.83-2.1-1.04-3.22-1.52
			c-1.33-0.56-2.61-1.28-3.94-1.87c0,0.86,0,1.73,0,2.59c9.84-4.99,19.69-9.97,29.53-14.96c18.94-9.59,37.89-19.19,56.83-28.78
			c12.15-6.15,24.29-12.3,36.44-18.45c0.25-0.12,0.56-0.23,0.78-0.4c0.84-0.64,1.2-1.89,1.78-2.76c1.26-1.89,2.95-3.49,4.84-4.74
			c8.58-5.7,19.32-4.46,29.09-4.25c21.68,0.48,43.25-2.25,64.79-4.27c19.72-1.85,39.61-3.06,59.35-0.74
			c18.61,2.19,37.61,7.64,52.97,18.7c3.78,2.72,7.19,5.89,10.07,9.54C882.35,288.18,884.46,286.04,883.28,284.54z"/>
		<path class="st5" d="M776.63,308.77c-0.05,0.97-0.58,1.64-1.08,2.42c-0.47,0.75-0.83,1.56-1.12,2.39c-0.61,1.74-0.85,3.61-1,5.45
			c-0.33,3.99-0.31,7.99-0.66,11.98c-0.35,4-0.92,7.91-1.48,11.88c-0.1,0.73-0.22,1.48-0.22,2.22c0,0.73,0.25,1.32,0.37,2.02
			c0.28,1.66-0.97,3.09-2.38,3.77c-1.7,0.83-4.02,0.69-5.88,0.82c-2.13,0.16-4.31,0.22-6.39-0.38c-1.09-0.31-1.91-0.93-3.06-0.75
			c-1.3,0.21-2.59,0.39-3.91,0.48c-2.44,0.17-4.89,0.14-7.32-0.06c-4.96-0.4-9.81-1.51-14.64-2.64c-4.89-1.14-9.93-1.16-14.87-1.99
			c-1.04-0.18-2.08-0.53-3.12-0.66c-0.65-0.08-1.08,0.16-1.71,0.24c-0.54,0.07-1.12,0-1.66-0.04c-2.03-0.16-4.07-0.68-5.86-1.65
			c-3.28-1.79-6.43-5.72-6.04-9.67c0.1-1.07,0.64-1.65,1.1-2.54c0.5-0.97,0.28-2.53,0.34-3.61c0.11-2.29,0.09-4.6-0.57-6.82
			c-0.58-1.95-1.47-4.12-2.53-5.84c-1.29-2.08-2.91-4.04-4.3-6.06c-1.88-2.73-4.7-7.59-1.25-10.35c0.65-0.52,1.4-0.65,1.96-1.28
			c0.86-0.96,1.74-1.72,2.79-2.49c1.99-1.45,3.96-2.93,5.96-4.37c0.91-0.65,1.82-1.3,2.75-1.93c0.45-0.31,1.04-0.59,1.33-1.07
			c0.21-0.35,0.26-0.77,0.49-1.11c0.53-0.78,1.4-1.14,2.22-1.52c1.1-0.51,2.19-1.04,3.28-1.56c4.31-2.07,8.61-3.85,13.33-4.74
			c4.56-0.86,9.27-1.27,13.9-1.46c4.46-0.18,9.14,0.07,13.17,2.17c1.89,0.99,3.61,2.27,5.22,3.67c0.78,0.68,1.53,1.38,2.28,2.09
			c0.79,0.75,1.77,1.5,2.38,2.42c0.51,0.76,0.68,1.53,1.32,2.23c0.74,0.81,1.55,1.54,2.39,2.24c1.69,1.41,3.45,2.73,4.89,4.41
			c1.27,1.49,2.39,3.08,3.72,4.51c0.34,0.36,0.98,0.56,1.46,0.39c3.55-1.34,6.72,2.9,4.62,6c-1.09,1.6,1.51,3.11,2.59,1.51
			c3.52-5.2-2.03-12.67-8.01-10.41c0.49,0.13,0.97,0.26,1.46,0.39c-1.8-1.94-3.23-4.2-5.16-6.02c-1-0.94-2.08-1.77-3.13-2.64
			c-0.97-0.8-2.33-1.72-2.98-2.81c0.24,0.4-0.08-0.34-0.12-0.43c-0.13-0.31-0.28-0.6-0.46-0.89c-0.38-0.6-0.87-1.11-1.37-1.61
			c-0.98-0.96-1.97-1.9-2.99-2.82c-2.02-1.82-4.18-3.56-6.6-4.82c-5.17-2.7-11.16-2.86-16.85-2.46c-6.05,0.43-12.29,0.92-18.07,2.86
			c-3.14,1.05-6.13,2.49-9.12,3.92c-2.69,1.29-5.63,2.22-6.61,5.33c0.23-0.3,0.46-0.6,0.69-0.9c-2.46,1.64-4.84,3.39-7.21,5.15
			c-2.2,1.62-4.47,3.06-6.15,5.24c0.3-0.23,0.6-0.46,0.9-0.69c-2.79,1.03-4.55,3.44-4.8,6.4c-0.28,3.36,1.36,6.28,3.19,8.95
			c1.08,1.57,2.15,3.15,3.27,4.69c0.96,1.32,1.65,2.59,2.33,4.08c0.75,1.63,1.29,3.32,1.41,5.11c0.13,2.06-0.09,4.12-0.16,6.18
			c0.15-0.35,0.29-0.71,0.44-1.06c-2.92,3.66-1.78,8.58,0.78,12.13c2.68,3.71,6.67,5.85,11.18,6.43c1.15,0.15,2.34,0.27,3.5,0.09
			c1.16-0.19,2.22,0.21,3.38,0.4c2.68,0.45,5.39,0.67,8.09,0.94c5.57,0.56,10.91,2.17,16.43,3.08c6.01,0.98,12.05,1.23,18.06,0.15
			c-0.39-0.05-0.77-0.1-1.16-0.15c4.42,2.14,9.46,1.57,14.19,1.03c3.85-0.44,7.42-3.92,6.53-8c-0.16-0.74-0.29-0.95-0.24-1.72
			c0.06-0.91,0.23-1.82,0.38-2.72c0.35-2.01,0.63-4,0.83-6.03c0.48-4.69,0.82-9.36,0.98-14.08c0.08-2.27,0.2-4.57,0.84-6.76
			c0.66-2.24,2.38-3.84,2.51-6.26C779.73,306.84,776.73,306.85,776.63,308.77z"/>
		<path class="st5" d="M855.53,276.13c-0.5-0.01-0.99-0.01-1.5-0.04c-0.6-0.04-1.34,0.49-1.45,1.1c-0.17,0.99-0.62,1.44-1.6,1.69
			c-0.82,0.21-1.23,0.18-1.79,0.85c-0.29,0.35-0.4,0.72-0.61,1.11c-0.24,0.44-0.64,0.66-0.92,1.06c-0.38,0.53-0.3,1.08-0.34,1.7
			c-0.09,1.31-0.52,2.6-1.17,3.73c-0.66,1.15-1.63,1.88-2.42,2.9c-0.69,0.89-0.39,2.05-0.63,3.1c-0.56,2.54-1.42,5.05-2.16,7.55
			c-0.87,2.95-1.58,5.92-2.35,8.9c-0.15,0.58-0.39,1.15-0.26,1.75c0.17,0.76,0.57,1.05,0.31,1.89c-0.41,1.33-1.38,2.61-1.95,3.89
			c-0.54,1.2-1.04,2.42-1.48,3.66c-0.46,1.27-0.71,2.73-1.27,3.95c-0.49,1.06-1.25,0.86-2.1,1.37c-0.55,0.32-0.95,1.1-1.31,1.6
			c-0.43,0.59-0.87,1.18-1.29,1.78c-1.59,2.27-2.84,4.7-3.79,7.3c-0.45,1.24-0.82,2.51-1.14,3.79c-0.13,0.55-0.29,1.08-0.2,1.65
			c0.06,0.35,0.26,0.61,0.25,0.98c-0.01,0.44-0.23,0.85-0.34,1.27c-0.72,2.68,0.22,5.43,0.03,8.15c-0.16,2.28-1.12,4.98-3.49,5.76
			c-2.35,0.77-5.64-0.99-7.34-2.56c-0.93-0.86-1.6-1.49-2.93-1.64c-1.4-0.16-2.45-0.92-3.36-1.97c-0.79-0.92-1.22-2.08-2.29-2.69
			c-1.27-0.74-2.64-1.32-3.94-2.01c-2.49-1.32-4.77-2.9-6.87-4.78c-1.07-0.97-2-2.17-3.2-2.96c-1.23-0.82-2.4-1.69-3.41-2.77
			c-0.89-0.95-1.63-2.07-1.94-3.34c-0.14-0.57-0.24-1.21-0.05-1.78c0.21-0.66,0.85-1.01,0.95-1.71c0.11-0.73-0.11-1.62-0.13-2.37
			c-0.03-0.74-0.02-1.48,0-2.22c0.04-1.57,0.17-3.13,0.31-4.69c0.29-3.17,0.54-6.35,1.09-9.49c0.12-0.71-0.19-1.73-1.05-1.85
			c0,0-0.01,0-0.01,0c0.35,0.62,0.7,1.23,1.05,1.85c0.24-1.63,0.63-3.25,0.74-4.89c0.1-1.43,0.34-2.92,0.93-4.23
			c0.26-0.59,0.65-1.11,0.93-1.69c0.33-0.7,0.56-1.46,0.87-2.17c0.58-1.3,1.26-3.26,2.34-4.22c0.51-0.46,1.02-0.58,1.43-1.18
			c0.45-0.67,0.87-1.35,1.33-2.01c0.85-1.19,2.33-2.36,2.67-3.79c0.58-2.45,3.67-3.79,5.91-4.29c1.24-0.28,2.83-0.53,4.09-0.29
			c1.42,0.27,2.84,0.68,4.3,0.79c2.93,0.23,5.37-1.86,7.7-3.35c1.43-0.91,2.85-1.84,4.35-2.63c0.61-0.32,1.14-0.74,1.75-1.06
			c0.64-0.33,0.98-0.77,1.55-1.19c1.11-0.81,2.74-1.07,4.07-1.29c1.63-0.27,3.32-0.3,4.97-0.2c0.81,0.05,1.61,0.18,2.42,0.24
			c0.81,0.06,1.55-0.2,2.37-0.12c1.83,0.17,3.63,0.29,5.46,0.34c1.54,0.05,3.42-0.23,4.42,1.2c0.47,0.67,0.57,1.18,1.43,1.46
			c0.28,0.09,0.56,0.12,0.85,0.19c0.09,0.12,0.22,0.18,0.4,0.19c0.69,0.23,0.82-0.18,0.4-1.23c-1.89,0.4-1.09,3.29,0.8,2.89
			c1.58-0.33,2.43-2.06,1.57-3.48c-0.78-1.29-2.17-1.14-3.36-1.51c0.3,0.23,0.6,0.46,0.9,0.69c-2.08-4.59-7.94-3.2-12.01-3.65
			c-0.58-0.06-1.15-0.18-1.73-0.16c-0.23,0.01-0.57,0.03-0.78,0.09c-0.08,0.02-0.81,0.21-0.07,0.15c-1.11,0.08-2.39-0.3-3.51-0.34
			c-2.44-0.1-4.93,0.11-7.28,0.77c-1.03,0.29-2.09,0.63-2.96,1.26c-0.35,0.25-0.67,0.52-0.96,0.83c0.24-0.26,0.26-0.09-0.07,0.09
			c-0.36,0.19-0.68,0.34-1.02,0.57c-2.01,1.32-4.17,2.47-6.21,3.77c-1.91,1.21-3.62,2.76-6.01,2.36c-2.18-0.36-4.13-0.88-6.36-0.66
			c-4.07,0.41-10.1,2.71-10.36,7.53c0.15-0.35,0.29-0.71,0.44-1.06c-0.82,0.89-1.59,1.83-2.31,2.81c-0.55,0.74-1.15,1.88-1.72,2.4
			c-0.84,0.75-1.52,1.28-2.1,2.28c-0.66,1.12-1.23,2.29-1.76,3.48c-0.47,1.06-0.88,2.11-1.44,3.13c-0.54,0.97-0.92,2.05-1.16,3.13
			c-0.24,1.03-0.35,2.09-0.44,3.14c-0.12,1.37-0.43,2.73-0.63,4.09c-0.11,0.71,0.17,1.73,1.05,1.85c0,0,0.01,0,0.01,0
			c-0.35-0.62-0.7-1.23-1.05-1.85c-0.56,3.19-0.83,6.41-1.13,9.63c-0.31,3.24-0.57,6.49-0.21,9.73c0.15-0.35,0.29-0.71,0.44-1.06
			c-2.01,2.21-1.76,5.12-0.43,7.64c0.64,1.21,1.56,2.31,2.56,3.24c1.16,1.08,2.56,1.85,3.73,2.89c1.21,1.08,2.28,2.28,3.54,3.32
			c1.22,1,2.48,1.96,3.82,2.79c1.39,0.86,2.85,1.6,4.32,2.33c0.58,0.29,1.46,0.57,1.95,0.99c0.44,0.38,0.8,1.11,1.19,1.61
			c0.88,1.14,1.93,2.15,3.24,2.78c0.68,0.33,1.33,0.49,2.07,0.64c0.76,0.16,1.02,0.41,1.62,0.95c2.16,1.94,5.47,3.55,8.42,3.53
			c2.83-0.02,5.21-2.16,6.34-4.6c1.38-3,1-6.03,0.77-9.2c-0.14-1.96,0.69-3.66,0.48-5.59c-0.01-0.06-0.16-0.42-0.16-0.41
			c0-0.52,0.29-1.2,0.43-1.71c0.24-0.85,0.5-1.69,0.8-2.52c1.27-3.52,3.38-6.43,5.55-9.43c-0.3,0.23-0.6,0.46-0.9,0.69
			c3.85-0.69,4.2-4.85,5.34-7.89c0.69-1.83,1.52-3.59,2.46-5.31c0.99-1.83,1.26-3.55,0.28-5.45c0.05,0.39,0.1,0.77,0.15,1.16
			c0.78-2.81,1.37-5.66,2.19-8.47c0.76-2.6,1.54-5.2,2.28-7.81c0.31-1.1,0.5-2.18,0.57-3.32c0.02-0.24-0.31,0.13,0.05-0.04
			c0.27-0.13,0.53-0.54,0.74-0.77c0.4-0.45,0.78-0.93,1.13-1.42c1.41-2.02,2.14-4.43,2.14-6.88c-0.15,0.35-0.29,0.71-0.44,1.06
			c0.83-0.7,1.42-1.66,1.88-2.63c-0.3,0.23-0.6,0.46-0.9,0.69c2.24-0.39,4.18-1.53,4.59-3.95c-0.48,0.37-0.96,0.73-1.45,1.1
			c0.5,0.03,1.19,0.03,1.5,0.04C857.46,279.18,857.46,276.18,855.53,276.13z"/>
	</g>
</g>
<g>
	<g>
		<path class="st5" d="M865.82,428.55c-0.7-0.62-1.67-0.82-2.6-0.94c-7.65-1.03-15.28,1.61-22.99,2.11
			c-7.7,0.51-16.79-2.21-19.3-9.52c-0.64-1.87-0.83-3.98-2.11-5.5c-1.35-1.6-3.57-2.11-5.62-2.52
			c-33.2-6.55-67.45-10.43-100.84-4.94c-37.4,6.15-72.48,23.84-110.24,27.08c-7.5,0.64-15.15,0.73-22.35,2.91
			c-4.08,1.24-7.96,3.13-12.08,4.23c-6.02,1.61-12.36,1.47-18.54,2.33c-18.56,2.6-35.4,15.02-43.62,31.84l-3.73,2.35
			c6.67,6.5,16.53,8.15,25.74,9.49c7.91,1.15,16.2,2.27,23.71-0.45c3.15-1.14,6.06-2.93,9.28-3.87c9.72-2.86,20.15,2.39,30.18,0.95
			c7.32-1.05,13.64-5.52,20.54-8.17c14.1-5.43,29.85-3.06,44.76-0.61c17.08,2.8,34.16,5.6,51.24,8.4
			c7.88,1.29,15.84,2.59,23.81,2.05c8.95-0.6,17.56-3.49,26.18-5.99c11.38-3.29,22.97-5.93,34.72-7.45
			c14.26-1.85,30.25-2.76,40.03-13.32c3.45-3.73,5.79-8.38,9.33-12.01c5.31-5.44,12.77-8.07,19.87-10.79
			C864.59,434.93,868.54,430.94,865.82,428.55z M738.49,447.89c-0.58,4.44,0.5,10.24-3.85,13.1c-1.39,0.91-2.74,0.74-3.75,0.02
			c-0.08,0-0.16,0-0.25-0.01c-2.56,0.43-5.47-0.59-7.82-1.89c-2.29-1.26-4.22-3.2-6.83-3.8c-2.91-0.68-6.32-0.13-9.24,0.29
			c-4.6,0.67-9.08,2.4-13.49,0.2c-2.27-1.13-2.25-4.19-0.75-5.86c0.07-0.09,0.15-0.18,0.23-0.26c0.23-0.96,0.79-1.92,1.74-2.79
			c0.8-0.74,1.82-1.41,2.94-1.93c4.03-3.79,8.66-6.39,14.56-7.08c4.06-0.48,7.93,0.21,11.96,0.43c3.82,0.2,7.55,0.01,11.32,0.81
			c1.46,0.31,2.92,2.08,2.74,3.6c-0.11,0.91-0.29,1.79-0.49,2.67C738.18,446.04,738.61,446.93,738.49,447.89z"/>
	</g>
	<g>
		<path class="st5" d="M866.58,427.26c-2.43-1.73-6.27-1.48-9.09-1.32c-3.43,0.2-6.81,0.82-10.19,1.38
			c-5.75,0.95-11.55,1.62-17.15-0.43c-2.27-0.83-4.43-2.14-6-4c-1.8-2.14-1.99-4.74-3.04-7.22c-1.05-2.48-3.15-3.83-5.69-4.51
			c-3.3-0.89-6.77-1.37-10.13-1.98c-28.38-5.15-57.55-8.06-86.3-4.38c-27.21,3.48-52.84,13.44-79.14,20.71
			c-13.26,3.67-26.71,6.55-40.45,7.55c-6.93,0.51-13.99,0.82-20.66,2.95c-3.32,1.06-6.5,2.51-9.82,3.56
			c-3.51,1.1-7.12,1.58-10.77,1.9c-6.22,0.54-12.33,1.05-18.31,2.95c-5.26,1.67-10.3,4.1-14.9,7.15c-4.6,3.06-8.81,6.73-12.43,10.92
			c-1.73,2-3.33,4.12-4.79,6.33c-0.74,1.13-1.44,2.28-2.1,3.46c-0.34,0.62-0.74,1.25-1.01,1.91c-0.22,0.53,0.29-0.04-0.16,0.4
			c-0.9,0.87-2.33,1.47-3.39,2.14c-0.8,0.5-1.03,1.67-0.3,2.36c8.63,8.21,21.82,9.55,33.12,10.77c6.66,0.72,13.37,0.59,19.61-2.07
			c2.96-1.26,5.78-2.85,8.95-3.52c3.17-0.67,6.47-0.48,9.67-0.1c6.32,0.75,12.62,2.39,19.02,1.43c6.18-0.92,11.63-4.14,17.21-6.74
			c12.68-5.9,26.61-5.16,40.11-3.18c14.41,2.12,28.76,4.67,43.13,7.02c7.19,1.18,14.37,2.44,21.58,3.5
			c7.09,1.04,14.22,1.68,21.36,0.77c6.88-0.87,13.54-2.87,20.17-4.83c6.9-2.04,13.85-3.9,20.89-5.41c6.7-1.44,13.45-2.51,20.24-3.34
			c5.67-0.69,11.36-1.35,16.93-2.64c5.24-1.22,10.46-3.05,14.95-6.07c4.92-3.32,8.05-7.92,11.48-12.65
			c3.8-5.24,8.71-8.64,14.59-11.22c4.59-2.02,11.21-3.11,13.8-7.96c0.99-1.85,0.81-3.82-0.68-5.32c-1.37-1.37-3.49,0.75-2.12,2.12
			c3.22,3.22-9.65,7.35-11.25,8.03c-5.19,2.19-10.26,4.93-14.05,9.19c-3.96,4.44-6.59,9.88-11.24,13.71
			c-4.15,3.42-9.25,5.46-14.4,6.82c-11.4,3-23.39,3.35-34.95,5.61c-6.73,1.31-13.39,2.94-19.99,4.8c-6.54,1.84-13.01,4-19.68,5.36
			c-14.02,2.87-27.98-0.27-41.85-2.54c-14.07-2.31-28.15-4.63-42.22-6.92c-12.5-2.03-25.5-3.94-38.03-1.06
			c-6.05,1.39-11.4,4.26-16.98,6.86c-2.75,1.28-5.59,2.42-8.58,3c-3.12,0.6-6.34,0.45-9.48,0.09c-6.04-0.7-12.1-2.31-18.21-1.57
			c-6.22,0.75-11.31,4.71-17.44,5.78c-6.65,1.16-13.55,0.02-20.15-0.98c-5.59-0.84-11.36-1.82-16.52-4.24
			c-2.53-1.18-4.84-2.7-6.86-4.62c-0.1,0.79-0.2,1.57-0.3,2.36c1.13-0.71,2.28-1.4,3.39-2.14c1.6-1.07,2.34-3.61,3.34-5.25
			c2.89-4.74,6.49-9.01,10.62-12.71c8.31-7.45,18.83-12.52,29.93-13.98c6.87-0.91,13.85-0.77,20.51-2.98
			c3.31-1.09,6.49-2.54,9.82-3.55c3.36-1.02,6.84-1.58,10.33-1.94c6.74-0.7,13.5-0.96,20.22-1.89c6.63-0.92,13.2-2.24,19.7-3.81
			c26.17-6.3,51.29-16.53,77.79-21.54c28.34-5.36,57.49-3.71,85.82,0.78c6.82,1.08,13.91,1.96,20.59,3.76
			c1.42,0.38,2.75,0.96,3.51,2.3c0.69,1.21,0.85,2.69,1.28,4c0.72,2.22,1.99,4.22,3.71,5.79c8.96,8.19,21.44,4.16,32.01,3
			c1.57-0.17,3.15-0.28,4.72-0.26c1.7,0.02,3.78-0.05,5.22,0.97C866.64,430.97,868.14,428.37,866.58,427.26z"/>
		<path class="st5" d="M736.99,447.89c-0.36,2.95,0.02,6.07-0.96,8.92c-0.44,1.28-1.55,3.03-3.02,3.28
			c-0.85,0.14-1.41-0.57-2.24-0.58c-0.92-0.01-1.78,0.14-2.7-0.02c-1.9-0.33-3.71-1.15-5.33-2.17c-1.55-0.98-2.98-2.13-4.67-2.87
			c-3.67-1.6-7.89-0.87-11.71-0.29c-3.87,0.59-8.61,2.38-12.34,0.35c-1.15-0.63-1.31-1.99-0.72-3.09c0.34-0.64,0.75-1.12,1.03-1.8
			c0.36-0.88,1.03-1.58,1.78-2.15c0.69-0.53,1.52-0.84,2.22-1.34c0.72-0.51,1.33-1.2,2.02-1.75c1.36-1.1,2.84-2.05,4.4-2.83
			c3.51-1.77,7.4-2.44,11.31-2.32c2.47,0.08,4.93,0.39,7.39,0.54c2.44,0.15,4.89,0.12,7.34,0.27c1.7,0.11,5.1-0.09,5.66,2.07
			c0.28,1.09-0.48,2.18-0.44,3.26C736.03,446.38,737.05,446.81,736.99,447.89c-0.12,1.93,2.88,1.92,3,0
			c0.08-1.4-0.49-2.58-1.43-3.58c0.13,0.49,0.26,0.97,0.39,1.46c0.47-2.12,0.96-4.19-0.42-6.08c-1.39-1.9-3.43-2.21-5.63-2.47
			c-2.5-0.29-5.02-0.28-7.54-0.37c-2.55-0.09-5.09-0.38-7.64-0.55c-4.58-0.3-9.07,0.23-13.3,2.09c-1.83,0.81-3.55,1.84-5.15,3.05
			c-0.81,0.61-1.57,1.28-2.35,1.93c-0.8,0.67-1.8,1.09-2.64,1.74c-0.83,0.63-1.57,1.35-2.14,2.23c-0.52,0.81-0.68,1.46-1.12,2.08
			c-0.96,1.35-1.32,3.17-0.87,4.78c1.22,4.35,7.24,4.46,10.84,3.96c4.6-0.64,9.51-2.35,14.19-1.48c2.12,0.39,3.79,1.76,5.55,2.92
			c1.8,1.19,3.83,2.16,5.93,2.66c1.16,0.28,2.41,0.43,3.6,0.3c0.21-0.02,0.58,0.07,0.19-0.05c0.23,0.07,0.46,0.23,0.69,0.31
			c0.6,0.22,1.24,0.32,1.88,0.28c2.17-0.13,4.1-1.89,5.13-3.71c1.98-3.48,1.38-7.68,1.85-11.5
			C740.22,445.97,737.22,445.99,736.99,447.89z"/>
	</g>
</g>
<g>
	<path class="st4" d="M575.27,438.92c0.79-4.42,4.79-8.06,9.26-8.44c1.83-0.15,3.67,0.18,5.5,0.05c3.88-0.29,7.27-2.62,10.89-4.03
		c5.19-2.02,10.9-2.14,16.47-2.22c11.26-0.18,22.53-0.36,33.79-0.54"/>
	<g>
		<path class="st4" d="M576.72,439.32c0.83-4.17,4.44-7.32,8.72-7.38c2.54-0.04,4.93,0.29,7.42-0.4c2.34-0.65,4.51-1.81,6.7-2.83
			c4.78-2.22,9.9-2.75,15.11-2.88c5.71-0.15,11.42-0.19,17.13-0.28c6.46-0.1,12.92-0.21,19.38-0.31c1.93-0.03,1.93-3.03,0-3
			c-12.09,0.19-24.19,0.29-36.29,0.59c-5.45,0.14-10.86,0.65-15.9,2.86c-2.3,1.01-4.51,2.29-6.94,2.96
			c-2.68,0.74-5.37,0.05-8.09,0.4c-4.95,0.63-9.18,4.58-10.15,9.48C573.45,440.41,576.34,441.22,576.72,439.32L576.72,439.32z"/>
	</g>
</g>
<g>
	<g>
		<path class="st4" d="M482.36,355.32c3.58-3.22,7.15-6.44,10.73-9.66c1.79-1.61,3.58-3.22,5.36-4.83c1.7-1.53,3.35-3.26,5.2-4.61
			c1.77-1.29,3.41-0.98,5.43-0.63c1.91,0.33,3.75,0.42,5.51-0.53c1.59-0.86,2.77-2.45,4.66-2.71c2-0.27,4,0.7,5.65,1.7
			c1.77,1.08,3.42,2.37,5.31,3.25c1.93,0.9,4.01,1.28,5.98,2.04c1.47,0.57,3.4,1.72,3.58,3.48c0.19,1.97-2.87,1.53-4.16,1.61
			c-4.28,0.28-8.57,0.51-12.8,1.28c-2.09,0.38-4.16,0.9-6.16,1.63c-1.94,0.71-3.75,1.79-5.71,2.45c-1.59,0.54-3.8,0.8-4.94-0.77
			c-0.96-1.32,0.4-2.55,1.4-3.3c1.42-1.06,2.98-1.95,4.07-3.38c1.32-1.73,1.68-3.87,1.29-5.98c-0.36-1.9-3.25-1.09-2.89,0.8
			c0.79,4.22-4.25,5.33-6.25,8.09c-2.37,3.26,0.17,7.15,3.76,7.85c2.19,0.43,4.3-0.3,6.29-1.19c2.22-1,4.36-1.97,6.72-2.59
			c4.68-1.24,9.53-1.51,14.33-1.82c2.01-0.13,4.8,0.14,6.5-1.11c1.65-1.22,1.87-3.52,1.15-5.31c-1.82-4.56-7.02-4.62-10.84-6.44
			c-4.1-1.96-7.55-5.78-12.49-5.24c-2.29,0.25-3.67,1.62-5.5,2.82c-1.9,1.23-4,0.35-6.06,0.11c-2.72-0.32-4.79,0.74-6.79,2.5
			c-2.28,1.99-4.51,4.05-6.76,6.08c-4.56,4.11-9.12,8.22-13.69,12.33C478.8,354.49,480.93,356.61,482.36,355.32L482.36,355.32z"/>
	</g>
</g>
<g>
	<g>
		<path class="st4" d="M774.84,302.06c-9.92-6.8-14.45-19.72-25.99-24.44c-7.28-2.97-15.81-1.52-23.37-0.61
			c-4.15,0.5-8.3,1.17-12.29,2.48c-3.6,1.18-7.03,2.86-10.24,4.86c-3.22,2-6.24,4.3-9.17,6.69c-1.45,1.19-2.87,2.4-4.29,3.63
			c-1.34,1.16-2.8,2.28-3.92,3.66c-1.05,1.31-1.68,2.85-1.48,4.55c0.24,1.99,1.41,3.77,2.35,5.49c1.97,3.62,4.19,7.21,5.83,11
			c1.48,3.43,1.54,6.78,1.24,10.43c-0.25,3.12-0.67,6.42,0.27,9.47c1,3.27,3.47,5.42,6.62,6.58c3.72,1.36,7.88,1.87,11.76,2.58
			c17.05,3.14,34.36,4.88,51.69,5.17c2.12,0.04,4.24,0.05,6.36,0.04c0.71,0,1.21-0.47,1.45-1.1c2.13-5.52,2.17-11.48,2.18-17.31
			c0.02-5.92,0.39-11.72,1.78-17.5c1.38-5.7,3.55-11.15,6.43-16.25c2.56-4.54,5.62-9.77,3.84-15.17c-0.87-2.63-2.78-4.44-5.11-5.83
			c-2.18-1.3-4.59-2.25-6.27-4.23c-1.25-1.47-3.36,0.66-2.12,2.12c1.45,1.71,3.41,2.79,5.34,3.84c1.86,1.01,3.85,2.06,4.88,4
			c2.58,4.87-1.3,10.37-3.58,14.5c-5.46,9.91-8.07,20.95-8.19,32.23c-0.07,6.33,0.23,12.78-2.09,18.8c0.48-0.37,0.96-0.73,1.45-1.1
			c-16.42,0.05-32.84-1.16-49.06-3.7c-4.11-0.64-8.2-1.37-12.28-2.18c-3.24-0.64-7.4-0.96-10.08-3.1c-2.36-1.89-2.66-4.95-2.57-7.77
			c0.1-3.16,0.67-6.31,0.41-9.47c-0.3-3.7-1.88-7.02-3.62-10.24c-0.94-1.74-1.89-3.48-2.84-5.22c-0.93-1.7-2.03-3.4-2.76-5.19
			c-0.75-1.83-0.05-3.13,1.28-4.42c1.24-1.2,2.59-2.29,3.89-3.41c2.74-2.35,5.53-4.66,8.48-6.75c2.91-2.06,5.96-3.92,9.22-5.38
			c3.55-1.6,7.35-2.57,11.18-3.22c3.84-0.65,7.74-1.01,11.61-1.36c3.72-0.34,7.55-0.59,11.23,0.16
			c11.96,2.43,17.24,15.19,25.64,22.63c1.07,0.95,2.2,1.83,3.37,2.63C774.92,305.75,776.42,303.15,774.84,302.06L774.84,302.06z"/>
	</g>
</g>
<g>
	<g>
		<path class="st4" d="M772.6,303.33c2.01,0.3,4.02,0.6,6.03,0.9c0.41,0.06,0.78,0.07,1.16-0.15c0.31-0.18,0.61-0.54,0.69-0.9
			c0.16-0.71-0.22-1.72-1.05-1.85c-2.01-0.3-4.02-0.6-6.03-0.9c-0.41-0.06-0.78-0.07-1.16,0.15c-0.31,0.18-0.61,0.54-0.69,0.9
			C771.39,302.2,771.77,303.21,772.6,303.33L772.6,303.33z"/>
	</g>
</g>
<g>
	<g>
		<path class="st4" d="M863.79,278.86c-5.19-5.95-13.45-7.12-20.92-7.26c-4.15-0.08-8.44-0.1-12.54,0.65
			c-2.18,0.4-4.33,1.13-6.23,2.29c-1.63,1-3.08,2.29-4.56,3.49c-1.4,1.13-2.92,2.28-4.69,2.73c-2.19,0.56-4.35-0.35-6.49-0.74
			c-2.12-0.39-4.13-0.3-6.09,0.65c-1.87,0.91-3.39,2.46-4.74,4.01c-3.12,3.59-5.95,7.45-8.45,11.49c-1.21,1.96-2.41,3.97-3.07,6.19
			c-0.68,2.27-0.77,4.7-0.97,7.05c-0.44,5.22-0.88,10.44-1.32,15.66c-0.21,2.49-0.49,4.99-0.62,7.49c-0.11,2.2,0.16,4.42,1.53,6.22
			c1.28,1.69,3.17,2.82,4.9,4.01c2.09,1.44,4.18,2.88,6.27,4.31c4.26,2.91,8.53,5.79,12.83,8.64c2.11,1.4,4.22,2.82,6.35,4.19
			c1.77,1.14,3.88,2.24,6.04,1.66c3.98-1.06,4.81-6.73,5.23-10.13c0.52-4.28,0.21-8.66,1.03-12.91c0.39-2.06,1.06-4.02,2.17-5.8
			c1.14-1.82,2.62-3.37,4.05-4.96c2.95-3.27,5.19-6.67,6.39-10.95c1.22-4.35,1.58-8.88,2.55-13.29c1.06-4.81,2.6-9.51,4.16-14.18
			c1.25-3.76,2.89-8.26,6.93-9.78c1.7-0.63,3.47-0.64,5.02,0.35c1.63,1.04,3.14-1.55,1.51-2.59c-3.11-1.99-7.18-1.33-10.07,0.77
			c-3.3,2.4-4.9,6.31-6.16,10.06c-1.54,4.57-3.04,9.17-4.13,13.87c-0.98,4.23-1.37,8.56-2.39,12.78c-0.49,2.03-1.14,4.02-2.16,5.86
			c-0.98,1.78-2.29,3.32-3.64,4.83c-2.71,3.01-5.33,5.95-6.56,9.9c-1.24,3.98-1.19,8.22-1.41,12.34c-0.11,2.05-0.27,4.1-0.73,6.11
			c-0.34,1.46-0.88,4.35-2.6,4.83c-1.87,0.52-4.35-1.77-5.78-2.71c-2.05-1.35-4.1-2.71-6.14-4.07c-4.08-2.72-8.15-5.47-12.2-8.25
			c-2.03-1.39-4.05-2.78-6.06-4.18c-1.65-1.15-3.41-2.3-3.84-4.4c-0.43-2.17,0.06-4.62,0.25-6.8c0.21-2.49,0.42-4.97,0.63-7.46
			c0.42-4.98,0.68-10.01,1.28-14.97c0.56-4.58,3.37-8.5,5.94-12.2c1.32-1.89,2.71-3.73,4.19-5.51c1.28-1.55,2.61-3.22,4.3-4.34
			c3.78-2.49,7.9,0.61,12-0.01c3.76-0.57,6.44-3.46,9.33-5.65c3.47-2.62,7.5-3.31,11.76-3.49c7.11-0.29,15.36-0.65,21.77,2.98
			c1.54,0.87,2.87,1.98,4.04,3.32C862.94,282.44,865.06,280.31,863.79,278.86L863.79,278.86z"/>
	</g>
</g>
<g>
	<g>
		<path class="st4" d="M869.57,329.67c2.38-4.93,4.46-10.07,5.23-15.53c0.83-5.87,0.5-11.91,0.52-17.82c0.01-1.93-2.99-1.93-3,0
			c-0.02,5.62,0.32,11.39-0.41,16.98c-0.68,5.21-2.66,10.15-4.93,14.86C866.14,329.89,868.73,331.41,869.57,329.67L869.57,329.67z"
			/>
	</g>
</g>
<g>
	<g>
		<path class="st4" d="M873.33,301.11c3.12,10.36,10.77,21.55,6.12,32.63c-0.32,0.75,0.34,1.64,1.05,1.85
			c0.86,0.25,1.53-0.3,1.85-1.05c4.91-11.7-2.83-23.29-6.12-34.22C875.66,298.47,872.77,299.25,873.33,301.11L873.33,301.11z"/>
	</g>
</g>
<g>
	<g>
		<path class="st4" d="M718.51,454.55c-3.96-0.79-8.01-1.61-12.07-1.43c-2.03,0.09-3.99,0.49-5.95,1.01
			c-1.62,0.43-3.37,0.93-5.02,0.38c-4.24-1.41-0.27-5.59,1.64-7.16c2.68-2.2,5.86-3.8,9.14-4.9c7.4-2.49,15.28-2.49,22.99-2.01
			c2,0.12,4.15,0.1,6.13,0.45c0.89,0.16,0.61,0.88,0.55,1.64c-0.09,1.14-0.18,2.28-0.28,3.42c-0.16,2.04-0.33,4.07-0.49,6.11
			c-0.14,1.73-0.07,3.8-0.95,5.36c-1.62,2.87-5.91,1.76-8.23,0.53c-3.47-1.83-6.52-4.36-10.6-4.59c-1.93-0.11-1.92,2.89,0,3
			c4.02,0.22,7.08,3.46,10.67,4.9c3.04,1.22,6.96,1.51,9.56-0.82c1.45-1.31,2.02-3.2,2.26-5.08c0.3-2.31,0.41-4.65,0.6-6.97
			c0.19-2.33,0.64-4.8,0.54-7.14c-0.09-2.15-1.64-3.15-3.62-3.37c-9.03-1-18.71-1.41-27.56,0.96c-3.92,1.05-7.75,2.68-11.06,5.04
			c-2.94,2.1-7.04,5.47-6.07,9.59c0.47,1.97,2.13,3.33,4,3.92c2.26,0.72,4.62,0.15,6.83-0.44c5.47-1.46,10.74-0.62,16.2,0.47
			C719.6,457.82,720.41,454.93,718.51,454.55L718.51,454.55z"/>
	</g>
</g>
<g>
	<g>
		<path class="st4" d="M770.17,270.08c6.94,0.59,13.91,0.86,20.88,0.77c2.39-0.03,6.17,0.32,6.74-2.8c0.23-1.27-0.32-2.58-1.26-3.43
			c-0.48-0.44-1.05-0.74-1.65-1c-0.36-0.15-0.75-0.25-1.11-0.4c-0.09-0.04-0.18-0.08-0.27-0.11c-0.34-0.32-0.44-0.17-0.29,0.44
			c1-1.66-1.59-3.17-2.59-1.51c-0.6,1-0.4,2.09,0.39,2.92c0.82,0.85,1.87,1.01,2.88,1.5c0.29,0.14,1.18,0.63,0.93,1.11
			c-0.16,0.3-1.03,0.24-1.29,0.25c-1.57,0.06-3.15,0.06-4.73,0.06c-6.22,0.01-12.44-0.26-18.64-0.78
			C768.25,266.92,768.26,269.92,770.17,270.08L770.17,270.08z"/>
	</g>
</g>
<g>
	<path class="st4" d="M726.62,356.44c-18.43,2.84-36.96-3.58-55.59-4.35c-12.2-0.5-24.5,1.46-35.94,5.73"/>
	<g>
		<path class="st4" d="M726.22,355c-12.03,1.8-24.16-0.38-36.04-2.23c-6.04-0.94-12.1-1.82-18.21-2.13
			c-5.85-0.3-11.72-0.02-17.53,0.78c-6.75,0.93-13.36,2.59-19.75,4.96c-1.79,0.66-1.02,3.57,0.8,2.89
			c11.2-4.15,23.13-6.12,35.07-5.69c12.13,0.44,23.99,3.28,36.04,4.52c6.81,0.7,13.63,0.81,20.42-0.21
			C728.92,357.6,728.11,354.71,726.22,355L726.22,355z"/>
	</g>
</g>
<g>
	<path class="st4" d="M645.31,354.96c15.06,0.18,30.08,3,44.18,8.31c1.75,0.66,3.57,1.41,4.76,2.86c1.19,1.45,1.5,3.8,0.18,5.12
		c15.46-1.16,28.13-15.24,43.62-14.78"/>
	<g>
		<path class="st4" d="M645.31,356.46c9.29,0.13,18.53,1.23,27.58,3.34c4.43,1.03,8.81,2.3,13.1,3.8c2,0.69,4.26,1.31,6.02,2.52
			c1.18,0.81,2.58,2.71,1.36,4.08c-0.79,0.89-0.33,2.67,1.06,2.56c7.9-0.65,14.95-4.3,21.88-7.86c6.79-3.49,13.9-7.1,21.74-6.92
			c1.93,0.04,1.93-2.96,0-3c-16.11-0.36-27.94,13.5-43.62,14.78c0.35,0.85,0.71,1.71,1.06,2.56c2.25-2.53,1.3-6.21-1.18-8.21
			c-1.37-1.11-3.01-1.75-4.64-2.37c-1.98-0.74-3.99-1.44-6-2.08c-7.9-2.52-16.04-4.27-24.27-5.27c-4.67-0.57-9.37-0.87-14.08-0.94
			C643.38,353.43,643.38,356.43,645.31,356.46L645.31,356.46z"/>
	</g>
</g>
<g>
	<g>
		<path class="st4" d="M582.7,334.19c-2.23,3.76-4.46,7.52-6.7,11.28c-1.08,1.81-2.23,3.6-3.23,5.45c-0.84,1.55-1.2,3.36,0.1,4.76
			c1.31,1.42,3.43-0.7,2.12-2.12c-0.39-0.42,1.46-2.98,1.7-3.39c0.97-1.63,1.93-3.25,2.9-4.88c1.9-3.2,3.8-6.4,5.7-9.59
			C586.28,334.04,583.68,332.53,582.7,334.19L582.7,334.19z"/>
	</g>
</g>
<g>
	<g>
		<path class="st4" d="M589.12,336.48c-3.72,4.52-6.91,9.43-9.47,14.69c-0.35,0.73-0.2,1.62,0.54,2.05c0.66,0.39,1.7,0.19,2.05-0.54
			c2.45-5.02,5.45-9.77,9-14.08c0.51-0.62,0.61-1.51,0-2.12C590.71,335.95,589.64,335.86,589.12,336.48L589.12,336.48z"/>
	</g>
</g>
<g>
	<g>
		<path class="st4" d="M597.18,337.79c-2.75,4.02-5.51,8.03-8.26,12.05c-0.46,0.67-0.13,1.66,0.54,2.05
			c0.74,0.43,1.59,0.13,2.05-0.54c2.75-4.02,5.51-8.03,8.26-12.05c0.46-0.67,0.13-1.66-0.54-2.05
			C598.49,336.81,597.64,337.12,597.18,337.79L597.18,337.79z"/>
	</g>
</g>
<g>
	<g>
		<path class="st4" d="M605.48,340.35c-0.66,0.48-1.28,1.01-1.82,1.62c-0.54,0.61-1.02,1.27-1.42,1.98
			c-0.19,0.35-0.26,0.77-0.15,1.16c0.1,0.35,0.36,0.73,0.69,0.9c0.35,0.18,0.77,0.28,1.16,0.15c0.37-0.12,0.7-0.34,0.9-0.69
			c0.23-0.42,0.49-0.81,0.78-1.19c-0.08,0.1-0.16,0.2-0.23,0.3c0.5-0.64,1.07-1.22,1.72-1.72c-0.1,0.08-0.2,0.16-0.3,0.23
			c0.07-0.05,0.13-0.1,0.2-0.15c0.33-0.24,0.58-0.49,0.69-0.9c0.1-0.36,0.05-0.84-0.15-1.16c-0.21-0.32-0.51-0.6-0.9-0.69
			C606.27,340.12,605.8,340.12,605.48,340.35L605.48,340.35z"/>
	</g>
</g>
<g>
	<g>
		<path class="st4" d="M620.27,337.44c-1.04,1.04-2.08,2.09-3.13,3.13c-0.27,0.27-0.44,0.68-0.44,1.06c0,0.37,0.16,0.81,0.44,1.06
			c0.29,0.26,0.66,0.46,1.06,0.44c0.4-0.02,0.77-0.15,1.06-0.44c1.04-1.04,2.08-2.09,3.13-3.13c0.27-0.27,0.44-0.68,0.44-1.06
			c0-0.37-0.16-0.81-0.44-1.06c-0.29-0.26-0.66-0.46-1.06-0.44C620.93,337.02,620.56,337.15,620.27,337.44L620.27,337.44z"/>
	</g>
</g>
<g>
	<g>
		<path class="st4" d="M681.54,292.35c-5.59,3.94-9.64,9.84-11.15,16.53c-0.42,1.88,2.47,2.68,2.89,0.8
			c1.33-5.9,4.81-11.24,9.77-14.74c0.66-0.47,0.97-1.31,0.54-2.05C683.21,292.23,682.21,291.88,681.54,292.35L681.54,292.35z"/>
	</g>
</g>
<g>
	<g>
		<path class="st4" d="M666.94,292.89c-2.93,4.19-5.87,8.37-8.8,12.56c-0.47,0.66-0.12,1.67,0.54,2.05
			c0.75,0.44,1.59,0.13,2.05-0.54c2.93-4.19,5.87-8.37,8.8-12.56c0.47-0.66,0.12-1.67-0.54-2.05
			C668.25,291.91,667.41,292.22,666.94,292.89L666.94,292.89z"/>
	</g>
</g>
<g>
	<g>
		<path class="st4" d="M660.03,295.37c-3.28,1.37-6.04,3.73-7.78,6.85c-0.38,0.69-0.19,1.67,0.54,2.05
			c0.71,0.37,1.65,0.19,2.05-0.54c0.19-0.34,0.39-0.68,0.61-1c0.1-0.15,0.2-0.29,0.31-0.44c0.05-0.07,0.11-0.14,0.16-0.21
			c0.11-0.15-0.18,0.23,0,0.01c0.49-0.6,1-1.16,1.58-1.67c0.13-0.12,0.27-0.24,0.4-0.35c0.07-0.06,0.14-0.11,0.21-0.17
			c0.07-0.06,0.29-0.29,0.03-0.03c0.25-0.25,0.62-0.45,0.92-0.64c0.32-0.2,0.64-0.39,0.97-0.56c0.16-0.08,0.32-0.16,0.48-0.24
			c0.1-0.05,0.19-0.09,0.29-0.14c0.08-0.04,0.4-0.17,0.03-0.02c0.38-0.16,0.68-0.32,0.9-0.69c0.19-0.32,0.27-0.8,0.15-1.16
			C661.65,295.73,660.81,295.05,660.03,295.37L660.03,295.37z"/>
	</g>
</g>
<g>
	<g>
		<path class="st4" d="M681.57,271.41c11.62-4.85,24.08-7.39,36.68-7.41c1.93,0,1.93-3,0-3c-12.84,0.03-25.62,2.57-37.47,7.52
			c-0.75,0.31-1.27,0.99-1.05,1.85C679.91,271.07,680.82,271.72,681.57,271.41L681.57,271.41z"/>
	</g>
</g>
<g>
	<g>
		<path class="st4" d="M674.42,268.72c6.5-1.76,13.13-2.93,19.84-3.45c1.91-0.15,1.93-3.15,0-3c-6.98,0.54-13.89,1.72-20.64,3.56
			C671.76,266.34,672.55,269.23,674.42,268.72L674.42,268.72z"/>
	</g>
</g>
<g>
	<g>
		<path class="st4" d="M790.1,262.53c-0.05,0.19-0.1,0.37-0.17,0.55c-0.07,0.21,0.11-0.21,0-0.02c-0.05,0.09-0.09,0.18-0.14,0.27
			c-0.05,0.09-0.3,0.43-0.1,0.19c-0.11,0.14-0.23,0.27-0.36,0.4c-0.13,0.13-0.27,0.25-0.41,0.36c0.25-0.19-0.16,0.1-0.25,0.16
			c-0.16,0.1-0.33,0.19-0.5,0.28c-0.08,0.04-0.15,0.08-0.23,0.11c-0.03,0.02-0.36,0.16-0.18,0.08c0.16-0.07-0.1,0.04-0.13,0.05
			c-0.08,0.03-0.17,0.06-0.25,0.09c-0.19,0.07-0.38,0.13-0.58,0.18c-0.39,0.12-0.79,0.21-1.2,0.29c-0.2,0.04-0.41,0.08-0.61,0.11
			c-0.09,0.02-0.18,0.03-0.27,0.04c-0.03,0-0.31,0.05-0.14,0.02c0.2-0.03-0.17,0.02-0.2,0.02c-0.09,0.01-0.18,0.02-0.27,0.03
			c-0.22,0.02-0.44,0.04-0.66,0.06c-0.81,0.07-1.5,0.64-1.5,1.5c0,0.86,0.69,1.44,1.5,1.5c3.61,0.25,7.26-0.12,10.75-1.07
			c0.78-0.21,1.26-1.07,1.05-1.85c-0.23-0.84-1.04-1.19-1.85-1.05c-1.98,0.36-4.06,0.25-6.02-0.24c-0.78-0.2-1.63,0.26-1.85,1.05
			c-0.21,0.77,0.26,1.65,1.05,1.85c2.51,0.64,5.07,0.7,7.62,0.24c-0.27-0.96-0.53-1.93-0.8-2.89c-3.26,0.89-6.58,1.2-9.96,0.96
			c0,1,0,2,0,3c3.66-0.31,8.51-1.32,9.53-5.49c0.19-0.79-0.25-1.63-1.05-1.85C791.18,261.27,790.3,261.74,790.1,262.53L790.1,262.53
			z"/>
	</g>
</g>
<g>
	<g>
		<path class="st4" d="M874.61,309.39c-1.36,4.04-2.41,8.17-3.14,12.38c0.98,0.13,1.96,0.27,2.95,0.4c0.26-4.79,0.96-9.53,2.07-14.2
			c-0.96,0-1.93,0-2.89,0c1.41,4.88,2.48,9.85,3.21,14.88c0.24,1.66,3.12,1.28,2.95-0.4c-0.39-3.74-0.79-7.47-1.18-11.21
			c-1,0-2,0-3,0c0.71,5.87,1.42,11.74,2.13,17.6c0.23,1.87,2.93,1.98,3,0c0.13-4.08,0.08-8.16-0.17-12.24
			c-0.08-1.36-2.1-2.2-2.8-0.76c-1.47,3.05-2.49,6.24-2.99,9.59c0.98,0.13,1.96,0.27,2.95,0.4c0.11-2.39-0.11-4.74-0.59-7.08
			c-0.23-1.13-1.75-1.42-2.51-0.66c-2.11,2.11-2.92,4.93-2.48,7.84c0.27,1.78,2.81,1.16,2.95-0.4c0.11-1.19,0.21-2.38,0.32-3.57
			c0.11-1.23-1.77-2.07-2.56-1.06c-1.53,1.95-2.61,4.11-3.12,6.54c-0.39,1.88,2.38,2.67,2.89,0.8c0.46-1.68,0.92-3.36,1.39-5.04
			c0.47-1.72-1.79-2.49-2.74-1.16c-1.8,2.52-3.45,6.13-0.92,8.77c1.14,1.2,2.85,1.81,4.32,2.48c1.78,0.81,3.58,1.57,5.4,2.28
			c0.77,0.31,1.62-0.34,1.85-1.05c1.22-3.87,1.66-7.94,1.29-11.98c-0.14-1.55-2.63-2.19-2.95-0.4c-0.35,2.02-0.66,4.05-1.06,6.06
			c-0.11,0.53-0.04,1.04-0.61,0.68c-0.57-0.36-0.6-1.58-0.65-2.16c-0.11-1.2-1.61-2.1-2.56-1.06c-2.26,2.47-1.75,6.42,1.04,8.25
			c0.93,0.61,2.32-0.18,2.26-1.3c-0.15-2.58-1.21-4.96-3.15-6.69c-0.66-0.6-1.91-0.61-2.36,0.3c-1.11,2.29-0.8,4.72,0.79,6.7
			c1.05,1.31,2.71-0.17,2.51-1.46c-0.21-1.28-0.71-2.46-1.48-3.5c-0.68,0.68-1.37,1.37-2.05,2.05c1.47,1.11,3.17,1.81,5,2.06
			c1.16,0.16,2.08-0.63,1.85-1.85c-1.04-5.27-2.08-10.54-3.11-15.81c-0.35-1.78-2.79-1.17-2.95,0.4c-0.36,3.71-0.72,7.43-1.08,11.14
			c-0.19,1.92,2.81,1.91,3,0c0.36-3.71,0.72-7.43,1.08-11.14c-0.98,0.13-1.96,0.27-2.95,0.4c1.04,5.27,2.08,10.54,3.11,15.81
			c0.62-0.62,1.23-1.23,1.85-1.85c-1.61-0.22-2.98-0.78-4.28-1.76c-1.18-0.89-2.93,0.87-2.05,2.05c0.64,0.86,1,1.72,1.17,2.78
			c0.84-0.49,1.67-0.97,2.51-1.46c-0.68-0.85-0.78-2.09-0.32-3.06c-0.79,0.1-1.57,0.2-2.36,0.3c1.35,1.21,2.17,2.75,2.27,4.57
			c0.75-0.43,1.5-0.86,2.26-1.3c-1.14-0.75-1.35-2.54-0.44-3.54c-0.85-0.35-1.71-0.71-2.56-1.06c0.14,1.48,0.34,3.09,1.44,4.2
			c0.9,0.91,2.3,1.36,3.53,0.97c1.38-0.44,1.96-1.74,2.21-3.06c0.37-1.96,0.68-3.93,1.03-5.89c-0.98-0.13-1.96-0.27-2.95-0.4
			c0.35,3.8-0.03,7.54-1.18,11.19c0.62-0.35,1.23-0.7,1.85-1.05c-2.51-0.99-5.12-1.99-7.48-3.33c-2.53-1.43-0.78-4.05,0.47-5.8
			c-0.91-0.39-1.83-0.77-2.74-1.16c-0.46,1.68-0.92,3.36-1.39,5.04c0.96,0.27,1.93,0.53,2.89,0.8c0.4-1.9,1.15-3.68,2.35-5.22
			c-0.85-0.35-1.71-0.71-2.56-1.06c-0.11,1.19-0.21,2.38-0.32,3.57c0.98-0.13,1.96-0.27,2.95-0.4c-0.28-1.83,0.42-3.64,1.71-4.92
			c-0.84-0.22-1.67-0.44-2.51-0.66c0.43,2.08,0.57,4.16,0.48,6.28c-0.07,1.65,2.69,2.09,2.95,0.4c0.46-3.08,1.34-6.06,2.69-8.87
			c-0.93-0.25-1.86-0.5-2.8-0.76c0.25,4.08,0.31,8.16,0.17,12.24c1,0,2,0,3,0c-0.71-5.87-1.42-11.74-2.13-17.6
			c-0.23-1.88-3.2-1.93-3,0c0.39,3.74,0.79,7.47,1.18,11.21c0.98-0.13,1.96-0.27,2.95-0.4c-0.73-5.03-1.8-10-3.21-14.88
			c-0.4-1.38-2.54-1.47-2.89,0c-1.18,4.92-1.9,9.94-2.18,15c-0.09,1.66,2.66,2.08,2.95,0.4c0.72-4.21,1.77-8.34,3.14-12.38
			C878.12,308.35,875.23,307.57,874.61,309.39L874.61,309.39z"/>
	</g>
</g>
<g>
	<g>
		<path class="st4" d="M838.42,342.48c-5.59,9.82-9.57,20.51-11.73,31.61c-0.37,1.89,2.52,2.69,2.89,0.8
			c2.11-10.85,5.96-21.28,11.43-30.89C841.97,342.31,839.38,340.8,838.42,342.48L838.42,342.48z"/>
	</g>
</g>
<g>
	<g>
		<path class="st4" d="M837.61,353.73c-2.42,9.15-5.11,18.22-8.05,27.22c-0.6,1.84,2.29,2.63,2.89,0.8
			c2.95-8.99,5.63-18.07,8.05-27.22C841,352.66,838.11,351.86,837.61,353.73L837.61,353.73z"/>
	</g>
</g>
<g>
	<g>
		<path class="st4" d="M837.67,372.01c-2.18,5.58-3.08,11.64-2.64,17.61c0.14,1.91,3.14,1.93,3,0c-0.43-5.74,0.43-11.45,2.53-16.81
			c0.29-0.75-0.32-1.65-1.05-1.85C838.67,370.73,837.97,371.25,837.67,372.01L837.67,372.01z"/>
	</g>
</g>
<g>
	<g>
		<path class="st4" d="M783.99,342.55c2.6,11.63,9.52,21.99,19.17,28.95c1.57,1.13,3.07-1.47,1.51-2.59
			c-9.02-6.51-15.37-16.33-17.79-27.16C786.46,339.87,783.57,340.67,783.99,342.55L783.99,342.55z"/>
	</g>
</g>
<g>
	<g>
		<path class="st4" d="M791.11,356.82c2.61,3.12,5.23,6.25,7.84,9.37c0.51,0.6,1.61,0.56,2.12,0c0.59-0.64,0.54-1.48,0-2.12
			c-2.61-3.12-5.23-6.25-7.84-9.37c-0.51-0.6-1.61-0.56-2.12,0C790.52,355.34,790.57,356.18,791.11,356.82L791.11,356.82z"/>
	</g>
</g>
<g>
	<g>
		<path class="st4" d="M791.64,353.17c3.3,2.78,6.6,5.57,9.89,8.35c0.62,0.52,1.51,0.61,2.12,0c0.54-0.54,0.62-1.6,0-2.12
			c-3.3-2.78-6.6-5.57-9.89-8.35c-0.62-0.52-1.51-0.61-2.12,0C791.11,351.59,791.02,352.65,791.64,353.17L791.64,353.17z"/>
	</g>
</g>
<g>
	<g>
		<path class="st4" d="M793.43,351.84c3.52,1.29,6.89,3.05,10.03,5.16c0.67,0.45,1.66,0.13,2.05-0.54c0.43-0.74,0.13-1.6-0.54-2.05
			c-3.34-2.26-6.96-4.08-10.74-5.47c-0.76-0.28-1.64,0.31-1.85,1.05C792.15,350.84,792.66,351.56,793.43,351.84L793.43,351.84z"/>
	</g>
</g>
<g>
	<path class="st4" d="M841.12,436.83c-4.66,3.33-11.27,1.89-16.21-1.01c-4.94-2.91-9.09-7.1-14.29-9.51
		c-5.2-2.41-12.26-2.43-15.76,2.11c-2.88,3.74-2.44,9.36-5.52,12.94c-1.55,1.8-3.78,2.83-5.88,3.91
		c-6.2,3.19-11.94,7.29-16.96,12.14c-3.58,3.46-6.88,7.35-11.23,9.78c-8.62,4.81-20.76,3.61-26.8,11.41
		c-0.44,0.56-0.85,1.28-0.61,1.96c0.28,0.79,1.26,1.03,2.1,1.13c23.84,2.8,45.88-13.96,69.85-15.19c6.05-0.31,12.33,0.35,18-1.78
		c4.89-1.83,8.79-5.54,12.55-9.16c3.85-3.7,7.69-7.4,11.54-11.1c1.12-1.08,2.32-2.33,2.34-3.89c0.02-1.56-2.02-2.99-3.12-1.88"/>
	<g>
		<path class="st4" d="M840.36,435.54c-3.79,2.6-8.66,1.89-12.64,0.06c-4.4-2.03-8.01-5.41-12.01-8.09
			c-3.63-2.44-7.65-4.26-12.09-4.31c-3.98-0.05-7.94,1.42-10.28,4.75c-2.49,3.54-2.25,8.25-4.66,11.79c-1.34,1.97-3.59,3-5.65,4.05
			c-2.19,1.12-4.32,2.33-6.39,3.67c-4.31,2.78-8.32,6.01-11.97,9.61c-3.39,3.35-6.62,7.02-10.93,9.22
			c-7.13,3.63-15.82,3.27-22.56,7.79c-1.6,1.07-3.18,2.42-4.24,4.05c-1.28,1.98-0.48,4.21,1.8,4.84c2.14,0.59,4.65,0.53,6.85,0.52
			c2.34-0.01,4.67-0.19,6.99-0.49c19.08-2.49,36.12-13.28,55.37-14.89c5.21-0.44,10.47,0.02,15.66-0.79
			c5.08-0.79,9.37-3.25,13.25-6.54c4.15-3.51,7.96-7.47,11.88-11.24c1.85-1.78,3.95-3.48,5.55-5.49c1.36-1.71,2.07-4.09,0.5-5.91
			c-1.27-1.47-3.23-1.79-4.74-0.53c-1.49,1.23,0.65,3.35,2.12,2.12c-0.16,0.14,0.17,0.1,0.31,0.31c0.22,0.33,0.29,0.43,0.2,0.87
			c-0.21,1.06-1.3,1.93-2.03,2.64c-1.92,1.85-3.85,3.7-5.77,5.55c-3.49,3.36-6.88,6.89-10.62,9.97c-3.83,3.16-8.09,5.08-13.06,5.55
			c-4.81,0.46-9.65,0.1-14.46,0.6c-17.94,1.88-33.93,11.22-51.57,14.37c-4.28,0.76-8.65,1.09-12.99,0.79
			c-0.66-0.04-2.23,0.08-2.79-0.34c-0.56-0.43-0.07,0.05-0.04-0.08c0.04-0.17,0.26-0.42,0.38-0.57c0.34-0.44,0.73-0.84,1.12-1.23
			c1.24-1.2,2.7-2.11,4.26-2.85c6.78-3.23,14.7-3.19,21.27-7.04c3.95-2.31,7.06-5.74,10.28-8.94c3.36-3.33,7.01-6.33,10.96-8.93
			c1.94-1.28,3.95-2.46,6.01-3.54c1.94-1.02,3.94-1.94,5.64-3.35c3.24-2.7,3.84-6.85,5.06-10.65c1.18-3.68,3.66-6.15,7.6-6.59
			c4.06-0.45,7.84,1.02,11.22,3.14c7.19,4.53,13.85,11.81,23.16,10.74c2-0.23,3.9-0.88,5.56-2.03
			C843.46,437.04,841.96,434.44,840.36,435.54L840.36,435.54z"/>
	</g>
</g>
<g>
	<g>
		<path class="st3" d="M560.24,461.04c-9.32,1.86-18.53,4.28-27.56,7.25c-1.83,0.6-1.04,3.5,0.8,2.89
			c9.03-2.97,18.24-5.39,27.56-7.25C562.93,463.55,562.13,460.66,560.24,461.04L560.24,461.04z"/>
	</g>
</g>
<g>
	<g>
		<path class="st3" d="M556.34,466.06c-3.95,1.48-7.91,2.97-11.86,4.45c-1.95,0.73-3.89,1.46-5.84,2.19
			c-1.47,0.55-3.81,1.58-3.01,3.61c0.3,0.75,1.01,1.28,1.85,1.05c0.72-0.2,1.35-1.08,1.05-1.85c-0.26,0.52-0.22,0.65,0.12,0.38
			c0.14-0.05,0.29-0.11,0.43-0.16c0.43-0.16,0.85-0.32,1.28-0.48c0.73-0.27,1.46-0.55,2.19-0.82c1.64-0.62,3.29-1.23,4.93-1.85
			c3.22-1.21,6.45-2.42,9.67-3.63C558.93,468.28,558.16,465.38,556.34,466.06L556.34,466.06z"/>
	</g>
</g>
<g>
	<g>
		<path class="st3" d="M560.73,469.91c-7.51,2.55-15.03,5.1-22.54,7.64c-1.29,0.44-1.56,2.59,0,2.89c0.63,0.12,1.27,0.24,1.9,0.37
			c1.89,0.36,2.69-2.53,0.8-2.89c-0.63-0.12-1.27-0.24-1.9-0.37c0,0.96,0,1.93,0,2.89c7.51-2.55,15.03-5.1,22.54-7.64
			C563.35,472.18,562.57,469.29,560.73,469.91L560.73,469.91z"/>
	</g>
</g>
<g>
	<g>
		<path class="st3" d="M557.83,476.91c-3.12,1.3-6.23,2.6-9.35,3.9c-0.72,0.3-1.32,1.01-1.05,1.85c0.22,0.69,1.07,1.37,1.85,1.05
			c3.12-1.3,6.23-2.6,9.35-3.9c0.72-0.3,1.32-1.01,1.05-1.85C559.45,477.26,558.61,476.58,557.83,476.91L557.83,476.91z"/>
	</g>
</g>
<g>
	<g>
		<path class="st3" d="M654.61,426.45c-18.54,2.7-36.95,6.21-55.18,10.53c-1.88,0.44-1.08,3.34,0.8,2.89
			c18.23-4.32,36.64-7.83,55.18-10.53C657.31,429.07,656.5,426.18,654.61,426.45L654.61,426.45z"/>
	</g>
</g>
<g>
	<g>
		<path class="st3" d="M592.59,441.43c-9.36,0.37-18.69,1.31-27.94,2.77c-1.9,0.3-1.09,3.19,0.8,2.89
			c8.99-1.42,18.05-2.3,27.14-2.66C594.51,444.35,594.52,441.35,592.59,441.43L592.59,441.43z"/>
	</g>
</g>
<g>
	<g>
		<path class="st3" d="M631.48,436.99c-14.89,4.43-29.97,8.19-45.2,11.26c-1.89,0.38-1.09,3.27,0.8,2.89
			c15.23-3.08,30.31-6.83,45.2-11.26C634.12,439.34,633.34,436.44,631.48,436.99L631.48,436.99z"/>
	</g>
</g>
<g>
	<g>
		<path class="st3" d="M636.57,452.49c-6.16,2.64-11.85,6.23-16.94,10.59c-0.62,0.53-0.54,1.58,0,2.12c0.61,0.61,1.5,0.53,2.12,0
			c4.89-4.19,10.42-7.58,16.33-10.12c0.74-0.32,0.91-1.41,0.54-2.05C638.17,452.26,637.32,452.17,636.57,452.49L636.57,452.49z"/>
	</g>
</g>
<g>
	<g>
		<path class="st3" d="M628.67,462.73c-0.65,0.33-1.31,0.66-1.96,0.98c-0.17,0.09-0.32,0.22-0.42,0.39
			c-0.13,0.14-0.22,0.31-0.27,0.51c-0.06,0.2-0.07,0.4-0.03,0.6c0.01,0.2,0.07,0.39,0.18,0.56c0.21,0.32,0.51,0.6,0.9,0.69
			c0.13,0.02,0.27,0.04,0.4,0.05c0.27,0,0.52-0.07,0.76-0.2c0.65-0.33,1.31-0.66,1.96-0.98c0.17-0.09,0.32-0.22,0.42-0.39
			c0.13-0.14,0.22-0.31,0.27-0.51c0.06-0.2,0.07-0.4,0.03-0.6c-0.01-0.2-0.07-0.39-0.18-0.56c-0.21-0.32-0.51-0.6-0.9-0.69
			c-0.13-0.02-0.27-0.04-0.4-0.05C629.16,462.52,628.9,462.59,628.67,462.73L628.67,462.73z"/>
	</g>
</g>
<g>
	<g>
		<path class="st3" d="M758.28,466.27c1.78,3.29,3.57,6.58,5.35,9.86c0.39,0.71,1.37,0.94,2.05,0.54c0.72-0.42,0.93-1.34,0.54-2.05
			c-1.78-3.29-3.57-6.58-5.35-9.86c-0.39-0.71-1.37-0.94-2.05-0.54C758.1,464.64,757.89,465.55,758.28,466.27L758.28,466.27z"/>
	</g>
</g>
<g>
	<g>
		<path class="st3" d="M765.4,468.06c0.4,0.35,0.78,0.71,1.13,1.11c0.09,0.1,0.17,0.2,0.26,0.3c0.04,0.05,0.07,0.09,0.11,0.14
			c0.15,0.18,0.03,0.04-0.04-0.06c0.15,0.22,0.31,0.42,0.46,0.64c0.28,0.43,0.54,0.87,0.77,1.33c0.06,0.12,0.12,0.24,0.17,0.36
			c0.03,0.07,0.06,0.13,0.09,0.2c0.08,0.18-0.12-0.29-0.05-0.11c0.1,0.26,0.2,0.52,0.29,0.79c0.24,0.74,1.05,1.31,1.85,1.05
			c0.74-0.24,1.31-1.05,1.05-1.85c-0.76-2.31-2.11-4.42-3.95-6.02c-0.3-0.26-0.65-0.44-1.06-0.44c-0.37,0-0.81,0.16-1.06,0.44
			C764.88,466.5,764.76,467.51,765.4,468.06L765.4,468.06z"/>
	</g>
</g>
<g>
	<g>
		<path class="st3" d="M771.62,463.26c2.69,3.39,5.37,6.78,8.06,10.17c0.5,0.64,1.59,0.53,2.12,0c0.63-0.63,0.5-1.48,0-2.12
			c-2.69-3.39-5.37-6.78-8.06-10.17c-0.5-0.64-1.59-0.53-2.12,0C771,461.76,771.12,462.62,771.62,463.26L771.62,463.26z"/>
	</g>
</g>
<g>
	<g>
		<path class="st3" d="M779.91,464.29c1.4,2.3,3.14,4.41,5.15,6.2c0.59,0.52,1.55,0.62,2.12,0c0.52-0.57,0.63-1.57,0-2.12
			c-0.95-0.84-1.84-1.75-2.65-2.72c-0.2-0.23-0.41-0.47-0.58-0.72c0.05,0.07,0.16,0.21,0.05,0.06c-0.05-0.07-0.1-0.14-0.15-0.21
			c-0.09-0.12-0.18-0.25-0.27-0.37c-0.38-0.53-0.73-1.08-1.07-1.63c-0.41-0.67-1.36-0.98-2.05-0.54
			C779.78,462.67,779.48,463.57,779.91,464.29L779.91,464.29z"/>
	</g>
</g>
<g>
	<g>
		<path class="st3" d="M826.38,442.38c0,4.75,0,9.51,0,14.26c0,1.93,3,1.93,3,0c0-4.75,0-9.51,0-14.26
			C829.38,440.45,826.38,440.45,826.38,442.38L826.38,442.38z"/>
	</g>
</g>
<g>
	<g>
		<path class="st3" d="M832.36,440.91c-0.19,3.77-0.38,7.54-0.57,11.31c-0.04,0.81,0.72,1.5,1.5,1.5c0.85,0,1.46-0.69,1.5-1.5
			c0.19-3.77,0.38-7.54,0.57-11.31c0.04-0.81-0.72-1.5-1.5-1.5C833.01,439.41,832.4,440.1,832.36,440.91L832.36,440.91z"/>
	</g>
</g>
<g>
	<g>
		<path class="st3" d="M838.83,436.47c0.23,2.79,0.47,5.59,0.7,8.38c0.07,0.78,0.64,1.54,1.5,1.5c0.76-0.03,1.57-0.66,1.5-1.5
			c-0.23-2.79-0.47-5.59-0.7-8.38c-0.07-0.78-0.64-1.54-1.5-1.5C839.57,435,838.76,435.63,838.83,436.47L838.83,436.47z"/>
	</g>
</g>
<g>
	<g>
		<path class="st3" d="M841.11,410.39c5.46,3.74,12.11,5.62,18.71,5.31c1.92-0.09,1.93-3.09,0-3c-6.13,0.28-12.14-1.44-17.2-4.9
			C841.03,406.7,839.53,409.3,841.11,410.39L841.11,410.39z"/>
	</g>
</g>
<g>
	<g>
		<path class="st3" d="M846.17,419.12c4.07,0.93,8.14,1.86,12.2,2.79c0.79,0.18,1.62-0.24,1.85-1.05c0.21-0.76-0.25-1.66-1.05-1.85
			c-4.07-0.93-8.14-1.86-12.2-2.79c-0.79-0.18-1.62,0.24-1.85,1.05C844.92,418.03,845.38,418.94,846.17,419.12L846.17,419.12z"/>
	</g>
</g>
<g>
	<g>
		<path class="st3" d="M847.74,423.52c2.39,1.75,5.2,2.77,8.14,3.12c0.78,0.09,1.53-0.76,1.5-1.5c-0.04-0.89-0.66-1.4-1.5-1.5
			c-0.18-0.02-0.17-0.02,0.02,0c-0.08-0.01-0.17-0.02-0.25-0.04c-0.17-0.03-0.33-0.06-0.5-0.09c-0.29-0.06-0.58-0.12-0.87-0.19
			c-0.64-0.16-1.26-0.37-1.88-0.61c-0.06-0.02-0.12-0.05-0.18-0.07c0.16,0.07,0.16,0.07,0.01,0c-0.15-0.07-0.31-0.14-0.46-0.21
			c-0.29-0.14-0.57-0.28-0.85-0.44c-0.58-0.32-1.13-0.68-1.66-1.07c-0.64-0.47-1.7-0.13-2.05,0.54
			C846.79,422.25,847.07,423.03,847.74,423.52L847.74,423.52z"/>
	</g>
</g>
<g>
	<g>
		<path class="st3" d="M872.29,317.21c-0.41,0.9-0.91,1.77-1.48,2.58c-0.14,0.19-0.27,0.39-0.42,0.58c0.07-0.08,0.2-0.26,0.05-0.07
			c-0.03,0.04-0.07,0.09-0.11,0.13c-0.08,0.1-0.16,0.19-0.24,0.29c-0.33,0.38-0.67,0.75-1.03,1.1c-0.56,0.55-0.59,1.58,0,2.12
			c0.61,0.56,1.52,0.59,2.12,0c1.53-1.49,2.81-3.27,3.69-5.21c0.17-0.38,0.27-0.74,0.15-1.16c-0.1-0.35-0.36-0.72-0.69-0.9
			C873.68,316.32,872.64,316.45,872.29,317.21L872.29,317.21z"/>
	</g>
</g>
<g>
	<g>
		<path class="st3" d="M877.11,321.97c-2.65,0.88-5.07,2.31-7.11,4.22c-0.57,0.54-0.58,1.59,0,2.12c0.61,0.56,1.51,0.57,2.12,0
			c0.23-0.21,0.46-0.42,0.69-0.62c0.11-0.09,0.22-0.19,0.34-0.28c0.03-0.02,0.23-0.17,0.06-0.05c-0.16,0.12,0.04-0.03,0.07-0.05
			c0.5-0.37,1.01-0.72,1.55-1.04c0.52-0.31,1.05-0.59,1.6-0.84c0.08-0.04,0.35-0.1,0.4-0.18c-0.03,0.05-0.26,0.11-0.06,0.02
			c0.07-0.03,0.14-0.05,0.2-0.08c0.31-0.12,0.62-0.23,0.93-0.33c0.74-0.25,1.31-1.05,1.05-1.85
			C878.71,322.28,877.91,321.71,877.11,321.97L877.11,321.97z"/>
	</g>
</g>
<g>
	<g>
		<path class="st3" d="M879.06,325.86c-2.61,0.45-5.02,1.63-7.08,3.29c-0.61,0.5-0.55,1.61,0,2.12c0.65,0.6,1.47,0.53,2.12,0
			c0.06-0.05,0.11-0.09,0.17-0.13c-0.16,0.12-0.18,0.14-0.05,0.04c0.12-0.08,0.23-0.17,0.35-0.25c0.24-0.17,0.48-0.32,0.72-0.47
			c0.49-0.3,1-0.57,1.52-0.81c0.07-0.03,0.13-0.06,0.2-0.09c-0.19,0.08-0.21,0.09-0.06,0.03c0.13-0.05,0.27-0.11,0.4-0.16
			c0.27-0.1,0.54-0.19,0.82-0.28c0.55-0.17,1.11-0.3,1.68-0.39c0.78-0.13,1.28-1.13,1.05-1.85
			C880.63,326.08,879.89,325.72,879.06,325.86L879.06,325.86z"/>
	</g>
</g>
<g>
	<g>
		<path class="st3" d="M813.21,298.74c-4.12,3.1-7.9,6.6-11.25,10.52c-0.53,0.62-0.6,1.52,0,2.12c0.54,0.54,1.59,0.62,2.12,0
			c3.18-3.71,6.74-7.11,10.64-10.05c0.65-0.49,0.98-1.3,0.54-2.05C814.89,298.64,813.86,298.25,813.21,298.74L813.21,298.74z"/>
	</g>
</g>
<g>
	<g>
		<path class="st3" d="M817.27,303.84c-3.94,2.91-7.65,6.12-11.05,9.64c-0.56,0.58-0.58,1.54,0,2.12c0.57,0.57,1.56,0.58,2.12,0
			c3.22-3.34,6.71-6.42,10.45-9.17c0.65-0.48,0.98-1.3,0.54-2.05C818.95,303.73,817.93,303.36,817.27,303.84L817.27,303.84z"/>
	</g>
</g>
<g>
	<g>
		<path class="st3" d="M822.07,306.24c-3.69,3.68-7.38,7.36-11.08,11.04c-1.37,1.36,0.75,3.49,2.12,2.12
			c3.69-3.68,7.38-7.36,11.08-11.04C825.56,307,823.44,304.88,822.07,306.24L822.07,306.24z"/>
	</g>
</g>
<g>
	<g>
		<path class="st3" d="M825.52,309.22c-3.47,3.13-7.23,5.9-11.24,8.3c-1.65,0.99-0.15,3.59,1.51,2.59
			c4.22-2.53,8.19-5.48,11.85-8.77c0.6-0.54,0.55-1.57,0-2.12C827.04,308.62,826.12,308.67,825.52,309.22L825.52,309.22z"/>
	</g>
</g>
<g>
	<g>
		<path class="st3" d="M826.65,312.26c-4.07,3.12-8,6.41-11.75,9.9c-0.59,0.55-0.56,1.56,0,2.12c0.59,0.59,1.53,0.55,2.12,0
			c3.57-3.31,7.28-6.47,11.15-9.43c0.64-0.49,0.98-1.29,0.54-2.05C828.33,312.16,827.29,311.76,826.65,312.26L826.65,312.26z"/>
	</g>
</g>
<g>
	<g>
		<path class="st3" d="M830.04,315.73c-4.74,4.25-9.49,8.5-14.23,12.75c-1.44,1.29,0.69,3.41,2.12,2.12
			c4.74-4.25,9.49-8.5,14.23-12.75C833.6,316.56,831.47,314.44,830.04,315.73L830.04,315.73z"/>
	</g>
</g>
<g>
	<g>
		<path class="st3" d="M827.37,322.86c-3.6,3.44-7.21,6.88-10.81,10.32c-0.59,0.56-0.56,1.56,0,2.12c0.59,0.59,1.53,0.56,2.12,0
			c3.6-3.44,7.21-6.88,10.81-10.32c0.59-0.56,0.56-1.56,0-2.12C828.9,322.27,827.95,322.3,827.37,322.86L827.37,322.86z"/>
	</g>
</g>
<g>
	<g>
		<path class="st3" d="M838.87,279.33c-1.37,1.93-2.74,3.85-4.11,5.78c-0.46,0.64-0.13,1.7,0.54,2.05c0.77,0.41,1.57,0.15,2.05-0.54
			c1.37-1.93,2.74-3.85,4.11-5.78c0.46-0.64,0.13-1.7-0.54-2.05C840.15,278.39,839.35,278.65,838.87,279.33L838.87,279.33z"/>
	</g>
</g>
<g>
	<g>
		<path class="st3" d="M840.58,284.94c-2.51,3.05-5.32,5.84-8.37,8.34c-0.61,0.5-0.56,1.61,0,2.12c0.65,0.6,1.47,0.53,2.12,0
			c3.06-2.5,5.86-5.29,8.37-8.34c0.5-0.6,0.64-1.54,0-2.12C842.15,284.43,841.12,284.29,840.58,284.94L840.58,284.94z"/>
	</g>
</g>
<g>
	<g>
		<path class="st3" d="M836.95,295.6c-0.28,0.4-0.57,0.79-0.86,1.18c-0.05,0.07-0.13,0.17-0.03,0.04c-0.07,0.1-0.15,0.19-0.23,0.29
			c-0.15,0.19-0.3,0.38-0.46,0.57c-0.6,0.73-1.23,1.44-1.89,2.13c-1.31,1.37-2.71,2.65-4.2,3.83c-0.62,0.49-0.55,1.62,0,2.12
			c0.66,0.6,1.46,0.52,2.12,0c3.12-2.47,5.84-5.39,8.14-8.64c0.45-0.64,0.14-1.7-0.54-2.05
			C838.23,294.65,837.44,294.91,836.95,295.6L836.95,295.6z"/>
	</g>
</g>
<g>
	<g>
		<path class="st3" d="M835.2,302.66c-1.52,1.76-3.04,3.52-4.56,5.29c-0.26,0.3-0.44,0.65-0.44,1.06c0,0.37,0.16,0.81,0.44,1.06
			c0.56,0.52,1.57,0.63,2.12,0c1.52-1.76,3.04-3.52,4.56-5.29c0.26-0.3,0.44-0.65,0.44-1.06c0-0.37-0.16-0.81-0.44-1.06
			C836.76,302.14,835.75,302.03,835.2,302.66L835.2,302.66z"/>
	</g>
</g>
<g>
	<g>
		<path class="st3" d="M835.17,307.55c-0.33,0.33-0.65,0.66-0.98,0.98c-0.15,0.14-0.25,0.3-0.31,0.48
			c-0.09,0.18-0.14,0.37-0.13,0.58c-0.01,0.21,0.04,0.4,0.13,0.58c0.06,0.19,0.16,0.35,0.31,0.48c0.1,0.08,0.2,0.16,0.3,0.23
			c0.23,0.14,0.49,0.2,0.76,0.2c0.13-0.02,0.27-0.04,0.4-0.05c0.25-0.07,0.47-0.2,0.66-0.39c0.33-0.33,0.65-0.66,0.98-0.98
			c0.15-0.14,0.25-0.3,0.31-0.48c0.09-0.18,0.14-0.37,0.13-0.58c0.01-0.21-0.04-0.4-0.13-0.58c-0.06-0.19-0.16-0.35-0.31-0.48
			c-0.1-0.08-0.2-0.16-0.3-0.23c-0.23-0.14-0.49-0.2-0.76-0.2c-0.13,0.02-0.27,0.04-0.4,0.05
			C835.57,307.24,835.35,307.36,835.17,307.55L835.17,307.55z"/>
	</g>
</g>
<g>
	<g>
		<path class="st3" d="M709.46,334.65c-2.46,2.37-4.58,5.11-6.24,8.09c-0.38,0.69-0.19,1.67,0.54,2.05
			c0.71,0.37,1.64,0.19,2.05-0.54c0.39-0.7,0.8-1.38,1.24-2.05c0.23-0.34,0.46-0.68,0.7-1.02c0.12-0.17,0.24-0.33,0.36-0.5
			c0.05-0.07,0.11-0.15,0.16-0.22c0.02-0.03,0.24-0.31,0.13-0.18c-0.09,0.12,0.08-0.1,0.09-0.12c0.06-0.07,0.11-0.14,0.17-0.21
			c0.13-0.16,0.26-0.32,0.39-0.48c0.26-0.32,0.53-0.63,0.81-0.93c0.55-0.61,1.12-1.2,1.72-1.77c0.57-0.54,0.59-1.58,0-2.12
			C710.98,334.09,710.07,334.07,709.46,334.65L709.46,334.65z"/>
	</g>
</g>
<g>
	<g>
		<path class="st3" d="M716.55,333.43c-2.49,3.42-4.97,6.84-7.46,10.26c-0.48,0.66-0.11,1.67,0.54,2.05
			c0.76,0.44,1.57,0.12,2.05-0.54c2.49-3.42,4.97-6.84,7.46-10.26c0.48-0.66,0.11-1.67-0.54-2.05
			C717.84,332.44,717.03,332.77,716.55,333.43L716.55,333.43z"/>
	</g>
</g>
<g>
	<g>
		<path class="st3" d="M727.59,331.65c-3.6,3.38-6.72,7.28-9.25,11.51c-0.99,1.66,1.6,3.17,2.59,1.51c2.41-4.03,5.36-7.68,8.78-10.9
			c0.59-0.56,0.56-1.56,0-2.12C729.12,331.06,728.18,331.09,727.59,331.65L727.59,331.65z"/>
	</g>
</g>
<g>
	<g>
		<path class="st3" d="M732.21,330.44c-2.1,3.3-4.19,6.6-6.29,9.9c-0.43,0.68-0.14,1.65,0.54,2.05c0.72,0.42,1.62,0.15,2.05-0.54
			c2.1-3.3,4.19-6.6,6.29-9.9c0.43-0.68,0.14-1.65-0.54-2.05C733.54,329.48,732.65,329.76,732.21,330.44L732.21,330.44z"/>
	</g>
</g>
<g>
	<g>
		<path class="st3" d="M742.03,327.97c-2.15,2.94-4.3,5.87-6.44,8.81c-0.46,0.64-0.13,1.7,0.54,2.05c0.78,0.41,1.56,0.14,2.05-0.54
			c2.15-2.94,4.3-5.87,6.44-8.81c0.46-0.64,0.13-1.7-0.54-2.05C743.3,327.02,742.53,327.3,742.03,327.97L742.03,327.97z"/>
	</g>
</g>
<g>
	<g>
		<path class="st3" d="M776.72,378.38c-6.12,5.17-12.24,10.34-18.37,15.51c-1.48,1.25,0.65,3.36,2.12,2.12
			c6.12-5.17,12.24-10.34,18.37-15.51C780.32,379.26,778.19,377.14,776.72,378.38L776.72,378.38z"/>
	</g>
</g>
<g>
	<g>
		<path class="st3" d="M785.28,382.08c-4.84,6.36-10.61,12.04-17.05,16.79c-0.65,0.48-0.98,1.3-0.54,2.05
			c0.38,0.64,1.4,1.02,2.05,0.54c6.88-5.07,12.95-11.06,18.12-17.86c0.49-0.65,0.1-1.68-0.54-2.05
			C786.56,381.1,785.77,381.44,785.28,382.08L785.28,382.08z"/>
	</g>
</g>
<g>
	<g>
		<path class="st3" d="M793.2,386.07c-3.6,4.68-7.68,9-12.1,12.92c-0.61,0.54-0.55,1.57,0,2.12c0.6,0.6,1.51,0.54,2.12,0
			c4.62-4.1,8.81-8.63,12.57-13.53c0.49-0.64,0.1-1.68-0.54-2.05C794.48,385.08,793.7,385.42,793.2,386.07L793.2,386.07z"/>
	</g>
</g>
<g>
	<g>
		<path class="st3" d="M801.21,389.12c-3.93,3.77-7.87,7.53-11.8,11.3c-1.4,1.34,0.73,3.46,2.12,2.12c3.93-3.77,7.87-7.53,11.8-11.3
			C804.73,389.91,802.61,387.79,801.21,389.12L801.21,389.12z"/>
	</g>
</g>
<g>
	<g>
		<path class="st3" d="M802.26,393.13c-2.29,2.3-4.58,4.59-6.88,6.89c-0.56,0.56-0.6,1.57,0,2.12c0.6,0.55,1.53,0.59,2.12,0
			c2.29-2.3,4.58-4.59,6.88-6.89c0.56-0.56,0.6-1.57,0-2.12C803.78,392.58,802.85,392.53,802.26,393.13L802.26,393.13z"/>
	</g>
</g>
<g>
	<g>
		<path class="st3" d="M535.1,351.26c-8.37,2.06-16.14,6.02-22.77,11.52c-1.49,1.23,0.64,3.35,2.12,2.12
			c6.23-5.17,13.6-8.82,21.45-10.75C537.77,353.7,536.98,350.8,535.1,351.26L535.1,351.26z"/>
	</g>
</g>
<g>
	<g>
		<path class="st3" d="M523.95,359.76c-0.99,0.66-1.99,1.32-2.98,1.98c-0.33,0.22-0.58,0.51-0.69,0.9c-0.1,0.36-0.05,0.84,0.15,1.16
			c0.21,0.32,0.51,0.6,0.9,0.69c0.38,0.09,0.82,0.07,1.16-0.15c0.99-0.66,1.99-1.32,2.98-1.98c0.33-0.22,0.58-0.51,0.69-0.9
			c0.1-0.36,0.05-0.84-0.15-1.16c-0.21-0.32-0.51-0.6-0.9-0.69C524.73,359.52,524.29,359.53,523.95,359.76L523.95,359.76z"/>
	</g>
</g>
<g>
	<g>
		<path class="st3" d="M617.42,363.54c19.63-1.7,38.06-10.63,57.89-10.73c5.48-0.03,10.91,0.68,16.12,2.41
			c1.84,0.61,2.62-2.29,0.8-2.89c-19.27-6.38-39.18,0.78-57.99,5.28c-5.54,1.33-11.14,2.44-16.83,2.93
			C615.51,360.7,615.5,363.7,617.42,363.54L617.42,363.54z"/>
	</g>
</g>
<g>
	<g>
		<path class="st3" d="M659.91,289.46c5.11,0.85,10.18,0.82,15.3,0.03c2.11-0.32,4.52-0.78,6.54,0.2c1.99,0.96,3.58,2.57,5.96,1.89
			c1.85-0.53,1.07-3.42-0.8-2.89c-0.96,0.27-1.86-0.52-2.64-1c-0.91-0.56-1.85-1.05-2.89-1.3c-2.03-0.48-4.1-0.22-6.14,0.08
			c-4.86,0.72-9.66,0.9-14.53,0.09C658.82,286.25,658.01,289.15,659.91,289.46L659.91,289.46z"/>
	</g>
</g>
</svg>
