<?xml version="1.0" encoding="utf-8"?>
<!-- Generator: Adobe Illustrator 28.1.0, SVG Export Plug-In . SVG Version: 6.00 Build 0)  -->
<svg version="1.1" id="Layer_1" xmlns="http://www.w3.org/2000/svg" xmlns:xlink="http://www.w3.org/1999/xlink" x="0px" y="0px"
	 viewBox="0 0 1366 768" style="enable-background:new 0 0 1366 768;" xml:space="preserve">
<style type="text/css">
	.st0{fill:#824D00;}
	.st1{fill:#878166;}
	.st2{fill:#AFA475;}
	.st3{fill:#D3C690;}
</style>
<g>
	<path class="st0" d="M813.7,602.4"/>
	<g>
		<path class="st0" d="M813.7,603.9c1.9,0,1.9-3,0-3S811.8,603.9,813.7,603.9L813.7,603.9z"/>
	</g>
</g>
<g>
	<path class="st1" d="M729.2,415c0.6-3.6,1.2-7.2,0.6-10.8s-2.7-7.1-6-8.4c-2.1-0.9-4.5-0.7-6.8-0.6c-6.7,0.4-13.5,0.7-19.8,2.9
		c-6.3,2.2-12.3,6.5-14.8,12.7c-1.2,2.9-1.8,6.3-4.2,8.2c-1.2,0.9-2.6,1.3-4,1.7c-12.8,3.7-25.7,7.4-38.5,11.1
		c-7.3,2.1-14.7,4.2-22.2,5.4c-7.6,1.2-15.4,1.3-23.1,2.1c-9.9,0.9-19.7,2.9-29.2,5.7c-4.2,1.2-8.5,2.7-12.8,2.1
		c-0.4-4.1,3.1-7.4,6.4-9.9c12.1-9.5,24.1-18.9,36.2-28.4c1.1-0.9,2.2-1.7,3.6-2c2.1-0.4,4.2,0.7,6.3,0.6c3.4-0.1,6-3.2,9.2-4.5
		c2-0.8,4.1-0.9,6.2-1c14.5-0.6,29.2-2.2,42.5-7.8c6.9-2.9,13.4-6.9,20.4-9.6c5.2-2,10.8-3.2,16.3-3.9c11.9-1.6,24-1.2,35.8,1.2
		c3.2,0.7,6.5,1.5,9.5,3c6.8,3.4,11.8,10.3,12.9,17.9c0.5,3.3,0.2,6.8-1.6,9.6c-1.7,2.8-4.7,4.5-7.8,5.5c-4.9,1.5-10.4,1.3-15.1-0.7
		"/>
	<g>
		<path class="st1" d="M730.6,415.5c1.1-6.3,2-13.6-2.9-18.7c-2.2-2.2-5.1-3.1-8.2-3.1c-3.5,0-7.1,0.3-10.5,0.6
			c-6.6,0.6-13.4,2-19,5.7c-2.4,1.6-4.6,3.5-6.3,5.7c-1.8,2.3-2.8,4.9-3.8,7.6c-0.4,1.2-0.9,2.5-1.7,3.5c-0.9,1.3-2.3,1.9-3.8,2.3
			c-3.6,1.1-7.2,2.1-10.8,3.1c-7.4,2.1-14.9,4.3-22.3,6.4c-7.2,2.1-14.4,4.3-21.7,5.9c-7.5,1.6-15,2.2-22.6,2.7
			c-8.3,0.6-16.6,1.5-24.7,3.3c-4,0.9-8,1.9-11.9,3c-4,1.2-8,2.5-12.2,2c0.5,0.5,1,1,1.5,1.5c-0.3-3.8,3-6.5,5.6-8.6
			c3.8-3,7.7-6,11.5-9c7.6-6,15.2-11.9,22.8-17.9c1.6-1.2,3.4-3.2,5.5-3.4c2-0.1,4,0.8,6,0.6c3.8-0.4,6.3-3.7,9.9-4.8
			c2.1-0.6,4.4-0.6,6.6-0.7c2.2-0.1,4.4-0.2,6.6-0.4c4.4-0.3,8.8-0.8,13.2-1.5c8.8-1.4,17.4-3.8,25.4-7.7c4-1.9,7.9-4,12-5.9
			c4.1-1.9,8.4-3.4,12.8-4.4c9-2.1,18.5-2.7,27.7-2.2c4.7,0.2,9.3,0.8,13.9,1.7c4.2,0.8,8.5,1.8,12.1,4c6.1,3.7,10.5,10.6,10.7,17.8
			c0.1,4.1-1.3,7.8-4.9,10c-3.5,2.1-7.7,2.9-11.7,2.5c-2.1-0.2-4.2-0.8-6.2-1.6c-1.8-0.7-2.6,2.2-0.8,2.9c7.5,3,18.3,2.4,23.8-4.3
			c5.2-6.5,2.8-16.4-1.6-22.6c-2.2-3.1-5-5.8-8.4-7.7c-4-2.3-8.7-3.3-13.2-4.1c-9.7-1.8-19.7-2.2-29.5-1.3
			c-9.7,0.9-18.9,3.2-27.7,7.4c-4.3,2-8.5,4.4-12.8,6.3c-4.3,1.9-8.9,3.4-13.5,4.5c-9.2,2.3-18.7,3.1-28.2,3.6
			c-2.2,0.1-4.5,0.1-6.7,0.7c-2,0.5-3.8,1.7-5.5,2.8c-1.5,1-3.1,2.1-5,2c-2.3,0-4.4-1.1-6.7-0.4c-2.1,0.6-3.8,2.2-5.4,3.5
			c-2.1,1.6-4.2,3.3-6.3,4.9c-4,3.1-8,6.3-12,9.4c-4.1,3.2-8.1,6.4-12.2,9.5c-3.3,2.6-7.3,5.1-9.5,8.8c-1,1.6-1.5,3.5-1.4,5.4
			c0.1,0.9,0.6,1.4,1.5,1.5c3.6,0.4,7.1-0.4,10.5-1.4c3.4-1,6.7-2,10.1-2.8c7.1-1.7,14.3-3,21.6-3.6c7.2-0.7,14.4-0.9,21.6-1.9
			c7.2-1,14.2-2.9,21.2-4.9c7.1-2,14.2-4.1,21.3-6.1c3.6-1,7.1-2,10.7-3.1c3.5-1,7.1-1.9,10.6-3.1c2.8-1,4.7-2.7,5.8-5.3
			c1.2-2.6,1.8-5.3,3.3-7.8c3.1-4.8,8.3-7.9,13.7-9.5c3.8-1.1,7.7-1.7,11.6-2c2-0.2,3.9-0.3,5.9-0.4c1.8-0.1,3.7-0.3,5.4,0.1
			c3.2,0.6,5.3,3.1,6.2,6.1c1.2,3.8,0.5,7.9-0.2,11.8C727.4,416.5,730.3,417.4,730.6,415.5L730.6,415.5z"/>
	</g>
</g>
<g>
	<path class="st1" d="M678,451.7c23.2,2.1,48.2,2.3,68-10.1c3.1-1.9,6.1-4.2,8-7.4c0.5-0.9,1-2,0.8-3c-0.4-1.9-2.8-2.6-4.7-2.8
		c-23.6-3-47.1,5.1-68.7,15c-1.5,0.7-3.1,1.5-4.2,2.7c-1.1,1.3-1.7,3.2-0.8,4.7s3.3,1.9,4.2,0.5"/>
	<g>
		<path class="st1" d="M678,453.2c23.5,2.1,50.1,2.6,70.5-11.4c3.4-2.3,11.5-9.3,6-13.4c-2.2-1.6-5.3-1.6-7.9-1.9
			c-3.3-0.3-6.6-0.3-9.8-0.2c-13.4,0.5-26.5,3.9-39,8.6c-3.5,1.3-7,2.8-10.5,4.2c-1.8,0.8-3.5,1.5-5.3,2.4c-1.5,0.7-3,1.3-4.3,2.3
			c-2.3,1.7-4.1,5-2.5,7.8c1.3,2.2,4.9,2.9,6.5,0.8c1.2-1.5-0.9-3.6-2.1-2.1c-0.4,0.5-1.2,0.6-1.7,0c-0.7-0.7-0.3-2.1,0.2-2.8
			c1.4-2.1,4.7-3,6.9-4c5.5-2.5,11-4.7,16.7-6.7c11-3.9,22.5-6.8,34.3-7.3c2.9-0.1,5.8-0.1,8.7,0c1.4,0.1,2.8,0.2,4.1,0.3
			c1.2,0.1,2.4,0.2,3.5,0.7c2.6,1.2-0.4,4.5-1.6,5.7c-1.8,1.9-4,3.3-6.2,4.6c-9.1,5.5-19.5,8.4-30,9.6c-12.1,1.4-24.3,0.8-36.3-0.3
			C676.1,450,676.1,453,678,453.2L678,453.2z"/>
	</g>
</g>
<g>
	<path class="st2" d="M833.8,389.7c0.9,0.3,1.4-1.4,0.6-2s-1.9-0.4-2.8-0.1c-11.4,3.4-21.8,10.2-29.6,19.2c-2.1,2.4-4,5-6.8,6.6
		c-3.7,2.1-8.3,2-12.6,1.8c-7-0.3-13.9-0.6-20.9-0.9c-4.7-0.2-9.5-0.4-14-2c-11.7-4.3-18.2-17.2-29.5-22.3c-2.8-1.3-6-2.1-7.9-4.5
		c-3-3.7-1.7-9.5-4.3-13.5c-2.8-4.2-8.6-4.8-13.6-4.9c-4.8-0.1-9.6-0.3-14.4-0.4c-4.9-0.1-10.6,0.1-13.4,4.1
		c-2.6,3.5-1.9,9-5.1,11.9c-2.5,2.3-6.3,2.1-9.6,1.7c-4.9-0.6-9.8-1.4-14.7-2.2c-14.9-2.5-29.8-4.9-44.7-7.4
		c-2.1-0.3-4.4-0.9-5.5-2.7c-0.9-1.6-0.5-3.5-0.6-5.4c-0.3-6.6-6.8-11.4-7.9-17.9c-0.8-5.1,2-10.3,5.8-13.8s8.6-5.8,13.1-8.5
		c7.6-4.5,14.4-10.1,21.7-15.1c13-8.9,27.2-15.8,41.3-22.6c11.6-5.6,23.4-11.3,36.2-13.5c2.9-0.5,5.9-0.8,8.7,0.2s5.2,3.5,5.2,6.4
		c0,3-2.4,5.4-4.4,7.5c-9.6,10-16,24.8-11.2,37.8c1,2.8,2.7,5.5,5.5,6.6c2.8,1.1,6,0.2,8.9-0.8c8.7-2.8,17.5-5.7,26.2-8.5
		c3.2-1,6.5-2.2,8.6-4.7c2-2.4,2.7-5.7,2.9-8.9c0.7-9.2-1.3-18.7-5.8-26.8c-0.8-1.5-1.7-3.1-1.1-4.6c0.6-1.5,2.2-2.1,3.7-2.6
		c6.5-2,13.4-2.7,20.2-2.1c1.2,0.1,2.4,0.3,3.3,0.9c2.2,1.5,2,4.9,0.6,7.1s-3.8,3.6-5.8,5.3c-10.2,8.4-11.8,25.3-3.5,35.6
		c1,1.2,2.2,2.4,3.8,2.6c1.6,0.2,3.1-0.8,4.4-1.8c4.8-3.7,9.1-8,12.7-12.9c2.6,8.2,2.1,17.5-1.5,25.3c-0.7,1.6-1.6,3.1-2.9,4.2
		c-4.2,3.4-10.3,0.5-15.3-1.6c-11-4.6-25.3-3.9-32.8,5.2c3.9,4.4,11,1,16.9,1.6c6.4,0.7,10.9,6.3,16.3,9.8
		c4.9,3.1,10.8,4.5,16.5,5.7c17.2,3.5,35.1,5.8,50.6,14.2c5.1,2.8,10.4,7,10.6,12.9"/>
	<g>
		<path class="st2" d="M833.8,391.2c2.8,0.4,3.2-3.8,1.1-5c-1.1-0.6-2.5-0.4-3.7-0.1c-1.5,0.4-2.9,0.9-4.4,1.5
			c-5.6,2.1-10.8,5-15.6,8.6c-2.4,1.8-4.7,3.8-6.8,5.9c-2.1,2.1-4,4.4-6,6.7c-2.2,2.4-4.5,4.1-7.7,4.8c-3.1,0.6-6.4,0.4-9.5,0.2
			c-7.1-0.3-14.2-0.6-21.3-0.9c-3.5-0.2-7-0.5-10.3-1.5c-2.5-0.8-4.9-2-7.1-3.5c-8.7-6-14.5-15.4-24.5-19.6c-2.4-1-5.4-1.9-6.9-4.3
			c-1.4-2.3-1.5-5.2-2-7.8c-0.5-2.5-1.4-5-3.4-6.8c-1.8-1.7-4.2-2.6-6.7-3.1c-2.9-0.6-5.8-0.6-8.7-0.7c-3.6-0.1-7.2-0.2-10.8-0.3
			c-5.1-0.1-11.2-0.4-15.1,3.4c-1.8,1.8-2.7,4.2-3.3,6.7c-0.6,2.3-1,5-3,6.5c-2.2,1.7-5.5,1.3-8.1,1c-3.7-0.4-7.3-1-10.9-1.6
			c-14.4-2.3-28.8-4.7-43.2-7.1c-1.7-0.3-3.4-0.5-5.1-0.8c-1.2-0.2-2.6-0.4-3.7-1.1c-1.3-0.9-1.3-2.3-1.3-3.8c0-1.4,0-2.8-0.4-4.2
			c-1.2-5.1-5.3-8.8-7-13.7c-2-5.9,1.4-11.6,5.9-15.3c4.9-4.1,11.1-6.7,16.4-10.3c5.7-3.8,11-8,16.6-11.9
			c5.7-3.9,11.6-7.5,17.7-10.8c5.9-3.2,12-6.2,18-9.2c6.2-3,12.3-6.1,18.7-8.9c6.2-2.7,12.6-5.1,19.2-6.6c3.2-0.7,6.8-1.6,10.1-1.1
			c2.5,0.4,5.4,2,5.8,4.7s-2,5.1-3.7,6.9c-2.1,2.2-4,4.5-5.7,7c-3.2,4.7-5.8,10-7,15.7c-1.2,5.6-1.2,11.5,0.9,16.9
			c0.9,2.5,2.3,5,4.5,6.6c2.6,1.9,5.8,1.9,8.8,1.2c3.4-0.8,6.8-2.1,10.2-3.2c3.4-1.1,6.8-2.2,10.2-3.3c3.3-1.1,6.7-2.1,10.1-3.3
			c2.7-0.9,5.4-2,7.4-4.1c4.2-4.2,4.3-11.3,3.9-16.9c-0.4-6.5-2-12.9-4.8-18.8c-0.7-1.4-1.6-2.7-2.1-4.2c-0.6-1.7,0.3-2.5,1.8-3.1
			c3.2-1.2,6.7-1.8,10.1-2.2c3.5-0.4,7-0.4,10.5-0.1c1.1,0.1,2.5,0.3,3.1,1.4c0.6,1,0.5,2.2,0.1,3.3c-0.9,2.7-3.8,4.3-5.9,6
			c-1.9,1.6-3.6,3.5-5,5.6c-2.7,4.1-4.1,8.9-4.4,13.8c-0.3,5,0.7,10,3,14.5c1.1,2.2,2.7,4.5,4.7,6c2.9,2.1,5.8,0.8,8.4-1.2
			c4.9-3.8,9.2-8.2,12.8-13.1c-0.9-0.1-1.8-0.2-2.7-0.4c1.8,5.7,2.1,11.9,0.8,17.8c-0.7,2.9-1.6,6-3.2,8.5c-1.5,2.4-4,3.2-6.7,2.8
			c-2.7-0.4-5.3-1.5-7.8-2.6c-2.3-1-4.6-1.8-7-2.3c-4.8-1.1-9.9-1.2-14.7-0.2c-5.2,1.1-10.1,3.7-13.5,7.8c-0.5,0.6-0.6,1.5,0,2.1
			c5.3,5.6,13.7,0.4,20.1,2.5c3.5,1.1,6.3,3.7,9.1,5.9c3.2,2.6,6.5,4.7,10.4,6.1c4.1,1.5,8.4,2.4,12.7,3.2c4.3,0.9,8.6,1.6,12.9,2.5
			c8.7,1.7,17.4,3.6,25.7,6.8c4.3,1.6,8.8,3.5,12.6,6.1c3.4,2.3,6.7,5.5,6.9,9.8c0.1,1.9,3.1,1.9,3,0c-0.5-8.2-8.4-12.9-15.1-16
			c-8.1-3.8-16.8-6.3-25.6-8.2c-8.8-1.9-17.6-3.2-26.3-5.3c-4.3-1-8.5-2.5-12.2-4.9c-3.2-2.1-5.9-4.9-9.2-6.9
			c-3.7-2.3-7.5-3-11.8-2.5c-3.5,0.4-8.4,1.7-11.2-1.3c0,0.7,0,1.4,0,2.1c6.7-8,18.2-8.9,27.6-6.2c5,1.5,10,4.9,15.4,4.5
			c6.5-0.4,9-6.9,10.5-12.3c1.8-6.8,1.6-14-0.5-20.6c-0.4-1.3-2-1.4-2.7-0.4c-2,2.6-4.1,5.1-6.4,7.4c-1.1,1.1-2.3,2.2-3.5,3.2
			c-1.2,1-2.5,2.3-4,3c-2.8,1.3-4.8-2-6-4c-1.2-2.1-2.1-4.3-2.7-6.6c-1.1-4.8-0.8-9.9,0.8-14.5c1.7-4.9,4.8-8.5,8.8-11.6
			c2.1-1.6,4.3-3.5,5-6.2c0.6-2.2,0.2-4.9-1.6-6.5c-2.3-2-6.2-1.8-9-1.8c-3.4,0-6.8,0.3-10.1,0.9c-2.9,0.5-6.4,1-8.8,2.6
			c-2.8,1.8-2.5,4.8-1.2,7.5c1.5,3,2.9,5.9,3.9,9c1,3.1,1.7,6.4,2,9.6c0.3,3.1,0.3,6.3,0,9.4c-0.3,2.9-1.2,5.8-3.5,7.7
			c-2.2,1.9-5.2,2.6-7.8,3.5c-3.5,1.1-7,2.2-10.4,3.4s-7,2.2-10.4,3.4c-3.1,1-6.5,2.6-9.8,2.6c-6.2,0.1-8.2-7.7-8.6-12.6
			c-0.5-5.8,0.9-11.6,3.4-16.8c2.5-5.3,6-9.8,10-14.1c1.8-2,3.6-4.2,3.8-7c0.2-2.7-1.4-5.2-3.5-6.8c-5.2-3.9-12.7-1.8-18.4-0.3
			c-13.1,3.4-25.3,9.8-37.4,15.7c-12.2,6-24.3,12.2-35.4,20c-5.6,3.9-10.9,8.1-16.6,11.9c-5.3,3.5-11.2,6.1-16.1,10.1
			c-4.5,3.6-8.2,9.2-7.7,15.2c0.5,5.4,4.2,9.4,6.6,14c0.5,1.1,1,2.2,1.2,3.3c0.3,1.5,0.1,2.9,0.2,4.4c0.2,3,1.9,5,4.7,5.9
			c3,1,6.4,1.2,9.5,1.7c3.6,0.6,7.1,1.2,10.7,1.8c7.2,1.2,14.4,2.4,21.6,3.5c7,1.2,14.1,2.5,21.2,3.2c2.7,0.3,5.5,0.3,8-0.9
			c2.4-1.2,3.7-3.4,4.5-5.8c0.8-2.4,1-5.1,2.4-7.3c1.4-2.2,3.8-3.1,6.2-3.5c2.7-0.5,5.5-0.3,8.2-0.2c3.6,0.1,7.2,0.2,10.8,0.3
			c4.7,0.1,11.5-0.1,14.2,4.7c1.3,2.4,1.4,5.3,1.9,7.9c0.5,2.6,1.6,5,3.7,6.7c2.1,1.7,4.8,2.5,7.2,3.6c2.3,1.1,4.5,2.5,6.5,4.1
			c8.2,6.6,14.6,16.1,25.3,18.9c6.6,1.8,13.8,1.5,20.5,1.8c3.7,0.1,7.3,0.3,11,0.5c3.1,0.1,6.2,0.3,9.3-0.1c3-0.4,5.7-1.6,8-3.6
			c2.3-2,4-4.5,6.1-6.7c4.1-4.5,8.8-8.3,14.1-11.4c2.4-1.4,5-2.7,7.5-3.8c1.3-0.5,2.6-1,3.9-1.5c0.7-0.2,1.3-0.5,2-0.6
			c0.3-0.1,0.8-0.1,1.1-0.2c0.1,0,0.2,0,0.3,0c-0.2-0.3-0.1-0.5,0.4-0.7c-0.8-0.1-1.5,0.8-1.5,1.5
			C832.3,390.6,833,391.1,833.8,391.2L833.8,391.2z"/>
	</g>
</g>
<g>
	<path class="st2" d="M795.1,312c4.1,4.1,7.7,8.8,10.6,13.8c2.1,3.5,3.8,7.5,3.7,11.6c-0.1,4-2,7.8-3.3,11.6
		c-1.3,3.9-2.1,8-2.2,12.1c0,1.6,0,3.2,1,4.5c1,1.4,2.9,1.9,4.7,2.2c5.9,0.8,11.8-0.6,17.3-2.9c3.3-1.4,6.5-3.2,8.9-5.8
		c2.7-2.9,4.4-6.5,5.9-10.1c9.8-22.8,16.3-48.6,8.7-72.2c-0.6-1.8-1.2-3.5-2.3-5c-2.7-3.6-7.4-5.1-11.8-5.6
		c-1.2-0.1-2.5-0.2-3.6,0.2c-3.9,1.4-3.9,6.8-3.3,10.9c0.8,4.5,1.5,9,2.2,13.6c0.6,3.7,0.6,8.7-3,9.9c-4.4,1.5-7.7-4.5-12.1-5.7
		c-1.8-0.5-3.8-0.2-5.6-0.9c-1.8-0.7-3-2.4-4.4-3.8c-2-2.2-4.5-3.9-7.3-5c-1.1-0.5-2.3-0.8-3.4-0.4c-1.1,0.4-1.8,1.5-2.4,2.6
		c-1.5,2.9-2.6,6.1-3.2,9.3c-0.7,3.4-0.8,6.9,0.4,10.1s3.9,6,7.3,6.5"/>
	<g>
		<path class="st2" d="M794,313c3.9,4,7.3,8.3,10.2,13.1c1.4,2.4,2.7,4.9,3.4,7.7c0.7,2.8,0.3,5.6-0.6,8.4c-0.9,2.8-2.2,5.5-3,8.4
			c-0.8,2.9-1.3,5.8-1.6,8.8c-0.2,2.5-0.3,5.3,1.4,7.4c1.5,1.8,4,2.3,6.3,2.6c5.7,0.6,11.5-0.7,16.8-3c4.9-2.1,9.3-4.9,12.2-9.4
			c3-4.5,4.9-9.9,6.8-15c2.1-5.4,3.9-11,5.4-16.6c2.9-10.9,4.4-22.3,3.4-33.5c-0.5-5.5-1.5-11.1-3.3-16.4c-0.8-2.4-2-4.8-3.9-6.5
			c-1.8-1.6-3.9-2.7-6.2-3.4c-4.1-1.3-10.1-2.4-12.7,2.1c-2.2,4-1,9-0.3,13.2c0.5,3.1,1,6.1,1.5,9.2c0.3,2,0.7,4.2,0.2,6.2
			c-0.4,1.6-1.4,3.2-3.3,3c-1.8-0.2-3.3-1.7-4.7-2.7c-1.6-1.3-3.3-2.6-5.3-3.1c-1.3-0.3-2.6-0.3-3.8-0.5c-1.5-0.2-2.5-0.8-3.6-1.8
			c-1.9-1.9-3.5-3.8-5.7-5.3c-2-1.4-4.9-3.1-7.4-2.7c-2.6,0.3-3.9,2.9-4.9,5.1c-1.2,2.6-2.1,5.3-2.6,8c-1,5.2-0.8,10.9,2.8,15
			c1.5,1.8,3.6,3,5.9,3.5c1.9,0.4,2.7-2.5,0.8-2.9c-5-1-7.1-6.1-7-10.8c0-2.6,0.6-5.2,1.4-7.7c0.4-1.2,0.8-2.5,1.4-3.6
			c0.5-1,0.9-2.3,1.8-3.1c1-1,2.4-0.3,3.5,0.2c1.2,0.5,2.3,1.2,3.3,1.9c2,1.5,3.5,3.5,5.3,5.1c2,1.7,4.1,2,6.6,2.2
			c2.1,0.2,3.7,1.2,5.3,2.4c2.9,2.2,6.3,5.1,10.1,3.1c3.4-1.8,3.7-6.4,3.4-9.8c-0.6-5.4-2-10.7-2.6-16.1c-0.4-3.3-0.3-8.5,4.2-8.4
			c4.3,0.1,9.6,1.6,12.2,5.3c1.4,2.1,2.1,4.7,2.8,7.1c0.7,2.5,1.2,5,1.6,7.6c1.6,10.5,0.7,21.3-1.5,31.7
			c-2.2,10.4-5.8,20.6-10.1,30.4c-2,4.6-4.5,8.8-8.9,11.6c-4.3,2.8-9.6,4.7-14.7,5.2c-2.5,0.3-5.1,0.4-7.6-0.3c-1-0.2-2-0.6-2.6-1.5
			c-0.6-1-0.6-2.3-0.5-3.4c0.2-5.7,1.9-10.9,3.8-16.1c0.9-2.4,1.7-5,1.7-7.6s-0.6-5.2-1.6-7.6c-2-4.7-4.9-9.1-8.1-13.1
			c-1.6-2-3.3-3.9-5.1-5.7C794.8,309.5,792.7,311.6,794,313L794,313z"/>
	</g>
</g>
<g>
	<path class="st3" d="M504.1,347c0.2-0.7,0.6-1.1,1-1.4c0.6-1.1,1.8-1.9,2.7-2.8c0.9-0.9,1.7-1.8,2.6-2.7c0-0.2,0-0.4,0.1-0.6
		c0.2-0.8,0.4-1.6,0.6-2.3c0-0.3,0.2-0.7,0.4-1c0,0,0,0,0-0.1c0.8-1.9,2.1-3.2,4.5-4.4c3.4-1.6,6.3-0.9,9.5,0.9
		c3.7,2,7.6,3.4,11.3,5.3L676.3,272c-41.2,4.1-80.7,18.2-119.7,32.1c-7.9,2.8-15.7,5.6-23.6,8.5c-2.8,1-5.6,2-8.3,3.5
		c-2.4,1.3-4.6,3-7,4.6c-9.4,6.3-20.6,10-29,17.7c-3.5,3.2-6.4,6.9-9.2,10.7c-6.5,8.4-12.9,16.9-19.4,25.3l47-22.2
		C504.8,351.5,503.5,349.5,504.1,347z"/>
	<g>
		<path class="st3" d="M505.6,347.4c0.1-0.4,0.4-0.5,0.6-0.7c0.3-0.3,0.4-0.6,0.7-0.9c0.6-0.6,1.2-1.2,1.9-1.8
			c1.2-1.2,2.9-2.5,3.2-4.2c0.5-2.9,1.8-5.3,4.5-6.6c3.7-1.8,6.7-0.1,10,1.6c1.7,0.9,3.5,1.6,5.3,2.4c0.8,0.4,1.7,0.7,2.5,1.1
			c0.8,0.4,1.8,1.1,2.7,1.1c0.6,0,1.3-0.5,1.9-0.7c1.1-0.5,2.2-1,3.3-1.6c4-1.9,8.1-3.8,12.1-5.7c5.9-2.8,11.8-5.6,17.8-8.4
			c7-3.3,14.1-6.7,21.1-10c7.5-3.6,15.1-7.1,22.6-10.7c7.2-3.4,14.5-6.9,21.7-10.3c6.3-3,12.6-6,18.9-8.9c4.6-2.2,9.2-4.3,13.8-6.5
			c2.2-1,4.5-2,6.7-3.1c0.1,0,0.2-0.1,0.3-0.1c1.3-0.6,0.7-2.9-0.8-2.8c-16.3,1.6-32.4,4.8-48.3,8.9c-15.9,4.1-31.5,9.2-47,14.5
			c-15.8,5.5-31.6,11.2-47.3,16.9c-3.7,1.3-7.4,2.6-10.8,4.6c-3.3,2-6.3,4.4-9.7,6.3c-6.2,3.6-12.7,6.5-18.7,10.4
			c-3,2-6,4.2-8.5,6.8c-2.8,2.8-5.2,5.9-7.6,9c-5.2,6.8-10.5,13.7-15.7,20.5c-1.3,1.7-2.6,3.4-3.9,5.1c-1,1.3,0.9,2.6,2,2
			c5.3-2.5,10.6-5,15.9-7.5c8.4-4,16.9-8,25.3-12c2-0.9,3.9-1.8,5.9-2.8c1.2-0.6,0.8-2.4-0.4-2.7C505.9,350.2,505.2,349,505.6,347.4
			c0.5-1.9-2.4-2.7-2.9-0.8c-0.8,3.2,0.9,6,4,6.9c-0.1-0.9-0.2-1.8-0.4-2.7c-5.3,2.5-10.6,5-15.9,7.5c-8.4,4-16.9,8-25.3,12
			c-2,0.9-3.9,1.8-5.9,2.8c0.7,0.7,1.4,1.4,2,2c5.1-6.7,10.3-13.4,15.5-20.1c4.7-6.2,9.3-12.8,15.5-17.6c5.6-4.4,12.2-7.4,18.5-10.8
			c3.2-1.7,6.3-3.5,9.2-5.6c3.2-2.2,6.5-4.3,10.2-5.7c7.7-3,15.5-5.6,23.3-8.4c7.6-2.7,15.3-5.5,23-8.2
			c15.3-5.4,30.7-10.5,46.4-14.8c15.5-4.3,31.3-7.7,47.3-9.7c2-0.2,4.1-0.5,6.1-0.7c-0.2-0.9-0.5-1.9-0.8-2.8
			c-4.6,2.2-9.3,4.4-13.9,6.6c-11.1,5.2-22.1,10.5-33.2,15.7c-13.4,6.4-26.9,12.7-40.3,19.1c-11.6,5.5-23.1,10.9-34.7,16.4
			c-3.8,1.8-7.7,3.6-11.5,5.5c-1.8,0.8-3.7,1.6-5.4,2.5c-0.1,0-0.2,0.1-0.2,0.1c0.5,0,1,0,1.5,0c-3.1-1.5-6.4-2.8-9.5-4.3
			c-2.8-1.4-5.6-3.1-8.9-3c-5.7,0.3-10.2,5.1-10.5,10.7c0.1-0.4,0.3-0.7,0.4-1.1c-1.3,1.4-2.6,2.7-4,4.1c-0.4,0.4-1,1.2-1.2,1.4
			c-0.6,0.7-1.1,1.1-1.5,2.1C502,348.5,504.9,349.2,505.6,347.4z"/>
	</g>
</g>
<g>
	<g>
		<path class="st3" d="M882.2,285.6c-4.4-5.7-10.2-10-16.4-13.7c-25.3-14.9-56-17.4-85.3-15.9c-29.3,1.5-58.5,6.7-87.8,5.9
			c-6.6-0.2-13.3-0.7-19.7,0.8c-6.4,1.4-12.8,5.2-15.5,11.2l-123.6,62.6c1.2,0.5,2.3,1,3.5,1.6c0.3,0.1,0.6,0.3,0.9,0.5
			c1.1,0.2,2.2,0.6,2.9,1.5c0.5,0.6,0.7,1.3,0.7,2c0.2,0.4,0.3,0.8,0.3,1.1c0.1,1.4-1.2,2.4-2.5,2.5c-0.1,0-0.2,0-0.4,0
			c-1.4,0.8-3.5,0.5-5,0.5c-0.6,0-1.2,0-1.8,0c-1.5,0.1-3,0.2-4.6,0.3c-3.2,0.3-6.3,0.9-9.2,1.8c-3.2,1-7.5,4.4-11,3.9
			c-1-0.1-1.9-0.5-2.5-1.1l-43.6,22.1c-1.3-0.9-2.7,1.5-1.8,2.7c0.9,1.3,2.6,1.4,4.2,1.5c18.7,0.7,38.9,1,54.1-10
			c3.4-2.5,6.6-5.5,10.5-7.2c5.7-2.3,12.2-1.3,18.2-0.2c13.1,2.4,26.2,4.7,39.3,7.1c11.3,2,22.6,4.1,33.9,6
			c14.7,2.5,29.5,4.8,44.3,6.9c9.3,1.3,19,2.5,28.1,0.1c8-2.2,15-7,22.5-10.3c15.4-6.7,33-6.7,49.5-3.2
			c16.4,3.5,31.9,10.4,47.3,17.2c5.7,2.5,11.7,5.2,16,9.8c4.5,4.7,6.8,11,9.6,16.9s6.4,11.9,12.3,14.7c5.9,2.8,14.3,0.9,16.4-5.3
			c1.4-4-0.2-8.4-1.7-12.3c-9.6-25.7-13.2-57.3,4.3-78.5c5.8,4.3,12.4,7.7,19.3,10C893.3,321.3,893.6,300.3,882.2,285.6z
			 M778.1,308.8c0,0.9-0.3,1.8-1,2.8c-2.8,3.7-2.2,10.7-2.5,15.1c-0.3,3.9-0.7,7.8-1.1,11.6c-0.2,2.1-1.3,6.6-0.9,7.8
			c1.3,3.5-2,6.6-5.2,6.8c-4.4,0.3-9,1.2-13.1-0.9c-9.2,1.7-17.9,0-26.9-2.2c-5-1.2-9.9-1.1-14.9-2c-1-0.2-2.1-0.4-3.1-0.7
			c-0.6,0.2-1.2,0.3-1.8,0.3c-3.9-0.1-7.7-1.2-10.6-3.9c-2.6-2.5-4.8-6.7-3.8-10.3c0.2-0.8,0.6-1.4,1.1-2c0.1-2.5,0.4-5.1,0-7.6
			c-0.4-2.3-1.4-4.3-2.4-6.4c-0.1-0.2-0.2-0.4-0.2-0.6c-1.7-2.1-3.2-4.4-4.7-6.6c-1.6-2.4-2.9-4.6-2.7-7.6c0.1-2.4,1.6-4.4,3.7-5.1
			c0.7-0.9,1.5-1.7,2.4-2.3c3.4-2.5,6.9-5.1,10.5-7.5c0.3-1.2,1.1-2.2,2.6-2.9c4.4-2,8.7-4.4,13.3-5.7c4.9-1.5,10.4-1.9,15.5-2.3
			c4.8-0.4,10.1-0.5,14.7,1.2c4.7,1.7,8.3,5.3,11.8,8.7c0.8,0.8,1.3,1.6,1.5,2.5c0.1,0.1,0.1,0.1,0.2,0.2c2.2,2.5,5.1,4.2,7.3,6.6
			c1.1,1.2,2,2.5,3,3.8c0.1,0.1,0.6,0.6,1,1.1C776.7,298.5,780.9,304.9,778.1,308.8z M855.5,277.6
			C855.5,277.6,855.5,277.6,855.5,277.6c-0.2,0.1-0.4,0.1-0.6,0c-0.1,0-0.3,0-0.4-0.1c-0.1,0-0.2,0-0.4,0c0,0-0.1,0-0.1,0
			c-0.2,1.3-1,2.4-2.7,2.7c-0.3,0.1-0.6,0.1-0.9,0.2c0,0,0,0,0,0c-0.1,0.1-0.2,0.3-0.3,0.4c-0.2,0.6-0.5,1.1-0.9,1.5
			c-0.1,0.1-0.3,0.3-0.4,0.4c0,2.6-1,5.2-2.8,7.2c-0.4,0.4-0.8,0.8-1.2,1.2c0,0,0,0.1,0,0.1c0.2,1.7-0.7,4-1.2,5.7
			c-1,3.9-2.4,7.7-3.2,11.6c-0.2,0.8-0.4,1.6-0.6,2.4c0.6,1,0.7,2.2-0.1,3.5c-1.9,3.3-3.2,6.7-4.2,10.3c-0.5,1.6-1.6,2.4-2.9,2.6
			c-1.1,1.5-2.3,3-3.3,4.7c-1.8,2.9-3,6.3-3.8,9.7c0.3,0.8,0.4,1.6,0.1,2.4c-0.8,2.1-0.3,4.2-0.1,6.3c0.2,2.2-0.1,4.5-1.2,6.5
			c-0.9,1.6-2.1,2.5-3.4,2.8c-0.7,0.3-1.4,0.4-2.2,0.2c-2.1-0.2-4.3-1.4-6.2-2.7c-0.4-0.3-0.8-0.7-1.1-1.1c-0.3-0.1-0.7-0.3-1-0.5
			c-0.8,0-1.5-0.2-2.2-0.5c-1.8-0.8-3-2.5-4-4.2c-0.8-0.4-1.6-0.8-2.3-1.2c-2-1-4-2-5.8-3.3c-2-1.5-4.1-3.2-5.9-5.2
			c-1.2-0.7-2.2-1.5-3.2-2.3c-1.9-1.6-3.4-3.8-3.5-6.4c0-1,0.4-1.9,1.1-2.6c-0.5-4.3,0.2-9,0.5-13.1c0.2-1.9,0.4-3.8,0.7-5.6
			c0-0.1,0-0.2,0-0.2h0c0.2-1.3,0.4-2.5,0.7-3.7c0.1-2.4,0.5-5.1,2-7.1c0.8-2.1,1.7-4.2,2.9-6.2c0.5-0.8,1.1-1.3,1.8-1.5
			c1.1-1.9,2.5-3.7,3.9-5.2c0-0.6,0.2-1.2,0.5-1.7c2.5-3.4,6.5-4.5,10.6-4.4c0.6,0,1,0.1,1.5,0.3c1.4,0.1,3.1,0.7,4.3,0.5
			c1.7-0.2,2.9-1.3,4.3-2.2c2.1-1.3,4.3-2.9,6.7-4c0.3-0.3,0.8-0.6,1.3-0.8c0,0,0.1,0,0.2,0c0.5-0.6,1.2-1.2,2-1.5
			c3.6-1.4,7.7-1.5,11.5-0.9c0,0,0.1,0,0.2,0c0.6-0.2,1.2-0.3,1.9-0.2c2.7,0.4,5.5,0.3,8.3,0.5c1.6,0.1,2.8,1.2,3.3,2.5
			c0.2,0.1,0.4,0.1,0.6,0.2c0.1,0,0.2,0,0.3,0c0.2,0,0.4,0.1,0.5,0.2c0.1,0,0.3,0,0.4,0c0.5,0,0.8,0.4,0.8,0.8
			C856.4,277.2,856,277.6,855.5,277.6z"/>
	</g>
	<g>
		<path class="st3" d="M883.3,284.5c-5.8-7.4-13.8-12.7-22.2-16.9c-8.3-4.2-17.2-7.3-26.3-9.4c-18.8-4.4-38.4-4.7-57.6-3.6
			c-21.8,1.3-43.4,4.5-65.2,5.5c-5.4,0.2-10.9,0.4-16.3,0.3c-5.4-0.1-10.8-0.5-16.2-0.2c-8.3,0.5-17.2,3.3-22,10.6
			c-0.3,0.4-0.6,0.9-0.8,1.4c0.5-0.9-0.8,1.4,0.1,0.3c0,0,0,0-0.1,0c-0.1,0.1-0.3,0.1-0.4,0.2c-0.4,0.3-1,0.5-1.5,0.8
			c-2,1-4.1,2.1-6.1,3.1c-7.1,3.6-14.2,7.2-21.3,10.8c-19.1,9.7-38.2,19.4-57.3,29c-12.1,6.1-24.5,11.9-36.3,18.4
			c-0.2,0.1-0.4,0.2-0.5,0.3c-0.9,0.5-1,2.1,0,2.6c1.6,0.7,3.1,1.6,4.8,2.3c1.3,0.5,2.3,0.7,2.6,2.4c0.2,1.2-0.4,1.6-1.5,1.8
			c-3.7,0.8-7.7,0.4-11.5,0.8c-3.7,0.4-7.5,1-10.9,2.5c-2.7,1.2-7.5,4.8-10.4,2.5c-0.6-0.5-1.2-0.6-1.8-0.2
			c-12.7,6.4-25.4,12.9-38.2,19.3c-1.8,0.9-3.6,1.8-5.4,2.8c0.5,0,1,0,1.5,0c-2.7-1.1-5.2,1.7-4.1,4.4c1.4,3.3,6.6,2.7,9.5,2.8
			c8.7,0.3,17.4,0.3,26-0.9c8.2-1.2,16.3-3.6,23.3-8.2c3.7-2.4,6.9-5.8,10.9-7.7c4.3-2.2,9.3-2,14-1.4c10.3,1.4,20.5,3.6,30.8,5.5
			c10.4,1.9,20.8,3.8,31.1,5.6c20.6,3.7,41.3,7.1,62,9.9c9.6,1.3,19.6,2.3,29-0.8c8.8-3,16.5-8.6,25.3-11.5
			c18.4-6.2,38.3-3.6,56.5,2.1c9.7,3,19,7,28.3,11c8,3.5,17.3,6.6,22.9,13.7c5.3,6.7,7.2,15.5,12.2,22.5c4.2,5.9,10.4,10.3,17.9,9
			c3-0.5,5.9-2,7.8-4.5c2.4-3.2,2.5-7.3,1.5-11c-1-4.1-2.8-8.1-4.1-12.2c-1.2-3.9-2.3-7.9-3.1-11.9c-3.4-15.7-3.9-33.1,3.1-47.9
			c1.7-3.6,3.8-7,6.4-10.1c-0.6,0.1-1.2,0.2-1.8,0.2c6,4.4,12.6,7.8,19.6,10.1c0.8,0.3,1.6-0.3,1.8-1c5.6-17.8,6.2-39.1-5.5-54.6
			c-1.2-1.5-3.8,0-2.6,1.5c11.4,14.9,10.6,35.2,5.2,52.3c0.6-0.4,1.2-0.7,1.8-1c-6.8-2.3-13.1-5.6-18.9-9.8
			c-0.5-0.4-1.4-0.2-1.8,0.2c-12.2,14.9-14.3,34.5-11.7,53c1.4,9.7,4.2,19,7.5,28.3c1.7,4.7,3.1,10.7-1.8,13.9
			c-3.5,2.3-8.4,2.2-12,0.2c-9.2-5-11.5-16.6-16.4-25c-2.5-4.3-5.8-7.8-10-10.5c-4.5-2.9-9.4-4.9-14.3-7
			c-20.9-9.2-42.8-18.3-66.1-18.1c-10.8,0.1-21.5,2.3-31.2,7c-5.1,2.5-9.9,5.4-15.2,7.5c-5.6,2.2-11.4,2.9-17.4,2.8
			c-6.3-0.2-12.5-1.2-18.7-2.1c-6.3-0.9-12.6-1.9-18.8-2.8c-12.2-1.9-24.4-4-36.6-6.1c-12.2-2.2-24.4-4.4-36.6-6.6
			c-6.1-1.1-12.3-2.2-18.4-3.3c-5.4-1-11-2.2-16.6-1.5c-5.3,0.7-9.2,3.4-13.3,6.6c-4.2,3.3-8.6,6-13.6,7.8
			c-9.7,3.5-20.1,4.2-30.3,4.2c-2.6,0-5.1-0.1-7.7-0.1c-1.2,0-2.3-0.1-3.5-0.1c-1.2,0-3.5,0.2-3.4-1.5c-0.1,0-0.2,0-0.4,0
			c0.2,0.1,0.5,0.2,0.8,0.2c0.6-0.1,0.2,0,0.8-0.2c0,0,0.1-0.1,0.1-0.1c0.4-0.1,0.7-0.4,1-0.5c3.9-2,7.8-4,11.7-5.9
			c9.6-4.9,19.1-9.7,28.7-14.5c0.6-0.3,1.3-0.7,2-1c-0.6-0.1-1.2-0.2-1.8-0.2c3.8,3.1,8.2,0.9,12-1c5.2-2.6,11-3.2,16.7-3.4
			c3.2-0.1,9.8,0.8,10.8-3.5c0.4-1.8-0.4-4.4-1.8-5.6c-0.9-0.8-2.1-1-3.2-1.5c-1.3-0.6-2.6-1.3-3.9-1.9c0,0.9,0,1.7,0,2.6
			c9.8-5,19.7-10,29.5-15c18.9-9.6,37.9-19.2,56.8-28.8c12.2-6.1,24.3-12.3,36.4-18.5c0.2-0.1,0.6-0.2,0.8-0.4
			c0.8-0.6,1.2-1.9,1.8-2.8c1.3-1.9,3-3.5,4.8-4.7c8.6-5.7,19.3-4.5,29.1-4.2c21.7,0.5,43.2-2.2,64.8-4.3
			c19.7-1.9,39.6-3.1,59.3-0.7c18.6,2.2,37.6,7.6,53,18.7c3.8,2.7,7.2,5.9,10.1,9.5C882.3,288.2,884.5,286,883.3,284.5z"/>
		<path class="st3" d="M776.6,308.8c0,1-0.6,1.6-1.1,2.4c-0.5,0.8-0.8,1.6-1.1,2.4c-0.6,1.7-0.8,3.6-1,5.5c-0.3,4-0.3,8-0.7,12
			c-0.3,4-0.9,7.9-1.5,11.9c-0.1,0.7-0.2,1.5-0.2,2.2c0,0.7,0.2,1.3,0.4,2c0.3,1.7-1,3.1-2.4,3.8c-1.7,0.8-4,0.7-5.9,0.8
			c-2.1,0.2-4.3,0.2-6.4-0.4c-1.1-0.3-1.9-0.9-3.1-0.8c-1.3,0.2-2.6,0.4-3.9,0.5c-2.4,0.2-4.9,0.1-7.3-0.1c-5-0.4-9.8-1.5-14.6-2.6
			c-4.9-1.1-9.9-1.2-14.9-2c-1-0.2-2.1-0.5-3.1-0.7c-0.7-0.1-1.1,0.2-1.7,0.2c-0.5,0.1-1.1,0-1.7,0c-2-0.2-4.1-0.7-5.9-1.6
			c-3.3-1.8-6.4-5.7-6-9.7c0.1-1.1,0.6-1.6,1.1-2.5c0.5-1,0.3-2.5,0.3-3.6c0.1-2.3,0.1-4.6-0.6-6.8c-0.6-2-1.5-4.1-2.5-5.8
			c-1.3-2.1-2.9-4-4.3-6.1c-1.9-2.7-4.7-7.6-1.2-10.4c0.7-0.5,1.4-0.6,2-1.3c0.9-1,1.7-1.7,2.8-2.5c2-1.5,4-2.9,6-4.4
			c0.9-0.6,1.8-1.3,2.8-1.9c0.5-0.3,1-0.6,1.3-1.1c0.2-0.4,0.3-0.8,0.5-1.1c0.5-0.8,1.4-1.1,2.2-1.5c1.1-0.5,2.2-1,3.3-1.6
			c4.3-2.1,8.6-3.9,13.3-4.7c4.6-0.9,9.3-1.3,13.9-1.5c4.5-0.2,9.1,0.1,13.2,2.2c1.9,1,3.6,2.3,5.2,3.7c0.8,0.7,1.5,1.4,2.3,2.1
			c0.8,0.8,1.8,1.5,2.4,2.4c0.5,0.8,0.7,1.5,1.3,2.2c0.7,0.8,1.5,1.5,2.4,2.2c1.7,1.4,3.5,2.7,4.9,4.4c1.3,1.5,2.4,3.1,3.7,4.5
			c0.3,0.4,1,0.6,1.5,0.4c3.5-1.3,6.7,2.9,4.6,6c-1.1,1.6,1.5,3.1,2.6,1.5c3.5-5.2-2-12.7-8-10.4c0.5,0.1,1,0.3,1.5,0.4
			c-1.8-1.9-3.2-4.2-5.2-6c-1-0.9-2.1-1.8-3.1-2.6c-1-0.8-2.3-1.7-3-2.8c0.2,0.4-0.1-0.3-0.1-0.4c-0.1-0.3-0.3-0.6-0.5-0.9
			c-0.4-0.6-0.9-1.1-1.4-1.6c-1-1-2-1.9-3-2.8c-2-1.8-4.2-3.6-6.6-4.8c-5.2-2.7-11.2-2.9-16.8-2.5c-6,0.4-12.3,0.9-18.1,2.9
			c-3.1,1-6.1,2.5-9.1,3.9c-2.7,1.3-5.6,2.2-6.6,5.3c0.2-0.3,0.5-0.6,0.7-0.9c-2.5,1.6-4.8,3.4-7.2,5.1c-2.2,1.6-4.5,3.1-6.2,5.2
			c0.3-0.2,0.6-0.5,0.9-0.7c-2.8,1-4.5,3.4-4.8,6.4c-0.3,3.4,1.4,6.3,3.2,9c1.1,1.6,2.2,3.1,3.3,4.7c1,1.3,1.7,2.6,2.3,4.1
			c0.8,1.6,1.3,3.3,1.4,5.1c0.1,2.1-0.1,4.1-0.2,6.2c0.2-0.4,0.3-0.7,0.4-1.1c-2.9,3.7-1.8,8.6,0.8,12.1c2.7,3.7,6.7,5.9,11.2,6.4
			c1.2,0.1,2.3,0.3,3.5,0.1c1.2-0.2,2.2,0.2,3.4,0.4c2.7,0.5,5.4,0.7,8.1,0.9c5.6,0.6,10.9,2.2,16.4,3.1c6,1,12,1.2,18.1,0.1
			c-0.4,0-0.8-0.1-1.2-0.1c4.4,2.1,9.5,1.6,14.2,1c3.8-0.4,7.4-3.9,6.5-8c-0.2-0.7-0.3-1-0.2-1.7c0.1-0.9,0.2-1.8,0.4-2.7
			c0.3-2,0.6-4,0.8-6c0.5-4.7,0.8-9.4,1-14.1c0.1-2.3,0.2-4.6,0.8-6.8c0.7-2.2,2.4-3.8,2.5-6.3C779.7,306.8,776.7,306.9,776.6,308.8
			z"/>
		<path class="st3" d="M855.5,276.1c-0.5,0-1,0-1.5,0c-0.6,0-1.3,0.5-1.5,1.1c-0.2,1-0.6,1.4-1.6,1.7c-0.8,0.2-1.2,0.2-1.8,0.9
			c-0.3,0.4-0.4,0.7-0.6,1.1c-0.2,0.4-0.6,0.7-0.9,1.1c-0.4,0.5-0.3,1.1-0.3,1.7c-0.1,1.3-0.5,2.6-1.2,3.7c-0.7,1.1-1.6,1.9-2.4,2.9
			c-0.7,0.9-0.4,2-0.6,3.1c-0.6,2.5-1.4,5-2.2,7.5c-0.9,3-1.6,5.9-2.3,8.9c-0.2,0.6-0.4,1.1-0.3,1.8c0.2,0.8,0.6,1,0.3,1.9
			c-0.4,1.3-1.4,2.6-2,3.9c-0.5,1.2-1,2.4-1.5,3.7c-0.5,1.3-0.7,2.7-1.3,4c-0.5,1.1-1.2,0.9-2.1,1.4c-0.5,0.3-1,1.1-1.3,1.6
			c-0.4,0.6-0.9,1.2-1.3,1.8c-1.6,2.3-2.8,4.7-3.8,7.3c-0.5,1.2-0.8,2.5-1.1,3.8c-0.1,0.5-0.3,1.1-0.2,1.6c0.1,0.4,0.3,0.6,0.2,1
			c0,0.4-0.2,0.9-0.3,1.3c-0.7,2.7,0.2,5.4,0,8.1c-0.2,2.3-1.1,5-3.5,5.8c-2.3,0.8-5.6-1-7.3-2.6c-0.9-0.9-1.6-1.5-2.9-1.6
			c-1.4-0.2-2.5-0.9-3.4-2c-0.8-0.9-1.2-2.1-2.3-2.7c-1.3-0.7-2.6-1.3-3.9-2c-2.5-1.3-4.8-2.9-6.9-4.8c-1.1-1-2-2.2-3.2-3
			c-1.2-0.8-2.4-1.7-3.4-2.8c-0.9-1-1.6-2.1-1.9-3.3c-0.1-0.6-0.2-1.2,0-1.8c0.2-0.7,0.8-1,1-1.7c0.1-0.7-0.1-1.6-0.1-2.4
			c0-0.7,0-1.5,0-2.2c0-1.6,0.2-3.1,0.3-4.7c0.3-3.2,0.5-6.4,1.1-9.5c0.1-0.7-0.2-1.7-1-1.9h0c0.3,0.6,0.7,1.2,1,1.9
			c0.2-1.6,0.6-3.2,0.7-4.9c0.1-1.4,0.3-2.9,0.9-4.2c0.3-0.6,0.7-1.1,0.9-1.7c0.3-0.7,0.6-1.5,0.9-2.2c0.6-1.3,1.3-3.3,2.3-4.2
			c0.5-0.5,1-0.6,1.4-1.2c0.5-0.7,0.9-1.4,1.3-2c0.8-1.2,2.3-2.4,2.7-3.8c0.6-2.5,3.7-3.8,5.9-4.3c1.2-0.3,2.8-0.5,4.1-0.3
			c1.4,0.3,2.8,0.7,4.3,0.8c2.9,0.2,5.4-1.9,7.7-3.4c1.4-0.9,2.8-1.8,4.3-2.6c0.6-0.3,1.1-0.7,1.8-1.1c0.6-0.3,1-0.8,1.5-1.2
			c1.1-0.8,2.7-1.1,4.1-1.3c1.6-0.3,3.3-0.3,5-0.2c0.8,0,1.6,0.2,2.4,0.2s1.5-0.2,2.4-0.1c1.8,0.2,3.6,0.3,5.5,0.3
			c1.5,0,3.4-0.2,4.4,1.2c0.5,0.7,0.6,1.2,1.4,1.5c0.3,0.1,0.6,0.1,0.8,0.2c0.1,0.1,0.2,0.2,0.4,0.2c0.7,0.2,0.8-0.2,0.4-1.2
			c-1.9,0.4-1.1,3.3,0.8,2.9c1.6-0.3,2.4-2.1,1.6-3.5c-0.8-1.3-2.2-1.1-3.4-1.5c0.3,0.2,0.6,0.5,0.9,0.7c-2.1-4.6-7.9-3.2-12-3.6
			c-0.6-0.1-1.2-0.2-1.7-0.2c-0.2,0-0.6,0-0.8,0.1c-0.1,0-0.8,0.2-0.1,0.1c-1.1,0.1-2.4-0.3-3.5-0.3c-2.4-0.1-4.9,0.1-7.3,0.8
			c-1,0.3-2.1,0.6-3,1.3c-0.3,0.2-0.7,0.5-1,0.8c0.2-0.3,0.3-0.1-0.1,0.1c-0.4,0.2-0.7,0.3-1,0.6c-2,1.3-4.2,2.5-6.2,3.8
			c-1.9,1.2-3.6,2.8-6,2.4c-2.2-0.4-4.1-0.9-6.4-0.7c-4.1,0.4-10.1,2.7-10.4,7.5c0.2-0.4,0.3-0.7,0.4-1.1c-0.8,0.9-1.6,1.8-2.3,2.8
			c-0.5,0.7-1.2,1.9-1.7,2.4c-0.8,0.8-1.5,1.3-2.1,2.3c-0.7,1.1-1.2,2.3-1.8,3.5c-0.5,1.1-0.9,2.1-1.4,3.1c-0.5,1-0.9,2-1.2,3.1
			c-0.2,1-0.3,2.1-0.4,3.1c-0.1,1.4-0.4,2.7-0.6,4.1c-0.1,0.7,0.2,1.7,1,1.9h0c-0.3-0.6-0.7-1.2-1-1.9c-0.6,3.2-0.8,6.4-1.1,9.6
			c-0.3,3.2-0.6,6.5-0.2,9.7c0.2-0.4,0.3-0.7,0.4-1.1c-2,2.2-1.8,5.1-0.4,7.6c0.6,1.2,1.6,2.3,2.6,3.2c1.2,1.1,2.6,1.9,3.7,2.9
			c1.2,1.1,2.3,2.3,3.5,3.3c1.2,1,2.5,2,3.8,2.8c1.4,0.9,2.8,1.6,4.3,2.3c0.6,0.3,1.5,0.6,2,1c0.4,0.4,0.8,1.1,1.2,1.6
			c0.9,1.1,1.9,2.1,3.2,2.8c0.7,0.3,1.3,0.5,2.1,0.6c0.8,0.2,1,0.4,1.6,1c2.2,1.9,5.5,3.5,8.4,3.5c2.8,0,5.2-2.2,6.3-4.6
			c1.4-3,1-6,0.8-9.2c-0.1-2,0.7-3.7,0.5-5.6c0-0.1-0.2-0.4-0.2-0.4c0-0.5,0.3-1.2,0.4-1.7c0.2-0.9,0.5-1.7,0.8-2.5
			c1.3-3.5,3.4-6.4,5.5-9.4c-0.3,0.2-0.6,0.5-0.9,0.7c3.8-0.7,4.2-4.9,5.3-7.9c0.7-1.8,1.5-3.6,2.5-5.3c1-1.8,1.3-3.5,0.3-5.5
			c0,0.4,0.1,0.8,0.2,1.2c0.8-2.8,1.4-5.7,2.2-8.5c0.8-2.6,1.5-5.2,2.3-7.8c0.3-1.1,0.5-2.2,0.6-3.3c0-0.2-0.3,0.1,0,0
			c0.3-0.1,0.5-0.5,0.7-0.8c0.4-0.5,0.8-0.9,1.1-1.4c1.4-2,2.1-4.4,2.1-6.9c-0.2,0.4-0.3,0.7-0.4,1.1c0.8-0.7,1.4-1.7,1.9-2.6
			c-0.3,0.2-0.6,0.5-0.9,0.7c2.2-0.4,4.2-1.5,4.6-4c-0.5,0.4-1,0.7-1.5,1.1c0.5,0,1.2,0,1.5,0C857.5,279.2,857.5,276.2,855.5,276.1z
			"/>
	</g>
</g>
<g>
	<g>
		<path class="st3" d="M865.8,428.5c-0.7-0.6-1.7-0.8-2.6-0.9c-7.7-1-15.3,1.6-23,2.1c-7.7,0.5-16.8-2.2-19.3-9.5
			c-0.6-1.9-0.8-4-2.1-5.5c-1.3-1.6-3.6-2.1-5.6-2.5c-33.2-6.5-67.5-10.4-100.8-4.9c-37.4,6.1-72.5,23.8-110.2,27.1
			c-7.5,0.6-15.2,0.7-22.3,2.9c-4.1,1.2-8,3.1-12.1,4.2c-6,1.6-12.4,1.5-18.5,2.3c-18.6,2.6-35.4,15-43.6,31.8l-3.7,2.4
			c6.7,6.5,16.5,8.1,25.7,9.5c7.9,1.1,16.2,2.3,23.7-0.5c3.2-1.1,6.1-2.9,9.3-3.9c9.7-2.9,20.2,2.4,30.2,1c7.3-1,13.6-5.5,20.5-8.2
			c14.1-5.4,29.8-3.1,44.8-0.6c17.1,2.8,34.2,5.6,51.2,8.4c7.9,1.3,15.8,2.6,23.8,2c9-0.6,17.6-3.5,26.2-6c11.4-3.3,23-5.9,34.7-7.5
			c14.3-1.9,30.2-2.8,40-13.3c3.5-3.7,5.8-8.4,9.3-12c5.3-5.4,12.8-8.1,19.9-10.8C864.6,434.9,868.5,430.9,865.8,428.5z
			 M738.5,447.9c-0.6,4.4,0.5,10.2-3.8,13.1c-1.4,0.9-2.7,0.7-3.8,0c-0.1,0-0.2,0-0.2,0c-2.6,0.4-5.5-0.6-7.8-1.9
			c-2.3-1.3-4.2-3.2-6.8-3.8c-2.9-0.7-6.3-0.1-9.2,0.3c-4.6,0.7-9.1,2.4-13.5,0.2c-2.3-1.1-2.2-4.2-0.8-5.9c0.1-0.1,0.2-0.2,0.2-0.3
			c0.2-1,0.8-1.9,1.7-2.8c0.8-0.7,1.8-1.4,2.9-1.9c4-3.8,8.7-6.4,14.6-7.1c4.1-0.5,7.9,0.2,12,0.4c3.8,0.2,7.5,0,11.3,0.8
			c1.5,0.3,2.9,2.1,2.7,3.6c-0.1,0.9-0.3,1.8-0.5,2.7C738.2,446,738.6,446.9,738.5,447.9z"/>
	</g>
	<g>
		<path class="st3" d="M866.6,427.3c-2.4-1.7-6.3-1.5-9.1-1.3c-3.4,0.2-6.8,0.8-10.2,1.4c-5.8,1-11.5,1.6-17.2-0.4
			c-2.3-0.8-4.4-2.1-6-4c-1.8-2.1-2-4.7-3-7.2s-3.2-3.8-5.7-4.5c-3.3-0.9-6.8-1.4-10.1-2c-28.4-5.1-57.5-8.1-86.3-4.4
			c-27.2,3.5-52.8,13.4-79.1,20.7c-13.3,3.7-26.7,6.5-40.5,7.5c-6.9,0.5-14,0.8-20.7,3c-3.3,1.1-6.5,2.5-9.8,3.6
			c-3.5,1.1-7.1,1.6-10.8,1.9c-6.2,0.5-12.3,1-18.3,3c-5.3,1.7-10.3,4.1-14.9,7.1c-4.6,3.1-8.8,6.7-12.4,10.9
			c-1.7,2-3.3,4.1-4.8,6.3c-0.7,1.1-1.4,2.3-2.1,3.5c-0.3,0.6-0.7,1.2-1,1.9c-0.2,0.5,0.3,0-0.2,0.4c-0.9,0.9-2.3,1.5-3.4,2.1
			c-0.8,0.5-1,1.7-0.3,2.4c8.6,8.2,21.8,9.5,33.1,10.8c6.7,0.7,13.4,0.6,19.6-2.1c3-1.3,5.8-2.9,9-3.5c3.2-0.7,6.5-0.5,9.7-0.1
			c6.3,0.8,12.6,2.4,19,1.4c6.2-0.9,11.6-4.1,17.2-6.7c12.7-5.9,26.6-5.2,40.1-3.2c14.4,2.1,28.8,4.7,43.1,7
			c7.2,1.2,14.4,2.4,21.6,3.5c7.1,1,14.2,1.7,21.4,0.8c6.9-0.9,13.5-2.9,20.2-4.8c6.9-2,13.8-3.9,20.9-5.4
			c6.7-1.4,13.5-2.5,20.2-3.3c5.7-0.7,11.4-1.4,16.9-2.6c5.2-1.2,10.5-3,15-6.1c4.9-3.3,8-7.9,11.5-12.6c3.8-5.2,8.7-8.6,14.6-11.2
			c4.6-2,11.2-3.1,13.8-8c1-1.9,0.8-3.8-0.7-5.3c-1.4-1.4-3.5,0.8-2.1,2.1c3.2,3.2-9.7,7.4-11.2,8c-5.2,2.2-10.3,4.9-14,9.2
			c-4,4.4-6.6,9.9-11.2,13.7c-4.2,3.4-9.2,5.5-14.4,6.8c-11.4,3-23.4,3.4-35,5.6c-6.7,1.3-13.4,2.9-20,4.8c-6.5,1.8-13,4-19.7,5.4
			c-14,2.9-28-0.3-41.8-2.5c-14.1-2.3-28.2-4.6-42.2-6.9c-12.5-2-25.5-3.9-38-1.1c-6,1.4-11.4,4.3-17,6.9c-2.8,1.3-5.6,2.4-8.6,3
			c-3.1,0.6-6.3,0.5-9.5,0.1c-6-0.7-12.1-2.3-18.2-1.6c-6.2,0.8-11.3,4.7-17.4,5.8c-6.7,1.2-13.5,0-20.2-1
			c-5.6-0.8-11.4-1.8-16.5-4.2c-2.5-1.2-4.8-2.7-6.9-4.6c-0.1,0.8-0.2,1.6-0.3,2.4c1.1-0.7,2.3-1.4,3.4-2.1c1.6-1.1,2.3-3.6,3.3-5.2
			c2.9-4.7,6.5-9,10.6-12.7c8.3-7.5,18.8-12.5,29.9-14c6.9-0.9,13.8-0.8,20.5-3c3.3-1.1,6.5-2.5,9.8-3.5c3.4-1,6.8-1.6,10.3-1.9
			c6.7-0.7,13.5-1,20.2-1.9c6.6-0.9,13.2-2.2,19.7-3.8c26.2-6.3,51.3-16.5,77.8-21.5c28.3-5.4,57.5-3.7,85.8,0.8
			c6.8,1.1,13.9,2,20.6,3.8c1.4,0.4,2.8,1,3.5,2.3c0.7,1.2,0.8,2.7,1.3,4c0.7,2.2,2,4.2,3.7,5.8c9,8.2,21.4,4.2,32,3
			c1.6-0.2,3.2-0.3,4.7-0.3c1.7,0,3.8,0,5.2,1C866.6,431,868.1,428.4,866.6,427.3z"/>
		<path class="st3" d="M737,447.9c-0.4,3,0,6.1-1,8.9c-0.4,1.3-1.5,3-3,3.3c-0.8,0.1-1.4-0.6-2.2-0.6c-0.9,0-1.8,0.1-2.7,0
			c-1.9-0.3-3.7-1.1-5.3-2.2c-1.5-1-3-2.1-4.7-2.9c-3.7-1.6-7.9-0.9-11.7-0.3c-3.9,0.6-8.6,2.4-12.3,0.4c-1.2-0.6-1.3-2-0.7-3.1
			c0.3-0.6,0.8-1.1,1-1.8c0.4-0.9,1-1.6,1.8-2.1c0.7-0.5,1.5-0.8,2.2-1.3c0.7-0.5,1.3-1.2,2-1.8c1.4-1.1,2.8-2,4.4-2.8
			c3.5-1.8,7.4-2.4,11.3-2.3c2.5,0.1,4.9,0.4,7.4,0.5c2.4,0.1,4.9,0.1,7.3,0.3c1.7,0.1,5.1-0.1,5.7,2.1c0.3,1.1-0.5,2.2-0.4,3.3
			C736,446.4,737,446.8,737,447.9c-0.1,1.9,2.9,1.9,3,0c0.1-1.4-0.5-2.6-1.4-3.6c0.1,0.5,0.3,1,0.4,1.5c0.5-2.1,1-4.2-0.4-6.1
			c-1.4-1.9-3.4-2.2-5.6-2.5c-2.5-0.3-5-0.3-7.5-0.4c-2.5-0.1-5.1-0.4-7.6-0.5c-4.6-0.3-9.1,0.2-13.3,2.1c-1.8,0.8-3.5,1.8-5.2,3
			c-0.8,0.6-1.6,1.3-2.3,1.9c-0.8,0.7-1.8,1.1-2.6,1.7c-0.8,0.6-1.6,1.4-2.1,2.2c-0.5,0.8-0.7,1.5-1.1,2.1c-1,1.4-1.3,3.2-0.9,4.8
			c1.2,4.4,7.2,4.5,10.8,4c4.6-0.6,9.5-2.4,14.2-1.5c2.1,0.4,3.8,1.8,5.5,2.9c1.8,1.2,3.8,2.2,5.9,2.7c1.2,0.3,2.4,0.4,3.6,0.3
			c0.2,0,0.6,0.1,0.2,0c0.2,0.1,0.5,0.2,0.7,0.3c0.6,0.2,1.2,0.3,1.9,0.3c2.2-0.1,4.1-1.9,5.1-3.7c2-3.5,1.4-7.7,1.8-11.5
			C740.2,446,737.2,446,737,447.9z"/>
	</g>
</g>
<g>
	<path class="st2" d="M575.3,438.9c0.8-4.4,4.8-8.1,9.3-8.4c1.8-0.1,3.7,0.2,5.5,0c3.9-0.3,7.3-2.6,10.9-4c5.2-2,10.9-2.1,16.5-2.2
		c11.3-0.2,22.5-0.4,33.8-0.5"/>
	<g>
		<path class="st2" d="M576.7,439.3c0.8-4.2,4.4-7.3,8.7-7.4c2.5,0,4.9,0.3,7.4-0.4c2.3-0.6,4.5-1.8,6.7-2.8
			c4.8-2.2,9.9-2.8,15.1-2.9c5.7-0.1,11.4-0.2,17.1-0.3c6.5-0.1,12.9-0.2,19.4-0.3c1.9,0,1.9-3,0-3c-12.1,0.2-24.2,0.3-36.3,0.6
			c-5.5,0.1-10.9,0.6-15.9,2.9c-2.3,1-4.5,2.3-6.9,3c-2.7,0.7-5.4,0-8.1,0.4c-5,0.6-9.2,4.6-10.2,9.5
			C573.5,440.4,576.3,441.2,576.7,439.3L576.7,439.3z"/>
	</g>
</g>
<g>
	<g>
		<path class="st2" d="M482.4,355.3c3.6-3.2,7.1-6.4,10.7-9.7c1.8-1.6,3.6-3.2,5.4-4.8c1.7-1.5,3.4-3.3,5.2-4.6
			c1.8-1.3,3.4-1,5.4-0.6c1.9,0.3,3.7,0.4,5.5-0.5c1.6-0.9,2.8-2.5,4.7-2.7c2-0.3,4,0.7,5.7,1.7c1.8,1.1,3.4,2.4,5.3,3.2
			c1.9,0.9,4,1.3,6,2c1.5,0.6,3.4,1.7,3.6,3.5c0.2,2-2.9,1.5-4.2,1.6c-4.3,0.3-8.6,0.5-12.8,1.3c-2.1,0.4-4.2,0.9-6.2,1.6
			c-1.9,0.7-3.8,1.8-5.7,2.5c-1.6,0.5-3.8,0.8-4.9-0.8c-1-1.3,0.4-2.5,1.4-3.3c1.4-1.1,3-2,4.1-3.4c1.3-1.7,1.7-3.9,1.3-6
			c-0.4-1.9-3.2-1.1-2.9,0.8c0.8,4.2-4.2,5.3-6.2,8.1c-2.4,3.3,0.2,7.1,3.8,7.9c2.2,0.4,4.3-0.3,6.3-1.2c2.2-1,4.4-2,6.7-2.6
			c4.7-1.2,9.5-1.5,14.3-1.8c2-0.1,4.8,0.1,6.5-1.1c1.7-1.2,1.9-3.5,1.2-5.3c-1.8-4.6-7-4.6-10.8-6.4c-4.1-2-7.5-5.8-12.5-5.2
			c-2.3,0.2-3.7,1.6-5.5,2.8c-1.9,1.2-4,0.4-6.1,0.1c-2.7-0.3-4.8,0.7-6.8,2.5c-2.3,2-4.5,4-6.8,6.1c-4.6,4.1-9.1,8.2-13.7,12.3
			C478.8,354.5,480.9,356.6,482.4,355.3L482.4,355.3z"/>
	</g>
</g>
<g>
	<g>
		<path class="st2" d="M774.8,302.1c-9.9-6.8-14.5-19.7-26-24.4c-7.3-3-15.8-1.5-23.4-0.6c-4.2,0.5-8.3,1.2-12.3,2.5
			c-3.6,1.2-7,2.9-10.2,4.9c-3.2,2-6.2,4.3-9.2,6.7c-1.5,1.2-2.9,2.4-4.3,3.6c-1.3,1.2-2.8,2.3-3.9,3.7c-1,1.3-1.7,2.9-1.5,4.5
			c0.2,2,1.4,3.8,2.3,5.5c2,3.6,4.2,7.2,5.8,11c1.5,3.4,1.5,6.8,1.2,10.4c-0.2,3.1-0.7,6.4,0.3,9.5c1,3.3,3.5,5.4,6.6,6.6
			c3.7,1.4,7.9,1.9,11.8,2.6c17,3.1,34.4,4.9,51.7,5.2c2.1,0,4.2,0,6.4,0c0.7,0,1.2-0.5,1.5-1.1c2.1-5.5,2.2-11.5,2.2-17.3
			c0-5.9,0.4-11.7,1.8-17.5c1.4-5.7,3.5-11.1,6.4-16.2c2.6-4.5,5.6-9.8,3.8-15.2c-0.9-2.6-2.8-4.4-5.1-5.8c-2.2-1.3-4.6-2.2-6.3-4.2
			c-1.2-1.5-3.4,0.7-2.1,2.1c1.5,1.7,3.4,2.8,5.3,3.8c1.9,1,3.8,2.1,4.9,4c2.6,4.9-1.3,10.4-3.6,14.5c-5.5,9.9-8.1,21-8.2,32.2
			c-0.1,6.3,0.2,12.8-2.1,18.8c0.5-0.4,1-0.7,1.5-1.1c-16.4,0-32.8-1.2-49.1-3.7c-4.1-0.6-8.2-1.4-12.3-2.2c-3.2-0.6-7.4-1-10.1-3.1
			c-2.4-1.9-2.7-5-2.6-7.8c0.1-3.2,0.7-6.3,0.4-9.5c-0.3-3.7-1.9-7-3.6-10.2c-0.9-1.7-1.9-3.5-2.8-5.2c-0.9-1.7-2-3.4-2.8-5.2
			c-0.8-1.8,0-3.1,1.3-4.4c1.2-1.2,2.6-2.3,3.9-3.4c2.7-2.4,5.5-4.7,8.5-6.8c2.9-2.1,6-3.9,9.2-5.4c3.5-1.6,7.3-2.6,11.2-3.2
			c3.8-0.6,7.7-1,11.6-1.4c3.7-0.3,7.5-0.6,11.2,0.2c12,2.4,17.2,15.2,25.6,22.6c1.1,1,2.2,1.8,3.4,2.6
			C774.9,305.8,776.4,303.1,774.8,302.1L774.8,302.1z"/>
	</g>
</g>
<g>
	<g>
		<path class="st2" d="M772.6,303.3c2,0.3,4,0.6,6,0.9c0.4,0.1,0.8,0.1,1.2-0.1c0.3-0.2,0.6-0.5,0.7-0.9c0.2-0.7-0.2-1.7-1-1.9
			c-2-0.3-4-0.6-6-0.9c-0.4-0.1-0.8-0.1-1.2,0.1c-0.3,0.2-0.6,0.5-0.7,0.9C771.4,302.2,771.8,303.2,772.6,303.3L772.6,303.3z"/>
	</g>
</g>
<g>
	<g>
		<path class="st2" d="M863.8,278.9c-5.2-6-13.5-7.1-20.9-7.3c-4.2-0.1-8.4-0.1-12.5,0.6c-2.2,0.4-4.3,1.1-6.2,2.3
			c-1.6,1-3.1,2.3-4.6,3.5c-1.4,1.1-2.9,2.3-4.7,2.7c-2.2,0.6-4.3-0.4-6.5-0.7c-2.1-0.4-4.1-0.3-6.1,0.6c-1.9,0.9-3.4,2.5-4.7,4
			c-3.1,3.6-6,7.5-8.5,11.5c-1.2,2-2.4,4-3.1,6.2c-0.7,2.3-0.8,4.7-1,7c-0.4,5.2-0.9,10.4-1.3,15.7c-0.2,2.5-0.5,5-0.6,7.5
			c-0.1,2.2,0.2,4.4,1.5,6.2c1.3,1.7,3.2,2.8,4.9,4c2.1,1.4,4.2,2.9,6.3,4.3c4.3,2.9,8.5,5.8,12.8,8.6c2.1,1.4,4.2,2.8,6.3,4.2
			c1.8,1.1,3.9,2.2,6,1.7c4-1.1,4.8-6.7,5.2-10.1c0.5-4.3,0.2-8.7,1-12.9c0.4-2.1,1.1-4,2.2-5.8c1.1-1.8,2.6-3.4,4-5
			c3-3.3,5.2-6.7,6.4-11c1.2-4.4,1.6-8.9,2.5-13.3c1.1-4.8,2.6-9.5,4.2-14.2c1.2-3.8,2.9-8.3,6.9-9.8c1.7-0.6,3.5-0.6,5,0.4
			c1.6,1,3.1-1.5,1.5-2.6c-3.1-2-7.2-1.3-10.1,0.8c-3.3,2.4-4.9,6.3-6.2,10.1c-1.5,4.6-3,9.2-4.1,13.9c-1,4.2-1.4,8.6-2.4,12.8
			c-0.5,2-1.1,4-2.2,5.9c-1,1.8-2.3,3.3-3.6,4.8c-2.7,3-5.3,6-6.6,9.9c-1.2,4-1.2,8.2-1.4,12.3c-0.1,2-0.3,4.1-0.7,6.1
			c-0.3,1.5-0.9,4.4-2.6,4.8c-1.9,0.5-4.3-1.8-5.8-2.7c-2-1.4-4.1-2.7-6.1-4.1c-4.1-2.7-8.2-5.5-12.2-8.2c-2-1.4-4-2.8-6.1-4.2
			c-1.7-1.1-3.4-2.3-3.8-4.4c-0.4-2.2,0.1-4.6,0.2-6.8c0.2-2.5,0.4-5,0.6-7.5c0.4-5,0.7-10,1.3-15c0.6-4.6,3.4-8.5,5.9-12.2
			c1.3-1.9,2.7-3.7,4.2-5.5c1.3-1.5,2.6-3.2,4.3-4.3c3.8-2.5,7.9,0.6,12,0c3.8-0.6,6.4-3.5,9.3-5.6c3.5-2.6,7.5-3.3,11.8-3.5
			c7.1-0.3,15.4-0.6,21.8,3c1.5,0.9,2.9,2,4,3.3C862.9,282.4,865.1,280.3,863.8,278.9L863.8,278.9z"/>
	</g>
</g>
<g>
	<g>
		<path class="st2" d="M869.6,329.7c2.4-4.9,4.5-10.1,5.2-15.5c0.8-5.9,0.5-11.9,0.5-17.8c0-1.9-3-1.9-3,0c0,5.6,0.3,11.4-0.4,17
			c-0.7,5.2-2.7,10.1-4.9,14.9C866.1,329.9,868.7,331.4,869.6,329.7L869.6,329.7z"/>
	</g>
</g>
<g>
	<g>
		<path class="st2" d="M873.3,301.1c3.1,10.4,10.8,21.5,6.1,32.6c-0.3,0.8,0.3,1.6,1,1.9c0.9,0.2,1.5-0.3,1.8-1
			c4.9-11.7-2.8-23.3-6.1-34.2C875.7,298.5,872.8,299.2,873.3,301.1L873.3,301.1z"/>
	</g>
</g>
<g>
	<g>
		<path class="st2" d="M718.5,454.5c-4-0.8-8-1.6-12.1-1.4c-2,0.1-4,0.5-6,1c-1.6,0.4-3.4,0.9-5,0.4c-4.2-1.4-0.3-5.6,1.6-7.2
			c2.7-2.2,5.9-3.8,9.1-4.9c7.4-2.5,15.3-2.5,23-2c2,0.1,4.2,0.1,6.1,0.5c0.9,0.2,0.6,0.9,0.5,1.6c-0.1,1.1-0.2,2.3-0.3,3.4
			c-0.2,2-0.3,4.1-0.5,6.1c-0.1,1.7-0.1,3.8-1,5.4c-1.6,2.9-5.9,1.8-8.2,0.5c-3.5-1.8-6.5-4.4-10.6-4.6c-1.9-0.1-1.9,2.9,0,3
			c4,0.2,7.1,3.5,10.7,4.9c3,1.2,7,1.5,9.6-0.8c1.5-1.3,2-3.2,2.3-5.1c0.3-2.3,0.4-4.6,0.6-7c0.2-2.3,0.6-4.8,0.5-7.1
			c-0.1-2.1-1.6-3.1-3.6-3.4c-9-1-18.7-1.4-27.6,1c-3.9,1-7.8,2.7-11.1,5c-2.9,2.1-7,5.5-6.1,9.6c0.5,2,2.1,3.3,4,3.9
			c2.3,0.7,4.6,0.1,6.8-0.4c5.5-1.5,10.7-0.6,16.2,0.5C719.6,457.8,720.4,454.9,718.5,454.5L718.5,454.5z"/>
	</g>
</g>
<g>
	<g>
		<path class="st2" d="M770.2,270.1c6.9,0.6,13.9,0.9,20.9,0.8c2.4,0,6.2,0.3,6.7-2.8c0.2-1.3-0.3-2.6-1.3-3.4c-0.5-0.4-1-0.7-1.7-1
			c-0.4-0.1-0.8-0.2-1.1-0.4c-0.1,0-0.2-0.1-0.3-0.1c-0.3-0.3-0.4-0.2-0.3,0.4c1-1.7-1.6-3.2-2.6-1.5c-0.6,1-0.4,2.1,0.4,2.9
			c0.8,0.9,1.9,1,2.9,1.5c0.3,0.1,1.2,0.6,0.9,1.1c-0.2,0.3-1,0.2-1.3,0.2c-1.6,0.1-3.2,0.1-4.7,0.1c-6.2,0-12.4-0.3-18.6-0.8
			C768.2,266.9,768.3,269.9,770.2,270.1L770.2,270.1z"/>
	</g>
</g>
<g>
	<path class="st2" d="M726.6,356.4c-18.4,2.8-37-3.6-55.6-4.4c-12.2-0.5-24.5,1.5-35.9,5.7"/>
	<g>
		<path class="st2" d="M726.2,355c-12,1.8-24.2-0.4-36-2.2c-6-0.9-12.1-1.8-18.2-2.1c-5.8-0.3-11.7,0-17.5,0.8
			c-6.8,0.9-13.4,2.6-19.8,5c-1.8,0.7-1,3.6,0.8,2.9c11.2-4.1,23.1-6.1,35.1-5.7c12.1,0.4,24,3.3,36,4.5c6.8,0.7,13.6,0.8,20.4-0.2
			C728.9,357.6,728.1,354.7,726.2,355L726.2,355z"/>
	</g>
</g>
<g>
	<path class="st2" d="M645.3,355c15.1,0.2,30.1,3,44.2,8.3c1.8,0.7,3.6,1.4,4.8,2.9c1.2,1.5,1.5,3.8,0.2,5.1
		c15.5-1.2,28.1-15.2,43.6-14.8"/>
	<g>
		<path class="st2" d="M645.3,356.5c9.3,0.1,18.5,1.2,27.6,3.3c4.4,1,8.8,2.3,13.1,3.8c2,0.7,4.3,1.3,6,2.5c1.2,0.8,2.6,2.7,1.4,4.1
			c-0.8,0.9-0.3,2.7,1.1,2.6c7.9-0.6,15-4.3,21.9-7.9c6.8-3.5,13.9-7.1,21.7-6.9c1.9,0,1.9-3,0-3c-16.1-0.4-27.9,13.5-43.6,14.8
			c0.3,0.9,0.7,1.7,1.1,2.6c2.2-2.5,1.3-6.2-1.2-8.2c-1.4-1.1-3-1.8-4.6-2.4c-2-0.7-4-1.4-6-2.1c-7.9-2.5-16-4.3-24.3-5.3
			c-4.7-0.6-9.4-0.9-14.1-0.9C643.4,353.4,643.4,356.4,645.3,356.5L645.3,356.5z"/>
	</g>
</g>
<g>
	<g>
		<path class="st2" d="M582.7,334.2c-2.2,3.8-4.5,7.5-6.7,11.3c-1.1,1.8-2.2,3.6-3.2,5.5c-0.8,1.5-1.2,3.4,0.1,4.8
			c1.3,1.4,3.4-0.7,2.1-2.1c-0.4-0.4,1.5-3,1.7-3.4c1-1.6,1.9-3.2,2.9-4.9c1.9-3.2,3.8-6.4,5.7-9.6
			C586.3,334,583.7,332.5,582.7,334.2L582.7,334.2z"/>
	</g>
</g>
<g>
	<g>
		<path class="st2" d="M589.1,336.5c-3.7,4.5-6.9,9.4-9.5,14.7c-0.3,0.7-0.2,1.6,0.5,2c0.7,0.4,1.7,0.2,2-0.5c2.5-5,5.5-9.8,9-14.1
			c0.5-0.6,0.6-1.5,0-2.1C590.7,336,589.6,335.9,589.1,336.5L589.1,336.5z"/>
	</g>
</g>
<g>
	<g>
		<path class="st2" d="M597.2,337.8c-2.8,4-5.5,8-8.3,12c-0.5,0.7-0.1,1.7,0.5,2c0.7,0.4,1.6,0.1,2-0.5c2.8-4,5.5-8,8.3-12
			c0.5-0.7,0.1-1.7-0.5-2C598.5,336.8,597.6,337.1,597.2,337.8L597.2,337.8z"/>
	</g>
</g>
<g>
	<g>
		<path class="st2" d="M605.5,340.4c-0.7,0.5-1.3,1-1.8,1.6s-1,1.3-1.4,2c-0.2,0.4-0.3,0.8-0.2,1.2c0.1,0.4,0.4,0.7,0.7,0.9
			c0.3,0.2,0.8,0.3,1.2,0.1c0.4-0.1,0.7-0.3,0.9-0.7c0.2-0.4,0.5-0.8,0.8-1.2c-0.1,0.1-0.2,0.2-0.2,0.3c0.5-0.6,1.1-1.2,1.7-1.7
			c-0.1,0.1-0.2,0.2-0.3,0.2c0.1,0,0.1-0.1,0.2-0.1c0.3-0.2,0.6-0.5,0.7-0.9c0.1-0.4,0-0.8-0.2-1.2c-0.2-0.3-0.5-0.6-0.9-0.7
			C606.3,340.1,605.8,340.1,605.5,340.4L605.5,340.4z"/>
	</g>
</g>
<g>
	<g>
		<path class="st2" d="M620.3,337.4c-1,1-2.1,2.1-3.1,3.1c-0.3,0.3-0.4,0.7-0.4,1.1c0,0.4,0.2,0.8,0.4,1.1c0.3,0.3,0.7,0.5,1.1,0.4
			s0.8-0.1,1.1-0.4c1-1,2.1-2.1,3.1-3.1c0.3-0.3,0.4-0.7,0.4-1.1c0-0.4-0.2-0.8-0.4-1.1c-0.3-0.3-0.7-0.5-1.1-0.4
			S620.6,337.1,620.3,337.4L620.3,337.4z"/>
	</g>
</g>
<g>
	<g>
		<path class="st2" d="M681.5,292.4c-5.6,3.9-9.6,9.8-11.2,16.5c-0.4,1.9,2.5,2.7,2.9,0.8c1.3-5.9,4.8-11.2,9.8-14.7
			c0.7-0.5,1-1.3,0.5-2C683.2,292.2,682.2,291.9,681.5,292.4L681.5,292.4z"/>
	</g>
</g>
<g>
	<g>
		<path class="st2" d="M666.9,292.9c-2.9,4.2-5.9,8.4-8.8,12.6c-0.5,0.7-0.1,1.7,0.5,2c0.8,0.4,1.6,0.1,2-0.5
			c2.9-4.2,5.9-8.4,8.8-12.6c0.5-0.7,0.1-1.7-0.5-2C668.2,291.9,667.4,292.2,666.9,292.9L666.9,292.9z"/>
	</g>
</g>
<g>
	<g>
		<path class="st2" d="M660,295.4c-3.3,1.4-6,3.7-7.8,6.9c-0.4,0.7-0.2,1.7,0.5,2c0.7,0.4,1.7,0.2,2-0.5c0.2-0.3,0.4-0.7,0.6-1
			c0.1-0.1,0.2-0.3,0.3-0.4c0-0.1,0.1-0.1,0.2-0.2c0.1-0.1-0.2,0.2,0,0c0.5-0.6,1-1.2,1.6-1.7c0.1-0.1,0.3-0.2,0.4-0.4
			c0.1-0.1,0.1-0.1,0.2-0.2c0.1-0.1,0.3-0.3,0,0c0.2-0.2,0.6-0.5,0.9-0.6c0.3-0.2,0.6-0.4,1-0.6c0.2-0.1,0.3-0.2,0.5-0.2
			c0.1,0,0.2-0.1,0.3-0.1c0.1,0,0.4-0.2,0,0c0.4-0.2,0.7-0.3,0.9-0.7c0.2-0.3,0.3-0.8,0.2-1.2C661.7,295.7,660.8,295,660,295.4
			L660,295.4z"/>
	</g>
</g>
<g>
	<g>
		<path class="st2" d="M681.6,271.4c11.6-4.9,24.1-7.4,36.7-7.4c1.9,0,1.9-3,0-3c-12.8,0-25.6,2.6-37.5,7.5c-0.8,0.3-1.3,1-1,1.9
			C679.9,271.1,680.8,271.7,681.6,271.4L681.6,271.4z"/>
	</g>
</g>
<g>
	<g>
		<path class="st2" d="M674.4,268.7c6.5-1.8,13.1-2.9,19.8-3.5c1.9-0.1,1.9-3.1,0-3c-7,0.5-13.9,1.7-20.6,3.6
			C671.8,266.3,672.5,269.2,674.4,268.7L674.4,268.7z"/>
	</g>
</g>
<g>
	<g>
		<path class="st2" d="M790.1,262.5c0,0.2-0.1,0.4-0.2,0.5c-0.1,0.2,0.1-0.2,0,0c0,0.1-0.1,0.2-0.1,0.3s-0.3,0.4-0.1,0.2
			c-0.1,0.1-0.2,0.3-0.4,0.4s-0.3,0.2-0.4,0.4c0.2-0.2-0.2,0.1-0.2,0.2c-0.2,0.1-0.3,0.2-0.5,0.3c-0.1,0-0.2,0.1-0.2,0.1
			c0,0-0.4,0.2-0.2,0.1c0.2-0.1-0.1,0-0.1,0c-0.1,0-0.2,0.1-0.2,0.1c-0.2,0.1-0.4,0.1-0.6,0.2c-0.4,0.1-0.8,0.2-1.2,0.3
			c-0.2,0-0.4,0.1-0.6,0.1c-0.1,0-0.2,0-0.3,0c0,0-0.3,0-0.1,0c0.2,0-0.2,0-0.2,0c-0.1,0-0.2,0-0.3,0c-0.2,0-0.4,0-0.7,0.1
			c-0.8,0.1-1.5,0.6-1.5,1.5s0.7,1.4,1.5,1.5c3.6,0.2,7.3-0.1,10.8-1.1c0.8-0.2,1.3-1.1,1-1.9c-0.2-0.8-1-1.2-1.8-1
			c-2,0.4-4.1,0.2-6-0.2c-0.8-0.2-1.6,0.3-1.8,1c-0.2,0.8,0.3,1.6,1,1.9c2.5,0.6,5.1,0.7,7.6,0.2c-0.3-1-0.5-1.9-0.8-2.9
			c-3.3,0.9-6.6,1.2-10,1c0,1,0,2,0,3c3.7-0.3,8.5-1.3,9.5-5.5c0.2-0.8-0.2-1.6-1-1.9C791.2,261.3,790.3,261.7,790.1,262.5
			L790.1,262.5z"/>
	</g>
</g>
<g>
	<g>
		<path class="st2" d="M874.6,309.4c-1.4,4-2.4,8.2-3.1,12.4c1,0.1,2,0.3,3,0.4c0.3-4.8,1-9.5,2.1-14.2c-1,0-1.9,0-2.9,0
			c1.4,4.9,2.5,9.9,3.2,14.9c0.2,1.7,3.1,1.3,3-0.4c-0.4-3.7-0.8-7.5-1.2-11.2c-1,0-2,0-3,0c0.7,5.9,1.4,11.7,2.1,17.6
			c0.2,1.9,2.9,2,3,0c0.1-4.1,0.1-8.2-0.2-12.2c-0.1-1.4-2.1-2.2-2.8-0.8c-1.5,3-2.5,6.2-3,9.6c1,0.1,2,0.3,3,0.4
			c0.1-2.4-0.1-4.7-0.6-7.1c-0.2-1.1-1.8-1.4-2.5-0.7c-2.1,2.1-2.9,4.9-2.5,7.8c0.3,1.8,2.8,1.2,3-0.4c0.1-1.2,0.2-2.4,0.3-3.6
			c0.1-1.2-1.8-2.1-2.6-1.1c-1.5,2-2.6,4.1-3.1,6.5c-0.4,1.9,2.4,2.7,2.9,0.8c0.5-1.7,0.9-3.4,1.4-5c0.5-1.7-1.8-2.5-2.7-1.2
			c-1.8,2.5-3.5,6.1-0.9,8.8c1.1,1.2,2.8,1.8,4.3,2.5c1.8,0.8,3.6,1.6,5.4,2.3c0.8,0.3,1.6-0.3,1.8-1c1.2-3.9,1.7-7.9,1.3-12
			c-0.1-1.5-2.6-2.2-3-0.4c-0.3,2-0.7,4-1.1,6.1c-0.1,0.5,0,1-0.6,0.7c-0.6-0.4-0.6-1.6-0.7-2.2c-0.1-1.2-1.6-2.1-2.6-1.1
			c-2.3,2.5-1.8,6.4,1,8.2c0.9,0.6,2.3-0.2,2.3-1.3c-0.2-2.6-1.2-5-3.2-6.7c-0.7-0.6-1.9-0.6-2.4,0.3c-1.1,2.3-0.8,4.7,0.8,6.7
			c1,1.3,2.7-0.2,2.5-1.5c-0.2-1.3-0.7-2.5-1.5-3.5c-0.7,0.7-1.4,1.4-2,2c1.5,1.1,3.2,1.8,5,2.1c1.2,0.2,2.1-0.6,1.8-1.9
			c-1-5.3-2.1-10.5-3.1-15.8c-0.3-1.8-2.8-1.2-3,0.4c-0.4,3.7-0.7,7.4-1.1,11.1c-0.2,1.9,2.8,1.9,3,0c0.4-3.7,0.7-7.4,1.1-11.1
			c-1,0.1-2,0.3-3,0.4c1,5.3,2.1,10.5,3.1,15.8c0.6-0.6,1.2-1.2,1.8-1.9c-1.6-0.2-3-0.8-4.3-1.8c-1.2-0.9-2.9,0.9-2,2
			c0.6,0.9,1,1.7,1.2,2.8c0.8-0.5,1.7-1,2.5-1.5c-0.7-0.9-0.8-2.1-0.3-3.1c-0.8,0.1-1.6,0.2-2.4,0.3c1.3,1.2,2.2,2.8,2.3,4.6
			c0.8-0.4,1.5-0.9,2.3-1.3c-1.1-0.8-1.3-2.5-0.4-3.5c-0.8-0.4-1.7-0.7-2.6-1.1c0.1,1.5,0.3,3.1,1.4,4.2c0.9,0.9,2.3,1.4,3.5,1
			c1.4-0.4,2-1.7,2.2-3.1c0.4-2,0.7-3.9,1-5.9c-1-0.1-2-0.3-3-0.4c0.3,3.8,0,7.5-1.2,11.2c0.6-0.4,1.2-0.7,1.8-1
			c-2.5-1-5.1-2-7.5-3.3c-2.5-1.4-0.8-4,0.5-5.8c-0.9-0.4-1.8-0.8-2.7-1.2c-0.5,1.7-0.9,3.4-1.4,5c1,0.3,1.9,0.5,2.9,0.8
			c0.4-1.9,1.2-3.7,2.3-5.2c-0.8-0.4-1.7-0.7-2.6-1.1c-0.1,1.2-0.2,2.4-0.3,3.6c1-0.1,2-0.3,3-0.4c-0.3-1.8,0.4-3.6,1.7-4.9
			c-0.8-0.2-1.7-0.4-2.5-0.7c0.4,2.1,0.6,4.2,0.5,6.3c-0.1,1.6,2.7,2.1,3,0.4c0.5-3.1,1.3-6.1,2.7-8.9c-0.9-0.2-1.9-0.5-2.8-0.8
			c0.2,4.1,0.3,8.2,0.2,12.2c1,0,2,0,3,0c-0.7-5.9-1.4-11.7-2.1-17.6c-0.2-1.9-3.2-1.9-3,0c0.4,3.7,0.8,7.5,1.2,11.2
			c1-0.1,2-0.3,3-0.4c-0.7-5-1.8-10-3.2-14.9c-0.4-1.4-2.5-1.5-2.9,0c-1.2,4.9-1.9,9.9-2.2,15c-0.1,1.7,2.7,2.1,3,0.4
			c0.7-4.2,1.8-8.3,3.1-12.4C878.1,308.4,875.2,307.6,874.6,309.4L874.6,309.4z"/>
	</g>
</g>
<g>
	<g>
		<path class="st2" d="M838.4,342.5c-5.6,9.8-9.6,20.5-11.7,31.6c-0.4,1.9,2.5,2.7,2.9,0.8c2.1-10.9,6-21.3,11.4-30.9
			C842,342.3,839.4,340.8,838.4,342.5L838.4,342.5z"/>
	</g>
</g>
<g>
	<g>
		<path class="st2" d="M837.6,353.7c-2.4,9.1-5.1,18.2-8,27.2c-0.6,1.8,2.3,2.6,2.9,0.8c3-9,5.6-18.1,8-27.2
			C841,352.7,838.1,351.9,837.6,353.7L837.6,353.7z"/>
	</g>
</g>
<g>
	<g>
		<path class="st2" d="M837.7,372c-2.2,5.6-3.1,11.6-2.6,17.6c0.1,1.9,3.1,1.9,3,0c-0.4-5.7,0.4-11.5,2.5-16.8
			c0.3-0.8-0.3-1.6-1-1.9C838.7,370.7,838,371.2,837.7,372L837.7,372z"/>
	</g>
</g>
<g>
	<g>
		<path class="st2" d="M784,342.5c2.6,11.6,9.5,22,19.2,29c1.6,1.1,3.1-1.5,1.5-2.6c-9-6.5-15.4-16.3-17.8-27.2
			C786.5,339.9,783.6,340.7,784,342.5L784,342.5z"/>
	</g>
</g>
<g>
	<g>
		<path class="st2" d="M791.1,356.8c2.6,3.1,5.2,6.2,7.8,9.4c0.5,0.6,1.6,0.6,2.1,0c0.6-0.6,0.5-1.5,0-2.1c-2.6-3.1-5.2-6.2-7.8-9.4
			c-0.5-0.6-1.6-0.6-2.1,0C790.5,355.3,790.6,356.2,791.1,356.8L791.1,356.8z"/>
	</g>
</g>
<g>
	<g>
		<path class="st2" d="M791.6,353.2c3.3,2.8,6.6,5.6,9.9,8.4c0.6,0.5,1.5,0.6,2.1,0c0.5-0.5,0.6-1.6,0-2.1c-3.3-2.8-6.6-5.6-9.9-8.4
			c-0.6-0.5-1.5-0.6-2.1,0C791.1,351.6,791,352.6,791.6,353.2L791.6,353.2z"/>
	</g>
</g>
<g>
	<g>
		<path class="st2" d="M793.4,351.8c3.5,1.3,6.9,3,10,5.2c0.7,0.5,1.7,0.1,2-0.5c0.4-0.7,0.1-1.6-0.5-2c-3.3-2.3-7-4.1-10.7-5.5
			c-0.8-0.3-1.6,0.3-1.8,1C792.2,350.8,792.7,351.6,793.4,351.8L793.4,351.8z"/>
	</g>
</g>
<g>
	<path class="st2" d="M841.1,436.8c-4.7,3.3-11.3,1.9-16.2-1c-4.9-2.9-9.1-7.1-14.3-9.5c-5.2-2.4-12.3-2.4-15.8,2.1
		c-2.9,3.7-2.4,9.4-5.5,12.9c-1.5,1.8-3.8,2.8-5.9,3.9c-6.2,3.2-11.9,7.3-17,12.1c-3.6,3.5-6.9,7.4-11.2,9.8
		c-8.6,4.8-20.8,3.6-26.8,11.4c-0.4,0.6-0.8,1.3-0.6,2c0.3,0.8,1.3,1,2.1,1.1c23.8,2.8,45.9-14,69.8-15.2c6-0.3,12.3,0.4,18-1.8
		c4.9-1.8,8.8-5.5,12.5-9.2c3.8-3.7,7.7-7.4,11.5-11.1c1.1-1.1,2.3-2.3,2.3-3.9c0-1.6-2-3-3.1-1.9"/>
	<g>
		<path class="st2" d="M840.4,435.5c-3.8,2.6-8.7,1.9-12.6,0.1c-4.4-2-8-5.4-12-8.1c-3.6-2.4-7.7-4.3-12.1-4.3
			c-4,0-7.9,1.4-10.3,4.8c-2.5,3.5-2.2,8.2-4.7,11.8c-1.3,2-3.6,3-5.7,4c-2.2,1.1-4.3,2.3-6.4,3.7c-4.3,2.8-8.3,6-12,9.6
			c-3.4,3.4-6.6,7-10.9,9.2c-7.1,3.6-15.8,3.3-22.6,7.8c-1.6,1.1-3.2,2.4-4.2,4c-1.3,2-0.5,4.2,1.8,4.8c2.1,0.6,4.7,0.5,6.8,0.5
			c2.3,0,4.7-0.2,7-0.5c19.1-2.5,36.1-13.3,55.4-14.9c5.2-0.4,10.5,0,15.7-0.8c5.1-0.8,9.4-3.2,13.2-6.5c4.2-3.5,8-7.5,11.9-11.2
			c1.8-1.8,4-3.5,5.5-5.5c1.4-1.7,2.1-4.1,0.5-5.9c-1.3-1.5-3.2-1.8-4.7-0.5c-1.5,1.2,0.7,3.4,2.1,2.1c-0.2,0.1,0.2,0.1,0.3,0.3
			c0.2,0.3,0.3,0.4,0.2,0.9c-0.2,1.1-1.3,1.9-2,2.6c-1.9,1.9-3.8,3.7-5.8,5.5c-3.5,3.4-6.9,6.9-10.6,10c-3.8,3.2-8.1,5.1-13.1,5.5
			c-4.8,0.5-9.7,0.1-14.5,0.6c-17.9,1.9-33.9,11.2-51.6,14.4c-4.3,0.8-8.7,1.1-13,0.8c-0.7,0-2.2,0.1-2.8-0.3c-0.6-0.4-0.1,0,0-0.1
			c0-0.2,0.3-0.4,0.4-0.6c0.3-0.4,0.7-0.8,1.1-1.2c1.2-1.2,2.7-2.1,4.3-2.9c6.8-3.2,14.7-3.2,21.3-7c4-2.3,7.1-5.7,10.3-8.9
			c3.4-3.3,7-6.3,11-8.9c1.9-1.3,4-2.5,6-3.5c1.9-1,3.9-1.9,5.6-3.4c3.2-2.7,3.8-6.9,5.1-10.6c1.2-3.7,3.7-6.1,7.6-6.6
			c4.1-0.5,7.8,1,11.2,3.1c7.2,4.5,13.8,11.8,23.2,10.7c2-0.2,3.9-0.9,5.6-2C843.5,437,842,434.4,840.4,435.5L840.4,435.5z"/>
	</g>
</g>
<g>
	<g>
		<path class="st1" d="M560.2,461c-9.3,1.9-18.5,4.3-27.6,7.2c-1.8,0.6-1,3.5,0.8,2.9c9-3,18.2-5.4,27.6-7.2
			C562.9,463.5,562.1,460.7,560.2,461L560.2,461z"/>
	</g>
</g>
<g>
	<g>
		<path class="st1" d="M556.3,466.1c-4,1.5-7.9,3-11.9,4.5c-2,0.7-3.9,1.5-5.8,2.2c-1.5,0.5-3.8,1.6-3,3.6c0.3,0.8,1,1.3,1.8,1
			c0.7-0.2,1.3-1.1,1-1.9c-0.3,0.5-0.2,0.6,0.1,0.4c0.1,0,0.3-0.1,0.4-0.2c0.4-0.2,0.8-0.3,1.3-0.5c0.7-0.3,1.5-0.5,2.2-0.8
			c1.6-0.6,3.3-1.2,4.9-1.9c3.2-1.2,6.5-2.4,9.7-3.6C558.9,468.3,558.2,465.4,556.3,466.1L556.3,466.1z"/>
	</g>
</g>
<g>
	<g>
		<path class="st1" d="M560.7,469.9c-7.5,2.5-15,5.1-22.5,7.6c-1.3,0.4-1.6,2.6,0,2.9c0.6,0.1,1.3,0.2,1.9,0.4
			c1.9,0.4,2.7-2.5,0.8-2.9c-0.6-0.1-1.3-0.2-1.9-0.4c0,1,0,1.9,0,2.9c7.5-2.5,15-5.1,22.5-7.6C563.3,472.2,562.6,469.3,560.7,469.9
			L560.7,469.9z"/>
	</g>
</g>
<g>
	<g>
		<path class="st1" d="M557.8,476.9c-3.1,1.3-6.2,2.6-9.3,3.9c-0.7,0.3-1.3,1-1,1.9c0.2,0.7,1.1,1.4,1.8,1c3.1-1.3,6.2-2.6,9.3-3.9
			c0.7-0.3,1.3-1,1-1.9C559.5,477.3,558.6,476.6,557.8,476.9L557.8,476.9z"/>
	</g>
</g>
<g>
	<g>
		<path class="st1" d="M654.6,426.5c-18.5,2.7-37,6.2-55.2,10.5c-1.9,0.4-1.1,3.3,0.8,2.9c18.2-4.3,36.6-7.8,55.2-10.5
			C657.3,429.1,656.5,426.2,654.6,426.5L654.6,426.5z"/>
	</g>
</g>
<g>
	<g>
		<path class="st1" d="M592.6,441.4c-9.4,0.4-18.7,1.3-27.9,2.8c-1.9,0.3-1.1,3.2,0.8,2.9c9-1.4,18-2.3,27.1-2.7
			C594.5,444.4,594.5,441.4,592.6,441.4L592.6,441.4z"/>
	</g>
</g>
<g>
	<g>
		<path class="st1" d="M631.5,437c-14.9,4.4-30,8.2-45.2,11.3c-1.9,0.4-1.1,3.3,0.8,2.9c15.2-3.1,30.3-6.8,45.2-11.3
			C634.1,439.3,633.3,436.4,631.5,437L631.5,437z"/>
	</g>
</g>
<g>
	<g>
		<path class="st1" d="M636.6,452.5c-6.2,2.6-11.8,6.2-16.9,10.6c-0.6,0.5-0.5,1.6,0,2.1c0.6,0.6,1.5,0.5,2.1,0
			c4.9-4.2,10.4-7.6,16.3-10.1c0.7-0.3,0.9-1.4,0.5-2C638.2,452.3,637.3,452.2,636.6,452.5L636.6,452.5z"/>
	</g>
</g>
<g>
	<g>
		<path class="st1" d="M628.7,462.7c-0.7,0.3-1.3,0.7-2,1c-0.2,0.1-0.3,0.2-0.4,0.4c-0.1,0.1-0.2,0.3-0.3,0.5
			c-0.1,0.2-0.1,0.4,0,0.6c0,0.2,0.1,0.4,0.2,0.6c0.2,0.3,0.5,0.6,0.9,0.7c0.1,0,0.3,0,0.4,0c0.3,0,0.5-0.1,0.8-0.2
			c0.7-0.3,1.3-0.7,2-1c0.2-0.1,0.3-0.2,0.4-0.4c0.1-0.1,0.2-0.3,0.3-0.5c0.1-0.2,0.1-0.4,0-0.6c0-0.2-0.1-0.4-0.2-0.6
			c-0.2-0.3-0.5-0.6-0.9-0.7c-0.1,0-0.3,0-0.4,0C629.2,462.5,628.9,462.6,628.7,462.7L628.7,462.7z"/>
	</g>
</g>
<g>
	<g>
		<path class="st1" d="M758.3,466.3c1.8,3.3,3.6,6.6,5.3,9.9c0.4,0.7,1.4,0.9,2,0.5c0.7-0.4,0.9-1.3,0.5-2c-1.8-3.3-3.6-6.6-5.3-9.9
			c-0.4-0.7-1.4-0.9-2-0.5C758.1,464.6,757.9,465.5,758.3,466.3L758.3,466.3z"/>
	</g>
</g>
<g>
	<g>
		<path class="st1" d="M765.4,468.1c0.4,0.4,0.8,0.7,1.1,1.1c0.1,0.1,0.2,0.2,0.3,0.3c0,0,0.1,0.1,0.1,0.1c0.2,0.2,0,0,0-0.1
			c0.2,0.2,0.3,0.4,0.5,0.6c0.3,0.4,0.5,0.9,0.8,1.3c0.1,0.1,0.1,0.2,0.2,0.4c0,0.1,0.1,0.1,0.1,0.2c0.1,0.2-0.1-0.3,0-0.1
			c0.1,0.3,0.2,0.5,0.3,0.8c0.2,0.7,1,1.3,1.8,1c0.7-0.2,1.3-1,1-1.9c-0.8-2.3-2.1-4.4-4-6c-0.3-0.3-0.7-0.4-1.1-0.4
			c-0.4,0-0.8,0.2-1.1,0.4C764.9,466.5,764.8,467.5,765.4,468.1L765.4,468.1z"/>
	</g>
</g>
<g>
	<g>
		<path class="st1" d="M771.6,463.3c2.7,3.4,5.4,6.8,8.1,10.2c0.5,0.6,1.6,0.5,2.1,0c0.6-0.6,0.5-1.5,0-2.1
			c-2.7-3.4-5.4-6.8-8.1-10.2c-0.5-0.6-1.6-0.5-2.1,0C771,461.8,771.1,462.6,771.6,463.3L771.6,463.3z"/>
	</g>
</g>
<g>
	<g>
		<path class="st1" d="M779.9,464.3c1.4,2.3,3.1,4.4,5.2,6.2c0.6,0.5,1.5,0.6,2.1,0c0.5-0.6,0.6-1.6,0-2.1c-1-0.8-1.8-1.8-2.7-2.7
			c-0.2-0.2-0.4-0.5-0.6-0.7c0,0.1,0.2,0.2,0,0.1c0-0.1-0.1-0.1-0.2-0.2c-0.1-0.1-0.2-0.2-0.3-0.4c-0.4-0.5-0.7-1.1-1.1-1.6
			c-0.4-0.7-1.4-1-2-0.5C779.8,462.7,779.5,463.6,779.9,464.3L779.9,464.3z"/>
	</g>
</g>
<g>
	<g>
		<path class="st1" d="M826.4,442.4c0,4.8,0,9.5,0,14.3c0,1.9,3,1.9,3,0c0-4.8,0-9.5,0-14.3C829.4,440.5,826.4,440.5,826.4,442.4
			L826.4,442.4z"/>
	</g>
</g>
<g>
	<g>
		<path class="st1" d="M832.4,440.9c-0.2,3.8-0.4,7.5-0.6,11.3c0,0.8,0.7,1.5,1.5,1.5c0.8,0,1.5-0.7,1.5-1.5
			c0.2-3.8,0.4-7.5,0.6-11.3c0-0.8-0.7-1.5-1.5-1.5C833,439.4,832.4,440.1,832.4,440.9L832.4,440.9z"/>
	</g>
</g>
<g>
	<g>
		<path class="st1" d="M838.8,436.5c0.2,2.8,0.5,5.6,0.7,8.4c0.1,0.8,0.6,1.5,1.5,1.5c0.8,0,1.6-0.7,1.5-1.5
			c-0.2-2.8-0.5-5.6-0.7-8.4c-0.1-0.8-0.6-1.5-1.5-1.5C839.6,435,838.8,435.6,838.8,436.5L838.8,436.5z"/>
	</g>
</g>
<g>
	<g>
		<path class="st1" d="M841.1,410.4c5.5,3.7,12.1,5.6,18.7,5.3c1.9-0.1,1.9-3.1,0-3c-6.1,0.3-12.1-1.4-17.2-4.9
			C841,406.7,839.5,409.3,841.1,410.4L841.1,410.4z"/>
	</g>
</g>
<g>
	<g>
		<path class="st1" d="M846.2,419.1c4.1,0.9,8.1,1.9,12.2,2.8c0.8,0.2,1.6-0.2,1.8-1c0.2-0.8-0.2-1.7-1-1.9
			c-4.1-0.9-8.1-1.9-12.2-2.8c-0.8-0.2-1.6,0.2-1.8,1C844.9,418,845.4,418.9,846.2,419.1L846.2,419.1z"/>
	</g>
</g>
<g>
	<g>
		<path class="st1" d="M847.7,423.5c2.4,1.8,5.2,2.8,8.1,3.1c0.8,0.1,1.5-0.8,1.5-1.5c0-0.9-0.7-1.4-1.5-1.5c-0.2,0-0.2,0,0,0
			c-0.1,0-0.2,0-0.2,0c-0.2,0-0.3-0.1-0.5-0.1c-0.3-0.1-0.6-0.1-0.9-0.2c-0.6-0.2-1.3-0.4-1.9-0.6c-0.1,0-0.1,0-0.2-0.1
			c0.2,0.1,0.2,0.1,0,0c-0.2-0.1-0.3-0.1-0.5-0.2c-0.3-0.1-0.6-0.3-0.8-0.4c-0.6-0.3-1.1-0.7-1.7-1.1c-0.6-0.5-1.7-0.1-2,0.5
			C846.8,422.2,847.1,423,847.7,423.5L847.7,423.5z"/>
	</g>
</g>
<g>
	<g>
		<path class="st1" d="M872.3,317.2c-0.4,0.9-0.9,1.8-1.5,2.6c-0.1,0.2-0.3,0.4-0.4,0.6c0.1-0.1,0.2-0.3,0-0.1c0,0-0.1,0.1-0.1,0.1
			c-0.1,0.1-0.2,0.2-0.2,0.3c-0.3,0.4-0.7,0.8-1,1.1c-0.6,0.5-0.6,1.6,0,2.1c0.6,0.6,1.5,0.6,2.1,0c1.5-1.5,2.8-3.3,3.7-5.2
			c0.2-0.4,0.3-0.7,0.2-1.2c-0.1-0.4-0.4-0.7-0.7-0.9C873.7,316.3,872.6,316.5,872.3,317.2L872.3,317.2z"/>
	</g>
</g>
<g>
	<g>
		<path class="st1" d="M877.1,322c-2.7,0.9-5.1,2.3-7.1,4.2c-0.6,0.5-0.6,1.6,0,2.1c0.6,0.6,1.5,0.6,2.1,0c0.2-0.2,0.5-0.4,0.7-0.6
			c0.1-0.1,0.2-0.2,0.3-0.3c0,0,0.2-0.2,0.1,0c-0.2,0.1,0,0,0.1,0c0.5-0.4,1-0.7,1.5-1c0.5-0.3,1-0.6,1.6-0.8c0.1,0,0.3-0.1,0.4-0.2
			c0,0-0.3,0.1-0.1,0c0.1,0,0.1,0,0.2-0.1c0.3-0.1,0.6-0.2,0.9-0.3c0.7-0.2,1.3-1,1-1.9C878.7,322.3,877.9,321.7,877.1,322
			L877.1,322z"/>
	</g>
</g>
<g>
	<g>
		<path class="st1" d="M879.1,325.9c-2.6,0.5-5,1.6-7.1,3.3c-0.6,0.5-0.5,1.6,0,2.1c0.7,0.6,1.5,0.5,2.1,0c0.1,0,0.1-0.1,0.2-0.1
			c-0.2,0.1-0.2,0.1,0,0c0.1-0.1,0.2-0.2,0.3-0.2c0.2-0.2,0.5-0.3,0.7-0.5c0.5-0.3,1-0.6,1.5-0.8c0.1,0,0.1-0.1,0.2-0.1
			c-0.2,0.1-0.2,0.1-0.1,0c0.1,0,0.3-0.1,0.4-0.2c0.3-0.1,0.5-0.2,0.8-0.3c0.5-0.2,1.1-0.3,1.7-0.4c0.8-0.1,1.3-1.1,1-1.9
			C880.6,326.1,879.9,325.7,879.1,325.9L879.1,325.9z"/>
	</g>
</g>
<g>
	<g>
		<path class="st1" d="M813.2,298.7c-4.1,3.1-7.9,6.6-11.2,10.5c-0.5,0.6-0.6,1.5,0,2.1c0.5,0.5,1.6,0.6,2.1,0
			c3.2-3.7,6.7-7.1,10.6-10c0.7-0.5,1-1.3,0.5-2C814.9,298.6,813.9,298.2,813.2,298.7L813.2,298.7z"/>
	</g>
</g>
<g>
	<g>
		<path class="st1" d="M817.3,303.8c-3.9,2.9-7.7,6.1-11,9.6c-0.6,0.6-0.6,1.5,0,2.1c0.6,0.6,1.6,0.6,2.1,0
			c3.2-3.3,6.7-6.4,10.5-9.2c0.7-0.5,1-1.3,0.5-2C819,303.7,817.9,303.4,817.3,303.8L817.3,303.8z"/>
	</g>
</g>
<g>
	<g>
		<path class="st1" d="M822.1,306.2c-3.7,3.7-7.4,7.4-11.1,11c-1.4,1.4,0.8,3.5,2.1,2.1c3.7-3.7,7.4-7.4,11.1-11
			C825.6,307,823.4,304.9,822.1,306.2L822.1,306.2z"/>
	</g>
</g>
<g>
	<g>
		<path class="st1" d="M825.5,309.2c-3.5,3.1-7.2,5.9-11.2,8.3c-1.7,1-0.2,3.6,1.5,2.6c4.2-2.5,8.2-5.5,11.8-8.8
			c0.6-0.5,0.5-1.6,0-2.1C827,308.6,826.1,308.7,825.5,309.2L825.5,309.2z"/>
	</g>
</g>
<g>
	<g>
		<path class="st1" d="M826.7,312.3c-4.1,3.1-8,6.4-11.8,9.9c-0.6,0.5-0.6,1.6,0,2.1c0.6,0.6,1.5,0.5,2.1,0
			c3.6-3.3,7.3-6.5,11.2-9.4c0.6-0.5,1-1.3,0.5-2C828.3,312.2,827.3,311.8,826.7,312.3L826.7,312.3z"/>
	</g>
</g>
<g>
	<g>
		<path class="st1" d="M830,315.7c-4.7,4.2-9.5,8.5-14.2,12.8c-1.4,1.3,0.7,3.4,2.1,2.1c4.7-4.2,9.5-8.5,14.2-12.8
			C833.6,316.6,831.5,314.4,830,315.7L830,315.7z"/>
	</g>
</g>
<g>
	<g>
		<path class="st1" d="M827.4,322.9c-3.6,3.4-7.2,6.9-10.8,10.3c-0.6,0.6-0.6,1.6,0,2.1c0.6,0.6,1.5,0.6,2.1,0
			c3.6-3.4,7.2-6.9,10.8-10.3c0.6-0.6,0.6-1.6,0-2.1C828.9,322.3,828,322.3,827.4,322.9L827.4,322.9z"/>
	</g>
</g>
<g>
	<g>
		<path class="st1" d="M838.9,279.3c-1.4,1.9-2.7,3.9-4.1,5.8c-0.5,0.6-0.1,1.7,0.5,2c0.8,0.4,1.6,0.1,2-0.5
			c1.4-1.9,2.7-3.9,4.1-5.8c0.5-0.6,0.1-1.7-0.5-2C840.2,278.4,839.3,278.6,838.9,279.3L838.9,279.3z"/>
	</g>
</g>
<g>
	<g>
		<path class="st1" d="M840.6,284.9c-2.5,3-5.3,5.8-8.4,8.3c-0.6,0.5-0.6,1.6,0,2.1c0.7,0.6,1.5,0.5,2.1,0c3.1-2.5,5.9-5.3,8.4-8.3
			c0.5-0.6,0.6-1.5,0-2.1C842.2,284.4,841.1,284.3,840.6,284.9L840.6,284.9z"/>
	</g>
</g>
<g>
	<g>
		<path class="st1" d="M837,295.6c-0.3,0.4-0.6,0.8-0.9,1.2c0,0.1-0.1,0.2,0,0c-0.1,0.1-0.2,0.2-0.2,0.3c-0.2,0.2-0.3,0.4-0.5,0.6
			c-0.6,0.7-1.2,1.4-1.9,2.1c-1.3,1.4-2.7,2.6-4.2,3.8c-0.6,0.5-0.5,1.6,0,2.1c0.7,0.6,1.5,0.5,2.1,0c3.1-2.5,5.8-5.4,8.1-8.6
			c0.5-0.6,0.1-1.7-0.5-2C838.2,294.6,837.4,294.9,837,295.6L837,295.6z"/>
	</g>
</g>
<g>
	<g>
		<path class="st1" d="M835.2,302.7c-1.5,1.8-3,3.5-4.6,5.3c-0.3,0.3-0.4,0.6-0.4,1.1c0,0.4,0.2,0.8,0.4,1.1c0.6,0.5,1.6,0.6,2.1,0
			c1.5-1.8,3-3.5,4.6-5.3c0.3-0.3,0.4-0.6,0.4-1.1c0-0.4-0.2-0.8-0.4-1.1C836.8,302.1,835.8,302,835.2,302.7L835.2,302.7z"/>
	</g>
</g>
<g>
	<g>
		<path class="st1" d="M835.2,307.5c-0.3,0.3-0.7,0.7-1,1c-0.2,0.1-0.2,0.3-0.3,0.5c-0.1,0.2-0.1,0.4-0.1,0.6c0,0.2,0,0.4,0.1,0.6
			c0.1,0.2,0.2,0.4,0.3,0.5c0.1,0.1,0.2,0.2,0.3,0.2c0.2,0.1,0.5,0.2,0.8,0.2c0.1,0,0.3,0,0.4,0c0.2-0.1,0.5-0.2,0.7-0.4
			c0.3-0.3,0.7-0.7,1-1c0.2-0.1,0.2-0.3,0.3-0.5c0.1-0.2,0.1-0.4,0.1-0.6c0-0.2,0-0.4-0.1-0.6c-0.1-0.2-0.2-0.4-0.3-0.5
			c-0.1-0.1-0.2-0.2-0.3-0.2c-0.2-0.1-0.5-0.2-0.8-0.2c-0.1,0-0.3,0-0.4,0C835.6,307.2,835.3,307.4,835.2,307.5L835.2,307.5z"/>
	</g>
</g>
<g>
	<g>
		<path class="st1" d="M709.5,334.6c-2.5,2.4-4.6,5.1-6.2,8.1c-0.4,0.7-0.2,1.7,0.5,2c0.7,0.4,1.6,0.2,2-0.5c0.4-0.7,0.8-1.4,1.2-2
			c0.2-0.3,0.5-0.7,0.7-1c0.1-0.2,0.2-0.3,0.4-0.5c0-0.1,0.1-0.1,0.2-0.2c0,0,0.2-0.3,0.1-0.2c-0.1,0.1,0.1-0.1,0.1-0.1
			c0.1-0.1,0.1-0.1,0.2-0.2c0.1-0.2,0.3-0.3,0.4-0.5c0.3-0.3,0.5-0.6,0.8-0.9c0.5-0.6,1.1-1.2,1.7-1.8c0.6-0.5,0.6-1.6,0-2.1
			C711,334.1,710.1,334.1,709.5,334.6L709.5,334.6z"/>
	</g>
</g>
<g>
	<g>
		<path class="st1" d="M716.5,333.4c-2.5,3.4-5,6.8-7.5,10.3c-0.5,0.7-0.1,1.7,0.5,2c0.8,0.4,1.6,0.1,2-0.5c2.5-3.4,5-6.8,7.5-10.3
			c0.5-0.7,0.1-1.7-0.5-2C717.8,332.4,717,332.8,716.5,333.4L716.5,333.4z"/>
	</g>
</g>
<g>
	<g>
		<path class="st1" d="M727.6,331.6c-3.6,3.4-6.7,7.3-9.2,11.5c-1,1.7,1.6,3.2,2.6,1.5c2.4-4,5.4-7.7,8.8-10.9
			c0.6-0.6,0.6-1.6,0-2.1C729.1,331.1,728.2,331.1,727.6,331.6L727.6,331.6z"/>
	</g>
</g>
<g>
	<g>
		<path class="st1" d="M732.2,330.4c-2.1,3.3-4.2,6.6-6.3,9.9c-0.4,0.7-0.1,1.6,0.5,2c0.7,0.4,1.6,0.1,2-0.5
			c2.1-3.3,4.2-6.6,6.3-9.9c0.4-0.7,0.1-1.6-0.5-2C733.5,329.5,732.7,329.8,732.2,330.4L732.2,330.4z"/>
	</g>
</g>
<g>
	<g>
		<path class="st1" d="M742,328c-2.2,2.9-4.3,5.9-6.4,8.8c-0.5,0.6-0.1,1.7,0.5,2c0.8,0.4,1.6,0.1,2-0.5c2.2-2.9,4.3-5.9,6.4-8.8
			c0.5-0.6,0.1-1.7-0.5-2C743.3,327,742.5,327.3,742,328L742,328z"/>
	</g>
</g>
<g>
	<g>
		<path class="st1" d="M776.7,378.4c-6.1,5.2-12.2,10.3-18.4,15.5c-1.5,1.2,0.7,3.4,2.1,2.1c6.1-5.2,12.2-10.3,18.4-15.5
			C780.3,379.3,778.2,377.1,776.7,378.4L776.7,378.4z"/>
	</g>
</g>
<g>
	<g>
		<path class="st1" d="M785.3,382.1c-4.8,6.4-10.6,12-17,16.8c-0.7,0.5-1,1.3-0.5,2c0.4,0.6,1.4,1,2,0.5c6.9-5.1,13-11.1,18.1-17.9
			c0.5-0.6,0.1-1.7-0.5-2C786.6,381.1,785.8,381.4,785.3,382.1L785.3,382.1z"/>
	</g>
</g>
<g>
	<g>
		<path class="st1" d="M793.2,386.1c-3.6,4.7-7.7,9-12.1,12.9c-0.6,0.5-0.5,1.6,0,2.1c0.6,0.6,1.5,0.5,2.1,0
			c4.6-4.1,8.8-8.6,12.6-13.5c0.5-0.6,0.1-1.7-0.5-2C794.5,385.1,793.7,385.4,793.2,386.1L793.2,386.1z"/>
	</g>
</g>
<g>
	<g>
		<path class="st1" d="M801.2,389.1c-3.9,3.8-7.9,7.5-11.8,11.3c-1.4,1.3,0.7,3.5,2.1,2.1c3.9-3.8,7.9-7.5,11.8-11.3
			C804.7,389.9,802.6,387.8,801.2,389.1L801.2,389.1z"/>
	</g>
</g>
<g>
	<g>
		<path class="st1" d="M802.3,393.1c-2.3,2.3-4.6,4.6-6.9,6.9c-0.6,0.6-0.6,1.6,0,2.1s1.5,0.6,2.1,0c2.3-2.3,4.6-4.6,6.9-6.9
			c0.6-0.6,0.6-1.6,0-2.1C803.8,392.6,802.8,392.5,802.3,393.1L802.3,393.1z"/>
	</g>
</g>
<g>
	<g>
		<path class="st1" d="M535.1,351.3c-8.4,2.1-16.1,6-22.8,11.5c-1.5,1.2,0.6,3.4,2.1,2.1c6.2-5.2,13.6-8.8,21.5-10.8
			C537.8,353.7,537,350.8,535.1,351.3L535.1,351.3z"/>
	</g>
</g>
<g>
	<g>
		<path class="st1" d="M524,359.8c-1,0.7-2,1.3-3,2c-0.3,0.2-0.6,0.5-0.7,0.9c-0.1,0.4,0,0.8,0.2,1.2c0.2,0.3,0.5,0.6,0.9,0.7
			c0.4,0.1,0.8,0.1,1.2-0.1c1-0.7,2-1.3,3-2c0.3-0.2,0.6-0.5,0.7-0.9c0.1-0.4,0-0.8-0.2-1.2c-0.2-0.3-0.5-0.6-0.9-0.7
			C524.7,359.5,524.3,359.5,524,359.8L524,359.8z"/>
	</g>
</g>
<g>
	<g>
		<path class="st1" d="M617.4,363.5c19.6-1.7,38.1-10.6,57.9-10.7c5.5,0,10.9,0.7,16.1,2.4c1.8,0.6,2.6-2.3,0.8-2.9
			c-19.3-6.4-39.2,0.8-58,5.3c-5.5,1.3-11.1,2.4-16.8,2.9C615.5,360.7,615.5,363.7,617.4,363.5L617.4,363.5z"/>
	</g>
</g>
<g>
	<g>
		<path class="st1" d="M659.9,289.5c5.1,0.9,10.2,0.8,15.3,0c2.1-0.3,4.5-0.8,6.5,0.2c2,1,3.6,2.6,6,1.9c1.8-0.5,1.1-3.4-0.8-2.9
			c-1,0.3-1.9-0.5-2.6-1c-0.9-0.6-1.8-1-2.9-1.3c-2-0.5-4.1-0.2-6.1,0.1c-4.9,0.7-9.7,0.9-14.5,0.1
			C658.8,286.2,658,289.1,659.9,289.5L659.9,289.5z"/>
	</g>
</g>
</svg>
