<?xml version="1.0" encoding="utf-8"?>
<!-- Generator: Adobe Illustrator 28.1.0, SVG Export Plug-In . SVG Version: 6.00 Build 0)  -->
<svg version="1.1" id="Layer_1" xmlns="http://www.w3.org/2000/svg" xmlns:xlink="http://www.w3.org/1999/xlink" x="0px" y="0px"
	 viewBox="0 0 423 212" style="enable-background:new 0 0 423 212;" xml:space="preserve">
<style type="text/css">
	.st0{fill:#878166;}
	.st1{fill:#D3C690;}
	.st2{fill:#AFA475;}
</style>
<g>
	<path class="st0" d="M207.7,169.4c-12-4.8-24.6-7.9-37.4-9.2c-0.5,0-1.1-0.1-1.5-0.4c-1.1-0.7-1-2.5-0.2-3.5s2.1-1.5,3.3-2
		c3.2-1.1,6.3-2.3,9.5-3.4c4.8-1.7,9.6-3.4,14.6-4.4c14.9-2.9,30.2,1.1,44.6,6.2c27,9.5,52.8,22.9,79.9,32.2
		c15,5.2,30.4,9.1,44.8,15.8c-27.1,0.3-54.1-5.7-81.2-4.5c-6.7,0.3-13.4,1-20,0.4c-5.2-0.5-10.3-1.7-15.5-2.5
		c-6-0.9-12-1.1-18.1-1.1c-1.7,0-3.5,0-5-0.9c-2.3-1.4-3.1-4.3-3.9-6.9c-1.3-4.1-3-8.1-5.7-11.3c-2.8-3.2-6.7-5.5-10.8-5.4"/>
	<g>
		<path class="st0" d="M208.1,168c-7.5-3-15.3-5.3-23.2-7c-4-0.8-8-1.5-12-2c-0.9-0.1-1.9-0.1-2.8-0.3c-0.7-0.2-0.8-0.6-0.5-1.3
			c0.7-1.4,3.1-1.8,4.4-2.3c7.7-2.8,15.5-6.1,23.7-7.4c8-1.3,16.2-0.6,24,1.1c8,1.7,15.7,4.3,23.3,7.1c7.6,2.8,15.2,5.9,22.7,9.1
			c15,6.4,29.9,13.1,45.2,18.8c15.2,5.6,30.9,9.6,45.9,15.7c1.9,0.8,3.8,1.6,5.7,2.5c0.2-0.9,0.5-1.9,0.8-2.8
			c-23.8,0.2-47.4-4.3-71.2-4.7c-11.8-0.2-23.7,1.8-35.5-0.2c-5.8-1-11.5-2.1-17.3-2.5c-2.9-0.2-5.9-0.3-8.8-0.4
			c-2.4,0-5.5,0.4-7.2-1.7c-1.6-1.9-2-4.8-2.8-7c-1-2.7-2.2-5.4-3.8-7.8c-3.1-4.5-7.9-8-13.5-8c-1.9,0-1.9,3,0,3
			c5.1,0,9.2,3.6,11.7,7.7c1.3,2.2,2.3,4.6,3.1,7.1c0.7,2.1,1.2,4.3,2.4,6.1c1.4,2.1,3.3,3.2,5.8,3.5c2.9,0.3,5.8,0.1,8.7,0.2
			c6,0.2,11.8,1,17.7,2c5.8,1.1,11.5,1.8,17.4,1.6c6-0.1,11.9-0.7,17.8-0.7c11.9-0.1,23.7,1,35.5,2.1c13.3,1.3,26.7,2.7,40.1,2.5
			c1.4,0,2.2-2.1,0.8-2.8c-15.5-7.1-32-11.3-48-17c-16.1-5.7-31.7-12.8-47.4-19.5c-7.9-3.4-15.8-6.6-23.8-9.6
			c-8-3-16.1-5.8-24.4-7.5c-8.2-1.7-16.6-2.4-24.9-1.1c-8.5,1.3-16.5,4.8-24.6,7.6c-3,1.1-7.4,2.7-6.2,6.8c0.5,1.8,2,2.4,3.7,2.5
			c2.1,0.2,4.2,0.5,6.4,0.8c8.4,1.3,16.7,3.3,24.7,6.1c2,0.7,4,1.4,6,2.2C209.1,171.6,209.9,168.7,208.1,168L208.1,168z"/>
	</g>
</g>
<g>
	<path class="st0" d="M362.3,148.8c-26.5-5.4-53.7-6.4-80.5-10.3c-15-2.2-29.9-5.2-44.5-9.1c-5.1-1.4-10.3-2.9-14.9-5.7
		c-0.9-0.6-1.8-1.2-2.7-1.9c0.8,2.7-0.9,6.3-4,6c-1.6-0.2-3.2-0.3-4.7-0.4c-1.8,0.1-3.7,0.1-5.6,0c-0.4,0-0.8,0-1.2,0.1
		c-3.1,0.2-6.2,0.2-8.8-1.8c-0.1-0.1-0.2-0.1-0.3-0.2c-1-0.3-2-0.6-3-0.9c-3.3-1-4.5-6.4-1-8.1c0.2-0.1,0.5-0.2,0.7-0.3
		c0.3-0.9,0.9-1.7,1.8-2.2c4.4-2.7,9.9-3.1,14.9-1.6c-3.2-2.4-6.8-4.3-10.8-4.6c-4.9-0.4-10.3,2.2-11.9,7
		c-1.8,5.5,1.8,11.5,6.1,15.2c0.5,0.4,1,0.9,1.5,1.3l-42.4-0.9c-0.7,2.4,0.7,5.1,2.6,6.6c2,1.5,4.4,2.1,6.8,2.6
		c49.7,10.8,100.8,12.1,151.5,13.4l55.5,1.4C368.6,151.4,365,149.3,362.3,148.8z"/>
	<g>
		<path class="st0" d="M362.7,147.3c-18.7-3.8-37.8-5.5-56.8-7.5c-19.1-2-38-4.7-56.7-9c-5.1-1.2-10.2-2.4-15.3-3.9
			c-4.9-1.4-9.5-3.3-13.5-6.4c-1.1-0.8-2.5,0.5-2.2,1.7c0.3,1.2,0.1,2.8-0.9,3.6c-0.5,0.4-1,0.5-1.6,0.4c-1.2-0.1-2.4-0.3-3.5-0.4
			c-1.1-0.1-2.2,0-3.2,0c-1.2,0-2.3-0.1-3.5-0.1c-2,0-4,0.4-6,0c-0.9-0.2-1.8-0.5-2.6-1c-0.4-0.2-0.7-0.6-1.1-0.8
			c-0.5-0.2-1.1-0.3-1.7-0.5c-1.4-0.4-2.6-0.7-3.2-2.2c-0.4-1-0.5-2.2,0.2-3.1c0.5-0.6,1.3-0.6,1.8-1.1c0.7-0.7,0.7-1.5,1.6-2.1
			c4-2.5,9.1-2.6,13.5-1.3c1.7,0.5,2.5-1.8,1.2-2.7c-5.4-4-12.2-6.5-18.7-3.5c-2.7,1.2-4.8,3.4-5.9,6.1c-1.2,3.1-0.9,6.5,0.4,9.5
			c1.6,3.7,4.3,6.6,7.4,9.1c0.3-0.9,0.7-1.7,1.1-2.6c-12.4-0.3-24.8-0.5-37.1-0.8c-1.7,0-3.5-0.1-5.2-0.1c-0.6,0-1.3,0.5-1.5,1.1
			c-1.1,4.7,2.4,8.4,6.5,10c2.3,0.9,4.8,1.3,7.3,1.8c2.7,0.6,5.4,1.1,8.1,1.6c10.7,2,21.5,3.6,32.2,4.9c21.7,2.6,43.5,4,65.3,4.9
			c15.3,0.6,30.6,1,45.9,1.4c9.5,0.2,19,0.5,28.5,0.7c7.9,0.2,15.8,0.6,23.6,0.6c0.1,0,0.3,0,0.4,0c0.7,0,1.2-0.5,1.5-1.1
			C370.4,150.6,365.8,148,362.7,147.3c-1.9-0.4-2.7,2.5-0.8,2.9c1.5,0.3,5,1.4,4.2,3.5c0.5-0.4,1-0.7,1.5-1.1
			c-6.4-0.2-12.9-0.3-19.3-0.5c-10-0.2-20.1-0.5-30.1-0.8c-12.3-0.3-24.6-0.6-36.9-1c-21.4-0.7-42.8-1.8-64.2-3.9
			c-10.7-1.1-21.4-2.4-32-4.1c-5.3-0.8-10.5-1.8-15.8-2.8c-2.6-0.5-5.2-1-7.8-1.6c-2.2-0.5-4.5-0.9-6.4-2.2c-1.7-1.1-3-3.2-2.5-5.2
			c-0.5,0.4-1,0.7-1.5,1.1c12.4,0.3,24.8,0.5,37.1,0.8c1.7,0,3.5,0.1,5.2,0.1c1.2,0,2.1-1.7,1.1-2.6c-4.9-3.8-11.2-11.9-5.6-17.9
			c2.1-2.2,5.1-3.3,8.1-3.2c4,0.1,7.6,2.2,10.7,4.5c0.4-0.9,0.8-1.8,1.2-2.7c-3.4-1-7-1.2-10.5-0.5c-3.2,0.7-6.7,2.1-8,5.4
			c0.2-0.3,0.5-0.6,0.7-0.9c-2.7,1.2-4,3.8-3.3,6.7c0.3,1.2,1,2.5,2,3.3c1.3,1.2,3,1.2,4.6,1.9c0.7,0.3,1.4,0.9,2.1,1.2
			c0.8,0.4,1.7,0.6,2.6,0.8c1.9,0.3,3.7,0.2,5.6,0.1c1-0.1,2.1,0,3.1,0.1c1.1,0,2.2-0.1,3.2-0.1c2,0,4.1,0.7,6,0.4
			c3.5-0.6,4.9-4.7,4.1-7.8c-0.7,0.6-1.5,1.1-2.2,1.7c7.3,5.5,16.5,7.5,25.2,9.6c9.3,2.3,18.8,4.2,28.3,5.8
			c19,3.2,38.1,4.7,57.2,6.8c10.8,1.2,21.6,2.7,32.3,4.9C363.8,150.6,364.5,147.7,362.7,147.3z"/>
	</g>
</g>
<g>
	<g>
		<path class="st0" d="M192.8,105.9c-0.6,0-1.2,0-1.8,0c0.1,1,0.3,2,0.4,3c0.5-0.2,1.1-0.4,1.6-0.6c-0.3-1-0.5-1.9-0.8-2.9
			c-0.2,0.1-0.5,0.2-0.7,0.3c-0.2,0.1-0.4,0.3-0.6,0.4c-0.3,0.2-0.5,0.5-0.8,0.9c-0.1,0.2-0.2,0.4-0.2,0.6c0,0.2,0,0.4,0,0.6
			c0,0.2,0.1,0.4,0.3,0.5c0.1,0.2,0.2,0.3,0.4,0.4c0.3,0.2,0.8,0.3,1.2,0.1c0.1,0,0.2-0.1,0.4-0.1c0.2-0.1,0.4-0.3,0.5-0.5
			c0,0,0,0,0,0c-0.1,0.1-0.2,0.2-0.2,0.3c0.2-0.2,0.3-0.4,0.5-0.5c-0.1,0.1-0.2,0.2-0.3,0.2c0.2-0.1,0.4-0.2,0.6-0.3
			c-0.1,0-0.2,0.1-0.4,0.1c0,0,0,0,0,0c0.2,0,0.4-0.1,0.5-0.3c0.2-0.1,0.3-0.2,0.4-0.4c0.1-0.2,0.2-0.4,0.2-0.6c0-0.2,0-0.4,0-0.6
			c-0.1-0.4-0.3-0.7-0.7-0.9c-0.3-0.2-0.8-0.3-1.2-0.1c-0.5,0.2-1.1,0.4-1.6,0.6c-0.2,0-0.4,0.1-0.5,0.3c-0.2,0.1-0.3,0.2-0.4,0.4
			c0,0.1-0.1,0.2-0.2,0.4c-0.1,0.2-0.1,0.4,0,0.6c0,0.1,0,0.3,0.1,0.4c0.1,0.2,0.2,0.4,0.3,0.5c0.3,0.3,0.7,0.4,1.1,0.4
			c0.6,0,1.2,0,1.8,0c0.4,0,0.8-0.2,1.1-0.4c0.2-0.1,0.2-0.3,0.3-0.5c0.1-0.2,0.1-0.4,0.1-0.6c0-0.4-0.1-0.8-0.4-1.1
			C193.6,106.1,193.2,105.9,192.8,105.9L192.8,105.9z"/>
	</g>
</g>
<g>
	<g>
		<path class="st0" d="M163.1,119.5c-0.7,0.5-1.4,1.1-2.1,1.6c0.6,0.8,1.2,1.6,1.8,2.4c0.1,0,0.1-0.1,0.2-0.2
			c-0.1,0.1-0.2,0.2-0.3,0.2c0.4-0.3,0.9-0.6,1.4-0.8c-0.1,0-0.2,0.1-0.4,0.1c0.3-0.1,0.5-0.2,0.8-0.3c0.5-0.1,0.9-0.5,1-1
			c0.1-0.3,0.1-0.5,0-0.8c-0.1-0.2-0.2-0.5-0.4-0.7c-0.1-0.1-0.2-0.2-0.3-0.3c-0.1-0.1-0.2-0.1-0.4-0.2c-0.2-0.1-0.3-0.1-0.5-0.1
			c-0.1,0-0.3,0-0.5,0.1c-0.1,0-0.3,0.1-0.4,0.2c-0.3,0.2-0.4,0.4-0.6,0.6c-0.1,0.2-0.2,0.4-0.2,0.6c0,0.2,0,0.4,0,0.6
			c0.1,0.4,0.4,0.7,0.7,0.9c0.3,0.2,0.8,0.3,1.2,0.1c0.1,0,0.2-0.1,0.4-0.1c0.2-0.1,0.4-0.3,0.5-0.5c0,0,0,0,0,0
			c-0.1,0.1-0.2,0.2-0.2,0.3c0,0,0,0,0,0c-0.1,0.1-0.2,0.2-0.3,0.2c0,0,0,0,0,0c-0.1,0-0.2,0.1-0.4,0.1c0,0,0,0,0.1,0
			c-0.1,0-0.3,0-0.4,0c0,0,0,0,0.1,0c-0.1,0-0.3,0-0.4,0c0,0,0,0,0.1,0c-0.1,0-0.2-0.1-0.4-0.1c0,0,0,0,0,0
			c-0.1-0.1-0.2-0.2-0.3-0.2c0,0,0,0,0,0c0.2-0.8,0.4-1.7,0.7-2.5c-0.6,0.1-1.1,0.4-1.6,0.6c-0.5,0.3-1,0.6-1.5,1
			c-0.2,0.1-0.2,0.3-0.3,0.5c-0.1,0.2-0.1,0.4-0.1,0.6c0,0.1,0,0.3,0,0.4c0,0.2,0.1,0.4,0.3,0.5c0.2,0.2,0.5,0.5,0.8,0.5
			c0.4,0.1,0.8,0.1,1.2-0.1c0.7-0.5,1.4-1.1,2.1-1.6c0.2-0.1,0.3-0.2,0.4-0.4c0.1-0.1,0.2-0.3,0.3-0.5c0.1-0.4,0-0.8-0.2-1.2
			c-0.2-0.3-0.5-0.6-0.9-0.7C163.9,119.2,163.4,119.2,163.1,119.5L163.1,119.5z"/>
	</g>
</g>
<g>
	<g>
		<path class="st0" d="M161.1,118.9c-0.5,0.4-0.8,0.9-1.2,1.4c-0.4,0.6-0.2,1.5,0.4,1.9c0.6,0.5,1.4,0.4,2-0.1
			c0.9-1,1.6-2.2,1.9-3.5c0.2-0.8-0.2-1.7-1-1.9c-0.7-0.2-1.5,0.1-1.9,0.7c-0.3,0.3-0.5,0.7-0.8,1c-0.2,0.3-0.4,0.5-0.5,0.8
			c-0.3,0.5-0.6,0.9-0.6,1.5c0,0.5,0.2,0.9,0.5,1.2c0.5,0.5,1.4,0.6,2,0.1c0.3-0.2,0.6-0.5,0.8-0.8c0.5-0.6,0.8-1.3,0.9-2
			c0.1-0.3,0.1-0.6-0.1-1c-0.1-0.3-0.3-0.6-0.6-0.7c-0.6-0.3-1.3-0.2-1.8,0.2c-0.5,0.5-0.9,1-1.2,1.6c-0.2,0.3-0.3,0.7-0.4,1.1
			c-0.1,0.5,0,1,0.3,1.4c0.2,0.2,0.4,0.4,0.6,0.5c0.1,0,0.2,0.1,0.3,0.1c-0.2-0.1-0.4-0.3-0.7-0.4c0,0,0,0,0,0
			c-0.1-0.1-0.2-0.2-0.2-0.3c0,0,0,0,0,0c0-0.1-0.1-0.2-0.2-0.4c0.1,0.3,0.1,0.7,0.2,1c0,0.3,0.4,0.8,0.7,0.9c0.3,0.2,0.6,0.2,1,0.2
			c0.8-0.1,1.3-0.7,1.3-1.5c0-0.6-0.2-1.1-0.6-1.5c-0.4-0.5-1.2-0.7-1.8-0.5c-1,0.3-1.6,1.4-1,2.4c0.3,0.6,1,0.9,1.6,0.8
			c1.2,0,2.3-0.5,3.5-0.6c-0.1,0-0.3,0-0.4,0c0.3,0,0.5-0.1,0.8,0c0.9,0,1.8-1,1.5-1.9c-0.4-1.2-1.1-2.3-2-3.2
			c-0.3,0.9-0.7,1.7-1.1,2.6c0,0,0.1,0,0.2,0c0.8,0,1.5-0.7,1.5-1.5c0-0.8-0.7-1.5-1.5-1.5c0,0-0.1,0-0.2,0c-0.6,0-1.1,0.4-1.4,0.9
			c-0.2,0.5-0.1,1.2,0.3,1.6c0.2,0.2,0.4,0.4,0.5,0.6c-0.1-0.1-0.2-0.2-0.2-0.3c0.3,0.5,0.7,1,0.9,1.5c0-0.1-0.1-0.2-0.2-0.4
			c0.1,0.1,0.1,0.3,0.2,0.5c0.5-0.6,1-1.3,1.5-1.9c-1.3,0-2.5,0.5-3.8,0.6c0.1,0,0.3,0,0.4,0c-0.2,0-0.5,0.1-0.7,0
			c0.1,0,0.3,0,0.4,0c0,0-0.1,0-0.1,0c0.2,0.1,0.4,0.3,0.7,0.4c0,0,0,0,0,0c0.1,0.1,0.2,0.2,0.2,0.3c0,0,0,0,0,0
			c0.1,0.2,0.1,0.5,0.2,0.8c0,0,0,0,0,0c-0.1,0.2-0.1,0.5-0.2,0.8c0,0,0,0,0,0c-0.1,0.1-0.2,0.2-0.2,0.3c0,0,0,0,0,0
			c-0.2,0.1-0.4,0.3-0.7,0.4c0,0,0.1,0,0.1,0c-0.1,0-0.3,0-0.4,0c0,0,0,0,0.1,0c-0.1,0-0.3,0-0.4,0c0,0,0.1,0,0.1,0
			c-0.1,0-0.2-0.1-0.4-0.1c0,0,0,0,0,0c-0.1-0.1-0.2-0.2-0.3-0.2c0,0,0.1,0,0.1,0.1c-0.1-0.1-0.2-0.2-0.2-0.3c0,0,0,0.1,0.1,0.1
			c0-0.1-0.1-0.2-0.2-0.4c0,0,0,0.1,0,0.1c0-0.1,0-0.3,0-0.4c0,0.1,0,0.1,0,0.2c1-0.1,2-0.3,3-0.4c0-0.3-0.1-0.6-0.1-0.9
			c-0.1-0.7-0.7-1.1-1.3-1.3c0.1,0,0.2,0.1,0.4,0.1c0,0,0,0,0,0c0.2,0.3,0.5,0.6,0.7,0.9c0,0,0,0,0-0.1c0,0.1,0,0.3,0,0.4
			c0,0,0,0,0-0.1c0,0.1,0,0.3,0,0.4c0-0.2,0.1-0.3,0.2-0.5c0,0.1-0.1,0.2-0.2,0.4c0.2-0.4,0.3-0.7,0.6-1c-0.1,0.1-0.2,0.2-0.2,0.3
			c0.1-0.2,0.3-0.4,0.5-0.5c-0.8-0.5-1.7-1-2.5-1.5c0,0.3-0.1,0.5-0.2,0.8c0-0.1,0.1-0.2,0.2-0.4c-0.1,0.3-0.3,0.5-0.4,0.7
			c0.1-0.1,0.2-0.2,0.2-0.3c-0.2,0.2-0.3,0.4-0.5,0.6c0.3-0.1,0.7-0.3,1.1-0.4c0,0,0,0,0,0c0.3,0.1,0.7,0.3,1.1,0.4c0,0,0,0,0,0
			c0.1,0.1,0.2,0.2,0.2,0.3c0,0,0,0,0,0c0.1,0.2,0.1,0.5,0.2,0.8c0,0,0-0.1,0-0.1c0,0.1,0,0.3,0,0.4c0,0,0-0.1,0-0.1
			c0,0.1-0.1,0.2-0.2,0.4c0.4-0.7,0.8-1.4,1.3-2.1c-0.1,0.1-0.2,0.2-0.2,0.3c0.1-0.1,0.1-0.2,0.2-0.3c-0.1,0.1-0.2,0.2-0.3,0.2
			c0,0,0.1,0,0.1-0.1c-0.1,0-0.2,0.1-0.4,0.1c0,0,0,0,0.1,0c-0.1,0-0.3,0-0.4,0c0,0,0,0,0.1,0c-0.1,0-0.3,0-0.4,0c0,0,0,0,0.1,0
			c-0.3-0.6-0.7-1.2-1-1.9C161.2,118.2,161.1,118.6,161.1,118.9c0-0.2,0-0.3,0.1-0.4c-0.2,0.5-0.5,0.9-0.8,1.3
			c0.1-0.1,0.2-0.2,0.2-0.3c-0.1,0.2-0.3,0.4-0.5,0.5c0.8,0.6,1.6,1.2,2.4,1.8c0.1-0.1,0.2-0.3,0.3-0.4c-0.1,0.1-0.2,0.2-0.2,0.3
			c0.2-0.2,0.4-0.5,0.7-0.7c0.3-0.2,0.4-0.7,0.4-1.1c0-0.4-0.2-0.8-0.4-1.1C162.5,118.4,161.7,118.4,161.1,118.9L161.1,118.9z"/>
	</g>
</g>
<g>
	<path class="st0" d="M174.2,96.5c-1.6-1.5-3.9-1.7-6-1.8c2-0.5,4.1,0.6,5,2.5c0.6,1.2,0.6,2.6,0.7,3.9c0.1,4-0.2,8.2-2,11.7
		c-2.1-2.7-5.4-4.2-8.7-4c-0.3,0-0.7,0-0.9-0.2c-0.2-0.2-0.3-0.5-0.4-0.9c-0.3-2.1,0.7-4.1,1.7-6c1.4-2.7,2.8-5.5,5-7.6"/>
	<g>
		<path class="st0" d="M175.2,95.4c-2-1.8-4.5-2.1-7.1-2.2c0.1,1,0.3,2,0.4,3c1.1-0.2,2.2,0.3,2.9,1.1c1,1.3,0.8,3.2,0.8,4.8
			c0,3.4-0.2,6.9-1.8,9.9c0.8-0.1,1.6-0.2,2.4-0.3c-1.3-1.6-3-2.9-4.9-3.6c-1-0.4-2-0.6-3.1-0.8c-0.5,0-0.9-0.1-1.4-0.1
			c-0.1,0-0.3,0-0.4,0c-0.3,0-0.2,0.1,0.3,0.3c0,0,0-0.6,0-0.7c0-2.2,1.5-4.4,2.5-6.2c1.1-2,2.2-3.9,3.8-5.5
			c1.4-1.4-0.8-3.5-2.1-2.1c-1.8,1.8-3.1,4-4.3,6.2c-1.3,2.4-2.8,4.9-2.8,7.6c0,1.2,0.2,2.7,1.5,3.2c1,0.4,2.2,0.1,3.3,0.3
			c2.3,0.4,4.2,1.7,5.6,3.5c0.6,0.8,2,0.5,2.4-0.3c2.1-4,2.4-8.6,2.2-13.1c-0.1-2.1-0.5-4.2-2.1-5.7c-1.5-1.3-3.4-1.9-5.4-1.5
			c-1.7,0.3-1.2,2.9,0.4,3c1.7,0.1,3.6,0.1,5,1.3C174.5,98.8,176.7,96.7,175.2,95.4L175.2,95.4z"/>
	</g>
</g>
<g>
	<g>
		<path class="st1" d="M338.5,135.8c-29.1-6.1-58-13.7-86.8-21.3c-13.6-3.6-27.3-7.2-40.2-13.1c-33-15.1-59.1-44.5-93.3-56.7
			c-27.3-9.8-59.1-8.4-82-26.6C31.9,14.8,28,10.8,23,8.5c-4.9-2.3-11.4-2.2-15,2l-0.6-0.2c3,8.2,8.1,15.6,14.8,21
			c8.3,6.8,18.5,10.4,28.3,14.5c20.4,8.6,39.7,20,57.2,33.9c3.9,3.1,7.7,6.3,10.6,10.4c3.1,4.4,5,9.6,8.6,13.5
			c3.6,3.9,9.8,6.1,13.9,2.9c-0.6,8.3,3.2,16.9,9.7,21.8c6.5,4.9,15.4,6,22.8,2.8c3.8-1.6,7.2-4.3,11.2-5.3c5-1.3,10.3,0.3,15.3,1.8
			c69.2,21,141.6,30.1,213.6,27C389.2,145.3,363.6,141.1,338.5,135.8z M167.9,122.3c-0.2,0.5-0.5,1-0.9,1.4c-0.3,0.3-0.6,0.6-1,0.9
			c-0.5,0.5-1.2,0.9-1.9,1.1c-0.4,0-0.8,0.1-1.1,0.2c-0.8,0-1.5-0.2-2.2-0.6c-0.3-0.2-0.6-0.5-0.9-0.7c-0.4-0.4-0.7-0.9-0.9-1.4
			c-0.3-0.5-0.4-1.1-0.4-1.7c0-0.6,0.1-1.2,0.4-1.7c0.2-0.5,0.5-1,0.9-1.4c0.3-0.3,0.7-0.6,1-0.9c0.5-0.5,1.2-0.9,1.9-1.1
			c0.4,0,0.8-0.1,1.1-0.2c0.8,0,1.5,0.2,2.2,0.6c0.3,0.2,0.6,0.5,0.9,0.7c0.4,0.4,0.7,0.9,0.9,1.4c0.3,0.5,0.4,1.1,0.4,1.7
			C168.3,121.2,168.2,121.8,167.9,122.3z M178.5,102.7c-0.1,0.6-0.2,1.1-0.2,1.7c0,0.1,0,0.3,0,0.4c0,0,0-0.1,0-0.1
			c-0.2,1.8-1,3.2-2.3,3.9c0,0.7-0.2,1.4-0.3,2.1c0,0.1-0.1,0.3-0.1,0.4c0,0,0,0,0,0c0.6,4.6-5.9,5.7-7.9,2.2
			c-0.4-0.7-0.7-1.1-1.1-1.3c-0.2-0.1-0.5-0.2-0.7-0.3c-0.7-0.1-1.4,0.1-2.6-0.2c-2-0.5-3.5-2.4-3.5-4.6c0-0.3,0-0.6,0.1-0.8
			c-0.3-1.1-0.3-2.4,0-3.7c0.6-2.5,2.5-5.4,4.8-7.6c0.2-0.5,0.4-1,0.7-1.5c1.2-2.5,3.5-2.7,5.4-1.7c1.6-0.1,3,0.5,3.9,1.8
			c0.2,0.1,0.3,0.2,0.4,0.3c0.9,0.3,1.8,1,2.2,1.9c0.6,1.5,1.2,2.9,1.4,4.5C178.5,101,178.6,101.8,178.5,102.7z M214,127.6
			c-0.5-0.1-1.1-0.2-1.8-0.3c-6.6,1.5-12.7,0-19-2.4c-0.8-0.3-1.5-0.7-2.3-1c-0.2,0-0.4,0-0.6,0c-7,0.1-5.2-8.8-2.6-13.7
			c0.2-0.6,0.4-1.1,0.6-1.5c0-0.2,0-0.4,0.1-0.5c0-0.8,0.2-1.6,0.6-2.2c0.5-1,1.6-1.8,2.5-2c0.6-0.2,1.1-0.2,1.7-0.1
			c0.3,0,0.6,0.1,1,0.2c0.4,0,0.8,0,1.2,0.1c0.3,0.1,0.6,0.3,0.9,0.4c3.4-0.2,7,1,9.6,3.4c3.3,1.1,6.4,2.6,8.8,5.4
			c1.6,1.9,3,4.4,3.5,6.7C220.8,122.8,218.5,128.4,214,127.6z"/>
	</g>
	<g>
		<path class="st1" d="M338.9,134.4c-26.8-5.6-53.3-12.5-79.8-19.4c-12.7-3.3-25.4-6.5-37.7-11c-11.1-4.1-21.4-9.8-31.3-16.3
			c-18.9-12.4-36.1-27.2-56.2-37.6c-9.8-5.1-20.2-8.7-30.9-11.2c-10.8-2.5-21.8-4.2-32.5-6.9c-10.6-2.6-21-6.3-30.1-12.5
			C32.1,13.7,24,3.1,12.7,5.9C10.5,6.5,8.5,7.7,7,9.4C7.5,9.3,8,9.1,8.4,9C8.2,8.9,8,8.9,7.8,8.8c-1-0.3-2.2,0.7-1.9,1.9
			c3.8,10.2,10.5,19,19.6,25c9.7,6.4,21.1,9.9,31.7,14.7C68.4,55.5,79,61.4,89.2,68.1c5.1,3.3,10,6.8,14.8,10.5
			c4.8,3.7,9.8,7.5,13.3,12.6c3.4,5,5.4,11.1,10.3,14.9c3.9,3.1,9.6,4.6,13.9,1.4c-0.8-0.4-1.5-0.9-2.3-1.3
			c-0.5,7.9,2.6,16,8.5,21.4c6,5.4,14.5,7.6,22.3,5.7c4.1-1,7.5-3.4,11.3-5.2c5-2.4,9.9-1.8,15.1-0.3c9.7,2.7,19.3,5.7,29.1,8.2
			c39.2,10.1,79.3,16.5,119.7,19c22.7,1.5,45.4,1.7,68.1,0.7c1.8-0.1,2-2.4,0.4-3C389.6,143.9,364,139.6,338.9,134.4
			c-1.9-0.4-2.7,2.5-0.8,2.9c25.2,5.2,50.7,9.5,74.9,18.5c0.1-1,0.3-2,0.4-3c-39.3,1.7-78.8-0.3-117.8-5.8
			c-19.5-2.8-38.8-6.5-57.9-11c-9.6-2.3-19.1-4.8-28.5-7.5c-4.7-1.3-9.3-2.9-14-4.1c-4.3-1-8.8-1.4-13,0.2c-4.6,1.8-8.5,5-13.4,6
			c-4.5,1-9.5,0.4-13.6-1.6c-8.6-4.1-13.3-13.5-12.8-22.8c0.1-1.1-1.3-2-2.3-1.3c-4.2,3.1-9.5,0.4-12.5-3.1
			c-3.6-4.2-5.4-9.5-8.8-13.8c-3.4-4.4-7.9-7.9-12.3-11.3c-4.3-3.3-8.8-6.5-13.3-9.6C83.6,60.7,73.5,54.9,63,49.8
			c-9.9-4.8-20.5-8.3-30.2-13.4c-11-5.8-19.6-14.7-23.9-26.5c-0.6,0.6-1.2,1.2-1.9,1.9c0.2,0,0.4,0.1,0.6,0.2c0.5,0.1,1.1,0,1.5-0.4
			c3.6-4,9.6-3.6,14.1-1.3c5,2.6,9,6.9,13.5,10.2c8.5,6.4,18.6,10.4,28.9,13.3c21.2,5.8,43.3,7.5,63.3,17.1
			c20.1,9.7,37.3,24.2,55.6,36.6c9.2,6.3,18.8,12.1,29.1,16.5c11.7,5,24,8.4,36.3,11.6c26.1,6.9,52.2,13.8,78.5,19.6
			c3.2,0.7,6.5,1.4,9.8,2.1C339.9,137.7,340.8,134.8,338.9,134.4z"/>
		<path class="st1" d="M166.4,121.9C166.3,122.2,166.4,122,166.4,121.9c-0.1,0.2-0.1,0.3-0.2,0.3c0,0.1-0.1,0.1-0.1,0.2
			c-0.1,0.2,0.1-0.1,0,0.1c-0.3,0.3-0.6,0.6-1,0.9c-0.3,0.3-0.5,0.5-0.8,0.6c-0.1,0-0.2,0.1-0.3,0.1c0,0-0.3,0.1-0.1,0
			c-0.2,0.1-0.4,0.1-0.7,0.1c-0.1,0-0.2,0-0.4,0c0,0-0.3,0-0.1,0c0,0-0.3,0-0.1,0c0.2,0-0.2,0-0.2,0c-0.4-0.1-0.6-0.1-0.8-0.3
			c-0.2-0.1-0.3-0.3-0.5-0.4c0,0-0.4-0.4-0.3-0.3c-0.1-0.1-0.2-0.3-0.3-0.5c-0.1-0.2,0.1,0.2,0-0.1c0-0.1-0.2-0.6-0.2-0.4
			c-0.1-0.2-0.1-0.4-0.2-0.6c0,0,0,0.2,0,0c0-0.1,0-0.2,0-0.3c0-0.5,0-0.5,0.2-1c0,0,0,0,0-0.1c0,0.1,0,0.1,0.1-0.1
			c0-0.1,0.1-0.2,0.1-0.3c-0.1,0.2,0.2-0.3,0.2-0.3c0,0,0.2-0.2,0-0.1c0-0.1,0.1-0.1,0.2-0.2c0.2-0.2,0.4-0.3,0.6-0.5
			c0.3-0.2,0.6-0.6,0.8-0.8c0.2-0.2,0.6-0.4,0.8-0.4c0.2-0.1,0.4-0.1,0.6-0.1c0.3,0,0.3-0.1,0.5,0c0,0-0.2,0,0,0
			c0.1,0,0.2,0,0.3,0.1s0.2,0.1,0.3,0.1c0.3,0.1-0.3-0.1,0.2,0.1c0.3,0.1,0.7,0.5,1,0.8c0.2,0.2-0.1-0.1,0,0.1
			c0.1,0.1,0.1,0.2,0.2,0.3c0,0,0.1,0.3,0,0.1c0.1,0.2,0.1,0.3,0.2,0.5c-0.1-0.2,0,0.1,0,0.1c0,0.1,0.1,0.2,0.1,0.4
			c0.1,0.2,0-0.2,0,0.1c0,0.1,0,0.3,0,0.4c0,0.1,0,0.2,0,0.3c0,0.1,0,0.2,0,0.1c0,0.1,0,0.2-0.1,0.3c0,0-0.2,0.4-0.1,0.2
			c-0.3,0.7-0.2,1.6,0.5,2c0.7,0.4,1.7,0.2,2-0.5c1.2-2.5,0.5-5.4-1.5-7c-1-0.8-2.3-1.5-3.6-1.4c-1.4,0.1-2.8,0.5-3.8,1.5
			c-0.8,0.8-1.8,1.5-2.2,2.6c-0.2,0.5-0.5,1-0.6,1.7c-0.1,0.7-0.1,1.4,0,2.1s0.3,1.1,0.6,1.7c0.3,0.6,0.7,1.1,1.2,1.6
			c0.5,0.4,0.9,0.8,1.5,1c0.7,0.3,1.4,0.5,2.2,0.6c0.7,0,1.5-0.1,2.2-0.3c0.8-0.3,1.4-0.7,2-1.2c1-1,2-1.9,2.5-3.2
			c0.2-0.7-0.3-1.7-1-1.9C167.5,120.6,166.7,121.1,166.4,121.9z"/>
		<path class="st1" d="M177,102.7c-0.1,0.7-0.2,1.4-0.3,2.1c1,0,2,0,3,0c0,0,0-0.1,0-0.1c0.1-0.8-0.7-1.5-1.5-1.5
			c-0.9,0-1.4,0.7-1.5,1.5c-0.1,0.9-0.5,1.8-1.2,2.4c-0.5,0.4-0.9,0.5-1.1,1.1c-0.2,0.6-0.2,1.5-0.3,2.1c-0.3,1.1,0,2.3-1,3.1
			c-0.9,0.6-2.2,0.7-3.2,0.2c-0.5-0.2-0.8-0.5-1.1-1c-0.7-1-1.4-1.9-2.7-2.2c-1-0.2-2,0.1-2.9-0.2c-0.9-0.3-1.5-1-1.8-1.8
			c-0.4-0.9-0.2-1.9-0.3-2.8c-0.2-1.3,0-2.5,0.4-3.7c0.8-2.1,2.3-3.9,3.8-5.5c1.2-1.2,1.3-4.1,3.7-3.5c0.5,0.1,0.9,0.4,1.3,0.5
			c0.5,0.1,1.1,0,1.6,0.2c0.5,0.2,0.9,0.5,1.2,0.9c0.5,0.5,0.9,0.8,1.5,1.1c1.1,0.6,1.4,1.9,1.8,3C176.9,99.7,177.1,101.2,177,102.7
			c-0.2,1.9,2.8,1.9,3,0c0.1-1.5,0-3-0.4-4.4c-0.4-1.4-0.8-2.9-1.7-4c-0.4-0.5-0.9-1-1.4-1.3c-0.3-0.2-0.6-0.3-0.9-0.4
			c0.6,0.3-0.5-0.5,0,0c-1-1-1.8-1.7-3.1-2.1c-0.3-0.1-0.7-0.1-1-0.2c-0.1,0-1.1-0.1-0.4,0.1c-0.5-0.1-1-0.5-1.5-0.6
			c-1.1-0.2-2.2-0.1-3.3,0.4c-1.1,0.5-1.9,1.5-2.4,2.5c-0.3,0.6-0.5,1.2-0.9,1.7c-0.5,0.6-1.1,1.2-1.7,1.9c-1.7,2.1-3.1,4.7-3.3,7.4
			c-0.1,0.7-0.1,1.5,0.1,2.2c0.2,0.8,0.1-0.4,0,0.6c0,0.3,0,0.6,0,0.9c0.1,1.3,0.5,2.5,1.3,3.5s1.8,1.8,3,2.2
			c0.6,0.2,1.2,0.3,1.8,0.3c0.5,0,1.1-0.2,1.5,0.1c0.4,0.3,0.7,1,1,1.4c0.2,0.3,0.4,0.5,0.7,0.7c0.8,0.6,1.7,1.1,2.7,1.3
			c2,0.4,4.2-0.1,5.6-1.6c0.7-0.8,1.2-1.8,1.3-2.8c0-0.2,0-0.4,0-0.7c0-0.2,0-0.3,0-0.5c0,0.2,0,0.2,0.1,0c0.2-0.8,0.3-1.7,0.4-2.5
			c-0.2,0.4-0.5,0.9-0.7,1.3c1.9-1.1,2.8-3,3-5.2c-1,0-2,0-3,0c0,0,0,0.1,0,0.1c-0.2,1.9,2.8,1.9,3,0c0.1-0.7,0.2-1.4,0.3-2.1
			c0.1-0.8-0.8-1.5-1.5-1.5C177.6,101.1,177.1,101.9,177,102.7z"/>
		<path class="st1" d="M214.4,126.1c-0.8-0.1-1.7-0.3-2.5-0.3c-0.9,0.1-1.8,0.4-2.8,0.5c-1.8,0.2-3.7,0.1-5.6-0.1
			c-3.6-0.5-7.2-1.6-10.5-3c-0.7-0.3-1.3-0.8-2-0.9c-0.5,0-1.1,0.1-1.7,0c-0.8-0.2-1.5-0.5-1.9-1.3c-0.9-1.6-0.5-3.7-0.2-5.4
			c0.2-1,0.5-2,0.9-2.9c0.5-1.2,1.2-2.4,1.6-3.6c0.4-1.3,0.2-2.6,1.5-3.5c0.7-0.4,1.4-0.4,2.2-0.3c0.4,0.1,0.8,0.1,1.1,0.2
			c0.5,0.1,0.9,0.4,1.3,0.5c0.6,0.1,1.3,0,2,0c0.8,0,1.6,0.2,2.3,0.4c1.8,0.5,3.1,1.5,4.6,2.5c1.2,0.8,2.7,1.1,4,1.7
			c1.6,0.8,3,1.8,4.3,3.1c1.3,1.3,2.4,3,3.1,4.7c0.3,0.9,0.4,1.9,1,2.6c0.3,0.4,0.6,0.7,0.7,1.3
			C218.1,124.4,216.4,126.4,214.4,126.1c-1.9-0.3-2.7,2.6-0.8,2.9c3,0.5,5.7-0.9,6.8-3.8c0.5-1.2,0.5-2.6,0.2-3.8
			c-0.2-0.6-0.5-1.2-0.8-1.7c-0.4-0.6-0.5-1.2-0.8-2.2c-1.5-3.8-4.4-7-8-9c-0.8-0.5-1.7-0.8-2.5-1.2c-0.8-0.3-1.7-0.5-2.3-1.1
			c-1.5-1.2-3.3-2.1-5.2-2.6c-0.9-0.3-1.8-0.4-2.8-0.5c-0.5,0-0.9,0-1.4,0c-0.3,0-0.5-0.1-0.9-0.2c-1.7-0.6-3.9-0.8-5.5-0.1
			c-1.8,0.8-3,2.4-3.4,4.3c-0.2,1-0.2,1.3-0.5,2c-0.3,0.7-0.6,1.3-0.8,2c-1.7,4-3.6,11.4,1.6,13.8c0.7,0.3,1.4,0.5,2.2,0.6
			c0.4,0,0.8,0,1.2,0c-0.3,0,0.3,0.1,0.3,0.1c0.3,0.1,0.6,0.3,1,0.4c2.3,1,4.7,1.8,7.1,2.4c2.3,0.6,4.6,1,7,1c1.3,0,2.5,0,3.8-0.2
			c1.3-0.2,2.5-0.5,3.8-0.2C215.5,129.3,216.3,126.4,214.4,126.1z"/>
	</g>
</g>
<g>
	<path class="st2" d="M216.8,182c-10.3-22.2-33-37.6-56.7-38.1c-2.4-0.1-5.4-0.4-6.1-2.8c6.6-3.2,13.5-6.4,20.8-7.4
		c9.3-1.3,18.8,1,27.6,4.5c11.3,4.5,21.8,10.8,32.6,16.3C273,174,314.9,183.6,356.3,193c7.4,1.7,14.8,3.4,22.3,4.3
		c6.4,0.8,13.8,1.5,17.4,7c-19.4,0-38.9-1.6-58-4.9c-11.6-2-23.1-4.6-34.8-6.1c-22.9-2.9-46.2-1.7-69-5.6c-6.9-1.2-14-3-19.9-6.9"/>
	<g>
		<path class="st2" d="M218.1,181.2c-8.8-18.9-26.7-33.4-47.1-37.6c-2.8-0.6-5.8-1-8.7-1.2c-1.8-0.1-6,0.4-6.8-1.8
			c-0.2,0.6-0.5,1.1-0.7,1.7c7.6-3.7,15.5-7.3,24.1-7.5c8.5-0.2,16.8,2.2,24.6,5.4c8,3.3,15.5,7.5,23.1,11.5
			c7.5,4,15.1,7.8,22.8,11.2c15.3,6.7,31.2,12.1,47.2,16.8c16.1,4.7,32.4,8.6,48.8,12.3c8.5,2,16.9,4,25.4,5.6
			c3.8,0.7,7.7,1.1,11.6,1.6c3.1,0.5,6.3,1.1,9.1,2.7c1.3,0.8,2.4,1.8,3.3,3c0.4-0.8,0.9-1.5,1.3-2.3c-12.1,0-24.2-0.6-36.2-1.9
			c-12.2-1.3-24.2-3.4-36.2-5.7c-11.9-2.2-23.7-4-35.8-4.8c-12-0.8-24.1-1-36.1-2c-6.6-0.5-13.3-1.3-19.8-2.6
			c-6-1.2-11.8-2.9-17-6.2c-1.6-1-3.1,1.5-1.5,2.6c9.5,6.1,21.3,7.5,32.3,8.7c12.1,1.3,24.3,1.6,36.5,2.3
			c12.3,0.7,24.4,2.1,36.5,4.3c12,2.2,24,4.5,36.2,6c13.6,1.6,27.3,2.4,41.1,2.4c1.1,0,2-1.3,1.3-2.3c-3.9-5.7-10.9-6.8-17.3-7.6
			c-8.8-1.1-17.4-3-26-5c-16.7-3.8-33.4-7.7-50-12.2c-16.5-4.6-32.8-9.8-48.7-16.4c-8-3.3-15.8-7-23.4-11c-7.7-4.1-15.3-8.4-23.3-12
			c-7.9-3.5-16.1-6.5-24.8-7.3c-8.7-0.8-16.9,1.5-24.8,5c-2,0.9-3.9,1.8-5.9,2.8c-0.5,0.3-0.9,1.1-0.7,1.7c0.9,2.5,3.1,3.4,5.6,3.7
			c2.4,0.3,4.9,0.2,7.4,0.5c5.1,0.6,10.1,2,14.9,3.8c9.8,3.9,18.5,10.2,25.4,18.1c3.9,4.5,7.2,9.6,9.7,15
			C216.3,184.5,218.9,183,218.1,181.2L218.1,181.2z"/>
	</g>
</g>
<g>
	<g>
		<path class="st0" d="M190.9,121.9c-0.8,0.5-2.5-1.4-2.8-2c-1-1.6-0.4-3.7,0.2-5.4c0.5-1.8,0.9-3.7,1.5-5.5
			c0.7-1.8,2.1-2.3,3.9-2.3c6.7,0,13.7,3.2,18.3,8c1.2,1.2,2.3,2.6,3.2,4.1c0.4,0.7,0.8,1.4,1.2,2.2c0.4,0.9,0.7,2.2,1.3,3
			c0.1,0.1,0,0.5,0.1,0.2c0.2-0.3-0.4,0-0.5,0c-0.4,0.1-0.8,0.2-1.2,0.3c-1,0.2-2,0.4-3,0.5c-1.9,0.3-3.8,0.4-5.8,0.5
			c-3.8,0-7.6-0.5-11.1-1.9c-0.8-0.3-1.6-0.7-2.4-1.1c-0.7-0.4-1.9-0.9-2.4-1.7c-0.9-1.5,1.1-3.6,2.3-4.5c3.5-2.7,8.4-2.3,12.5-1.5
			c3.6,0.6,7.5,1.8,9.5,5.1c1,1.6,3.6,0.1,2.6-1.5c-2.3-3.8-6.4-5.5-10.6-6.3c-4.8-0.9-10.2-1.4-14.6,1.1c-2,1.1-3.7,2.9-4.5,5.1
			c-0.9,2.5,0.2,4.6,2.3,6c4,2.7,9,3.9,13.8,4.2c2.5,0.1,4.9,0,7.4-0.2c1.2-0.1,2.3-0.3,3.5-0.5c1.2-0.2,2.5-0.4,3.6-0.9
			c2.7-1.2,1.2-4.2,0.4-6.2c-0.9-2.1-2.1-4.1-3.5-6c-2.8-3.5-6.5-6.3-10.5-8.1c-3.9-1.7-8.6-3.1-12.9-2.7c-2.6,0.3-4.6,1.7-5.5,4.1
			c-0.5,1.2-0.7,2.5-1,3.7c-0.4,1.4-1,2.8-1.2,4.3c-0.4,2.5-0.1,5,1.7,6.8c1.5,1.5,3.9,3,5.9,1.8C194,123.5,192.5,120.9,190.9,121.9
			L190.9,121.9z"/>
	</g>
</g>
<g>
	<g>
		<path class="st2" d="M149,92.5c1.8,1.6,3.7,3.1,6.2,3.2c2.4,0.1,4.5-1.2,6.7-1.9c2.7-0.9,5.4-0.4,8.1,0.1c1,0.2,3,0.1,3.7,1.1
			c0.6,1,0.9,2.4,1,3.5c0.4,2.7,0.1,5.4-0.3,8.1c-0.2,1.2-0.4,2.4-0.7,3.5c-0.2,0.9-0.3,2.4-1.1,3c-1,0.7-2.3-0.4-3-1
			c-1-0.8-1.9-1.7-3-2.3c-1-0.6-2.1-1.1-3.3-1.2c-0.7-0.1-1.2,0.1-1.8,0.1c0.4,0,0.2,0.8,0.2-0.2c0-0.5-0.1-0.9,0-1.3
			c0.1-2.7,1.5-5.5,2.8-7.9c1.2-2.2,2.5-4.5,4.5-6c1.5-1.2-0.6-3.3-2.1-2.1c-2.1,1.7-3.7,4.1-4.9,6.5c-1.3,2.5-2.6,5.3-3.1,8.1
			c-0.2,1.4-0.3,3,0.2,4.4c0.2,0.5,0.5,1.1,1,1.4c0.8,0.4,1.5,0.2,2.3,0.2c3.1-0.2,5,3.2,7.6,4.4c2.7,1.2,5.2-0.1,6.2-2.8
			c1-2.7,1.4-5.9,1.7-8.8c0.3-3,0.3-6.2-0.7-9.1c-0.4-1.1-0.9-2.3-1.9-3c-1.3-0.9-3.2-1-4.8-1.2c-3.7-0.6-7-1-10.6,0.5
			c-1.4,0.6-3,1.5-4.5,1.3c-1.6-0.2-2.9-1.4-4-2.4C149.7,89.1,147.6,91.2,149,92.5L149,92.5z"/>
	</g>
</g>
<g>
	<g>
		<path class="st2" d="M154.5,98.9c-0.2,1.3-0.5,2.6-1,3.8c-0.2,0.6-0.6,1.2-0.9,1.7c-0.3,0.5-0.6,1-0.9,1.2c-0.3,0.2-0.5,0.3-1,0.1
			c-0.6-0.2-1.2-0.5-1.7-0.9c-1.4-0.7-2.7-1.5-4.1-2.2c-1.7-0.9-3.2,1.7-1.5,2.6c1.6,0.9,3.2,1.7,4.7,2.6c1.6,0.8,3.4,1.5,5.1,0.4
			c1.3-0.9,2.2-2.4,2.8-3.8c0.7-1.5,1.2-3.1,1.5-4.8c0.1-0.8-0.2-1.6-1-1.9C155.7,97.7,154.6,98.1,154.5,98.9L154.5,98.9z"/>
	</g>
</g>
<g>
	<g>
		<path class="st2" d="M156,115c2.9,0.6,5.5,2.3,7.7,4.2c1.1,0.9,2.5,1.9,3.2,3.1c0.3,0.6,0.5,1.2,0.5,1.9c0,0.4,0,0.8,0,1.1
			c0,0.2,0,0.4,0,0.6c0.1,0.4-0.1,0,0.2-0.1c0.2-0.1,0.5-0.1,0.8-0.2c0,0,0,0,0.1,0c-1.9-0.5-2.7,2.4-0.8,2.9
			c1.3,0.4,2.5-0.5,2.7-1.7c0.2-1,0.1-2.1,0-3.1c-0.1-1.1-0.4-2.1-1-3.1c-0.6-0.9-1.4-1.7-2.2-2.4c-3-2.7-6.3-5.2-10.3-6.1
			c-0.8-0.2-1.6,0.2-1.8,1C154.7,113.9,155.2,114.9,156,115L156,115z"/>
	</g>
</g>
<g>
	<g>
		<path class="st2" d="M165.7,120.1c-1.3,1.4-3.3,3.2-5.4,2.4c-0.9-0.3-1.6-1-2.3-1.6c-0.5-0.4-0.9-0.8-1.4-1.2
			c-0.2-0.2-0.5-0.4-0.7-0.6c-0.1-0.1-0.2-0.2-0.3-0.3c-0.3-0.4-0.3-0.2,0,0.7c-0.1,0.2-0.3,0.4-0.4,0.7c0,0,0.1,0,0.1-0.1
			c-0.2,0.1-0.4,0.3-0.7,0.4c0,0,0.1,0,0.1,0c0.8-0.2,1.2-1.1,1-1.9c-0.2-0.8-1-1.2-1.8-1c-1,0.2-1.6,1.4-1.2,2.3
			c0.3,0.8,1.2,1.5,1.8,2c1.2,1.1,2.5,2.4,3.9,3.1c1.6,0.8,3.4,1,5.1,0.4c1.7-0.6,3.1-1.8,4.3-3.1
			C169.1,120.9,167,118.7,165.7,120.1L165.7,120.1z"/>
	</g>
</g>
<g>
	<path class="st2" d="M170.2,100.3c-0.1-0.4-0.6-0.5-1-0.3s-0.6,0.5-0.8,0.9c-0.7,1.2-1.3,2.6-1.8,3.9c-0.2,0.7-0.4,1.5,0.1,2.1
		c0.5,0.6,1.4,0.5,2,0.2c2.3-0.9,3.8-3.5,3.6-6c-0.1-0.7-0.4-1.5-1-1.7c-0.7-0.2-1.4,0.4-1.9,0.9"/>
	<g>
		<path class="st2" d="M171.5,99.5c-0.2-0.6-0.9-1-1.5-1.1c-0.8-0.2-1.6,0.1-2.2,0.6c-0.8,0.7-1.2,1.8-1.7,2.8c-0.4,1-0.9,2-1.1,3.1
			c-0.3,1.3,0,2.8,1.2,3.5c1.9,1,4.3-0.2,5.6-1.7c1.3-1.4,2.1-3.4,2-5.3c0-1.2-0.4-2.6-1.5-3.2c-1.5-0.9-2.9,0-4,1
			c-0.5,0.6-0.6,1.6,0,2.1c0.6,0.5,1.5,0.6,2.1,0c0.1-0.1,0.2-0.2,0.4-0.4c0.2-0.2,0,0,0,0c0.1,0,0.1-0.1,0.2-0.1c0.2-0.2,0,0,0,0
			c0,0,0.1,0,0.1,0c-0.1,0-0.1,0-0.2,0c0.3,0,0,0,0,0c-0.2-0.1-0.2-0.1-0.1-0.1c0.1,0.1,0.1,0-0.1-0.1c0,0,0.1,0.1,0.1,0.1
			c0,0-0.2-0.2-0.1-0.1c0,0,0.2,0.2,0,0c-0.1-0.1,0,0,0,0.1c0,0.1,0.1,0.3,0.1,0.4c0,0.2,0-0.3,0-0.1c0,0.1,0,0.2,0,0.3
			c0,0.3,0,0.6,0,0.9c0.1-0.3,0-0.2,0-0.1c0,0.1,0,0.1,0,0.2c0,0.2-0.1,0.4-0.1,0.5c0,0-0.2,0.4-0.2,0.4c0,0,0.2-0.3,0,0
			c0,0.1-0.1,0.1-0.1,0.2c-0.1,0.3-0.3,0.5-0.5,0.8c0,0-0.1,0.1-0.1,0.2c0.2-0.2,0.1-0.1,0,0c-0.1,0.1-0.2,0.2-0.3,0.3
			s-0.2,0.2-0.3,0.3c0,0-0.1,0.1-0.2,0.1c0.2-0.1,0.2-0.1,0.1-0.1c0,0-0.1,0.1-0.1,0.1c-0.2,0.2-0.5,0.3-0.8,0.4
			c-0.2,0.1,0,0.1,0.1,0c0,0-0.2,0.1-0.2,0.1c-0.1,0-0.1,0-0.2,0.1c-0.3,0.1,0.2,0,0,0c-0.1,0-0.1,0-0.2,0c0,0,0,0,0,0
			c-0.1,0-0.1,0,0,0c0,0,0.1,0,0.1,0c-0.1,0-0.1,0,0,0c0.1,0,0.1,0.1,0,0c0.3,0.2,0.1,0.1,0.1,0c0.2,0.3,0.1,0.1,0,0
			c0.2,0.4,0,0.1,0,0.1c0-0.1,0-0.1,0,0c0,0.1,0,0.1,0,0c0,0,0-0.2,0-0.2c0,0-0.1,0.4,0,0c0-0.1,0.1-0.3,0.1-0.5
			c0.1-0.4,0.2-0.7,0.4-1.1c0-0.1,0.1-0.2,0.1-0.3c0-0.1,0.1-0.3,0-0.1c0.1-0.2,0.2-0.4,0.3-0.6c0.2-0.4,0.4-0.8,0.6-1.1
			c0.1-0.2,0.2-0.4,0.3-0.5c0-0.1,0.1-0.1,0.1-0.2c0.1-0.2-0.2,0.2,0,0c0.2-0.2,0,0,0,0c-0.2,0.1-0.2,0.1-0.1,0c0.1,0,0.1,0-0.2,0
			c-0.1,0-0.3,0-0.4-0.1c-0.1,0-0.3-0.4-0.2-0.2c0.3,0.7,1.4,0.9,2,0.5C171.7,101.1,171.8,100.3,171.5,99.5L171.5,99.5z"/>
	</g>
</g>
<g>
	<path class="st2" d="M147.5,73.7c-10.8-8.9-23.1-15.7-35.8-21.2c-16.1-6.9-32.9-11.8-49.5-17.1c-5.5-1.8-11.1-3.5-16.3-6.1
		c-5.7-2.8-10.9-6.5-16.7-9.1c-2.4-1.1-5.5-1.9-7.6-0.3c-2.5,1.8-2.3,5.9-0.5,8.4c1.8,2.5,4.7,3.9,7.5,5.1
		C47.8,42.2,66.6,52,84.9,62.8c15.9,9.5,31.8,20.2,41.7,36.2c1.4,2.2,3.6,4.9,5.9,3.7c2-1,1.9-3.9,2.2-6.1c0.3-2.5,1.6-4.8,3.5-6.4
		c1.9,1,4.2,1.5,6.3,1.3c-1.1-3.2,0-7.2,2.6-9.3s6.5-2.2,9.2-0.3"/>
	<g>
		<path class="st2" d="M148.6,72.7C132.4,59.4,113.1,50.8,93.5,44c-10.4-3.6-20.9-6.8-31.3-10.1c-5.2-1.6-10.4-3.3-15.3-5.7
			c-4.7-2.3-9-5.2-13.6-7.6c-3.6-1.9-8.9-4.7-12.7-1.7c-3.1,2.5-2.8,7.4-0.6,10.4c2.8,3.8,7.7,5.4,11.8,7.3c4.9,2.3,9.8,4.6,14.6,7
			c9.8,4.9,19.5,10.1,29.1,15.5c8.5,4.9,17,9.9,25.1,15.6c7.6,5.4,14.8,11.6,20.5,19c1.5,1.9,2.9,3.9,4.2,5.9
			c1.1,1.8,2.6,3.8,4.7,4.6c1.9,0.7,4,0,5-1.7c1-1.7,1-3.7,1.3-5.6c0.3-2.2,1.4-4.2,3.1-5.6c-0.6,0.1-1.2,0.2-1.8,0.2
			c2.2,1.1,4.6,1.7,7.1,1.5c0.9-0.1,1.8-0.9,1.5-1.9c-0.8-2.6-0.2-5.6,1.8-7.5c2.2-2,5.5-2,7.8-0.4c1.6,1.1,3.1-1.5,1.5-2.6
			c-3.4-2.3-8.1-2-11.2,0.6c-3,2.5-4,7-2.8,10.6c0.5-0.6,1-1.3,1.5-1.9c-2,0.1-3.8-0.2-5.6-1.1c-0.6-0.3-1.3-0.2-1.8,0.2
			c-1.6,1.4-2.8,3.3-3.5,5.3c-0.6,1.9-0.4,3.9-1,5.8c-0.7,2.2-2.5,0.9-3.6-0.4c-1.4-1.6-2.4-3.6-3.7-5.4c-5.2-7.3-11.7-13.5-18.8-19
			C99.5,70,91.9,65.3,84.2,60.7c-9-5.3-18.1-10.4-27.4-15.2C47.7,40.7,38.4,36.3,29,32c-3.3-1.5-7.6-3.5-7.7-7.8
			c0-1.8,0.8-3.4,2.7-3.6c2.1-0.3,4.3,0.9,6.1,1.8c4.5,2.2,8.6,5,13,7.3c4.5,2.4,9.2,4.2,14,5.8c9.8,3.3,19.8,6.2,29.7,9.4
			c19,6.3,37.7,13.8,54,25.6c1.9,1.4,3.8,2.9,5.7,4.4C147.9,76,150.1,73.9,148.6,72.7L148.6,72.7z"/>
	</g>
</g>
<g>
	<g>
		<path class="st2" d="M153.3,78.4c-2.6-2.6-5.3-5.1-8.2-7.5c-0.6-0.5-1.5-0.6-2.1,0c-0.5,0.5-0.7,1.6,0,2.1
			c2.8,2.4,5.6,4.8,8.2,7.5c0.5,0.6,1.6,0.6,2.1,0C153.9,79.9,153.9,79,153.3,78.4L153.3,78.4z"/>
	</g>
</g>
<g>
	<g>
		<path class="st2" d="M145.8,106.5c1,0.4,2.1,0.2,3.2,0c1.1-0.2,2.1-0.4,3.1-0.9c1.7-0.8,3-2.2,4.2-3.6c-0.8-0.6-1.6-1.2-2.4-1.8
			c-0.6,0.9-1.2,1.6-1.8,2.4c-0.3,0.4-0.7,0.8-1,1.2c-0.2,0.2-0.3,0.4-0.5,0.5c0,0-0.2,0.1,0,0c-0.1,0.1-0.2,0.2-0.4,0.2
			c-0.7,0.4-1,1.4-0.5,2c0.4,0.7,1.3,1,2,0.5c1-0.6,1.8-1.6,2.5-2.5c0.8-1,1.5-2,2.3-3c0.4-0.6,0.2-1.5-0.4-1.9
			c-0.6-0.4-1.5-0.4-2,0.1c-1.1,1.2-2.1,2.3-3.4,3c0,0-0.5,0.2-0.2,0.1c-0.2,0.1-0.4,0.1-0.6,0.2c-0.4,0.1-0.9,0.2-1.3,0.3
			c-0.8,0.1-1.3,0.3-2,0c-0.7-0.3-1.7,0.3-1.8,1C144.6,105.5,145,106.2,145.8,106.5L145.8,106.5z"/>
	</g>
</g>
<g>
	<g>
		<path class="st2" d="M169.1,115.6c1.6,1,3.2,2.1,4.6,3.4c0.8,0.7,1.7,1.6,2.8,0.9c1-0.6,1-1.6,0.8-2.7c-0.5-4-0.3-8.1,0.2-12.1
			c0.1-0.8-0.2-1.6-1-1.9c-0.7-0.2-1.7,0.2-1.8,1c-0.3,2.4-0.6,4.8-0.6,7.2c0,1.2,0,2.4,0.1,3.5c0,0.5,0.1,1.1,0.1,1.6
			c0,0.3,0.1,0.5,0.1,0.8c0,0.2,0.1,0.4,0.1,0.7c0,0.1,0,0,0.1-0.3c0.2-0.2,0.4-0.4,0.5-0.5c0,0-0.1,0-0.1,0.1
			c0.2-0.1,0.5-0.1,0.8-0.2c0,0-0.1,0-0.2,0c0.2,0.1,0.5,0.1,0.8,0.2c-0.2-0.1-0.8-0.7-1.1-1c-0.5-0.4-1-0.9-1.6-1.3
			c-1-0.7-2-1.4-3-2.1C169,112,167.5,114.6,169.1,115.6L169.1,115.6z"/>
	</g>
</g>
<g>
	<g>
		<path class="st2" d="M175.8,115.8c0-0.1-0.1-0.1-0.1-0.2c0,0.1,0.1,0.2,0.2,0.4c-0.1-0.1-0.1-0.3-0.1-0.4c0,0.1,0,0.3,0,0.4
			c0-0.1,0-0.3,0-0.4c0,0.1,0,0.3,0,0.4c0-0.1,0.1-0.3,0.1-0.4C175.9,115.7,175.8,115.8,175.8,115.8
			C175.8,115.9,175.8,115.9,175.8,115.8c0-0.2,0.1-0.3,0.1-0.5c0-0.2,0-0.4,0-0.6c0-0.2-0.1-0.4-0.3-0.5c-0.1-0.2-0.2-0.3-0.4-0.4
			c-0.1,0-0.2-0.1-0.4-0.1c-0.3-0.1-0.5-0.1-0.8,0c-0.1,0-0.2,0.1-0.4,0.1c-0.2,0.1-0.4,0.3-0.5,0.5c-0.1,0.2-0.2,0.5-0.3,0.7
			c0,0.2-0.1,0.4-0.1,0.6c0,0.1,0,0.1,0,0.2c0,0.2,0,0.4,0.1,0.6c0,0.1,0,0.1,0,0.2c0,0.2,0.1,0.4,0.2,0.5c0,0.1,0.1,0.1,0.1,0.2
			c0.1,0.2,0.2,0.3,0.4,0.4c0.1,0.1,0.3,0.2,0.5,0.3c0.2,0.1,0.4,0.1,0.6,0c0.2,0,0.4-0.1,0.6-0.2c0.1-0.1,0.2-0.2,0.3-0.2
			c0.2-0.2,0.3-0.4,0.4-0.7c0-0.1,0-0.3,0-0.4C176.1,116.3,176,116.1,175.8,115.8L175.8,115.8z"/>
	</g>
</g>
<g>
	<g>
		<path class="st2" d="M158.1,95.4C158.2,95.4,158.3,95.4,158.1,95.4c0.1-0.1,0.2-0.1,0.3-0.1c-0.2,0-0.1,0,0,0c0.4,0-0.1,0,0.1,0
			c0.1,0,0.2,0,0.3,0.1c0.2,0.1-0.2-0.1,0,0c0,0,0.3,0.1,0.2,0.1c-0.1-0.1,0.1,0.1,0.1,0.1c0.1,0.1,0.2,0.1,0.2,0.2
			c0.1,0.1,0.1,0.1,0,0c0,0,0.1,0.1,0.1,0.1c0,0.1,0.1,0.2,0.2,0.3c0,0,0.1,0.2,0,0.1c0.1,0.2,0.1,0.4,0.2,0.6c0,0.1,0,0.2,0.1,0.3
			c0,0.3,0,0,0,0.2c0.1,1-0.1,2-0.2,3c-0.2,1.1-0.3,2.2-0.5,3.2c-0.1,0.8,0.2,1.6,1,1.9c0.7,0.2,1.7-0.2,1.8-1
			c0.2-1.3,0.4-2.7,0.6-4c0.2-1.5,0.4-2.9,0-4.4c-0.3-1.3-1.1-2.5-2.2-3.1c-1.2-0.7-2.7-0.8-3.9-0.1c-0.7,0.4-0.9,1.4-0.5,2
			C156.5,95.6,157.4,95.8,158.1,95.4L158.1,95.4z"/>
	</g>
</g>
<g>
	<g>
		<path class="st2" d="M161.3,93.8c0,0-0.1,0.1-0.1,0.1c0.8,0.5,1.7,1,2.5,1.5c0-0.2,0.1-0.4,0.2-0.6c0,0.1-0.1,0.2-0.2,0.4
			c0-0.1,0.1-0.2,0.2-0.3c-0.1,0.1-0.2,0.2-0.2,0.3c0-0.1,0.1-0.1,0.2-0.2c-0.1,0.1-0.2,0.2-0.3,0.2c0.1,0,0.1-0.1,0.2-0.1
			c-0.1,0-0.2,0.1-0.4,0.1c0.3-0.1,0.6-0.1,0.9-0.2c0.3,0,0.7-0.1,1-0.1c-0.4-0.9-0.8-1.8-1.2-2.7c-1,0.8-2,1.6-3,2.5
			c-0.3,0.3-0.5,0.8-0.4,1.3c0,0.2,0.1,0.4,0.2,0.6c0.1,0.2,0.3,0.4,0.5,0.5c0.1,0.1,0.3,0.1,0.4,0.2c0.1,0,0.3,0.1,0.5,0.1
			c0.3,0,0.6-0.1,0.9-0.2c0.1-0.1,0.3-0.2,0.4-0.3c0.3-0.2,0.6-0.4,0.9-0.6c-0.8-0.4-1.5-0.9-2.3-1.3c0,0.1,0,0.2,0,0.3
			c0-0.1,0-0.3,0-0.4c0,0.1,0,0.2-0.1,0.4c0-0.1,0.1-0.2,0.2-0.4c0,0.1-0.1,0.2-0.2,0.3c0.1-0.1,0.2-0.2,0.2-0.3
			c0,0-0.1,0.1-0.1,0.1c-0.3,0.3-0.4,0.7-0.4,1.1c0,0.4,0.2,0.8,0.4,1.1c0.3,0.3,0.7,0.5,1.1,0.4c0.4,0,0.8-0.1,1.1-0.4
			c0.5-0.6,0.9-1.3,0.8-2.1c0-0.5-0.3-1-0.7-1.3c-0.4-0.2-1.1-0.3-1.5,0c-0.2,0.2-0.4,0.3-0.7,0.5c-0.2,0.1-0.4,0.3-0.6,0.4
			c0.1,0,0.2-0.1,0.4-0.1c0,0,0,0-0.1,0c0.1,0,0.3,0,0.4,0c0,0,0,0-0.1,0c0.1,0,0.3,0,0.4,0c0,0,0,0,0,0c0.1,0,0.2,0.1,0.4,0.1
			c0,0,0,0,0,0c0.1,0.8,0.2,1.6,0.3,2.4c0.8-0.8,1.6-1.5,2.5-2.1c-0.1,0.1-0.2,0.2-0.3,0.2c0.1,0,0.1-0.1,0.2-0.1
			c0.2-0.1,0.3-0.2,0.4-0.4c0.1-0.1,0.2-0.3,0.3-0.5c0.1-0.3,0.1-0.7-0.1-1c-0.1-0.3-0.3-0.6-0.6-0.7c-0.1,0-0.2-0.1-0.4-0.1
			c-0.3-0.1-0.5-0.1-0.8,0c-0.3,0-0.7,0.1-1,0.1c-0.2,0-0.3,0-0.5,0.1c-0.3,0-0.5,0.1-0.7,0.2c-0.1,0-0.1,0-0.2,0.1
			c-0.1,0.1-0.3,0.2-0.4,0.3c-0.2,0.2-0.3,0.4-0.4,0.6c-0.2,0.3-0.3,0.7-0.4,1.1c-0.1,0.3-0.1,0.7,0.1,1c0.1,0.3,0.3,0.6,0.6,0.7
			c0.2,0.1,0.5,0.2,0.8,0.2c0.4,0,0.8-0.2,1.1-0.4c0,0,0.1-0.1,0.1-0.1c0.3-0.2,0.4-0.7,0.4-1.1c0-0.4-0.2-0.8-0.4-1.1
			c-0.3-0.3-0.7-0.5-1.1-0.4c-0.1,0-0.3,0-0.4,0C161.7,93.5,161.5,93.6,161.3,93.8L161.3,93.8z"/>
	</g>
</g>
<g>
	<g>
		<path class="st2" d="M231.7,135.4c5.6,1.9,11.5,2.5,17.3,3.4c6,0.9,11.7,2.2,17.5,3.9c11.6,3.3,23.3,5.5,35.3,6.9
			c6.7,0.8,13.4,1.4,20.1,2c1.9,0.2,1.9-2.8,0-3c-11.8-1-23.7-2.1-35.4-4.2c-5.8-1-11.6-2.4-17.3-4c-5.7-1.6-11.4-3.2-17.3-4.1
			c-6.5-1-13.1-1.6-19.4-3.7C230.7,131.9,229.9,134.8,231.7,135.4L231.7,135.4z"/>
	</g>
</g>
<g>
	<g>
		<path class="st2" d="M332.7,152.2c16.2,1.3,32.4,1.8,48.6,1.4c1.9,0,1.9-3,0-3c-16.2,0.4-32.5-0.1-48.6-1.4
			C330.8,149,330.8,152,332.7,152.2L332.7,152.2z"/>
	</g>
</g>
<g>
	<g>
		<path class="st0" d="M208.7,106.3c-5.9-4.6-13-7.2-20.5-7.4c-1.9,0-1.9,3,0,3c6.6,0.1,13.1,2.4,18.4,6.5c0.6,0.5,1.5,0.6,2.1,0
			C209.2,107.9,209.3,106.8,208.7,106.3L208.7,106.3z"/>
	</g>
</g>
<g>
	<g>
		<path class="st0" d="M140.3,77c-0.8,4.2-0.6,8.6,0.8,12.6c0.3,0.8,1,1.3,1.8,1c0.7-0.2,1.3-1.1,1-1.9c-1.2-3.5-1.5-7.3-0.8-11
			c0.2-0.8-0.2-1.6-1-1.9C141.4,75.7,140.5,76.2,140.3,77L140.3,77z"/>
	</g>
</g>
<g>
	<g>
		<path class="st0" d="M134.7,80.4c0.2,2.7,0.7,5.4,1.3,8c0.2,0.8,1.1,1.3,1.8,1c0.8-0.2,1.2-1,1-1.9c-0.3-1.2-0.6-2.5-0.8-3.7
			c0-0.3-0.1-0.6-0.1-0.9c0-0.2,0-0.3-0.1-0.5c0-0.1,0-0.1,0-0.2c0,0.2,0,0.1,0,0c-0.1-0.6-0.2-1.3-0.2-1.9
			c-0.1-0.8-0.6-1.5-1.5-1.5C135.5,79,134.7,79.6,134.7,80.4L134.7,80.4z"/>
	</g>
</g>
<g>
	<g>
		<path class="st0" d="M130,78c-0.1,2.4,0.2,4.9,1,7.2c0.2,0.7,1,1.3,1.8,1c0.7-0.2,1.3-1,1-1.9c-0.4-1.1-0.6-2.2-0.8-3.3
			c0-0.1,0-0.1,0,0.1c0-0.1,0-0.2,0-0.3c0-0.1,0-0.3,0-0.4c0-0.3,0-0.6-0.1-0.8c0-0.6,0-1.2,0-1.7c0-0.8-0.7-1.5-1.5-1.5
			C130.7,76.5,130,77.1,130,78L130,78z"/>
	</g>
</g>
<g>
	<g>
		<path class="st0" d="M35.6,35c9.4,5.4,18.9,10.5,28.5,15.3c1.7,0.9,3.2-1.7,1.5-2.6c-9.6-4.9-19.1-10-28.5-15.3
			C35.4,31.5,33.9,34.1,35.6,35L35.6,35z"/>
	</g>
</g>
<g>
	<g>
		<path class="st0" d="M56.5,43.5c5.1,2.2,10.1,4.7,14.9,7.6c1.7,1,3.2-1.6,1.5-2.6c-4.8-2.8-9.8-5.3-14.9-7.6
			c-0.7-0.3-1.6-0.2-2,0.5C55.6,42.1,55.8,43.2,56.5,43.5L56.5,43.5z"/>
	</g>
</g>
<g>
	<g>
		<path class="st0" d="M63,41.5c2.9,1.1,5.9,2.1,8.9,3.1c0.8,0.2,1.7-0.3,1.9-1c0.2-0.8-0.2-1.6-1-1.9c-3-1-5.9-2-8.9-3.1
			c-0.7-0.3-1.7,0.3-1.9,1C61.7,40.5,62.2,41.2,63,41.5L63,41.5z"/>
	</g>
</g>
<g>
	<g>
		<path class="st0" d="M208.1,114.3c0.7,0.1,1.3,0.3,2,0.5c-0.1,0-0.2-0.1-0.4-0.1c0.5,0.2,1,0.5,1.4,0.8c0.3,0.2,0.8,0.2,1.2,0.1
			s0.7-0.4,0.9-0.7c0.2-0.4,0.3-0.8,0.2-1.2s-0.3-0.7-0.7-0.9c-1.1-0.8-2.4-1.3-3.7-1.5c-0.2-0.1-0.4-0.1-0.6,0
			c-0.2,0-0.4,0.1-0.6,0.2c-0.3,0.2-0.6,0.5-0.7,0.9c-0.1,0.4-0.1,0.8,0.2,1.2C207.4,113.9,207.7,114.3,208.1,114.3L208.1,114.3z"/>
	</g>
</g>
<g>
	<g>
		<path class="st0" d="M179,139.1c1,3.9,2.2,7.7,3.5,11.5c0.2,0.8,1,1.3,1.8,1c0.8-0.2,1.3-1.1,1-1.9c-1.2-3.8-2.4-7.7-3.5-11.5
			C181.4,136.4,178.5,137.2,179,139.1L179,139.1z"/>
	</g>
</g>
<g>
	<g>
		<path class="st0" d="M183.6,140.9c1.1,4.8,2.4,9.6,3.9,14.3c0.6,1.8,3.5,1,2.9-0.8c-1.5-4.7-2.8-9.5-3.9-14.3
			C186.1,138.3,183.2,139.1,183.6,140.9L183.6,140.9z"/>
	</g>
</g>
<g>
	<g>
		<path class="st0" d="M189.2,140.9c0.9,5.8,2.1,11.6,3.5,17.2c0.5,1.9,3.4,1.1,2.9-0.8c-1.4-5.7-2.6-11.5-3.5-17.2
			c-0.1-0.8-1.1-1.2-1.8-1C189.3,139.3,189,140.1,189.2,140.9L189.2,140.9z"/>
	</g>
</g>
<g>
	<g>
		<path class="st0" d="M194.9,151.1c0.6,3.1,1.2,6.3,1.8,9.4c0.2,0.8,1.1,1.3,1.8,1c0.8-0.3,1.2-1,1-1.9c-0.6-3.1-1.2-6.3-1.8-9.4
			c-0.2-0.8-1.1-1.3-1.8-1C195.1,149.5,194.7,150.3,194.9,151.1L194.9,151.1z"/>
	</g>
</g>
<g>
	<g>
		<path class="st0" d="M199.4,160.7c0,0.3,0.1,0.5,0.1,0.8c0,0.2,0,0.4,0.1,0.6c0.1,0.2,0.2,0.4,0.3,0.5c0.1,0.1,0.3,0.2,0.5,0.3
			c0.2,0.1,0.4,0.1,0.6,0.1c0.1,0,0.3,0,0.4,0c0.2-0.1,0.5-0.2,0.7-0.4c0.1-0.1,0.2-0.2,0.2-0.3c0.1-0.2,0.2-0.5,0.2-0.8
			c0-0.3-0.1-0.5-0.1-0.8c0-0.2,0-0.4-0.1-0.6c-0.1-0.2-0.2-0.4-0.3-0.5c-0.1-0.1-0.3-0.2-0.5-0.3c-0.2-0.1-0.4-0.1-0.6-0.1
			c-0.1,0-0.3,0-0.4,0c-0.2,0.1-0.5,0.2-0.7,0.4c-0.1,0.1-0.2,0.2-0.2,0.3C199.5,160.2,199.4,160.4,199.4,160.7L199.4,160.7z"/>
	</g>
</g>
<g>
	<g>
		<path class="st0" d="M320.2,189.1c5.5,1.6,11.1,2.8,16.8,3.6c0.8,0.1,1.6-0.2,1.8-1c0.2-0.7-0.2-1.7-1-1.9
			c-5.7-0.8-11.3-2-16.8-3.6C319.2,185.6,318.4,188.5,320.2,189.1L320.2,189.1z"/>
	</g>
</g>
<g>
	<g>
		<path class="st0" d="M326.8,194.9c3.9,0.6,7.8,1.3,11.7,2.1c0.8,0.2,1.6-0.2,1.8-1c0.2-0.7-0.2-1.7-1-1.9
			c-3.9-0.8-7.8-1.5-11.7-2.1c-0.8-0.1-1.6,0.2-1.8,1C325.5,193.8,326,194.8,326.8,194.9L326.8,194.9z"/>
	</g>
</g>
<g>
	<g>
		<path class="st0" d="M235.6,161.3c9.2,5,19.1,9,29.2,11.7c1.9,0.5,2.7-2.4,0.8-2.9c-9.9-2.7-19.5-6.5-28.5-11.4
			C235.4,157.8,233.9,160.4,235.6,161.3L235.6,161.3z"/>
	</g>
</g>
<g>
	<g>
		<path class="st0" d="M243.8,172c5,1.8,10.1,3.1,15.3,3.9c0.8,0.1,1.6-0.2,1.8-1c0.2-0.7-0.2-1.7-1-1.9c-5.2-0.8-10.3-2.1-15.3-3.9
			c-0.8-0.3-1.6,0.3-1.8,1C242.6,170.9,243.1,171.7,243.8,172L243.8,172z"/>
	</g>
</g>
<g>
	<g>
		<path class="st0" d="M248,178.3c2.1,1,4.4,1.7,6.7,2c0.4,0.1,0.8,0.1,1.2-0.1c0.3-0.2,0.6-0.5,0.7-0.9c0.2-0.7-0.2-1.7-1-1.9
			c-1.1-0.1-2.1-0.4-3.2-0.7c-0.5-0.1-1-0.3-1.5-0.5c-0.1,0-0.2-0.1-0.3-0.1c-0.1,0-0.1-0.1-0.2-0.1c0.2,0.1,0.2,0.1,0,0
			c-0.2-0.1-0.5-0.2-0.7-0.3c-0.7-0.3-1.7-0.2-2,0.5C247.2,176.9,247.3,178,248,178.3L248,178.3z"/>
	</g>
</g>
<g>
	<path class="st2" d="M132.5,104c1.1,1.1,2.7,1.2,4.2,1.3c1.5,0.1,3.2,0.4,4,1.6c0.7,1,0.7,2.2,0.8,3.4c0.3,2.8,1.1,5.5,2.4,7.9
		c0.7,1.3,1.6,2.5,2.5,3.7c2.3,3.1,5,6,8.5,7.6s7.8,1.5,10.7-1c0.6-0.5,1.1-1.1,1.3-1.8c0.2-0.7,0.2-1.6-0.3-2.2
		c-0.5-0.6-1.3-0.8-2.1-0.7c-0.8,0.1-1.5,0.4-2.2,0.6c-1,0.3-2,0.4-3,0.4c-2.1,0.1-4.4,0.2-6.3-0.8c-1.2-0.6-2.2-1.5-3.3-2.5
		c-1.1-1.1-2.3-2.1-3.2-3.4c-2.7-3.5-3.6-8.2-6.5-11.6"/>
	<g>
		<path class="st2" d="M131.4,105.1c1.1,1,2.3,1.4,3.8,1.6c1.2,0.2,3,0,4,0.8c1,0.9,0.8,2.9,1,4.1c0.3,1.7,0.7,3.4,1.4,5
			c1.3,3.1,3.2,5.8,5.4,8.3c2,2.4,4.4,4.6,7.2,5.9c2.6,1.2,5.5,1.6,8.3,1c2.6-0.6,5.7-2.5,6-5.4c0.2-1.4-0.4-2.8-1.6-3.5
			c-1.3-0.8-2.8-0.5-4.1-0.1c-2.9,0.9-7,1.4-9.7-0.3c-1.5-0.9-2.8-2.4-4.1-3.6c-1.2-1.3-2.2-2.7-3-4.3c-1.5-3-2.7-6.2-4.9-8.9
			c-1.2-1.5-3.4,0.6-2.1,2.1c1.8,2.1,2.8,4.7,3.9,7.2c1.2,2.5,2.6,4.6,4.5,6.6c2,2,4.2,4.1,7.2,4.7c2.8,0.5,6,0.3,8.7-0.5
			c0.9-0.3,3-0.8,2,0.9c-0.7,1.1-2.1,1.8-3.3,2.1c-2.4,0.7-5.1,0.2-7.3-1c-2.5-1.4-4.5-3.5-6.3-5.6c-1.9-2.3-3.6-4.9-4.6-7.8
			c-0.5-1.6-0.8-3.2-1-4.9c-0.2-1.5-0.4-3-1.5-4c-1-1-2.3-1.4-3.7-1.6c-1.4-0.2-3.1,0-4.2-1C132.1,101.7,130,103.8,131.4,105.1
			L131.4,105.1z"/>
	</g>
</g>
<g>
	<g>
		<path class="st2" d="M168.6,123.8c0,0,0-0.1,0-0.1c0,0.1-0.1,0.2-0.2,0.4C168.6,124,168.6,123.9,168.6,123.8
			c0,0.1-0.1,0.2-0.2,0.3C168.5,124,168.6,123.9,168.6,123.8c0.2-0.1,0.3-0.2,0.3-0.4c0.1-0.2,0.1-0.4,0.1-0.6c0-0.2,0-0.4-0.1-0.6
			c-0.1-0.2-0.2-0.4-0.3-0.5c-0.1-0.1-0.2-0.2-0.3-0.2c-0.2-0.1-0.5-0.2-0.8-0.2c-0.1,0-0.3,0-0.4,0c-0.2,0.1-0.5,0.2-0.7,0.4
			c0,0-0.1,0.1-0.1,0.1c0,0,0,0-0.1,0.1c-0.1,0.1-0.2,0.2-0.3,0.3c0,0,0,0,0,0c0,0-0.1,0.1-0.1,0.2c0,0,0,0,0,0
			c-0.1,0.1-0.1,0.3-0.2,0.4c0,0,0,0.1,0,0.1c-0.1,0.2-0.1,0.4,0,0.6c0,0.2,0.1,0.4,0.2,0.6c0.1,0.2,0.2,0.3,0.4,0.4
			c0.1,0.1,0.3,0.2,0.5,0.3c0.1,0,0.3,0,0.4,0c0.3,0,0.5-0.1,0.8-0.2c0.1-0.1,0.2-0.2,0.3-0.2C168.4,124.3,168.5,124.1,168.6,123.8
			L168.6,123.8z"/>
	</g>
</g>
<g>
	<g>
		<path class="st0" d="M157.9,126.4c1.9,1.6,4.1,2.8,6.5,3.6c0.8,0.2,1.7-0.3,1.8-1c0.2-0.8-0.2-1.6-1-1.9c-0.3-0.1-0.5-0.2-0.8-0.3
			c-0.1,0-0.2-0.1-0.4-0.1c-0.1,0-0.1,0-0.2-0.1c-0.2-0.1-0.1,0,0.1,0c-0.1,0-0.3-0.1-0.4-0.2c-0.1-0.1-0.2-0.1-0.4-0.2
			c-0.2-0.1-0.5-0.2-0.7-0.4c-0.5-0.3-0.9-0.5-1.4-0.9c-0.2-0.1-0.4-0.3-0.7-0.5c-0.1-0.1-0.1-0.1,0.1,0c0,0-0.1-0.1-0.2-0.1
			c-0.1-0.1-0.2-0.2-0.3-0.3c-0.3-0.3-0.6-0.4-1.1-0.4c-0.4,0-0.8,0.2-1.1,0.4C157.4,124.8,157.3,125.8,157.9,126.4L157.9,126.4z"/>
	</g>
</g>
<g>
	<g>
		<path class="st0" d="M153,126.2c0.9,1.2,1.8,2.2,3,3.1c1.2,0.9,2.6,1.3,4,1.5c0.8,0.1,1.5-0.7,1.5-1.5c0-0.9-0.7-1.4-1.5-1.5
			c-0.1,0-0.1,0-0.2,0c0.1,0,0.3,0,0.1,0c-0.2,0-0.3,0-0.4-0.1c-0.3-0.1-0.5-0.1-0.8-0.2c-0.2-0.1,0,0,0.1,0c-0.1,0-0.1,0-0.2-0.1
			c-0.1-0.1-0.3-0.1-0.4-0.2c-0.2-0.1-0.5-0.3-0.7-0.5c-0.2-0.1,0,0,0.1,0.1c0,0-0.1-0.1-0.2-0.1c-0.1-0.1-0.2-0.2-0.3-0.3
			c-0.2-0.2-0.4-0.4-0.6-0.6c-0.2-0.2-0.4-0.4-0.5-0.6c0,0-0.1-0.1-0.1-0.1c0,0-0.2-0.3-0.1-0.1c0.1,0.2,0,0,0,0
			c0-0.1-0.1-0.1-0.2-0.2c-0.2-0.3-0.5-0.6-0.9-0.7c-0.4-0.1-0.8,0-1.2,0.1C152.9,124.6,152.5,125.6,153,126.2L153,126.2z"/>
	</g>
</g>
</svg>
