<?xml version="1.0" encoding="utf-8"?>
<!-- Generator: Adobe Illustrator 27.7.0, SVG Export Plug-In . SVG Version: 6.00 Build 0)  -->
<svg version="1.1" id="Layer_1" xmlns="http://www.w3.org/2000/svg" xmlns:xlink="http://www.w3.org/1999/xlink" x="0px" y="0px"
	 viewBox="0 0 1366 768" style="enable-background:new 0 0 1366 768;" xml:space="preserve">
<style type="text/css">
	.st0{fill:#996600;}
	.st1{fill:#824D00;}
	.st2{fill:#603813;}
	.st3{fill:#878166;}
	.st4{fill:#D3C690;}
	.st5{fill:#AFA475;}
</style>
<g>
	<path class="st0" d="M401.9,380.98c-9.69-12.17-8.22-30.15-4.13-45.39c4.09-15.24,10.34-30.56,8.5-46.27
		c-0.74-6.29-2.76-12.72-1.11-18.82c1.27-4.72,4.59-8.52,8-11.88c25.21-24.82,60.29-35.16,94.35-41.78
		c26.77-5.21,53.83-8.65,80.86-12.08c18.24-2.32,36.53-4.64,54.91-4.81c8.73-0.08,17.75,0.39,25.61,4.34
		c15.15,7.61,22.34,25.97,35.54,36.83c18.52,15.25,44.78,13.1,68.11,9.44c23.32-3.67,48.88-7.67,69.08,5.05
		c13.18,8.3,21.81,22.5,29.28,36.56c29.17,54.9,48.07,115.71,55.32,178.03c0.37,3.17,0.7,6.47-0.32,9.48
		c-1.31,3.89-4.63,6.65-8.04,8.74c-12.75,7.84-28.08,9.24-42.81,10.74c-46.04,4.69-91.81,12.18-137.01,22.43
		c-6.04,1.37-13.44,4.4-13.64,10.85c-0.14,4.29,3.23,8.74,1.28,12.52c-1.28,2.47-4.26,3.28-6.92,3.72
		c-39.98,6.54-78.49-15.31-117.63-26.06c-26.59-7.31-54.35-9.56-80.64-17.99c-26.29-8.43-52.18-24.63-63.56-50.76
		c-6.08-13.96-7.68-29.94-15.41-42.98c-10.38-17.48-29.69-26.44-47.87-34.36"/>
	<g>
		<path class="st0" d="M402.96,379.92c-6.85-8.85-7.63-20.55-6.3-31.27c1.52-12.21,6.18-23.71,9.03-35.62
			c1.4-5.84,2.4-11.82,2.41-17.84c0.01-6.53-2.01-12.82-2.07-19.32c-0.06-6.72,3.6-11.66,8.19-16.19c3.99-3.94,8.3-7.57,12.84-10.85
			c18.27-13.22,39.81-20.96,61.55-26.33c24.91-6.15,50.45-9.78,75.85-13.16c26.54-3.53,53.39-7.87,80.23-7.91
			c11.94-0.02,23.15,1.95,32.16,10.32c7.3,6.79,12.55,15.4,19.02,22.92c6.64,7.73,14.74,13.54,24.49,16.7
			c9.93,3.21,20.59,3.72,30.94,3.13c22.32-1.27,44.43-8.32,66.92-5.41c11.66,1.51,22.44,6.19,30.98,14.37
			c8.06,7.72,13.91,17.42,19.18,27.16c11.97,22.11,22.13,45.23,30.55,68.92c8.31,23.4,14.9,47.42,19.71,71.79
			c2.47,12.55,4.48,25.2,5.98,37.91c0.35,2.98,0.87,6.18,0.11,9.14c-0.8,3.14-3.04,5.55-5.6,7.42c-4.92,3.58-10.78,5.91-16.6,7.54
			c-11.79,3.31-24.18,3.93-36.3,5.26c-13.11,1.44-26.19,3.1-39.24,4.99c-26.71,3.86-53.29,8.67-79.66,14.41
			c-7.6,1.65-21.48,2.82-24.08,12.09c-0.64,2.27-0.27,4.56,0.33,6.8c0.79,2.95,2.49,6.66-0.63,8.88c-2.11,1.51-5.42,1.64-7.9,1.94
			c-3.07,0.37-6.16,0.58-9.25,0.65c-24.62,0.53-48.29-8.15-71.14-16.29c-11.58-4.12-23.17-8.27-35.07-11.43
			c-12.68-3.36-25.6-5.64-38.48-8.05c-23.19-4.33-46.65-9.26-67.22-21.37c-8.93-5.26-17.16-11.74-23.95-19.6
			c-7.38-8.54-12.22-18.41-15.5-29.16c-3.3-10.8-5.65-22.1-11.39-31.97c-5.1-8.77-12.67-15.72-21.09-21.25
			c-8.63-5.67-18.1-9.92-27.54-14.04c-1.75-0.76-3.28,1.82-1.51,2.59c20.12,8.78,41.25,18.92,50.56,40.16
			c4.89,11.16,6.75,23.37,11.34,34.64c3.95,9.7,9.92,18.4,17.34,25.78c35.62,35.45,88.89,33.73,134.06,47.24
			c24.32,7.27,47.65,17.95,72.6,23.03c11.9,2.43,24.15,3.5,36.25,2.04c4.23-0.51,10.03-0.89,12.08-5.35
			c2.3-5.01-2.66-9.94-0.83-14.89c1.68-4.56,7.56-6.33,11.82-7.36c6.54-1.57,13.15-2.93,19.73-4.3c13.64-2.85,27.33-5.44,41.06-7.79
			c27.38-4.68,54.88-8.03,82.49-11.03c11.65-1.26,23.53-3.02,34.05-8.49c4.54-2.36,9.34-5.45,11.46-10.31
			c2.33-5.32,0.75-11.75,0.04-17.26c-3.27-25.28-8.41-50.31-15.41-74.82c-7.02-24.57-15.91-48.61-26.56-71.84
			c-5.22-11.37-10.75-22.67-17-33.52c-5.62-9.76-12.2-19.29-21.15-26.3c-38.86-30.41-89.56,8.05-131.31-11.16
			c-10.04-4.62-16.99-12.67-23.56-21.28c-5.9-7.73-11.83-15.94-20.36-20.96c-10.65-6.27-23.67-5.9-35.6-5.44
			c-13.7,0.52-27.32,2.09-40.92,3.79c-27.33,3.42-54.7,6.82-81.79,11.81c-22.72,4.19-45.49,9.54-66.45,19.51
			c-10.14,4.83-19.76,10.77-28.36,18.01c-4.21,3.54-8.52,7.36-11.68,11.9c-3.4,4.9-4.2,10.35-3.49,16.2
			c0.81,6.66,2.12,12.98,1.6,19.74c-0.51,6.59-2.11,13.04-3.89,19.38c-3.23,11.44-7.17,22.72-7.81,34.69
			c-0.54,10.1,1.33,20.26,7.63,28.39C402.02,383.56,404.13,381.42,402.96,379.92L402.96,379.92z"/>
	</g>
</g>
<g>
	<path class="st0" d="M758.08,228.9c-1.28,1.8,1.47,3.73,3.59,4.11c10.93,1.94,22.11,2.33,33.15,1.16
		c-3.16-8.04-10.28-13.86-18.07-16.93c-7.79-3.07-16.26-3.69-24.58-3.78c-10.47-0.11-22.81,1.74-27.73,11.38
		c5.19,5.46,14.88,3.42,20,8.95c0.9,0.97,1.64,2.16,2.78,2.79c4.59,2.54,9.42-5.86,14.34-4.11"/>
	<g>
		<path class="st0" d="M756.78,228.15c-1.64,2.71,1,5.11,3.39,6c1.68,0.63,3.61,0.74,5.38,0.99c1.88,0.26,3.77,0.49,5.67,0.67
			c7.85,0.74,15.75,0.68,23.59-0.14c0.86-0.09,1.85-0.9,1.45-1.9c-4.4-10.95-14.88-17.59-26.07-20.09
			c-6.33-1.41-12.91-1.77-19.38-1.73c-5.03,0.03-10.19,0.51-15,2.09c-5.32,1.75-10.04,4.99-12.68,10.04
			c-0.31,0.6-0.25,1.33,0.23,1.82c4.49,4.57,11.08,4.1,16.58,6.57c1.28,0.58,2.46,1.35,3.42,2.38c1.17,1.25,2.08,2.65,3.73,3.32
			c2.43,0.98,4.87-0.15,6.94-1.43c2-1.24,4.57-3.64,7.11-2.82c1.84,0.59,2.63-2.3,0.8-2.89c-2.43-0.78-4.79,0.22-6.86,1.48
			c-1.74,1.06-3.85,3.05-6,3.06c-1.41,0-2.25-1.26-3.07-2.23c-0.97-1.14-2.1-2.11-3.4-2.86c-2.59-1.49-5.55-2.11-8.43-2.79
			c-3.13-0.74-6.37-1.54-8.7-3.91c0.08,0.61,0.16,1.21,0.23,1.82c4.41-8.44,14.69-10.36,23.38-10.62
			c11.21-0.33,23.49,0.58,33.18,6.76c4.83,3.08,8.93,7.47,11.08,12.83c0.48-0.63,0.96-1.27,1.45-1.9
			c-6.56,0.68-13.16,0.84-19.74,0.44c-3.24-0.2-6.47-0.52-9.67-1c-0.64-0.09-6.98-0.88-6.02-2.45
			C760.37,228.01,757.78,226.5,756.78,228.15L756.78,228.15z"/>
	</g>
</g>
<g>
	<path class="st0" d="M752.89,555.39c-2.65-3.36-0.91-8.8,2.47-11.35c3.38-2.55,7.76-2.99,11.91-3.35
		c20.96-1.8,41.93-3.59,62.89-5.39c0.68-0.06,1.4-0.11,2,0.22c1.81,1,0.81,3.91-0.54,5.51c-11.52,13.68-31.09,14.9-47.28,21.69
		c-4.57,1.92-8.99,4.35-13.79,5.53c-4.8,1.18-10.22,0.94-14.18-2.12c-3.96-3.06-5.66-9.5-2.66-13.58"/>
	<g>
		<path class="st0" d="M754.18,554.64c-1.52-2.04-1.29-4.64-0.1-6.8c1.34-2.46,3.73-3.83,6.36-4.58c3.02-0.86,6.19-0.99,9.3-1.26
			c3.63-0.31,7.26-0.62,10.89-0.93c14.69-1.26,29.38-2.52,44.07-3.78c1.81-0.16,3.63-0.35,5.45-0.47c0.42-0.03,1.18-0.21,1.45,0.24
			c0.2,0.34-0.07,1.04-0.18,1.38c-0.84,2.36-3.4,4.37-5.27,5.91c-4.04,3.35-8.85,5.71-13.73,7.57c-10.47,3.98-21.5,6.16-31.74,10.81
			c-6.2,2.81-13.23,6.3-20.16,3.97c-5.23-1.76-9.03-8.37-5.52-13.36c1.11-1.58-1.49-3.08-2.59-1.51c-3.3,4.69-1.59,11.65,2.64,15.2
			c5.29,4.43,12.76,3.95,18.9,1.81c3.53-1.24,6.88-2.94,10.31-4.42c2.87-1.24,5.82-2.27,8.79-3.22c5.9-1.89,11.91-3.44,17.76-5.49
			c5.66-1.98,11.24-4.44,16.03-8.09c2.34-1.78,4.76-3.83,6.43-6.27c1.4-2.04,2.26-5.58-0.37-7.07c-1.53-0.87-3.59-0.36-5.23-0.22
			c-2.15,0.18-4.29,0.37-6.44,0.55c-4.13,0.35-8.25,0.71-12.38,1.06c-8.25,0.71-16.51,1.42-24.76,2.12
			c-4.62,0.4-9.24,0.79-13.87,1.19c-3.9,0.33-8.02,0.44-11.74,1.78c-3.27,1.18-6.03,3.27-7.45,6.51c-1.26,2.86-1.39,6.32,0.55,8.92
			C752.73,557.68,755.33,556.19,754.18,554.64L754.18,554.64z"/>
	</g>
</g>
<g>
	<path class="st0" d="M913.78,342.68c1.38,9.59,2.76,19.18,4.14,28.76c0.29,2.02,1.27,4.62,3.21,4.35c1.32-0.19,2.04-1.68,2.49-2.99
		c3.24-9.45,4.23-19.73,2.87-29.67c-0.86-6.3-2.65-12.43-4.43-18.52c-1.07-3.66-2.17-7.39-4.31-10.5c-2.14-3.11-5.53-5.53-9.2-5.41
		c-1.94,0.07-4.15,1.27-4.25,3.3c-0.07,1.4,0.89,2.6,1.73,3.7c3.87,5.14,6.01,11.69,5.95,18.23c-0.04,3.91-0.67,8.34,1.81,11.27"/>
	<g>
		<path class="st0" d="M912.34,343.08c0.88,6.09,1.75,12.19,2.63,18.28c0.43,3.01,0.87,6.01,1.3,9.02c0.3,2.1,0.61,4.55,2.31,6.03
			c1.7,1.48,4.02,0.95,5.3-0.79c1.48-2.01,2.03-4.92,2.63-7.29c1.42-5.58,2.12-11.37,2.06-17.13c-0.06-5.87-0.99-11.67-2.4-17.35
			c-1.35-5.45-2.74-11.13-4.92-16.32c-1.89-4.49-5.23-8.98-10.26-10.09c-2.15-0.47-4.48-0.29-6.28,1.07
			c-1.96,1.48-2.37,3.88-1.28,6.04c0.6,1.18,1.53,2.18,2.26,3.28c0.86,1.29,1.61,2.65,2.25,4.06c1.23,2.71,2.04,5.68,2.36,8.64
			c0.57,5.26-1.19,11.25,2.42,15.73c1.21,1.51,3.32-0.63,2.12-2.12c-1.24-1.55-1.44-3.64-1.47-5.55c-0.03-2.19,0.17-4.38,0.05-6.58
			c-0.25-4.52-1.46-8.95-3.53-12.97c-1.05-2.03-2.56-3.71-3.68-5.67c-1.05-1.85,0.52-3.06,2.34-3.17c4.37-0.28,7.71,3.77,9.42,7.3
			c2.14,4.4,3.25,9.45,4.53,14.15c1.35,4.97,2.47,10.01,2.88,15.16c0.39,4.94,0.22,9.94-0.55,14.84c-0.38,2.44-0.91,4.85-1.57,7.23
			c-0.33,1.18-0.68,2.37-1.09,3.53c-0.17,0.48-0.61,1.95-1.32,1.9c-1.43-0.09-1.63-4.35-1.76-5.22c-0.43-3.01-0.87-6.01-1.3-9.02
			c-0.85-5.93-1.71-11.86-2.56-17.79C914.95,340.38,912.06,341.19,912.34,343.08L912.34,343.08z"/>
	</g>
</g>
<g>
	<path class="st0" d="M430.94,437.27c-1.76-6.73-6.14-12.33-10.4-17.71c-1.29-1.63-2.65-3.32-4.48-4.22
		c-1.84-0.91-4.3-0.81-5.61,0.81c-1.02,1.26-1.11,3.05-1.09,4.7c0.18,16.09,5.51,31.57,10.78,46.69c1.77,5.08,4.67,11.08,9.86,11.22
		c3.53,0.1,6.61-2.92,7.81-6.39c1.19-3.47,0.88-7.3,0.34-10.95c-1.62-11.01-5.15-21.71-10.36-31.44"/>
	<g>
		<path class="st0" d="M432.39,436.87c-1.44-5.34-4.39-10.03-7.69-14.41c-1.66-2.2-3.3-4.57-5.28-6.5c-1.71-1.67-3.9-2.9-6.36-2.67
			c-6.29,0.58-5.31,8.28-4.96,12.74c0.47,6.08,1.58,12.1,3.07,18.01c1.51,5.97,3.39,11.83,5.37,17.65
			c1.61,4.73,2.95,9.98,5.96,14.07c2.63,3.57,6.81,5.7,11.12,3.69c4.87-2.27,6.58-7.95,6.5-12.93c-0.1-6.4-1.73-13.01-3.55-19.12
			c-1.88-6.29-4.4-12.38-7.49-18.17c-0.91-1.7-3.5-0.19-2.59,1.51c4.81,9.02,8.13,18.78,9.86,28.85c0.79,4.6,1.73,10.16-0.96,14.34
			c-1.03,1.61-2.71,3.08-4.69,3.3c-1.75,0.2-3.35-0.61-4.57-1.81c-2.94-2.89-4.16-7.18-5.47-10.96c-1.76-5.07-3.48-10.15-4.98-15.3
			c-1.5-5.13-2.79-10.33-3.66-15.6c-0.44-2.65-0.76-5.32-0.96-8c-0.16-2.29-0.62-5.12,0.03-7.37c0.76-2.63,3.69-2.16,5.43-0.8
			c2.06,1.61,3.63,4.02,5.2,6.08c3.3,4.31,6.34,8.9,7.78,14.19C430,439.53,432.9,438.74,432.39,436.87L432.39,436.87z"/>
	</g>
</g>
<g>
	<path class="st0" d="M456.4,492.35c-3.04-0.7-6.08-1.39-9.11-2.09c-0.71-0.16-1.54-0.29-2.08,0.21c-0.42,0.39-0.51,1.02-0.54,1.6
		c-0.45,7.04,3.66,14.15,9.83,17.02c3.49,1.62,8.13,1.68,10.57-1.39c2.42-3.04,1.51-7.86-0.99-10.82s-6.15-4.52-9.66-5.98"/>
	<g>
		<path class="st0" d="M456.8,490.91c-3.16-0.73-6.33-1.61-9.52-2.17c-1.22-0.22-2.46-0.1-3.31,0.89c-0.87,1.02-0.85,2.54-0.83,3.81
			c0.09,4.92,2.15,9.79,5.58,13.32c3.27,3.37,8.06,5.67,12.83,4.71c5.16-1.04,7.35-6.28,6.04-11.05
			c-1.66-6.03-7.45-8.75-12.75-10.95c-0.75-0.31-1.64,0.34-1.85,1.05c-0.25,0.86,0.3,1.54,1.05,1.85c3.69,1.53,7.92,3.3,9.92,7
			c1.62,3.01,1.55,7.55-2.15,8.93c-3.35,1.25-7.21-0.35-9.78-2.54c-2.89-2.46-4.83-5.86-5.59-9.57c-0.21-1.05-0.3-2.12-0.29-3.19
			c0-0.26-0.06-1.26,0.08-1.38c0.09-0.07,0.93,0.16,1.07,0.2c2.91,0.66,5.81,1.33,8.72,2C457.88,494.23,458.68,491.34,456.8,490.91
			L456.8,490.91z"/>
	</g>
</g>
<g>
	<path class="st1" d="M421.36,336.59c-8-11.89-11.99-26.66-11.12-41.15c0.21-3.53,0.75-7.18,2.63-10.12
		c2.94-4.6,8.39-6.47,13.01-9.18c8.31-4.87,14.57-13.07,23.17-17.36c6.92-3.45,14.8-4.07,22.46-4.29
		c54.92-1.53,110.17,15.75,155.25,48.54c15.91,11.58,31.02,25.26,49.48,31.45c11.62,3.9,23.97,4.6,36.11,5.92
		c59.78,6.47,118.03,28.77,167.2,64.86c14.33,10.52,29.41,26.39,25.4,44.19c-3.2,14.21-17.25,22.37-30.25,27.75
		c-66.75,27.64-140.69,27.71-212.46,25.33c-15.55-0.52-31.17-1.14-46.46-4.17c-18.2-3.61-35.62-10.57-52.92-17.49
		c-5.67-2.27-11.51-4.65-15.82-9.11c-3.66-3.78-5.93-8.77-8.94-13.13c-15.74-22.78-49.65-26.27-63.6-50.29
		c-7.02-12.09-7.51-27.21-13.7-39.79c-7.91-16.09-23.87-25.78-38.99-34.6"/>
	<g>
		<path class="st1" d="M422.65,335.83c-5.66-8.53-9.31-18.29-10.55-28.46c-0.58-4.73-0.74-9.65-0.15-14.39
			c0.65-5.24,3.03-8.96,7.55-11.67c3.8-2.28,7.78-4.04,11.35-6.72c3.57-2.69,6.83-5.75,10.27-8.6c3.71-3.08,7.68-5.82,12.27-7.41
			c4.73-1.63,9.74-2.21,14.71-2.46c39.11-1.98,78.99,6.47,114.49,22.79c17.89,8.22,34.54,18.58,50.2,30.48
			c15.41,11.71,30.85,24.03,50.11,28.53c10.22,2.39,20.74,3,31.15,4.17c9.74,1.1,19.43,2.64,29.03,4.58
			c19.24,3.89,38.15,9.42,56.46,16.5c18.53,7.17,36.44,15.95,53.46,26.2c8.61,5.19,16.99,10.75,25.1,16.67
			c7.32,5.35,14.37,11.49,19.52,19.02c5.1,7.45,8.06,16.41,5.54,25.37c-2.25,8.02-8.46,14.04-15.29,18.42
			c-7.81,5-16.63,8.32-25.31,11.47c-9.54,3.46-19.25,6.41-29.08,8.92c-40.27,10.25-82.04,12.79-123.46,12.75
			c-20.99-0.02-42.04-0.45-63.01-1.56c-11.26-0.6-22.51-1.67-33.54-4.06c-10.29-2.23-20.34-5.49-30.21-9.14
			c-5.1-1.88-10.17-3.87-15.22-5.88c-4.67-1.86-9.49-3.57-13.87-6.06c-4.44-2.52-7.61-5.95-10.3-10.25
			c-2.32-3.7-4.45-7.46-7.26-10.82c-9.73-11.6-24.02-17.82-36.82-25.26c-6.48-3.77-12.82-7.93-18-13.41
			c-6.22-6.57-9.54-14.64-11.91-23.26c-2.47-8.99-4.28-18.28-8.83-26.52c-4.2-7.6-10.35-13.91-17.15-19.22
			c-6.69-5.22-13.98-9.58-21.3-13.86c-1.67-0.98-3.18,1.62-1.51,2.59c16,9.34,33.04,19.79,40.11,37.86
			c3.59,9.16,4.94,19.02,8.41,28.22c2.88,7.63,7.39,14.23,13.49,19.63c11.7,10.35,26.63,15.88,39.38,24.69
			c6.75,4.67,12.33,10.26,16.61,17.28c2.51,4.12,4.93,8.38,8.67,11.54c3.48,2.94,7.58,4.91,11.76,6.65
			c20.11,8.39,40.82,16.49,62.45,19.85c21.57,3.35,43.71,3.31,65.48,3.75c42.5,0.86,85.36-0.1,127.22-8.22
			c20.76-4.03,41.23-9.84,60.77-17.99c14.56-6.07,30.72-16,31.65-33.53c0.96-18.1-14.83-32.35-28.16-42.03
			c-16.46-11.96-34-22.43-52.32-31.28c-36.29-17.54-75.52-28.71-115.61-32.92c-10.94-1.15-22.02-1.91-32.6-5.16
			c-9.68-2.97-18.48-8.13-26.74-13.88c-8.24-5.73-16.02-12.09-24.13-17.99c-8.3-6.04-16.97-11.57-25.94-16.55
			c-34.83-19.36-74.17-30.58-114.01-32.1c-9.77-0.37-20-0.7-29.64,1.2c-9.6,1.89-16.51,7.48-23.72,13.71
			c-3.65,3.16-7.39,6.01-11.66,8.27c-3.65,1.92-7.5,3.79-10.1,7.11c-2.79,3.56-3.48,8.09-3.72,12.49
			c-0.26,4.83,0.04,9.67,0.79,14.44c1.53,9.65,5.16,18.91,10.55,27.04C421.13,338.95,423.73,337.45,422.65,335.83L422.65,335.83z"/>
	</g>
</g>
<g>
	<path class="st1" d="M693.41,309.59c13.97-4.61,27.85,9.34,42.48,8.5c2.95-0.17,5.83-0.95,8.68-1.74
		c15.31-4.29,30.55-9.4,46.35-10.68c15.8-1.28,32.6,1.71,44.96,12.06c-25.4,6.36-51.31,10.53-77.37,12.45
		c-6.96,0.51-13.97,0.86-20.88-0.09c-7.03-0.97-13.82-3.27-20.56-5.56c-7.93-2.69-15.85-5.38-23.78-8.07
		c-2.68-0.91-5.96-3.83-4.06-6c1.36-0.04,2.72-0.08,4.08-0.12"/>
	<g>
		<path class="st1" d="M693.8,311.03c8.15-2.6,16.37,1.3,23.84,4.31c3.93,1.58,7.93,3.12,12.12,3.84c4.9,0.84,9.53,0.17,14.3-1.14
			c20.24-5.57,40.78-13.06,62.12-10.69c10.34,1.14,20.57,4.74,28.64,11.44c0.22-0.84,0.44-1.67,0.66-2.51
			c-19.58,4.89-39.47,8.52-59.52,10.78c-9.87,1.11-19.91,2.25-29.86,2.13c-5.01-0.06-9.94-0.65-14.81-1.85
			c-4.69-1.15-9.27-2.7-13.84-4.25c-5.44-1.84-10.88-3.69-16.32-5.54c-2.57-0.87-5.25-1.6-7.76-2.64c-0.77-0.32-4.05-2.17-3.1-3.38
			c-0.35,0.15-0.71,0.29-1.06,0.44c1.36-0.04,2.72-0.08,4.08-0.12c1.93-0.06,1.93-3.06,0-3c-1.28,0.04-2.57,0.03-3.85,0.12
			c-1.11,0.07-1.8,0.8-2.12,1.85c-0.55,1.8,0.43,3.57,1.72,4.79c1.64,1.55,3.62,2.24,5.71,2.94c2.64,0.9,5.28,1.79,7.93,2.69
			c5.26,1.79,10.52,3.58,15.79,5.35c5.09,1.72,10.22,3.38,15.5,4.4c10.81,2.09,21.92,1,32.79,0c10.97-1.01,21.9-2.42,32.76-4.21
			c12.35-2.04,24.61-4.58,36.76-7.62c1.03-0.26,1.54-1.78,0.66-2.51c-15.41-12.79-36.3-14.47-55.37-11.33
			c-11.15,1.83-21.98,5.14-32.81,8.26c-5.06,1.46-10.23,3.3-15.56,2.99c-4.31-0.25-8.49-1.69-12.49-3.24
			c-8.75-3.38-18.13-8.26-27.7-5.2C691.18,308.72,691.96,311.62,693.8,311.03L693.8,311.03z"/>
	</g>
</g>
<g>
	<path class="st1" d="M682.14,269.71c-6.73-8.71-16.43-14.86-26.94-17.07c-3.02-0.64-6.27-0.93-9.1,0.35
		c-2.83,1.28-5.02,4.58-4.22,7.69c0.88,3.4,4.57,4.95,7.79,6c5.4,1.77,10.81,3.54,16.21,5.31c3.16,1.04,6.46,2.09,9.74,1.58
		c3.28-0.51,6.52-3.07,6.75-6.52"/>
	<g>
		<path class="st1" d="M683.2,268.65c-4.25-5.45-9.66-9.99-15.79-13.18c-3.02-1.57-6.23-2.84-9.52-3.73
			c-3.5-0.94-7.39-1.7-10.95-0.66c-3.05,0.89-5.7,3.29-6.49,6.43c-0.77,3.07,0.57,5.99,3.02,7.85c2.62,1.99,5.97,2.81,9.04,3.81
			c4.01,1.32,8.03,2.63,12.04,3.95c4.08,1.34,8.71,2.99,12.98,1.5c3.4-1.19,5.99-3.93,6.34-7.59c0.19-1.92-2.81-1.91-3,0
			c-0.25,2.57-2.62,4.37-4.98,4.94c-3.36,0.81-6.94-0.56-10.09-1.6c-3.4-1.11-6.79-2.23-10.19-3.34c-2.87-0.94-5.95-1.68-8.66-3.04
			c-2.08-1.04-4.12-2.78-3.7-5.36c0.46-2.81,3.09-4.58,5.74-4.96c3.07-0.44,6.29,0.4,9.21,1.26c2.71,0.81,5.34,1.88,7.84,3.19
			c5.86,3.08,10.94,7.4,15,12.62C682.26,272.29,684.37,270.15,683.2,268.65L683.2,268.65z"/>
	</g>
</g>
<g>
	<path class="st1" d="M427.69,356.05c9.22,5.66,17.14,13.6,22.93,22.99"/>
	<g>
		<path class="st1" d="M426.94,357.35c9.1,5.62,16.76,13.36,22.39,22.45c1.02,1.64,3.61,0.13,2.59-1.51
			c-5.91-9.52-13.93-17.64-23.47-23.53C426.8,353.74,425.29,356.34,426.94,357.35L426.94,357.35z"/>
	</g>
</g>
<g>
	<path class="st1" d="M595.28,509.28c23.55,7.32,47.91,11.83,72.43,13.44"/>
	<g>
		<path class="st1" d="M594.88,510.73c18.46,5.72,37.42,9.74,56.62,12.01c5.39,0.64,10.8,1.13,16.21,1.49c1.93,0.13,1.92-2.87,0-3
			c-19-1.26-37.87-4.25-56.32-8.95c-5.27-1.34-10.51-2.83-15.71-4.44C593.83,507.26,593.04,510.16,594.88,510.73L594.88,510.73z"/>
	</g>
</g>
<g>
	<path class="st1" d="M510.96,451.91c-5.62-3.89-11.99-6.58-18.62-7.84c-1.54-0.29-3.44-0.37-4.34,0.97
		c-1.27,1.89,0.7,4.29,2.53,5.59c8.76,6.23,18.76,10.53,29.18,12.53c0.33-6.15-5.25-10.65-10.22-13.98"/>
	<g>
		<path class="st1" d="M511.72,450.62c-3.87-2.65-8.08-4.77-12.52-6.28c-2.16-0.73-4.38-1.35-6.63-1.74
			c-1.85-0.32-4.02-0.37-5.42,1.12c-3.42,3.64,1.71,7.63,4.44,9.46c3.96,2.65,8.17,4.91,12.55,6.77c4.89,2.07,9.96,3.64,15.17,4.66
			c0.97,0.19,1.86-0.42,1.9-1.45c0.24-6.98-5.72-11.75-10.96-15.28c-1.61-1.08-3.11,1.52-1.51,2.59c4.33,2.92,9.68,6.87,9.47,12.69
			c0.63-0.48,1.27-0.96,1.9-1.45c-7.84-1.53-15.38-4.3-22.32-8.24c-1.72-0.98-3.41-2.02-5.05-3.13c-1.21-0.82-3.5-2.13-3.63-3.8
			c-0.2-2.66,7.9,0.23,9.09,0.63c4.28,1.43,8.3,3.5,12.01,6.05C511.8,454.3,513.3,451.7,511.72,450.62L511.72,450.62z"/>
	</g>
</g>
<g>
	<path class="st1" d="M541.86,238.95c-11.31-1.46-22.78-1.54-34.11-0.26c15.3,11.88,35.67,16.33,54.25,11.87
		c1.02-0.24,2.16-0.62,2.61-1.6c0.68-1.47-0.64-3.07-1.89-4.06c-8.21-6.51-18.95-9.42-29.15-7.88c0.98-0.06,1.96-0.11,2.94-0.17"/>
	<g>
		<path class="st1" d="M541.86,237.45c-11.32-1.44-22.77-1.53-34.11-0.26c-1.54,0.17-1.96,1.87-0.76,2.8
			c10.71,8.26,23.92,13.05,37.42,13.7c3.35,0.16,6.71,0.06,10.04-0.31c1.6-0.18,3.2-0.41,4.78-0.7c1.57-0.29,3.29-0.52,4.74-1.21
			c3.39-1.6,2.44-5.32,0.09-7.39c-2.53-2.22-5.59-3.99-8.65-5.37c-7-3.14-14.66-4.23-22.25-3.14c-1.67,0.24-1.28,3.04,0.4,2.95
			c0.98-0.06,1.96-0.11,2.94-0.17c1.92-0.11,1.93-3.11,0-3c-0.98,0.06-1.96,0.11-2.94,0.17c0.13,0.98,0.27,1.96,0.4,2.95
			c5.93-0.85,12.02-0.13,17.64,1.91c2.83,1.03,5.53,2.43,8.03,4.12c1.14,0.77,2.63,1.64,3.36,2.85c0.82,1.37-0.72,1.61-1.79,1.86
			c-11.53,2.71-23.78,1.81-34.93-2.11c-6.4-2.25-12.4-5.56-17.77-9.7c-0.25,0.93-0.5,1.86-0.76,2.8
			c11.34-1.26,22.79-1.17,34.11,0.26C543.77,240.69,543.75,237.69,541.86,237.45L541.86,237.45z"/>
	</g>
</g>
<g>
	<path class="st2" d="M446.4,282.83c-6.52-4.12-15.82-0.09-19.16,7.07c-3.34,7.15-1.6,16.03,2.69,22.61s10.74,11.25,17.31,15.3
		c15.57,9.6,32.54,16.55,48.05,26.25s29.97,22.86,36.52,40.45c2.28,6.11,3.67,12.86,7.9,17.72c9.19,10.57,28.37,8.45,34.69,21.11
		c5.87,11.77-3.6,29.51,6.17,38c3.66,3.18,8.79,3.56,13.54,3.69c21.08,0.57,42.15-1.08,63.24-1.08c71.46-0.01,145.21,18.59,213.01-5
		c-2.71-11.11-10.63-20.7-20.76-25.12c3.71-7.15,12.04-9.77,19.26-12.82c7.22-3.05,15-8.86,14.58-16.98
		c-0.5-9.58-11.46-13.94-20.44-16c-22.32-5.13-44.63-10.25-66.95-15.38c-13.36-3.07-26.75-6.14-40.37-7.47
		c-14.91-1.46-29.93-0.81-44.87-1.77c-43.75-2.82-86.56-19.83-121.03-48.11c-8.69-7.13-16.86-14.95-25.9-21.6
		c-11.84-8.71-24.99-15.28-38.19-21.52c-12.18-5.76-24.72-11.34-38.03-12.7s-27.7,2.1-36.95,12.18"/>
	<g>
		<path class="st2" d="M447.16,281.54c-6.38-3.79-14.51-1.25-19.05,4.24c-5.48,6.63-4.92,16.25-1.55,23.7
			c3.84,8.5,11.57,14.42,19.28,19.23c9.03,5.64,18.59,10.35,28.05,15.2c17.05,8.75,34.19,18.36,46.39,33.54
			c2.81,3.49,5.28,7.27,7.33,11.26c2.16,4.21,3.57,8.66,5.1,13.12c1.4,4.09,3.06,8.16,5.93,11.46c2.24,2.57,5.16,4.5,8.21,5.97
			c6.33,3.06,13.46,4.36,19.53,7.95c2.99,1.77,5.54,4.2,6.96,7.42c1.61,3.65,1.72,7.77,1.59,11.7c-0.24,7.14-1.93,15.17,1.35,21.88
			c4.06,8.3,13.9,8.29,21.88,8.4c22.54,0.32,45.05-1.51,67.59-1.08c21.5,0.41,42.93,2.25,64.35,3.93
			c41.69,3.25,84.45,6.06,125.39-4.47c5.15-1.32,10.23-2.86,15.25-4.6c0.78-0.27,1.26-1.02,1.05-1.85
			c-2.88-11.33-10.72-21.2-21.45-26.02c0.18,0.68,0.36,1.37,0.54,2.05c3.63-6.66,11.19-9.14,17.78-11.88
			c6.07-2.53,12.53-6.42,15.19-12.76c2.51-5.99,0.36-12.42-4.53-16.43c-5.28-4.33-12.06-6.03-18.57-7.53
			c-19.38-4.45-38.76-8.9-58.14-13.35c-18.92-4.35-37.77-8.76-57.23-9.66c-18.69-0.86-37.29-0.37-55.81-3.56
			c-16.62-2.86-32.93-7.73-48.39-14.46c-15.58-6.78-30.37-15.41-43.93-25.66c-14.65-11.07-27.4-24.32-43.15-33.93
			c-7.92-4.84-16.23-9.02-24.6-13.02c-8.22-3.93-16.5-7.85-25.17-10.69c-15.02-4.93-32.16-6.11-46.27,2.2
			c-3.11,1.83-5.94,4.12-8.41,6.76c-1.32,1.41,0.8,3.53,2.12,2.12c11.16-11.91,28.49-13.86,43.71-10.43
			c8.91,2.01,17.37,5.57,25.63,9.4c8.03,3.72,16.03,7.56,23.79,11.82c8.04,4.42,15.75,9.36,22.91,15.1
			c6.91,5.54,13.42,11.57,20.25,17.21c12.65,10.45,26.46,19.48,41.13,26.82c14.43,7.22,29.66,12.86,45.33,16.69
			c16.49,4.03,33.24,5.75,50.19,6.11c9.43,0.2,18.87,0.22,28.27,0.99c9.67,0.79,19.22,2.51,28.69,4.53
			c18.8,4.01,37.51,8.54,56.24,12.84c8.88,2.04,17.85,3.84,26.66,6.15c5.85,1.54,13.06,4.04,16.12,9.73
			c3.83,7.12-1.77,13.88-7.65,17.48c-5.82,3.56-12.7,5-18.33,8.92c-2.65,1.85-4.87,4.13-6.42,6.98c-0.36,0.65-0.22,1.71,0.54,2.05
			c10.07,4.52,17.36,13.57,20.07,24.22c0.35-0.62,0.7-1.23,1.05-1.85c-38.97,13.46-80.57,13.07-121.21,10.33
			c-20.49-1.38-40.94-3.33-61.45-4.47c-21.17-1.17-42.21-0.76-63.39-0.1c-10.84,0.34-21.86,0.91-32.69,0.14
			c-4.38-0.31-8.96-1.44-11.55-5.31c-1.94-2.9-2.3-6.52-2.31-9.92c-0.03-7.36,1.69-14.98-0.37-22.21
			c-1.86-6.51-6.91-10.64-12.92-13.26c-6.13-2.67-12.86-4.06-18.6-7.6c-7.87-4.85-9.38-13.64-12.47-21.66
			c-6.16-15.93-18.61-28.32-32.52-37.78c-16.59-11.29-35.44-18.63-52.48-29.14c-7.99-4.93-16.19-11.05-19.51-20.22
			c-2.88-7.96-1.76-18.13,6.55-22.26c3.4-1.69,7.29-1.87,10.6,0.09C447.31,285.11,448.82,282.52,447.16,281.54L447.16,281.54z"/>
	</g>
</g>
<g>
	<path class="st2" d="M666.95,347.3c11.71,5.94,25.54,4.13,38.32,6.78c0.27-2.94-2.61-5.05-5.2-6.24
		c-10.3-4.75-22.08-5.89-33.04-3.19c-0.4,0.1-0.83,0.23-1.05,0.58c-0.22,0.36-0.02,0.98,0.39,0.94"/>
	<g>
		<path class="st2" d="M666.2,348.6c12.07,6.03,25.8,4.32,38.68,6.93c0.99,0.2,1.85-0.43,1.9-1.45c0.22-4.21-3.78-6.62-7.15-8.08
			c-4.3-1.85-8.82-3.13-13.46-3.77c-4.63-0.64-9.31-0.68-13.95-0.07c-1.15,0.15-2.29,0.33-3.43,0.56c-1,0.2-2.18,0.32-3.09,0.82
			c-1.65,0.9-1.78,3.61,0.29,4.07c1.88,0.43,2.68-2.47,0.8-2.89c-0.21,1.2,0.01,1.65,0.67,1.37c0.14-0.03,0.28-0.07,0.43-0.1
			c0.43-0.1,0.86-0.2,1.29-0.29c0.86-0.18,1.72-0.34,2.59-0.47c1.75-0.27,3.51-0.42,5.27-0.48c3.59-0.14,7.2,0.1,10.73,0.76
			c3.47,0.64,6.88,1.63,10.13,2.99c2.35,0.98,6.05,2.51,5.89,5.58c0.63-0.48,1.27-0.96,1.9-1.45c-12.53-2.55-26.23-0.77-37.96-6.63
			C665.99,345.15,664.47,347.73,666.2,348.6L666.2,348.6z"/>
	</g>
</g>
<g>
	<g>
		<path class="st2" d="M727,365.64c15.12,0.12,30.23,1.21,45.2,3.29c1.89,0.26,2.7-2.63,0.8-2.89c-15.25-2.12-30.61-3.28-46-3.4
			C725.07,362.62,725.07,365.62,727,365.64L727,365.64z"/>
	</g>
</g>
<g>
	<g>
		<path class="st2" d="M883.95,433.23c-6.01,2.8-12.18,5.24-18.47,7.32c-1.82,0.6-1.04,3.5,0.8,2.89
			c6.54-2.16,12.95-4.72,19.19-7.62c0.73-0.34,0.92-1.4,0.54-2.05C885.56,433.01,884.69,432.89,883.95,433.23L883.95,433.23z"/>
	</g>
</g>
<g>
	<g>
		<path class="st2" d="M875.28,443.34c-1.93,0.49-3.87,0.97-5.8,1.46c-0.76,0.19-1.29,1.09-1.05,1.85c0.25,0.79,1.03,1.25,1.85,1.05
			c1.93-0.49,3.87-0.97,5.8-1.46c0.76-0.19,1.29-1.09,1.05-1.85C876.87,443.6,876.1,443.13,875.28,443.34L875.28,443.34z"/>
	</g>
</g>
<g>
	<g>
		<path class="st2" d="M419.51,296.24c-0.64,4.99-0.71,10.2,0.27,15.15c0.77,3.89,2.5,7.69,5.93,9.9c1.63,1.05,3.13-1.55,1.51-2.59
			c-2.95-1.9-4.11-5.5-4.68-8.79c-0.77-4.47-0.61-9.18-0.04-13.67c0.1-0.81-0.76-1.49-1.5-1.5
			C420.12,294.73,419.61,295.44,419.51,296.24L419.51,296.24z"/>
	</g>
</g>
<g>
	<path class="st2" d="M509.23,377.9c-7.81-5.7-17.03-9.26-26.51-10.25c1.86,6.13,8.32,9.31,11.79,14.63
		c1.33,2.04,2.21,4.38,3.53,6.43s3.3,3.87,5.66,4.06c1.9,0.15,3.78-0.83,5.09-2.28c1.31-1.45,2.11-3.33,2.64-5.24
		c0.43-1.56,0.69-3.23,0.33-4.81c-0.36-1.58-1.43-3.07-2.94-3.49"/>
	<g>
		<path class="st2" d="M509.99,376.61c-8.02-5.81-17.43-9.39-27.27-10.45c-0.96-0.1-1.72,1.04-1.45,1.9
			c1.13,3.54,3.56,6.25,6.19,8.78c1.37,1.31,2.77,2.6,4.04,4.01c1.36,1.52,2.37,3.21,3.29,5.03c1.78,3.51,4.01,7.71,8.34,8.34
			c4.41,0.64,7.68-2.98,9.14-6.73c1.59-4.06,2.02-10.26-3.06-11.97c-1.83-0.62-2.62,2.28-0.8,2.89c2.06,0.69,2.18,3.39,1.87,5.16
			c-0.38,2.18-1.22,4.57-2.82,6.16c-1.49,1.49-3.56,2.05-5.44,0.96c-1.88-1.09-2.99-3.1-3.96-4.97c-1.01-1.95-1.95-3.89-3.31-5.63
			c-1.17-1.5-2.51-2.83-3.88-4.14c-2.65-2.53-5.55-5.08-6.71-8.68c-0.48,0.63-0.96,1.27-1.45,1.9c9.31,1.01,18.18,4.57,25.76,10.05
			C510.04,380.33,511.54,377.73,509.99,376.61L509.99,376.61z"/>
	</g>
</g>
<g>
	<path class="st2" d="M521.51,397.93c-0.79-1.02-1.58-2.05-2.37-3.07c-0.25-0.32-0.53-0.67-0.91-0.77
		c-0.68-0.18-1.29,0.47-1.72,1.05c-1.72,2.3-3.43,4.59-5.15,6.89c-0.14,0.19-0.29,0.39-0.28,0.63c0.01,0.41,0.45,0.64,0.82,0.77
		c5.13,1.9,10.06,4.39,14.67,7.4c0.97-1.12,0.65-2.88,0.12-4.28c-1.09-2.87-2.86-5.46-5.1-7.48c-0.22-0.2-0.46-0.42-0.49-0.72
		c-0.04-0.3,0.3-0.63,0.53-0.45"/>
	<g>
		<path class="st2" d="M522.81,397.17c-0.83-1.07-1.66-2.15-2.49-3.22c-0.78-1-1.85-1.67-3.14-1.24c-1.22,0.4-1.93,1.63-2.65,2.6
			c-0.82,1.1-1.65,2.21-2.47,3.31c-0.4,0.53-0.79,1.06-1.19,1.59c-0.39,0.52-0.88,1.03-1.11,1.64c-0.52,1.42,0.4,2.49,1.66,2.99
			c2.32,0.92,4.62,1.85,6.85,2.96c2.6,1.29,5.12,2.74,7.55,4.32c0.5,0.32,1.43,0.27,1.82-0.23c1.86-2.4,0.84-5.3-0.37-7.76
			c-0.59-1.21-1.31-2.34-2.13-3.4c-0.41-0.54-0.84-1.06-1.31-1.56c-0.25-0.27-0.51-0.53-0.77-0.78c-0.13-0.13-0.27-0.25-0.4-0.37
			c-0.22-0.25-0.23-0.19-0.03,0.17c-0.07,0.25-0.14,0.5-0.2,0.76c-0.01,0.01-0.01,0.02-0.02,0.03c-0.22,0.13-0.44,0.26-0.66,0.39
			c0.05-0.02,0.1-0.03,0.15-0.05c-0.27,0-0.53,0-0.8,0c0.05,0.02,0.1,0.03,0.15,0.05c1.84,0.6,2.63-2.3,0.8-2.89
			c-1.83-0.59-2.99,1.62-2.05,3.05c0.4,0.61,1.04,1.06,1.54,1.58c0.48,0.5,0.94,1.03,1.36,1.6c0.86,1.16,1.6,2.43,2.16,3.75
			c0.34,0.79,1.11,2.51,0.47,3.34c0.61-0.08,1.21-0.16,1.82-0.23c-2.43-1.58-4.95-3.03-7.55-4.32c-1.27-0.63-2.56-1.23-3.87-1.78
			c-0.68-0.29-1.36-0.57-2.05-0.85c-0.33-0.13-0.66-0.26-0.99-0.39c-0.19-0.07-0.38-0.14-0.57-0.21c-0.1-0.11-0.03-0.02,0.22,0.27
			c0,0.27,0,0.53,0,0.8c0.07-0.45,0.64-0.96,0.92-1.33c0.36-0.49,0.73-0.97,1.09-1.46c0.76-1.02,1.52-2.03,2.28-3.05
			c0.33-0.44,0.63-0.9,0.99-1.31c0.05-0.06,0.34-0.31,0.33-0.35c-0.12,0.01-0.25,0-0.37-0.02c0.05,0.06,0.11,0.12,0.16,0.19
			c0.28,0.51,0.75,0.97,1.1,1.43c0.4,0.51,0.79,1.02,1.19,1.54c0.49,0.64,1.29,0.98,2.05,0.54
			C522.9,398.86,523.31,397.82,522.81,397.17L522.81,397.17z"/>
	</g>
</g>
<g>
	<g>
		<path class="st2" d="M604.74,482.75c10.73,0.26,21.46,0.52,32.19,0.79c1.93,0.05,1.93-2.95,0-3c-10.73-0.26-21.46-0.52-32.19-0.79
			C602.81,479.71,602.81,482.71,604.74,482.75L604.74,482.75z"/>
	</g>
</g>
<g>
	<path class="st3" d="M642.73,426.29c-12.01-4.78-24.63-7.88-37.42-9.19c-0.52-0.05-1.06-0.11-1.5-0.39
		c-1.09-0.7-1.05-2.5-0.25-3.54s2.08-1.53,3.29-1.96c3.17-1.14,6.34-2.27,9.52-3.41c4.79-1.72,9.59-3.44,14.57-4.41
		c14.91-2.9,30.23,1.12,44.6,6.19c27.04,9.55,52.76,22.89,79.86,32.25c14.97,5.17,30.37,9.13,44.79,15.81
		c-27.12,0.27-54.09-5.69-81.19-4.55c-6.68,0.28-13.38,1-20.05,0.41c-5.21-0.46-10.33-1.71-15.5-2.46
		c-5.98-0.87-12.04-1.09-18.08-1.14c-1.7-0.02-3.49-0.04-4.97-0.92c-2.27-1.36-3.11-4.28-3.92-6.88c-1.27-4.09-2.98-8.12-5.74-11.32
		c-2.76-3.19-6.7-5.48-10.81-5.39"/>
	<g>
		<path class="st3" d="M643.13,424.85c-7.53-2.98-15.31-5.34-23.24-6.99c-3.97-0.83-7.98-1.48-12.01-1.97
			c-0.9-0.11-1.88-0.11-2.76-0.32c-0.69-0.16-0.82-0.62-0.49-1.29c0.68-1.38,3.14-1.82,4.44-2.28c7.74-2.77,15.51-6.06,23.66-7.42
			c7.96-1.32,16.17-0.61,24.02,1.06c7.95,1.69,15.67,4.32,23.28,7.14c7.64,2.84,15.19,5.93,22.69,9.13
			c15,6.38,29.87,13.11,45.16,18.8c15.15,5.64,30.89,9.61,45.86,15.73c1.92,0.78,3.81,1.61,5.69,2.48c0.25-0.93,0.5-1.86,0.76-2.8
			c-23.84,0.21-47.4-4.32-71.21-4.67c-11.85-0.17-23.74,1.78-35.51-0.2c-5.77-0.98-11.47-2.09-17.32-2.49
			c-2.93-0.2-5.87-0.3-8.81-0.35c-2.44-0.04-5.53,0.41-7.25-1.71c-1.58-1.94-2.01-4.75-2.82-7.05c-0.97-2.73-2.16-5.41-3.8-7.8
			c-3.1-4.49-7.89-7.99-13.52-7.97c-1.93,0.01-1.93,3.01,0,3c5.1-0.02,9.22,3.56,11.74,7.73c1.34,2.21,2.31,4.61,3.11,7.06
			c0.68,2.08,1.21,4.3,2.42,6.15c1.37,2.09,3.35,3.19,5.82,3.46c2.87,0.32,5.84,0.14,8.73,0.25c5.96,0.22,11.79,0.96,17.65,2.04
			c5.79,1.06,11.49,1.77,17.38,1.62c5.95-0.15,11.87-0.69,17.83-0.74c11.86-0.1,23.68,0.99,35.48,2.13
			c13.34,1.3,26.7,2.67,40.12,2.55c1.39-0.01,2.17-2.15,0.76-2.8c-15.47-7.13-32.05-11.27-48.05-16.98
			c-16.09-5.74-31.66-12.78-47.36-19.48c-7.88-3.36-15.8-6.65-23.83-9.65c-7.97-2.98-16.06-5.77-24.4-7.52
			c-8.19-1.72-16.62-2.39-24.92-1.09c-8.47,1.33-16.54,4.78-24.57,7.65c-2.96,1.06-7.36,2.73-6.19,6.79
			c0.51,1.76,2.01,2.35,3.68,2.54c2.13,0.24,4.25,0.49,6.37,0.81c8.39,1.28,16.66,3.33,24.68,6.11c2.01,0.7,4,1.44,5.98,2.22
			C644.12,428.45,644.9,425.55,643.13,424.85L643.13,424.85z"/>
	</g>
</g>
<g>
	<path class="st3" d="M797.26,405.65c-26.55-5.4-53.73-6.44-80.53-10.29c-15-2.16-29.88-5.2-44.55-9.1
		c-5.14-1.37-10.34-2.88-14.89-5.73c-0.91-0.57-1.79-1.21-2.65-1.86c0.8,2.67-0.88,6.31-3.96,5.95c-1.59-0.19-3.16-0.34-4.72-0.43
		c-1.84,0.13-3.7,0.11-5.56-0.05c-0.39,0.02-0.78,0.04-1.17,0.07c-3.08,0.25-6.24,0.17-8.85-1.76c-0.1-0.07-0.18-0.15-0.27-0.23
		c-1.02-0.28-2.03-0.58-3.02-0.89c-3.28-1.03-4.47-6.4-1.02-8.12c0.22-0.11,0.45-0.2,0.67-0.31c0.31-0.9,0.89-1.7,1.76-2.23
		c4.41-2.72,9.93-3.11,14.88-1.58c-3.24-2.39-6.84-4.29-10.75-4.64c-4.9-0.44-10.32,2.18-11.92,7.04c-1.82,5.55,1.8,11.48,6.1,15.24
		c0.51,0.44,1.03,0.86,1.55,1.27L586,387.07c-0.7,2.43,0.67,5.1,2.64,6.59c1.97,1.49,4.43,2.06,6.81,2.58
		c49.69,10.77,100.76,12.1,151.5,13.39l55.55,1.41C803.64,408.33,800.04,406.21,797.26,405.65z"/>
	<g>
		<path class="st3" d="M797.66,404.2c-18.74-3.79-37.8-5.47-56.79-7.45c-19.06-1.99-37.98-4.68-56.66-9.04
			c-5.12-1.19-10.24-2.44-15.28-3.91c-4.89-1.43-9.45-3.33-13.53-6.44c-1.1-0.83-2.51,0.54-2.2,1.69c0.32,1.22,0.09,2.79-0.93,3.64
			c-0.48,0.4-0.98,0.45-1.58,0.41c-1.18-0.08-2.36-0.26-3.55-0.35c-1.09-0.09-2.16-0.01-3.25,0c-1.16,0.01-2.32-0.12-3.48-0.13
			c-2.01-0.01-3.96,0.37-5.96-0.04c-0.92-0.19-1.81-0.49-2.62-0.98c-0.39-0.24-0.73-0.57-1.14-0.77c-0.52-0.25-1.14-0.34-1.7-0.51
			c-1.4-0.41-2.6-0.73-3.21-2.18c-0.4-0.96-0.46-2.23,0.25-3.06c0.48-0.57,1.27-0.63,1.78-1.13c0.69-0.7,0.72-1.53,1.64-2.11
			c4.01-2.52,9.12-2.64,13.54-1.32c1.73,0.51,2.46-1.79,1.16-2.74c-5.43-3.96-12.24-6.52-18.71-3.49c-2.65,1.24-4.83,3.41-5.92,6.14
			c-1.25,3.1-0.86,6.53,0.43,9.55c1.56,3.66,4.27,6.65,7.37,9.07c0.35-0.85,0.71-1.71,1.06-2.56c-12.38-0.27-24.76-0.54-37.13-0.82
			c-1.74-0.04-3.49-0.08-5.23-0.11c-0.64-0.01-1.29,0.47-1.45,1.1c-1.14,4.7,2.44,8.43,6.55,9.96c2.33,0.87,4.85,1.26,7.27,1.77
			c2.69,0.56,5.39,1.09,8.09,1.6c10.69,2.01,21.45,3.62,32.25,4.93c21.67,2.63,43.48,4.01,65.29,4.89c15.31,0.62,30.62,1,45.93,1.38
			c9.51,0.24,19.01,0.48,28.52,0.72c7.87,0.2,15.75,0.56,23.63,0.6c0.14,0,0.28,0.01,0.42,0.01c0.7,0.02,1.22-0.49,1.45-1.1
			C805.36,407.51,800.85,404.91,797.66,404.2c-1.88-0.42-2.68,2.47-0.8,2.89c1.51,0.34,4.95,1.44,4.18,3.54
			c0.48-0.37,0.96-0.73,1.45-1.1c-6.43-0.16-12.86-0.33-19.29-0.49c-10.04-0.25-20.08-0.51-30.13-0.76
			c-12.31-0.31-24.63-0.61-36.94-1.02c-21.42-0.71-42.84-1.77-64.17-3.88c-10.72-1.06-21.41-2.39-32.04-4.08
			c-5.27-0.84-10.52-1.77-15.75-2.79c-2.62-0.51-5.24-1.05-7.85-1.61c-2.2-0.47-4.51-0.91-6.42-2.18c-1.7-1.13-2.96-3.18-2.45-5.25
			c-0.48,0.37-0.96,0.73-1.45,1.1c12.38,0.27,24.76,0.54,37.13,0.82c1.74,0.04,3.49,0.08,5.23,0.11c1.2,0.03,2.11-1.74,1.06-2.56
			c-4.91-3.84-11.16-11.92-5.59-17.85c2.06-2.2,5.13-3.27,8.12-3.18c3.95,0.12,7.56,2.2,10.67,4.47c0.39-0.91,0.77-1.83,1.16-2.74
			c-3.4-1.01-7-1.23-10.49-0.48c-3.21,0.69-6.74,2.1-8,5.35c0.23-0.3,0.46-0.6,0.69-0.9c-2.7,1.2-4,3.81-3.3,6.71
			c0.3,1.25,1.01,2.47,1.98,3.32c1.35,1.18,3.02,1.22,4.6,1.91c0.67,0.29,1.38,0.88,2.12,1.21c0.85,0.37,1.73,0.65,2.64,0.81
			c1.86,0.33,3.71,0.25,5.59,0.12c1.04-0.07,2.07,0.05,3.1,0.08c1.08,0.02,2.16-0.07,3.24-0.08c1.98,0,4.07,0.73,6.03,0.37
			c3.46-0.63,4.91-4.7,4.1-7.79c-0.73,0.56-1.47,1.13-2.2,1.69c7.3,5.55,16.51,7.48,25.24,9.63c9.34,2.29,18.77,4.24,28.26,5.83
			c18.95,3.18,38.11,4.67,57.19,6.83c10.82,1.22,21.61,2.7,32.28,4.86C798.75,407.47,799.55,404.58,797.66,404.2z"/>
	</g>
</g>
<g>
	<g>
		<path class="st3" d="M627.85,362.83c-0.61,0-1.22,0.01-1.84,0.01c0.13,0.98,0.27,1.96,0.4,2.95c0.54-0.2,1.08-0.4,1.62-0.6
			c-0.27-0.96-0.53-1.93-0.8-2.89c-0.24,0.09-0.48,0.19-0.7,0.32c-0.21,0.12-0.4,0.28-0.6,0.43c-0.31,0.24-0.54,0.54-0.78,0.85
			c-0.11,0.17-0.17,0.36-0.18,0.56c-0.04,0.2-0.04,0.4,0.03,0.6c0.05,0.2,0.14,0.37,0.27,0.51c0.11,0.16,0.25,0.29,0.42,0.39
			c0.35,0.18,0.77,0.28,1.16,0.15c0.12-0.05,0.24-0.1,0.36-0.15c0.23-0.13,0.4-0.31,0.54-0.54c0.01-0.02,0.02-0.03,0.04-0.05
			c-0.08,0.1-0.16,0.2-0.23,0.3c0.15-0.19,0.32-0.36,0.51-0.5c-0.1,0.08-0.2,0.16-0.3,0.23c0.18-0.14,0.38-0.25,0.59-0.34
			c-0.12,0.05-0.24,0.1-0.36,0.15c0.02-0.01,0.04-0.01,0.05-0.02c0.2-0.05,0.37-0.14,0.51-0.27c0.16-0.11,0.29-0.25,0.39-0.42
			c0.11-0.17,0.17-0.36,0.18-0.56c0.04-0.2,0.04-0.4-0.03-0.6c-0.12-0.36-0.34-0.71-0.69-0.9c-0.34-0.18-0.78-0.29-1.16-0.15
			c-0.54,0.2-1.08,0.4-1.62,0.6c-0.2,0.05-0.37,0.14-0.51,0.27c-0.16,0.11-0.29,0.25-0.39,0.42c-0.05,0.12-0.1,0.24-0.15,0.36
			c-0.06,0.2-0.07,0.4-0.03,0.6c0,0.14,0.03,0.26,0.1,0.38c0.06,0.19,0.16,0.35,0.31,0.48c0.29,0.27,0.66,0.44,1.06,0.44
			c0.61,0,1.22-0.01,1.84-0.01c0.39,0,0.79-0.17,1.06-0.44c0.15-0.14,0.25-0.3,0.31-0.48c0.09-0.18,0.14-0.37,0.13-0.58
			c-0.02-0.39-0.14-0.79-0.44-1.06C628.62,363,628.25,362.83,627.85,362.83L627.85,362.83z"/>
	</g>
</g>
<g>
	<g>
		<path class="st3" d="M598.09,376.35c-0.71,0.53-1.42,1.06-2.13,1.6c0.61,0.79,1.21,1.57,1.82,2.36c0.06-0.05,0.13-0.11,0.2-0.16
			c-0.1,0.08-0.2,0.16-0.3,0.23c0.43-0.33,0.9-0.61,1.4-0.82c-0.12,0.05-0.24,0.1-0.36,0.15c0.27-0.11,0.54-0.2,0.82-0.28
			c0.5-0.13,0.91-0.55,1.05-1.05c0.07-0.27,0.07-0.53,0-0.8c-0.07-0.25-0.2-0.47-0.39-0.66c-0.09-0.1-0.23-0.2-0.34-0.28
			c-0.13-0.08-0.2-0.11-0.41-0.18c-0.17-0.06-0.35-0.08-0.53-0.08c-0.14,0-0.31,0.03-0.45,0.06c-0.14,0.04-0.28,0.1-0.41,0.17
			c-0.29,0.17-0.43,0.35-0.62,0.62c-0.11,0.17-0.17,0.36-0.18,0.56c-0.04,0.2-0.04,0.4,0.03,0.6c0.1,0.35,0.36,0.73,0.69,0.9
			c0.35,0.18,0.77,0.28,1.16,0.15c0.12-0.05,0.24-0.1,0.36-0.15c0.23-0.13,0.4-0.31,0.54-0.54c0.01-0.01,0.01-0.02,0.02-0.02
			c-0.08,0.1-0.16,0.2-0.23,0.3c0.01-0.01,0.03-0.03,0.04-0.04c-0.1,0.08-0.2,0.16-0.3,0.23c0.02-0.01,0.03-0.02,0.05-0.03
			c-0.12,0.05-0.24,0.1-0.36,0.15c0.03-0.01,0.05-0.02,0.08-0.02c-0.13,0.02-0.27,0.04-0.4,0.05c0.02,0,0.04,0,0.06,0
			c-0.13-0.02-0.27-0.04-0.4-0.05c0.03,0,0.05,0.01,0.08,0.02c-0.12-0.05-0.24-0.1-0.36-0.15c0.02,0.01,0.03,0.02,0.05,0.03
			c-0.1-0.08-0.2-0.16-0.3-0.23c0.01,0.01,0.03,0.03,0.04,0.04c0.22-0.84,0.44-1.67,0.66-2.51c-0.56,0.15-1.12,0.37-1.63,0.64
			c-0.52,0.27-1,0.62-1.45,1c-0.15,0.14-0.25,0.3-0.31,0.48c-0.09,0.18-0.14,0.37-0.13,0.58c0.02,0.13,0.04,0.27,0.05,0.4
			c0.05,0.2,0.14,0.37,0.27,0.51c0.19,0.25,0.47,0.47,0.78,0.54c0.37,0.08,0.84,0.09,1.16-0.15c0.71-0.53,1.42-1.06,2.13-1.6
			c0.17-0.09,0.32-0.22,0.42-0.39c0.13-0.14,0.22-0.31,0.27-0.51c0.1-0.36,0.05-0.84-0.15-1.16c-0.21-0.32-0.51-0.6-0.9-0.69
			C598.88,376.12,598.41,376.11,598.09,376.35L598.09,376.35z"/>
	</g>
</g>
<g>
	<g>
		<path class="st3" d="M596.06,375.83c-0.46,0.4-0.85,0.9-1.17,1.42c-0.39,0.64-0.19,1.49,0.39,1.93c0.58,0.45,1.44,0.42,1.97-0.12
			c0.93-0.95,1.61-2.16,1.9-3.46c0.17-0.76-0.23-1.67-1.05-1.85c-0.73-0.16-1.45,0.07-1.92,0.67c-0.27,0.34-0.53,0.68-0.77,1.04
			c-0.19,0.27-0.36,0.55-0.53,0.83c-0.27,0.45-0.56,0.92-0.57,1.47c0,0.45,0.16,0.87,0.48,1.18c0.54,0.53,1.4,0.58,2,0.12
			c0.32-0.24,0.56-0.51,0.81-0.83c0.45-0.58,0.79-1.28,0.92-2.01c0.06-0.34,0.06-0.65-0.08-0.98c-0.12-0.29-0.33-0.57-0.61-0.72
			c-0.6-0.32-1.32-0.25-1.82,0.23c-0.46,0.45-0.87,0.99-1.16,1.57c-0.17,0.33-0.34,0.7-0.43,1.06c-0.12,0.51-0.03,1.01,0.29,1.43
			c0.18,0.23,0.38,0.38,0.64,0.49c0.12,0.05,0.22,0.08,0.34,0.12c-0.22-0.13-0.44-0.26-0.66-0.39c0.01,0.01,0.03,0.03,0.04,0.04
			c-0.08-0.1-0.16-0.2-0.23-0.3c0.01,0.02,0.02,0.03,0.03,0.05c-0.05-0.12-0.1-0.24-0.15-0.36c0.09,0.33,0.11,0.7,0.15,1.04
			c0.05,0.33,0.41,0.75,0.69,0.9c0.3,0.16,0.62,0.22,0.96,0.18c0.75-0.1,1.28-0.72,1.3-1.47c0.02-0.58-0.19-1.14-0.59-1.55
			c-0.43-0.45-1.17-0.66-1.77-0.48c-0.99,0.3-1.56,1.42-1.03,2.36c0.32,0.58,0.95,0.85,1.59,0.83c1.19-0.03,2.32-0.45,3.49-0.62
			c-0.13,0.02-0.27,0.04-0.4,0.05c0.27-0.04,0.55-0.06,0.83-0.05c0.93,0.02,1.76-0.98,1.45-1.9c-0.42-1.22-1.07-2.33-1.98-3.24
			c-0.35,0.85-0.71,1.71-1.06,2.56c0.05,0,0.1,0,0.15,0c0.78-0.02,1.54-0.68,1.5-1.5c-0.04-0.8-0.66-1.52-1.5-1.5
			c-0.05,0-0.1,0-0.15,0c-0.6,0.01-1.14,0.37-1.37,0.92c-0.23,0.55-0.12,1.21,0.31,1.64c0.2,0.2,0.38,0.4,0.55,0.62
			c-0.08-0.1-0.16-0.2-0.23-0.3c0.35,0.46,0.65,0.96,0.88,1.5c-0.05-0.12-0.1-0.24-0.15-0.36c0.06,0.15,0.12,0.3,0.17,0.46
			c0.48-0.63,0.96-1.27,1.45-1.9c-1.29-0.02-2.49,0.45-3.75,0.62c0.13-0.02,0.27-0.04,0.4-0.05c-0.24,0.03-0.48,0.06-0.72,0.05
			c0.13,0.02,0.27,0.04,0.4,0.05c-0.03,0-0.06-0.01-0.09-0.03c0.22,0.13,0.44,0.26,0.66,0.39c-0.01-0.01-0.02-0.02-0.03-0.03
			c0.08,0.1,0.16,0.2,0.23,0.3c-0.01-0.01-0.01-0.03-0.02-0.04c0.07,0.25,0.14,0.5,0.2,0.76c0-0.02,0-0.04,0-0.05
			c-0.07,0.25-0.14,0.5-0.2,0.76c0.01-0.02,0.02-0.03,0.03-0.05c-0.08,0.1-0.16,0.2-0.23,0.3c0.02-0.01,0.03-0.02,0.04-0.03
			c-0.22,0.13-0.44,0.26-0.66,0.39c0.03-0.02,0.07-0.03,0.11-0.03c-0.13,0.02-0.27,0.04-0.4,0.05c0.02,0,0.04,0,0.06,0
			c-0.13-0.02-0.27-0.04-0.4-0.05c0.04,0.01,0.07,0.02,0.11,0.03c-0.12-0.05-0.24-0.1-0.36-0.15c0.02,0.01,0.03,0.02,0.05,0.03
			c-0.1-0.08-0.2-0.16-0.3-0.23c0.03,0.02,0.06,0.05,0.08,0.08c-0.08-0.1-0.16-0.2-0.23-0.3c0.03,0.04,0.05,0.07,0.06,0.12
			c-0.05-0.12-0.1-0.24-0.15-0.36c0.02,0.04,0.03,0.09,0.03,0.13c-0.02-0.13-0.04-0.27-0.05-0.4c0.01,0.07,0.01,0.13,0.01,0.2
			c0.98-0.13,1.96-0.27,2.95-0.4c-0.04-0.29-0.08-0.59-0.12-0.88c-0.1-0.7-0.66-1.15-1.3-1.34c0.12,0.05,0.24,0.1,0.36,0.15
			c-0.01-0.01-0.03-0.02-0.04-0.03c0.23,0.3,0.46,0.6,0.69,0.9c-0.01-0.02-0.02-0.04-0.02-0.06c0.02,0.13,0.04,0.27,0.05,0.4
			c0-0.02,0-0.04,0-0.06c-0.02,0.13-0.04,0.27-0.05,0.4c0.04-0.16,0.1-0.31,0.16-0.45c-0.05,0.12-0.1,0.24-0.15,0.36
			c0.15-0.36,0.35-0.7,0.58-1.01c-0.08,0.1-0.16,0.2-0.23,0.3c0.14-0.18,0.29-0.35,0.45-0.51c-0.84-0.49-1.67-0.97-2.51-1.46
			c-0.05,0.26-0.12,0.51-0.22,0.76c0.05-0.12,0.1-0.24,0.15-0.36c-0.11,0.26-0.26,0.51-0.43,0.74c0.08-0.1,0.16-0.2,0.23-0.3
			c-0.16,0.21-0.34,0.39-0.54,0.56c0.35-0.15,0.71-0.29,1.06-0.44c-0.01,0-0.02,0-0.03,0c0.35,0.15,0.71,0.29,1.06,0.44
			c-0.01-0.01-0.02-0.01-0.02-0.02c0.08,0.1,0.16,0.2,0.23,0.3c0-0.01-0.01-0.02-0.01-0.03c0.07,0.25,0.14,0.5,0.2,0.76
			c-0.01-0.03-0.01-0.06,0-0.09c-0.02,0.13-0.04,0.27-0.05,0.4c0-0.03,0.01-0.06,0.03-0.09c-0.05,0.12-0.1,0.24-0.15,0.36
			c0.39-0.74,0.84-1.44,1.35-2.11c-0.08,0.1-0.16,0.2-0.23,0.3c0.07-0.09,0.14-0.18,0.23-0.26c-0.1,0.08-0.2,0.16-0.3,0.23
			c0.03-0.03,0.07-0.05,0.11-0.07c-0.12,0.05-0.24,0.1-0.36,0.15c0.02-0.01,0.04-0.01,0.06-0.02c-0.13,0.02-0.27,0.04-0.4,0.05
			c0.02,0,0.04,0,0.06,0c-0.13-0.02-0.27-0.04-0.4-0.05c0.02,0,0.04,0.01,0.06,0.01c-0.35-0.62-0.7-1.23-1.05-1.85
			c-0.08,0.34-0.18,0.67-0.31,0.99c0.05-0.12,0.1-0.24,0.15-0.36c-0.2,0.46-0.45,0.9-0.76,1.3c0.08-0.1,0.16-0.2,0.23-0.3
			c-0.14,0.18-0.29,0.35-0.45,0.51c0.79,0.61,1.57,1.21,2.36,1.82c0.09-0.15,0.18-0.29,0.29-0.43c-0.08,0.1-0.16,0.2-0.23,0.3
			c0.19-0.25,0.41-0.48,0.65-0.69c0.28-0.24,0.44-0.7,0.44-1.06c0-0.37-0.16-0.81-0.44-1.06
			C597.55,375.25,596.69,375.28,596.06,375.83L596.06,375.83z"/>
	</g>
</g>
<g>
	<path class="st3" d="M609.18,353.37c-1.56-1.51-3.88-1.68-6.01-1.77c1.95-0.45,4.12,0.64,5.01,2.51c0.57,1.19,0.63,2.57,0.65,3.9
		c0.07,4-0.15,8.18-2.02,11.67c-2.06-2.67-5.38-4.22-8.65-4.04c-0.32,0.02-0.68,0.04-0.94-0.16c-0.25-0.19-0.33-0.54-0.37-0.85
		c-0.26-2.11,0.74-4.15,1.72-6.02c1.4-2.71,2.84-5.46,4.97-7.58"/>
	<g>
		<path class="st3" d="M610.24,352.31c-1.97-1.8-4.52-2.1-7.07-2.21c0.13,0.98,0.27,1.96,0.4,2.95c1.08-0.21,2.25,0.3,2.93,1.15
			c1.01,1.28,0.84,3.25,0.85,4.78c0.01,3.38-0.23,6.88-1.82,9.94c0.79-0.1,1.57-0.2,2.36-0.3c-1.29-1.63-3-2.86-4.92-3.65
			c-1-0.41-2.04-0.65-3.11-0.78c-0.47-0.05-0.93-0.08-1.4-0.07c-0.13,0-0.27,0.01-0.4,0.02c-0.29-0.01-0.19,0.09,0.3,0.32
			c0.05-0.03-0.02-0.58-0.02-0.67c0.05-2.21,1.49-4.36,2.5-6.25c1.06-1.96,2.21-3.86,3.78-5.46c1.36-1.38-0.76-3.5-2.12-2.12
			c-1.78,1.81-3.13,3.98-4.33,6.21c-1.27,2.36-2.77,4.88-2.84,7.63c-0.03,1.24,0.25,2.66,1.54,3.17c1.02,0.4,2.22,0.09,3.29,0.29
			c2.27,0.44,4.18,1.68,5.61,3.49c0.59,0.75,1.95,0.48,2.36-0.3c2.09-4.01,2.38-8.65,2.21-13.1c-0.08-2.09-0.52-4.25-2.14-5.7
			c-1.5-1.34-3.44-1.86-5.4-1.48c-1.72,0.34-1.23,2.88,0.4,2.95c1.69,0.07,3.63,0.12,4.95,1.33
			C609.54,355.73,611.67,353.61,610.24,352.31L610.24,352.31z"/>
	</g>
</g>
<g>
	<g>
		<path class="st4" d="M773.46,392.72c-29.14-6.08-57.97-13.68-86.78-21.27c-13.62-3.59-27.32-7.2-40.19-13.09
			c-33.04-15.11-59.14-44.47-93.26-56.68c-27.3-9.77-59.07-8.36-82.05-26.58c-4.29-3.4-8.21-7.45-13.14-9.71
			c-4.93-2.26-11.38-2.22-14.99,1.95l-0.63-0.16c2.96,8.23,8.12,15.58,14.76,20.99c8.3,6.77,18.5,10.35,28.27,14.46
			c20.4,8.59,39.7,20.02,57.23,33.88c3.87,3.06,7.69,6.28,10.58,10.35c3.08,4.35,5.01,9.57,8.58,13.49c3.57,3.92,9.8,6.15,13.9,2.85
			c-0.59,8.33,3.22,16.86,9.71,21.75c6.49,4.89,15.44,5.97,22.83,2.75c3.79-1.65,7.18-4.33,11.16-5.34
			c5.05-1.27,10.32,0.31,15.31,1.83c69.18,20.97,141.63,30.14,213.6,27.04C824.18,402.14,798.64,397.98,773.46,392.72z
			 M602.88,379.17c-0.17,0.55-0.46,1.03-0.88,1.43c-0.31,0.33-0.64,0.63-0.98,0.93c-0.53,0.55-1.16,0.93-1.88,1.14
			c-0.38,0.05-0.75,0.11-1.13,0.16c-0.77,0-1.48-0.2-2.15-0.61c-0.29-0.23-0.57-0.46-0.86-0.69c-0.42-0.4-0.71-0.88-0.88-1.43
			c-0.27-0.53-0.39-1.1-0.37-1.71c-0.02-0.61,0.1-1.18,0.37-1.71c0.17-0.55,0.47-1.03,0.88-1.43c0.34-0.29,0.67-0.6,0.98-0.93
			c0.53-0.55,1.16-0.93,1.88-1.14c0.38-0.05,0.75-0.11,1.13-0.16c0.77,0,1.48,0.2,2.15,0.61c0.29,0.23,0.57,0.46,0.86,0.69
			c0.42,0.4,0.71,0.88,0.88,1.43c0.27,0.53,0.39,1.1,0.37,1.71C603.27,378.07,603.15,378.64,602.88,379.17z M613.47,359.54
			c-0.06,0.56-0.15,1.11-0.22,1.67c-0.01,0.08-0.03,0.29-0.04,0.39c0-0.03,0.01-0.07,0.01-0.12c-0.15,1.75-0.98,3.16-2.31,3.89
			c-0.05,0.72-0.15,1.43-0.35,2.12c-0.04,0.14-0.09,0.27-0.14,0.4c0,0.01,0,0.01,0,0.02c0.59,4.63-5.93,5.67-7.93,2.24
			c-0.39-0.67-0.73-1.06-1.06-1.28c-0.24-0.09-0.48-0.18-0.72-0.27c-0.65-0.07-1.41,0.15-2.63-0.16c-2.05-0.52-3.45-2.41-3.47-4.62
			c0-0.29,0.03-0.57,0.07-0.84c-0.3-1.15-0.33-2.39-0.03-3.68c0.59-2.49,2.5-5.41,4.84-7.58c0.21-0.49,0.42-0.98,0.65-1.47
			c1.16-2.55,3.53-2.73,5.36-1.66c1.56-0.1,3.05,0.49,3.94,1.77c0.16,0.09,0.3,0.21,0.44,0.34c0.93,0.34,1.75,0.99,2.15,1.91
			c0.64,1.46,1.17,2.86,1.38,4.45C613.52,357.92,613.57,358.68,613.47,359.54z M648.96,384.44c-0.55-0.1-1.14-0.19-1.75-0.26
			c-6.57,1.54-12.71,0.05-19.03-2.41c-0.79-0.31-1.55-0.66-2.27-1.05c-0.21,0.03-0.42,0.05-0.64,0.05
			c-6.99,0.06-5.25-8.78-2.64-13.67c0.17-0.57,0.38-1.07,0.61-1.53c0.01-0.18,0.04-0.35,0.08-0.52c0.01-0.78,0.24-1.56,0.59-2.24
			c0.49-0.96,1.56-1.76,2.54-2.04c0.57-0.19,1.13-0.21,1.7-0.08c0.33,0.02,0.64,0.09,0.95,0.2c0.4-0.01,0.81,0.04,1.21,0.15
			c0.31,0.14,0.62,0.27,0.92,0.41c3.41-0.25,6.98,1.01,9.59,3.37c3.3,1.07,6.38,2.62,8.82,5.42c1.62,1.86,3.04,4.36,3.47,6.73
			C655.82,379.65,653.49,385.28,648.96,384.44z"/>
	</g>
	<g>
		<path class="st4" d="M773.86,391.27c-26.82-5.61-53.35-12.47-79.84-19.44c-12.65-3.33-25.42-6.46-37.7-11.03
			c-11.08-4.13-21.41-9.79-31.28-16.26c-18.86-12.35-36.14-27.21-56.23-37.63c-9.83-5.1-20.16-8.69-30.93-11.2
			c-10.79-2.52-21.76-4.24-32.52-6.91c-10.59-2.63-21.03-6.27-30.08-12.51c-8.2-5.66-16.25-16.32-27.54-13.46
			c-2.23,0.57-4.2,1.76-5.76,3.44c0.49-0.13,0.97-0.26,1.46-0.39c-0.21-0.05-0.42-0.11-0.63-0.16c-1.03-0.26-2.25,0.73-1.85,1.85
			c3.76,10.24,10.53,18.96,19.65,24.96c9.74,6.41,21.14,9.88,31.67,14.74c11.07,5.11,21.75,11.06,31.94,17.76
			c5.07,3.33,10.01,6.84,14.82,10.53c4.81,3.7,9.85,7.53,13.29,12.6c3.36,4.96,5.43,11.11,10.27,14.93c3.9,3.08,9.6,4.58,13.89,1.4
			c-0.75-0.43-1.5-0.86-2.26-1.3c-0.46,7.93,2.61,16.05,8.51,21.44c5.95,5.44,14.49,7.59,22.33,5.71c4.13-0.99,7.53-3.4,11.3-5.23
			c4.97-2.41,9.94-1.79,15.1-0.34c9.69,2.73,19.31,5.68,29.06,8.19c39.18,10.08,79.32,16.47,119.69,19.05
			c22.68,1.45,45.43,1.68,68.13,0.71c1.75-0.07,1.97-2.36,0.4-2.95C824.56,400.74,799.03,396.52,773.86,391.27
			c-1.88-0.39-2.69,2.5-0.8,2.89c25.17,5.24,50.71,9.47,74.89,18.5c0.13-0.98,0.27-1.96,0.4-2.95
			c-39.34,1.67-78.84-0.26-117.82-5.84c-19.45-2.78-38.78-6.46-57.89-11.01c-9.57-2.28-19.09-4.78-28.54-7.49
			c-4.66-1.34-9.29-2.94-14.01-4.07c-4.31-1.03-8.78-1.38-12.99,0.23c-4.63,1.78-8.5,5.01-13.43,6.05
			c-4.54,0.96-9.45,0.36-13.64-1.63c-8.56-4.06-13.31-13.49-12.78-22.76c0.06-1.06-1.35-1.97-2.26-1.3
			c-4.19,3.11-9.53,0.38-12.52-3.11c-3.56-4.16-5.42-9.5-8.76-13.83c-3.41-4.44-7.86-7.91-12.26-11.31
			c-4.32-3.34-8.75-6.55-13.28-9.6c-9.61-6.48-19.68-12.29-30.12-17.36c-9.92-4.82-20.48-8.32-30.25-13.44
			c-11.04-5.79-19.6-14.68-23.93-26.48c-0.62,0.62-1.23,1.23-1.85,1.85c0.21,0.05,0.42,0.11,0.63,0.16c0.51,0.13,1.1,0.01,1.46-0.39
			c3.65-3.96,9.62-3.56,14.09-1.26c5.05,2.6,9,6.87,13.5,10.25c8.55,6.43,18.61,10.44,28.86,13.27
			c21.16,5.83,43.26,7.45,63.27,17.12c20.07,9.7,37.26,24.18,55.6,36.64c9.23,6.27,18.81,12.07,29.08,16.49
			c11.71,5.03,24.02,8.39,36.32,11.63c26.07,6.88,52.16,13.76,78.5,19.56c3.24,0.71,6.49,1.41,9.75,2.09
			C774.94,394.56,775.75,391.67,773.86,391.27z"/>
		<path class="st4" d="M601.43,378.77c-0.09,0.28-0.04,0.14-0.02,0.08c-0.04,0.09-0.09,0.19-0.14,0.27
			c-0.04,0.07-0.08,0.13-0.12,0.19c-0.14,0.2,0.12-0.12-0.05,0.06c-0.3,0.33-0.62,0.64-0.96,0.93c-0.34,0.3-0.47,0.46-0.75,0.63
			c-0.09,0.05-0.18,0.1-0.27,0.15c-0.02,0.01-0.26,0.11-0.07,0.04c-0.22,0.09-0.44,0.12-0.68,0.15c-0.12,0.02-0.25,0.04-0.38,0.05
			c-0.02,0-0.29-0.01-0.14,0c0.01,0-0.26-0.01-0.12,0c0.15,0.01-0.17-0.03-0.2-0.04c-0.42-0.09-0.59-0.15-0.82-0.3
			c-0.18-0.11-0.34-0.27-0.5-0.41c-0.04-0.03-0.43-0.43-0.31-0.28c-0.11-0.14-0.2-0.3-0.27-0.46c-0.11-0.23,0.07,0.17-0.03-0.07
			c-0.05-0.12-0.25-0.61-0.16-0.37c-0.07-0.2-0.14-0.4-0.18-0.61c0.01,0.03,0.02,0.18,0,0c-0.01-0.11-0.01-0.22-0.01-0.33
			c-0.01-0.52-0.02-0.54,0.16-1.03c0.01-0.02,0.02-0.05,0.03-0.07c-0.04,0.13-0.02,0.09,0.06-0.11c0.05-0.11,0.08-0.22,0.13-0.33
			c-0.07,0.17,0.15-0.27,0.19-0.33c0.02-0.03,0.17-0.22,0.04-0.06c0.05-0.06,0.1-0.12,0.16-0.17c0.18-0.18,0.37-0.34,0.56-0.51
			c0.26-0.24,0.62-0.64,0.81-0.79c0.21-0.16,0.61-0.37,0.81-0.42c0.21-0.06,0.43-0.07,0.64-0.1c0.27-0.04,0.32-0.06,0.49-0.01
			c-0.03-0.01-0.18-0.03,0,0c0.11,0.02,0.21,0.04,0.31,0.07c0.1,0.03,0.2,0.06,0.31,0.09c0.28,0.1-0.33-0.12,0.16,0.07
			c0.29,0.11,0.73,0.49,1.01,0.79c0.17,0.18-0.09-0.15,0.05,0.06c0.07,0.11,0.13,0.22,0.2,0.33c0.01,0.03,0.12,0.26,0.03,0.06
			c0.07,0.17,0.13,0.34,0.2,0.51c-0.07-0.18,0.03,0.06,0.03,0.08c0.04,0.13,0.07,0.25,0.1,0.38c0.06,0.25-0.01-0.18,0.01,0.08
			c0.01,0.14,0.01,0.27,0.01,0.41c0,0.11,0,0.22,0,0.33c0,0.07-0.03,0.24,0,0.08c-0.02,0.1-0.04,0.21-0.07,0.31
			c-0.01,0.04-0.17,0.42-0.08,0.24c-0.35,0.73-0.2,1.62,0.54,2.05c0.65,0.38,1.7,0.2,2.05-0.54c1.16-2.45,0.5-5.37-1.55-7.02
			c-1.04-0.84-2.26-1.45-3.64-1.39c-1.44,0.06-2.76,0.55-3.84,1.52c-0.84,0.75-1.76,1.55-2.23,2.59c-0.24,0.53-0.48,1.02-0.59,1.71
			c-0.11,0.71-0.11,1.39,0,2.1c0.11,0.71,0.34,1.15,0.59,1.71c0.26,0.59,0.66,1.14,1.15,1.56c0.45,0.38,0.92,0.79,1.46,1.04
			c0.69,0.33,1.39,0.51,2.15,0.57c0.66,0.05,1.53-0.07,2.16-0.3c0.75-0.27,1.41-0.67,2-1.2c1.05-0.95,2.02-1.87,2.48-3.25
			c0.25-0.74-0.29-1.67-1.05-1.85C602.45,377.53,601.7,377.97,601.43,378.77z"/>
		<path class="st4" d="M611.97,359.54c-0.08,0.69-0.2,1.37-0.26,2.06c1,0,2,0,3,0c0-0.04,0.01-0.08,0.01-0.12
			c0.07-0.81-0.74-1.49-1.5-1.5c-0.89-0.01-1.41,0.7-1.5,1.5c-0.1,0.88-0.46,1.79-1.18,2.35c-0.47,0.37-0.88,0.52-1.08,1.14
			c-0.21,0.64-0.19,1.45-0.35,2.12c-0.27,1.12,0.05,2.32-1,3.07c-0.91,0.65-2.25,0.68-3.24,0.2c-0.47-0.22-0.79-0.55-1.08-0.97
			c-0.72-1.04-1.36-1.94-2.67-2.23c-0.97-0.22-1.96,0.11-2.92-0.24c-0.86-0.31-1.52-0.99-1.85-1.84c-0.36-0.93-0.15-1.89-0.3-2.84
			c-0.2-1.27-0.05-2.47,0.4-3.67c0.81-2.15,2.29-3.9,3.85-5.55c1.17-1.24,1.33-4.06,3.66-3.47c0.47,0.12,0.86,0.43,1.35,0.51
			c0.55,0.09,1.06,0,1.6,0.18c0.52,0.18,0.87,0.48,1.24,0.87c0.48,0.51,0.9,0.78,1.52,1.12c1.09,0.58,1.41,1.85,1.77,2.95
			C611.9,356.6,612.11,358.05,611.97,359.54c-0.18,1.92,2.83,1.91,3,0c0.13-1.47-0.04-2.99-0.42-4.42c-0.36-1.35-0.85-2.9-1.69-4.03
			c-0.39-0.52-0.87-0.96-1.42-1.31c-0.28-0.17-0.6-0.26-0.88-0.43c0.58,0.34-0.47-0.46-0.01,0c-0.96-0.95-1.77-1.74-3.13-2.08
			c-0.32-0.08-0.66-0.13-0.99-0.16c-0.06-0.01-1.06-0.11-0.39,0.06c-0.52-0.13-0.98-0.45-1.52-0.57c-1.1-0.24-2.25-0.14-3.27,0.36
			c-1.08,0.53-1.88,1.47-2.4,2.53c-0.3,0.6-0.49,1.16-0.92,1.66c-0.55,0.63-1.13,1.22-1.65,1.88c-1.67,2.14-3.08,4.66-3.3,7.41
			c-0.06,0.7-0.08,1.55,0.12,2.23c0.24,0.83,0.11-0.36,0.05,0.58c-0.02,0.3-0.04,0.58-0.02,0.88c0.08,1.26,0.5,2.48,1.26,3.5
			c0.76,1.02,1.8,1.78,3.02,2.17c0.56,0.18,1.18,0.27,1.77,0.3c0.47,0.02,1.14-0.16,1.54,0.1c0.4,0.27,0.65,0.97,0.96,1.35
			c0.22,0.27,0.44,0.51,0.71,0.73c0.76,0.64,1.69,1.07,2.67,1.26c1.98,0.37,4.21-0.13,5.61-1.65c0.73-0.79,1.15-1.77,1.27-2.84
			c0.03-0.22,0.04-0.44,0.04-0.67c0-0.16-0.02-0.32-0.04-0.48c0,0.25,0.03,0.24,0.08-0.02c0.19-0.84,0.33-1.66,0.4-2.52
			c-0.25,0.43-0.5,0.86-0.74,1.3c1.92-1.15,2.81-3.03,3.05-5.19c-1,0-2,0-3,0c0,0.04-0.01,0.08-0.01,0.12c-0.17,1.93,2.82,1.9,3,0
			c0.07-0.69,0.18-1.37,0.26-2.06c0.1-0.81-0.76-1.49-1.5-1.5C612.58,358.03,612.07,358.74,611.97,359.54z"/>
		<path class="st4" d="M649.36,382.99c-0.83-0.15-1.7-0.34-2.55-0.26c-0.93,0.09-1.84,0.38-2.78,0.47
			c-1.85,0.18-3.73,0.14-5.57-0.11c-3.57-0.47-7.22-1.57-10.5-3.03c-0.66-0.3-1.31-0.79-2.05-0.85c-0.55-0.04-1.09,0.08-1.65-0.02
			c-0.83-0.16-1.49-0.55-1.91-1.3c-0.88-1.56-0.54-3.73-0.16-5.39c0.23-0.98,0.53-1.96,0.9-2.89c0.48-1.22,1.24-2.38,1.58-3.65
			c0.36-1.34,0.15-2.63,1.53-3.47c0.71-0.43,1.38-0.42,2.17-0.27c0.36,0.07,0.75,0.09,1.11,0.17c0.48,0.1,0.87,0.39,1.33,0.5
			c0.62,0.15,1.35,0.01,1.98,0.05c0.8,0.05,1.58,0.2,2.35,0.42c1.79,0.51,3.1,1.47,4.59,2.52c1.15,0.81,2.73,1.09,3.99,1.73
			c1.58,0.8,3.03,1.8,4.26,3.07c1.3,1.34,2.4,2.96,3.09,4.7c0.35,0.89,0.42,1.86,0.96,2.65c0.29,0.43,0.57,0.74,0.67,1.28
			C653.09,381.29,651.44,383.32,649.36,382.99c-1.89-0.29-2.7,2.6-0.8,2.89c2.98,0.46,5.68-0.93,6.78-3.8
			c0.46-1.21,0.55-2.57,0.2-3.82c-0.17-0.6-0.45-1.17-0.81-1.68c-0.42-0.58-0.45-1.25-0.84-2.21c-1.52-3.82-4.37-7-7.95-9
			c-0.81-0.45-1.65-0.83-2.5-1.19c-0.82-0.34-1.65-0.53-2.35-1.09c-1.53-1.21-3.27-2.12-5.15-2.65c-0.9-0.26-1.82-0.41-2.75-0.5
			c-0.46-0.04-0.92-0.03-1.39-0.05c-0.27-0.01-0.47-0.08-0.94-0.25c-1.66-0.6-3.89-0.81-5.52-0.09c-1.78,0.78-3.03,2.38-3.41,4.29
			c-0.2,0.99-0.18,1.27-0.48,2.02c-0.26,0.66-0.57,1.29-0.85,1.95c-1.74,4-3.58,11.42,1.56,13.81c0.71,0.33,1.44,0.5,2.22,0.58
			c0.38,0.04,0.83-0.04,1.2,0.03c-0.28-0.05,0.26,0.12,0.29,0.14c0.32,0.15,0.63,0.3,0.95,0.43c2.28,0.99,4.68,1.8,7.09,2.42
			c2.28,0.59,4.64,0.97,6.99,1.05c1.27,0.04,2.54-0.01,3.8-0.17c1.33-0.16,2.51-0.47,3.85-0.24
			C650.45,386.22,651.26,383.33,649.36,382.99z"/>
	</g>
</g>
<g>
	<path class="st5" d="M651.78,438.87c-10.27-22.24-33.04-37.56-56.68-38.13c-2.37-0.06-5.36-0.41-6.1-2.76
		c6.64-3.24,13.47-6.37,20.75-7.37c9.33-1.28,18.8,1.03,27.6,4.5c11.28,4.45,21.78,10.77,32.62,16.3
		c38.07,19.45,79.94,29.06,121.35,38.51c7.4,1.69,14.82,3.38,22.34,4.28c6.39,0.77,13.75,1.47,17.43,6.98
		c-19.43,0.04-38.87-1.58-58.05-4.85c-11.61-1.98-23.12-4.56-34.8-6.06c-22.91-2.94-46.24-1.68-69.01-5.64
		c-6.94-1.21-13.95-2.96-19.92-6.85"/>
	<g>
		<path class="st5" d="M653.07,438.11c-8.79-18.88-26.68-33.37-47.12-37.61c-2.85-0.59-5.76-0.99-8.67-1.17
			c-1.77-0.11-6.03,0.42-6.83-1.75c-0.23,0.56-0.46,1.13-0.69,1.69c7.61-3.71,15.52-7.26,24.12-7.51c8.49-0.24,16.8,2.2,24.58,5.4
			c7.96,3.27,15.51,7.45,23.08,11.51c7.48,4.01,15.07,7.81,22.85,11.21c15.33,6.7,31.18,12.11,47.24,16.75
			c16.11,4.66,32.43,8.56,48.77,12.32c8.45,1.95,16.9,4.04,25.44,5.56c3.85,0.69,7.74,1.09,11.61,1.65
			c3.11,0.46,6.34,1.08,9.07,2.72c1.29,0.78,2.41,1.79,3.26,3.03c0.43-0.75,0.86-1.5,1.3-2.26c-12.09,0.02-24.17-0.59-36.2-1.85
			c-12.16-1.27-24.17-3.39-36.18-5.66c-11.86-2.24-23.72-4.04-35.77-4.84c-12.01-0.8-24.06-1.03-36.06-2.02
			c-6.63-0.55-13.27-1.31-19.8-2.6c-5.97-1.17-11.85-2.91-17.01-6.22c-1.63-1.05-3.14,1.55-1.51,2.59
			c9.46,6.07,21.33,7.48,32.27,8.66c12.13,1.3,24.34,1.59,36.52,2.26c12.28,0.67,24.38,2.07,36.48,4.31
			c12.04,2.22,24.04,4.54,36.2,5.99c13.63,1.62,27.34,2.42,41.07,2.4c1.07,0,1.96-1.3,1.3-2.26c-3.94-5.71-10.93-6.79-17.34-7.56
			c-8.79-1.06-17.39-3.04-26.01-5c-16.72-3.82-33.44-7.68-49.97-12.24c-16.51-4.56-32.84-9.82-48.66-16.4
			c-7.97-3.32-15.78-7.01-23.42-11.04c-7.73-4.07-15.33-8.39-23.3-11.99c-7.86-3.55-16.1-6.51-24.75-7.26
			c-8.73-0.76-16.91,1.49-24.83,5c-1.98,0.88-3.92,1.81-5.87,2.76c-0.55,0.27-0.9,1.11-0.69,1.69c0.91,2.47,3.14,3.43,5.61,3.73
			c2.44,0.3,4.92,0.23,7.36,0.53c5.1,0.61,10.12,1.96,14.89,3.84c9.76,3.85,18.51,10.21,25.36,18.13c3.92,4.53,7.17,9.6,9.69,15.03
			C651.3,441.37,653.88,439.85,653.07,438.11L653.07,438.11z"/>
	</g>
</g>
<g>
	<g>
		<path class="st3" d="M625.86,378.8c-0.79,0.47-2.46-1.36-2.81-1.95c-0.95-1.64-0.36-3.74,0.15-5.41c0.54-1.79,0.9-3.69,1.53-5.45
			c0.65-1.8,2.07-2.34,3.88-2.34c6.71,0,13.68,3.19,18.33,7.97c1.2,1.23,2.26,2.59,3.15,4.06c0.43,0.7,0.81,1.43,1.16,2.17
			c0.44,0.93,0.7,2.18,1.26,3.04c0.08,0.13,0,0.47,0.14,0.24c0.18-0.28-0.38,0-0.49,0.03c-0.4,0.1-0.8,0.18-1.2,0.26
			c-1.01,0.21-2.02,0.4-3.04,0.55c-1.9,0.28-3.83,0.44-5.75,0.46c-3.78,0.04-7.58-0.48-11.11-1.9c-0.82-0.33-1.62-0.72-2.39-1.14
			c-0.73-0.4-1.93-0.93-2.36-1.7c-0.86-1.55,1.14-3.64,2.27-4.49c3.54-2.67,8.39-2.26,12.5-1.54c3.59,0.62,7.49,1.79,9.52,5.06
			c1.01,1.64,3.61,0.13,2.59-1.51c-2.32-3.75-6.44-5.5-10.61-6.31c-4.79-0.93-10.2-1.43-14.59,1.12c-1.99,1.15-3.74,2.94-4.52,5.12
			c-0.9,2.51,0.18,4.61,2.29,6.01c4.05,2.68,8.95,3.92,13.75,4.21c2.46,0.15,4.93,0.04,7.38-0.25c1.16-0.14,2.31-0.31,3.45-0.52
			c1.19-0.22,2.53-0.36,3.64-0.87c2.7-1.24,1.22-4.21,0.38-6.18c-0.92-2.15-2.07-4.12-3.51-5.96c-2.76-3.52-6.45-6.31-10.51-8.15
			c-3.86-1.74-8.58-3.15-12.86-2.72c-2.63,0.27-4.57,1.67-5.54,4.14c-0.46,1.18-0.66,2.45-1,3.66c-0.4,1.43-0.95,2.82-1.2,4.29
			c-0.43,2.46-0.1,4.97,1.68,6.83c1.45,1.51,3.89,2.98,5.93,1.76C629.03,380.41,627.52,377.81,625.86,378.8L625.86,378.8z"/>
	</g>
</g>
<g>
	<g>
		<path class="st5" d="M584.04,349.41c1.77,1.56,3.68,3.11,6.15,3.25c2.4,0.14,4.48-1.17,6.66-1.93c2.68-0.94,5.43-0.35,8.14,0.13
			c1.01,0.18,3.05,0.14,3.65,1.06c0.63,0.97,0.86,2.41,1.03,3.54c0.4,2.66,0.12,5.43-0.32,8.07c-0.2,1.18-0.44,2.36-0.68,3.54
			c-0.18,0.88-0.32,2.44-1.11,3.03c-0.96,0.71-2.27-0.44-3.02-1.03c-0.99-0.79-1.92-1.66-2.99-2.34c-1-0.64-2.12-1.1-3.3-1.24
			c-0.65-0.08-1.21,0.06-1.84,0.07c0.39,0,0.17,0.76,0.19-0.21c0.01-0.45-0.07-0.88-0.05-1.33c0.13-2.74,1.54-5.52,2.77-7.92
			c1.15-2.25,2.5-4.48,4.51-6.05c1.52-1.18-0.61-3.29-2.12-2.12c-2.14,1.67-3.66,4.1-4.89,6.48c-1.31,2.53-2.63,5.31-3.1,8.13
			c-0.23,1.4-0.31,2.99,0.16,4.35c0.19,0.55,0.53,1.1,1.05,1.4c0.76,0.44,1.46,0.22,2.27,0.16c3.09-0.23,5.05,3.2,7.63,4.36
			c2.74,1.23,5.18-0.09,6.17-2.8c0.99-2.72,1.36-5.9,1.67-8.77c0.32-3.04,0.26-6.22-0.73-9.14c-0.38-1.12-0.87-2.29-1.87-3
			c-1.31-0.93-3.24-0.95-4.78-1.22c-3.7-0.65-7.02-1.01-10.57,0.48c-1.4,0.58-2.97,1.46-4.54,1.3c-1.59-0.16-2.88-1.37-4.03-2.38
			C584.72,346.02,582.59,348.13,584.04,349.41L584.04,349.41z"/>
	</g>
</g>
<g>
	<g>
		<path class="st5" d="M589.51,355.78c-0.2,1.29-0.53,2.58-1.04,3.78c-0.25,0.6-0.56,1.17-0.88,1.73c-0.27,0.46-0.56,0.96-0.91,1.25
			c-0.28,0.24-0.53,0.26-0.98,0.13c-0.62-0.18-1.18-0.54-1.74-0.85c-1.37-0.74-2.74-1.48-4.11-2.22c-1.7-0.92-3.21,1.67-1.51,2.59
			c1.58,0.85,3.15,1.71,4.73,2.56c1.56,0.83,3.44,1.52,5.07,0.43c1.32-0.88,2.15-2.41,2.8-3.82c0.7-1.53,1.21-3.12,1.47-4.78
			c0.12-0.8-0.2-1.61-1.05-1.85C590.65,354.54,589.64,354.98,589.51,355.78L589.51,355.78z"/>
	</g>
</g>
<g>
	<g>
		<path class="st5" d="M590.95,371.93c2.93,0.64,5.47,2.3,7.74,4.21c1.08,0.91,2.45,1.89,3.17,3.12c0.33,0.57,0.5,1.25,0.55,1.91
			c0.03,0.38,0.04,0.76,0.04,1.14c0,0.17-0.05,0.39-0.01,0.57c0.09,0.42-0.12,0,0.16-0.12c0.25-0.07,0.5-0.14,0.76-0.2
			c0.03,0.01,0.05,0.01,0.08,0.02c-1.86-0.55-2.65,2.35-0.8,2.89c1.26,0.37,2.45-0.51,2.72-1.74c0.22-0.99,0.13-2.12,0-3.11
			c-0.14-1.07-0.43-2.14-1.02-3.06c-0.6-0.93-1.41-1.67-2.22-2.4c-2.99-2.69-6.35-5.23-10.35-6.11c-0.79-0.17-1.62,0.24-1.85,1.05
			C589.7,370.83,590.16,371.75,590.95,371.93L590.95,371.93z"/>
	</g>
</g>
<g>
	<g>
		<path class="st5" d="M600.65,377.01c-1.35,1.39-3.27,3.17-5.38,2.4c-0.88-0.32-1.63-0.97-2.32-1.58
			c-0.47-0.41-0.93-0.83-1.39-1.25c-0.23-0.21-0.46-0.42-0.68-0.64c-0.11-0.11-0.23-0.21-0.34-0.32c-0.33-0.38-0.33-0.16-0.01,0.66
			c-0.13,0.22-0.26,0.44-0.39,0.66c0.03-0.03,0.06-0.05,0.08-0.08c-0.22,0.13-0.44,0.26-0.66,0.39c0.04-0.01,0.07-0.02,0.11-0.02
			c0.79-0.17,1.25-1.09,1.05-1.85c-0.22-0.82-1.05-1.22-1.85-1.05c-1.05,0.23-1.56,1.38-1.23,2.34c0.28,0.83,1.16,1.45,1.79,2.03
			c1.22,1.12,2.47,2.36,3.94,3.12c1.58,0.82,3.38,0.99,5.06,0.37c1.7-0.63,3.08-1.78,4.33-3.07
			C604.12,377.75,602,375.62,600.65,377.01L600.65,377.01z"/>
	</g>
</g>
<g>
	<path class="st5" d="M605.17,357.16c-0.13-0.39-0.64-0.51-1-0.34c-0.36,0.17-0.6,0.53-0.81,0.89c-0.73,1.24-1.32,2.56-1.77,3.94
		c-0.22,0.68-0.38,1.51,0.06,2.07c0.47,0.59,1.36,0.52,2.04,0.25c2.28-0.88,3.82-3.48,3.56-6c-0.07-0.71-0.37-1.52-1.03-1.71
		c-0.7-0.21-1.37,0.38-1.89,0.92"/>
	<g>
		<path class="st5" d="M606.46,356.4c-0.24-0.57-0.86-0.97-1.45-1.1c-0.81-0.17-1.61,0.09-2.21,0.65c-0.76,0.72-1.25,1.84-1.68,2.78
			c-0.44,0.97-0.92,2.02-1.14,3.07c-0.26,1.28-0.04,2.77,1.21,3.46c1.9,1.05,4.26-0.21,5.57-1.66c1.29-1.43,2.09-3.37,2.01-5.31
			c-0.05-1.2-0.43-2.57-1.54-3.22c-1.45-0.85-2.93-0.04-3.97,1.04c-0.54,0.57-0.6,1.57,0,2.12c0.59,0.54,1.54,0.6,2.12,0
			c0.12-0.12,0.24-0.24,0.36-0.36c0.2-0.19,0.05-0.05,0-0.01c0.07-0.05,0.14-0.09,0.21-0.14c0.25-0.18,0.02,0.02-0.03,0
			c0.04-0.01,0.07-0.02,0.11-0.03c-0.06,0.01-0.11,0.01-0.17,0.02c0.26-0.03,0.02,0-0.05-0.01c-0.19-0.09-0.24-0.11-0.14-0.06
			c0.1,0.06,0.06,0.03-0.11-0.1c0,0,0.14,0.13,0.13,0.14c0.01-0.02-0.21-0.21-0.09-0.1c0.03,0.03,0.18,0.21,0.04,0.05
			c-0.12-0.14-0.01-0.02,0.02,0.06c0.04,0.14,0.07,0.27,0.1,0.41c0.05,0.2-0.02-0.3-0.01-0.09c0,0.09,0.02,0.19,0.02,0.28
			c0.01,0.26,0.05,0.64-0.04,0.89c0.1-0.29,0.03-0.17,0-0.07c-0.01,0.07-0.03,0.15-0.04,0.22c-0.04,0.18-0.09,0.36-0.14,0.54
			c-0.01,0.03-0.15,0.42-0.15,0.42c-0.01,0,0.16-0.33,0.02-0.05c-0.03,0.07-0.06,0.13-0.1,0.2c-0.13,0.26-0.28,0.52-0.45,0.76
			c-0.04,0.05-0.08,0.13-0.13,0.18c0.23-0.22,0.08-0.11,0.03-0.05c-0.1,0.11-0.19,0.22-0.29,0.32c-0.1,0.1-0.21,0.2-0.31,0.3
			c-0.03,0.03-0.12,0.12-0.17,0.14c0.15-0.11,0.18-0.13,0.09-0.07c-0.04,0.03-0.09,0.06-0.13,0.09c-0.24,0.16-0.49,0.3-0.75,0.43
			c-0.16,0.08-0.02,0.08,0.06-0.03c-0.02,0.03-0.19,0.07-0.2,0.07c-0.07,0.02-0.14,0.04-0.21,0.06c-0.27,0.08,0.2,0,0.02,0.01
			c-0.07,0-0.14,0.01-0.21,0.01c-0.02,0-0.04,0-0.05,0c-0.14-0.01-0.14-0.01-0.01,0c0.03,0,0.06,0.01,0.1,0.01
			c-0.13-0.04-0.13-0.03-0.01,0.01c0.08-0.04,0.11,0.09,0-0.01c0.3,0.25,0.1,0.1,0.06,0.05c0.21,0.28,0.07,0.11,0.04,0.04
			c0.2,0.44,0.02,0.07,0.04,0.06c-0.03-0.14-0.03-0.14-0.01-0.02c0.02,0.13,0.02,0.12,0.01-0.02c0-0.03,0-0.23,0.01-0.23
			c0.02,0-0.08,0.38,0,0.05c0.04-0.15,0.07-0.3,0.12-0.45c0.11-0.37,0.25-0.74,0.38-1.1c0.03-0.09,0.07-0.17,0.1-0.26
			c0.04-0.09,0.12-0.29,0.04-0.09c0.09-0.21,0.19-0.43,0.29-0.64c0.18-0.38,0.37-0.75,0.57-1.12c0.1-0.18,0.2-0.36,0.31-0.54
			c0.04-0.07,0.1-0.14,0.13-0.21c0.08-0.16-0.15,0.18,0.03-0.04c0.17-0.2,0.04-0.02-0.03,0.01c-0.18,0.06-0.22,0.08-0.12,0.05
			c0.11-0.03,0.06-0.02-0.17,0.02c-0.14,0-0.29-0.05-0.4-0.12c-0.08-0.05-0.35-0.44-0.25-0.21c0.31,0.72,1.43,0.94,2.05,0.54
			C606.68,357.97,606.79,357.18,606.46,356.4L606.46,356.4z"/>
	</g>
</g>
<g>
	<path class="st5" d="M582.5,330.63c-10.77-8.87-23.09-15.69-35.81-21.17c-16.07-6.92-32.86-11.81-49.49-17.08
		c-5.53-1.75-11.07-3.55-16.28-6.14c-5.67-2.81-10.9-6.53-16.66-9.12c-2.44-1.1-5.45-1.94-7.62-0.33c-2.45,1.82-2.31,5.91-0.51,8.42
		c1.79,2.52,4.69,3.85,7.45,5.1c19.26,8.73,38.06,18.56,56.3,29.42c15.86,9.45,31.79,20.18,41.7,36.19
		c1.37,2.21,3.61,4.86,5.88,3.72c1.98-0.99,1.86-3.88,2.19-6.15c0.35-2.48,1.62-4.8,3.48-6.39c1.94,1.05,4.18,1.5,6.35,1.29
		c-1.13-3.24-0.05-7.18,2.56-9.29s6.54-2.23,9.25-0.27"/>
	<g>
		<path class="st5" d="M583.56,329.57c-16.19-13.29-35.43-21.88-55.09-28.71c-10.36-3.6-20.87-6.75-31.32-10.06
			c-5.18-1.64-10.37-3.34-15.26-5.74c-4.68-2.3-9.02-5.21-13.63-7.63c-3.64-1.92-8.86-4.74-12.68-1.69
			c-3.09,2.47-2.8,7.42-0.63,10.39c2.78,3.81,7.67,5.37,11.77,7.27c4.91,2.27,9.79,4.61,14.63,7.02
			c9.84,4.9,19.54,10.08,29.09,15.54c8.54,4.88,17.05,9.89,25.06,15.61c7.6,5.43,14.75,11.63,20.52,19.01
			c1.49,1.9,2.86,3.89,4.15,5.93c1.14,1.82,2.56,3.84,4.66,4.62c1.88,0.7,3.95-0.02,5.01-1.72c1.04-1.67,0.98-3.7,1.26-5.58
			c0.33-2.23,1.41-4.17,3.08-5.65c-0.61,0.08-1.21,0.16-1.82,0.23c2.22,1.14,4.62,1.68,7.11,1.49c0.92-0.07,1.77-0.91,1.45-1.9
			c-0.84-2.6-0.25-5.59,1.79-7.49c2.16-2.02,5.46-1.99,7.83-0.38c1.6,1.09,3.1-1.51,1.51-2.59c-3.41-2.32-8.07-2.05-11.2,0.62
			c-2.98,2.54-4,6.98-2.82,10.64c0.48-0.63,0.96-1.27,1.45-1.9c-1.97,0.15-3.83-0.18-5.6-1.08c-0.63-0.32-1.3-0.23-1.82,0.23
			c-1.61,1.43-2.8,3.27-3.46,5.32c-0.6,1.87-0.4,3.89-1,5.75c-0.72,2.23-2.54,0.89-3.59-0.35c-1.39-1.64-2.4-3.63-3.65-5.38
			c-5.21-7.29-11.68-13.52-18.75-18.99c-7.09-5.49-14.7-10.25-22.41-14.81c-8.99-5.32-18.12-10.39-27.39-15.21
			c-9.15-4.76-18.44-9.23-27.82-13.52c-3.33-1.52-7.62-3.55-7.7-7.79c-0.03-1.78,0.84-3.4,2.74-3.65c2.09-0.27,4.29,0.88,6.1,1.77
			c4.47,2.2,8.64,4.95,13.02,7.31c4.45,2.39,9.16,4.21,13.95,5.81c9.84,3.29,19.81,6.17,29.66,9.44
			c18.95,6.28,37.71,13.8,53.99,25.56c1.94,1.4,3.83,2.86,5.68,4.38C582.92,332.91,585.06,330.79,583.56,329.57L583.56,329.57z"/>
	</g>
</g>
<g>
	<g>
		<path class="st5" d="M588.33,335.26c-2.59-2.63-5.32-5.11-8.17-7.47c-0.6-0.5-1.54-0.64-2.12,0c-0.51,0.55-0.65,1.59,0,2.12
			c2.85,2.35,5.58,4.84,8.17,7.47c0.55,0.56,1.58,0.59,2.12,0C588.88,336.78,588.92,335.85,588.33,335.26L588.33,335.26z"/>
	</g>
</g>
<g>
	<g>
		<path class="st5" d="M580.82,363.37c1.04,0.38,2.14,0.23,3.2,0.05c1.07-0.18,2.08-0.41,3.07-0.86c1.69-0.78,3.01-2.22,4.24-3.58
			c-0.79-0.61-1.57-1.21-2.36-1.82c-0.62,0.9-1.17,1.64-1.8,2.42c-0.33,0.4-0.66,0.79-1,1.17c-0.17,0.19-0.35,0.36-0.53,0.54
			c-0.05,0.05-0.17,0.15-0.04,0.05c-0.12,0.09-0.25,0.17-0.38,0.24c-0.68,0.39-0.98,1.37-0.54,2.05c0.44,0.69,1.33,0.96,2.05,0.54
			c1.04-0.6,1.8-1.56,2.55-2.48c0.8-0.98,1.55-1.98,2.27-3.02c0.42-0.62,0.17-1.51-0.39-1.93c-0.56-0.44-1.47-0.44-1.97,0.12
			c-1.09,1.21-2.06,2.3-3.37,2.98c-0.05,0.03-0.49,0.22-0.25,0.13c-0.21,0.08-0.42,0.15-0.64,0.21c-0.43,0.12-0.88,0.21-1.32,0.28
			c-0.8,0.14-1.35,0.26-2.02,0.02c-0.74-0.27-1.67,0.3-1.85,1.05C579.58,362.37,580.03,363.08,580.82,363.37L580.82,363.37z"/>
	</g>
</g>
<g>
	<g>
		<path class="st5" d="M604.11,372.46c1.62,1.01,3.15,2.13,4.58,3.38c0.78,0.69,1.7,1.56,2.81,0.93c1.04-0.59,0.97-1.64,0.84-2.66
			c-0.53-4.01-0.32-8.12,0.23-12.11c0.11-0.8-0.19-1.61-1.05-1.85c-0.7-0.19-1.73,0.24-1.85,1.05c-0.33,2.38-0.58,4.76-0.62,7.16
			c-0.02,1.17,0,2.35,0.07,3.52c0.04,0.54,0.08,1.08,0.14,1.62c0.03,0.27,0.06,0.54,0.1,0.81c0.03,0.22,0.06,0.44,0.09,0.67
			c0,0.14,0.03,0.03,0.1-0.33c0.18-0.18,0.36-0.36,0.54-0.54c-0.04,0.02-0.07,0.05-0.11,0.07c0.25-0.07,0.5-0.14,0.76-0.2
			c-0.05,0-0.1,0-0.15,0c0.25,0.07,0.5,0.14,0.76,0.2c-0.22-0.11-0.78-0.67-1.12-0.95c-0.52-0.44-1.05-0.86-1.59-1.27
			c-0.97-0.74-1.98-1.44-3.02-2.09C603.98,368.85,602.47,371.44,604.11,372.46L604.11,372.46z"/>
	</g>
</g>
<g>
	<g>
		<path class="st5" d="M610.85,372.72c-0.04-0.06-0.07-0.12-0.1-0.19c0.05,0.12,0.1,0.24,0.15,0.36c-0.06-0.13-0.09-0.27-0.11-0.42
			c0.02,0.13,0.04,0.27,0.05,0.4c-0.02-0.14-0.02-0.29,0-0.43c-0.02,0.13-0.04,0.27-0.05,0.4c0.02-0.14,0.06-0.28,0.11-0.42
			c-0.05,0.12-0.1,0.24-0.15,0.36c0.01-0.01,0.01-0.03,0.02-0.04c0.11-0.17,0.17-0.36,0.18-0.56c0.04-0.2,0.04-0.4-0.03-0.6
			c-0.05-0.2-0.14-0.37-0.27-0.51c-0.11-0.16-0.25-0.29-0.42-0.39c-0.12-0.05-0.24-0.1-0.36-0.15c-0.27-0.07-0.53-0.07-0.8,0
			c-0.12,0.05-0.24,0.1-0.36,0.15c-0.23,0.13-0.4,0.31-0.54,0.54c-0.11,0.23-0.22,0.47-0.27,0.72c-0.04,0.19-0.06,0.38-0.08,0.58
			c-0.01,0.07-0.01,0.14,0,0.22c0.01,0.19,0.04,0.39,0.07,0.58c0.01,0.07,0.03,0.13,0.05,0.2c0.05,0.18,0.14,0.36,0.21,0.53
			c0.03,0.07,0.06,0.13,0.1,0.19c0.09,0.17,0.22,0.32,0.39,0.42c0.14,0.13,0.31,0.22,0.51,0.27c0.2,0.06,0.4,0.07,0.6,0.03
			c0.2-0.01,0.39-0.07,0.56-0.18c0.1-0.08,0.2-0.16,0.3-0.23c0.19-0.19,0.31-0.41,0.39-0.66c0.02-0.13,0.04-0.27,0.05-0.4
			C611.06,373.2,610.99,372.95,610.85,372.72L610.85,372.72z"/>
	</g>
</g>
<g>
	<g>
		<path class="st5" d="M593.13,352.32c0.09-0.05,0.18-0.08,0.03-0.03c0.09-0.03,0.18-0.05,0.27-0.07c-0.16,0.03-0.1,0.01,0.02,0.02
			c0.43,0.02-0.14-0.05,0.1,0.01c0.09,0.02,0.19,0.05,0.28,0.08c0.22,0.08-0.16-0.09,0.04,0.03c0.02,0.01,0.26,0.15,0.16,0.08
			c-0.1-0.07,0.11,0.1,0.13,0.12c0.07,0.07,0.15,0.14,0.21,0.22c0.07,0.08,0.07,0.08,0,0c0.03,0.04,0.06,0.09,0.08,0.13
			c0.05,0.09,0.1,0.18,0.15,0.27c0.03,0.05,0.09,0.22,0.04,0.07c0.08,0.2,0.14,0.4,0.18,0.6c0.02,0.1,0.04,0.21,0.06,0.31
			c0.05,0.27,0.01-0.03,0.02,0.17c0.06,1.03-0.07,2.02-0.22,3.02c-0.16,1.08-0.32,2.16-0.48,3.25c-0.11,0.77,0.19,1.65,1.05,1.85
			c0.71,0.16,1.72-0.22,1.85-1.05c0.2-1.34,0.4-2.68,0.59-4.02c0.21-1.47,0.37-2.94,0-4.4c-0.32-1.26-1.06-2.45-2.18-3.15
			c-1.19-0.73-2.69-0.78-3.9-0.1c-0.71,0.39-0.94,1.36-0.54,2.05C591.5,352.5,592.42,352.72,593.13,352.32L593.13,352.32z"/>
	</g>
</g>
<g>
	<g>
		<path class="st5" d="M596.28,350.68c-0.04,0.03-0.08,0.07-0.11,0.1c0.84,0.49,1.67,0.97,2.51,1.46c0.05-0.21,0.1-0.42,0.18-0.61
			c-0.05,0.12-0.1,0.24-0.15,0.36c0.04-0.09,0.09-0.18,0.15-0.27c-0.08,0.1-0.16,0.2-0.23,0.3c0.05-0.06,0.1-0.11,0.15-0.16
			c-0.1,0.08-0.2,0.16-0.3,0.23c0.07-0.05,0.14-0.09,0.22-0.13c-0.12,0.05-0.24,0.1-0.36,0.15c0.28-0.11,0.59-0.13,0.89-0.17
			c0.33-0.05,0.66-0.1,1-0.15c-0.39-0.91-0.77-1.83-1.16-2.74c-1.04,0.79-2.05,1.62-2.99,2.53c-0.34,0.33-0.47,0.8-0.41,1.26
			c0.01,0.2,0.07,0.39,0.18,0.56c0.13,0.23,0.31,0.4,0.54,0.54c0.1,0.07,0.28,0.14,0.4,0.18c0.14,0.05,0.3,0.06,0.45,0.06
			c0.31,0,0.59-0.09,0.87-0.23c0.14-0.08,0.27-0.18,0.41-0.28c0.29-0.21,0.58-0.41,0.87-0.62c-0.75-0.43-1.5-0.86-2.26-1.3
			c0,0.09,0,0.17-0.01,0.26c0.02-0.13,0.04-0.27,0.05-0.4c-0.02,0.13-0.05,0.25-0.1,0.37c0.05-0.12,0.1-0.24,0.15-0.36
			c-0.05,0.11-0.1,0.2-0.17,0.3c0.08-0.1,0.16-0.2,0.23-0.3c-0.03,0.04-0.07,0.09-0.11,0.13c-0.27,0.28-0.44,0.67-0.44,1.06
			c0,0.37,0.16,0.81,0.44,1.06c0.29,0.26,0.66,0.46,1.06,0.44c0.39-0.02,0.78-0.15,1.06-0.44c0.53-0.56,0.87-1.33,0.82-2.12
			c-0.03-0.54-0.27-1.02-0.74-1.3c-0.43-0.25-1.09-0.3-1.51,0c-0.22,0.16-0.43,0.31-0.65,0.47c-0.2,0.14-0.4,0.32-0.62,0.43
			c0.12-0.05,0.24-0.1,0.36-0.15c-0.02,0.01-0.05,0.02-0.07,0.02c0.13-0.02,0.27-0.04,0.4-0.05c-0.02,0.01-0.05,0.01-0.07,0
			c0.13,0.02,0.27,0.04,0.4,0.05c-0.01,0-0.02-0.01-0.03-0.01c0.12,0.05,0.24,0.1,0.36,0.15c-0.01-0.01-0.02-0.01-0.03-0.02
			c0.1,0.79,0.2,1.57,0.3,2.36c0.79-0.76,1.62-1.47,2.49-2.14c-0.1,0.08-0.2,0.16-0.3,0.23c0.07-0.05,0.13-0.1,0.2-0.15
			c0.17-0.09,0.32-0.22,0.42-0.39c0.13-0.14,0.22-0.31,0.27-0.51c0.08-0.34,0.06-0.66-0.08-0.98c-0.12-0.29-0.33-0.57-0.61-0.72
			c-0.12-0.05-0.24-0.1-0.36-0.15c-0.27-0.07-0.53-0.07-0.8,0c-0.34,0.05-0.68,0.1-1.02,0.15c-0.16,0.02-0.32,0.05-0.48,0.07
			c-0.27,0.04-0.49,0.13-0.74,0.25c-0.06,0.03-0.12,0.05-0.17,0.09c-0.14,0.1-0.29,0.21-0.42,0.33c-0.16,0.17-0.31,0.36-0.42,0.56
			c-0.18,0.34-0.3,0.7-0.38,1.08c-0.07,0.34-0.06,0.66,0.08,0.98c0.12,0.29,0.33,0.57,0.61,0.72c0.24,0.12,0.49,0.19,0.76,0.2
			c0.4,0.02,0.77-0.19,1.06-0.44c0.04-0.03,0.08-0.07,0.11-0.1c0.28-0.24,0.44-0.7,0.44-1.06c0-0.37-0.16-0.81-0.44-1.06
			c-0.29-0.26-0.66-0.46-1.06-0.44c-0.13,0.02-0.27,0.04-0.4,0.05C596.69,350.36,596.47,350.49,596.28,350.68L596.28,350.68z"/>
	</g>
</g>
<g>
	<g>
		<path class="st5" d="M666.74,392.29c5.6,1.85,11.46,2.55,17.28,3.39c5.95,0.86,11.72,2.24,17.5,3.86
			c11.61,3.27,23.31,5.48,35.29,6.89c6.69,0.78,13.39,1.38,20.1,1.98c1.92,0.17,1.91-2.83,0-3c-11.83-1.05-23.69-2.1-35.39-4.21
			c-5.85-1.05-11.62-2.42-17.34-4.02c-5.71-1.6-11.39-3.17-17.26-4.07c-6.5-1-13.09-1.62-19.38-3.7
			C665.7,388.79,664.91,391.68,666.74,392.29L666.74,392.29z"/>
	</g>
</g>
<g>
	<g>
		<path class="st5" d="M767.7,409.09c16.17,1.31,32.4,1.78,48.62,1.41c1.93-0.04,1.93-3.04,0-3c-16.22,0.37-32.45-0.1-48.62-1.41
			C765.77,405.93,765.78,408.93,767.7,409.09L767.7,409.09z"/>
	</g>
</g>
<g>
	<g>
		<path class="st3" d="M643.67,363.15c-5.88-4.58-13.01-7.22-20.48-7.35c-1.93-0.03-1.93,2.97,0,3c6.62,0.11,13.13,2.4,18.36,6.47
			c0.64,0.5,1.49,0.62,2.12,0C644.19,364.76,644.3,363.65,643.67,363.15L643.67,363.15z"/>
	</g>
</g>
<g>
	<g>
		<path class="st3" d="M575.33,333.84c-0.81,4.2-0.56,8.56,0.84,12.62c0.27,0.77,1.03,1.27,1.85,1.05c0.74-0.2,1.31-1.08,1.05-1.85
			c-1.23-3.54-1.55-7.34-0.84-11.02c0.15-0.79-0.22-1.62-1.05-1.85C576.44,332.59,575.48,333.04,575.33,333.84L575.33,333.84z"/>
	</g>
</g>
<g>
	<g>
		<path class="st3" d="M569.73,337.32c0.24,2.7,0.68,5.38,1.34,8c0.19,0.76,1.09,1.29,1.85,1.05c0.79-0.25,1.25-1.03,1.05-1.85
			c-0.31-1.22-0.57-2.46-0.78-3.7c-0.05-0.29-0.1-0.58-0.14-0.86c-0.03-0.17-0.05-0.34-0.07-0.5c-0.01-0.07-0.02-0.14-0.03-0.22
			c0.02,0.16,0.02,0.15,0-0.03c-0.08-0.63-0.15-1.26-0.2-1.88c-0.07-0.78-0.64-1.54-1.5-1.5
			C570.47,335.86,569.65,336.49,569.73,337.32L569.73,337.32z"/>
	</g>
</g>
<g>
	<g>
		<path class="st3" d="M565,334.85c-0.11,2.44,0.23,4.92,1.02,7.23c0.25,0.74,1.04,1.31,1.85,1.05c0.74-0.24,1.32-1.05,1.05-1.85
			c-0.37-1.08-0.62-2.18-0.8-3.3c-0.02-0.11-0.01-0.08,0.01,0.08c-0.01-0.09-0.02-0.17-0.03-0.26c-0.01-0.13-0.03-0.26-0.04-0.38
			c-0.03-0.28-0.04-0.56-0.06-0.83c-0.03-0.58-0.02-1.16,0-1.74c0.04-0.78-0.72-1.54-1.5-1.5C565.66,333.38,565.04,334,565,334.85
			L565,334.85z"/>
	</g>
</g>
<g>
	<g>
		<path class="st3" d="M470.61,291.9c9.37,5.36,18.87,10.46,28.51,15.32c1.72,0.87,3.24-1.72,1.51-2.59
			c-9.64-4.85-19.14-9.96-28.51-15.32C470.44,288.35,468.93,290.94,470.61,291.9L470.61,291.9z"/>
	</g>
</g>
<g>
	<g>
		<path class="st3" d="M491.52,300.43c5.13,2.22,10.11,4.74,14.94,7.56c1.67,0.97,3.18-1.62,1.51-2.59
			c-4.83-2.81-9.81-5.34-14.94-7.56c-0.74-0.32-1.61-0.22-2.05,0.54C490.62,299.01,490.78,300.11,491.52,300.43L491.52,300.43z"/>
	</g>
</g>
<g>
	<g>
		<path class="st3" d="M497.97,298.4c2.93,1.08,5.89,2.11,8.86,3.09c0.75,0.25,1.67-0.28,1.85-1.05c0.19-0.83-0.25-1.58-1.05-1.85
			c-2.97-0.98-5.92-2.01-8.86-3.09c-0.74-0.27-1.68,0.3-1.85,1.05C496.73,297.4,497.18,298.11,497.97,298.4L497.97,298.4z"/>
	</g>
</g>
<g>
	<g>
		<path class="st3" d="M643.12,371.2c0.68,0.09,1.35,0.28,1.98,0.54c-0.12-0.05-0.24-0.1-0.36-0.15c0.49,0.21,0.96,0.47,1.4,0.77
			c0.31,0.21,0.81,0.25,1.16,0.15c0.35-0.1,0.73-0.36,0.9-0.69c0.18-0.35,0.28-0.77,0.15-1.16c-0.13-0.39-0.35-0.66-0.69-0.9
			c-1.1-0.76-2.41-1.29-3.74-1.46c-0.2-0.06-0.4-0.07-0.6-0.03c-0.2,0.01-0.39,0.07-0.56,0.18c-0.31,0.18-0.61,0.54-0.69,0.9
			c-0.09,0.38-0.07,0.82,0.15,1.16C642.42,370.81,642.74,371.15,643.12,371.2L643.12,371.2z"/>
	</g>
</g>
<g>
	<g>
		<path class="st3" d="M614,395.94c1.05,3.88,2.2,7.72,3.45,11.54c0.25,0.77,1.04,1.27,1.85,1.05c0.75-0.21,1.3-1.07,1.05-1.85
			c-1.25-3.82-2.4-7.67-3.45-11.54C616.39,393.28,613.49,394.07,614,395.94L614,395.94z"/>
	</g>
</g>
<g>
	<g>
		<path class="st3" d="M618.64,397.83c1.14,4.8,2.44,9.56,3.9,14.28c0.57,1.84,3.47,1.05,2.89-0.8c-1.46-4.71-2.76-9.48-3.9-14.28
			C621.09,395.15,618.19,395.95,618.64,397.83L618.64,397.83z"/>
	</g>
</g>
<g>
	<g>
		<path class="st3" d="M624.15,397.82c0.91,5.8,2.08,11.56,3.52,17.25c0.47,1.87,3.37,1.08,2.89-0.8
			c-1.44-5.69-2.62-11.45-3.52-17.25c-0.13-0.8-1.13-1.24-1.85-1.05C624.34,396.21,624.03,397.01,624.15,397.82L624.15,397.82z"/>
	</g>
</g>
<g>
	<g>
		<path class="st3" d="M629.86,408c0.59,3.13,1.19,6.26,1.78,9.39c0.15,0.77,1.12,1.28,1.85,1.05c0.82-0.27,1.2-1.02,1.05-1.85
			c-0.59-3.13-1.19-6.26-1.78-9.39c-0.15-0.77-1.12-1.28-1.85-1.05C630.08,406.42,629.7,407.17,629.86,408L629.86,408z"/>
	</g>
</g>
<g>
	<g>
		<path class="st3" d="M634.44,417.6c0.03,0.26,0.06,0.52,0.08,0.78c-0.01,0.21,0.04,0.4,0.13,0.58c0.06,0.19,0.16,0.35,0.31,0.48
			c0.14,0.15,0.3,0.25,0.48,0.31c0.18,0.09,0.37,0.14,0.58,0.13c0.13-0.02,0.27-0.04,0.4-0.05c0.25-0.07,0.47-0.2,0.66-0.39
			c0.08-0.1,0.16-0.2,0.23-0.3c0.14-0.23,0.2-0.49,0.2-0.76c-0.03-0.26-0.06-0.52-0.08-0.78c0.01-0.21-0.04-0.4-0.13-0.58
			c-0.06-0.19-0.16-0.35-0.31-0.48c-0.14-0.15-0.3-0.25-0.48-0.31c-0.18-0.09-0.37-0.14-0.58-0.13c-0.13,0.02-0.27,0.04-0.4,0.05
			c-0.25,0.07-0.47,0.2-0.66,0.39c-0.08,0.1-0.16,0.2-0.23,0.3C634.51,417.07,634.44,417.33,634.44,417.6L634.44,417.6z"/>
	</g>
</g>
<g>
	<g>
		<path class="st3" d="M755.24,445.97c5.49,1.62,11.1,2.83,16.77,3.6c0.8,0.11,1.61-0.19,1.85-1.05c0.19-0.7-0.24-1.73-1.05-1.85
			c-5.68-0.78-11.28-1.98-16.77-3.6C754.19,442.53,753.39,445.42,755.24,445.97L755.24,445.97z"/>
	</g>
</g>
<g>
	<g>
		<path class="st3" d="M761.75,451.83c3.93,0.61,7.84,1.31,11.74,2.1c0.79,0.16,1.62-0.23,1.85-1.05c0.2-0.74-0.25-1.68-1.05-1.85
			c-3.9-0.79-7.81-1.49-11.74-2.1c-0.8-0.12-1.61,0.2-1.85,1.05C760.51,450.7,760.95,451.71,761.75,451.83L761.75,451.83z"/>
	</g>
</g>
<g>
	<g>
		<path class="st3" d="M670.63,418.16c9.25,5.01,19.06,8.96,29.22,11.7c1.87,0.5,2.66-2.39,0.8-2.89
			c-9.92-2.68-19.47-6.51-28.5-11.4C670.44,414.65,668.93,417.24,670.63,418.16L670.63,418.16z"/>
	</g>
</g>
<g>
	<g>
		<path class="st3" d="M678.85,428.84c4.96,1.82,10.09,3.14,15.31,3.94c0.8,0.12,1.61-0.2,1.85-1.05c0.19-0.71-0.24-1.72-1.05-1.85
			c-5.22-0.8-10.35-2.12-15.31-3.94c-0.76-0.28-1.64,0.31-1.85,1.05C677.57,427.83,678.08,428.56,678.85,428.84L678.85,428.84z"/>
	</g>
</g>
<g>
	<g>
		<path class="st3" d="M683.05,435.2c2.12,1.01,4.36,1.72,6.69,2.05c0.42,0.06,0.78,0.07,1.16-0.15c0.31-0.18,0.61-0.54,0.69-0.9
			c0.16-0.71-0.22-1.73-1.05-1.85c-1.07-0.15-2.14-0.38-3.18-0.68c-0.52-0.15-1.04-0.33-1.54-0.52c-0.11-0.04-0.22-0.08-0.33-0.13
			c-0.07-0.03-0.14-0.06-0.22-0.09c0.18,0.08,0.19,0.08,0.04,0.02c-0.25-0.11-0.5-0.22-0.74-0.34c-0.71-0.34-1.65-0.22-2.05,0.54
			C682.16,433.81,682.29,434.84,683.05,435.2L683.05,435.2z"/>
	</g>
</g>
<g>
	<path class="st5" d="M567.5,360.89c1.09,1.06,2.72,1.16,4.21,1.27c1.49,0.11,3.15,0.39,4.03,1.65c0.67,0.95,0.72,2.22,0.84,3.4
		c0.28,2.76,1.11,5.45,2.44,7.85c0.72,1.31,1.59,2.53,2.49,3.72c2.34,3.09,5.04,6.05,8.5,7.64s7.81,1.55,10.7-0.99
		c0.56-0.49,1.06-1.08,1.3-1.79c0.24-0.72,0.18-1.58-0.29-2.16c-0.5-0.61-1.35-0.79-2.11-0.71c-0.77,0.09-1.49,0.39-2.24,0.6
		c-0.96,0.27-1.96,0.36-2.96,0.43c-2.13,0.15-4.36,0.18-6.3-0.76c-1.22-0.6-2.25-1.54-3.26-2.48c-1.13-1.06-2.27-2.14-3.21-3.39
		c-2.65-3.52-3.62-8.23-6.5-11.56"/>
	<g>
		<path class="st5" d="M566.44,361.95c1.1,0.95,2.33,1.38,3.76,1.57c1.24,0.16,2.99-0.02,4.02,0.84c1.05,0.88,0.83,2.87,1.02,4.11
			c0.26,1.73,0.72,3.41,1.39,5.03c1.26,3.07,3.25,5.77,5.38,8.29c2.01,2.38,4.39,4.6,7.24,5.92c2.59,1.2,5.54,1.63,8.33,0.96
			c2.57-0.62,5.7-2.53,6.03-5.41c0.16-1.38-0.39-2.79-1.63-3.5c-1.29-0.75-2.76-0.51-4.11-0.11c-2.94,0.86-6.96,1.39-9.7-0.3
			c-1.51-0.93-2.85-2.35-4.06-3.63c-1.23-1.29-2.16-2.72-2.97-4.31c-1.55-3.04-2.7-6.22-4.92-8.86c-1.24-1.48-3.36,0.65-2.12,2.12
			c1.77,2.11,2.76,4.73,3.93,7.19c1.17,2.47,2.6,4.65,4.55,6.58c2.05,2.03,4.22,4.13,7.17,4.69c2.79,0.53,5.99,0.31,8.7-0.52
			c0.89-0.27,2.96-0.77,1.96,0.94c-0.65,1.1-2.08,1.8-3.26,2.13c-2.44,0.69-5.08,0.18-7.28-1.02c-2.49-1.37-4.48-3.45-6.26-5.63
			c-1.9-2.34-3.64-4.87-4.61-7.75c-0.53-1.6-0.8-3.2-0.98-4.87c-0.16-1.48-0.43-2.96-1.54-4.05c-0.98-0.98-2.32-1.39-3.66-1.57
			c-1.36-0.19-3.13,0.01-4.24-0.95C567.11,358.57,564.98,360.69,566.44,361.95L566.44,361.95z"/>
	</g>
</g>
<g>
	<g>
		<path class="st5" d="M603.62,380.7c0.01-0.04,0.03-0.09,0.05-0.13c-0.05,0.12-0.1,0.24-0.15,0.36c0.04-0.09,0.09-0.18,0.16-0.27
			c-0.08,0.1-0.16,0.2-0.23,0.3c0.06-0.08,0.13-0.15,0.21-0.21c0.15-0.14,0.25-0.3,0.31-0.48c0.09-0.18,0.14-0.37,0.13-0.58
			c0.01-0.21-0.04-0.4-0.13-0.58c-0.06-0.19-0.16-0.35-0.31-0.48c-0.1-0.08-0.2-0.16-0.3-0.23c-0.23-0.14-0.49-0.2-0.76-0.2
			c-0.13,0.02-0.27,0.04-0.4,0.05c-0.25,0.07-0.47,0.2-0.66,0.39c-0.05,0.04-0.1,0.08-0.14,0.13c-0.02,0.02-0.04,0.05-0.06,0.07
			c-0.09,0.11-0.17,0.22-0.26,0.33c-0.01,0.01-0.02,0.03-0.03,0.04c-0.04,0.05-0.07,0.11-0.09,0.16c-0.01,0.01-0.01,0.03-0.02,0.04
			c-0.06,0.13-0.11,0.26-0.17,0.39c-0.01,0.03-0.02,0.06-0.03,0.09c-0.06,0.2-0.07,0.4-0.03,0.6c0.01,0.2,0.07,0.39,0.18,0.56
			c0.09,0.17,0.22,0.32,0.39,0.42c0.14,0.13,0.31,0.22,0.51,0.27c0.13,0.02,0.27,0.04,0.4,0.05c0.27,0,0.52-0.07,0.76-0.2
			c0.1-0.08,0.2-0.16,0.3-0.23C603.42,381.18,603.55,380.96,603.62,380.7L603.62,380.7z"/>
	</g>
</g>
<g>
	<g>
		<path class="st3" d="M592.9,383.25c1.92,1.6,4.08,2.82,6.46,3.58c0.75,0.24,1.67-0.28,1.85-1.05c0.19-0.82-0.25-1.59-1.05-1.85
			c-0.26-0.08-0.51-0.17-0.76-0.26c-0.13-0.05-0.25-0.09-0.38-0.14c-0.06-0.02-0.12-0.05-0.19-0.08c-0.15-0.06-0.12-0.05,0.08,0.03
			c-0.11-0.01-0.27-0.12-0.37-0.16c-0.12-0.06-0.24-0.11-0.36-0.17c-0.24-0.12-0.48-0.24-0.72-0.37c-0.47-0.26-0.93-0.54-1.38-0.85
			c-0.22-0.15-0.44-0.31-0.66-0.47c-0.13-0.1-0.11-0.08,0.06,0.05c-0.05-0.04-0.11-0.08-0.16-0.13c-0.11-0.08-0.21-0.17-0.31-0.26
			c-0.31-0.26-0.64-0.44-1.06-0.44c-0.37,0-0.81,0.16-1.06,0.44C592.39,381.68,592.26,382.71,592.9,383.25L592.9,383.25z"/>
	</g>
</g>
<g>
	<g>
		<path class="st3" d="M587.99,383.13c0.87,1.16,1.77,2.23,2.95,3.09c1.18,0.87,2.59,1.31,4.04,1.45c0.78,0.08,1.53-0.74,1.5-1.5
			c-0.04-0.88-0.66-1.42-1.5-1.5c-0.06-0.01-0.13-0.02-0.2-0.02c0.07,0,0.31,0.05,0.11,0.01c-0.15-0.03-0.29-0.05-0.43-0.09
			c-0.27-0.07-0.54-0.15-0.8-0.25c-0.19-0.07,0.01,0,0.08,0.04c-0.06-0.03-0.12-0.05-0.18-0.08c-0.13-0.06-0.27-0.13-0.4-0.2
			c-0.24-0.14-0.48-0.29-0.7-0.45c-0.16-0.11,0.02,0,0.07,0.06c-0.04-0.05-0.1-0.08-0.15-0.12c-0.1-0.08-0.2-0.17-0.29-0.26
			c-0.2-0.19-0.4-0.38-0.59-0.59c-0.19-0.2-0.37-0.42-0.55-0.63c-0.04-0.05-0.08-0.1-0.12-0.15c-0.03-0.04-0.21-0.27-0.07-0.08
			c0.13,0.18-0.01-0.01-0.03-0.04c-0.05-0.07-0.1-0.13-0.15-0.2c-0.24-0.32-0.49-0.58-0.9-0.69c-0.36-0.1-0.84-0.05-1.16,0.15
			C587.91,381.47,587.48,382.45,587.99,383.13L587.99,383.13z"/>
	</g>
</g>
</svg>
