<svg id="visual" viewBox="0 0 900 675" width="900" height="675" xmlns="http://www.w3.org/2000/svg" xmlns:xlink="http://www.w3.org/1999/xlink" version="1.1"><rect x="0" y="0" width="900" height="675" fill="#563a1f"></rect><path d="M0 449L30 445.5C60 442 120 435 180 439C240 443 300 458 360 474.7C420 491.3 480 509.7 540 508.3C600 507 660 486 720 471C780 456 840 447 870 442.5L900 438L900 0L870 0C840 0 780 0 720 0C660 0 600 0 540 0C480 0 420 0 360 0C300 0 240 0 180 0C120 0 60 0 30 0L0 0Z" fill="#563a1f"></path><path d="M0 405L30 409.3C60 413.7 120 422.3 180 423.2C240 424 300 417 360 416.8C420 416.7 480 423.3 540 428.3C600 433.3 660 436.7 720 440.2C780 443.7 840 447.3 870 449.2L900 451L900 0L870 0C840 0 780 0 720 0C660 0 600 0 540 0C480 0 420 0 360 0C300 0 240 0 180 0C120 0 60 0 30 0L0 0Z" fill="#5e421f"></path><path d="M0 399L30 391.5C60 384 120 369 180 366.8C240 364.7 300 375.3 360 372.2C420 369 480 352 540 346.3C600 340.7 660 346.3 720 355.8C780 365.3 840 378.7 870 385.3L900 392L900 0L870 0C840 0 780 0 720 0C660 0 600 0 540 0C480 0 420 0 360 0C300 0 240 0 180 0C120 0 60 0 30 0L0 0Z" fill="#654b20"></path><path d="M0 308L30 307.7C60 307.3 120 306.7 180 313.3C240 320 300 334 360 345.7C420 357.3 480 366.7 540 364.5C600 362.3 660 348.7 720 336.5C780 324.3 840 313.7 870 308.3L900 303L900 0L870 0C840 0 780 0 720 0C660 0 600 0 540 0C480 0 420 0 360 0C300 0 240 0 180 0C120 0 60 0 30 0L0 0Z" fill="#6b5420"></path><path d="M0 319L30 314.3C60 309.7 120 300.3 180 302C240 303.7 300 316.3 360 319.3C420 322.3 480 315.7 540 315.3C600 315 660 321 720 318C780 315 840 303 870 297L900 291L900 0L870 0C840 0 780 0 720 0C660 0 600 0 540 0C480 0 420 0 360 0C300 0 240 0 180 0C120 0 60 0 30 0L0 0Z" fill="#715d21"></path><path d="M0 217L30 227.2C60 237.3 120 257.7 180 262.7C240 267.7 300 257.3 360 257.2C420 257 480 267 540 260.5C600 254 660 231 720 231.2C780 231.3 840 254.7 870 266.3L900 278L900 0L870 0C840 0 780 0 720 0C660 0 600 0 540 0C480 0 420 0 360 0C300 0 240 0 180 0C120 0 60 0 30 0L0 0Z" fill="#756722"></path><path d="M0 218L30 209.8C60 201.7 120 185.3 180 182C240 178.7 300 188.3 360 190.8C420 193.3 480 188.7 540 193.5C600 198.3 660 212.7 720 213.2C780 213.7 840 200.3 870 193.7L900 187L900 0L870 0C840 0 780 0 720 0C660 0 600 0 540 0C480 0 420 0 360 0C300 0 240 0 180 0C120 0 60 0 30 0L0 0Z" fill="#787123"></path><path d="M0 169L30 161.8C60 154.7 120 140.3 180 136.2C240 132 300 138 360 138.2C420 138.3 480 132.7 540 130.3C600 128 660 129 720 134C780 139 840 148 870 152.5L900 157L900 0L870 0C840 0 780 0 720 0C660 0 600 0 540 0C480 0 420 0 360 0C300 0 240 0 180 0C120 0 60 0 30 0L0 0Z" fill="#7a7b26"></path><path d="M0 116L30 111.3C60 106.7 120 97.3 180 92.8C240 88.3 300 88.7 360 93.7C420 98.7 480 108.3 540 114.7C600 121 660 124 720 125.2C780 126.3 840 125.7 870 125.3L900 125L900 0L870 0C840 0 780 0 720 0C660 0 600 0 540 0C480 0 420 0 360 0C300 0 240 0 180 0C120 0 60 0 30 0L0 0Z" fill="#7b862a"></path><path d="M0 67L30 68C60 69 120 71 180 67.2C240 63.3 300 53.7 360 53.8C420 54 480 64 540 69.3C600 74.7 660 75.3 720 70.3C780 65.3 840 54.7 870 49.3L900 44L900 0L870 0C840 0 780 0 720 0C660 0 600 0 540 0C480 0 420 0 360 0C300 0 240 0 180 0C120 0 60 0 30 0L0 0Z" fill="#7b912f"></path></svg>