<svg version="1.1" id="Layer_1" xmlns="http://www.w3.org/2000/svg" xmlns:xlink="http://www.w3.org/1999/xlink" x="0px" y="0px"
	 width="100%" viewBox="0 0 516 733" enable-background="new 0 0 516 733" xml:space="preserve">
<path fill="#553A1F" opacity="1.000000" stroke="none" 
	d="
M516.715698,599.717529 
	C517.000000,609.687561 517.000000,619.375122 517.000000,629.531372 
	C514.768311,634.987549 510.508667,638.306396 506.975800,642.229431 
	C503.400482,646.199524 500.397614,650.547241 498.801788,655.724182 
	C496.706970,662.519836 498.367645,667.184082 504.325500,671.124939 
	C506.119904,672.311829 507.928986,673.496216 509.856964,674.458557 
	C512.659973,675.857666 515.073486,677.651123 516.760864,680.761597 
	C517.000000,697.324158 516.880676,713.649963 517.098083,729.971252 
	C517.142944,733.336792 516.514404,734.101990 513.031860,734.098694 
	C387.602448,733.981079 262.172821,734.000000 136.743240,734.000000 
	C92.934502,734.000000 49.125641,733.956726 5.317277,734.084167 
	C1.899983,734.094116 0.878018,733.618408 0.886628,729.821533 
	C1.042262,661.193726 1.000000,592.565491 1.000000,523.468628 
	C2.561226,520.637695 4.717193,520.847717 7.040804,521.540161 
	C13.752671,523.540344 20.313278,525.961853 26.765087,528.669617 
	C47.954269,537.562439 68.855553,547.172485 91.259949,552.884460 
	C102.481400,555.745361 113.886009,557.257751 125.352028,557.311646 
	C135.123413,557.357544 143.355850,560.380615 150.462692,566.655884 
	C166.397430,580.726013 185.362518,589.145264 205.016800,596.295471 
	C212.929703,599.174255 221.140396,598.882019 229.209671,597.243225 
	C248.133621,593.399719 267.252258,590.353943 285.557281,583.856079 
	C294.211578,580.784058 302.624786,577.078918 310.808289,573.036560 
	C331.361389,562.884155 352.352051,562.164490 373.979736,568.495422 
	C394.770752,574.581543 415.430450,581.030945 435.430176,589.451782 
	C444.366852,593.214600 452.995880,597.646912 461.110321,602.826965 
	C477.860718,613.519958 493.742523,612.228271 509.540466,601.058533 
	C511.461304,599.700439 513.404297,596.785889 516.715698,599.717529 
z"/>
<path fill="#764F24" opacity="1.000000" stroke="none" 
	d="
M517.000000,599.531372 
	C513.462646,600.816833 510.860840,603.303589 507.953156,605.194763 
	C492.995178,614.923462 477.804474,615.910095 462.356110,606.523438 
	C431.939941,588.042236 398.375824,577.706238 364.268555,568.984802 
	C346.886353,564.540039 329.865814,566.881104 313.694885,574.803650 
	C292.009064,585.428101 269.260925,592.745300 245.457336,596.823181 
	C240.371170,597.694519 235.303406,598.715820 230.275665,599.877747 
	C213.349854,603.789795 198.484375,597.500122 183.695557,590.670593 
	C170.623489,584.633911 158.394440,577.325745 147.535095,567.759033 
	C142.156281,563.020508 135.783875,560.015381 128.455795,560.074036 
	C101.740051,560.287720 76.883690,552.621399 52.561623,542.528015 
	C39.183086,536.976074 25.785332,531.467346 12.327450,526.112000 
	C8.947603,524.767029 5.302833,524.087769 1.389905,523.051270 
	C1.000000,508.312439 1.000000,493.624878 1.000000,478.468658 
	C4.768373,472.633057 10.723117,473.124451 16.154142,472.567139 
	C27.697479,471.382507 38.717800,474.241638 49.418270,478.034943 
	C58.451942,481.237366 66.722847,480.156525 74.889442,475.685455 
	C84.530441,470.407135 94.102219,465.005005 103.832687,459.886353 
	C121.879448,450.393066 140.133621,441.310272 160.736938,439.089966 
	C174.658447,437.589722 188.673416,438.007599 202.560623,440.116730 
	C217.538239,442.391418 232.448517,445.136719 247.560486,446.444305 
	C274.177216,448.747375 297.370361,440.072266 318.403259,424.385468 
	C333.261078,413.304138 346.558624,400.460968 360.076416,387.854004 
	C373.856140,375.002777 388.241180,362.998932 404.556946,353.294250 
	C417.479797,345.607635 429.863007,345.385345 442.816956,352.548737 
	C464.681702,364.639679 486.310333,377.123718 507.225220,390.805206 
	C510.778015,393.129272 514.659302,395.229492 516.743286,399.728729 
	C517.000000,418.354218 517.000000,436.708466 517.000000,455.531342 
	C515.481201,458.413513 513.815063,457.498779 511.976379,456.350159 
	C507.807312,453.745636 503.348572,453.159729 498.579010,454.535614 
	C494.422180,455.734833 491.434296,458.121124 490.319061,462.371155 
	C488.130981,470.709534 483.403778,477.369751 477.105316,483.072083 
	C475.383209,484.631195 473.707855,486.257721 472.191803,488.027161 
	C468.275787,492.597626 468.306580,495.828766 472.297394,500.314789 
	C473.179565,501.306427 474.159637,502.206238 474.911896,503.317200 
	C479.843292,510.599915 484.737091,512.297974 493.196411,509.857574 
	C500.347595,507.794556 505.472168,502.786774 510.909698,498.145782 
	C512.352905,496.913971 513.674500,493.667328 516.749207,496.749176 
	C517.000000,531.020874 517.000000,565.041809 517.000000,599.531372 
z"/>
<path fill="#764F24" opacity="1.000000" stroke="none" 
	d="
M1.273160,223.271423 
	C1.000000,191.312439 1.000000,159.624878 1.000000,127.468658 
	C2.527613,123.490143 5.577801,121.956680 8.941711,120.729942 
	C17.789211,117.503471 25.892595,112.969254 32.948414,106.678932 
	C38.584995,101.653877 45.315506,99.399841 52.689499,99.583107 
	C61.001793,99.789688 67.991241,96.939598 74.249466,91.774429 
	C77.721855,88.908516 81.442245,86.386795 85.136688,83.820847 
	C95.456299,76.653442 108.858498,77.749306 116.708321,89.100868 
	C121.974983,96.716942 125.339409,105.236908 129.557709,113.347328 
	C131.896042,117.843185 134.653290,121.946243 138.445282,125.300812 
	C144.523026,130.677444 151.269653,131.878876 158.841934,128.665100 
	C164.034149,126.461456 168.005829,122.696342 172.146988,119.077965 
	C187.128586,105.987732 204.499268,97.103470 222.705917,89.331833 
	C240.498749,81.736839 258.764282,75.447258 276.706787,68.289604 
	C281.013214,66.571671 285.353668,64.913643 290.101105,64.465218 
	C298.781464,63.645294 305.905487,66.886475 312.817932,71.751373 
	C325.074738,80.377525 337.312988,89.034622 349.709015,97.466240 
	C362.909973,106.445343 376.269531,106.941383 390.128479,99.134956 
	C397.248627,95.124321 404.096191,90.681023 411.017029,86.357292 
	C430.308838,74.304909 451.211700,68.259033 474.023499,68.417610 
	C484.562897,68.490875 494.993256,68.979004 505.256226,71.449646 
	C509.274292,72.416931 513.460876,73.124886 516.724609,76.724640 
	C517.000000,93.020897 517.000000,109.041786 517.000000,125.531342 
	C514.488037,128.712082 511.624420,130.854996 507.942810,131.735214 
	C506.473541,132.086502 505.128174,132.752090 504.030273,133.811951 
	C502.531738,135.258575 501.506561,136.959122 501.992218,139.126587 
	C502.492218,141.357986 504.271851,142.257843 506.278564,142.798203 
	C508.235840,143.325272 510.237854,143.322845 512.200684,142.954849 
	C514.017578,142.614212 515.425964,143.066132 516.763550,144.764740 
	C517.000000,160.687561 517.000000,176.375122 517.000000,192.531342 
	C515.073669,200.596054 511.135162,206.879181 505.146393,211.997620 
	C498.969360,217.276962 492.023193,220.308884 483.849915,220.510208 
	C473.844208,220.756638 463.903992,220.102493 453.981842,218.817307 
	C443.132721,217.412048 433.180176,219.762833 424.134460,226.092255 
	C419.229614,229.524246 414.172302,232.850418 408.244324,234.307968 
	C399.752319,236.395935 391.766754,234.481369 384.033081,230.911285 
	C367.509705,223.283630 354.289062,211.666122 342.794891,197.699844 
	C336.801086,190.416916 331.360291,182.624466 323.683746,176.730865 
	C313.347321,168.795120 302.325165,168.333649 293.006561,177.499542 
	C284.311005,186.052582 274.552887,190.671692 262.355865,190.852600 
	C255.778336,190.950165 249.807053,193.289795 244.342163,197.347946 
	C238.062698,202.010941 230.831512,203.198837 223.586655,199.591782 
	C214.119904,194.878479 205.278091,196.611069 196.325333,201.040009 
	C175.049744,211.565079 157.327728,226.370407 142.624573,244.914200 
	C139.097214,249.362930 135.203217,253.527695 130.677032,256.929596 
	C117.185165,267.070129 104.055023,266.956665 89.070107,257.145050 
	C76.335320,248.806686 65.602898,238.012085 53.665241,228.701309 
	C49.333885,225.323090 45.091068,221.825958 40.975117,218.189484 
	C35.914261,213.718201 30.438169,212.874222 24.348413,215.800659 
	C18.492376,218.614777 12.390738,220.863174 6.452887,223.491989 
	C4.889641,224.184052 3.196519,225.621140 1.273160,223.271423 
z"/>
<path fill="#563A1F" opacity="1.000000" stroke="none" 
	d="
M517.000000,76.531342 
	C508.622864,75.645912 500.586670,72.792625 492.091431,71.822388 
	C461.639679,68.344521 433.447723,74.149178 407.816376,91.366631 
	C402.567200,94.892685 397.115936,98.133629 391.642670,101.307358 
	C376.753052,109.941254 362.198334,109.333054 348.022186,99.510895 
	C334.470032,90.121086 320.870300,80.799995 307.313049,71.417519 
	C300.190857,66.488525 292.428864,65.510353 284.456635,68.424294 
	C264.749237,75.627579 245.023911,82.778648 225.680023,90.962029 
	C211.065048,97.144859 196.679871,103.661423 183.884857,113.168968 
	C178.946259,116.838669 174.202209,120.802803 169.615906,124.908028 
	C154.892349,138.087128 138.473068,135.388092 129.085663,117.961884 
	C124.979614,110.339645 121.491371,102.380287 117.282913,94.818718 
	C112.745354,86.665840 106.592117,80.689659 96.117157,82.101868 
	C89.658005,82.972687 85.012428,87.192383 79.986198,90.688316 
	C77.255615,92.587524 74.833672,94.943176 72.050743,96.751686 
	C66.810593,100.157066 61.209927,102.383293 54.706165,102.162933 
	C46.413818,101.881989 38.950554,104.269920 32.784119,110.150230 
	C23.964849,118.560265 12.458342,121.997871 1.337094,126.880852 
	C1.000000,116.979103 1.000000,106.958214 1.000000,96.468658 
	C2.428382,94.140778 4.317048,93.451797 6.646502,93.489616 
	C10.138047,93.546310 13.635450,93.424873 17.125893,93.491539 
	C22.224201,93.588905 26.167845,91.459579 29.087429,87.451805 
	C31.433914,84.230736 33.319359,80.692825 35.261307,77.220634 
	C37.249512,73.665741 36.164024,70.438751 33.272518,67.801773 
	C30.180744,64.982162 26.392323,63.922619 22.303635,63.596428 
	C17.101503,63.181408 12.019918,64.119576 6.915495,64.814194 
	C4.932239,65.084068 2.944677,65.579536 1.267049,63.266922 
	C1.000000,43.869698 1.095546,24.738487 0.913767,5.609913 
	C0.880216,2.079369 1.367373,0.873814 5.374184,0.886233 
	C59.936611,1.055346 114.499733,1.000000 169.531342,1.000000 
	C175.633942,5.877300 182.708664,6.850016 187.764450,1.236215 
	C223.020889,1.000000 258.041779,1.000000 293.531342,1.000000 
	C297.009308,3.138890 299.192200,6.170348 302.012360,8.490647 
	C305.154205,11.075615 306.940033,10.609892 308.224426,6.838486 
	C308.940918,4.734548 309.835999,2.895550 311.766479,1.234569 
	C377.354218,1.000000 442.708466,1.000000 508.531342,1.000000 
	C510.694244,2.406848 511.135620,3.517811 509.069214,5.301473 
	C501.237213,12.061591 500.752472,17.435095 506.742157,25.854614 
	C509.835541,30.202869 514.337341,33.458004 516.756104,38.754734 
	C517.000000,51.354229 517.000000,63.708454 517.000000,76.531342 
z"/>
<path fill="#8F692A" opacity="1.000000" stroke="none" 
	d="
M1.000001,223.468658 
	C8.634647,219.671646 16.310381,216.433701 23.891760,212.988144 
	C30.735006,209.878052 36.485291,211.080856 42.336327,215.832596 
	C58.101440,228.635742 72.919312,242.618042 89.631409,254.241714 
	C105.984940,265.616028 119.922791,264.405426 134.023987,250.388000 
	C142.290329,242.170776 149.243561,232.754379 157.677856,224.649673 
	C170.587372,212.244659 185.365433,202.827789 201.762238,195.884384 
	C208.682373,192.953995 215.812271,193.020233 222.602097,196.373215 
	C230.704269,200.374268 238.128464,199.479721 244.911682,193.740738 
	C250.111740,189.341187 256.385040,188.363663 262.694702,188.188690 
	C273.781586,187.881210 282.815918,183.931732 290.716156,176.013763 
	C301.291595,165.414566 313.848114,165.570633 325.644928,174.952972 
	C335.043182,182.427658 341.515076,192.416733 349.297424,201.265625 
	C359.817932,213.227951 372.113647,222.657333 386.619293,229.132690 
	C396.805145,233.679657 407.456390,234.604172 416.565521,227.507980 
	C431.510315,215.865768 448.022522,214.267944 465.758423,217.323471 
	C472.039673,218.405624 478.404968,218.283340 484.706848,217.876694 
	C497.094238,217.077286 505.585052,210.037399 511.939270,199.929108 
	C513.350586,197.683929 514.298340,195.123932 516.731201,193.201111 
	C517.000000,206.354233 517.000000,219.708450 517.000000,233.531342 
	C515.517883,235.556534 514.160278,237.114670 511.989471,237.970581 
	C495.569977,244.444458 480.134155,252.969620 464.385010,260.856750 
	C448.418304,268.852875 432.077393,275.872009 414.184326,278.667603 
	C394.614441,281.725220 376.565125,277.665039 359.572479,268.011475 
	C351.308411,263.316620 342.448792,261.347412 333.140961,262.745331 
	C328.824310,263.393646 325.126678,266.400787 321.375854,268.667999 
	C313.525940,273.412811 305.448425,273.494446 297.054718,270.819946 
	C290.036224,268.583588 283.709595,264.543488 276.644897,262.532166 
	C258.927246,257.487946 241.761551,260.108459 224.933350,266.819122 
	C210.325073,272.644531 197.290894,281.269958 184.720490,290.385010 
	C168.652252,302.036407 152.581955,313.703125 136.668091,325.575684 
	C124.777466,334.446716 111.324501,337.974426 96.617203,336.020966 
	C65.700951,331.914520 36.303383,322.417603 7.604160,310.529541 
	C5.116030,309.498901 2.835247,308.150269 1.278237,305.302063 
	C1.000000,277.979095 1.000000,250.958206 1.000001,223.468658 
z"/>
<path fill="#8F692A" opacity="1.000000" stroke="none" 
	d="
M517.000000,399.531342 
	C508.755829,395.935547 501.590393,390.156097 493.810547,385.344330 
	C476.526886,374.654633 458.897339,364.582886 441.160065,354.685303 
	C429.350006,348.095184 417.949829,348.520630 406.154602,355.432861 
	C389.631561,365.115723 375.191376,377.327209 361.273590,390.268616 
	C347.741943,402.851013 334.586945,415.869354 319.586700,426.755646 
	C304.172119,437.942657 287.656006,446.854095 268.297455,448.656891 
	C253.130142,450.069366 238.049271,448.572327 223.032440,446.124512 
	C206.941254,443.501617 190.894531,440.745209 174.442978,440.857117 
	C157.243668,440.974182 141.215576,445.236511 125.674217,452.126404 
	C109.354347,459.361450 93.878998,468.210175 78.353485,476.940826 
	C68.365784,482.557373 58.400249,484.436096 47.296680,480.271088 
	C32.469921,474.709412 17.254160,472.869476 1.388434,477.935364 
	C1.000000,452.312439 1.000000,426.624878 1.000000,400.468658 
	C2.585804,398.018005 4.076902,398.055023 6.666667,398.874664 
	C19.741825,403.012756 32.662418,407.654572 46.781235,407.634552 
	C60.457600,407.615173 72.283524,402.569244 83.540100,395.838074 
	C98.176582,387.085754 112.185669,377.243164 127.939629,370.476959 
	C138.708115,365.851959 150.107849,364.018585 161.754120,363.500336 
	C180.865738,362.649841 199.614914,366.327271 218.529633,367.964203 
	C238.212952,369.667664 257.876068,370.525452 276.709015,362.575623 
	C282.968323,359.933472 288.811859,356.534058 294.198303,352.490570 
	C320.024323,333.103973 349.433258,323.130432 381.199371,320.159607 
	C406.248474,317.816956 430.903625,320.417969 454.560913,329.810425 
	C459.766174,331.877045 465.204285,333.334747 470.569458,334.968719 
	C480.407593,337.964966 490.058655,336.006927 499.649170,333.781982 
	C503.830231,332.812012 508.081360,332.240356 512.246399,331.205688 
	C513.690369,330.846954 515.292236,330.849274 516.675171,332.669159 
	C517.000000,355.020905 517.000000,377.041779 517.000000,399.531342 
z"/>
<path fill="#8F692A" opacity="1.000000" stroke="none" 
	d="
M1.297376,394.332855 
	C1.000000,366.645782 1.000000,339.291534 1.000000,311.468658 
	C2.521723,308.943848 4.263692,308.919830 6.546133,309.921997 
	C33.193584,321.621643 60.871983,330.104065 89.492081,335.216827 
	C106.564369,338.266693 122.670563,336.091370 137.300049,325.191162 
	C155.811844,311.398224 174.317673,297.566376 193.380569,284.523102 
	C208.992661,273.840973 225.310593,264.649445 244.234985,261.136841 
	C259.588226,258.287079 274.245483,260.297363 288.221069,267.290771 
	C291.631195,268.997192 295.232300,270.334198 298.867157,271.367279 
	C306.570740,273.556793 314.330414,273.442047 321.114075,268.752502 
	C334.217377,259.694214 346.994598,261.054474 360.221008,268.522705 
	C385.836029,282.986115 412.098236,282.170319 439.048309,272.014252 
	C461.369720,263.602509 481.575317,250.906357 503.386810,241.520950 
	C506.315521,240.260712 509.277100,239.112869 512.271729,238.040497 
	C513.654053,237.545502 515.120483,236.822083 516.683167,238.685822 
	C517.000000,268.354218 517.000000,297.708466 517.000000,327.531342 
	C515.304626,329.997009 513.148560,331.143250 510.565002,331.537140 
	C502.410767,332.780365 494.510010,335.236023 486.240936,336.095093 
	C479.982971,336.745239 474.136322,335.920776 468.221710,334.262573 
	C456.208252,330.894531 444.868805,325.505005 432.514771,323.072418 
	C401.940918,317.052216 371.865631,318.651825 342.201752,328.064453 
	C324.477234,333.688568 308.028900,341.821014 293.186279,353.148071 
	C278.184540,364.596588 260.790771,369.107452 242.292557,369.133667 
	C222.893555,369.161163 203.697617,366.243927 184.454330,363.978882 
	C154.124893,360.408936 126.352089,367.508911 101.054077,384.828217 
	C90.920959,391.765442 80.436226,398.199524 69.004341,403.056915 
	C55.725849,408.698853 42.356571,408.369385 28.682320,405.510223 
	C21.407877,403.989227 14.475246,401.335022 7.404979,399.157806 
	C5.159365,398.466309 2.688784,397.243103 1.297376,394.332855 
z"/>
<path fill="#A07D3D" opacity="1.000000" stroke="none" 
	d="
M517.000000,238.583344 
	C499.902557,244.867493 484.180847,253.680664 468.122894,261.781708 
	C450.223999,270.811462 432.012756,278.912598 411.791382,281.365051 
	C394.920288,283.411224 378.901733,281.062775 363.865417,272.945801 
	C358.725677,270.171234 353.574554,267.434326 347.908905,265.862793 
	C338.933929,263.373230 330.772491,265.416107 323.207184,270.458893 
	C314.182983,276.474121 304.730530,276.100647 294.990997,272.572418 
	C285.777649,269.234802 277.068756,264.542358 267.168518,263.056732 
	C251.020660,260.633636 236.041824,264.547791 221.562439,271.054779 
	C205.968231,278.062775 192.109024,287.946442 178.369644,297.974762 
	C165.718735,307.208618 152.840820,316.155975 140.525833,325.819458 
	C124.764275,338.187439 107.218163,340.552429 88.108719,337.304321 
	C60.681816,332.642517 34.400059,324.305115 8.813444,313.561707 
	C6.519229,312.598389 4.105393,311.919922 1.373555,311.054565 
	C1.000000,309.285645 1.000000,307.571289 1.000000,305.428467 
	C13.513917,310.484161 26.223164,315.463959 39.209351,319.719391 
	C58.712807,326.110504 78.511215,331.218506 98.923927,333.804779 
	C114.836723,335.820892 127.809860,329.379028 140.009277,320.228973 
	C159.460739,305.639587 178.977722,291.110748 199.283768,277.741486 
	C215.262039,267.221558 232.416443,259.083038 251.959869,257.739624 
	C263.392670,256.953735 274.545837,258.257507 285.094971,263.204102 
	C289.009766,265.039764 293.039948,266.651337 297.090118,268.171661 
	C305.397552,271.290009 313.661469,270.980133 321.042206,265.991730 
	C332.819916,258.031616 344.696381,258.362244 357.026764,264.202881 
	C361.841461,266.483521 366.750092,268.565063 371.583771,270.806641 
	C390.507629,279.582458 409.798340,278.488953 429.173309,272.772461 
	C448.803650,266.980621 466.498962,256.851959 484.614227,247.663956 
	C494.855713,242.469513 505.102448,237.231689 516.621582,234.055450 
	C517.000000,235.388885 517.000000,236.777786 517.000000,238.583344 
z"/>
<path fill="#A07D3D" opacity="1.000000" stroke="none" 
	d="
M1.000000,394.428467 
	C11.133508,397.817444 21.300846,401.526947 31.924633,403.798248 
	C51.786507,408.044647 69.451462,402.676880 85.896072,391.638611 
	C96.271294,384.674347 107.021385,378.334686 118.047913,372.427368 
	C137.738541,361.878296 158.860809,359.561737 180.623184,361.401367 
	C198.864639,362.943359 216.975800,366.012024 235.287994,366.738617 
	C256.133972,367.565735 275.629303,363.361450 292.739258,350.506378 
	C318.618896,331.062500 348.100647,321.162079 380.092041,317.966431 
	C407.615906,315.217072 434.302216,318.659851 459.944763,328.957886 
	C473.872345,334.551208 487.694214,335.076477 501.974182,330.881500 
	C506.586365,329.526550 511.438751,328.989349 516.590637,328.039032 
	C517.000000,329.388885 517.000000,330.777802 517.000000,332.583374 
	C510.950562,334.155945 504.825897,335.015472 498.866699,336.527100 
	C484.802124,340.094818 471.183746,339.129608 457.756195,333.669098 
	C421.427979,318.895782 384.402130,318.519806 347.073303,329.082367 
	C329.830994,333.961212 313.679535,341.452698 299.119934,352.096191 
	C285.456696,362.084351 270.726532,369.711731 253.509857,370.783875 
	C239.545639,371.653473 225.582291,371.279236 211.618530,369.684723 
	C197.244965,368.043427 182.933060,365.954651 168.362961,365.794495 
	C146.433609,365.553467 126.729446,371.847504 108.354637,383.342499 
	C99.037918,389.170898 89.596954,394.805328 80.129211,400.386719 
	C61.432850,411.408600 41.718369,412.419800 21.313860,406.102844 
	C14.804026,404.087494 8.294216,402.072052 1.392200,400.028320 
	C1.000000,398.285645 1.000000,396.571289 1.000000,394.428467 
z"/>
<path fill="#8F692A" opacity="1.000000" stroke="none" 
	d="
M517.000000,496.531342 
	C511.982483,499.743469 508.512756,504.423767 503.795929,507.546112 
	C497.110107,511.971741 490.114166,515.227600 481.827301,512.864868 
	C477.880981,511.739655 474.576050,509.731262 472.802521,505.673798 
	C472.166656,504.219086 470.893311,502.995636 469.756226,501.815735 
	C465.176971,497.064240 464.854462,492.236603 469.225739,487.264343 
	C471.959625,484.154633 475.064362,481.368439 478.034027,478.469208 
	C482.279236,474.324646 485.317047,469.469177 487.062286,463.774506 
	C490.735626,451.788513 502.648621,447.384644 513.344116,454.002563 
	C514.330139,454.612671 515.341919,455.181091 516.670898,455.884460 
	C517.000000,469.354218 517.000000,482.708466 517.000000,496.531342 
z"/>
<path fill="#754F25" opacity="1.000000" stroke="none" 
	d="
M1.000000,63.468658 
	C8.089657,62.188976 15.085953,60.555138 22.312689,60.964138 
	C26.221233,61.185341 29.910496,61.936008 33.229954,64.012268 
	C40.114902,68.318680 41.291100,73.728355 36.643845,80.349800 
	C33.809105,84.388756 32.360062,89.245186 28.335896,92.650490 
	C25.717598,94.866119 23.247606,96.085297 19.897165,96.028214 
	C13.912023,95.926247 7.924030,95.991455 1.468615,95.993385 
	C1.000000,85.312439 1.000000,74.624878 1.000000,63.468658 
z"/>
<path fill="#754F25" opacity="1.000000" stroke="none" 
	d="
M517.000000,680.531372 
	C511.455902,678.750916 506.287140,675.766663 501.370483,672.423279 
	C495.825195,668.652344 493.952728,663.019470 495.909271,656.237488 
	C499.195679,644.845764 507.252136,637.101196 516.680908,630.117065 
	C517.000000,646.687561 517.000000,663.375122 517.000000,680.531372 
z"/>
<path fill="#754F25" opacity="1.000000" stroke="none" 
	d="
M517.000000,38.531342 
	C509.039276,34.324928 503.050415,27.874685 500.496857,18.918680 
	C498.763824,12.840635 500.301025,7.452415 506.127075,3.898378 
	C507.087646,3.312396 507.821655,2.355057 508.830200,1.284674 
	C517.000000,1.000000 517.000000,1.000000 517.000000,8.846221 
	C517.000000,18.585041 517.000000,28.323862 517.000000,38.531342 
z"/>
<path fill="#8E692B" opacity="1.000000" stroke="none" 
	d="
M517.000000,144.531723 
	C513.856018,145.269897 510.694672,145.882523 507.572327,145.724701 
	C503.481354,145.517899 499.206055,144.608841 498.574066,139.566055 
	C497.981628,134.838989 500.942505,131.586395 504.889465,129.753891 
	C508.467255,128.092789 512.432617,127.266502 516.613525,126.036072 
	C517.000000,132.021149 517.000000,138.042297 517.000000,144.531723 
z"/>
<path fill="#754F26" opacity="1.000000" stroke="none" 
	d="
M311.532043,1.000000 
	C311.466614,4.754571 310.862671,8.500875 310.421448,12.266243 
	C310.047180,15.459974 308.269073,15.812203 305.946899,14.443596 
	C300.763123,11.388501 295.987000,7.875604 294.058105,1.354017 
	C299.688049,1.000000 305.376068,1.000000 311.532043,1.000000 
z"/>
<path fill="#754F26" opacity="1.000000" stroke="none" 
	d="
M187.532059,1.000000 
	C187.783371,5.037867 185.737335,7.364839 181.664719,7.873558 
	C176.157166,8.561518 172.463394,6.602010 170.072906,1.350532 
	C175.688034,1.000000 181.376083,1.000000 187.532059,1.000000 
z"/>
<path fill="#754F25" opacity="1.000000" stroke="none" 
	d="
M372.232117,622.150757 
	C364.277832,639.614014 354.854370,644.862488 335.164062,635.710144 
	C329.070740,632.877930 322.546967,631.579468 315.969543,630.480103 
	C313.839874,630.124146 311.712250,629.679688 309.637085,629.088379 
	C302.995758,627.195984 301.884186,624.013977 306.132935,618.648071 
	C314.056030,608.641724 324.040771,601.477600 336.825989,599.793884 
	C345.996277,598.586365 354.595428,595.644775 363.420288,593.353394 
	C364.546997,593.060791 365.662415,592.710388 366.802582,592.485962 
	C374.287079,591.012695 377.161743,593.314331 376.892120,600.977417 
	C376.639465,608.158997 375.525177,615.217651 372.232117,622.150757 
z"/>
<path fill="#754F25" opacity="1.000000" stroke="none" 
	d="
M121.865509,626.117676 
	C112.362038,628.133911 103.562592,625.915222 94.825050,623.970825 
	C85.205933,621.830139 76.033615,618.249207 67.571060,613.158508 
	C60.462547,608.882385 60.605835,603.825195 67.071968,598.683167 
	C81.749260,587.011353 98.572914,583.367981 116.751671,585.247437 
	C123.345406,585.929077 126.063194,592.041931 129.239197,596.923584 
	C130.558090,598.950745 130.820953,601.685974 132.524872,603.582153 
	C139.505646,611.350708 135.521118,619.853516 126.947845,624.296875 
	C125.485023,625.055054 123.833176,625.448486 121.865509,626.117676 
z"/>
<path fill="#754F25" opacity="1.000000" stroke="none" 
	d="
M423.924774,636.952026 
	C422.044342,632.461487 421.815094,628.298157 425.329041,625.094849 
	C429.032715,621.718506 433.454132,622.714294 437.485687,624.622681 
	C441.110748,626.338745 444.533630,627.769958 448.794098,627.666992 
	C454.202972,627.536255 460.724792,635.150757 461.785004,641.756836 
	C463.641052,653.321716 459.883789,657.005859 448.764893,653.668640 
	C438.999695,650.737732 429.683624,646.688782 423.924774,636.952026 
z"/>
<path fill="#754F26" opacity="1.000000" stroke="none" 
	d="
M211.610718,623.797424 
	C219.120468,624.480835 225.973785,624.465576 231.765762,619.229309 
	C233.485428,617.674622 236.120651,616.941223 238.264877,618.482971 
	C240.729782,620.255188 239.971054,622.940979 239.214874,625.347473 
	C236.089828,635.292480 226.087845,641.231934 215.886856,639.238464 
	C212.127548,638.503845 208.407471,637.609314 204.998886,635.782471 
	C203.083954,634.756287 201.197174,633.594971 200.155807,631.608276 
	C198.509445,628.467224 196.784866,624.887512 199.275665,621.793701 
	C201.763138,618.703979 204.715652,621.550781 207.401489,622.494019 
	C208.651627,622.933105 209.918335,623.325073 211.610718,623.797424 
z"/>
<path fill="#754F26" opacity="1.000000" stroke="none" 
	d="
M168.687012,645.120667 
	C173.182587,648.380737 176.874268,651.989380 180.120102,655.982971 
	C184.121017,660.905640 181.999756,665.798340 175.715591,666.622131 
	C166.104919,667.881897 154.616333,661.804138 150.174561,653.168213 
	C149.399231,651.660889 149.463440,650.380066 150.463455,649.013000 
	C154.072952,644.078674 162.750488,642.068787 168.687012,645.120667 
z"/>
<path fill="#754F26" opacity="1.000000" stroke="none" 
	d="
M45.819199,651.196594 
	C42.592197,648.205017 41.447174,644.985291 42.974846,641.081543 
	C44.479874,637.235718 47.557320,635.679932 51.435276,635.128662 
	C57.092808,634.324402 62.537663,633.886292 67.567947,637.708435 
	C71.188393,640.459412 72.542213,643.784485 71.765068,648.078979 
	C70.941978,652.627319 67.702919,654.885437 63.523071,655.593262 
	C57.208134,656.662659 51.362419,655.109741 45.819199,651.196594 
z"/>
<path fill="#754F26" opacity="1.000000" stroke="none" 
	d="
M456.633026,695.427246 
	C457.695831,699.635986 458.649536,703.669800 454.210876,705.895264 
	C449.950653,708.031250 445.994934,711.167480 440.538452,707.032654 
	C436.378632,703.880371 431.313263,702.152710 431.998322,695.648010 
	C432.102356,694.660339 431.998718,693.526855 432.452148,692.719727 
	C435.832428,686.702454 442.363342,686.581665 447.908783,685.298950 
	C452.491150,684.239136 454.349335,688.422546 455.692566,692.170898 
	C456.028290,693.107788 456.255371,694.083557 456.633026,695.427246 
z"/>
<path fill="#754F26" opacity="1.000000" stroke="none" 
	d="
M261.694214,670.737183 
	C264.615753,667.013245 267.759796,664.047058 271.521790,661.809082 
	C274.334717,660.135742 276.180450,660.395142 276.457703,664.296875 
	C276.692535,667.601990 277.526398,670.860840 277.848511,674.164307 
	C278.280273,678.592407 277.564789,682.825439 274.773376,686.475342 
	C271.544525,690.697327 266.782318,691.930237 262.377106,689.739441 
	C258.087311,687.605957 256.248108,683.446838 257.393433,678.362122 
	C258.032349,675.525696 259.521790,673.138245 261.694214,670.737183 
z"/>
<path fill="#754F26" opacity="1.000000" stroke="none" 
	d="
M402.369690,648.744263 
	C404.431610,647.240662 405.887695,647.825867 406.699768,649.626343 
	C408.665070,653.983643 409.667877,658.515320 407.894165,663.196350 
	C406.422668,667.079834 403.319855,668.395813 399.454956,667.745605 
	C394.984802,666.993530 390.897797,664.989929 386.850128,663.066895 
	C383.877228,661.654480 383.945160,659.239502 385.896332,656.881042 
	C388.450378,653.793884 391.834991,652.121338 395.743591,651.431335 
	C398.026154,651.028320 400.435699,650.942200 402.369690,648.744263 
z"/>
<path fill="#754F26" opacity="1.000000" stroke="none" 
	d="
M115.586983,677.718811 
	C116.781250,671.820251 122.148064,668.448059 128.332535,669.331665 
	C133.653427,670.091919 136.377747,673.446350 135.910583,678.578247 
	C135.602783,681.959351 133.806534,684.151794 130.617355,685.079468 
	C125.758957,686.492737 121.409073,685.419067 117.694229,681.974792 
	C116.572334,680.934631 115.887505,679.600891 115.586983,677.718811 
z"/>
<path fill="#754F26" opacity="1.000000" stroke="none" 
	d="
M337.579803,659.559509 
	C342.903168,659.009827 346.371216,661.920105 349.753357,664.847229 
	C351.240662,666.134399 351.656281,668.005005 350.671814,669.835144 
	C349.090912,672.773926 346.424713,674.180054 343.230316,673.658997 
	C338.806610,672.937500 334.887329,670.960938 333.500092,666.300537 
	C332.565979,663.162231 334.197021,660.877502 337.579803,659.559509 
z"/>
<path fill="#754F26" opacity="1.000000" stroke="none" 
	d="
M322.669830,705.695190 
	C318.476593,700.784668 323.911926,699.085815 325.617706,696.348816 
	C327.017822,694.102234 329.592377,694.187561 331.760620,695.757507 
	C334.637878,697.840942 335.682739,700.717590 334.323059,704.022217 
	C332.913910,707.447144 329.933533,707.617004 326.795868,706.908997 
	C325.510834,706.619019 324.255005,706.199341 322.669830,705.695190 
z"/>
<path fill="#754F26" opacity="1.000000" stroke="none" 
	d="
M193.265274,707.083069 
	C196.703735,704.738708 200.006180,704.208069 203.217880,706.529724 
	C204.881699,707.732422 205.067993,709.667603 204.145691,711.468079 
	C202.177155,715.310974 198.541901,715.148987 195.052612,714.855835 
	C190.174393,714.446106 189.710342,712.598572 193.265274,707.083069 
z"/>
<path fill="#754F26" opacity="1.000000" stroke="none" 
	d="
M77.858696,687.146790 
	C78.900887,687.305359 79.562447,687.395203 80.194557,687.583801 
	C83.197273,688.479614 85.111435,690.394836 85.204262,693.615234 
	C85.277580,696.158569 83.331322,696.914001 81.259140,697.271545 
	C77.948685,697.842896 74.874092,697.478210 73.039169,694.217590 
	C71.091927,690.757385 72.731247,688.217834 77.858696,687.146790 
z"/>
<path fill="#8E692B" opacity="1.000000" stroke="none" 
	d="
M450.010742,444.966431 
	C442.763458,450.098206 435.384277,454.225952 427.474091,457.442108 
	C423.832916,458.922485 420.723053,458.609070 417.759125,456.019348 
	C413.853760,452.606964 409.435760,449.956024 404.956726,447.358917 
	C397.472260,443.019104 397.045502,436.365692 403.835754,430.908936 
	C410.008087,425.948639 414.293793,419.306885 419.515991,413.504364 
	C422.307251,410.402863 425.181396,409.901794 428.247437,412.251373 
	C436.857941,418.849915 445.064117,425.895905 450.805359,435.327362 
	C452.797028,438.599182 453.646698,441.773193 450.010742,444.966431 
z"/>
<path fill="#8E692B" opacity="1.000000" stroke="none" 
	d="
M363.127899,445.006866 
	C364.572235,447.216217 364.933167,449.290100 364.706512,451.514984 
	C363.708923,461.307343 353.684692,473.124969 344.205048,475.708710 
	C338.833038,477.172882 333.365692,477.249786 327.885071,476.802216 
	C324.187164,476.500183 321.099274,474.958862 319.704376,471.259705 
	C318.325073,467.601868 320.129333,464.731445 322.608917,462.355743 
	C326.314819,458.805115 330.512146,455.740662 332.826416,450.928802 
	C333.142212,450.272156 334.032928,449.587616 334.745453,449.475616 
	C339.404205,448.743195 342.741821,445.624268 346.527405,443.272675 
	C352.259369,439.712097 358.080139,440.305145 363.127899,445.006866 
z"/>
<path fill="#8E692B" opacity="1.000000" stroke="none" 
	d="
M222.567368,488.411438 
	C230.601807,485.912476 238.257492,485.163361 245.925186,488.258667 
	C252.182388,490.784576 256.425446,497.040192 255.853027,502.950256 
	C255.302460,508.634918 251.202759,512.554382 244.124130,514.150696 
	C243.312820,514.333679 242.496948,514.518494 241.673019,514.619995 
	C234.808716,515.465393 228.059647,514.940552 221.419006,512.959351 
	C217.942413,511.922180 215.123276,509.982452 212.938049,507.111664 
	C207.843369,500.418732 209.439911,494.043762 217.094589,490.592590 
	C218.761948,489.840851 220.491318,489.226685 222.567368,488.411438 
z"/>
<path fill="#8E692B" opacity="1.000000" stroke="none" 
	d="
M414.582153,505.890076 
	C407.825409,507.709412 401.355011,506.991547 394.914551,506.634064 
	C392.419556,506.495575 390.608154,504.973846 389.589081,502.669250 
	C387.760590,498.534393 386.630737,494.199188 386.352295,489.691101 
	C386.118317,485.903534 387.868042,483.420105 391.585297,482.251221 
	C400.317078,479.505615 411.699066,483.271301 416.951355,490.738708 
	C420.406189,495.650574 419.566437,501.941071 414.582153,505.890076 
z"/>
<path fill="#8E692B" opacity="1.000000" stroke="none" 
	d="
M107.969353,501.180054 
	C104.000076,500.112000 100.755508,498.460175 100.546280,494.342377 
	C100.333504,490.154694 103.295219,487.736847 106.771965,486.095673 
	C115.480270,481.985077 124.323128,482.983765 132.896423,486.238647 
	C138.262482,488.275909 140.617798,492.464264 139.708908,496.613342 
	C138.523544,502.024475 134.126770,502.768707 129.663132,502.917267 
	C122.514282,503.155212 115.325539,503.528534 107.969353,501.180054 
z"/>
<path fill="#8E692B" opacity="1.000000" stroke="none" 
	d="
M166.644318,517.279907 
	C164.351471,512.761353 166.012253,510.553589 170.156052,509.133209 
	C176.446487,506.977020 182.537125,503.999481 189.088409,508.516663 
	C194.437836,512.205078 196.622406,519.344727 193.894073,525.235352 
	C191.542023,530.313538 183.596588,531.844238 177.186249,528.021484 
	C172.925888,525.480896 168.904129,522.433533 166.644318,517.279907 
z"/>
<path fill="#8E692B" opacity="1.000000" stroke="none" 
	d="
M321.285187,518.661255 
	C318.335693,512.777832 319.308258,510.809265 325.281464,509.988770 
	C327.585358,509.672272 329.907166,509.312378 332.222595,509.299988 
	C334.785767,509.286224 337.346954,509.844391 338.378357,512.625366 
	C339.470520,515.570190 338.612274,518.197510 336.379333,520.348389 
	C330.566467,525.947815 326.635590,525.569641 321.285187,518.661255 
z"/>
<path fill="#8E692B" opacity="1.000000" stroke="none" 
	d="
M44.030571,502.909790 
	C47.417713,503.178558 50.197273,503.770813 50.678387,507.385284 
	C51.130123,510.778961 49.408020,513.159119 46.586460,514.706848 
	C45.010834,515.571167 43.265438,516.285400 41.510769,516.628296 
	C38.520657,517.212463 35.373791,517.384094 33.437130,514.374634 
	C31.434986,511.263336 31.959459,508.016785 33.716320,504.941528 
	C35.441181,501.922272 38.225803,501.983337 41.148045,502.527069 
	C41.962643,502.678650 42.790710,502.757812 44.030571,502.909790 
z"/>
<path fill="#8E692B" opacity="1.000000" stroke="none" 
	d="
M233.530579,559.543091 
	C233.306671,565.374512 230.932755,567.490601 224.993790,567.609802 
	C220.054062,567.708923 215.830658,564.362976 215.408096,560.007446 
	C215.257126,558.451294 215.471100,557.013855 216.875015,556.034302 
	C220.556686,553.465637 230.760880,555.405579 233.530579,559.543091 
z"/>
<path fill="#8E692B" opacity="1.000000" stroke="none" 
	d="
M437.986389,568.744446 
	C434.612549,568.464966 433.177979,566.724792 433.161224,563.820679 
	C433.145050,561.019775 433.065826,558.195068 433.380981,555.422485 
	C433.766144,552.034119 436.009033,550.715210 439.029144,552.156616 
	C443.220642,554.157043 443.624939,558.366150 443.781860,562.355225 
	C443.922760,565.937500 442.243866,568.371033 437.986389,568.744446 
z"/>
<path fill="#8E692B" opacity="1.000000" stroke="none" 
	d="
M304.483704,557.556641 
	C302.857391,559.211731 301.161896,560.217285 299.715820,558.221924 
	C298.526794,556.581299 297.017426,554.564453 298.279541,552.387451 
	C299.261200,550.694153 301.191986,550.979370 302.715637,551.667175 
	C305.213593,552.794800 306.001892,554.725037 304.483704,557.556641 
z"/>
<path fill="#8E692B" opacity="1.000000" stroke="none" 
	d="
M450.731445,147.906586 
	C455.996002,146.885361 459.200531,148.334473 460.371155,153.561249 
	C460.749695,155.251404 462.007690,156.803421 463.066589,158.272141 
	C467.619385,164.587143 466.366882,171.483292 459.856964,175.878494 
	C454.486237,179.504562 448.600677,180.706879 442.259491,179.709854 
	C435.831818,178.699234 429.529236,178.275299 422.978760,179.607712 
	C415.248291,181.180115 413.106049,178.535797 415.059906,170.940094 
	C416.383728,165.793686 417.727051,160.649475 420.086914,155.817795 
	C423.271912,149.296722 432.059753,143.368576 440.015686,147.857101 
	C443.298859,149.709396 446.874390,148.150192 450.731445,147.906586 
z"/>
<path fill="#8E692B" opacity="1.000000" stroke="none" 
	d="
M87.983078,163.165390 
	C93.136597,161.083115 97.440674,157.768921 103.277992,160.818726 
	C109.551521,164.096481 113.738594,168.548752 114.244354,175.697540 
	C114.802505,183.586777 112.279572,190.178604 104.954849,194.174698 
	C101.588562,196.011200 97.997017,196.539948 94.374901,194.932068 
	C87.630470,191.938141 81.348534,188.249252 76.268898,182.746048 
	C69.310829,175.207748 71.388077,167.461670 81.241783,164.590912 
	C83.313431,163.987350 85.472282,163.683090 87.983078,163.165390 
z"/>
<path fill="#8E692B" opacity="1.000000" stroke="none" 
	d="
M294.455627,129.667053 
	C296.389648,133.065170 297.384094,136.385956 297.916901,139.880447 
	C299.449249,149.929947 292.355377,154.990631 284.886017,158.043304 
	C284.021667,158.396545 282.738220,158.548309 281.962280,158.162903 
	C275.994781,155.198959 269.561157,156.284912 263.307251,155.751114 
	C255.220490,155.060867 253.146698,150.959534 257.319580,143.936356 
	C262.780029,134.746185 271.394989,129.001602 280.175964,123.482536 
	C281.233582,122.817802 282.410583,122.771141 283.541321,123.238747 
	C287.368713,124.821533 291.469513,125.939926 294.455627,129.667053 
z"/>
<path fill="#8E692B" opacity="1.000000" stroke="none" 
	d="
M443.875763,116.019989 
	C443.036316,108.093689 446.884247,104.286026 454.291168,105.444794 
	C457.555298,105.955444 460.879089,106.526871 463.956512,107.664154 
	C467.028687,108.799469 469.422028,111.158646 469.251404,114.763954 
	C469.079498,118.396477 466.431549,120.228912 463.248871,121.269791 
	C455.542358,123.790169 447.997101,121.839424 443.875763,116.019989 
z"/>
<path fill="#8E692B" opacity="1.000000" stroke="none" 
	d="
M372.577026,124.880104 
	C377.004700,124.868851 381.017242,125.480057 383.634644,128.964676 
	C387.648651,134.308731 383.501617,141.827484 376.192047,142.747940 
	C370.400757,143.477203 364.454956,139.939392 362.705963,134.723602 
	C361.284821,130.485580 362.950928,127.432663 367.343079,127.073616 
	C369.392334,126.906097 370.471924,125.282867 372.577026,124.880104 
z"/>
<path fill="#8E692B" opacity="1.000000" stroke="none" 
	d="
M196.756744,157.633408 
	C198.320175,152.404205 202.439285,150.613968 207.734177,152.513062 
	C211.579163,153.892105 213.570694,158.854050 211.553665,162.900085 
	C209.662750,166.693192 206.625031,169.557419 202.676682,171.219452 
	C200.463486,172.151077 198.087067,172.297729 196.103348,170.586838 
	C194.091202,168.851425 194.072189,166.506851 194.694977,164.167603 
	C195.247665,162.091629 196.000443,160.068939 196.756744,157.633408 
z"/>
<path fill="#8E692B" opacity="1.000000" stroke="none" 
	d="
M316.612488,111.064339 
	C319.287170,105.429779 326.044525,104.727325 329.486755,109.372231 
	C332.172760,112.996719 330.298340,117.254211 325.786896,117.775963 
	C321.133484,118.314133 318.233215,116.308540 316.612488,111.064339 
z"/>
<path fill="#8E692B" opacity="1.000000" stroke="none" 
	d="
M146.262985,197.363937 
	C148.189957,194.960281 151.401535,194.456116 152.236404,191.224350 
	C152.643326,189.649185 154.511551,189.389114 156.038147,190.203339 
	C158.025223,191.263153 158.750839,193.023361 158.349411,195.217422 
	C157.802490,198.206512 151.364944,203.531662 148.338318,203.180664 
	C144.606384,202.747879 145.040512,200.241623 146.262985,197.363937 
z"/>
<path fill="#8E692B" opacity="1.000000" stroke="none" 
	d="
M92.303802,135.594574 
	C89.809067,137.725296 87.217583,138.733185 84.259430,138.426498 
	C82.730453,138.267975 81.262108,137.694397 80.940262,135.921524 
	C80.655365,134.352173 81.771156,133.483383 82.932449,132.776993 
	C85.132469,131.438766 87.553383,130.827591 90.096565,131.223572 
	C92.422493,131.585739 93.870285,132.695557 92.303802,135.594574 
z"/>
<path fill="#754F25" opacity="1.000000" stroke="none" 
	d="
M392.337463,44.733669 
	C396.093323,51.690269 397.346954,58.823174 396.981842,66.266098 
	C396.730804,71.383064 394.567841,73.353859 389.568329,72.279404 
	C378.207886,69.837914 366.841583,67.341797 355.636749,64.284828 
	C347.062775,61.945648 340.098541,56.823162 335.073792,49.349865 
	C332.342255,45.287312 332.932373,42.502613 337.591553,41.444851 
	C348.775513,38.905781 359.657410,35.344494 370.713226,32.441227 
	C380.518890,29.866253 386.108154,33.677876 392.337463,44.733669 
z"/>
<path fill="#754F25" opacity="1.000000" stroke="none" 
	d="
M177.734924,43.886047 
	C181.472916,45.279377 184.230469,47.371059 186.497116,50.117477 
	C188.724457,52.816288 189.396072,55.956184 187.620773,58.949524 
	C184.159485,64.785606 181.207291,70.992027 176.200272,75.807053 
	C174.930328,77.028297 173.570755,77.751991 171.826157,77.902290 
	C155.577652,79.302071 140.288055,77.324951 127.326859,66.100197 
	C122.510315,61.928947 122.018791,57.548939 127.593666,54.647251 
	C143.120132,46.565826 159.329330,40.798504 177.734924,43.886047 
z"/>
<path fill="#754F26" opacity="1.000000" stroke="none" 
	d="
M467.361511,19.491535 
	C472.778076,22.908556 471.297058,27.874926 470.429840,32.225113 
	C469.390930,37.436852 465.864014,41.529301 460.548340,42.240082 
	C456.474792,42.784775 452.925385,44.114464 449.260071,45.619473 
	C445.186554,47.292080 441.068329,47.843491 438.080688,43.597618 
	C435.210144,39.518135 436.362396,35.455086 439.348511,32.190811 
	C446.722076,24.130371 455.976837,19.779345 467.361511,19.491535 
z"/>
<path fill="#754F26" opacity="1.000000" stroke="none" 
	d="
M277.041992,42.099525 
	C278.185730,44.870956 279.893158,47.536049 277.305573,49.743721 
	C274.726257,51.944317 271.959259,50.636311 269.523987,48.994141 
	C262.910858,44.534714 255.976028,45.572254 248.945663,47.649868 
	C246.933395,48.244537 244.661636,49.590557 242.991348,47.355461 
	C241.348740,45.157379 241.872681,42.600487 242.960754,40.251286 
	C243.817703,38.401039 245.185349,36.819599 246.962891,35.920475 
	C257.689850,30.494570 269.474091,29.235323 277.041992,42.099525 
z"/>
<path fill="#754F26" opacity="1.000000" stroke="none" 
	d="
M210.182480,29.774136 
	C209.302063,29.646328 208.793518,29.603170 208.324829,29.443260 
	C198.221222,25.995941 197.876266,23.432943 204.773529,15.529426 
	C209.903473,9.651031 216.310181,9.396534 222.930222,9.504743 
	C227.349594,9.576982 230.034531,13.892108 227.695999,17.174522 
	C223.444809,23.141636 218.544128,28.678722 210.182480,29.774136 
z"/>
<path fill="#754F26" opacity="1.000000" stroke="none" 
	d="
M58.962440,47.260098 
	C47.923145,42.361752 48.207764,42.252003 55.750301,33.590912 
	C61.256096,27.268610 67.867477,27.513494 74.838196,28.333740 
	C77.972832,28.702595 79.957657,30.842581 79.199226,34.347778 
	C78.003128,39.875736 65.150414,48.240067 58.962440,47.260098 
z"/>
<path fill="#754F26" opacity="1.000000" stroke="none" 
	d="
M130.650452,32.508362 
	C125.027100,38.515141 118.502693,37.857262 111.879959,35.911804 
	C108.997223,35.064983 107.013680,32.925587 106.537155,29.868343 
	C106.029182,26.609213 107.374992,23.924583 110.077103,22.147251 
	C114.691444,19.112137 119.938820,17.911711 125.313789,18.675865 
	C132.254639,19.662643 134.488068,25.502052 130.650452,32.508362 
z"/>
<path fill="#754F26" opacity="1.000000" stroke="none" 
	d="
M420.872375,9.053144 
	C424.855408,11.761124 425.210541,15.485441 424.787994,19.419641 
	C424.133759,25.511457 422.682129,26.213877 417.270111,23.824594 
	C414.425232,22.568645 411.204651,22.170267 408.343323,20.942741 
	C406.075989,19.970055 403.797882,18.342098 403.817657,15.522702 
	C403.837891,12.647425 406.529785,11.967304 408.651733,11.210608 
	C412.478516,9.845984 416.145630,7.427966 420.872375,9.053144 
z"/>
<path fill="#754F26" opacity="1.000000" stroke="none" 
	d="
M26.816910,12.409753 
	C29.518938,11.938606 31.860447,11.750835 34.112282,12.401170 
	C37.673710,13.429717 40.022667,15.708038 39.412891,19.637051 
	C38.805504,23.550701 36.141075,25.582214 32.190033,25.927784 
	C27.152199,26.368408 22.328527,24.076178 21.511116,20.546762 
	C20.550833,16.400438 22.852285,14.011548 26.816910,12.409753 
z"/>
<path fill="#754F26" opacity="1.000000" stroke="none" 
	d="
M366.681335,3.775896 
	C369.099976,3.245234 370.982239,3.754790 372.712830,4.878476 
	C373.849792,5.616696 375.052856,6.561811 374.957947,7.971895 
	C374.645355,12.615507 370.873352,14.198511 367.348175,15.456706 
	C364.546539,16.456650 361.069183,16.766619 359.619141,13.192831 
	C358.054260,9.336024 360.515045,6.967444 363.672424,5.227757 
	C364.542480,4.748384 365.445190,4.328303 366.681335,3.775896 
z"/>
</svg>