<?xml version="1.0" encoding="UTF-8"?>
<svg id="Layer_1" data-name="Layer 1" xmlns="http://www.w3.org/2000/svg" viewBox="0 0 506.03 451.27">
  <defs>
    <style>
      .cls-1 {
        fill: #a38164;
      }

      .cls-1, .cls-2 {
        stroke-width: 0px;
      }

      .cls-2 {
        fill: #f4ebe3;
      }
    </style>
  </defs>
  <g id="TurwjA.tif">
    <g>
      <path class="cls-2" d="M0,357.11c2.53-3.82,5.54-6.97,9.49-9.57,3.41-2.25,3.15-6.92,3.72-10.62,2.52-16.32,4.5-32.69,5.27-49.23.6-12.93,1.55-25.86,2.45-38.78.76-11.02,1.67-22.01,1.58-33.07-.14-16.81-3.12-32.92-11.3-47.83-1.66-3.03-3.36-6.11-4.44-9.37-1.98-5.94-2.16-12.32,6.49-14.61,3.17.15,6.34-.26,9.52.42,14.05,3.02,28.14,3.97,42.25.31,6.83-1.77,13.69-3.32,20.85-2.46,7.44.9,10.3,6.78,6.28,13.11-.89,1.4-1.92,2.71-2.93,4.03-4.59,6.03-7.62,12.78-9.35,20.14-4.69,20.02-5.57,40.47-6.52,60.88-1.06,22.58,1.08,45.05,3.3,67.5,1.04,10.48,3.86,19.64,13.84,25.35,4.41,2.52,7.77,6.46,10.53,10.98,2.09,3.43,1.23,5.96-.67,8.7-.62.89-1.41,1.65-2.13,2.47-8.81,3.19-17.77,2.73-26.92,1.78-12.64-1.31-24.99.95-37.05,4.75-6.58,2.07-13.35,3.3-20.16,4.19-5.64.74-10.73-.54-14.08-5.74-.02-1.11-.02-2.22-.02-3.33Z"/>
      <path class="cls-1" d="M426.97,4.19c3.41-2.45,7.51-2.59,11.42-3.36.99-.2,2.22.44,2.91-.83h5c2.84.8,5.78,1.36,8.5,2.45,16.73,6.69,33.47,27.38,21.93,52.46-3.29,7.15-6.24,14.48-10,21.37-5.73,10.5-5.46,21.35-3.35,32.57,5.44,29,11.63,57.85,15.52,87.13,1.51,11.34,3.9,22.57,5.12,33.97.56,5.23,1.38,10.48,1.28,15.71-.41,21.36,1.36,42.62,2.78,63.89.61,9.08,1.95,18.12,3.31,27.13.56,3.69,2.97,6.8,4.64,10.12,4.59,9.15,8.81,18.35,9.89,28.79,1.35,13.15-10.19,28.52-22.87,29.74,4.91-3.23,9.51-6.74,10.35-13.12.74-5.67-1.45-10.67-4.4-15.21-9.8-15.09-14.34-31.78-16.13-49.5-1.28-12.65-2.48-25.3-3.37-37.99-1.41-20.14-3.29-40.24-4.8-60.37-1.12-14.88-3.06-29.67-5.3-44.4-3.88-25.48-9.8-50.56-15.2-75.74-3.08-14.35-1.89-27.66,6.68-39.97,1.96-2.82,3.46-5.98,5-9.07,5.51-11.09,7.4-22.44.69-33.65-6.81-11.3-16.04-19.7-29.6-22.12Z"/>
      <path class="cls-2" d="M426.97,4.19c13.57,2.42,22.79,10.82,29.57,22.14,6.7,11.21,4.82,22.56-.69,33.65-1.54,3.09-3.03,6.25-5,9.07-8.57,12.3-9.76,25.62-6.68,39.97,5.4,25.18,11.32,50.27,15.2,75.74,2.24,14.73,4.18,29.52,5.3,44.4,1.51,20.13,3.39,40.23,4.8,60.37.89,12.69,2.09,25.34,3.37,37.99,1.79,17.72,6.33,34.41,16.13,49.5,2.95,4.54,5.14,9.54,4.4,15.21-.84,6.38-5.44,9.89-10.35,13.12-5.32,3.13-11.42,4.13-17.23,5.46-12.46,2.85-23.08,8.72-32.94,16.63-7.51,6.03-15.02,12.17-24.28,15.59-4.62,1.71-9.28,2.76-14.18,2.3-9.45-.9-13.48-9.43-12.79-17.35.73-8.31,3.97-16,7.67-23.47,5.1-10.28,10.75-20.31,14.08-31.39,2.75-9.15,3.85-18.57,4.64-28.04.28-3.29.63-6.58.8-9.88.07-1.31.49-2.81-.8-3.89.6-.95.8-1.98.89-3.12,1.02-14.23,1.2-28.5.43-42.72-.42-7.7.45-15.5-1.34-23.13.2-13.27-1.73-26.37-3.16-39.51-2.68-24.71-8.46-48.81-14.36-72.86-3.09-12.58-5.99-25.28-12.1-36.89-2.84-5.41-6.29-10.39-10.63-14.73-7.46-7.45-15-14.81-22.33-22.38-5.11-5.28-9.45-11.18-12.46-17.96-5.1-11.48-2.83-23.55,10.07-31.34.52-.08.93-.26.89-.89l-.06.06c4.62-.67,8.96-2.49,13.75-2.63,9.74-.28,19.32.77,28.89,2.33,7.66,1.24,14.25-.66,19.4-6.74,1.97-2.32,4.06-4.53,6.1-6.79,3.98-4.6,8.68-7.76,15-7.82Z"/>
      <path class="cls-1" d="M407.96,262.33c1.79,7.62.92,15.43,1.34,23.13.78,14.22.59,28.49-.43,42.72-.08,1.14-.28,2.17-.89,3.12-10.42,9.14-19.17,10.1-31.41,3.31-3.26-1.81-6.4-3.85-9.49-5.94-13.04-8.81-26.09-7.46-38.88.29-7.66,4.64-14.65,10.4-23.62,12.58-3.79.92-7.56,1.59-11.46,1.43-1.59-.06-2.42.16-2.23,2.29,1.52,16.81,4.39,33.36,9.09,49.57,2.88,9.92,8.47,18.54,13.55,27.4,2,3.49,3.67,7.09,4.01,11.21.46,5.65-1.64,9.35-6.96,11.85.86-5.28-.77-9.8-4.12-13.86-2.29-2.78-4.32-5.78-6.7-8.46-13.05-14.72-18.58-32.27-20.08-51.54-.84-10.75-1.93-21.48-2.7-32.24-1.23-17.06-.51-34.02,1.53-50.98,1.57-13.03,3.9-25.99,2.99-39.24-.82-12.02-8.57-22.37-20.04-25.91-10.79-3.33-21.73-2.64-32.3.54-25.64,7.73-50.53,17.66-75.71,26.72-7.79,2.8-15.75,5.3-22.53,10.31-2.74,2.02-4.77,4.57-3.49,8.13,1.26,3.5,4.38,4.22,7.79,4.26,8.66.09,16.91-2.43,25.33-3.84,13.78-2.32,27.04-1.19,39.29,6.07,8.4,4.98,14.01,12.03,15.03,22.11-6.96-9.61-16.24-15.68-27.88-17.99-8.63-1.71-17.02.01-25.3,2.32-6.24,1.74-12.48,3.47-18.96,4.14-10.48,1.08-20.07-2.24-24.21-11.85-.73-1.7-1.4-1.92-3.09-1.25-7.33,2.9-14.75,5.54-22.83,5.23-2.73-.1-1.88,2.02-1.76,3.23.84,8.52,2.18,17.01,2.67,25.55.4,6.91,4.05,11.52,8.81,15.77,3,2.68,5.74,5.61,7.89,9.06,7.51,12.06-1.81,22.43-11.98,23.87.71-.82,1.51-1.58,2.13-2.47,1.91-2.75,2.77-5.27.67-8.7-2.76-4.52-6.11-8.46-10.53-10.98-9.98-5.71-12.8-14.87-13.84-25.35-2.22-22.45-4.36-44.92-3.3-67.5.95-20.41,1.83-40.85,6.52-60.88,1.73-7.37,4.75-14.11,9.35-20.14,1.01-1.32,2.04-2.63,2.93-4.03,4.03-6.33,1.17-12.21-6.28-13.11-7.16-.86-14.02.69-20.85,2.46-14.12,3.66-28.2,2.71-42.25-.31-3.18-.68-6.35-.27-9.52-.42,3.96-8.17,12.43-12.2,21.73-10.63,5.7.96,11.45,1.76,17.21,2.23,8.81.72,17.25-1.51,25.66-3.78,8.82-2.38,17.22-2.61,24.23,4.57,6.82,6.98,8.28,17.25,2.89,27.24-7.62,14.13-11.66,29.33-14.67,44.9-.44,2.3-.55,4.66-.81,6.99-.44.32-.86.67-1.32.96-5.94,3.63-6.56,6.47-2.62,12.11.63.91,1.3,1.79,1.96,2.68,2.61,3.56,3.21,7.17.76,11.17-1.58,2.58-3.04,5.31-4.08,8.15-2.5,6.84.79,11.39,8.11,11.65,9.66.35,18.52-3.01,27.23-6.43,41.4-16.27,82.38-33.52,122.52-52.73,11.73-5.61,23.37-11.45,33.8-19.32,4.99-3.77,9.63-7.99,11.72-14.21,2.42-7.18-1.93-12.25-9.35-10.84-2.43.46-4.83,1.13-7.23,1.74-5.74,1.45-11.42,3.16-17.4,3.52-12.93.79-24.61-2.15-34.8-10.63-4.94-4.11-8.35-3.77-13.92-.1-.42.28-1.03.29-1.55.42-10.09-5.18-15.83-13.87-19.51-24.21-.42-1.17-1.04-2.27-1.42-3.45-3.52-10.98-10.74-17.21-22.28-19.6-17.82-3.69-35.68-6.11-53.84-4.8-12.78.92-24.77,5.02-36.33,10.51-8.09,3.84-16.16,7.73-25.22,9.02-7.58,1.08-20.1-2.74-23.09-9.63,3.25.96,6.45.9,9.82.31,9.71-1.69,18.26-6.29,26.96-10.45,15.88-7.6,32.39-12.23,50.05-13.35,11.28-.72,22.4-.13,33.56,1.02,13.52,1.39,26.7,4.22,39.32,9.43,12.5,5.16,19.69,13.58,17.66,27.9-.12.82-.07,1.66-.1,2.49-.41,10.05,1.24,12.69,10.67,15.97,15.77,5.49,32,8.53,48.75,8.48,11.95-.04,23.44-1.85,33.66-8.57,10.21-6.71,10.43-12.06.22-18.52-17.11-10.82-27.29-26.14-31.68-45.75-3.14-14.06-4.99-28.64-14.11-40.65,17.28,2.22,26.01,11.49,27.68,28.65.6,6.18.6,12.4,1.8,18.54,2.22,11.36,9.98,18.46,18.51,25.1,2.84,2.21,5.71,4.42,8.22,6.98,11.26,11.44,10.74,27.52-1.28,38.11-2,1.77-2.81,2.95-1.57,5.71,1.96,4.36,1.18,8.96-.59,13.3-5.08,12.52-14.69,20.9-25.81,27.82-3.59,2.24-7.35,4.2-11.73,6.69,5.88,1.29,11.01,2.63,15.78,5.01,16.41,8.17,22.21,22.04,21.77,38.28-.18,6.66-1.19,13.2-2.2,19.75-11.09,3.2-15.74,8.8-13.65,18.11,2.27,10.07,3.81,19.91,1.75,30.27-1.2,6.03,3.48,10.31,9.66,10.03,6.27-.28,10.8-4.09,15.06-8.03,7.08-6.55,14.99-11.25,24.66-12.68,7.29-1.07,14.62-1.1,21.96-1.02,6.26.07,11.92,1.7,17.02,5.52,4.18,3.13,8.23,6.55,13.42,8.12,8.02,2.42,14.46-.84,16.98-8.73,1.92-6.01.44-11.79-1.36-17.46-2.32-7.34-3.61-14.53-1.44-22.3,1.52-5.46.72-11.06-4.44-14.94,3.9-.27,7.63.62,11.34,1.68Z"/>
      <path class="cls-2" d="M214.86,297.38c-1.02-10.08-6.62-17.13-15.03-22.11-12.24-7.26-25.51-8.39-39.29-6.07-8.42,1.42-16.68,3.93-25.33,3.84-3.4-.03-6.53-.76-7.79-4.26-1.28-3.56.75-6.11,3.49-8.13,6.78-5.01,14.74-7.51,22.53-10.31,25.18-9.06,50.07-18.99,75.71-26.72,10.56-3.18,21.5-3.87,32.3-.54,11.47,3.54,19.22,13.89,20.04,25.91.91,13.24-1.42,26.21-2.99,39.24-2.04,16.95-2.76,33.92-1.53,50.98.77,10.76,1.86,21.49,2.7,32.24,1.51,19.27,7.04,36.82,20.08,51.54,2.38,2.69,4.41,5.69,6.7,8.46,3.35,4.06,4.98,8.58,4.12,13.86-4.06,6.24-10.13,6.6-16.55,5.44-8.54-1.53-16.79-4.35-25.43-5.51-10.79-1.45-21.44-.99-32.08,1.3-7.54,1.62-15.04,3.54-22.89,3.02-2.12-.14-4.13-.45-6.05-1.24-4.67-1.92-5.92-6.99-2.69-10.9,2.05-2.49,4.53-4.62,7.5-5.77,3.45-1.33,4.19-3.57,4.16-7.05-.15-21.07-.5-42.16.07-63.21.41-15.22.8-30.43.62-45.65-.06-6.17-.54-12.37-2.37-18.36Z"/>
      <path class="cls-2" d="M246.42,39.86c9.12,12.01,10.97,26.59,14.11,40.65,4.39,19.62,14.57,34.93,31.68,45.75,10.21,6.46,9.99,11.81-.22,18.52-10.22,6.72-21.71,8.53-33.66,8.57-16.76.05-32.98-2.99-48.75-8.48-9.43-3.29-11.08-5.93-10.67-15.97.03-.83-.02-1.67.1-2.49,2.03-14.32-5.17-22.74-17.66-27.9-12.62-5.21-25.8-8.04-39.32-9.43-11.16-1.15-22.28-1.74-33.56-1.02-17.66,1.12-34.18,5.76-50.05,13.35-8.7,4.16-17.25,8.76-26.96,10.45-3.37.59-6.57.65-9.82-.31-8.87-1.54-11.38-12.47-8.11-19.6,3.97-8.65,10.3-15.58,17.48-21.33,5.83-4.67,8.39-10.35,9.8-17.09,1.54-7.4,3.09-14.82,10.83-18.52,5.27-2.51,10.86-3.97,16.74-4.21,14.42-.57,28.63,1.16,42.88,3.15,12.01,1.67,24.16,2.2,36.29,2.85,15.75.85,31.49,1.89,47.26,1.41,9.9-.3,19.77-1.43,29.58-2.93,7.86-1.22,15.41-.43,22.03,4.58Z"/>
      <path class="cls-2" d="M203.32,153.7c.52-.13,1.12-.14,1.55-.42,5.57-3.67,8.98-4.01,13.92.1,10.19,8.48,21.86,11.41,34.8,10.63,5.97-.36,11.65-2.07,17.4-3.52,2.4-.61,4.8-1.28,7.23-1.74,7.41-1.41,11.77,3.66,9.35,10.84-2.1,6.22-6.74,10.44-11.72,14.21-10.42,7.88-22.07,13.71-33.8,19.32-40.13,19.21-81.12,36.46-122.52,52.73-8.71,3.42-17.56,6.77-27.23,6.43-7.33-.26-10.61-4.81-8.11-11.65,1.04-2.84,2.5-5.56,4.08-8.15,2.44-3.99,1.84-7.61-.76-11.17-.65-.89-1.32-1.78-1.96-2.68-3.94-5.64-3.32-8.48,2.62-12.11.46-.28.88-.64,1.32-.96,13.4-.53,26.63,2.84,40.06,1.71,19.86-1.67,39.11-5.47,55.52-17.69,7.51-5.59,13.23-12.87,16.49-21.87,1.23-3.39,1.22-6.95.64-10.24-.86-4.82-.17-9.26,1.12-13.77Z"/>
      <path class="cls-2" d="M396.61,260.68c5.16,3.88,5.96,9.48,4.44,14.94-2.16,7.78-.88,14.96,1.44,22.3,1.8,5.68,3.28,11.45,1.36,17.46-2.52,7.89-8.96,11.15-16.98,8.73-5.19-1.57-9.23-4.99-13.42-8.12-5.1-3.82-10.76-5.44-17.02-5.52-7.34-.08-14.67-.06-21.96,1.02-9.67,1.43-17.58,6.13-24.66,12.68-4.26,3.94-8.79,7.74-15.06,8.03-6.18.28-10.86-4-9.66-10.03,2.06-10.36.52-20.2-1.75-30.27-2.09-9.3,2.55-14.91,13.65-18.11,5.9.75,11.09,3.03,15.63,6.91,4.81,4.13,10.68,2.54,15.98,2.08,15.93-1.39,29.82-8.57,43.31-16.56,4.81-2.85,9.95-4.85,15.28-6.31,3.13-.86,6.31.13,9.42.77Z"/>
      <path class="cls-1" d="M411.97,11.97c-2.04,2.26-4.13,4.47-6.1,6.79-5.15,6.08-11.74,7.99-19.4,6.74-9.57-1.55-19.15-2.61-28.89-2.33-4.79.14-9.13,1.96-13.75,2.63,1.94-3.83,5.4-6.14,8.77-8.43,13.3-9.03,27.98-10.88,43.49-7.94,5.27,1.01,10.52,2.16,15.88,2.54Z"/>
      <path class="cls-1" d="M343.89,25.76c.04.63-.37.81-.89.89.09-.51.29-.9.89-.89Z"/>
    </g>
  </g>
</svg>