<?xml version="1.0" encoding="UTF-8"?>
<svg id="Layer_1" data-name="Layer 1" xmlns="http://www.w3.org/2000/svg" viewBox="0 0 513.78 405.31">
  <defs>
    <style>
      .cls-1 {
        fill: #f7e4d6;
      }

      .cls-1, .cls-2, .cls-3, .cls-4, .cls-5 {
        stroke-width: 0px;
      }

      .cls-2 {
        fill: #f6f2ee;
      }

      .cls-3 {
        fill: #534032;
      }

      .cls-4 {
        fill: #b19074;
      }

      .cls-5 {
        fill: #a8866a;
      }
    </style>
  </defs>
  <g id="_2vsCGI.tif" data-name="2vsCGI.tif">
    <g>
      <path class="cls-3" d="M226.38,368.62c-8.09.75-15.73.37-23.14,2.46-2.73.77-4.77,2.43-6.62,4.58-5.94,6.89-12.38,13.08-21.4,15.98-13.67,4.38-27.23,1.27-35-8.44-5.91-7.39-6.53-15.81-4.11-24.59,1.55-5.64.33-10.57-3-15.14-3.76-5.18-6.06-10.94-6.76-17.28-1.34-12.22,10.92-22.61,19.7-24.32,9.47-1.84,18.14.45,26.25,5.13,4.44,2.56,8.52,5.72,12.82,8.53,3.22,2.11,6.72,3.27,11.12,2.79-4.4-8.94-5.89-18.64-9.6-27.59-2.52-6.1-3.95-12.37-4.36-18.93-1.36-21.73.63-43.18,5.09-64.47,1.94-9.26,4.58-18.28,7.84-27.47-5.32.67-10.21,2.21-15.05,3.73-33.16,10.41-66.28,20.96-99.41,31.47-1.08.34-2.21.53-2.62,1.88-1.37,4.53-5.02,6.94-9.04,8.28-9.67,3.22-17.27,9.05-23.92,16.62-4.32,4.92-9.3,9.29-16.59,9.08-1.51-.04-1.41,1.2-1.8,2.09-3.02,7.06-9.1,7.9-13.72,1.67-5.2-7-7.73-15.26-9.81-23.56-5.41-21.65-4.36-42.85,5.46-63.19,6.21-12.86,15.45-23.51,25.27-33.69,10.85-11.24,21.68-22.49,35.66-29.98,1.46-.78,1.37-1.86,1.58-3.09,6.61-38.07,26.87-67.04,59.78-86.7C151.61,2.16,174.57-1.55,198.48.56c14.24,1.26,28.12,4.12,40.88,10.63,26.3,13.42,45.41,33.3,53.93,62.2,2.02,6.84,2.87,13.85,1.99,21.02-.13,1.04-1.16,2.83.34,3.23,1.67.44,3.43.07,4.53-2.06,2.63-5.06,5.59-9.97,9.43-14.23,3.25-3.61,6.92-6.58,12.12-6.95,4.09-.29,7.44,1.14,10.12,4.07,3.17,3.46,6.22,7.04,9.23,10.64,2.04,2.44,4.41,2.84,7.33,1.86,6.38-2.14,9.22-.54,10.9,5.85.42,1.59-.43,4.16,1.88,4.47,2.69.36,5.41.52,7.69-2.27,4.21-5.15,9.25-9.55,14.73-13.38,5.35-3.74,10.35-3.56,14.68,1.3,5.63,6.32,9.77,13.74,13.93,21.07,1.67,2.95.6,6.07-.8,8.85-.85,1.68-.5,2.52,1.02,3.23.21.1.41.22.58.37,3.89,3.5,7.92,5.23,12.82,1.63,1.2-.88,2.98-1.07,4.53-1.35,7.05-1.25,12.07,4.66,10.86,12.75-.29,1.91-.77,3.78-1.13,5.68-.52,2.71,3.14,6.17,5.79,5.34,3.47-1.09,6.96-2.04,10.51-2.82,3.76-.83,7.04-.09,9.87,2.47,2.72,2.47,5.56,4.75,8.52,6.94,6.22,4.61,7.37,10.36,3.54,17.09-2.5,4.39-5.52,8.49-9.32,11.8-2.33,2.03-.85,4-.66,5.95.15,1.54,1.82,1.37,3.02,1.55,12.75,1.98,15.99,8.19,10.03,19.6-2.11,4.05-4.48,7.99-7.06,11.75-1.23,1.79-1.14,3.28-.5,5.06.71,1.97,2.27,1,3.51,1.05,6.02.22,11.01,2.19,13.56,8.1,2.15,4.96.54,10.89-3.86,14.06-2.02,1.45-4.3,2.54-6.47,3.8-1.54.9-3.77,1-3.47,3.8.27,2.6,2.3,4.38,3.94,4.62,4.45.65,6.29,3.84,8.42,6.9,1.49,2.15,2.69,4.46,3.63,6.93,2.52,6.65,6.19,12.62,10.44,18.35,5.03,6.78,7.12,14.93,8.73,23.06,1.44,7.29,2.63,14.97-.06,22.02-3.78,9.93-7.25,20.3-16.27,27.19-1,.76-.91,1.19-.3,2.16,3.18,5.05,3.05,7.52-.97,11.77-4.74,5.01-10.87,7.87-17.18,10.31-7.13,2.76-14.58,4.32-22.11,5.44-2.73.4-5.63.38-7.98-1.2-1.9-1.28-3.31-.88-5.07.05-4.56,2.39-9.26,4.42-14.61,3.8-.79-.09-1.23.33-1.77.79-6.83,5.76-14.97,7.83-23.66,8.39-2.26.15-4.45-.33-6.18-1.61-1.99-1.48-4.06-1.44-6.19-1.13-14.27,2.05-28.62.72-42.9,1.21-7.32.25-13.01-1.7-18.74-5.44-3.23-2.11-7.01-2.54-10.85-2.33-3.34.18-6.75-.01-9.64-1.7-3.78-2.21-7.54-3.88-12.04-3.99-2.85-.07-5.13-1.67-7.42-3.65-3.17-2.75-7.38-2.94-11.22-1.04-2.82,1.39-5.34,2.71-8.07.02-.71-.7-1.46-.12-2.21.17-12.87,4.99-26.43,7.33-39.83,10.26-2.57.56-5.3.73-7.83-.05-5.75-1.77-7.82-7.5-4.99-13.36,1.75-3.7,7.15-9.95,12.23-14.03ZM376.72,383.16v-14.31q-5.22,6.54-1.7,12.54c.34.58.63,1.2.94,1.8,1.67,4.54.01,8.39-2.66,12.04,1.98,1.5,4.09,1.12,6.54.85-2.16-4.15-2.58-8.55-3.12-12.92ZM23.37,159.71c2.24-2.31,4.52-1.74,6.73-.02,4.99,3.88,7.84,9.07,9.38,15.14.98,3.85.38,7.81.81,11.95,7.55-4.94,15.41-6.95,24.08-6.3,6.53.48,12.42,2.87,18.33,5.26,3.34,1.35,6.27,1.33,9.46-.49,5.75-3.29,11.7-6.24,17.86-8.71,21.62-8.68,44.24-13.52,67.13-17.25,2.94-.48,4.92-1.25,5.85-4.48.9-3.14,2.58-6.08,4.03-9.05,6.48-13.24,16.46-21.5,31.63-23.19,8.75-.98,17.44-2.84,23.96-9.78,1.42-1.51,3.41-1.6,4.94-.05,1.64,1.65,1.41,3.6-.13,5.22-4.15,4.37-9.13,7.47-15.5,9.36,3.1,1.29,5.75,2.27,8.27,3.48,4.61,2.21,9.26,4.6,9.5,10.6.25,6.35-4.49,9.13-9.19,11.64-9.6,5.13-20.12,7.36-30.74,8.9-18.64,2.7-37.36,4.87-55.77,9.04-19.51,4.41-38.7,9.72-56.35,19.5-2.79,1.55-5.59,3.3-8.79,3.73-6.96.94-12.44,5.4-19.51,7.2,2.5,1.73,4.81,2.61,6.04,4.56,1.48,2.34,3.11,2.26,5.45,1.51,29.18-9.34,58.44-18.44,87.59-27.9,20.64-6.7,41.71-11.02,63.32-12.91,8.32-.73,16.71-.87,24.93-2.58,5.01-1.04,8.46-3.76,10.11-8.69,1.59-4.76,2.91-9.57,3.87-14.51.41-2.1-.12-2.73-1.83-3.54-10.6-4.96-13.67-10.61-12.4-22.16.25-2.29,1.24-3.87,3.52-3.84,2.22.03,3.55,1.53,3.5,3.85-.03,1.4.22,2.2,1.84,1.99,4.58-.57,9.12-1.29,12.67-4.57,6.54-6.04,10.2-13.52,10.27-22.45.12-15.39-5.66-28.89-14.65-40.92C247.64,14.57,211.98,3.48,170.46,8.61c-20.14,2.49-37.95,10.95-53.31,24.65-21.82,19.45-35.2,43.24-39.09,72.27-.29,2.2-1.38,3.47-3.32,4.36-3.96,1.82-7.59,4.22-11.1,6.79-10.99,8.06-20.12,18.08-29.37,27.96-4.22,4.51-8.39,9.08-11.57,14.44-.52.6-1.11,1.15-1.54,1.81-18.16,28.28-17.69,57.41-3.85,87.1.49,1.06.89,2.38,2.48,2.71,1.26-3.48,1.79-7.07,2.4-10.64,2.08-12.31,7.49-22.62,17.4-30.57,9.53-7.64,20.68-11.97,31.77-16.51,1.36-.56,2.94-.83,4.09-2.27-6.65-2.68-13.08-4.07-20.01-2.63-7.66,1.59-13.51,5.93-18.74,11.4-1.55,1.63-3.38,2.67-5.49,1.43-2.2-1.3-1.81-3.44-1.13-5.52.71-2.16,1.48-4.32,1.97-6.53,2.1-9.48.85-17.95-7.5-24.24-1.61-1.25-2.04-2.97-1.19-4.91ZM207.55,325.34c4.52,8.53,9.48,16.75,16.63,23.41,1.85,2.06,3.7,4.11,5.54,6.17.35.44.67.92,1.07,1.32,4.13,4.09,4.23,4.2,8.72.43,4.61-3.88,9.63-6.78,15.58-7.97,1.24-.25,2.4-.73,3.02-1.99,2.03-3.86,5.69-4.58,9.53-4.96,1.6.02,3.28.34,4.8-.01,5.62-1.27,10.91-.7,15.87,2.29,1.44.87,2.71.45,3.83-.38,5.25-3.89,11.1-4.71,17.23-3.05,2.31.63,3.72.23,5.45-1.36,4.61-4.24,9.71-3.94,14.36.36,2.72,2.52,4.8,5.5,6.76,8.61,3.33,5.29,3.67,5.46,6.85.01,3.92-6.73,15.25-5.08,17.31.26,1.74,4.52,4.71,4.71,8.47,4.4,1.25-.1,2.52,0,3.78-.03,5.31-.12,9.34-3.12,10.26-8.35.93-5.28,2.29-10.44,3.69-15.6,3.04-6.31,6.59-12.16,13.68-14.69,8.69.22,12.01,3.03,13.98,11.49.82,3.54.39,7.06.37,10.6-.03,4.81.1,5.07,4.99,4.83,4-.2,7.82-1.44,11.73-2.23,2.64-.54,3.64-1.86,3.37-4.49-.22-2.12.65-4.01,1.7-5.82,1.8-3.1,4.57-5.09,7.63-6.71,2.28-1.2,3.31-2.8,3.11-5.46-.39-5.27.43-10.48,1.37-15.65,1.16-6.37,3.45-11.87,10.41-13.89,1.47-.05,3.07-.48,4.4-.06,2.96.92,3.55-.3,3.24-2.85-.08-.67-.04-1.36-.05-2.04-.08-4.21.47-8.39.02-12.64-.5-4.65-.38-9.41,2.91-13.38.39-.47.44-1.28.48-1.95.52-8.85.42-17.88-2.49-26.16-3.64-10.37-4.69-20.91-5.06-31.65-.44-12.82-4.63-24.12-12.96-33.88-2.46-4.49-5.98-8.07-9.81-11.37-4.52-5.05-9.92-9.12-15.21-13.28-7.62-5.99-15.4-11.79-24.01-16.35-4.33-3.05-8.95-5.6-13.81-7.69-5.46-3.06-11.29-5.77-17.56-5.09-12.74,1.38-25.13-.76-37.56-2.69-11.96-1.85-23.92-2.18-35.95-.75-2.3.27-3.54,1.26-4.65,3.27-5.13,9.31-12.55,15.37-23.66,15.84-.74.03-1.76-.22-2.01.84-.2.89.54,1.47,1.12,2.01,2.41,2.2,5.28,3.59,8.29,4.77,2.88,1.13,4.36,3.23,4.04,6.42-.68,6.76-2.41,13.27-4.67,19.65-2.53,7.16-7.42,11.62-14.95,13.22-8.66,1.84-17.49,1.98-26.26,2.82-2.54.31-5.09.62-7.63.93-6.17.3-12.2,1.64-18.3,2.43-1.83.24-2.88,1.11-3.61,2.99-4.4,11.32-7.66,22.95-9.64,34.9-1.61,9.79-3.56,19.56-3.57,29.54-.06.65-.12,1.3-.18,1.95-1.33,10.05-.17,20.08.68,30.05.72,8.47,5.55,15.89,7.49,24.12,1.47,6.23,3.98,12.1,6.74,17.87.64,2.41,1.47,4.72,3.1,6.67ZM224.24,360.08c-1.17-1.37-1.98-2.48-2.95-3.44-7.7-7.64-14-16.34-19.2-25.82-1.06-1.93-2.18-2.47-4.31-2.2-8.24,1.05-15.57-.67-21.69-6.82-4.37-4.39-9.51-7.68-15.67-9.29-6.83-1.78-13.03-1.74-18.21,4.01-6.37,7.07-6.88,14.04-1.26,21.55,4.41,5.89,6.7,12.51,5.89,19.82-.41,3.67-.6,7.3-.51,10.95.11,4.29,1.67,7.97,5.23,10.64,6.93,5.2,14.17,4.9,21.5,1.09,7.82-4.07,15.34-8.61,21.53-15.04,1.91-1.99,4.37-2.75,7.06-3.03,7.36-.76,14.71-1.57,22.59-2.42ZM450.61,323.34c1.96,3.57,1.21,5.48-2.39,6.45-1.55.42-2.86,1.83-4.2,2.88-1.1.86-1.3,1.7-.4,3.13,2.37,3.73,3.25,7.92,3.28,12.37.05,6.42-1.22,12.77-.73,19.21.39,5.14,1.05,10.18,3.51,14.83.87,1.66,1.88,2.47,3.95,2.43,4.61-.09,9.04-1.12,13.47-2.17,7.43-1.76,14.64-4.02,20.81-8.84,1.56-1.21,1.53-1.65.15-2.93-2.18-2.01-4.2-4.24-6.09-6.54-9.11-11.1-12.88-23.24-6.74-37.09,1.11-2.5,1.06-4-1.76-5.05-1.86-.69-3.03-2.33-4.07-4.04-2.15-3.52-3.46-7.37-4.65-11.28-1.09-3.59-1.47-7.39-3.1-11.05-1.55,1.39-2.32,2.97-2.77,4.56-1.78,6.37-3.16,12.82-3.07,19.5.05,4.09-.55,4.54-5.2,3.63ZM404.8,332.38c0-1.3.01-2.33,0-3.36-.03-2.4-.78-5.21-2.81-5.75-2.05-.55-3.35,2.21-4.24,4.06-2.93,6.1-4.83,12.49-4.68,19.35.03,1.44.45,3.13-1.11,4.07-5.78,3.5-6.97,8.88-6.53,15.09.52,7.29,1.58,14.58.12,21.88-.22,1.08.2,1.84,1.2,2.13,4.2,1.24,7.76,3.81,11.7,5.56,2.13.95,4.28,1.34,6.6.3,3.21-1.45,6.54-2.48,10.07-2.98,2.91-.42,4.4-1.94,4.28-5.35-.22-5.93.64-11.81,1.85-17.65,1.15-5.55,3.27-10.87,3.83-16.55.21-2.18.19-3.9-2.99-3.17-2.64.6-5.41.82-8.13.89-6.18.16-9.62-3.37-9.88-9.58-.14-3.12,1.21-6.08.72-8.94ZM480.25,269.45c-1.71,5.75-1.93,10.74-1.28,15.77.33,2.54-.04,4.65-2.31,6.36-2.1,1.58-2.44,4.07-2.14,6.53.82,6.62,2.89,12.8,6.55,18.44,3.17,4.88,6.31,9.86,7.21,15.71.52,3.38,2.41,4.22,5.34,4.63,6.61.94,10.41-1.61,11.18-8.28.82-7.07-.78-13.9-3.87-20.18-5.03-10.2-10.53-20.17-15.86-30.22-1.42-2.68-2.93-5.33-4.82-8.76ZM370.65,360.97c-2.17.49-3.9,1.04-5.66,1.25-7.16.84-9.59.89-11.71-6.72-.09-.33-.1-.68-.19-1.01-.31-1.12-.64-2.26-2.09-2.31-1.46-.05-1.73,1-2.17,2.16-.65,1.7-.52,3.37-.43,5.07.07,1.34-.12,2.5-1.55,3.09-2.11.88-3.41,2.66-4.64,4.44-4.68,6.76-8.69,13.73-6.45,22.5.92,3.6,2.66,4.73,6.39,4.32,2.6-.29,5.15-1.42,7.79-.76,3.86.96,7.77.62,11.63.45,5.28-.23,7.27-3.12,5.97-8.23-.44-1.73-1.21-3.43-2.08-5-1.93-3.45-1.67-6.64.39-9.96,1.72-2.77,3.83-5.37,4.8-9.29ZM303.37,348.05c-4.66-.01-6.42,1.8-5.35,6.33,1.78,7.57.36,14.65-2.39,21.65-1.88,4.78-1.12,6.2,4.07,6.32,3.65.08,6.92,1.01,10.18,2.44,2.84,1.25,5.86,1.87,8.96,1.8,2.17-.05,3-.91,2.12-3.32-3.7-10.12-1.32-18.67,6.93-25.69.76-.65,1.69-1.09,1.13-2.46-1.2-2.94-2.1-6.02-4.16-8.51-1.49-1.8-3-2.59-4.93-.25-3,3.64-7.01,3.85-11.25,2.78-1.75-.45-3.43-1.26-5.31-1.09ZM189.79,157.4c9.76-1.39,19.05-2.34,28.19-4.34,7.37-1.61,14.63-3.56,21.12-7.57,4.66-2.88,4.62-4.86-.22-7.35-6.33-3.26-13.22-4.67-20.19-6.01-7.66-1.47-13.42,1.03-18.27,6.6-4.63,5.32-7.8,11.48-10.63,18.67ZM29.16,243.72c3.5-.33,6.17-2.08,8.18-4.37,8.52-9.68,18.21-17.46,30.62-21.79,4.62-1.61,4.43-5.87.08-8.39-4.5-2.6-9.41-2.55-13.84-.39-14.43,7.03-23.43,18.18-25.04,34.94ZM222.69,386.37c4.9.36,10.75-1.38,16.13-4.91,3.99-2.62,8.3-4.02,13.05-4.56,2.93-.33,6.95,1.59,8.53-.97,1.42-2.3-.39-5.96-1.22-8.85-.85-3-1.02-7.3-4.87-7.85-3.72-.53-5.65,3.02-7.25,5.89-2.31,4.13-5.5,6.99-10.21,7.78-7.8,1.3-11.06,7.17-14.16,13.47ZM270.11,352.18c2.75,7.51,4.16,14.85,3.68,22.47-.09,1.45.42,1.98,1.76,1.47,2.35-.89,4.76-.55,7.15-.49,4.4.11,4.51.11,2.7-3.7-1.9-4-2.39-8-.99-12.24.64-1.94,1.28-3.92,1.09-6-.3-3.26-3.01-5.21-5.69-3.8-2.98,1.56-5.99,2.64-9.7,2.29ZM437.88,361.7c0-5.65.1-9.55-.06-13.45-.05-1.25.08-3.41-2.28-2.75-1.61.45-3.84.69-3.05,3.49,1.16,4.1,1.44,8.19.71,12.5-.67,3.93-1.98,7.7-2.55,11.63-.6,4.15-2.7,7.99-2.45,12.32.08,1.38.14,2.16,1.92,1.6,2.91-.93,5.87-1.76,8.87-2.33,1.96-.38,2.17-1.4,1.59-2.86-2.83-7.07-2.91-14.47-2.7-20.15ZM402.69,113.49c-2.14-7.58-4.84-14.85-9.97-20.92-1.33-1.57-3.16-1.1-4.69-.1-3.47,2.27-6.34,5.25-9.31,8.11-.97.93-1.05,1.67.5,2.12,8.27,2.47,15.61,6.9,23.47,10.79ZM310.99,96.57c9.57.34,18.72,1.85,28,2.62-5.42-2.91-8.8-7.44-11.46-12.7-1.93-3.81-5.07-4.49-8.27-1.75-3.68,3.15-6.03,7.28-8.27,11.83ZM464.78,173.2c2.35-2.46,4.37-4.82,5.43-7.68,1.71-4.61,1.21-6.39-2.29-8.85-.84-.59-1.76-1.14-2.39-1.92-3.52-4.39-7.04-4.34-14.07-2,5.06,6.36,9.41,13.13,13.32,20.45ZM480.65,343.06c1.51,5.96,4.03,10.56,7.79,14.54,4.77-3.38,7.76-8.24,12.15-12.9-7.05.25-13.27-.86-19.94-1.64ZM470.27,211.71c2.71-4.23,4.88-7.87,6.44-11.92.86-2.23.04-3.25-1.82-3.93-1.06-.39-2.24-.46-3.29-.86-1.72-.65-2.17-.13-2.05,1.64.31,4.77.47,9.55.72,15.07ZM477.36,243.74c2.04-.93,3.88-1.84,5.05-3.65,1.12-1.73,1.73-3.66.21-5.35-1.57-1.73-3.88-1.71-6.04-1.62-.99.04-.85,1.02-.67,1.59.9,2.88.2,5.97,1.45,9.03ZM334.68,363.09c-6.84,4.16-9.11,10.48-5.9,17.53,1.04-5.97,3.17-11.53,5.9-17.53ZM343.75,99.54c-.11.28-.22.55-.33.83,3.15.36,6.3.71,9.46,1.07-2.48-4.8-6.24-.25-9.13-1.9ZM428.19,131.4c1.52,1.3,2.79,2.69,4.76,3.46-.05-1.74.82-3.55-.98-4.52-1.28-.69-2.54-.04-3.78,1.06Z"/>
      <path class="cls-4" d="M232.5,173.89c8.76-.84,17.59-.98,26.26-2.82,7.52-1.6,12.42-6.06,14.95-13.22,2.26-6.38,3.99-12.89,4.67-19.65.32-3.19-1.16-5.3-4.04-6.42-3.01-1.18-5.89-2.56-8.29-4.77-.59-.54-1.32-1.12-1.12-2.01.24-1.06,1.26-.81,2.01-.84,11.11-.47,18.53-6.53,23.66-15.84,1.11-2.01,2.34-3,4.65-3.27,12.03-1.44,23.98-1.1,35.95.75,12.43,1.93,24.81,4.07,37.56,2.69,6.27-.68,12.1,2.02,17.56,5.09-.23,5.06.41,5.87,5.54,7.12.43.11.98.17,1.25.46,2.33,2.6,4.67,1.49,7.03.11,8.61,4.56,16.39,10.36,24.01,16.35,5.29,4.16,10.68,8.23,15.21,13.28-2.34,3.88-3.21,7.45.69,11.18,2.88,2.75,5.92,3.15,9.12.19,8.33,9.76,12.52,21.06,12.96,33.88.37,10.74,1.42,21.28,5.06,31.65,2.91,8.28,3.01,17.31,2.49,26.16-.04.67-.09,1.48-.48,1.95-3.29,3.97-3.4,8.73-2.91,13.38.45,4.25-.1,8.43-.02,12.64-5.85-2.32-7.78-1.07-7.59,4.95-6.96,2.02-9.25,7.52-10.41,13.89-.94,5.18-1.76,10.38-1.37,15.65.2,2.66-.84,4.26-3.11,5.46-3.06,1.61-5.83,3.6-7.63,6.71-1.05,1.82-1.91,3.7-1.7,5.82.27,2.63-.73,3.95-3.37,4.49-3.9.79-7.73,2.03-11.73,2.23-4.89.25-5.02-.02-4.99-4.83.02-3.53.45-7.06-.37-10.6-1.97-8.45-5.29-11.26-13.98-11.49.12-1.34-1.74-2.05-1.24-3.43,2.07-5.64-.69-9.54-4.63-12.99-3.06-2.67-3.04-2.54.33-4.82,1.79-1.21,3.16-2.74,2.23-5.31-1.12-3.12-4.89-3.73-6.11-6.72-.17-.41-.82-.07-1.19.21-2.09,1.52-4.08.77-5.61-.71-2.93-2.84-5.19-1.31-7.67.63-1.59,1.25-.61,3.02-1.3,4.45-1.42,2.92-1.3,5.43,1.39,8,2.08,1.98,3.4,4.67,7.04,3.91-1.39,2.6-4.19,3.71-4.62,6.56-.26,1.73,1,4.33-.79,4.99-1.76.65-3.15-1.89-4.8-2.87-1.05-.62-1.96-1.63-2.7-2.63-4.35-5.83-7.53-12.27-9.81-19.17-.21-.64-.59-1.24-.2-1.96,1.56-2.81,5.91-3.61,8.58-1.58,1.25.95,2.41,2.37,4.22,1.32.93-.54,1.72-1.52,1.25-2.58-.81-1.81-2.49-1.43-4.11-1.34-.81.05-1.95-.18-2.41-1.04-.54-1.02.41-1.65,1-2.33,1.58-1.81,3.03-3.75,4.75-5.41,2.86-2.74,8.23-2.72,10.85-.13.42.42,1.01.98,1.41.42,1.91-2.64,4.64-1.39,7.01-1.54,6.1-.38,10.51-3.32,11.41-7.84,2.27,2.49,2.26,5.88,3.42,8.8,2.02,5.09,2.52,10.36,1.49,15.82-.97,5.15-1.68,10.36-2.3,15.57-.29,2.4-.22,4.98,2.41,6.29,2.57,1.28,5.13.89,7.48-.69,3.74-2.53,6.64-5.91,9.59-9.27,2.09-2.39,3.65-5.26,6.49-7,4.18-2.56,8.47-4.95,12.32-8.01,1.89.41,3.03-.7,4.05-2.01,4.58-5.85,4.32-11.74-1.32-17.14-5.31-5.09-9.44-10.89-12.18-17.66-2.65-6.57-5.27-13.17-7.57-19.87-7.07-20.58-16.94-39.78-28.89-57.87-4.6-6.97-6.74-13.74-3.8-21.88,1.18-3.28,1.6-6.83.72-10.45-2.28-9.39-14.55-13.45-21.47-11.95-3.53.76-6.88,1.89-8.44,5.63-.81,1.04-1.63,2.08-2.44,3.12-5.37-.06-10.27,1.8-15.23,3.54-4.22,1.49-6.08.02-5.83-4.29.13-2.33-2.07-5.23-4.04-5.31-1.9-.08-4.85,3.27-4.89,5.55-.05,2.57,1.61,3.99,4.53,3.88,3.25-.12,3.79.65,2.54,3.72-.57,1.39-1.31,2.67-2.4,3.73-.62.6-.89,1.75-2.11,1.32-.87-.3-1.08-1.06-1.21-1.9-.58-3.7-2.29-6.26-5.97-7.98-4.49-2.1-10.07-1.02-13.08,3.46-2.39,3.56-1.54,10.93,1.97,13.03,1.94,1.16,3.5,3.84,6.2,3.03,3.49-1.05,7.03-1.75,10.57-2.56-.4,4.19,1.05,7.68,4.36,10.21,3,2.3,6.22,4.28,9.75,5.73,6.49,2.65,12.65,5.52,17.03,11.59,5.62,7.79,11.39,15.43,15.61,24.11-4.49-.42-7.76.83-8.46,4.49-.43,2.21,1.98,4.46,3.99,6.04,2.91,2.28,6.03,1.57,8.69-1.84.71.26,1.03.86,1.33,1.48,3.14,6.54,6.47,13.01,8.26,20.1-1.63.27-3.61-.24-4.35,1.98-4.18.4-6.53,3.59-8.37,6.56-4.23,6.82-11.01,9.76-17.71,12.97-1.25.6-2.61,1.1-3.93.19-2.42-1.67-5.15-1.78-7.93-1.68.6-2.5-1.14-4.34-1.86-6.45-2.86-8.4-9.37-13.16-18.22-13.5-.76-.03-1.8.38-2.2-.48-.5-1.08.66-1.58,1.25-2.18,2.94-2.98,5.13-6.46,6.79-10.26,1.47-3.34,2.27-7.04.08-10.19-1.36-1.97-1.34-3.21-.33-5.13,2.55-4.87,1.63-10.2-2.15-14.24-2.7-2.9-6.02-4.89-9.47-6.74-6.57-3.52-8.37-7.47-7.09-14.58.39-2.15.79-4.74-2.24-5.77-.61-.21-1-.53-.78-1.25.26-.89.7-2.02-.76-2.04-1.16-.02-1.99.63-2.34,2.04-.86,3.48-2.18,4.18-5.6,3.38-1-.23-1.99-.6-3-.69-1.63-.13-3.3-.13-3.78,2-3.12-1.83-5.9-.7-8.66.94-12.45,7.42-26.11,11.4-40.3,13.56-10.34,1.57-21.04,1.68-29.56,9.06-.02-.34-.01-.69-.06-1.03-.47-2.77-2.83-4.93-5.01-4.6-2.36.37-4.44,3.81-3.89,6.47.7,3.43,1.56,3.85,5.58,2.76.44-.12.89-.19,1.34-.28.09,4.99-.81,9.72-3.31,14.14-1.34,2.37-2.5,4.9-3.36,7.48-1.54,4.62-.68,6.86,3.24,9.65.1,1.14.81,2.08,1.76,2.29,3.85.86,2.38,2.99,1.55,5.23-.86,2.31-1.47,4.74.44,6.93-2.01,3.49-1.73,4.51,1.61,6.54.87.53,1.67,1.21,2.42,1.9,5.67,5.26,7.29,12.52,9.57,19.45-2.16-.32-4.57,1.5-6.57-1.08-.59-.76-2.56-.46-3.1,1.06-.4,1.12-1.1,1.76-2.12,2.02-1.39.35-2.32.98-2.13,2.57.09.74.47,1.37,1.19,1.51,1.55.31,2.15-.82,2.84-1.94.85-1.38,4.37-1.65,4.94-.27,1.37,3.35,3.76,3.85,6.84,3.08.19.28.47.54.55.84,3.19,12.39,6.22,24.82,9.6,37.16,1.21,4.42,2.24,8.35-2.05,11.74-1.13.9-1.61,2.61-.58,4.08,1.1,1.57,2.8,1.57,4.36,1.02,2.95-1.02,5.58-2.64,7.92-4.73,1.79-1.59,3.63-3.08,5.82-4.19,5.12-2.58,10.78-2.94,16.2-4.3.33.46.59,1.22,1.01,1.33,2.75.69,5.58.9,8.36,1.52,1.88.42,3.71-2.56,2.82-4.46-.87-1.87-1.07-3.73-.95-5.68.15-2.42-.82-4.43-2.78-5.56-2.87-1.65-3.7-4.35-4.03-7.15-.31-2.57-1.37-3.34-3.84-3.8-4.66-.86-9.87-1.23-10.94-7.64-.3-1.79-.3-2.51,1.61-2.72,5.12-.57,9.74-4.91,15.33-1.98.26.14.68.02,1.02-.05,4.94-1.05,9.6-2.71,14.15-5,5.81-2.92,11.85-5.69,18.67-2.62,1.51.68,3.35.63,5.04.92,2.75,5.5,5.73,10.9,6.64,17.12-1.08-.21-.8-2.03-1.72-1.9-4.28.6-5.72-2.41-7.31-5.36-.66-1.23-1.63-1.22-2.46-.17-1.63,2.06-1.32,8.35.7,10.15.94.84.83,1.41.52,2.33-.35,1.03-.55,1.55-2.05,1.5-2.18-.07-3.12,2.48-1.44,3.87,1.5,1.25,2.71,2.69,4.06,4.04,1.39,1.4,3.06,2.16,4.76.3.71-.78,1.49-.65,2.48-.51,5.44.79,5.99.24,5.18-4.83,1.27.54,1.3,1.83,1.62,2.87,2.01,6.54,3.78,13.16,6,19.62,1.17,3.4.85,5.88-2.11,8.08-1.35,1-2.83,2.45-1.86,4.35.98,1.92,3.05,1.31,4.66,1.04,3.95-.66,7.08-3.1,10.36-5.18,3.11-1.98,6.24-3.87,10.11-3.85-.19,1.86.39,3.62.8,5.39.26,1.15,1.01,2.13,2.13,1.05,1.57-1.52,3.58-1.97,5.42-2.84,2.12-1,3.27-2.39,2.04-4.8,2.81-.72,5.68-1.26,8.08-3.06.79,3.22,3.93,4.39,5.82,6.65-1.4,5.16-2.76,10.31-3.69,15.6-.92,5.23-4.94,8.23-10.26,8.35-1.26.03-2.53-.08-3.78.03-3.76.31-6.73.12-8.47-4.4-2.06-5.35-13.39-7-17.31-.26-3.18,5.46-3.52,5.28-6.85-.01-1.96-3.1-4.03-6.09-6.76-8.61-4.65-4.3-9.76-4.6-14.36-.36-1.73,1.59-3.14,1.99-5.45,1.36-6.14-1.66-11.98-.84-17.23,3.05-1.12.83-2.38,1.25-3.83.38-4.95-2.99-10.25-3.56-15.87-2.29-1.52.34-3.19.02-4.8.01-.07-4.86-.75-5.42-5.02-3.97-.5.17-.87.68-1.35.91-1.61.78-1.87,3.26-2.96,3.61-4.73,1.51-1.62,2.91-.2,4.41-.61,1.26-1.77,1.74-3.02,1.99-5.95,1.19-10.97,4.09-15.58,7.97-4.48,3.77-4.58,3.66-8.72-.43-.4-.4-.71-.88-1.07-1.32.63-1.55,2.32-1.27,3.43-1.97,2.39-1.52,5.1-2.96,4.77-6.36-.24-2.56-.01-5.38-3.53-6.52-4.55-1.47-8.5.18-10.44,4.34-.82,1.75,1.82,2.86.23,4.34-7.16-6.66-12.11-14.88-16.63-23.41,3.85-2.06,4.4-4.18,1.55-6.34-1.41-1.07-3.05-.56-4.62-.33-2.76-5.76-5.27-11.63-6.74-17.87-1.94-8.23-6.77-15.65-7.49-24.12-.85-9.97-2.01-20-.68-30.05,1.19.8.72,2.05.87,3.15.37,2.74,1.78,4.22,4.72,4.28,3.61.08,4.92-2.53,6.26-5.07,1.32-2.5.11-4.8-1.45-6.49-1.35-1.46-3.43-1.1-5.46-.56-1.93.52-3.23,1.75-4.76,2.75.02-9.99,1.96-19.76,3.57-29.54,1.97-11.96,5.23-23.59,9.64-34.9.73-1.89,1.78-2.76,3.61-2.99,6.1-.79,12.13-2.13,18.3-2.43.24,1.46,5.27,6.64,6.23,6.18,2.65-1.27.88-3.82,1.36-5.75-.05-.37-.12-.85-.11-1.3ZM324.84,322.55c.01,1.14-.92,1.47-1.69,1.91-1.29.73-1.52,2.06-.56,2.8,1.62,1.24,3.18,2.75,5.35,3.1.06.01.18-.38.29-.57,1.32-2.49-.44-6.23-3.39-7.24,1.17-1.86-.78-3.07-1.08-4.63-.37-1.88-1.8-3.19-4.09-2.45-2.26.73-4.59,1.75-4.35,4.51.2,2.31,2.05,3.47,4.46,3.25,1.69-.16,3.37-.45,5.06-.68ZM365.81,199.57c-1.93-1.46-4.36-2.38-2.42-4.67,1.53-1.8,2.24-3.75.7-5.54-1.81-2.12-4.4-2.58-7.19-1.93-1.23.28-1.76.56-1.48,2.01.55,2.85-1.82,4.2-3.48,5.77-.97.91-2.14.62-2.82-.7-.35-.69.23-2.13-1.34-1.84-.8.15-1.46.65-1.53,1.62-.08,1.15.34,1.68,1.49,2.27,2.34,1.2,1.96,5.51-.42,6.76-3.8,1.98-4.21,4.14-1.13,7.16,1.89,1.85,4.48,3.08,4.5,6.32,0,.67.81,1.42,1.73,1.43.82.01,1.53-.84,1.26-1.29-2.07-3.51-2.1-7.15-1.14-10.96.08-.32-.73-.83-1.05-1.29-.34-.48-.57-1.09-.06-1.55.6-.54,1.05-.01,1.41.41,1.86,2.14,2.59.94,3.06-1.02.39-1.62,1.27-3.01,3.06-2.37,2.28.83,4.1-.44,6.85-.59ZM431.68,174.24c-.16,1.28.21,2.62,1.1,3.94,1.91,2.85,3.78,5.75,5.43,8.77,1.38,2.52,3.18,3.29,5.6,1.84,2.36-1.42,3.21-3.72,1.78-6.13-.87-1.47-.79-2.76-.03-3.81,1.48-2.05.93-4.24.43-6.17-.51-1.99-1.93-3.65-2.19-5.93-.17-1.48-2.2-2.1-2.92-.31-.62,1.53-1.33,1.22-2.47,1.34-4.18.45-6.71,2.91-6.73,6.46ZM312.43,153.41c.01-3.15-3.05-6.32-6.21-6.45-2.38-.09-7.17,5.01-7.35,7.84-.12,1.75,3.54,5.08,5.62,5.13,4.69.1,7.93-2.56,7.94-6.52ZM206.26,236.15c.09-2.12-.57-3.7-2.71-3.79-1.85-.08-2.63-.92-3.07-2.57-.4-1.47-1.44-1.82-2.95-1.41-3.18.85-3.63,2.06-1.78,4.81.55.82,2.52,2.07.34,2.81-1.11.38-1.68.47-1.36,1.54.29.98,1.27,2.27,2.08,1.8,1.36-.79,1.99-.34,2.95.46,1.38,1.16,3.02,1.11,4.48.23,1.43-.87,2.34-2.19,2.02-3.88ZM208.01,199.9c1.79.25,3.01-.63,3.94-2.35.93-1.73.31-3.02-.74-4.35-1.25-1.58-2.96-2.85-3.45-4.94-.35-1.49-1.44-1.95-2.76-2.08-.86-.09-1.71.23-1.91,1.1-.32,1.4-.97,3.2.46,4.08,1.61.98,1.15,1.81.67,3.06-1.43,3.67-.17,5.53,3.79,5.48ZM221.74,298.89c-.95.32-2.33-1.35-2.9.47-.61,1.97,2.87,6.27,5.01,6.13,1.58-.11,1.79.61,1.61,1.8-.12.78-.45,1.53-.54,2.32-.11,1.08.12,2.42,1.34,2.37,1.6-.07,3.58.09,4.56-1.62.63-1.1.19-2.22-1-2.9-.79-.45-1.51-1.04-2.35-1.38-.9-.36-1.25-.77-1-1.79,1.07-4.21-.16-5.59-4.73-5.4ZM434.44,197.25c.06-2.48-2.5-5.41-4.83-5.39-2.77.02-3.63,1.96-3.88,4.28-.19,1.79,2.31,5.57,3.57,5.58,2.73.04,5.08-2.01,5.14-4.47ZM425.05,182.88c3.07.41,5.28-.5,5.8-3.19.47-2.41-3.36-4.71-7.25-4.56-.98.04-2.67-.86-2.56,1.48.2,3.85,1.86,6.33,4.01,6.27ZM429.56,324.66c1.94-.57,4.57-1.16,5.28-3.49.59-1.95-2.48-4.83-4.34-4.81-2.37.02-5.84,2.75-5.58,4.61.33,2.35,1.98,3.46,4.64,3.69ZM206.65,272.74c-.37-.03-3.86,4.05-3.64,4.45,1.03,1.87,2.41,3.54,4.61,3.95,2.31.43,4.57-1.93,4.61-5.18.04-3.96-3.46-2.55-5.58-3.22ZM424.8,169.81c.13-2.92-.93-4.77-3.95-5.05-2.7-.25-3.72,1.72-4.02,3.72-.32,2.09,3.54,5.26,5.87,4.94,2.03-.27,2.16-2.05,2.1-3.61ZM306.13,142.29c.04-1.57-2.16-3.53-4.02-3.58-1.88-.05-5.44,2.72-5.49,4.38-.08,2.34,1.69,3.11,3.48,3.61,1.13.3,6-3.44,6.03-4.41ZM351.03,122.72c-.11-3.36-1.89-4.88-5.14-4.85-1.77.02-2.93.48-2.88,2.47.08,3.38,1.99,5.14,5.3,5.15,2.15.01,2.87-1.06,2.72-2.77ZM242.66,303.43c-.37-1.41-1.41-2.16-2.47-2.82-.53-.33-1.62-.97-1.79-.31-.94,3.61-3.16,1.27-4.79,1.09-1.91-.21-1.81.52-1.45,1.97,1.16,4.71,4.9,1.01,7.11,2.26,1.05.59,2.01.38,2.67-.69.29-.48.5-1.02.72-1.5ZM346.05,179.73c-.72-1.65-1.46-3.45-3.53-3.69-1.68-.19-4.02,2.78-3.88,4.52.18,2.42,2.27,2.55,3.76,2.61,1.98.09,3.28-1.32,3.65-3.44ZM370.44,346.73c.76.73-.16,3.73,1.5,3.52,1.65-.21,4.23-1.57,4.41-4.02.09-1.31-.64-3.22-2.59-2.78-1.37.31-3.8-.11-3.32,3.28Z"/>
      <path class="cls-2" d="M22.74,159.08c3.17-5.36,7.35-9.93,11.57-14.44,9.25-9.89,18.38-19.9,29.37-27.96,3.51-2.58,7.14-4.97,11.1-6.79,1.94-.89,3.03-2.16,3.32-4.36,3.89-29.02,17.27-52.81,39.09-72.27,15.36-13.7,33.17-22.16,53.31-24.65,41.52-5.14,77.18,5.95,103.11,40.64,8.99,12.03,14.77,25.53,14.65,40.92-.07,8.93-3.73,16.41-10.27,22.45-3.56,3.28-8.1,4-12.67,4.57-1.63.2-1.88-.6-1.84-1.99.06-2.31-1.28-3.82-3.5-3.85-2.28-.03-3.27,1.55-3.52,3.84-1.27,11.55,1.81,17.2,12.4,22.16,1.71.8,2.24,1.44,1.83,3.54-.97,4.94-2.28,9.75-3.87,14.51-1.65,4.93-5.1,7.65-10.11,8.69-8.23,1.71-16.62,1.85-24.93,2.58-21.61,1.89-42.68,6.21-63.32,12.91-29.14,9.46-58.4,18.56-87.59,27.9-2.34.75-3.97.83-5.45-1.51-1.23-1.95-3.55-2.83-6.04-4.56,7.07-1.8,12.55-6.26,19.51-7.2,3.2-.43,6-2.18,8.79-3.73,17.65-9.78,36.84-15.09,56.35-19.5,18.41-4.17,37.12-6.33,55.77-9.04,10.62-1.54,21.14-3.76,30.74-8.9,4.7-2.51,9.44-5.29,9.19-11.64-.24-6-4.89-8.39-9.5-10.6-2.53-1.21-5.17-2.18-8.27-3.48,6.37-1.89,11.34-4.99,15.5-9.36,1.54-1.62,1.76-3.56.13-5.22-1.53-1.55-3.52-1.45-4.94.05-6.51,6.93-15.21,8.8-23.96,9.78-15.18,1.69-25.15,9.95-31.63,23.19-1.45,2.97-3.13,5.9-4.03,9.05-.93,3.23-2.91,4-5.85,4.48-22.89,3.73-45.51,8.57-67.13,17.25-6.16,2.47-12.1,5.43-17.86,8.71-3.19,1.82-6.12,1.84-9.46.49-5.91-2.39-11.8-4.78-18.33-5.26-8.67-.64-16.53,1.36-24.08,6.3-.43-4.14.17-8.1-.81-11.95-1.54-6.07-4.39-11.26-9.38-15.14-2.21-1.72-4.5-2.29-6.73.02-.24-.21-.45-.42-.66-.63ZM172.88,128.34c13.47-.5,25.61-5.41,34.98-16.38,13.15-15.37,9.66-36.63-7.69-46.88-20.2-11.93-50.34-3-60.77,18.01-6.47,13.02-3.71,26.83,7.35,36.35,7.28,6.26,15.98,8.6,26.13,8.9ZM182.91,36.41c-4.48-.05-8.94.24-13.35.97-3.71.61-7.39,1.42-11.01,2.42-2.18.6-3.64,2.19-2.77,4.68.77,2.21,2.6,2.78,4.75,2.19,5.19-1.41,10.51-2,15.81-2.8,19.27-2.88,38.76,6.5,47.98,23.6,5.08,9.42,8.31,19.43,8.91,30.24.41,7.39,6.87,11.75,13.2,8.79,6.39-2.98,10.11-8.38,11.59-15.26.48-2.22.13-4.34-2.44-4.9-2.69-.59-3.91,1.14-4.52,3.55-.86,3.42-2.7,6.31-5.34,8.62-2.95,2.58-4.77,2.06-5.17-1.73-.83-7.88-2.64-15.47-5.31-22.93-8.46-23.54-28.02-37.61-52.33-37.44ZM89.54,175.8c4.27-.05,8.31-1.21,12.34-2.51,7.47-2.42,14.49-6,22.14-8.01,8.46-2.23,17.1-2.91,25.73-3.83,2.38-.26,4.11-1.38,3.91-3.85-.2-2.44-2.02-3.32-4.45-3.22-6.99.28-13.9,1.23-20.78,2.43-9.29,1.62-17.84,5.47-26.57,8.8-4.49,1.71-9.01,3.17-13.93,2.78-2.77-.22-3.76-1.24-2.43-3.96,1-2.04,1.74-4.21,2.68-6.29,3.71-8.18,4.32-16.78,3.39-25.54-.75-7.08-.24-13.91,2.91-20.39,1.11-2.28,1.07-4.34-1.33-5.59-2.39-1.25-3.92.33-5.04,2.21-.75,1.26-1.29,2.67-1.79,4.05-2.82,7.75-2.3,15.78-1.81,23.76.38,6.15-.28,12.07-2.68,17.79-1.41,3.36-2.82,6.73-3.92,10.19-1.36,4.26.52,7.99,4.62,9.81,2.22,1.01,4.56,1.49,7.01,1.37ZM57.73,164.04c5.12.14,8.41-.82,10.91-3.4,4.86-5.03,8.21-11.01,9.92-17.77,1.18-4.64-2.06-8.34-6.89-8.55-3.21-.13-6.18.71-8.84,2.32-5.38,3.26-10.95,6.12-16.62,8.82-2.6,1.24-4.8,3.05-6.21,5.71-1.42,2.67-.95,5,1.39,6.66,5.33,3.78,11.32,5.86,16.34,6.21Z"/>
      <path class="cls-5" d="M323.91,273.04c-1.69-.29-3.53-.24-5.04-.92-6.82-3.07-12.86-.3-18.67,2.62-4.55,2.29-9.22,3.95-14.15,5-.33.07-.76.18-1.02.05-5.59-2.93-10.21,1.42-15.33,1.98-1.92.21-1.91.93-1.61,2.72,1.07,6.41,6.28,6.78,10.94,7.64,2.48.45,3.54,1.23,3.84,3.8.33,2.8,1.16,5.5,4.03,7.15,1.97,1.13,2.94,3.14,2.78,5.56-.12,1.95.08,3.81.95,5.68.89,1.91-.94,4.88-2.82,4.46-2.78-.62-5.62-.83-8.36-1.52-.42-.11-.68-.87-1.01-1.32,2.36-.96,5.08-1.91,5.06-4.92-.02-2.98-2.91-3.48-5.1-4.39-.63-.26-1.29-.48-1.95-.68-2.46-.77-4.65-1.98-6.29-4.02-3.26-4.06-5.87-8.48-7.42-13.47-3.82-12.37-7.65-24.73-11.42-37.12-.56-1.85-.88-3.76-1.06-5.72-.38-4.1,1.76-7.23,3.43-10.61.84-1.71,1.89-3.8.13-5.42-1.71-1.58-3.59-.61-5.35.45-4.32,2.6-8.71,5.04-13.62,6.48-4.52,1.33-9.36,1.06-13.74,2.95-1.9-2.2-1.3-4.62-.44-6.93.83-2.23,2.3-4.37-1.55-5.23-.95-.21-1.66-1.15-1.76-2.29,2.97.32,5.43-.92,7.51-2.78,4.95-4.43,9.45-9.45,14.73-13.43,12.12-9.13,26.38-11.5,41.16-11.86,7.81-.19,12.3,2.6,14.12,11.78.63,3.15,2.19,4.57,5.39,4.45,8.01-.32,15.97-.73,23.57-3.81,3.58-1.45,6.33-3.61,8.23-6.92,2.18-3.8,1.62-5.53-2.59-6.41-7.61-1.59-12.8-5.85-16.59-12.64-3.27-5.85-6.46-11.88-11.52-16.54.48-2.13,2.15-2.13,3.78-2,1.01.08,2,.45,3,.69,3.42.8,4.74.1,5.6-3.38.35-1.41,1.18-2.06,2.34-2.04,1.46.02,1.03,1.15.76,2.04-.21.71.17,1.04.78,1.25,3.03,1.02,2.62,3.62,2.24,5.77-1.29,7.11.52,11.06,7.09,14.58,3.45,1.84,6.76,3.84,9.47,6.74,3.78,4.05,4.69,9.38,2.15,14.24-1,1.92-1.03,3.17.33,5.13,2.19,3.15,1.39,6.84-.08,10.19-1.66,3.79-3.85,7.28-6.79,10.26-.59.6-1.75,1.09-1.25,2.18.4.86,1.44.45,2.2.48,8.85.34,15.36,5.1,18.22,13.5.72,2.11,2.46,3.95,1.86,6.45-5.19,2.23-5.97,4.72-3.11,9.59,2.12,3.61,4.67,6.94,4.6,11.57-.04,2.77,2.45,3.72,5.03,2.45,1.43-.7,2.34-1.86,2.77-3.35,1.41-4.82,5.14-7.34,9.24-9.59,6.17-3.37,12.32-6.48,19.44-2.52.47.26,1.12.22,1.69.27,2.87.25,5.6-.04,7.29-2.75,1.63-2.62.11-4.83-1.22-6.97-2.24-3.61-4.56-7.23-4.33-11.68.14-2.74-.87-4.35-3.46-5.06.74-2.22,2.72-1.72,4.35-1.98,3.41,9,7.5,17.79,8.87,27.45-.9,4.53-5.31,7.46-11.41,7.84-2.37.15-5.1-1.1-7.01,1.54-.41.56-.99,0-1.41-.42-2.62-2.59-7.99-2.62-10.85.13-1.73,1.66-3.18,3.6-4.75,5.41-.59.68-1.54,1.31-1,2.33.46.86,1.59,1.09,2.41,1.04,1.62-.1,3.3-.48,4.11,1.34.47,1.06-.32,2.05-1.25,2.58-1.81,1.05-2.97-.37-4.22-1.32-2.67-2.04-7.02-1.24-8.58,1.58-.4.71-.01,1.31.2,1.96,2.28,6.9,5.46,13.33,9.81,19.17.75,1,1.65,2.01,2.7,2.63,1.65.98,3.04,3.52,4.8,2.87,1.79-.66.53-3.26.79-4.99.43-2.85,3.23-3.97,4.62-6.56-3.64.76-4.96-1.93-7.04-3.91-2.7-2.57-2.81-5.08-1.39-8,.69-1.43-.28-3.21,1.3-4.45,2.48-1.94,4.74-3.47,7.67-.63,1.54,1.49,3.52,2.23,5.61.71.38-.27,1.03-.61,1.19-.21,1.22,2.99,4.98,3.6,6.11,6.72.93,2.58-.44,4.11-2.23,5.31-3.37,2.28-3.39,2.15-.33,4.82,3.94,3.45,6.7,7.35,4.63,12.99-.51,1.38,1.36,2.09,1.24,3.43-7.1,2.54-10.64,8.38-13.68,14.69-1.89-2.26-5.03-3.42-5.82-6.65,1.22-2.36.15-4.02-1.82-5.15-1.68-.96-3.51-1.7-5.33-2.39-4.48-1.71-7.69-4.81-10.29-8.75-2.22-3.37-3.95-6.95-5.35-10.7-3.43-9.18-8.04-17.88-9.96-27.69-1.25-6.39-1.66-12.9-3.38-19.21-2.15-7.91-6.22-11.1-14.4-10.6-7.12.44-12.82,4.14-17.98,8.59-7.98,6.89-15.67,14.12-24.1,20.48-1.55,1.17-3.04,2.43-4.5,3.73-.98.87-1.85,2.04-.89,3.29.82,1.08,2.22,1.13,3.47.6,1.37-.58,2.73-1.19,4-1.94,4.85-2.86,9.83-5.38,15.36-6.74,8.25-2.11,14.11.11,18.63,7.2ZM299.13,217.47c-2.69.05-5.5.51-7.66-1.7-2.08-2.12-4.47-3.95-6.1-6.51-1.46-2.29-3.43-3.24-6.31-3.3-2.4-.05-2.71,2.57-3.42,2.59-4.25.13-6.39,4.39-10.39,4.89-.92.11-1.38.91-1.89-.47-.65-1.74-2.45-3.06-3.86-2.96-1.44.1-1.71,2.46-2.09,3.91-.57,2.15-1.96,3.06-3.9,3.16-2.28.11-4.62.16-6.84-.24-1.43-.26-2.34-.12-3.38.82-2.54,2.3-4.99,4.76-7.81,6.66-3.68,2.48-3.79,2.48-.38,5.48,1.06.93,1.9,1.03,3.04.36,2.07-1.2,4.15-2.37,6.17-3.65,3.48-2.21,7.25-4.73,11.69-1.79,1.53,1.01,2.53.71,3.51-1.11.89-1.68,2.16-3.73,4.81-2.49,2.17,1.02,3.17,3.56,5.57,4.32.23.07.4.83.33,1.22-.34,1.81-4.97,4.98-6.55,4.07-3.34-1.92-2.92.17-2.94,2.23-.01,1.01-.15,2.06-.44,3.03-1.8,6.19-2.84,12.45-2.32,18.93.13,1.61-.01,3.24,1.58,4.28.01,1.12-.43,2.44.77,3.16,4.76,2.85,4.85,6.99,3.47,11.67-.61,2.08.5,2.88,2.54,3.01,3.62.23,6-2,8.44-4.06,10.41-8.83,20.63-17.85,30.24-27.59,8.06-8.16,17.08-15.34,25.06-23.6,2.18-2.25,3.99-4.8,4.3-8.04.35-3.6-1.58-4.96-4.82-3.44-2.07.98-4,2.27-6.08,3.22-5.36,2.46-10.75,4.67-16.86,2.53-2.68-.93-5.23-.31-7.48,1.41Z"/>
      <path class="cls-2" d="M224.24,360.08c-7.88.85-15.23,1.66-22.58,2.42-2.69.28-5.15,1.04-7.06,3.03-6.19,6.43-13.7,10.98-21.53,15.04-7.33,3.81-14.56,4.12-21.5-1.09-3.56-2.67-5.12-6.35-5.23-10.64-.1-3.65.1-7.28.51-10.95.82-7.31-1.48-13.93-5.89-19.82-5.62-7.51-5.11-14.48,1.26-21.55,5.18-5.75,11.38-5.79,18.21-4.01,6.16,1.61,11.3,4.9,15.67,9.29,6.11,6.14,13.45,7.87,21.69,6.82,2.13-.27,3.26.27,4.31,2.2,5.2,9.48,11.5,18.18,19.2,25.82.96.96,1.77,2.07,2.94,3.44Z"/>
      <path class="cls-2" d="M450.61,323.34c4.65.91,5.25.46,5.19-3.63-.09-6.68,1.29-13.13,3.07-19.5.45-1.59,1.21-3.17,2.77-4.56,1.63,3.66,2.02,7.46,3.1,11.05,1.18,3.92,2.5,7.76,4.65,11.28,1.04,1.7,2.21,3.35,4.07,4.04,2.82,1.05,2.87,2.55,1.76,5.05-6.14,13.84-2.37,25.99,6.74,37.09,1.89,2.3,3.91,4.53,6.09,6.54,1.39,1.28,1.41,1.72-.15,2.93-6.18,4.81-13.39,7.08-20.81,8.84-4.43,1.05-8.85,2.08-13.47,2.17-2.07.04-3.07-.78-3.95-2.43-2.46-4.65-3.11-9.69-3.51-14.83-.49-6.44.78-12.79.73-19.21-.03-4.45-.91-8.64-3.28-12.37-.91-1.42-.7-2.27.4-3.13,1.34-1.05,2.65-2.46,4.2-2.88,3.62-.97,4.36-2.87,2.4-6.45Z"/>
      <path class="cls-2" d="M23.37,159.71c-.85,1.95-.42,3.67,1.22,4.91,8.34,6.29,9.6,14.76,7.5,24.24-.49,2.21-1.27,4.37-1.97,6.53-.68,2.08-1.07,4.22,1.13,5.52,2.11,1.24,3.94.2,5.49-1.43,5.22-5.47,11.08-9.81,18.74-11.4,6.93-1.44,13.36-.05,20.01,2.63-1.16,1.43-2.73,1.71-4.09,2.27-11.09,4.54-22.24,8.87-31.77,16.51-9.92,7.95-15.32,18.26-17.4,30.57-.6,3.57-1.13,7.16-2.4,10.64-1.58-.33-1.98-1.65-2.48-2.71-13.84-29.7-14.31-58.82,3.85-87.1.42-.66,1.02-1.21,1.54-1.81.21.21.42.42.63.63Z"/>
      <path class="cls-2" d="M404.8,332.38c.49,2.86-.86,5.82-.72,8.94.27,6.22,3.71,9.74,9.88,9.58,2.72-.07,5.48-.29,8.13-.89,3.18-.73,3.21.99,2.99,3.17-.56,5.68-2.68,11-3.83,16.55-1.21,5.84-2.07,11.72-1.85,17.65.12,3.4-1.37,4.93-4.28,5.35-3.53.5-6.86,1.53-10.07,2.98-2.32,1.05-4.47.65-6.6-.3-3.95-1.75-7.5-4.33-11.7-5.56-1-.29-1.42-1.05-1.2-2.13,1.46-7.3.41-14.6-.12-21.88-.45-6.21.74-11.6,6.53-15.09,1.56-.95,1.14-2.63,1.11-4.07-.15-6.87,1.75-13.25,4.68-19.35.89-1.85,2.19-4.61,4.24-4.06,2.03.54,2.78,3.35,2.81,5.75.01,1.03,0,2.06,0,3.36Z"/>
      <path class="cls-2" d="M480.25,269.45c1.9,3.44,3.41,6.08,4.83,8.77,5.33,10.05,10.83,20.02,15.86,30.22,3.09,6.27,4.69,13.1,3.87,20.18-.77,6.66-4.58,9.22-11.18,8.28-2.93-.42-4.82-1.25-5.34-4.63-.9-5.85-4.04-10.83-7.21-15.71-3.67-5.64-5.73-11.82-6.55-18.44-.3-2.46.04-4.95,2.14-6.53,2.27-1.7,2.64-3.82,2.31-6.36-.67-5.05-.45-10.03,1.27-15.78Z"/>
      <path class="cls-2" d="M370.65,360.97c-.96,3.92-3.08,6.52-4.81,9.29-2.07,3.31-2.32,6.51-.39,9.96.88,1.57,1.64,3.27,2.08,5,1.3,5.11-.69,8-5.97,8.23-3.86.17-7.77.51-11.63-.45-2.64-.66-5.2.48-7.79.76-3.72.41-5.47-.72-6.39-4.32-2.24-8.76,1.77-15.73,6.45-22.5,1.23-1.78,2.52-3.57,4.64-4.44,1.43-.59,1.62-1.75,1.55-3.09-.09-1.7-.21-3.37.43-5.07.44-1.15.71-2.21,2.17-2.16,1.45.05,1.78,1.19,2.09,2.31.09.33.1.68.19,1.01,2.12,7.61,4.55,7.56,11.71,6.72,1.77-.21,3.49-.76,5.67-1.25Z"/>
      <path class="cls-2" d="M303.37,348.05c1.88-.17,3.55.65,5.31,1.09,4.24,1.07,8.25.86,11.25-2.78,1.93-2.34,3.44-1.54,4.93.25,2.06,2.49,2.97,5.57,4.16,8.51.56,1.37-.37,1.81-1.13,2.46-8.25,7.02-10.63,15.56-6.93,25.69.88,2.41.04,3.27-2.12,3.32-3.1.06-6.12-.55-8.96-1.8-3.26-1.43-6.54-2.36-10.18-2.44-5.19-.11-5.95-1.54-4.07-6.32,2.76-7,4.18-14.09,2.39-21.65-1.07-4.53.7-6.35,5.35-6.33Z"/>
      <path class="cls-2" d="M189.79,157.4c2.83-7.19,6-13.35,10.63-18.67,4.86-5.57,10.61-8.07,18.27-6.6,6.98,1.34,13.86,2.75,20.19,6.01,4.84,2.49,4.88,4.47.22,7.35-6.49,4.01-13.75,5.96-21.12,7.57-9.14,2-18.43,2.95-28.19,4.34Z"/>
      <path class="cls-2" d="M29.16,243.72c1.61-16.76,10.61-27.91,25.04-34.94,4.43-2.16,9.34-2.21,13.84.39,4.35,2.52,4.53,6.78-.08,8.39-12.41,4.33-22.1,12.11-30.62,21.79-2.01,2.29-4.69,4.04-8.18,4.37Z"/>
      <path class="cls-2" d="M222.69,386.37c3.1-6.3,6.36-12.17,14.16-13.47,4.71-.79,7.9-3.65,10.21-7.78,1.61-2.87,3.53-6.42,7.25-5.89,3.85.55,4.02,4.85,4.87,7.85.82,2.9,2.64,6.55,1.22,8.85-1.58,2.56-5.6.64-8.53.97-4.75.54-9.06,1.94-13.05,4.56-5.38,3.53-11.23,5.27-16.13,4.91Z"/>
      <path class="cls-2" d="M270.11,352.18c3.71.35,6.72-.73,9.7-2.29,2.68-1.41,5.4.53,5.69,3.8.19,2.08-.45,4.07-1.09,6-1.4,4.24-.9,8.24.99,12.24,1.81,3.81,1.7,3.81-2.7,3.7-2.39-.06-4.81-.4-7.15.49-1.33.51-1.85-.02-1.76-1.47.47-7.62-.93-14.96-3.68-22.47Z"/>
      <path class="cls-2" d="M437.88,361.7c-.21,5.68-.14,13.07,2.69,20.14.59,1.46.37,2.48-1.59,2.86-3,.58-5.96,1.4-8.87,2.33-1.78.57-1.84-.22-1.92-1.6-.25-4.33,1.85-8.17,2.45-12.32.57-3.93,1.88-7.7,2.55-11.63.74-4.3.45-8.39-.71-12.5-.79-2.79,1.44-3.04,3.05-3.49,2.37-.66,2.23,1.5,2.28,2.75.18,3.91.07,7.81.07,13.46Z"/>
      <path class="cls-2" d="M402.69,113.49c-7.86-3.9-15.2-8.33-23.47-10.78-1.54-.46-1.46-1.19-.5-2.12,2.96-2.86,5.83-5.84,9.31-8.11,1.53-1,3.36-1.47,4.69.1,5.13,6.07,7.83,13.34,9.97,20.91Z"/>
      <path class="cls-2" d="M310.99,96.57c2.25-4.54,4.6-8.67,8.27-11.82,3.2-2.75,6.34-2.07,8.27,1.75,2.66,5.26,6.05,9.78,11.46,12.7-9.28-.79-18.43-2.29-28-2.63Z"/>
      <path class="cls-2" d="M464.78,173.2c-3.91-7.32-8.26-14.09-13.32-20.45,7.03-2.34,10.55-2.39,14.07,2,.62.78,1.55,1.33,2.39,1.92,3.5,2.46,4,4.24,2.29,8.85-1.06,2.86-3.09,5.22-5.43,7.68Z"/>
      <path class="cls-5" d="M224.18,348.74c1.59-1.48-1.04-2.6-.23-4.34,1.94-4.16,5.9-5.81,10.44-4.34,3.52,1.14,3.28,3.96,3.53,6.52.32,3.4-2.38,4.84-4.77,6.36-1.11.71-2.8.42-3.43,1.97-1.84-2.05-3.69-4.11-5.54-6.17Z"/>
      <path class="cls-2" d="M480.65,343.06c6.67.78,12.88,1.89,19.93,1.64-4.39,4.67-7.38,9.52-12.15,12.9-3.75-3.97-6.27-8.58-7.78-14.54Z"/>
      <path class="cls-5" d="M189.74,244.68c1.53-1,2.84-2.24,4.76-2.75,2.03-.54,4.11-.91,5.46.56,1.56,1.69,2.77,3.99,1.45,6.49-1.35,2.54-2.65,5.15-6.26,5.07-2.94-.06-4.35-1.54-4.72-4.28-.15-1.09.32-2.34-.87-3.15.06-.64.12-1.29.18-1.94Z"/>
      <path class="cls-5" d="M449.13,162.25c-3.2,2.96-6.24,2.56-9.12-.19-3.9-3.73-3.03-7.3-.69-11.18,3.83,3.31,7.35,6.88,9.81,11.37Z"/>
      <path class="cls-2" d="M470.27,211.71c-.26-5.51-.42-10.29-.73-15.07-.12-1.77.33-2.28,2.05-1.64,1.06.4,2.23.47,3.29.86,1.86.68,2.68,1.69,1.82,3.93-1.54,4.04-3.72,7.68-6.43,11.92Z"/>
      <path class="cls-2" d="M477.36,243.74c-1.25-3.06-.55-6.16-1.44-9.02-.18-.58-.32-1.55.67-1.59,2.16-.09,4.48-.12,6.04,1.62,1.52,1.68.91,3.61-.21,5.35-1.18,1.8-3.02,2.71-5.06,3.64Z"/>
      <path class="cls-5" d="M400.1,121.25c-2.36,1.38-4.7,2.49-7.03-.11-.26-.29-.81-.35-1.25-.46-5.14-1.25-5.77-2.06-5.54-7.12,4.88,2.09,9.49,4.64,13.82,7.69Z"/>
      <path class="cls-5" d="M258.11,346.71c-1.42-1.51-4.53-2.9.2-4.41,1.09-.35,1.35-2.83,2.96-3.61.49-.24.86-.75,1.35-.91,4.27-1.45,4.95-.89,5.02,3.97-3.84.38-7.5,1.1-9.53,4.96Z"/>
      <path class="cls-2" d="M334.68,363.09c-2.73,6-4.85,11.56-5.9,17.53-3.21-7.05-.94-13.38,5.9-17.53Z"/>
      <path class="cls-5" d="M458.63,286.87c-.19-6.02,1.74-7.27,7.59-4.95.01.68-.03,1.37.05,2.04.31,2.55-.29,3.77-3.24,2.85-1.33-.42-2.92,0-4.4.06Z"/>
      <path class="cls-2" d="M375.96,383.19c-.31-.6-.6-1.21-.94-1.8q-3.51-6,1.7-12.54v14.31c-.26,0-.51.02-.76.03Z"/>
      <path class="cls-5" d="M232.5,173.89c-.01.45.06.93-.04,1.36-.48,1.93,1.29,4.48-1.36,5.75-.96.46-5.99-4.72-6.23-6.18,2.54-.31,5.08-.62,7.63-.93Z"/>
      <path class="cls-1" d="M375.96,383.19c.25-.01.51-.02.76-.03.54,4.37.96,8.76,3.13,12.92-2.46.27-4.56.65-6.54-.85,2.65-3.65,4.32-7.5,2.65-12.04Z"/>
      <path class="cls-5" d="M204.48,318.66c1.57-.22,3.21-.74,4.62.33,2.85,2.16,2.3,4.28-1.55,6.34-1.63-1.94-2.46-4.25-3.07-6.67Z"/>
      <path class="cls-1" d="M343.75,99.54c2.9,1.65,6.65-2.89,9.12,1.9-3.15-.36-6.3-.71-9.46-1.07.11-.28.23-.56.34-.83Z"/>
      <path class="cls-2" d="M428.19,131.4c1.24-1.09,2.5-1.75,3.78-1.06,1.8.97.94,2.78.98,4.52-1.96-.77-3.23-2.16-4.76-3.46Z"/>
      <path class="cls-1" d="M404.25,260.32c-1.38-9.66-5.46-18.45-8.87-27.45-1.79-7.1-5.12-13.56-8.26-20.11-.3-.62-.62-1.22-1.33-1.48-.66-3.25-2.39-5.99-4.21-8.69-4.21-8.68-9.99-16.32-15.61-24.11-4.38-6.08-10.54-8.94-17.03-11.59-3.53-1.44-6.75-3.43-9.75-5.73-3.3-2.53-4.76-6.02-4.35-10.21,1.06-2.82,3.13-4.67,5.69-6.14,4.21-2.42,8.94-2.65,13.56-3.29,7.6-1.05,8.72-2.12,9.71-9.78.81-1.04,1.63-2.08,2.44-3.12,5.6-1.33,10.39.93,15.04,3.53,5.06,2.82,7.18,7.05,5.16,12.59-3.35,9.2-1.82,18.01,3.6,26.22,5.74,8.7,11.05,17.67,15.63,27.06,7.79,15.97,12.9,33.03,20.36,49.12,4,8.62,8.53,16.95,16.93,22.45,4.71,3.08,5.22,7.46,2.18,12.23-3.85,3.06-8.14,5.45-12.32,8.01-2.84,1.74-4.39,4.61-6.49,7-2.95,3.36-5.85,6.74-9.59,9.27-2.35,1.59-4.91,1.98-7.48.69-2.63-1.31-2.7-3.9-2.41-6.29.62-5.21,1.34-10.41,2.3-15.57,1.03-5.46.53-10.72-1.49-15.82-1.15-2.91-1.14-6.3-3.41-8.79Z"/>
      <path class="cls-1" d="M301.4,166.83c5.06,4.66,8.26,10.69,11.52,16.54,3.79,6.79,8.98,11.05,16.59,12.64,4.21.88,4.77,2.62,2.59,6.41-1.9,3.31-4.64,5.47-8.23,6.92-7.6,3.08-15.56,3.49-23.57,3.81-3.2.13-4.76-1.3-5.39-4.45-1.82-9.18-6.31-11.98-14.12-11.78-14.78.36-29.04,2.73-41.16,11.86-5.28,3.98-9.78,9-14.73,13.43-2.08,1.86-4.55,3.1-7.51,2.78-3.91-2.8-4.78-5.04-3.23-9.65.86-2.58,2.02-5.11,3.36-7.48,2.5-4.42,3.4-9.15,3.31-14.14.69-1.11,1.37-2.21,2.06-3.32,8.52-7.38,19.22-7.49,29.56-9.06,14.19-2.16,27.85-6.14,40.3-13.56,2.75-1.65,5.53-2.77,8.65-.95Z"/>
      <path class="cls-1" d="M323.91,273.04c-4.53-7.09-10.39-9.31-18.59-7.28-5.53,1.37-10.51,3.88-15.36,6.74-1.27.75-2.64,1.37-4,1.94-1.25.53-2.65.47-3.47-.6-.95-1.24-.09-2.41.89-3.29,1.46-1.29,2.94-2.55,4.5-3.73,8.43-6.37,16.12-13.6,24.1-20.48,5.16-4.45,10.86-8.15,17.98-8.59,8.17-.51,12.24,2.69,14.4,10.6,1.72,6.31,2.13,12.83,3.38,19.21,1.92,9.82,6.53,18.51,9.96,27.69,1.4,3.76,3.13,7.34,5.35,10.7,2.6,3.94,5.81,7.04,10.29,8.75,1.82.69,3.64,1.43,5.33,2.39,1.98,1.13,3.04,2.79,1.82,5.15-2.4,1.79-5.28,2.34-8.09,3.06-3.52-.1-7,.15-10.38,1.2-3.87-.03-6.99,1.86-10.11,3.85-3.27,2.08-6.41,4.52-10.36,5.18-1.6.27-3.68.88-4.66-1.04-.96-1.89.52-3.35,1.86-4.35,2.96-2.19,3.28-4.67,2.11-8.08-2.23-6.46-3.99-13.08-6-19.62-.32-1.05-.35-2.33-1.62-2.87-.05-.38-.1-.77-.14-1.15-.23-1.68-.2-3.44-1.54-4.76.32-1.36-.54-2.38-1.02-3.51-.89-6.2-3.88-11.61-6.63-17.11Z"/>
      <path class="cls-1" d="M221.13,239.45c4.38-1.89,9.22-1.62,13.74-2.95,4.9-1.44,9.3-3.88,13.62-6.48,1.76-1.06,3.64-2.04,5.35-.45,1.76,1.63.71,3.72-.13,5.42-1.67,3.38-3.81,6.52-3.43,10.61.18,1.96.5,3.88,1.06,5.72,3.76,12.39,7.59,24.75,11.42,37.12,1.54,5,4.16,9.42,7.42,13.47,1.64,2.04,3.83,3.25,6.29,4.02.66.21,1.31.42,1.95.68,2.19.91,5.08,1.42,5.1,4.39.02,3.01-2.7,3.96-5.06,4.92-5.42,1.36-11.08,1.72-16.2,4.3-2.19,1.11-4.03,2.6-5.82,4.19-2.35,2.09-4.98,3.71-7.92,4.73-1.56.54-3.26.54-4.36-1.02-1.03-1.47-.55-3.18.58-4.08,4.29-3.39,3.26-7.33,2.05-11.74-3.38-12.34-6.41-24.77-9.6-37.16-.08-.31-.36-.56-.55-.84.02-2.5-1.3-4.63-1.89-6.96-2.28-6.93-3.9-14.2-9.57-19.45-.75-.7-1.55-1.38-2.42-1.9-3.36-2.03-3.64-3.06-1.63-6.54Z"/>
      <path class="cls-5" d="M445.15,281.83c3.04-4.78,2.54-9.15-2.18-12.23-8.4-5.5-12.93-13.82-16.93-22.45-7.46-16.08-12.57-33.15-20.36-49.12-4.58-9.39-9.89-18.36-15.63-27.06-5.42-8.22-6.96-17.02-3.6-26.22,2.02-5.55-.1-9.77-5.16-12.59-4.65-2.6-9.44-4.86-15.04-3.53,1.56-3.75,4.91-4.87,8.44-5.63,6.92-1.5,19.19,2.56,21.47,11.95.88,3.62.47,7.17-.72,10.45-2.93,8.13-.79,14.91,3.8,21.88,11.95,18.1,21.82,37.3,28.89,57.87,2.3,6.7,4.92,13.3,7.57,19.87,2.73,6.77,6.86,12.57,12.18,17.66,5.64,5.41,5.9,11.3,1.32,17.14-1.02,1.3-2.17,2.42-4.05,2.01Z"/>
      <path class="cls-1" d="M391.03,234.85c2.59.71,3.6,2.32,3.46,5.06-.23,4.45,2.09,8.07,4.33,11.68,1.33,2.14,2.85,4.35,1.22,6.97-1.69,2.71-4.42,3-7.29,2.75-.57-.05-1.22-.01-1.69-.27-7.12-3.96-13.27-.85-19.44,2.52-4.1,2.24-7.83,4.77-9.24,9.59-.44,1.49-1.35,2.65-2.77,3.35-2.58,1.27-5.07.32-5.03-2.45.07-4.63-2.47-7.97-4.6-11.57-2.87-4.87-2.08-7.36,3.11-9.59,2.78-.09,5.51.01,7.93,1.68,1.32.91,2.68.41,3.93-.19,6.7-3.21,13.48-6.15,17.71-12.97,1.83-2.97,4.19-6.17,8.37-6.56Z"/>
      <path class="cls-5" d="M363.8,131.75c-.98,7.65-2.1,8.73-9.71,9.78-4.62.64-9.35.87-13.56,3.29-2.56,1.47-4.62,3.32-5.69,6.14-3.53.81-7.08,1.51-10.57,2.56-2.7.82-4.27-1.87-6.2-3.03-3.51-2.1-4.36-9.47-1.97-13.03,3.01-4.48,8.59-5.56,13.08-3.46,3.68,1.72,5.39,4.28,5.97,7.98.13.84.35,1.6,1.21,1.9,1.22.43,1.49-.72,2.11-1.32,1.09-1.07,1.83-2.34,2.4-3.73,1.25-3.07.72-3.84-2.54-3.72-2.92.11-4.58-1.31-4.53-3.88.04-2.28,2.99-5.62,4.89-5.55,1.97.08,4.17,2.97,4.04,5.31-.24,4.3,1.61,5.78,5.83,4.29,4.97-1.74,9.87-3.6,15.24-3.53Z"/>
      <path class="cls-5" d="M365.81,199.57c-2.75.15-4.57,1.42-6.88.59-1.79-.64-2.66.75-3.06,2.37-.48,1.96-1.21,3.16-3.06,1.02-.37-.42-.82-.95-1.41-.41-.51.46-.28,1.07.06,1.55.33.47,1.13.97,1.05,1.29-.96,3.81-.93,7.45,1.14,10.96.27.46-.44,1.31-1.26,1.29-.91-.01-1.72-.77-1.73-1.43-.02-3.24-2.61-4.46-4.5-6.32-3.08-3.02-2.67-5.18,1.13-7.16,2.39-1.24,2.77-5.56.42-6.76-1.15-.59-1.57-1.12-1.49-2.27.07-.97.73-1.47,1.53-1.62,1.57-.3.99,1.15,1.34,1.84.68,1.32,1.85,1.61,2.82.7,1.67-1.57,4.03-2.93,3.48-5.77-.28-1.45.26-1.73,1.48-2.01,2.79-.64,5.38-.19,7.19,1.93,1.54,1.8.83,3.74-.7,5.54-1.91,2.29.52,3.21,2.45,4.67Z"/>
      <path class="cls-5" d="M330.55,290.16c.48,1.13,1.34,2.15,1.02,3.51-.07,1.78-.66,3.72,1.54,4.76.05.38.09.77.14,1.15.8,5.06.26,5.62-5.18,4.83-.99-.14-1.76-.28-2.48.51-1.7,1.86-3.37,1.11-4.76-.3-1.34-1.36-2.55-2.8-4.06-4.04-1.67-1.39-.73-3.94,1.44-3.87,1.5.05,1.71-.47,2.05-1.5.31-.92.42-1.49-.52-2.33-2.02-1.8-2.34-8.09-.7-10.15.83-1.05,1.8-1.06,2.46.17,1.59,2.96,3.03,5.96,7.31,5.36.94-.13.66,1.69,1.74,1.9Z"/>
      <path class="cls-5" d="M431.68,174.24c.01-3.55,2.55-6.02,6.72-6.46,1.14-.12,1.85.19,2.47-1.34.72-1.79,2.75-1.17,2.92.31.26,2.28,1.68,3.94,2.19,5.93.5,1.93,1.05,4.12-.43,6.17-.76,1.05-.84,2.34.03,3.81,1.43,2.42.58,4.71-1.78,6.13-2.42,1.46-4.22.68-5.6-1.84-1.64-3.01-3.51-5.91-5.43-8.77-.88-1.32-1.25-2.65-1.09-3.94Z"/>
      <path class="cls-5" d="M312.43,153.41c-.01,3.97-3.25,6.63-7.94,6.52-2.09-.05-5.74-3.38-5.62-5.13.19-2.83,4.97-7.93,7.35-7.84,3.16.12,6.22,3.3,6.21,6.45Z"/>
      <path class="cls-5" d="M381.58,202.6c1.82,2.69,3.55,5.43,4.21,8.69-2.66,3.41-5.78,4.12-8.68,1.84-2.01-1.57-4.41-3.83-3.99-6.04.71-3.66,3.97-4.91,8.46-4.49Z"/>
      <path class="cls-5" d="M206.26,236.15c.32,1.69-.6,3.01-2.04,3.87-1.46.88-3.1.93-4.48-.23-.95-.8-1.59-1.25-2.95-.46-.8.46-1.79-.83-2.08-1.8-.32-1.07.25-1.16,1.36-1.54,2.17-.74.21-1.99-.34-2.81-1.84-2.75-1.4-3.95,1.78-4.81,1.51-.4,2.55-.06,2.95,1.41.45,1.64,1.23,2.48,3.07,2.57,2.16.1,2.83,1.68,2.73,3.8Z"/>
      <path class="cls-5" d="M208.01,199.9c-3.96.06-5.22-1.81-3.79-5.49.48-1.25.94-2.08-.67-3.06-1.43-.88-.77-2.68-.46-4.08.2-.87,1.05-1.18,1.91-1.1,1.31.13,2.41.59,2.76,2.08.49,2.09,2.2,3.37,3.45,4.94,1.05,1.32,1.67,2.61.74,4.35-.93,1.72-2.15,2.61-3.94,2.36Z"/>
      <path class="cls-5" d="M221.74,298.89c4.57-.2,5.8,1.19,4.74,5.4-.25,1.01.1,1.42,1,1.79.83.33,1.56.92,2.35,1.38,1.19.68,1.63,1.8,1,2.9-.98,1.71-2.96,1.55-4.56,1.62-1.22.05-1.45-1.29-1.34-2.37.08-.78.42-1.54.54-2.32.18-1.2-.03-1.91-1.61-1.8-2.14.15-5.62-4.16-5.01-6.13.57-1.82,1.94-.14,2.89-.47Z"/>
      <path class="cls-5" d="M234.72,267.35c.6,2.33,1.91,4.46,1.89,6.96-3.09.77-5.48.28-6.84-3.08-.56-1.38-4.09-1.12-4.94.27-.69,1.12-1.29,2.25-2.84,1.94-.72-.15-1.1-.77-1.19-1.51-.19-1.6.73-2.22,2.13-2.57,1.02-.26,1.72-.9,2.12-2.02.54-1.52,2.51-1.82,3.1-1.06,2.01,2.57,4.41.75,6.57,1.07Z"/>
      <path class="cls-5" d="M222.88,190.39c-.69,1.11-1.37,2.21-2.06,3.32-.45.09-.9.16-1.34.28-4.02,1.1-4.88.68-5.58-2.76-.54-2.66,1.53-6.1,3.89-6.47,2.18-.34,4.55,1.82,5.01,4.6.07.34.06.69.08,1.03Z"/>
      <path class="cls-5" d="M434.44,197.25c-.06,2.46-2.41,4.5-5.13,4.47-1.27-.02-3.77-3.79-3.57-5.58.25-2.32,1.11-4.25,3.88-4.28,2.32-.02,4.87,2.91,4.82,5.39Z"/>
      <path class="cls-5" d="M425.05,182.88c-2.16.05-3.81-2.42-4-6.27-.11-2.33,1.58-1.44,2.56-1.48,3.89-.15,7.72,2.15,7.25,4.56-.53,2.69-2.74,3.6-5.81,3.19Z"/>
      <path class="cls-5" d="M429.56,324.66c-2.66-.22-4.32-1.33-4.64-3.69-.26-1.86,3.21-4.59,5.58-4.61,1.86-.02,4.94,2.86,4.34,4.81-.7,2.33-3.34,2.92-5.28,3.49Z"/>
      <path class="cls-5" d="M324.84,322.55c-1.69.23-3.37.52-5.06.68-2.41.22-4.26-.94-4.46-3.25-.24-2.76,2.09-3.78,4.35-4.51,2.29-.74,3.71.57,4.09,2.45.31,1.56,2.25,2.77,1.08,4.63h0Z"/>
      <path class="cls-5" d="M206.65,272.74c2.12.66,5.62-.74,5.58,3.23-.03,3.25-2.3,5.61-4.61,5.18-2.2-.41-3.58-2.09-4.61-3.95-.22-.41,3.27-4.49,3.64-4.46Z"/>
      <path class="cls-5" d="M362.02,326.51c3.39-1.05,6.86-1.3,10.38-1.2,1.23,2.41.08,3.8-2.04,4.8-1.84.87-3.85,1.32-5.42,2.84-1.11,1.08-1.86.1-2.13-1.05-.4-1.77-.98-3.53-.79-5.39Z"/>
      <path class="cls-5" d="M424.8,169.81c.06,1.56-.06,3.34-2.1,3.62-2.33.32-6.18-2.85-5.87-4.94.3-2,1.31-3.97,4.02-3.72,3.02.27,4.08,2.12,3.95,5.04Z"/>
      <path class="cls-5" d="M306.13,142.29c-.03.97-4.91,4.71-6.03,4.41-1.8-.49-3.56-1.26-3.48-3.61.05-1.65,3.61-4.42,5.49-4.38,1.86.05,4.07,2.01,4.02,3.58Z"/>
      <path class="cls-5" d="M351.03,122.72c.16,1.71-.56,2.77-2.72,2.77-3.32,0-5.22-1.77-5.3-5.15-.05-1.99,1.11-2.46,2.88-2.47,3.25-.02,5.03,1.5,5.14,4.85Z"/>
      <path class="cls-5" d="M242.66,303.43c-.23.48-.43,1.02-.73,1.5-.65,1.06-1.62,1.28-2.67.69-2.21-1.25-5.95,2.46-7.11-2.26-.35-1.44-.45-2.18,1.45-1.97,1.63.18,3.85,2.52,4.79-1.09.17-.66,1.26-.02,1.79.31,1.08.66,2.11,1.41,2.48,2.82Z"/>
      <path class="cls-5" d="M346.05,179.73c-.37,2.12-1.67,3.53-3.65,3.44-1.49-.07-3.58-.2-3.76-2.61-.13-1.74,2.2-4.71,3.88-4.52,2.07.24,2.81,2.05,3.53,3.69Z"/>
      <path class="cls-5" d="M324.84,322.55c2.96,1.01,4.71,4.75,3.39,7.22-.1.2-.22.58-.29.57-2.17-.35-3.73-1.85-5.35-3.1-.96-.74-.73-2.07.56-2.8.77-.43,1.7-.75,1.69-1.89h0Z"/>
      <path class="cls-5" d="M370.44,346.73c-.48-3.39,1.95-2.97,3.32-3.28,1.95-.44,2.68,1.47,2.59,2.78-.18,2.45-2.76,3.8-4.41,4.02-1.66.21-.74-2.79-1.5-3.52Z"/>
      <path class="cls-3" d="M172.88,128.34c-10.14-.3-18.84-2.63-26.13-8.9-11.06-9.52-13.81-23.32-7.35-36.35,10.43-21.01,40.58-29.94,60.77-18.01,17.35,10.25,20.83,31.51,7.69,46.88-9.38,10.97-21.52,15.87-34.98,16.38Z"/>
      <path class="cls-3" d="M182.91,36.41c24.31-.17,43.88,13.9,52.33,37.44,2.68,7.45,4.49,15.05,5.31,22.93.4,3.79,2.22,4.32,5.17,1.73,2.64-2.31,4.48-5.19,5.34-8.62.61-2.41,1.83-4.13,4.52-3.55,2.57.56,2.91,2.68,2.44,4.9-1.48,6.88-5.2,12.28-11.59,15.26-6.33,2.96-12.79-1.4-13.2-8.79-.61-10.81-3.84-20.82-8.91-30.24-9.21-17.1-28.71-26.48-47.98-23.6-5.3.79-10.62,1.39-15.81,2.8-2.15.58-3.98.02-4.75-2.19-.87-2.49.59-4.08,2.77-4.68,3.62-1,7.31-1.81,11.01-2.42,4.41-.73,8.87-1.01,13.35-.97Z"/>
      <path class="cls-3" d="M89.54,175.8c-2.45.12-4.79-.36-7.02-1.35-4.1-1.83-5.98-5.55-4.62-9.81,1.1-3.46,2.52-6.84,3.92-10.19,2.39-5.72,3.05-11.64,2.68-17.79-.49-7.99-1.01-16.02,1.81-23.76.5-1.39,1.04-2.79,1.79-4.05,1.11-1.88,2.65-3.45,5.04-2.21,2.4,1.26,2.44,3.31,1.33,5.59-3.15,6.48-3.66,13.31-2.91,20.39.93,8.76.32,17.36-3.39,25.54-.94,2.07-1.68,4.25-2.68,6.29-1.33,2.72-.35,3.74,2.43,3.96,4.92.39,9.44-1.07,13.93-2.78,8.72-3.33,17.27-7.18,26.57-8.8,6.88-1.2,13.79-2.15,20.78-2.43,2.43-.1,4.25.78,4.45,3.22.2,2.47-1.52,3.59-3.91,3.85-8.63.92-17.27,1.6-25.73,3.83-7.64,2.02-14.67,5.59-22.14,8.01-4.02,1.28-8.06,2.44-12.33,2.49Z"/>
      <path class="cls-3" d="M57.73,164.04c-5.01-.35-11-2.43-16.33-6.2-2.34-1.66-2.81-3.99-1.39-6.66,1.41-2.66,3.61-4.47,6.21-5.71,5.67-2.7,11.24-5.56,16.62-8.82,2.66-1.61,5.62-2.46,8.84-2.32,4.83.2,8.07,3.91,6.89,8.55-1.71,6.76-5.06,12.75-9.92,17.77-2.51,2.57-5.8,3.53-10.92,3.39Z"/>
      <path class="cls-4" d="M259.53,259.19c-1.59-1.04-1.45-2.67-1.58-4.28-.52-6.48.52-12.74,2.32-18.93.28-.97.43-2.02.44-3.03.02-2.06-.41-4.16,2.94-2.23,1.58.91,6.22-2.26,6.55-4.07.07-.39-.1-1.15-.33-1.22-2.4-.77-3.39-3.31-5.57-4.32-2.65-1.24-3.91.81-4.81,2.49-.97,1.83-1.98,2.12-3.51,1.11-4.45-2.93-8.21-.42-11.69,1.79-2.03,1.29-4.11,2.45-6.17,3.65-1.14.67-1.98.57-3.04-.36-3.41-3-3.3-3,.38-5.48,2.82-1.9,5.27-4.37,7.81-6.66,1.04-.94,1.96-1.08,3.38-.82,2.23.41,4.57.36,6.84.24,1.94-.1,3.33-1.01,3.9-3.16.38-1.45.65-3.81,2.09-3.91,1.41-.09,3.21,1.22,3.86,2.96.51,1.38.97.59,1.89.47,4.01-.5,6.14-4.76,10.39-4.89.71-.02,1.02-2.64,3.42-2.59,2.88.06,4.85,1.01,6.31,3.3,1.63,2.55,4.02,4.38,6.1,6.51,2.16,2.21,4.97,1.75,7.66,1.7-.52,1.34-.79,2.81.05,3.98,3.5,4.89,1.68,9.58-.43,14.23-3.55,7.83-10.14,12.51-17.36,16.5.08-1.39-.41-2.19-1.96-1.9-2.3.43-2.26,2.14-2.14,3.9-4.04,2.46-8.67,2.89-13.17,3.3-1.85.19-3.24.6-4.57,1.72ZM277.84,249.33c1.44-.8,5.06.6,6.36-1.64,1.33-2.28,3.11-2.67,5.01-3.44,1.04-.42,2.43-.48,2.41-2-.01-1.04-.5-2.09-1.39-2.65-1.14-.72-2.47-.72-3.52.2-1.11.98-2.15,2.07-3.09,3.22-1.01,1.23-2.52,1.51-3.18.41-1.03-1.7-2.37-1.51-3.81-1.5-1.61.02-2.84.2-2.34-2.35.36-1.82-1.21-3.86-2.96-4.14-1.91-.31-4.19.41-5.15,2.58-.8,1.81-.5,3.87,1.27,4.77,2.55,1.29,4.14,3.45,6.02,5.36.97.98,2.01,1.54,4.37,1.18ZM288.1,232.84c1.32-.33,2.37-.44,3.3-.84,1.72-.75,2.37-2.62,2.71-4.08.31-1.34-1.18-2.51-2.55-3.33-1.74-1.04-2.64.13-3.9.95-2.07,1.36-2.5,4.86-6.02,4.4-.76-.1-.85,1.17-.39,1.97.44.78,1.04,2.15,1.89,1.37,1.8-1.66,3.39-1.91,4.96-.44Z"/>
      <path class="cls-1" d="M281.4,252.19c7.22-4,13.81-8.68,17.36-16.5,2.11-4.65,3.93-9.34.43-14.23-.84-1.17-.57-2.65-.05-3.98,2.25-1.72,4.8-2.35,7.46-1.41,6.1,2.14,11.5-.07,16.86-2.53,2.08-.96,4.01-2.25,6.08-3.22,3.25-1.53,5.17-.17,4.82,3.44-.31,3.23-2.12,5.79-4.3,8.04-7.98,8.26-17.01,15.44-25.06,23.6-9.61,9.73-19.82,18.76-30.24,27.59-2.44,2.07-4.82,4.29-8.44,4.06-2.04-.13-3.15-.92-2.54-3.01,1.37-4.68,1.28-8.82-3.47-11.67-1.2-.72-.75-2.04-.77-3.16,1.33-1.12,2.72-1.53,4.59-1.7,4.5-.41,9.13-.84,13.17-3.3,1.67-.06,2.73-1.35,4.1-2.02Z"/>
      <path class="cls-4" d="M333.11,298.43c-2.2-1.04-1.61-2.99-1.54-4.76,1.34,1.32,1.31,3.08,1.54,4.76Z"/>
      <path class="cls-5" d="M277.84,249.33c-2.37.36-3.4-.2-4.35-1.17-1.88-1.92-3.48-4.08-6.02-5.36-1.77-.89-2.07-2.95-1.27-4.77.96-2.17,3.24-2.89,5.15-2.58,1.75.29,3.32,2.33,2.96,4.14-.51,2.55.73,2.36,2.34,2.35,1.44-.01,2.78-.2,3.81,1.5.67,1.1,2.18.81,3.18-.41.94-1.15,1.98-2.24,3.09-3.22,1.05-.93,2.38-.93,3.52-.2.89.57,1.38,1.61,1.39,2.65.01,1.52-1.38,1.58-2.41,2-1.9.77-3.68,1.16-5.01,3.44-1.32,2.23-4.94.83-6.38,1.63Z"/>
      <path class="cls-5" d="M288.1,232.84c-1.57-1.48-3.17-1.22-4.97.44-.85.78-1.45-.59-1.89-1.37-.45-.81-.37-2.08.39-1.97,3.52.46,3.96-3.04,6.02-4.4,1.26-.83,2.17-1.99,3.9-.95,1.37.82,2.86,1.99,2.55,3.33-.34,1.47-1,3.33-2.71,4.08-.91.41-1.96.52-3.29.84Z"/>
      <path class="cls-5" d="M281.4,252.19c-1.37.67-2.43,1.96-4.1,2-.13-1.76-.17-3.47,2.14-3.9,1.55-.29,2.03.52,1.96,1.9Z"/>
    </g>
  </g>
</svg>