<?xml version="1.0" encoding="utf-8"?>
<!-- Generator: Adobe Illustrator 28.1.0, SVG Export Plug-In . SVG Version: 6.00 Build 0)  -->
<svg version="1.1" id="Layer_1" xmlns="http://www.w3.org/2000/svg" xmlns:xlink="http://www.w3.org/1999/xlink" x="0px" y="0px"
	 viewBox="0 0 576 576" style="enable-background:new 0 0 576 576;" xml:space="preserve">
<style type="text/css">
	.st0{fill:#534032;}
	.st1{fill:#B19074;}
	.st2{fill:#F6F2EE;}
	.st3{fill:#A8866A;}
	.st4{fill:#F7E4D6;}
</style>
<g id="_x32_vsCGI.tif">
	<g>
		<g>
			<path class="st0" d="M262.92,457.91c-8.09,0.75-15.73,0.37-23.14,2.46c-2.73,0.77-4.77,2.43-6.62,4.58
				c-5.94,6.89-12.38,13.08-21.4,15.98c-13.67,4.38-27.23,1.27-35-8.44c-5.91-7.39-6.53-15.81-4.11-24.59
				c1.55-5.64,0.33-10.57-3-15.14c-3.76-5.18-6.06-10.94-6.76-17.28c-1.34-12.22,10.92-22.61,19.7-24.32
				c9.47-1.84,18.14,0.45,26.25,5.13c4.44,2.56,8.52,5.72,12.82,8.53c3.22,2.11,6.72,3.27,11.12,2.79
				c-4.4-8.94-5.89-18.64-9.6-27.59c-2.52-6.1-3.95-12.37-4.36-18.93c-1.36-21.73,0.63-43.18,5.09-64.47
				c1.94-9.26,4.58-18.28,7.84-27.47c-5.32,0.67-10.21,2.21-15.05,3.73c-33.16,10.41-66.28,20.96-99.41,31.47
				c-1.08,0.34-2.21,0.53-2.62,1.88c-1.37,4.53-5.02,6.94-9.04,8.28c-9.67,3.22-17.27,9.05-23.92,16.62
				c-4.32,4.92-9.3,9.29-16.59,9.08c-1.51-0.04-1.41,1.2-1.8,2.09c-3.02,7.06-9.1,7.9-13.72,1.67c-5.2-7-7.73-15.26-9.81-23.56
				c-5.41-21.65-4.36-42.85,5.46-63.19c6.21-12.86,15.45-23.51,25.27-33.69c10.85-11.24,21.68-22.49,35.66-29.98
				c1.46-0.78,1.37-1.86,1.58-3.09c6.61-38.07,26.87-67.04,59.78-86.7c20.61-12.31,43.57-16.02,67.48-13.91
				c14.24,1.26,28.12,4.12,40.88,10.63c26.3,13.42,45.41,33.3,53.93,62.2c2.02,6.84,2.87,13.85,1.99,21.02
				c-0.13,1.04-1.16,2.83,0.34,3.23c1.67,0.44,3.43,0.07,4.53-2.06c2.63-5.06,5.59-9.97,9.43-14.23c3.25-3.61,6.92-6.58,12.12-6.95
				c4.09-0.29,7.44,1.14,10.12,4.07c3.17,3.46,6.22,7.04,9.23,10.64c2.04,2.44,4.41,2.84,7.33,1.86c6.38-2.14,9.22-0.54,10.9,5.85
				c0.42,1.59-0.43,4.16,1.88,4.47c2.69,0.36,5.41,0.52,7.69-2.27c4.21-5.15,9.25-9.55,14.73-13.38c5.35-3.74,10.35-3.56,14.68,1.3
				c5.63,6.32,9.77,13.74,13.93,21.07c1.67,2.95,0.6,6.07-0.8,8.85c-0.85,1.68-0.5,2.52,1.02,3.23c0.21,0.1,0.41,0.22,0.58,0.37
				c3.89,3.5,7.92,5.23,12.82,1.63c1.2-0.88,2.98-1.07,4.53-1.35c7.05-1.25,12.07,4.66,10.86,12.75c-0.29,1.91-0.77,3.78-1.13,5.68
				c-0.52,2.71,3.14,6.17,5.79,5.34c3.47-1.09,6.96-2.04,10.51-2.82c3.76-0.83,7.04-0.09,9.87,2.47c2.72,2.47,5.56,4.75,8.52,6.94
				c6.22,4.61,7.37,10.36,3.54,17.09c-2.5,4.39-5.52,8.49-9.32,11.8c-2.33,2.03-0.85,4-0.66,5.95c0.15,1.54,1.82,1.37,3.02,1.55
				c12.75,1.98,15.99,8.19,10.03,19.6c-2.11,4.05-4.48,7.99-7.06,11.75c-1.23,1.79-1.14,3.28-0.5,5.06c0.71,1.97,2.27,1,3.51,1.05
				c6.02,0.22,11.01,2.19,13.56,8.1c2.15,4.96,0.54,10.89-3.86,14.06c-2.02,1.45-4.3,2.54-6.47,3.8c-1.54,0.9-3.77,1-3.47,3.8
				c0.27,2.6,2.3,4.38,3.94,4.62c4.45,0.65,6.29,3.84,8.42,6.9c1.49,2.15,2.69,4.46,3.63,6.93c2.52,6.65,6.19,12.62,10.44,18.35
				c5.03,6.78,7.12,14.93,8.73,23.06c1.44,7.29,2.63,14.97-0.06,22.02c-3.78,9.93-7.25,20.3-16.27,27.19c-1,0.76-0.91,1.19-0.3,2.16
				c3.18,5.05,3.05,7.52-0.97,11.77c-4.74,5.01-10.87,7.87-17.18,10.31c-7.13,2.76-14.58,4.32-22.11,5.44
				c-2.73,0.4-5.63,0.38-7.98-1.2c-1.9-1.28-3.31-0.88-5.07,0.05c-4.56,2.39-9.26,4.42-14.61,3.8c-0.79-0.09-1.23,0.33-1.77,0.79
				c-6.83,5.76-14.97,7.83-23.66,8.39c-2.26,0.15-4.45-0.33-6.18-1.61c-1.99-1.48-4.06-1.44-6.19-1.13
				c-14.27,2.05-28.62,0.72-42.9,1.21c-7.32,0.25-13.01-1.7-18.74-5.44c-3.23-2.11-7.01-2.54-10.85-2.33
				c-3.34,0.18-6.75-0.01-9.64-1.7c-3.78-2.21-7.54-3.88-12.04-3.99c-2.85-0.07-5.13-1.67-7.42-3.65
				c-3.17-2.75-7.38-2.94-11.22-1.04c-2.82,1.39-5.34,2.71-8.07,0.02c-0.71-0.7-1.46-0.12-2.21,0.17
				c-12.87,4.99-26.43,7.33-39.83,10.26c-2.57,0.56-5.3,0.73-7.83-0.05c-5.75-1.77-7.82-7.5-4.99-13.36
				C252.44,468.24,257.84,461.99,262.92,457.91z M413.26,472.45c0-4.48,0-8.96,0-14.31c-5.22,6.54-5.21,6.53-1.7,12.54
				c0.34,0.58,0.63,1.2,0.94,1.8c1.67,4.54,0.01,8.39-2.66,12.04c1.98,1.5,4.09,1.12,6.54,0.85
				C414.22,481.22,413.8,476.82,413.26,472.45z M59.91,249c2.24-2.31,4.52-1.74,6.73-0.02c4.99,3.88,7.84,9.07,9.38,15.14
				c0.98,3.85,0.38,7.81,0.81,11.95c7.55-4.94,15.41-6.95,24.08-6.3c6.53,0.48,12.42,2.87,18.33,5.26c3.34,1.35,6.27,1.33,9.46-0.49
				c5.75-3.29,11.7-6.24,17.86-8.71c21.62-8.68,44.24-13.52,67.13-17.25c2.94-0.48,4.92-1.25,5.85-4.48
				c0.9-3.14,2.58-6.08,4.03-9.05c6.48-13.24,16.46-21.5,31.63-23.19c8.75-0.98,17.44-2.84,23.96-9.78c1.42-1.51,3.41-1.6,4.94-0.05
				c1.64,1.65,1.41,3.6-0.13,5.22c-4.15,4.37-9.13,7.47-15.5,9.36c3.1,1.29,5.75,2.27,8.27,3.48c4.61,2.21,9.26,4.6,9.5,10.6
				c0.25,6.35-4.49,9.13-9.19,11.64c-9.6,5.13-20.12,7.36-30.74,8.9c-18.64,2.7-37.36,4.87-55.77,9.04
				c-19.51,4.41-38.7,9.72-56.35,19.5c-2.79,1.55-5.59,3.3-8.79,3.73c-6.96,0.94-12.44,5.4-19.51,7.2c2.5,1.73,4.81,2.61,6.04,4.56
				c1.48,2.34,3.11,2.26,5.45,1.51c29.18-9.34,58.44-18.44,87.59-27.9c20.64-6.7,41.71-11.02,63.32-12.91
				c8.32-0.73,16.71-0.87,24.93-2.58c5.01-1.04,8.46-3.76,10.11-8.69c1.59-4.76,2.91-9.57,3.87-14.51c0.41-2.1-0.12-2.73-1.83-3.54
				c-10.6-4.96-13.67-10.61-12.4-22.16c0.25-2.29,1.24-3.87,3.52-3.84c2.22,0.03,3.55,1.53,3.5,3.85c-0.03,1.4,0.22,2.2,1.84,1.99
				c4.58-0.57,9.12-1.29,12.67-4.57c6.54-6.04,10.2-13.52,10.27-22.45c0.12-15.39-5.66-28.89-14.65-40.92
				c-25.93-34.68-61.59-45.77-103.11-40.64c-20.14,2.49-37.95,10.95-53.31,24.65c-21.82,19.45-35.2,43.24-39.09,72.27
				c-0.29,2.2-1.38,3.47-3.32,4.36c-3.96,1.82-7.59,4.22-11.1,6.79c-10.99,8.06-20.12,18.08-29.37,27.96
				c-4.22,4.51-8.39,9.08-11.57,14.44c-0.52,0.6-1.11,1.15-1.54,1.81c-18.16,28.28-17.69,57.41-3.85,87.1
				c0.49,1.06,0.89,2.38,2.48,2.71c1.26-3.48,1.79-7.07,2.4-10.64c2.08-12.31,7.49-22.62,17.4-30.57
				c9.53-7.64,20.68-11.97,31.77-16.51c1.36-0.56,2.94-0.83,4.09-2.27c-6.65-2.68-13.08-4.07-20.01-2.63
				c-7.66,1.59-13.51,5.93-18.74,11.4c-1.55,1.63-3.38,2.67-5.49,1.43c-2.2-1.3-1.81-3.44-1.13-5.52c0.71-2.16,1.48-4.32,1.97-6.53
				c2.1-9.48,0.85-17.95-7.5-24.24C59.49,252.66,59.06,250.94,59.91,249z M244.09,414.63c4.52,8.53,9.48,16.75,16.63,23.41
				c1.85,2.06,3.7,4.11,5.54,6.17c0.35,0.44,0.67,0.92,1.07,1.32c4.13,4.09,4.23,4.2,8.72,0.43c4.61-3.88,9.63-6.78,15.58-7.97
				c1.24-0.25,2.4-0.73,3.02-1.99c2.03-3.86,5.69-4.58,9.53-4.96c1.6,0.02,3.28,0.34,4.8-0.01c5.62-1.27,10.91-0.7,15.87,2.29
				c1.44,0.87,2.71,0.45,3.83-0.38c5.25-3.89,11.1-4.71,17.23-3.05c2.31,0.63,3.72,0.23,5.45-1.36c4.61-4.24,9.71-3.94,14.36,0.36
				c2.72,2.52,4.8,5.5,6.76,8.61c3.33,5.29,3.67,5.46,6.85,0.01c3.92-6.73,15.25-5.08,17.31,0.26c1.74,4.52,4.71,4.71,8.47,4.4
				c1.25-0.1,2.52,0,3.78-0.03c5.31-0.12,9.34-3.12,10.26-8.35c0.93-5.28,2.29-10.44,3.69-15.6c3.04-6.31,6.59-12.16,13.68-14.69
				c8.69,0.22,12.01,3.03,13.98,11.49c0.82,3.54,0.39,7.06,0.37,10.6c-0.03,4.81,0.1,5.07,4.99,4.83c4-0.2,7.82-1.44,11.73-2.23
				c2.64-0.54,3.64-1.86,3.37-4.49c-0.22-2.12,0.65-4.01,1.7-5.82c1.8-3.1,4.57-5.09,7.63-6.71c2.28-1.2,3.31-2.8,3.11-5.46
				c-0.39-5.27,0.43-10.48,1.37-15.65c1.16-6.37,3.45-11.87,10.41-13.89c1.47-0.05,3.07-0.48,4.4-0.06c2.96,0.92,3.55-0.3,3.24-2.85
				c-0.08-0.67-0.04-1.36-0.05-2.04c-0.08-4.21,0.47-8.39,0.02-12.64c-0.5-4.65-0.38-9.41,2.91-13.38c0.39-0.47,0.44-1.28,0.48-1.95
				c0.52-8.85,0.42-17.88-2.49-26.16c-3.64-10.37-4.69-20.91-5.06-31.65c-0.44-12.82-4.63-24.12-12.96-33.88
				c-2.46-4.49-5.98-8.07-9.81-11.37c-4.52-5.05-9.92-9.12-15.21-13.28c-7.62-5.99-15.4-11.79-24.01-16.35
				c-4.33-3.05-8.95-5.6-13.81-7.69c-5.46-3.06-11.29-5.77-17.56-5.09c-12.74,1.38-25.13-0.76-37.56-2.69
				c-11.96-1.85-23.92-2.18-35.95-0.75c-2.3,0.27-3.54,1.26-4.65,3.27c-5.13,9.31-12.55,15.37-23.66,15.84
				c-0.74,0.03-1.76-0.22-2.01,0.84c-0.2,0.89,0.54,1.47,1.12,2.01c2.41,2.2,5.28,3.59,8.29,4.77c2.88,1.13,4.36,3.23,4.04,6.42
				c-0.68,6.76-2.41,13.27-4.67,19.65c-2.53,7.16-7.42,11.62-14.95,13.22c-8.66,1.84-17.49,1.98-26.26,2.82
				c-2.54,0.31-5.09,0.62-7.63,0.93c-6.17,0.3-12.2,1.64-18.3,2.43c-1.83,0.24-2.88,1.11-3.61,2.99c-4.4,11.32-7.66,22.95-9.64,34.9
				c-1.61,9.79-3.56,19.56-3.57,29.54c-0.06,0.65-0.12,1.3-0.18,1.95c-1.33,10.05-0.17,20.08,0.68,30.05
				c0.72,8.47,5.55,15.89,7.49,24.12c1.47,6.23,3.98,12.1,6.74,17.87C241.63,410.37,242.46,412.68,244.09,414.63z M260.78,449.37
				c-1.17-1.37-1.98-2.48-2.95-3.44c-7.7-7.64-14-16.34-19.2-25.82c-1.06-1.93-2.18-2.47-4.31-2.2c-8.24,1.05-15.57-0.67-21.69-6.82
				c-4.37-4.39-9.51-7.68-15.67-9.29c-6.83-1.78-13.03-1.74-18.21,4.01c-6.37,7.07-6.88,14.04-1.26,21.55
				c4.41,5.89,6.7,12.51,5.89,19.82c-0.41,3.67-0.6,7.3-0.51,10.95c0.11,4.29,1.67,7.97,5.23,10.64c6.93,5.2,14.17,4.9,21.5,1.09
				c7.82-4.07,15.34-8.61,21.53-15.04c1.91-1.99,4.37-2.75,7.06-3.03C245.55,451.03,252.9,450.22,260.78,449.37z M487.15,412.63
				c1.96,3.57,1.21,5.48-2.39,6.45c-1.55,0.42-2.86,1.83-4.2,2.88c-1.1,0.86-1.3,1.7-0.4,3.13c2.37,3.73,3.25,7.92,3.28,12.37
				c0.05,6.42-1.22,12.77-0.73,19.21c0.39,5.14,1.05,10.18,3.51,14.83c0.87,1.66,1.88,2.47,3.95,2.43
				c4.61-0.09,9.04-1.12,13.47-2.17c7.43-1.76,14.64-4.02,20.81-8.84c1.56-1.21,1.53-1.65,0.15-2.93c-2.18-2.01-4.2-4.24-6.09-6.54
				c-9.11-11.1-12.88-23.24-6.74-37.09c1.11-2.5,1.06-4-1.76-5.05c-1.86-0.69-3.03-2.33-4.07-4.04c-2.15-3.52-3.46-7.37-4.65-11.28
				c-1.09-3.59-1.47-7.39-3.1-11.05c-1.55,1.39-2.32,2.97-2.77,4.56c-1.78,6.37-3.16,12.82-3.07,19.5
				C492.4,413.09,491.8,413.54,487.15,412.63z M441.34,421.67c0-1.3,0.01-2.33,0-3.36c-0.03-2.4-0.78-5.21-2.81-5.75
				c-2.05-0.55-3.35,2.21-4.24,4.06c-2.93,6.1-4.83,12.49-4.68,19.35c0.03,1.44,0.45,3.13-1.11,4.07c-5.78,3.5-6.97,8.88-6.53,15.09
				c0.52,7.29,1.58,14.58,0.12,21.88c-0.22,1.08,0.2,1.84,1.2,2.13c4.2,1.24,7.76,3.81,11.7,5.56c2.13,0.95,4.28,1.34,6.6,0.3
				c3.21-1.45,6.54-2.48,10.07-2.98c2.91-0.42,4.4-1.94,4.28-5.35c-0.22-5.93,0.64-11.81,1.85-17.65
				c1.15-5.55,3.27-10.87,3.83-16.55c0.21-2.18,0.19-3.9-2.99-3.17c-2.64,0.6-5.41,0.82-8.13,0.89c-6.18,0.16-9.62-3.37-9.88-9.58
				C440.48,427.49,441.83,424.53,441.34,421.67z M516.8,358.74c-1.71,5.75-1.93,10.74-1.28,15.77c0.33,2.54-0.04,4.65-2.31,6.36
				c-2.1,1.58-2.44,4.07-2.14,6.53c0.82,6.62,2.89,12.8,6.55,18.44c3.17,4.88,6.31,9.86,7.21,15.71c0.52,3.38,2.41,4.22,5.34,4.63
				c6.61,0.94,10.41-1.61,11.18-8.28c0.82-7.07-0.78-13.9-3.87-20.18c-5.03-10.2-10.53-20.17-15.86-30.22
				C520.2,364.82,518.69,362.17,516.8,358.74z M407.19,450.26c-2.17,0.49-3.9,1.04-5.66,1.25c-7.16,0.84-9.59,0.89-11.71-6.72
				c-0.09-0.33-0.1-0.68-0.19-1.01c-0.31-1.12-0.64-2.26-2.09-2.31c-1.46-0.05-1.73,1-2.17,2.16c-0.65,1.7-0.52,3.37-0.43,5.07
				c0.07,1.34-0.12,2.5-1.55,3.09c-2.11,0.88-3.41,2.66-4.64,4.44c-4.68,6.76-8.69,13.73-6.45,22.5c0.92,3.6,2.66,4.73,6.39,4.32
				c2.6-0.29,5.15-1.42,7.79-0.76c3.86,0.96,7.77,0.62,11.63,0.45c5.28-0.23,7.27-3.12,5.97-8.23c-0.44-1.73-1.21-3.43-2.08-5
				c-1.93-3.45-1.67-6.64,0.39-9.96C404.11,456.78,406.22,454.18,407.19,450.26z M339.91,437.34c-4.66-0.01-6.42,1.8-5.35,6.33
				c1.78,7.57,0.36,14.65-2.39,21.65c-1.88,4.78-1.12,6.2,4.07,6.32c3.65,0.08,6.92,1.01,10.18,2.44c2.84,1.25,5.86,1.87,8.96,1.8
				c2.17-0.05,3-0.91,2.12-3.32c-3.7-10.12-1.32-18.67,6.93-25.69c0.76-0.65,1.69-1.09,1.13-2.46c-1.2-2.94-2.1-6.02-4.16-8.51
				c-1.49-1.8-3-2.59-4.93-0.25c-3,3.64-7.01,3.85-11.25,2.78C343.47,437.98,341.79,437.17,339.91,437.34z M226.33,246.69
				c9.76-1.39,19.05-2.34,28.19-4.34c7.37-1.61,14.63-3.56,21.12-7.57c4.66-2.88,4.62-4.86-0.22-7.35
				c-6.33-3.26-13.22-4.67-20.19-6.01c-7.66-1.47-13.42,1.03-18.27,6.6C232.33,233.34,229.16,239.5,226.33,246.69z M65.7,333.01
				c3.5-0.33,6.17-2.08,8.18-4.37c8.52-9.68,18.21-17.46,30.62-21.79c4.62-1.61,4.43-5.87,0.08-8.39c-4.5-2.6-9.41-2.55-13.84-0.39
				C76.31,305.1,67.31,316.25,65.7,333.01z M259.24,475.66c4.9,0.36,10.75-1.38,16.13-4.91c3.99-2.62,8.3-4.02,13.05-4.56
				c2.93-0.33,6.95,1.59,8.53-0.97c1.42-2.3-0.39-5.96-1.22-8.85c-0.85-3-1.02-7.3-4.87-7.85c-3.72-0.53-5.65,3.02-7.25,5.89
				c-2.31,4.13-5.5,6.99-10.21,7.78C265.6,463.49,262.34,469.36,259.24,475.66z M306.65,441.47c2.75,7.51,4.16,14.85,3.68,22.47
				c-0.09,1.45,0.42,1.98,1.76,1.47c2.35-0.89,4.76-0.55,7.15-0.49c4.4,0.11,4.51,0.11,2.7-3.7c-1.9-4-2.39-8-0.99-12.24
				c0.64-1.94,1.28-3.92,1.09-6c-0.3-3.26-3.01-5.21-5.69-3.8C313.37,440.74,310.36,441.82,306.65,441.47z M474.42,450.99
				c0-5.65,0.1-9.55-0.06-13.45c-0.05-1.25,0.08-3.41-2.28-2.75c-1.61,0.45-3.84,0.69-3.05,3.49c1.16,4.1,1.44,8.19,0.71,12.5
				c-0.67,3.93-1.98,7.7-2.55,11.63c-0.6,4.15-2.7,7.99-2.45,12.32c0.08,1.38,0.14,2.16,1.92,1.6c2.91-0.93,5.87-1.76,8.87-2.33
				c1.96-0.38,2.17-1.4,1.59-2.86C474.29,464.07,474.21,456.67,474.42,450.99z M439.24,202.78c-2.14-7.58-4.84-14.85-9.97-20.92
				c-1.33-1.57-3.16-1.1-4.69-0.1c-3.47,2.27-6.34,5.25-9.31,8.11c-0.97,0.93-1.05,1.67,0.5,2.12
				C424.04,194.46,431.38,198.89,439.24,202.78z M347.53,185.86c9.57,0.34,18.72,1.85,28,2.62c-5.42-2.91-8.8-7.44-11.46-12.7
				c-1.93-3.81-5.07-4.49-8.27-1.75C352.12,177.18,349.77,181.31,347.53,185.86z M501.32,262.49c2.35-2.46,4.37-4.82,5.43-7.68
				c1.71-4.61,1.21-6.39-2.29-8.85c-0.84-0.59-1.76-1.14-2.39-1.92c-3.52-4.39-7.04-4.34-14.07-2
				C493.06,248.4,497.41,255.17,501.32,262.49z M517.19,432.35c1.51,5.96,4.03,10.56,7.79,14.54c4.77-3.38,7.76-8.24,12.15-12.9
				C530.08,434.24,523.86,433.13,517.19,432.35z M506.81,301c2.71-4.23,4.88-7.87,6.44-11.92c0.86-2.23,0.04-3.25-1.82-3.93
				c-1.06-0.39-2.24-0.46-3.29-0.86c-1.72-0.65-2.17-0.13-2.05,1.64C506.4,290.7,506.56,295.48,506.81,301z M513.9,333.03
				c2.04-0.93,3.88-1.84,5.05-3.65c1.12-1.73,1.73-3.66,0.21-5.35c-1.57-1.73-3.88-1.71-6.04-1.62c-0.99,0.04-0.85,1.02-0.67,1.59
				C513.35,326.88,512.65,329.97,513.9,333.03z M371.22,452.38c-6.84,4.16-9.11,10.48-5.9,17.53
				C366.36,463.94,368.49,458.38,371.22,452.38z M380.3,188.83c-0.11,0.28-0.22,0.55-0.33,0.83c3.15,0.36,6.3,0.71,9.46,1.07
				C386.95,185.93,383.19,190.48,380.3,188.83z M464.74,220.69c1.52,1.3,2.79,2.69,4.76,3.46c-0.05-1.74,0.82-3.55-0.98-4.52
				C467.24,218.94,465.98,219.59,464.74,220.69z"/>
			<path class="st1" d="M269.04,263.18c8.76-0.84,17.59-0.98,26.26-2.82c7.52-1.6,12.42-6.06,14.95-13.22
				c2.26-6.38,3.99-12.89,4.67-19.65c0.32-3.19-1.16-5.3-4.04-6.42c-3.01-1.18-5.89-2.56-8.29-4.77c-0.59-0.54-1.32-1.12-1.12-2.01
				c0.24-1.06,1.26-0.81,2.01-0.84c11.11-0.47,18.53-6.53,23.66-15.84c1.11-2.01,2.34-3,4.65-3.27c12.03-1.44,23.98-1.1,35.95,0.75
				c12.43,1.93,24.81,4.07,37.56,2.69c6.27-0.68,12.1,2.02,17.56,5.09c-0.23,5.06,0.41,5.87,5.54,7.12
				c0.43,0.11,0.98,0.17,1.25,0.46c2.33,2.6,4.67,1.49,7.03,0.11c8.61,4.56,16.39,10.36,24.01,16.35
				c5.29,4.16,10.68,8.23,15.21,13.28c-2.34,3.88-3.21,7.45,0.69,11.18c2.88,2.75,5.92,3.15,9.12,0.19
				c8.33,9.76,12.52,21.06,12.96,33.88c0.37,10.74,1.42,21.28,5.06,31.65c2.91,8.28,3.01,17.31,2.49,26.16
				c-0.04,0.67-0.09,1.48-0.48,1.95c-3.29,3.97-3.4,8.73-2.91,13.38c0.45,4.25-0.1,8.43-0.02,12.64c-5.85-2.32-7.78-1.07-7.59,4.95
				c-6.96,2.02-9.25,7.52-10.41,13.89c-0.94,5.18-1.76,10.38-1.37,15.65c0.2,2.66-0.84,4.26-3.11,5.46
				c-3.06,1.61-5.83,3.6-7.63,6.71c-1.05,1.82-1.91,3.7-1.7,5.82c0.27,2.63-0.73,3.95-3.37,4.49c-3.9,0.79-7.73,2.03-11.73,2.23
				c-4.89,0.25-5.02-0.02-4.99-4.83c0.02-3.53,0.45-7.06-0.37-10.6c-1.97-8.45-5.29-11.26-13.98-11.49
				c0.12-1.34-1.74-2.05-1.24-3.43c2.07-5.64-0.69-9.54-4.63-12.99c-3.06-2.67-3.04-2.54,0.33-4.82c1.79-1.21,3.16-2.74,2.23-5.31
				c-1.12-3.12-4.89-3.73-6.11-6.72c-0.17-0.41-0.82-0.07-1.19,0.21c-2.09,1.52-4.08,0.77-5.61-0.71c-2.93-2.84-5.19-1.31-7.67,0.63
				c-1.59,1.25-0.61,3.02-1.3,4.45c-1.42,2.92-1.3,5.43,1.39,8c2.08,1.98,3.4,4.67,7.04,3.91c-1.39,2.6-4.19,3.71-4.62,6.56
				c-0.26,1.73,1,4.33-0.79,4.99c-1.76,0.65-3.15-1.89-4.8-2.87c-1.05-0.62-1.96-1.63-2.7-2.63c-4.35-5.83-7.53-12.27-9.81-19.17
				c-0.21-0.64-0.59-1.24-0.2-1.96c1.56-2.81,5.91-3.61,8.58-1.58c1.25,0.95,2.41,2.37,4.22,1.32c0.93-0.54,1.72-1.52,1.25-2.58
				c-0.81-1.81-2.49-1.43-4.11-1.34c-0.81,0.05-1.95-0.18-2.41-1.04c-0.54-1.02,0.41-1.65,1-2.33c1.58-1.81,3.03-3.75,4.75-5.41
				c2.86-2.74,8.23-2.72,10.85-0.13c0.42,0.42,1.01,0.98,1.41,0.42c1.91-2.64,4.64-1.39,7.01-1.54c6.1-0.38,10.51-3.32,11.41-7.84
				c2.27,2.49,2.26,5.88,3.42,8.8c2.02,5.09,2.52,10.36,1.49,15.82c-0.97,5.15-1.68,10.36-2.3,15.57c-0.29,2.4-0.22,4.98,2.41,6.29
				c2.57,1.28,5.13,0.89,7.48-0.69c3.74-2.53,6.64-5.91,9.59-9.27c2.09-2.39,3.65-5.26,6.49-7c4.18-2.56,8.47-4.95,12.32-8.01
				c1.89,0.41,3.03-0.7,4.05-2.01c4.58-5.85,4.32-11.74-1.32-17.14c-5.31-5.09-9.44-10.89-12.18-17.66
				c-2.65-6.57-5.27-13.17-7.57-19.87c-7.07-20.58-16.94-39.78-28.89-57.87c-4.6-6.97-6.74-13.74-3.8-21.88
				c1.18-3.28,1.6-6.83,0.72-10.45c-2.28-9.39-14.55-13.45-21.47-11.95c-3.53,0.76-6.88,1.89-8.44,5.63
				c-0.81,1.04-1.63,2.08-2.44,3.12c-5.37-0.06-10.27,1.8-15.23,3.54c-4.22,1.49-6.08,0.02-5.83-4.29c0.13-2.33-2.07-5.23-4.04-5.31
				c-1.9-0.08-4.85,3.27-4.89,5.55c-0.05,2.57,1.61,3.99,4.53,3.88c3.25-0.12,3.79,0.65,2.54,3.72c-0.57,1.39-1.31,2.67-2.4,3.73
				c-0.62,0.6-0.89,1.75-2.11,1.32c-0.87-0.3-1.08-1.06-1.21-1.9c-0.58-3.7-2.29-6.26-5.97-7.98c-4.49-2.1-10.07-1.02-13.08,3.46
				c-2.39,3.56-1.54,10.93,1.97,13.03c1.94,1.16,3.5,3.84,6.2,3.03c3.49-1.05,7.03-1.75,10.57-2.56c-0.4,4.19,1.05,7.68,4.36,10.21
				c3,2.3,6.22,4.28,9.75,5.73c6.49,2.65,12.65,5.52,17.03,11.59c5.62,7.79,11.39,15.43,15.61,24.11c-4.49-0.42-7.76,0.83-8.46,4.49
				c-0.43,2.21,1.98,4.46,3.99,6.04c2.91,2.28,6.03,1.57,8.69-1.84c0.71,0.26,1.03,0.86,1.33,1.48c3.14,6.54,6.47,13.01,8.26,20.1
				c-1.63,0.27-3.61-0.24-4.35,1.98c-4.18,0.4-6.53,3.59-8.37,6.56c-4.23,6.82-11.01,9.76-17.71,12.97c-1.25,0.6-2.61,1.1-3.93,0.19
				c-2.42-1.67-5.15-1.78-7.93-1.68c0.6-2.5-1.14-4.34-1.86-6.45c-2.86-8.4-9.37-13.16-18.22-13.5c-0.76-0.03-1.8,0.38-2.2-0.48
				c-0.5-1.08,0.66-1.58,1.25-2.18c2.94-2.98,5.13-6.46,6.79-10.26c1.47-3.34,2.27-7.04,0.08-10.19c-1.36-1.97-1.34-3.21-0.33-5.13
				c2.55-4.87,1.63-10.2-2.15-14.24c-2.7-2.9-6.02-4.89-9.47-6.74c-6.57-3.52-8.37-7.47-7.09-14.58c0.39-2.15,0.79-4.74-2.24-5.77
				c-0.61-0.21-1-0.53-0.78-1.25c0.26-0.89,0.7-2.02-0.76-2.04c-1.16-0.02-1.99,0.63-2.34,2.04c-0.86,3.48-2.18,4.18-5.6,3.38
				c-1-0.23-1.99-0.6-3-0.69c-1.63-0.13-3.3-0.13-3.78,2c-3.12-1.83-5.9-0.7-8.66,0.94c-12.45,7.42-26.11,11.4-40.3,13.56
				c-10.34,1.57-21.04,1.68-29.56,9.06c-0.02-0.34-0.01-0.69-0.06-1.03c-0.47-2.77-2.83-4.93-5.01-4.6
				c-2.36,0.37-4.44,3.81-3.89,6.47c0.7,3.43,1.56,3.85,5.58,2.76c0.44-0.12,0.89-0.19,1.34-0.28c0.09,4.99-0.81,9.72-3.31,14.14
				c-1.34,2.37-2.5,4.9-3.36,7.48c-1.54,4.62-0.68,6.86,3.24,9.65c0.1,1.14,0.81,2.08,1.76,2.29c3.85,0.86,2.38,2.99,1.55,5.23
				c-0.86,2.31-1.47,4.74,0.44,6.93c-2.01,3.49-1.73,4.51,1.61,6.54c0.87,0.53,1.67,1.21,2.42,1.9c5.67,5.26,7.29,12.52,9.57,19.45
				c-2.16-0.32-4.57,1.5-6.57-1.08c-0.59-0.76-2.56-0.46-3.1,1.06c-0.4,1.12-1.1,1.76-2.12,2.02c-1.39,0.35-2.32,0.98-2.13,2.57
				c0.09,0.74,0.47,1.37,1.19,1.51c1.55,0.31,2.15-0.82,2.84-1.94c0.85-1.38,4.37-1.65,4.94-0.27c1.37,3.35,3.76,3.85,6.84,3.08
				c0.19,0.28,0.47,0.54,0.55,0.84c3.19,12.39,6.22,24.82,9.6,37.16c1.21,4.42,2.24,8.35-2.05,11.74c-1.13,0.9-1.61,2.61-0.58,4.08
				c1.1,1.57,2.8,1.57,4.36,1.02c2.95-1.02,5.58-2.64,7.92-4.73c1.79-1.59,3.63-3.08,5.82-4.19c5.12-2.58,10.78-2.94,16.2-4.3
				c0.33,0.46,0.59,1.22,1.01,1.33c2.75,0.69,5.58,0.9,8.36,1.52c1.88,0.42,3.71-2.56,2.82-4.46c-0.87-1.87-1.07-3.73-0.95-5.68
				c0.15-2.42-0.82-4.43-2.78-5.56c-2.87-1.65-3.7-4.35-4.03-7.15c-0.31-2.57-1.37-3.34-3.84-3.8c-4.66-0.86-9.87-1.23-10.94-7.64
				c-0.3-1.79-0.3-2.51,1.61-2.72c5.12-0.57,9.74-4.91,15.33-1.98c0.26,0.14,0.68,0.02,1.02-0.05c4.94-1.05,9.6-2.71,14.15-5
				c5.81-2.92,11.85-5.69,18.67-2.62c1.51,0.68,3.35,0.63,5.04,0.92c2.75,5.5,5.73,10.9,6.64,17.12c-1.08-0.21-0.8-2.03-1.72-1.9
				c-4.28,0.6-5.72-2.41-7.31-5.36c-0.66-1.23-1.63-1.22-2.46-0.17c-1.63,2.06-1.32,8.35,0.7,10.15c0.94,0.84,0.83,1.41,0.52,2.33
				c-0.35,1.03-0.55,1.55-2.05,1.5c-2.18-0.07-3.12,2.48-1.44,3.87c1.5,1.25,2.71,2.69,4.06,4.04c1.39,1.4,3.06,2.16,4.76,0.3
				c0.71-0.78,1.49-0.65,2.48-0.51c5.44,0.79,5.99,0.24,5.18-4.83c1.27,0.54,1.3,1.83,1.62,2.87c2.01,6.54,3.78,13.16,6,19.62
				c1.17,3.4,0.85,5.88-2.11,8.08c-1.35,1-2.83,2.45-1.86,4.35c0.98,1.92,3.05,1.31,4.66,1.04c3.95-0.66,7.08-3.1,10.36-5.18
				c3.11-1.98,6.24-3.87,10.11-3.85c-0.19,1.86,0.39,3.62,0.8,5.39c0.26,1.15,1.01,2.13,2.13,1.05c1.57-1.52,3.58-1.97,5.42-2.84
				c2.12-1,3.27-2.39,2.04-4.8c2.81-0.72,5.68-1.26,8.08-3.06c0.79,3.22,3.93,4.39,5.82,6.65c-1.4,5.16-2.76,10.31-3.69,15.6
				c-0.92,5.23-4.94,8.23-10.26,8.35c-1.26,0.03-2.53-0.08-3.78,0.03c-3.76,0.31-6.73,0.12-8.47-4.4c-2.06-5.35-13.39-7-17.31-0.26
				c-3.18,5.46-3.52,5.28-6.85-0.01c-1.96-3.1-4.03-6.09-6.76-8.61c-4.65-4.3-9.76-4.6-14.36-0.36c-1.73,1.59-3.14,1.99-5.45,1.36
				c-6.14-1.66-11.98-0.84-17.23,3.05c-1.12,0.83-2.38,1.25-3.83,0.38c-4.95-2.99-10.25-3.56-15.87-2.29
				c-1.52,0.34-3.19,0.02-4.8,0.01c-0.07-4.86-0.75-5.42-5.02-3.97c-0.5,0.17-0.87,0.68-1.35,0.91c-1.61,0.78-1.87,3.26-2.96,3.61
				c-4.73,1.51-1.62,2.91-0.2,4.41c-0.61,1.26-1.77,1.74-3.02,1.99c-5.95,1.19-10.97,4.09-15.58,7.97
				c-4.48,3.77-4.58,3.66-8.72-0.43c-0.4-0.4-0.71-0.88-1.07-1.32c0.63-1.55,2.32-1.27,3.43-1.97c2.39-1.52,5.1-2.96,4.77-6.36
				c-0.24-2.56-0.01-5.38-3.53-6.52c-4.55-1.47-8.5,0.18-10.44,4.34c-0.82,1.75,1.82,2.86,0.23,4.34
				c-7.16-6.66-12.11-14.88-16.63-23.41c3.85-2.06,4.4-4.18,1.55-6.34c-1.41-1.07-3.05-0.56-4.62-0.33
				c-2.76-5.76-5.27-11.63-6.74-17.87c-1.94-8.23-6.77-15.65-7.49-24.12c-0.85-9.97-2.01-20-0.68-30.05
				c1.19,0.8,0.72,2.05,0.87,3.15c0.37,2.74,1.78,4.22,4.72,4.28c3.61,0.08,4.92-2.53,6.26-5.07c1.32-2.5,0.11-4.8-1.45-6.49
				c-1.35-1.46-3.43-1.1-5.46-0.56c-1.93,0.52-3.23,1.75-4.76,2.75c0.02-9.99,1.96-19.76,3.57-29.54
				c1.97-11.96,5.23-23.59,9.64-34.9c0.73-1.89,1.78-2.76,3.61-2.99c6.1-0.79,12.13-2.13,18.3-2.43c0.24,1.46,5.27,6.64,6.23,6.18
				c2.65-1.27,0.88-3.82,1.36-5.75C269.1,264.11,269.03,263.63,269.04,263.18z M361.38,411.84c0.01,1.14-0.92,1.47-1.69,1.91
				c-1.29,0.73-1.52,2.06-0.56,2.8c1.62,1.24,3.18,2.75,5.35,3.1c0.06,0.01,0.18-0.38,0.29-0.57
				C366.09,416.59,364.33,412.85,361.38,411.84c1.17-1.86-0.78-3.07-1.08-4.63c-0.37-1.88-1.8-3.19-4.09-2.45
				c-2.26,0.73-4.59,1.75-4.35,4.51c0.2,2.31,2.05,3.47,4.46,3.25C358.01,412.36,359.69,412.07,361.38,411.84z M402.35,288.86
				c-1.93-1.46-4.36-2.38-2.42-4.67c1.53-1.8,2.24-3.75,0.7-5.54c-1.81-2.12-4.4-2.58-7.19-1.93c-1.23,0.28-1.76,0.56-1.48,2.01
				c0.55,2.85-1.82,4.2-3.48,5.77c-0.97,0.91-2.14,0.62-2.82-0.7c-0.35-0.69,0.23-2.13-1.34-1.84c-0.8,0.15-1.46,0.65-1.53,1.62
				c-0.08,1.15,0.34,1.68,1.49,2.27c2.34,1.2,1.96,5.51-0.42,6.76c-3.8,1.98-4.21,4.14-1.13,7.16c1.89,1.85,4.48,3.08,4.5,6.32
				c0,0.67,0.81,1.42,1.73,1.43c0.82,0.01,1.53-0.84,1.26-1.29c-2.07-3.51-2.1-7.15-1.14-10.96c0.08-0.32-0.73-0.83-1.05-1.29
				c-0.34-0.48-0.57-1.09-0.06-1.55c0.6-0.54,1.05-0.01,1.41,0.41c1.86,2.14,2.59,0.94,3.06-1.02c0.39-1.62,1.27-3.01,3.06-2.37
				C397.78,290.28,399.6,289.01,402.35,288.86z M468.22,263.53c-0.16,1.28,0.21,2.62,1.1,3.94c1.91,2.85,3.78,5.75,5.43,8.77
				c1.38,2.52,3.18,3.29,5.6,1.84c2.36-1.42,3.21-3.72,1.78-6.13c-0.87-1.47-0.79-2.76-0.03-3.81c1.48-2.05,0.93-4.24,0.43-6.17
				c-0.51-1.99-1.93-3.65-2.19-5.93c-0.17-1.48-2.2-2.1-2.92-0.31c-0.62,1.53-1.33,1.22-2.47,1.34
				C470.77,257.52,468.24,259.98,468.22,263.53z M348.97,242.7c0.01-3.15-3.05-6.32-6.21-6.45c-2.38-0.09-7.17,5.01-7.35,7.84
				c-0.12,1.75,3.54,5.08,5.62,5.13C345.72,249.32,348.96,246.66,348.97,242.7z M242.8,325.44c0.09-2.12-0.57-3.7-2.71-3.79
				c-1.85-0.08-2.63-0.92-3.07-2.57c-0.4-1.47-1.44-1.82-2.95-1.41c-3.18,0.85-3.63,2.06-1.78,4.81c0.55,0.82,2.52,2.07,0.34,2.81
				c-1.11,0.38-1.68,0.47-1.36,1.54c0.29,0.98,1.27,2.27,2.08,1.8c1.36-0.79,1.99-0.34,2.95,0.46c1.38,1.16,3.02,1.11,4.48,0.23
				C242.21,328.45,243.12,327.13,242.8,325.44z M244.55,289.19c1.79,0.25,3.01-0.63,3.94-2.35c0.93-1.73,0.31-3.02-0.74-4.35
				c-1.25-1.58-2.96-2.85-3.45-4.94c-0.35-1.49-1.44-1.95-2.76-2.08c-0.86-0.09-1.71,0.23-1.91,1.1c-0.32,1.4-0.97,3.2,0.46,4.08
				c1.61,0.98,1.15,1.81,0.67,3.06C239.33,287.38,240.59,289.24,244.55,289.19z M258.28,388.18c-0.95,0.32-2.33-1.35-2.9,0.47
				c-0.61,1.97,2.87,6.27,5.01,6.13c1.58-0.11,1.79,0.61,1.61,1.8c-0.12,0.78-0.45,1.53-0.54,2.32c-0.11,1.08,0.12,2.42,1.34,2.37
				c1.6-0.07,3.58,0.09,4.56-1.62c0.63-1.1,0.19-2.22-1-2.9c-0.79-0.45-1.51-1.04-2.35-1.38c-0.9-0.36-1.25-0.77-1-1.79
				C264.08,389.37,262.85,387.99,258.28,388.18z M470.98,286.54c0.06-2.48-2.5-5.41-4.83-5.39c-2.77,0.02-3.63,1.96-3.88,4.28
				c-0.19,1.79,2.31,5.57,3.57,5.58C468.57,291.05,470.92,289,470.98,286.54z M461.59,272.17c3.07,0.41,5.28-0.5,5.8-3.19
				c0.47-2.41-3.36-4.71-7.25-4.56c-0.98,0.04-2.67-0.86-2.56,1.48C457.78,269.75,459.44,272.23,461.59,272.17z M466.11,413.95
				c1.94-0.57,4.57-1.16,5.28-3.49c0.59-1.95-2.48-4.83-4.34-4.81c-2.37,0.02-5.84,2.75-5.58,4.61
				C461.8,412.61,463.45,413.72,466.11,413.95z M243.19,362.03c-0.37-0.03-3.86,4.05-3.64,4.45c1.03,1.87,2.41,3.54,4.61,3.95
				c2.31,0.43,4.57-1.93,4.61-5.18C248.81,361.29,245.31,362.7,243.19,362.03z M461.34,259.1c0.13-2.92-0.93-4.77-3.95-5.05
				c-2.7-0.25-3.72,1.72-4.02,3.72c-0.32,2.09,3.54,5.26,5.87,4.94C461.27,262.44,461.4,260.66,461.34,259.1z M342.68,231.58
				c0.04-1.57-2.16-3.53-4.02-3.58c-1.88-0.05-5.44,2.72-5.49,4.38c-0.08,2.34,1.69,3.11,3.48,3.61
				C337.78,236.29,342.65,232.55,342.68,231.58z M387.58,212.01c-0.11-3.36-1.89-4.88-5.14-4.85c-1.77,0.02-2.93,0.48-2.88,2.47
				c0.08,3.38,1.99,5.14,5.3,5.15C387.01,214.79,387.73,213.72,387.58,212.01z M279.2,392.72c-0.37-1.41-1.41-2.16-2.47-2.82
				c-0.53-0.33-1.62-0.97-1.79-0.31c-0.94,3.61-3.16,1.27-4.79,1.09c-1.91-0.21-1.81,0.52-1.45,1.97c1.16,4.71,4.9,1.01,7.11,2.26
				c1.05,0.59,2.01,0.38,2.67-0.69C278.77,393.74,278.98,393.2,279.2,392.72z M382.59,269.02c-0.72-1.65-1.46-3.45-3.53-3.69
				c-1.68-0.19-4.02,2.78-3.88,4.52c0.18,2.42,2.27,2.55,3.76,2.61C380.92,272.55,382.22,271.14,382.59,269.02z M406.99,436.02
				c0.76,0.73-0.16,3.73,1.5,3.52c1.65-0.21,4.23-1.57,4.41-4.02c0.09-1.31-0.64-3.22-2.59-2.78
				C408.94,433.05,406.51,432.63,406.99,436.02z"/>
			<path class="st2" d="M59.28,248.37c3.17-5.36,7.35-9.93,11.57-14.44c9.25-9.89,18.38-19.9,29.37-27.96
				c3.51-2.58,7.14-4.97,11.1-6.79c1.94-0.89,3.03-2.16,3.32-4.36c3.89-29.02,17.27-52.81,39.09-72.27
				c15.36-13.7,33.17-22.16,53.31-24.65c41.52-5.14,77.18,5.95,103.11,40.64c8.99,12.03,14.77,25.53,14.65,40.92
				c-0.07,8.93-3.73,16.41-10.27,22.45c-3.56,3.28-8.1,4-12.67,4.57c-1.63,0.2-1.88-0.6-1.84-1.99c0.06-2.31-1.28-3.82-3.5-3.85
				c-2.28-0.03-3.27,1.55-3.52,3.84c-1.27,11.55,1.81,17.2,12.4,22.16c1.71,0.8,2.24,1.44,1.83,3.54
				c-0.97,4.94-2.28,9.75-3.87,14.51c-1.65,4.93-5.1,7.65-10.11,8.69c-8.23,1.71-16.62,1.85-24.93,2.58
				c-21.61,1.89-42.68,6.21-63.32,12.91c-29.14,9.46-58.4,18.56-87.59,27.9c-2.34,0.75-3.97,0.83-5.45-1.51
				c-1.23-1.95-3.55-2.83-6.04-4.56c7.07-1.8,12.55-6.26,19.51-7.2c3.2-0.43,6-2.18,8.79-3.73c17.65-9.78,36.84-15.09,56.35-19.5
				c18.41-4.17,37.12-6.33,55.77-9.04c10.62-1.54,21.14-3.76,30.74-8.9c4.7-2.51,9.44-5.29,9.19-11.64c-0.24-6-4.89-8.39-9.5-10.6
				c-2.53-1.21-5.17-2.18-8.27-3.48c6.37-1.89,11.34-4.99,15.5-9.36c1.54-1.62,1.76-3.56,0.13-5.22c-1.53-1.55-3.52-1.45-4.94,0.05
				c-6.51,6.93-15.21,8.8-23.96,9.78c-15.18,1.69-25.15,9.95-31.63,23.19c-1.45,2.97-3.13,5.9-4.03,9.05
				c-0.93,3.23-2.91,4-5.85,4.48c-22.89,3.73-45.51,8.57-67.13,17.25c-6.16,2.47-12.1,5.43-17.86,8.71
				c-3.19,1.82-6.12,1.84-9.46,0.49c-5.91-2.39-11.8-4.78-18.33-5.26c-8.67-0.64-16.53,1.36-24.08,6.3
				c-0.43-4.14,0.17-8.1-0.81-11.95c-1.54-6.07-4.39-11.26-9.38-15.14c-2.21-1.72-4.5-2.29-6.73,0.02
				C59.7,248.79,59.49,248.58,59.28,248.37z M209.43,217.63c13.47-0.5,25.61-5.41,34.98-16.38c13.15-15.37,9.66-36.63-7.69-46.88
				c-20.2-11.93-50.34-3-60.77,18.01c-6.47,13.02-3.71,26.83,7.35,36.35C190.58,214.99,199.28,217.33,209.43,217.63z M219.45,125.7
				c-4.48-0.05-8.94,0.24-13.35,0.97c-3.71,0.61-7.39,1.42-11.01,2.42c-2.18,0.6-3.64,2.19-2.77,4.68c0.77,2.21,2.6,2.78,4.75,2.19
				c5.19-1.41,10.51-2,15.81-2.8c19.27-2.88,38.76,6.5,47.98,23.6c5.08,9.42,8.31,19.43,8.91,30.24c0.41,7.39,6.87,11.75,13.2,8.79
				c6.39-2.98,10.11-8.38,11.59-15.26c0.48-2.22,0.13-4.34-2.44-4.9c-2.69-0.59-3.91,1.14-4.52,3.55c-0.86,3.42-2.7,6.31-5.34,8.62
				c-2.95,2.58-4.77,2.06-5.17-1.73c-0.83-7.88-2.64-15.47-5.31-22.93C263.32,139.6,243.76,125.53,219.45,125.7z M126.08,265.09
				c4.27-0.05,8.31-1.21,12.34-2.51c7.47-2.42,14.49-6,22.14-8.01c8.46-2.23,17.1-2.91,25.73-3.83c2.38-0.26,4.11-1.38,3.91-3.85
				c-0.2-2.44-2.02-3.32-4.45-3.22c-6.99,0.28-13.9,1.23-20.78,2.43c-9.29,1.62-17.84,5.47-26.57,8.8
				c-4.49,1.71-9.01,3.17-13.93,2.78c-2.77-0.22-3.76-1.24-2.43-3.96c1-2.04,1.74-4.21,2.68-6.29c3.71-8.18,4.32-16.78,3.39-25.54
				c-0.75-7.08-0.24-13.91,2.91-20.39c1.11-2.28,1.07-4.34-1.33-5.59c-2.39-1.25-3.92,0.33-5.04,2.21
				c-0.75,1.26-1.29,2.67-1.79,4.05c-2.82,7.75-2.3,15.78-1.81,23.76c0.38,6.15-0.28,12.07-2.68,17.79
				c-1.41,3.36-2.82,6.73-3.92,10.19c-1.36,4.26,0.52,7.99,4.62,9.81C121.29,264.73,123.63,265.21,126.08,265.09z M94.27,253.33
				c5.12,0.14,8.41-0.82,10.91-3.4c4.86-5.03,8.21-11.01,9.92-17.77c1.18-4.64-2.06-8.34-6.89-8.55c-3.21-0.13-6.18,0.71-8.84,2.32
				c-5.38,3.26-10.95,6.12-16.62,8.82c-2.6,1.24-4.8,3.05-6.21,5.71c-1.42,2.67-0.95,5,1.39,6.66
				C83.26,250.9,89.25,252.98,94.27,253.33z"/>
			<path class="st3" d="M360.45,362.33c-1.69-0.29-3.53-0.24-5.04-0.92c-6.82-3.07-12.86-0.3-18.67,2.62
				c-4.55,2.29-9.22,3.95-14.15,5c-0.33,0.07-0.76,0.18-1.02,0.05c-5.59-2.93-10.21,1.42-15.33,1.98c-1.92,0.21-1.91,0.93-1.61,2.72
				c1.07,6.41,6.28,6.78,10.94,7.64c2.48,0.45,3.54,1.23,3.84,3.8c0.33,2.8,1.16,5.5,4.03,7.15c1.97,1.13,2.94,3.14,2.78,5.56
				c-0.12,1.95,0.08,3.81,0.95,5.68c0.89,1.91-0.94,4.88-2.82,4.46c-2.78-0.62-5.62-0.83-8.36-1.52c-0.42-0.11-0.68-0.87-1.01-1.32
				c2.36-0.96,5.08-1.91,5.06-4.92c-0.02-2.98-2.91-3.48-5.1-4.39c-0.63-0.26-1.29-0.48-1.95-0.68c-2.46-0.77-4.65-1.98-6.29-4.02
				c-3.26-4.06-5.87-8.48-7.42-13.47c-3.82-12.37-7.65-24.73-11.42-37.12c-0.56-1.85-0.88-3.76-1.06-5.72
				c-0.38-4.1,1.76-7.23,3.43-10.61c0.84-1.71,1.89-3.8,0.13-5.42c-1.71-1.58-3.59-0.61-5.35,0.45c-4.32,2.6-8.71,5.04-13.62,6.48
				c-4.52,1.33-9.36,1.06-13.74,2.95c-1.9-2.2-1.3-4.62-0.44-6.93c0.83-2.23,2.3-4.37-1.55-5.23c-0.95-0.21-1.66-1.15-1.76-2.29
				c2.97,0.32,5.43-0.92,7.51-2.78c4.95-4.43,9.45-9.45,14.73-13.43c12.12-9.13,26.38-11.5,41.16-11.86
				c7.81-0.19,12.3,2.6,14.12,11.78c0.63,3.15,2.19,4.57,5.39,4.45c8.01-0.32,15.97-0.73,23.57-3.81c3.58-1.45,6.33-3.61,8.23-6.92
				c2.18-3.8,1.62-5.53-2.59-6.41c-7.61-1.59-12.8-5.85-16.59-12.64c-3.27-5.85-6.46-11.88-11.52-16.54c0.48-2.13,2.15-2.13,3.78-2
				c1.01,0.08,2,0.45,3,0.69c3.42,0.8,4.74,0.1,5.6-3.38c0.35-1.41,1.18-2.06,2.34-2.04c1.46,0.02,1.03,1.15,0.76,2.04
				c-0.21,0.71,0.17,1.04,0.78,1.25c3.03,1.02,2.62,3.62,2.24,5.77c-1.29,7.11,0.52,11.06,7.09,14.58c3.45,1.84,6.76,3.84,9.47,6.74
				c3.78,4.05,4.69,9.38,2.15,14.24c-1,1.92-1.03,3.17,0.33,5.13c2.19,3.15,1.39,6.84-0.08,10.19c-1.66,3.79-3.85,7.28-6.79,10.26
				c-0.59,0.6-1.75,1.09-1.25,2.18c0.4,0.86,1.44,0.45,2.2,0.48c8.85,0.34,15.36,5.1,18.22,13.5c0.72,2.11,2.46,3.95,1.86,6.45
				c-5.19,2.23-5.97,4.72-3.11,9.59c2.12,3.61,4.67,6.94,4.6,11.57c-0.04,2.77,2.45,3.72,5.03,2.45c1.43-0.7,2.34-1.86,2.77-3.35
				c1.41-4.82,5.14-7.34,9.24-9.59c6.17-3.37,12.32-6.48,19.44-2.52c0.47,0.26,1.12,0.22,1.69,0.27c2.87,0.25,5.6-0.04,7.29-2.75
				c1.63-2.62,0.11-4.83-1.22-6.97c-2.24-3.61-4.56-7.23-4.33-11.68c0.14-2.74-0.87-4.35-3.46-5.06c0.74-2.22,2.72-1.72,4.35-1.98
				c3.41,9,7.5,17.79,8.87,27.45c-0.9,4.53-5.31,7.46-11.41,7.84c-2.37,0.15-5.1-1.1-7.01,1.54c-0.41,0.56-0.99,0-1.41-0.42
				c-2.62-2.59-7.99-2.62-10.85,0.13c-1.73,1.66-3.18,3.6-4.75,5.41c-0.59,0.68-1.54,1.31-1,2.33c0.46,0.86,1.59,1.09,2.41,1.04
				c1.62-0.1,3.3-0.48,4.11,1.34c0.47,1.06-0.32,2.05-1.25,2.58c-1.81,1.05-2.97-0.37-4.22-1.32c-2.67-2.04-7.02-1.24-8.58,1.58
				c-0.4,0.71-0.01,1.31,0.2,1.96c2.28,6.9,5.46,13.33,9.81,19.17c0.75,1,1.65,2.01,2.7,2.63c1.65,0.98,3.04,3.52,4.8,2.87
				c1.79-0.66,0.53-3.26,0.79-4.99c0.43-2.85,3.23-3.97,4.62-6.56c-3.64,0.76-4.96-1.93-7.04-3.91c-2.7-2.57-2.81-5.08-1.39-8
				c0.69-1.43-0.28-3.21,1.3-4.45c2.48-1.94,4.74-3.47,7.67-0.63c1.54,1.49,3.52,2.23,5.61,0.71c0.38-0.27,1.03-0.61,1.19-0.21
				c1.22,2.99,4.98,3.6,6.11,6.72c0.93,2.58-0.44,4.11-2.23,5.31c-3.37,2.28-3.39,2.15-0.33,4.82c3.94,3.45,6.7,7.35,4.63,12.99
				c-0.51,1.38,1.36,2.09,1.24,3.43c-7.1,2.54-10.64,8.38-13.68,14.69c-1.89-2.26-5.03-3.42-5.82-6.65
				c1.22-2.36,0.15-4.02-1.82-5.15c-1.68-0.96-3.51-1.7-5.33-2.39c-4.48-1.71-7.69-4.81-10.29-8.75c-2.22-3.37-3.95-6.95-5.35-10.7
				c-3.43-9.18-8.04-17.88-9.96-27.69c-1.25-6.39-1.66-12.9-3.38-19.21c-2.15-7.91-6.22-11.1-14.4-10.6
				c-7.12,0.44-12.82,4.14-17.98,8.59c-7.98,6.89-15.67,14.12-24.1,20.48c-1.55,1.17-3.04,2.43-4.5,3.73
				c-0.98,0.87-1.85,2.04-0.89,3.29c0.82,1.08,2.22,1.13,3.47,0.6c1.37-0.58,2.73-1.19,4-1.94c4.85-2.86,9.83-5.38,15.36-6.74
				C350.07,353.02,355.93,355.24,360.45,362.33z M335.67,306.76c-2.69,0.05-5.5,0.51-7.66-1.7c-2.08-2.12-4.47-3.95-6.1-6.51
				c-1.46-2.29-3.43-3.24-6.31-3.3c-2.4-0.05-2.71,2.57-3.42,2.59c-4.25,0.13-6.39,4.39-10.39,4.89c-0.92,0.11-1.38,0.91-1.89-0.47
				c-0.65-1.74-2.45-3.06-3.86-2.96c-1.44,0.1-1.71,2.46-2.09,3.91c-0.57,2.15-1.96,3.06-3.9,3.16c-2.28,0.11-4.62,0.16-6.84-0.24
				c-1.43-0.26-2.34-0.12-3.38,0.82c-2.54,2.3-4.99,4.76-7.81,6.66c-3.68,2.48-3.79,2.48-0.38,5.48c1.06,0.93,1.9,1.03,3.04,0.36
				c2.07-1.2,4.15-2.37,6.17-3.65c3.48-2.21,7.25-4.73,11.69-1.79c1.53,1.01,2.53,0.71,3.51-1.11c0.89-1.68,2.16-3.73,4.81-2.49
				c2.17,1.02,3.17,3.56,5.57,4.32c0.23,0.07,0.4,0.83,0.33,1.22c-0.34,1.81-4.97,4.98-6.55,4.07c-3.34-1.92-2.92,0.17-2.94,2.23
				c-0.01,1.01-0.15,2.06-0.44,3.03c-1.8,6.19-2.84,12.45-2.32,18.93c0.13,1.61-0.01,3.24,1.58,4.28c0.01,1.12-0.43,2.44,0.77,3.16
				c4.76,2.85,4.85,6.99,3.47,11.67c-0.61,2.08,0.5,2.88,2.54,3.01c3.62,0.23,6-2,8.44-4.06c10.41-8.83,20.63-17.85,30.24-27.59
				c8.06-8.16,17.08-15.34,25.06-23.6c2.18-2.25,3.99-4.8,4.3-8.04c0.35-3.6-1.58-4.96-4.82-3.44c-2.07,0.98-4,2.27-6.08,3.22
				c-5.36,2.46-10.75,4.67-16.86,2.53C340.47,304.42,337.92,305.04,335.67,306.76z"/>
			<path class="st2" d="M260.78,449.37c-7.88,0.85-15.23,1.66-22.58,2.42c-2.69,0.28-5.15,1.04-7.06,3.03
				c-6.19,6.43-13.7,10.98-21.53,15.04c-7.33,3.81-14.56,4.12-21.5-1.09c-3.56-2.67-5.12-6.35-5.23-10.64
				c-0.1-3.65,0.1-7.28,0.51-10.95c0.82-7.31-1.48-13.93-5.89-19.82c-5.62-7.51-5.11-14.48,1.26-21.55
				c5.18-5.75,11.38-5.79,18.21-4.01c6.16,1.61,11.3,4.9,15.67,9.29c6.11,6.14,13.45,7.87,21.69,6.82c2.13-0.27,3.26,0.27,4.31,2.2
				c5.2,9.48,11.5,18.18,19.2,25.82C258.8,446.89,259.61,448,260.78,449.37z"/>
			<path class="st2" d="M487.15,412.63c4.65,0.91,5.25,0.46,5.19-3.63c-0.09-6.68,1.29-13.13,3.07-19.5
				c0.45-1.59,1.21-3.17,2.77-4.56c1.63,3.66,2.02,7.46,3.1,11.05c1.18,3.92,2.5,7.76,4.65,11.28c1.04,1.7,2.21,3.35,4.07,4.04
				c2.82,1.05,2.87,2.55,1.76,5.05c-6.14,13.84-2.37,25.99,6.74,37.09c1.89,2.3,3.91,4.53,6.09,6.54c1.39,1.28,1.41,1.72-0.15,2.93
				c-6.18,4.81-13.39,7.08-20.81,8.84c-4.43,1.05-8.85,2.08-13.47,2.17c-2.07,0.04-3.07-0.78-3.95-2.43
				c-2.46-4.65-3.11-9.69-3.51-14.83c-0.49-6.44,0.78-12.79,0.73-19.21c-0.03-4.45-0.91-8.64-3.28-12.37
				c-0.91-1.42-0.7-2.27,0.4-3.13c1.34-1.05,2.65-2.46,4.2-2.88C488.37,418.11,489.11,416.21,487.15,412.63z"/>
			<path class="st2" d="M59.91,249c-0.85,1.95-0.42,3.67,1.22,4.91c8.34,6.29,9.6,14.76,7.5,24.24c-0.49,2.21-1.27,4.37-1.97,6.53
				c-0.68,2.08-1.07,4.22,1.13,5.52c2.11,1.24,3.94,0.2,5.49-1.43c5.22-5.47,11.08-9.81,18.74-11.4c6.93-1.44,13.36-0.05,20.01,2.63
				c-1.16,1.43-2.73,1.71-4.09,2.27c-11.09,4.54-22.24,8.87-31.77,16.51c-9.92,7.95-15.32,18.26-17.4,30.57
				c-0.6,3.57-1.13,7.16-2.4,10.64c-1.58-0.33-1.98-1.65-2.48-2.71c-13.84-29.7-14.31-58.82,3.85-87.1
				c0.42-0.66,1.02-1.21,1.54-1.81C59.49,248.58,59.7,248.79,59.91,249z"/>
			<path class="st2" d="M441.34,421.67c0.49,2.86-0.86,5.82-0.72,8.94c0.27,6.22,3.71,9.74,9.88,9.58c2.72-0.07,5.48-0.29,8.13-0.89
				c3.18-0.73,3.21,0.99,2.99,3.17c-0.56,5.68-2.68,11-3.83,16.55c-1.21,5.84-2.07,11.72-1.85,17.65c0.12,3.4-1.37,4.93-4.28,5.35
				c-3.53,0.5-6.86,1.53-10.07,2.98c-2.32,1.05-4.47,0.65-6.6-0.3c-3.95-1.75-7.5-4.33-11.7-5.56c-1-0.29-1.42-1.05-1.2-2.13
				c1.46-7.3,0.41-14.6-0.12-21.88c-0.45-6.21,0.74-11.6,6.53-15.09c1.56-0.95,1.14-2.63,1.11-4.07
				c-0.15-6.87,1.75-13.25,4.68-19.35c0.89-1.85,2.19-4.61,4.24-4.06c2.03,0.54,2.78,3.35,2.81,5.75
				C441.35,419.34,441.34,420.37,441.34,421.67z"/>
			<path class="st2" d="M516.8,358.74c1.9,3.44,3.41,6.08,4.83,8.77c5.33,10.05,10.83,20.02,15.86,30.22
				c3.09,6.27,4.69,13.1,3.87,20.18c-0.77,6.66-4.58,9.22-11.18,8.28c-2.93-0.42-4.82-1.25-5.34-4.63
				c-0.9-5.85-4.04-10.83-7.21-15.71c-3.67-5.64-5.73-11.82-6.55-18.44c-0.3-2.46,0.04-4.95,2.14-6.53c2.27-1.7,2.64-3.82,2.31-6.36
				C514.86,369.47,515.08,364.49,516.8,358.74z"/>
			<path class="st2" d="M407.19,450.26c-0.96,3.92-3.08,6.52-4.81,9.29c-2.07,3.31-2.32,6.51-0.39,9.96c0.88,1.57,1.64,3.27,2.08,5
				c1.3,5.11-0.69,8-5.97,8.23c-3.86,0.17-7.77,0.51-11.63-0.45c-2.64-0.66-5.2,0.48-7.79,0.76c-3.72,0.41-5.47-0.72-6.39-4.32
				c-2.24-8.76,1.77-15.73,6.45-22.5c1.23-1.78,2.52-3.57,4.64-4.44c1.43-0.59,1.62-1.75,1.55-3.09c-0.09-1.7-0.21-3.37,0.43-5.07
				c0.44-1.15,0.71-2.21,2.17-2.16c1.45,0.05,1.78,1.19,2.09,2.31c0.09,0.33,0.1,0.68,0.19,1.01c2.12,7.61,4.55,7.56,11.71,6.72
				C403.29,451.3,405.01,450.75,407.19,450.26z"/>
			<path class="st2" d="M339.91,437.34c1.88-0.17,3.55,0.65,5.31,1.09c4.24,1.07,8.25,0.86,11.25-2.78
				c1.93-2.34,3.44-1.54,4.93,0.25c2.06,2.49,2.97,5.57,4.16,8.51c0.56,1.37-0.37,1.81-1.13,2.46c-8.25,7.02-10.63,15.56-6.93,25.69
				c0.88,2.41,0.04,3.27-2.12,3.32c-3.1,0.06-6.12-0.55-8.96-1.8c-3.26-1.43-6.54-2.36-10.18-2.44c-5.19-0.11-5.95-1.54-4.07-6.32
				c2.76-7,4.18-14.09,2.39-21.65C333.49,439.14,335.26,437.32,339.91,437.34z"/>
			<path class="st2" d="M226.33,246.69c2.83-7.19,6-13.35,10.63-18.67c4.86-5.57,10.61-8.07,18.27-6.6
				c6.98,1.34,13.86,2.75,20.19,6.01c4.84,2.49,4.88,4.47,0.22,7.35c-6.49,4.01-13.75,5.96-21.12,7.57
				C245.38,244.35,236.09,245.3,226.33,246.69z"/>
			<path class="st2" d="M65.7,333.01c1.61-16.76,10.61-27.91,25.04-34.94c4.43-2.16,9.34-2.21,13.84,0.39
				c4.35,2.52,4.53,6.78-0.08,8.39c-12.41,4.33-22.1,12.11-30.62,21.79C71.87,330.93,69.19,332.68,65.7,333.01z"/>
			<path class="st2" d="M259.24,475.66c3.1-6.3,6.36-12.17,14.16-13.47c4.71-0.79,7.9-3.65,10.21-7.78
				c1.61-2.87,3.53-6.42,7.25-5.89c3.85,0.55,4.02,4.85,4.87,7.85c0.82,2.9,2.64,6.55,1.22,8.85c-1.58,2.56-5.6,0.64-8.53,0.97
				c-4.75,0.54-9.06,1.94-13.05,4.56C269.99,474.28,264.14,476.02,259.24,475.66z"/>
			<path class="st2" d="M306.65,441.47c3.71,0.35,6.72-0.73,9.7-2.29c2.68-1.41,5.4,0.53,5.69,3.8c0.19,2.08-0.45,4.07-1.09,6
				c-1.4,4.24-0.9,8.24,0.99,12.24c1.81,3.81,1.7,3.81-2.7,3.7c-2.39-0.06-4.81-0.4-7.15,0.49c-1.33,0.51-1.85-0.02-1.76-1.47
				C310.8,456.32,309.4,448.98,306.65,441.47z"/>
			<path class="st2" d="M474.42,450.99c-0.21,5.68-0.14,13.07,2.69,20.14c0.59,1.46,0.37,2.48-1.59,2.86c-3,0.58-5.96,1.4-8.87,2.33
				c-1.78,0.57-1.84-0.22-1.92-1.6c-0.25-4.33,1.85-8.17,2.45-12.32c0.57-3.93,1.88-7.7,2.55-11.63c0.74-4.3,0.45-8.39-0.71-12.5
				c-0.79-2.79,1.44-3.04,3.05-3.49c2.37-0.66,2.23,1.5,2.28,2.75C474.53,441.44,474.42,445.34,474.42,450.99z"/>
			<path class="st2" d="M439.24,202.78c-7.86-3.9-15.2-8.33-23.47-10.78c-1.54-0.46-1.46-1.19-0.5-2.12
				c2.96-2.86,5.83-5.84,9.31-8.11c1.53-1,3.36-1.47,4.69,0.1C434.4,187.94,437.1,195.21,439.24,202.78z"/>
			<path class="st2" d="M347.53,185.86c2.25-4.54,4.6-8.67,8.27-11.82c3.2-2.75,6.34-2.07,8.27,1.75c2.66,5.26,6.05,9.78,11.46,12.7
				C366.25,187.7,357.1,186.2,347.53,185.86z"/>
			<path class="st2" d="M501.32,262.49c-3.91-7.32-8.26-14.09-13.32-20.45c7.03-2.34,10.55-2.39,14.07,2
				c0.62,0.78,1.55,1.33,2.39,1.92c3.5,2.46,4,4.24,2.29,8.85C505.69,257.67,503.66,260.03,501.32,262.49z"/>
			<path class="st3" d="M260.72,438.03c1.59-1.48-1.04-2.6-0.23-4.34c1.94-4.16,5.9-5.81,10.44-4.34c3.52,1.14,3.28,3.96,3.53,6.52
				c0.32,3.4-2.38,4.84-4.77,6.36c-1.11,0.71-2.8,0.42-3.43,1.97C264.42,442.15,262.57,440.09,260.72,438.03z"/>
			<path class="st2" d="M517.19,432.35c6.67,0.78,12.88,1.89,19.93,1.64c-4.39,4.67-7.38,9.52-12.15,12.9
				C521.22,442.92,518.7,438.31,517.19,432.35z"/>
			<path class="st3" d="M226.28,333.97c1.53-1,2.84-2.24,4.76-2.75c2.03-0.54,4.11-0.91,5.46,0.56c1.56,1.69,2.77,3.99,1.45,6.49
				c-1.35,2.54-2.65,5.15-6.26,5.07c-2.94-0.06-4.35-1.54-4.72-4.28c-0.15-1.09,0.32-2.34-0.87-3.15
				C226.16,335.27,226.22,334.62,226.28,333.97z"/>
			<path class="st3" d="M485.67,251.54c-3.2,2.96-6.24,2.56-9.12-0.19c-3.9-3.73-3.03-7.3-0.69-11.18
				C479.69,243.48,483.21,247.05,485.67,251.54z"/>
			<path class="st2" d="M506.81,301c-0.26-5.51-0.42-10.29-0.73-15.07c-0.12-1.77,0.33-2.28,2.05-1.64c1.06,0.4,2.23,0.47,3.29,0.86
				c1.86,0.68,2.68,1.69,1.82,3.93C511.7,293.12,509.52,296.76,506.81,301z"/>
			<path class="st2" d="M513.9,333.03c-1.25-3.06-0.55-6.16-1.44-9.02c-0.18-0.58-0.32-1.55,0.67-1.59
				c2.16-0.09,4.48-0.12,6.04,1.62c1.52,1.68,0.91,3.61-0.21,5.35C517.78,331.19,515.94,332.1,513.9,333.03z"/>
			<path class="st3" d="M436.64,210.54c-2.36,1.38-4.7,2.49-7.03-0.11c-0.26-0.29-0.81-0.35-1.25-0.46
				c-5.14-1.25-5.77-2.06-5.54-7.12C427.7,204.94,432.31,207.49,436.64,210.54z"/>
			<path class="st3" d="M294.65,436c-1.42-1.51-4.53-2.9,0.2-4.41c1.09-0.35,1.35-2.83,2.96-3.61c0.49-0.24,0.86-0.75,1.35-0.91
				c4.27-1.45,4.95-0.89,5.02,3.97C300.34,431.42,296.68,432.14,294.65,436z"/>
			<path class="st2" d="M371.22,452.38c-2.73,6-4.85,11.56-5.9,17.53C362.11,462.86,364.38,456.53,371.22,452.38z"/>
			<path class="st3" d="M495.18,376.16c-0.19-6.02,1.74-7.27,7.59-4.95c0.01,0.68-0.03,1.37,0.05,2.04
				c0.31,2.55-0.29,3.77-3.24,2.85C498.25,375.68,496.66,376.11,495.18,376.16z"/>
			<path class="st2" d="M412.5,472.48c-0.31-0.6-0.6-1.21-0.94-1.8c-3.51-6-3.51-6,1.7-12.54c0,5.35,0,9.83,0,14.31
				C413,472.46,412.75,472.47,412.5,472.48z"/>
			<path class="st3" d="M269.04,263.18c-0.01,0.45,0.06,0.93-0.04,1.36c-0.48,1.93,1.29,4.48-1.36,5.75
				c-0.96,0.46-5.99-4.72-6.23-6.18C263.95,263.8,266.49,263.49,269.04,263.18z"/>
			<path class="st4" d="M412.5,472.48c0.25-0.01,0.51-0.02,0.76-0.03c0.54,4.37,0.96,8.76,3.13,12.92
				c-2.46,0.27-4.56,0.65-6.54-0.85C412.5,480.87,414.17,477.02,412.5,472.48z"/>
			<path class="st3" d="M241.02,407.95c1.57-0.22,3.21-0.74,4.62,0.33c2.85,2.16,2.3,4.28-1.55,6.34
				C242.46,412.68,241.63,410.37,241.02,407.95z"/>
			<path class="st4" d="M380.3,188.83c2.9,1.65,6.65-2.89,9.12,1.9c-3.15-0.36-6.3-0.71-9.46-1.07
				C380.07,189.38,380.19,189.1,380.3,188.83z"/>
			<path class="st2" d="M464.74,220.69c1.24-1.09,2.5-1.75,3.78-1.06c1.8,0.97,0.94,2.78,0.98,4.52
				C467.54,223.38,466.27,221.99,464.74,220.69z"/>
			<path class="st4" d="M440.8,349.61c-1.38-9.66-5.46-18.45-8.87-27.45c-1.79-7.1-5.12-13.56-8.26-20.11
				c-0.3-0.62-0.62-1.22-1.33-1.48c-0.66-3.25-2.39-5.99-4.21-8.69c-4.21-8.68-9.99-16.32-15.61-24.11
				c-4.38-6.08-10.54-8.94-17.03-11.59c-3.53-1.44-6.75-3.43-9.75-5.73c-3.3-2.53-4.76-6.02-4.35-10.21
				c1.06-2.82,3.13-4.67,5.69-6.14c4.21-2.42,8.94-2.65,13.56-3.29c7.6-1.05,8.72-2.12,9.71-9.78c0.81-1.04,1.63-2.08,2.44-3.12
				c5.6-1.33,10.39,0.93,15.04,3.53c5.06,2.82,7.18,7.05,5.16,12.59c-3.35,9.2-1.82,18.01,3.6,26.22
				c5.74,8.7,11.05,17.67,15.63,27.06c7.79,15.97,12.9,33.03,20.36,49.12c4,8.62,8.53,16.95,16.93,22.45
				c4.71,3.08,5.22,7.46,2.18,12.23c-3.85,3.06-8.14,5.45-12.32,8.01c-2.84,1.74-4.39,4.61-6.49,7c-2.95,3.36-5.85,6.74-9.59,9.27
				c-2.35,1.59-4.91,1.98-7.48,0.69c-2.63-1.31-2.7-3.9-2.41-6.29c0.62-5.21,1.34-10.41,2.3-15.57c1.03-5.46,0.53-10.72-1.49-15.82
				C443.06,355.49,443.07,352.1,440.8,349.61z"/>
			<path class="st4" d="M337.94,256.12c5.06,4.66,8.26,10.69,11.52,16.54c3.79,6.79,8.98,11.05,16.59,12.64
				c4.21,0.88,4.77,2.62,2.59,6.41c-1.9,3.31-4.64,5.47-8.23,6.92c-7.6,3.08-15.56,3.49-23.57,3.81c-3.2,0.13-4.76-1.3-5.39-4.45
				c-1.82-9.18-6.31-11.98-14.12-11.78c-14.78,0.36-29.04,2.73-41.16,11.86c-5.28,3.98-9.78,9-14.73,13.43
				c-2.08,1.86-4.55,3.1-7.51,2.78c-3.91-2.8-4.78-5.04-3.23-9.65c0.86-2.58,2.02-5.11,3.36-7.48c2.5-4.42,3.4-9.15,3.31-14.14
				c0.69-1.11,1.37-2.21,2.06-3.32c8.52-7.38,19.22-7.49,29.56-9.06c14.19-2.16,27.85-6.14,40.3-13.56
				C332.04,255.42,334.82,254.3,337.94,256.12z"/>
			<path class="st4" d="M360.45,362.33c-4.53-7.09-10.39-9.31-18.59-7.28c-5.53,1.37-10.51,3.88-15.36,6.74
				c-1.27,0.75-2.64,1.37-4,1.94c-1.25,0.53-2.65,0.47-3.47-0.6c-0.95-1.24-0.09-2.41,0.89-3.29c1.46-1.29,2.94-2.55,4.5-3.73
				c8.43-6.37,16.12-13.6,24.1-20.48c5.16-4.45,10.86-8.15,17.98-8.59c8.17-0.51,12.24,2.69,14.4,10.6
				c1.72,6.31,2.13,12.83,3.38,19.21c1.92,9.82,6.53,18.51,9.96,27.69c1.4,3.76,3.13,7.34,5.35,10.7c2.6,3.94,5.81,7.04,10.29,8.75
				c1.82,0.69,3.64,1.43,5.33,2.39c1.98,1.13,3.04,2.79,1.82,5.15c-2.4,1.79-5.28,2.34-8.09,3.06c-3.52-0.1-7,0.15-10.38,1.2
				c-3.87-0.03-6.99,1.86-10.11,3.85c-3.27,2.08-6.41,4.52-10.36,5.18c-1.6,0.27-3.68,0.88-4.66-1.04
				c-0.96-1.89,0.52-3.35,1.86-4.35c2.96-2.19,3.28-4.67,2.11-8.08c-2.23-6.46-3.99-13.08-6-19.62c-0.32-1.05-0.35-2.33-1.62-2.87
				c-0.05-0.38-0.1-0.77-0.14-1.15c-0.23-1.68-0.2-3.44-1.54-4.76c0.32-1.36-0.54-2.38-1.02-3.51
				C366.19,373.24,363.2,367.83,360.45,362.33z"/>
			<path class="st4" d="M257.67,328.74c4.38-1.89,9.22-1.62,13.74-2.95c4.9-1.44,9.3-3.88,13.62-6.48c1.76-1.06,3.64-2.04,5.35-0.45
				c1.76,1.63,0.71,3.72-0.13,5.42c-1.67,3.38-3.81,6.52-3.43,10.61c0.18,1.96,0.5,3.88,1.06,5.72
				c3.76,12.39,7.59,24.75,11.42,37.12c1.54,5,4.16,9.42,7.42,13.47c1.64,2.04,3.83,3.25,6.29,4.02c0.66,0.21,1.31,0.42,1.95,0.68
				c2.19,0.91,5.08,1.42,5.1,4.39c0.02,3.01-2.7,3.96-5.06,4.92c-5.42,1.36-11.08,1.72-16.2,4.3c-2.19,1.11-4.03,2.6-5.82,4.19
				c-2.35,2.09-4.98,3.71-7.92,4.73c-1.56,0.54-3.26,0.54-4.36-1.02c-1.03-1.47-0.55-3.18,0.58-4.08c4.29-3.39,3.26-7.33,2.05-11.74
				c-3.38-12.34-6.41-24.77-9.6-37.16c-0.08-0.31-0.36-0.56-0.55-0.84c0.02-2.5-1.3-4.63-1.89-6.96c-2.28-6.93-3.9-14.2-9.57-19.45
				c-0.75-0.7-1.55-1.38-2.42-1.9C255.94,333.25,255.66,332.22,257.67,328.74z"/>
			<path class="st3" d="M481.69,371.12c3.04-4.78,2.54-9.15-2.18-12.23c-8.4-5.5-12.93-13.82-16.93-22.45
				c-7.46-16.08-12.57-33.15-20.36-49.12c-4.58-9.39-9.89-18.36-15.63-27.06c-5.42-8.22-6.96-17.02-3.6-26.22
				c2.02-5.55-0.1-9.77-5.16-12.59c-4.65-2.6-9.44-4.86-15.04-3.53c1.56-3.75,4.91-4.87,8.44-5.63c6.92-1.5,19.19,2.56,21.47,11.95
				c0.88,3.62,0.47,7.17-0.72,10.45c-2.93,8.13-0.79,14.91,3.8,21.88c11.95,18.1,21.82,37.3,28.89,57.87
				c2.3,6.7,4.92,13.3,7.57,19.87c2.73,6.77,6.86,12.57,12.18,17.66c5.64,5.41,5.9,11.3,1.32,17.14
				C484.72,370.41,483.57,371.53,481.69,371.12z"/>
			<path class="st4" d="M427.58,324.14c2.59,0.71,3.6,2.32,3.46,5.06c-0.23,4.45,2.09,8.07,4.33,11.68
				c1.33,2.14,2.85,4.35,1.22,6.97c-1.69,2.71-4.42,3-7.29,2.75c-0.57-0.05-1.22-0.01-1.69-0.27c-7.12-3.96-13.27-0.85-19.44,2.52
				c-4.1,2.24-7.83,4.77-9.24,9.59c-0.44,1.49-1.35,2.65-2.77,3.35c-2.58,1.27-5.07,0.32-5.03-2.45c0.07-4.63-2.47-7.97-4.6-11.57
				c-2.87-4.87-2.08-7.36,3.11-9.59c2.78-0.09,5.51,0.01,7.93,1.68c1.32,0.91,2.68,0.41,3.93-0.19c6.7-3.21,13.48-6.15,17.71-12.97
				C421.04,327.73,423.4,324.53,427.58,324.14z"/>
			<path class="st3" d="M400.34,221.04c-0.98,7.65-2.1,8.73-9.71,9.78c-4.62,0.64-9.35,0.87-13.56,3.29
				c-2.56,1.47-4.62,3.32-5.69,6.14c-3.53,0.81-7.08,1.51-10.57,2.56c-2.7,0.82-4.27-1.87-6.2-3.03c-3.51-2.1-4.36-9.47-1.97-13.03
				c3.01-4.48,8.59-5.56,13.08-3.46c3.68,1.72,5.39,4.28,5.97,7.98c0.13,0.84,0.35,1.6,1.21,1.9c1.22,0.43,1.49-0.72,2.11-1.32
				c1.09-1.07,1.83-2.34,2.4-3.73c1.25-3.07,0.72-3.84-2.54-3.72c-2.92,0.11-4.58-1.31-4.53-3.88c0.04-2.28,2.99-5.62,4.89-5.55
				c1.97,0.08,4.17,2.97,4.04,5.31c-0.24,4.3,1.61,5.78,5.83,4.29C390.07,222.83,394.97,220.97,400.34,221.04z"/>
			<path class="st3" d="M402.35,288.86c-2.75,0.15-4.57,1.42-6.88,0.59c-1.79-0.64-2.66,0.75-3.06,2.37
				c-0.48,1.96-1.21,3.16-3.06,1.02c-0.37-0.42-0.82-0.95-1.41-0.41c-0.51,0.46-0.28,1.07,0.06,1.55c0.33,0.47,1.13,0.97,1.05,1.29
				c-0.96,3.81-0.93,7.45,1.14,10.96c0.27,0.46-0.44,1.31-1.26,1.29c-0.91-0.01-1.72-0.77-1.73-1.43c-0.02-3.24-2.61-4.46-4.5-6.32
				c-3.08-3.02-2.67-5.18,1.13-7.16c2.39-1.24,2.77-5.56,0.42-6.76c-1.15-0.59-1.57-1.12-1.49-2.27c0.07-0.97,0.73-1.47,1.53-1.62
				c1.57-0.3,0.99,1.15,1.34,1.84c0.68,1.32,1.85,1.61,2.82,0.7c1.67-1.57,4.03-2.93,3.48-5.77c-0.28-1.45,0.26-1.73,1.48-2.01
				c2.79-0.64,5.38-0.19,7.19,1.93c1.54,1.8,0.83,3.74-0.7,5.54C397.99,286.48,400.42,287.4,402.35,288.86z"/>
			<path class="st3" d="M367.09,379.45c0.48,1.13,1.34,2.15,1.02,3.51c-0.07,1.78-0.66,3.72,1.54,4.76
				c0.05,0.38,0.09,0.77,0.14,1.15c0.8,5.06,0.26,5.62-5.18,4.83c-0.99-0.14-1.76-0.28-2.48,0.51c-1.7,1.86-3.37,1.11-4.76-0.3
				c-1.34-1.36-2.55-2.8-4.06-4.04c-1.67-1.39-0.73-3.94,1.44-3.87c1.5,0.05,1.71-0.47,2.05-1.5c0.31-0.92,0.42-1.49-0.52-2.33
				c-2.02-1.8-2.34-8.09-0.7-10.15c0.83-1.05,1.8-1.06,2.46,0.17c1.59,2.96,3.03,5.96,7.31,5.36
				C366.29,377.42,366.01,379.24,367.09,379.45z"/>
			<path class="st3" d="M468.22,263.53c0.01-3.55,2.55-6.02,6.72-6.46c1.14-0.12,1.85,0.19,2.47-1.34c0.72-1.79,2.75-1.17,2.92,0.31
				c0.26,2.28,1.68,3.94,2.19,5.93c0.5,1.93,1.05,4.12-0.43,6.17c-0.76,1.05-0.84,2.34,0.03,3.81c1.43,2.42,0.58,4.71-1.78,6.13
				c-2.42,1.46-4.22,0.68-5.6-1.84c-1.64-3.01-3.51-5.91-5.43-8.77C468.43,266.15,468.06,264.82,468.22,263.53z"/>
			<path class="st3" d="M348.97,242.7c-0.01,3.97-3.25,6.63-7.94,6.52c-2.09-0.05-5.74-3.38-5.62-5.13
				c0.19-2.83,4.97-7.93,7.35-7.84C345.92,236.37,348.98,239.55,348.97,242.7z"/>
			<path class="st3" d="M418.12,291.89c1.82,2.69,3.55,5.43,4.21,8.69c-2.66,3.41-5.78,4.12-8.68,1.84
				c-2.01-1.57-4.41-3.83-3.99-6.04C410.37,292.72,413.63,291.47,418.12,291.89z"/>
			<path class="st3" d="M242.8,325.44c0.32,1.69-0.6,3.01-2.04,3.87c-1.46,0.88-3.1,0.93-4.48-0.23c-0.95-0.8-1.59-1.25-2.95-0.46
				c-0.8,0.46-1.79-0.83-2.08-1.8c-0.32-1.07,0.25-1.16,1.36-1.54c2.17-0.74,0.21-1.99-0.34-2.81c-1.84-2.75-1.4-3.95,1.78-4.81
				c1.51-0.4,2.55-0.06,2.95,1.41c0.45,1.64,1.23,2.48,3.07,2.57C242.23,321.74,242.9,323.32,242.8,325.44z"/>
			<path class="st3" d="M244.55,289.19c-3.96,0.06-5.22-1.81-3.79-5.49c0.48-1.25,0.94-2.08-0.67-3.06
				c-1.43-0.88-0.77-2.68-0.46-4.08c0.2-0.87,1.05-1.18,1.91-1.1c1.31,0.13,2.41,0.59,2.76,2.08c0.49,2.09,2.2,3.37,3.45,4.94
				c1.05,1.32,1.67,2.61,0.74,4.35C247.56,288.55,246.34,289.44,244.55,289.19z"/>
			<path class="st3" d="M258.28,388.18c4.57-0.2,5.8,1.19,4.74,5.4c-0.25,1.01,0.1,1.42,1,1.79c0.83,0.33,1.56,0.92,2.35,1.38
				c1.19,0.68,1.63,1.8,1,2.9c-0.98,1.71-2.96,1.55-4.56,1.62c-1.22,0.05-1.45-1.29-1.34-2.37c0.08-0.78,0.42-1.54,0.54-2.32
				c0.18-1.2-0.03-1.91-1.61-1.8c-2.14,0.15-5.62-4.16-5.01-6.13C255.96,386.83,257.33,388.51,258.28,388.18z"/>
			<path class="st3" d="M271.27,356.64c0.6,2.33,1.91,4.46,1.89,6.96c-3.09,0.77-5.48,0.28-6.84-3.08
				c-0.56-1.38-4.09-1.12-4.94,0.27c-0.69,1.12-1.29,2.25-2.84,1.94c-0.72-0.15-1.1-0.77-1.19-1.51c-0.19-1.6,0.73-2.22,2.13-2.57
				c1.02-0.26,1.72-0.9,2.12-2.02c0.54-1.52,2.51-1.82,3.1-1.06C266.71,358.14,269.11,356.32,271.27,356.64z"/>
			<path class="st3" d="M259.42,279.68c-0.69,1.11-1.37,2.21-2.06,3.32c-0.45,0.09-0.9,0.16-1.34,0.28
				c-4.02,1.1-4.88,0.68-5.58-2.76c-0.54-2.66,1.53-6.1,3.89-6.47c2.18-0.34,4.55,1.82,5.01,4.6
				C259.41,278.99,259.4,279.34,259.42,279.68z"/>
			<path class="st3" d="M470.98,286.54c-0.06,2.46-2.41,4.5-5.13,4.47c-1.27-0.02-3.77-3.79-3.57-5.58
				c0.25-2.32,1.11-4.25,3.88-4.28C468.48,281.13,471.03,284.06,470.98,286.54z"/>
			<path class="st3" d="M461.59,272.17c-2.16,0.05-3.81-2.42-4-6.27c-0.11-2.33,1.58-1.44,2.56-1.48c3.89-0.15,7.72,2.15,7.25,4.56
				C466.87,271.67,464.66,272.58,461.59,272.17z"/>
			<path class="st3" d="M466.11,413.95c-2.66-0.22-4.32-1.33-4.64-3.69c-0.26-1.86,3.21-4.59,5.58-4.61
				c1.86-0.02,4.94,2.86,4.34,4.81C470.69,412.79,468.05,413.38,466.11,413.95z"/>
			<path class="st3" d="M361.38,411.84c-1.69,0.23-3.37,0.52-5.06,0.68c-2.41,0.22-4.26-0.94-4.46-3.25
				c-0.24-2.76,2.09-3.78,4.35-4.51c2.29-0.74,3.71,0.57,4.09,2.45C360.61,408.77,362.55,409.98,361.38,411.84L361.38,411.84z"/>
			<path class="st3" d="M243.19,362.03c2.12,0.66,5.62-0.74,5.58,3.23c-0.03,3.25-2.3,5.61-4.61,5.18c-2.2-0.41-3.58-2.09-4.61-3.95
				C239.33,366.08,242.82,362,243.19,362.03z"/>
			<path class="st3" d="M398.56,415.8c3.39-1.05,6.86-1.3,10.38-1.2c1.23,2.41,0.08,3.8-2.04,4.8c-1.84,0.87-3.85,1.32-5.42,2.84
				c-1.11,1.08-1.86,0.1-2.13-1.05C398.95,419.42,398.37,417.66,398.56,415.8z"/>
			<path class="st3" d="M461.34,259.1c0.06,1.56-0.06,3.34-2.1,3.62c-2.33,0.32-6.18-2.85-5.87-4.94c0.3-2,1.31-3.97,4.02-3.72
				C460.41,254.33,461.47,256.18,461.34,259.1z"/>
			<path class="st3" d="M342.68,231.58c-0.03,0.97-4.91,4.71-6.03,4.41c-1.8-0.49-3.56-1.26-3.48-3.61
				c0.05-1.65,3.61-4.42,5.49-4.38C340.52,228.05,342.73,230.01,342.68,231.58z"/>
			<path class="st3" d="M387.58,212.01c0.16,1.71-0.56,2.77-2.72,2.77c-3.32,0-5.22-1.77-5.3-5.15c-0.05-1.99,1.11-2.46,2.88-2.47
				C385.69,207.14,387.47,208.66,387.58,212.01z"/>
			<path class="st3" d="M279.2,392.72c-0.23,0.48-0.43,1.02-0.73,1.5c-0.65,1.06-1.62,1.28-2.67,0.69
				c-2.21-1.25-5.95,2.46-7.11-2.26c-0.35-1.44-0.45-2.18,1.45-1.97c1.63,0.18,3.85,2.52,4.79-1.09c0.17-0.66,1.26-0.02,1.79,0.31
				C277.8,390.56,278.83,391.31,279.2,392.72z"/>
			<path class="st3" d="M382.59,269.02c-0.37,2.12-1.67,3.53-3.65,3.44c-1.49-0.07-3.58-0.2-3.76-2.61
				c-0.13-1.74,2.2-4.71,3.88-4.52C381.13,265.57,381.87,267.38,382.59,269.02z"/>
			<path class="st3" d="M361.38,411.84c2.96,1.01,4.71,4.75,3.39,7.22c-0.1,0.2-0.22,0.58-0.29,0.57c-2.17-0.35-3.73-1.85-5.35-3.1
				c-0.96-0.74-0.73-2.07,0.56-2.8C360.46,413.3,361.39,412.98,361.38,411.84C361.38,411.84,361.38,411.84,361.38,411.84z"/>
			<path class="st3" d="M406.99,436.02c-0.48-3.39,1.95-2.97,3.32-3.28c1.95-0.44,2.68,1.47,2.59,2.78
				c-0.18,2.45-2.76,3.8-4.41,4.02C406.83,439.75,407.75,436.75,406.99,436.02z"/>
			<path class="st0" d="M209.43,217.63c-10.14-0.3-18.84-2.63-26.13-8.9c-11.06-9.52-13.81-23.32-7.35-36.35
				c10.43-21.01,40.58-29.94,60.77-18.01c17.35,10.25,20.83,31.51,7.69,46.88C235.03,212.22,222.89,217.12,209.43,217.63z"/>
			<path class="st0" d="M219.45,125.7c24.31-0.17,43.88,13.9,52.33,37.44c2.68,7.45,4.49,15.05,5.31,22.93
				c0.4,3.79,2.22,4.32,5.17,1.73c2.64-2.31,4.48-5.19,5.34-8.62c0.61-2.41,1.83-4.13,4.52-3.55c2.57,0.56,2.91,2.68,2.44,4.9
				c-1.48,6.88-5.2,12.28-11.59,15.26c-6.33,2.96-12.79-1.4-13.2-8.79c-0.61-10.81-3.84-20.82-8.91-30.24
				c-9.21-17.1-28.71-26.48-47.98-23.6c-5.3,0.79-10.62,1.39-15.81,2.8c-2.15,0.58-3.98,0.02-4.75-2.19
				c-0.87-2.49,0.59-4.08,2.77-4.68c3.62-1,7.31-1.81,11.01-2.42C210.51,125.94,214.97,125.66,219.45,125.7z"/>
			<path class="st0" d="M126.08,265.09c-2.45,0.12-4.79-0.36-7.02-1.35c-4.1-1.83-5.98-5.55-4.62-9.81
				c1.1-3.46,2.52-6.84,3.92-10.19c2.39-5.72,3.05-11.64,2.68-17.79c-0.49-7.99-1.01-16.02,1.81-23.76c0.5-1.39,1.04-2.79,1.79-4.05
				c1.11-1.88,2.65-3.45,5.04-2.21c2.4,1.26,2.44,3.31,1.33,5.59c-3.15,6.48-3.66,13.31-2.91,20.39c0.93,8.76,0.32,17.36-3.39,25.54
				c-0.94,2.07-1.68,4.25-2.68,6.29c-1.33,2.72-0.35,3.74,2.43,3.96c4.92,0.39,9.44-1.07,13.93-2.78c8.72-3.33,17.27-7.18,26.57-8.8
				c6.88-1.2,13.79-2.15,20.78-2.43c2.43-0.1,4.25,0.78,4.45,3.22c0.2,2.47-1.52,3.59-3.91,3.85c-8.63,0.92-17.27,1.6-25.73,3.83
				c-7.64,2.02-14.67,5.59-22.14,8.01C134.39,263.88,130.35,265.04,126.08,265.09z"/>
			<path class="st0" d="M94.27,253.33c-5.01-0.35-11-2.43-16.33-6.2c-2.34-1.66-2.81-3.99-1.39-6.66c1.41-2.66,3.61-4.47,6.21-5.71
				c5.67-2.7,11.24-5.56,16.62-8.82c2.66-1.61,5.62-2.46,8.84-2.32c4.83,0.2,8.07,3.91,6.89,8.55c-1.71,6.76-5.06,12.75-9.92,17.77
				C102.68,252.51,99.39,253.47,94.27,253.33z"/>
			<path class="st1" d="M296.08,348.48c-1.59-1.04-1.45-2.67-1.58-4.28c-0.52-6.48,0.52-12.74,2.32-18.93
				c0.28-0.97,0.43-2.02,0.44-3.03c0.02-2.06-0.41-4.16,2.94-2.23c1.58,0.91,6.22-2.26,6.55-4.07c0.07-0.39-0.1-1.15-0.33-1.22
				c-2.4-0.77-3.39-3.31-5.57-4.32c-2.65-1.24-3.91,0.81-4.81,2.49c-0.97,1.83-1.98,2.12-3.51,1.11c-4.45-2.93-8.21-0.42-11.69,1.79
				c-2.03,1.29-4.11,2.45-6.17,3.65c-1.14,0.67-1.98,0.57-3.04-0.36c-3.41-3-3.3-3,0.38-5.48c2.82-1.9,5.27-4.37,7.81-6.66
				c1.04-0.94,1.96-1.08,3.38-0.82c2.23,0.41,4.57,0.36,6.84,0.24c1.94-0.1,3.33-1.01,3.9-3.16c0.38-1.45,0.65-3.81,2.09-3.91
				c1.41-0.09,3.21,1.22,3.86,2.96c0.51,1.38,0.97,0.59,1.89,0.47c4.01-0.5,6.14-4.76,10.39-4.89c0.71-0.02,1.02-2.64,3.42-2.59
				c2.88,0.06,4.85,1.01,6.31,3.3c1.63,2.55,4.02,4.38,6.1,6.51c2.16,2.21,4.97,1.75,7.66,1.7c-0.52,1.34-0.79,2.81,0.05,3.98
				c3.5,4.89,1.68,9.58-0.43,14.23c-3.55,7.83-10.14,12.51-17.36,16.5c0.08-1.39-0.41-2.19-1.96-1.9c-2.3,0.43-2.26,2.14-2.14,3.9
				c-4.04,2.46-8.67,2.89-13.17,3.3C298.8,346.95,297.41,347.36,296.08,348.48z M314.38,338.62c1.44-0.8,5.06,0.6,6.36-1.64
				c1.33-2.28,3.11-2.67,5.01-3.44c1.04-0.42,2.43-0.48,2.41-2c-0.01-1.04-0.5-2.09-1.39-2.65c-1.14-0.72-2.47-0.72-3.52,0.2
				c-1.11,0.98-2.15,2.07-3.09,3.22c-1.01,1.23-2.52,1.51-3.18,0.41c-1.03-1.7-2.37-1.51-3.81-1.5c-1.61,0.02-2.84,0.2-2.34-2.35
				c0.36-1.82-1.21-3.86-2.96-4.14c-1.91-0.31-4.19,0.41-5.15,2.58c-0.8,1.81-0.5,3.87,1.27,4.77c2.55,1.29,4.14,3.45,6.02,5.36
				C310.98,338.42,312.02,338.98,314.38,338.62z M324.64,322.13c1.32-0.33,2.37-0.44,3.3-0.84c1.72-0.75,2.37-2.62,2.71-4.08
				c0.31-1.34-1.18-2.51-2.55-3.33c-1.74-1.04-2.64,0.13-3.9,0.95c-2.07,1.36-2.5,4.86-6.02,4.4c-0.76-0.1-0.85,1.17-0.39,1.97
				c0.44,0.78,1.04,2.15,1.89,1.37C321.48,320.91,323.07,320.66,324.64,322.13z"/>
			<path class="st4" d="M317.94,341.48c7.22-4,13.81-8.68,17.36-16.5c2.11-4.65,3.93-9.34,0.43-14.23
				c-0.84-1.17-0.57-2.65-0.05-3.98c2.25-1.72,4.8-2.35,7.46-1.41c6.1,2.14,11.5-0.07,16.86-2.53c2.08-0.96,4.01-2.25,6.08-3.22
				c3.25-1.53,5.17-0.17,4.82,3.44c-0.31,3.23-2.12,5.79-4.3,8.04c-7.98,8.26-17.01,15.44-25.06,23.6
				c-9.61,9.73-19.82,18.76-30.24,27.59c-2.44,2.07-4.82,4.29-8.44,4.06c-2.04-0.13-3.15-0.92-2.54-3.01
				c1.37-4.68,1.28-8.82-3.47-11.67c-1.2-0.72-0.75-2.04-0.77-3.16c1.33-1.12,2.72-1.53,4.59-1.7c4.5-0.41,9.13-0.84,13.17-3.3
				C315.51,343.44,316.57,342.15,317.94,341.48z"/>
			<path class="st1" d="M369.65,387.72c-2.2-1.04-1.61-2.99-1.54-4.76C369.45,384.28,369.42,386.04,369.65,387.72z"/>
			<path class="st3" d="M314.38,338.62c-2.37,0.36-3.4-0.2-4.35-1.17c-1.88-1.92-3.48-4.08-6.02-5.36
				c-1.77-0.89-2.07-2.95-1.27-4.77c0.96-2.17,3.24-2.89,5.15-2.58c1.75,0.29,3.32,2.33,2.96,4.14c-0.51,2.55,0.73,2.36,2.34,2.35
				c1.44-0.01,2.78-0.2,3.81,1.5c0.67,1.1,2.18,0.81,3.18-0.41c0.94-1.15,1.98-2.24,3.09-3.22c1.05-0.93,2.38-0.93,3.52-0.2
				c0.89,0.57,1.38,1.61,1.39,2.65c0.01,1.52-1.38,1.58-2.41,2c-1.9,0.77-3.68,1.16-5.01,3.44
				C319.44,339.22,315.82,337.82,314.38,338.62z"/>
			<path class="st3" d="M324.64,322.13c-1.57-1.48-3.17-1.22-4.97,0.44c-0.85,0.78-1.45-0.59-1.89-1.37
				c-0.45-0.81-0.37-2.08,0.39-1.97c3.52,0.46,3.96-3.04,6.02-4.4c1.26-0.83,2.17-1.99,3.9-0.95c1.37,0.82,2.86,1.99,2.55,3.33
				c-0.34,1.47-1,3.33-2.71,4.08C327.02,321.7,325.97,321.81,324.64,322.13z"/>
			<path class="st3" d="M317.94,341.48c-1.37,0.67-2.43,1.96-4.1,2c-0.13-1.76-0.17-3.47,2.14-3.9
				C317.53,339.29,318.01,340.1,317.94,341.48z"/>
		</g>
	</g>
</g>
</svg>
